<svg width="178" height="246" viewBox="0 0 178 246" fill="none" xmlns="http://www.w3.org/2000/svg">
<path d="M3 22C3 34.1503 12.8497 44 25 44V0C12.8497 0 3 9.84973 3 22Z" fill="#F36A22"/>
<path d="M45 22C45 34.1503 35.1503 44 23 44V0C35.1503 0 45 9.84973 45 22Z" fill="#FEB048"/>
<path d="M117 189H96V27L117 189Z" fill="#2F7A84"/>
<path d="M117 27H96L117 188.914V27Z" fill="#F36A22"/>
<path d="M91 101H71V188.5H91V101Z" fill="#FEB048"/>
<path d="M39 101H19V188.5H39V101Z" fill="#2F7A84"/>
<path d="M71 173H39V189H71V173Z" fill="#A33233"/>
<path d="M71 101H39V132H71V101Z" fill="#F36A22"/>
<g style="mix-blend-mode:overlay">
<path d="M47 101V229" stroke="#272B52" strokeWidth="4"/>
</g>
<g style="mix-blend-mode:overlay">
<path d="M55 101V229" stroke="#272B52" strokeWidth="4"/>
</g>
<g style="mix-blend-mode:overlay">
<path d="M63 101V229" stroke="#272B52" strokeWidth="4"/>
</g>
<path d="M91 28.5V101H19L91 28.5Z" fill="#A33233"/>
<g style="mix-blend-mode:color-burn">
<path d="M75 12V84.5H3L75 12Z" fill="#A33233"/>
</g>
<path d="M63.683 155.827L75.5544 131.703C78.6913 134.421 80.5612 134.852 83.9676 134.914C97.7192 134.582 103.614 138.808 113.385 148.149C123.911 157.651 130.788 161.531 144.448 166.381C159.337 170.346 165.598 175.171 169.632 192.679C157.887 183.984 151.273 181.22 139.383 181.834C123.589 185.153 115.099 184.7 101.688 172.952C91.2014 163.149 82.8892 159.676 70.0657 159.574L63.683 155.827Z" fill="#FEB048" stroke="#F4EFD3" strokeWidth="10"/>
<path d="M78.7979 138.03L70.9801 154.313" stroke="#F4EFD3" strokeWidth="10" stroke-linecap="round"/>
<path d="M151.157 171.804C156.613 173.675 158.82 175.322 160.24 180.034" stroke="#F4EFD3" strokeWidth="10" stroke-linecap="round"/>
<path d="M115.47 179.266C119.379 180.446 121.463 180.775 125.003 180.803" stroke="#F4EFD3" strokeWidth="10" stroke-linecap="round"/>
<path d="M118.104 176.754C120.143 177.551 121.012 177.641 122.313 177.485" stroke="#F4EFD3" strokeWidth="10" stroke-linecap="round"/>
<path d="M88.9408 140.505C93.909 139.942 97.486 138.403 100.733 145.107" stroke="#F4EFD3" strokeWidth="10" stroke-linecap="round"/>
<path d="M91.4528 143.139C95.1688 143.141 96.0637 143.972 96.6274 146.176" stroke="#F4EFD3" strokeWidth="10" stroke-linecap="round"/>
<path d="M62.7247 155.537L74.6669 131.239C77.8483 133.99 79.7414 134.43 83.188 134.501C97.1 134.206 103.076 138.485 112.988 147.934C123.664 157.547 130.633 161.48 144.467 166.41C159.541 170.451 165.89 175.335 170.021 193.004C158.114 184.202 151.414 181.395 139.386 181.98C123.417 185.283 114.825 184.803 101.224 172.916C90.5866 163 82.167 159.473 69.1928 159.334L62.7247 155.537Z" fill="#FEB048" stroke="#272B52"/>
<path d="M78.7979 138.03L70.9801 154.313" stroke="#272B52" stroke-linecap="round"/>
<path d="M151.157 171.804C156.613 173.675 158.82 175.322 160.24 180.034" stroke="#272B52" stroke-linecap="round"/>
<path d="M115.47 179.266C119.379 180.446 121.464 180.775 125.003 180.803" stroke="#272B52" stroke-linecap="round"/>
<path d="M118.104 176.754C120.143 177.551 121.012 177.641 122.313 177.485" stroke="#272B52" stroke-linecap="round"/>
<path d="M88.9408 140.505C93.909 139.942 97.486 138.403 100.733 145.107" stroke="#272B52" stroke-linecap="round"/>
<path d="M91.4528 143.139C95.1688 143.141 96.0637 143.972 96.6274 146.176" stroke="#272B52" stroke-linecap="round"/>
<path d="M111.454 166.461L122.138 141.787C118.035 141.159 116.495 140.014 114.241 137.459C105.583 126.77 98.5446 125.018 85.0979 123.629C71.0407 121.768 63.6291 119.044 51.0841 111.782C38.4172 103.01 30.6847 101.368 14.7358 109.639C28.9682 112.952 35.3597 116.198 42.5962 125.652C50.3017 139.833 56.1475 146.007 73.7853 148.609C88.0469 150.245 96.0784 154.326 104.465 164.027L111.454 166.461Z" fill="#FEB048" stroke="#F4EFD3" strokeWidth="10"/>
<path d="M115.217 143.416L107.88 159.921" stroke="#F4EFD3" strokeWidth="10" stroke-linecap="round"/>
<path d="M42.6065 110.186C37.6466 107.242 34.9614 106.629 30.4519 108.6" stroke="#F4EFD3" strokeWidth="10" stroke-linecap="round"/>
<path d="M60.0466 142.203C56.615 139.99 55.0138 138.615 52.6985 135.938" stroke="#F4EFD3" strokeWidth="10" stroke-linecap="round"/>
<path d="M60.2532 138.569C58.3252 137.532 57.6934 136.929 56.9691 135.837" stroke="#F4EFD3" strokeWidth="10" stroke-linecap="round"/>
<path d="M106.76 137.294C103.969 133.145 102.823 129.424 95.613 131.294" stroke="#F4EFD3" strokeWidth="10" stroke-linecap="round"/>
<path d="M103.125 137.088C100.716 134.258 99.5034 134.115 97.4593 135.114" stroke="#F4EFD3" strokeWidth="10" stroke-linecap="round"/>
<path d="M112.297 167.003L123.066 142.163C118.909 141.522 117.347 140.365 115.06 137.786C106.271 126.998 99.1394 125.219 85.5192 123.791C71.2799 121.888 63.7688 119.129 51.0499 111.786C38.2046 102.922 30.3707 101.252 14.236 109.554C28.6557 112.92 35.1348 116.205 42.4822 125.745C50.3141 140.049 56.2466 146.282 74.1134 148.939C88.5593 150.616 96.7009 154.744 105.214 164.536L112.297 167.003Z" fill="#FEB048" stroke="#272B52"/>
<path d="M115.217 143.416L107.88 159.921" stroke="#272B52" stroke-linecap="round"/>
<path d="M42.6065 110.186C37.6466 107.242 34.9614 106.629 30.4519 108.6" stroke="#272B52" stroke-linecap="round"/>
<path d="M60.0466 142.203C56.615 139.99 55.0138 138.615 52.6985 135.938" stroke="#272B52" stroke-linecap="round"/>
<path d="M60.2532 138.569C58.3252 137.532 57.6934 136.929 56.9691 135.837" stroke="#272B52" stroke-linecap="round"/>
<path d="M106.76 137.294C103.969 133.145 102.823 129.424 95.613 131.294" stroke="#272B52" stroke-linecap="round"/>
<path d="M103.125 137.087C100.716 134.258 99.5034 134.115 97.4593 135.114" stroke="#272B52" stroke-linecap="round"/>
<mask id="mask0_396_73450" style="mask-type:luminance" maskUnits="userSpaceOnUse" x="5" y="65" width="164" height="172">
<path d="M5 181.115L72.0393 65L168.504 120.694L101.465 236.81L5 181.115Z" fill="white"/>
</mask>
<g mask="url(#mask0_396_73450)">
<path d="M95.9948 159.693C96.6413 159.756 97.2278 160.157 97.5694 160.772C97.8922 161.353 97.9224 162.023 97.6526 162.572C97.6883 162.857 97.6831 163.142 97.6375 163.421C97.5697 163.834 97.409 164.239 97.1733 164.599C97.6526 165.822 97.1499 167.24 96.0303 167.81C95.7261 168.405 95.6516 169.03 95.5797 169.634C95.4499 170.718 95.3271 171.742 93.9758 172.471C93.8696 172.647 93.7463 172.822 93.6077 172.992C94.6096 174.042 95.1307 175.48 95.0047 176.864C94.9479 177.49 94.7616 178.075 94.4601 178.598C94.1454 179.143 93.7052 179.618 93.1553 179.997C93.0034 180.116 92.8319 180.224 92.6483 180.316C92.7196 181.565 92.2674 182.729 91.4016 183.52C90.5432 184.302 89.3369 184.682 88.215 184.531C88.3327 186.359 87.2338 188.117 85.6045 188.669C84.9371 188.936 84.2532 188.927 83.5916 188.919C83.2161 188.914 82.829 188.909 82.449 188.956C81.0257 193.019 77.5467 192.094 74.4754 191.276C73.8442 191.108 73.248 190.949 72.6631 190.827C71.484 190.531 70.2332 190.556 69.0238 190.58C68.2563 190.595 67.4627 190.611 66.6893 190.546C65.1806 190.502 63.6842 190.391 62.2369 190.283C58.0617 189.833 54.55 189.082 51.4968 187.989C49.0195 187.541 45.4912 186.646 43.6422 184.113C43.2215 183.992 42.8004 183.848 42.3899 183.687C41.6411 183.38 40.9235 182.89 40.2297 182.417C40.0258 182.277 39.8243 182.14 39.626 182.01C38.83 181.385 38.3699 180.412 38.3541 179.332C38.3386 178.266 38.7534 177.286 39.4951 176.63C38.9261 174.909 39.8006 173.049 41.5629 172.216C41.0699 171.252 41.062 170.211 41.544 169.271C42.1294 168.131 43.3235 167.324 44.6811 167.142C44.9574 166.269 45.7804 165.489 46.7692 165.165C46.8332 165.004 46.9203 164.851 47.0294 164.712C47.2098 164.48 47.4205 164.298 47.6841 164.147C47.4254 163.733 47.3421 163.223 47.4558 162.725C47.5817 162.172 47.9324 161.71 48.4174 161.46C48.8351 161.214 49.3313 161.107 49.8112 161.003C49.9282 160.978 50.0442 160.952 50.1576 160.925C50.7701 160.779 51.3814 160.626 51.9926 160.473C52.4587 160.357 52.9248 160.24 53.3918 160.127C54.0148 159.976 54.6549 159.86 55.274 159.748C55.8599 159.642 56.466 159.533 57.053 159.394C57.115 159.368 57.198 159.339 57.2811 159.31C57.4597 159.247 57.6287 159.188 57.7783 159.096C58.6224 158.6 59.8233 158.635 60.7176 159.176C62.0046 159.061 63.2119 159.586 63.8764 160.553C64.3301 161.203 64.5277 161.998 64.4344 162.794C64.4955 162.953 64.5463 163.117 64.5864 163.284C65.0251 163.65 65.3729 164.14 65.5681 164.669C65.7097 165.051 65.7775 165.466 65.7665 165.879C66.462 165.93 67.1264 166.087 67.7433 166.348L67.7667 166.342C67.7942 166.336 67.8214 166.329 67.8489 166.324C68.0739 166.075 68.3364 165.87 68.6299 165.713L68.6694 165.689C69.643 165.132 70.7335 165.255 71.7883 165.374L71.8415 165.38C72.0391 165.003 72.3048 164.663 72.635 164.369C73.5374 163.399 74.8901 163.092 76.2207 162.909C76.7818 162.498 77.5235 162.322 78.2384 162.417L78.1689 162.338L78.6451 162.499C79.4559 162.757 80.3939 162.663 81.3002 162.507C81.1309 162.078 81.1536 161.621 81.3678 161.203C81.6641 160.626 82.2876 160.189 82.9687 160.076C84.1744 158.907 86.6962 159.052 88.726 159.169C89.3841 159.207 90.0051 159.243 90.5091 159.23C90.8962 159.248 91.2741 159.276 91.652 159.303C92.1556 159.34 92.6759 159.379 93.1865 159.393C94.1145 159.192 95.1695 159.076 95.9948 159.693ZM115.091 97.8793C113.489 97.438 111.815 97.3728 110.195 97.31L109.5 97.29C108.2 97.2543 106.856 97.2178 105.536 97.1405C105.325 97.1289 105.129 97.0391 104.921 96.9435C104.866 96.918 104.811 96.8927 104.756 96.8687L104.319 96.684L104.349 96.7266C104.043 96.6412 103.722 96.6029 103.401 96.614C103.291 96.3884 103.166 96.175 103.028 95.9781C101.236 93.4265 98.4966 93.8406 95.8475 94.2408L95.6427 94.272C95.5277 94.2813 95.4127 94.295 95.2978 94.3086C94.9268 94.3526 94.5765 94.3942 94.26 94.3017C93.5637 93.9284 92.879 93.6794 92.167 93.5414C91.6611 93.4421 91.1269 93.3719 90.5487 93.3283C89.7305 93.1732 88.905 92.9582 88.1065 92.7506C87.0643 92.4796 85.9867 92.1993 84.899 92.0434C84.6978 92.0144 84.4938 91.9832 84.2877 91.9514C82.6269 91.6962 80.7468 91.407 79.1965 92.3252C77.8421 91.9215 76.3127 91.4716 74.7536 91.4714C73.6097 91.4565 72.5024 91.8317 71.6328 92.5284C70.2162 93.0807 69.0472 94.3469 68.617 95.7843C66.4157 95.082 64.5916 95.1203 63.1989 95.8965C61.4468 96.784 60.2764 98.7681 60.3359 100.739C59.3036 101.725 58.6872 103.096 58.6428 104.513C58.6398 104.61 58.6394 104.706 58.6415 104.802C56.9027 106.553 56.6586 109.451 58.0893 111.323C57.8177 112.642 58.099 114.024 58.8654 115.122C59.1866 115.581 59.5829 115.978 60.0456 116.303L60.0303 116.31L60.2676 116.454C60.1355 117.04 60.2141 117.694 60.4837 118.231C59.9161 118.509 59.5365 119.069 59.4072 119.823C59.2984 120.432 59.4953 121.034 59.9477 121.474C60.4211 121.934 61.0833 122.13 61.7222 121.997C61.9061 121.954 62.0769 121.887 62.2418 121.822C62.4543 121.738 62.655 121.659 62.8737 121.632C63.61 121.543 64.3623 121.475 65.0896 121.409C65.9717 121.33 66.8834 121.247 67.7701 121.127C69.1303 121.022 70.961 120.704 71.3675 119.178C73.5159 119.767 76.0089 118.664 76.9952 116.673C78.3828 115.694 79.2908 114.112 79.4385 112.42C79.5297 112.379 79.62 112.335 79.7088 112.289C81.0045 111.611 81.9498 110.43 82.3818 108.957C82.4026 108.961 82.4223 108.964 82.4407 108.967C83.2149 109.177 84.0339 109.228 84.8128 109.115C85.4079 109.594 86.055 110.042 86.7858 110.482C86.782 110.488 86.7781 110.495 86.7745 110.501C86.2262 111.451 86.3986 112.706 87.1747 113.455L87.1618 113.462L87.3236 113.59C87.5983 113.807 87.8696 114.017 88.1686 114.207C88.246 114.461 88.4431 114.704 88.7683 114.948C89.317 115.363 89.9502 115.719 90.7549 116.066C90.7496 116.247 90.7672 116.426 90.8075 116.6C90.942 117.184 91.3389 117.706 91.8833 118.026L91.8677 118.043L92.0432 118.115C92.5469 118.32 93.075 118.481 93.5749 118.623C93.5914 118.67 93.6125 118.716 93.6381 118.76C93.6998 118.867 93.7706 118.977 93.8709 119.073C93.7426 119.384 93.745 119.663 93.8784 119.901C94.2545 120.575 95.5722 120.705 96.2973 120.777C97.5314 120.897 98.9097 120.979 100.165 121.008C100.533 121.053 100.9 121.096 101.267 121.139C102.713 121.31 104.209 121.486 105.642 121.768C105.849 121.838 106.063 121.897 106.269 121.953C106.599 122.044 106.939 122.138 107.245 122.274C107.784 122.538 108.444 122.466 108.968 122.087C109.446 121.74 109.713 121.207 109.685 120.669C110.142 120.586 110.578 120.437 110.981 120.226C112.709 119.324 113.688 117.426 113.445 115.476C114.584 115.144 115.523 114.404 116.119 113.372C116.157 113.306 116.194 113.238 116.23 113.169C116.892 111.884 116.983 110.352 116.484 108.95C117.841 107.969 118.719 106.366 118.843 104.637C119.387 103.403 119.351 102.038 118.739 100.791C118.033 99.3518 116.67 98.2633 115.091 97.8793Z" fill="#A4C3BA"/>
<path d="M126.629 171.415C127.02 171.581 127.305 171.908 127.43 172.337C127.559 172.779 127.497 173.258 127.257 173.624C127.223 173.958 127.099 174.291 126.9 174.589C126.9 174.59 126.899 174.591 126.898 174.592C126.331 175.574 125.62 176.485 124.932 177.365L124.757 177.589C124.711 177.679 124.652 177.788 124.592 177.897L124.548 177.979C124.923 178.411 125.051 178.992 124.88 179.519C124.818 179.71 124.758 179.901 124.698 180.091C124.554 180.546 124.405 181.015 124.24 181.472C123.77 182.759 123.232 184.039 122.712 185.277C122.212 186.468 121.695 187.699 121.252 188.906C121.518 189.255 121.66 189.689 121.662 190.168C121.662 190.344 121.633 190.517 121.571 190.701L121.59 190.698L121.481 190.937C120.871 192.273 120.272 193.759 119.65 195.476C120.04 196.242 119.942 197.229 119.4 197.958C118.811 199.253 118.371 200.634 117.945 201.971C117.588 203.094 117.218 204.255 116.76 205.365C116.312 207.651 115.669 209.839 114.858 211.843C114.792 211.98 114.737 212.119 114.681 212.259C114.555 212.575 114.424 212.902 114.201 213.16C114.333 213.483 114.308 213.826 114.137 214.122C114.079 214.222 114.004 214.317 113.913 214.404C113.009 215.183 111.848 215.515 110.726 215.837C110.577 215.879 110.429 215.921 110.282 215.965C109.605 216.064 109.043 216.109 108.447 216.157C107.896 216.202 107.326 216.247 106.648 216.337C106.27 216.352 105.891 216.393 105.524 216.432C104.666 216.523 103.778 216.618 102.928 216.407C101.413 216.439 100.044 216.375 98.7413 216.21C97.9987 216.211 97.2216 216.248 96.4701 216.284C95.3778 216.335 94.2489 216.389 93.1366 216.333C92.7798 216.538 92.3673 216.481 92.0013 216.43C91.5351 216.391 91.0708 216.371 90.6226 216.352C90.2553 216.336 89.888 216.321 89.5211 216.296C87.7235 216.166 85.8895 216.034 84.1028 215.751C83.6951 215.684 83.2894 215.613 82.8836 215.542C81.8397 215.359 80.7606 215.17 79.6867 215.064C79.2618 215.434 78.7299 215.335 78.2589 215.247C78.0647 215.211 77.8809 215.177 77.7067 215.172C76.7134 215.085 75.885 215.004 75.045 214.885C73.6529 214.677 72.2429 214.439 70.8793 214.209C69.9544 214.054 69.0298 213.898 68.1044 213.75C68.0107 213.969 67.8591 214.158 67.6687 214.286C67.0245 214.741 66.3712 214.419 65.7947 214.135C65.5935 214.036 65.4035 213.942 65.2175 213.879C65.0686 213.822 64.9246 213.769 64.7802 213.715C64.2179 213.507 63.6366 213.291 63.1009 212.988C62.9882 212.923 62.8893 212.849 62.7939 212.778C62.6477 212.668 62.5098 212.564 62.3413 212.509C60.9809 211.862 59.7584 211.223 58.5929 210.551C58.1359 210.91 57.4237 210.915 56.9559 210.547C56.4677 210.259 55.9775 209.925 55.5034 209.603L55.2738 209.447C54.7329 209.063 54.1524 208.72 53.591 208.388C53.2941 208.212 52.9969 208.037 52.7044 207.855C51.4003 207.066 50.0028 206.218 48.627 205.369C48.4804 205.29 48.3323 205.2 48.1851 205.111C47.7856 204.869 47.4081 204.64 46.9614 204.552L46.9354 204.547L46.9131 204.533C46.3294 204.148 45.7423 203.767 45.1549 203.385C43.491 202.305 41.7704 201.188 40.1446 199.992C39.6072 199.699 39.2024 199.416 38.8849 199.114C38.6772 198.986 38.4856 198.871 38.3201 198.782C38.1444 198.704 37.8577 198.575 37.7239 198.346C37.0915 198.536 36.3588 198.297 35.9379 197.747C35.4247 197.077 35.5067 196.161 36.1573 195.299C36.1914 195.227 36.2437 195.122 36.301 195.006C36.7958 194.013 37.6178 192.36 38.609 191.394C38.5805 191.163 38.6203 190.937 38.7228 190.74C36.4305 190.082 34.0463 189.669 31.739 189.27C31.3591 189.205 30.9793 189.139 30.5997 189.072C30.4378 189.04 30.2797 189.003 30.1215 188.966C29.6688 188.86 29.2414 188.761 28.7956 188.773C28.7168 188.775 28.6381 188.767 28.5608 188.751L28.4761 188.832C28.2817 189.027 27.9411 189.036 27.7187 188.849C27.4839 188.652 27.4513 188.301 27.6455 188.046C27.664 188.023 27.682 188 27.7 187.977C27.6089 187.728 27.5988 187.462 27.6721 187.218C27.8801 186.666 28.258 186.401 28.8293 186.398C28.9354 186.295 29.0616 186.224 29.1994 186.19C29.3337 186.054 29.4606 185.904 29.5833 185.757C29.6803 185.642 29.7771 185.527 29.8788 185.416C31.3061 183.876 32.6076 182.186 33.8664 180.552L34.157 180.175C34.2392 180.066 34.3242 179.957 34.4093 179.849C35.2372 178.49 36.0529 177.072 36.8421 175.7L37.1893 175.097L38.366 172.625C38.4983 172.371 38.6155 172.103 38.7285 171.844C38.948 171.34 39.1755 170.821 39.5186 170.376L39.7679 169.824C40.2279 168.807 40.7035 167.755 41.1249 166.701C41.1507 166.616 41.1787 166.52 41.2071 166.424C41.4653 165.54 41.7577 164.541 42.9984 164.685C43.0457 164.477 43.1367 164.287 43.2251 164.102C43.2965 163.953 43.3638 163.812 43.4087 163.665C43.438 163.591 43.4628 163.526 43.4883 163.46C43.6511 163.035 43.8349 162.556 44.2141 162.272C44.3107 161.812 44.6961 161.46 45.1504 161.427C45.9925 161.381 46.8735 161.25 48.0091 161.002C48.4797 160.94 48.8955 160.772 49.3358 160.595C49.6042 160.487 49.8816 160.376 50.168 160.291C50.5487 160.239 50.8984 160.415 51.1013 160.746C51.3048 161.079 51.3031 161.473 51.0968 161.768C50.9241 162.055 50.6614 162.175 50.4533 162.236C50.4046 162.409 50.3126 162.576 50.1796 162.733C49.132 164.107 48.3078 165.661 47.51 167.165C47.2564 167.643 47.0029 168.121 46.7418 168.595C46.2817 169.41 45.7243 170.174 45.1857 170.911C45.0396 171.111 44.8937 171.31 44.7494 171.511C44.4597 171.98 44.1698 172.458 43.8798 172.936C43.6498 173.316 43.42 173.695 43.1876 174.073C43.3155 174.454 43.1258 174.809 42.9573 175.124C42.9148 175.203 42.8729 175.281 42.8379 175.357C42.5535 175.89 42.2454 176.409 41.9477 176.911C41.7778 177.197 41.6085 177.483 41.4426 177.772C41.3523 177.929 41.2616 178.086 41.1714 178.244C41.0253 178.5 40.8789 178.756 40.7292 179.008C41.5217 179.152 42.3671 180.085 42.891 180.664L43.0406 180.828C43.5769 181.242 44.0147 181.665 44.3622 182.103C44.9469 182.831 45.3202 183.692 45.6498 184.451C45.8211 184.778 46.1834 185.463 45.8192 186.046C45.8393 186.107 45.8598 186.168 45.8808 186.229C46.0403 186.246 46.1995 186.277 46.3539 186.307C46.4526 186.326 46.5497 186.345 46.6446 186.36C47.0821 186.435 47.5176 186.509 47.952 186.583L48.0645 186.601C50.3692 186.975 52.7525 187.361 55.0216 187.623C55.2208 187.654 55.4132 187.691 55.6057 187.729C56.0503 187.816 56.4705 187.898 56.913 187.884C57.178 187.915 57.4487 187.903 57.7353 187.89C58.4031 187.86 59.1584 187.826 59.628 188.401C60.1654 188.5 60.7022 188.603 61.2393 188.706C62.1017 188.871 62.9934 189.042 63.8732 189.194C64.2994 189.268 64.6823 189.325 65.0441 189.37C65.3781 189.367 65.8739 189.408 66.201 189.76C66.4938 189.788 66.7849 189.82 67.0753 189.853C67.7975 189.933 68.5444 190.016 69.2867 190.01C69.5426 190.024 69.8107 189.998 70.0948 189.97C70.7867 189.903 71.5682 189.827 72.0996 190.394C72.3675 190.388 72.6408 190.37 72.9059 190.353C73.1824 190.335 73.4677 190.316 73.7503 190.311C74.7306 188.754 79.2794 186.531 80.8306 186.874C81.3009 186.98 81.6693 187.347 81.7977 187.826C82.5957 187.757 83.4353 187.732 84.3574 187.75C84.4276 187.605 84.5242 187.482 84.6417 187.391C84.9581 186.874 85.2805 186.359 85.603 185.845C86.4576 184.481 87.342 183.071 88.0972 181.621L88.2217 181.38C88.4688 180.903 88.7245 180.41 88.8691 179.895C88.8267 179.347 89.1814 178.83 89.7286 178.637L89.8854 178.3C90.3983 177.198 90.9284 176.057 91.3773 174.91L91.3825 174.891C91.3997 174.834 91.417 174.776 91.4358 174.719C91.4814 174.463 91.5594 174.115 91.7229 173.831C91.9613 173.115 92.2173 172.394 92.4648 171.696C92.6096 171.288 92.7542 170.88 92.8963 170.471C93.0147 170.212 93.0798 169.936 93.1482 169.644C93.2795 169.083 93.416 168.503 93.9235 168.133C94.1372 167.976 94.3927 167.883 94.6676 167.861C94.8348 167.332 95.0032 166.804 95.1743 166.276C95.3377 165.96 95.4258 165.56 95.5191 165.137C95.6455 164.565 95.7753 163.973 96.0928 163.579C96.2023 162.859 96.3594 162.137 96.511 161.439C96.5909 161.072 96.6703 160.706 96.7436 160.34C96.8671 159.664 97.3802 159.159 98.0497 159.055C98.6499 158.962 99.2016 159.221 99.5086 159.733C99.6858 159.734 99.859 159.744 100.015 159.753L100.083 159.757C100.413 159.834 100.766 159.819 101.139 159.802C101.82 159.773 102.524 159.742 102.982 160.279C104.604 160.746 106.139 161.491 107.623 162.212C108.129 162.458 108.635 162.704 109.145 162.939C109.537 163.032 110.072 163.212 110.328 163.706C114.188 165.434 118.002 167.423 121.69 169.346L123.309 170.19C124.234 170.709 125.112 171.065 125.998 171.282C126.021 171.287 126.043 171.291 126.065 171.297C126.241 171.339 126.419 171.374 126.599 171.405L126.629 171.415ZM64.4352 168.887C64.7232 169.055 65.0177 169.253 65.3284 169.462C66.4837 170.239 67.7917 171.12 69.1933 170.596C72.0511 170.911 74.8069 169.93 77.4726 168.98L78.0873 168.761C78.8185 168.392 80.0821 167.422 80.9484 166.429C81.0035 166.412 81.0527 166.391 81.1082 166.359C81.1744 166.309 81.2525 166.274 81.335 166.237C81.4587 166.182 81.5867 166.125 81.689 166.017C81.8704 165.851 82.0133 165.652 82.1516 165.459C82.1885 165.408 82.2254 165.356 82.2517 165.319C82.3365 165.231 82.4236 165.145 82.5109 165.058C82.7688 164.803 83.0354 164.538 83.2425 164.244C83.3188 164.162 83.385 164.071 83.4403 163.976C83.5984 163.702 83.6665 163.386 83.6235 163.094L83.7147 162.921C83.8815 162.603 84.0388 162.303 84.2217 162.054C84.3713 161.832 84.4771 161.591 84.5792 161.358C84.6262 161.251 84.6732 161.143 84.7183 161.05C84.7762 160.955 84.8403 160.86 84.9054 160.765C85.1949 160.34 85.5234 159.857 85.3019 159.27C85.2116 159.015 85.0226 158.81 84.7699 158.691C84.5144 158.571 84.2201 158.557 83.9733 158.648C83.8526 158.681 83.7461 158.738 83.6562 158.819C83.5852 158.829 83.5203 158.846 83.4752 158.867C83.3775 158.889 83.275 158.896 83.1663 158.904L83.1364 158.907C82.7288 158.891 82.3163 158.902 81.9179 158.914C81.3725 158.929 80.809 158.944 80.26 158.89C75.6485 158.428 71.5788 158.482 67.8211 159.056C67.4911 158.823 67.0911 158.81 66.814 158.841C66.4965 158.859 66.1711 158.864 65.8567 158.87C65.5657 158.875 65.2747 158.88 64.9828 158.894C63.9439 158.951 62.9294 159.024 61.9307 159.288C61.8165 159.328 61.6966 159.363 61.5753 159.398C61.3293 159.47 61.0765 159.544 60.8467 159.662C60.7087 159.326 60.3648 159.09 59.9534 159.069C59.488 159.046 59.1075 159.314 58.9789 159.773C58.9164 160.327 59.0644 160.843 59.2074 161.341C59.3442 161.817 59.4734 162.267 59.4335 162.749L59.4341 162.777C59.5796 163.918 61.6886 167.599 63.381 168.641C63.7797 168.886 64.1337 168.969 64.4352 168.887ZM95.4078 118.398C95.3956 118.357 95.3818 118.319 95.3671 118.284C95.1171 117.598 94.772 116.949 94.4383 116.321C94.2814 116.027 94.1243 115.731 93.9745 115.428C93.2258 114.019 92.0796 112.784 90.2575 111.423C90.1805 111.367 90.0956 111.304 90.0029 111.238C90.0183 110.908 89.9023 110.589 89.665 110.313C89.3331 109.926 88.8105 109.682 88.2839 109.661C87.2644 109.49 86.3513 109.387 85.4974 109.345C85.3298 108.777 84.8344 108.229 83.9005 108.292C81.8503 108.491 79.914 109.02 78.1452 109.863C77.6959 109.94 77.2813 110.222 76.9149 110.472C76.8521 110.515 76.7904 110.557 76.7111 110.612C76.5986 110.719 76.4841 110.823 76.3676 110.926C74.7631 111.81 72.9984 112.973 72.0482 114.892C71.8715 115.125 71.8048 115.389 71.8554 115.645C71.329 116.193 70.7652 116.873 70.4893 117.77C70.4232 117.938 70.3997 118.105 70.4192 118.255L70.3258 118.268C69.9917 118.292 69.6888 118.511 69.5394 118.837C69.3973 119.144 69.4148 119.478 69.5841 119.74C69.5675 120.125 69.8926 120.399 70.2155 120.493C70.5644 120.595 70.8905 120.494 71.0538 120.242C73.0172 120.074 74.7581 120.042 76.3708 120.144C76.7068 120.174 77.0428 120.205 77.3787 120.235C78.7893 120.364 80.248 120.497 81.6879 120.538C82.9626 120.609 84.2465 120.636 85.6105 120.62C85.7176 120.621 85.83 120.625 85.945 120.629C86.6876 120.656 87.6075 120.683 87.9885 119.881C89.031 119.915 90.0841 120.073 91.1035 120.226C92.3182 120.408 93.5741 120.596 94.851 120.575C95.1965 120.501 95.4767 120.295 95.6459 120.002C95.7062 119.898 95.7526 119.782 95.7826 119.657C95.8965 119.188 95.7493 118.699 95.4078 118.398ZM117.029 91.7648C116.557 91.6246 116.139 91.7805 115.868 92.1936C115.84 92.1913 115.812 92.191 115.784 92.1921C115.711 92.1697 115.637 92.154 115.563 92.1454C115.191 91.8926 114.757 91.8936 114.336 91.8943C114.164 91.8944 114.002 91.8947 113.841 91.8778C113.483 91.8524 113.092 91.8015 112.646 91.7219C112.363 91.5013 112.021 91.3823 111.653 91.3774C111.492 91.3746 111.332 91.371 111.171 91.3654C111.021 91.3207 110.861 91.3079 110.706 91.3274C110.647 91.2921 110.587 91.2604 110.524 91.2308C110.428 91.1867 110.329 91.1509 110.227 91.124L110.231 91.1163L110.042 91.0828C109.567 90.9982 109.078 91.0753 108.605 91.1499L108.431 91.1769C108.09 91.1452 107.748 91.1123 107.407 91.0792L106.692 91.0103C104.626 90.7797 102.454 90.6369 100.353 90.4988C99.6815 90.4546 99.0121 90.4106 98.3478 90.364C96.4418 90.2439 94.4713 90.1194 92.4892 90.1128C92.3492 90.1202 92.1883 90.1216 92.0162 90.1232C91.6655 90.1262 91.2699 90.1297 90.9002 90.1828C90.3017 89.8747 89.6059 89.9484 88.9319 90.0202C88.4465 90.0715 87.9444 90.1248 87.4813 90.0274C86.8084 89.964 86.1336 89.8936 85.4576 89.8237C81.9569 89.4604 78.3376 89.0847 74.8009 89.6391C74.7372 89.6291 74.6718 89.6237 74.6048 89.6233C74.1247 89.6251 73.6352 89.6063 73.1622 89.5882C72.7706 89.5735 72.3792 89.5584 71.9851 89.5541C71.2217 89.559 70.4542 89.5677 69.6853 89.5827C69.3463 89.4667 68.9465 89.4754 68.5801 89.607C68.3571 89.6124 68.134 89.6187 67.9196 89.6267C67.7297 89.6207 67.5403 89.6085 67.3512 89.5959L67.1767 89.5848C66.4257 89.5012 65.6645 89.3999 64.9281 89.302L64.0959 89.192C63.8104 89.1661 63.5134 89.1251 63.2263 89.0858C62.2913 88.9576 61.3246 88.8251 60.3965 89.1282C59.7984 89.3686 59.3793 89.9004 59.2761 90.5505C59.1846 91.1254 59.3659 91.6844 59.7627 92.0701C59.6405 92.2608 59.5451 92.4782 59.4785 92.7225C59.1762 94.2285 59.2781 95.7798 59.3766 97.2802C59.415 97.8657 59.4547 98.4709 59.4689 99.0589L59.4757 99.0974C59.4979 99.1656 59.5224 99.2321 59.5505 99.2972C59.2704 99.8445 59.2219 100.554 59.1751 101.241C59.1506 101.6 59.1274 101.94 59.0694 102.241C58.9179 103.735 58.6285 105.239 58.3481 106.694C58.1563 107.69 57.9583 108.719 57.8058 109.736L57.7725 109.939C57.4966 111.606 57.2109 113.329 56.9981 115.046C56.9883 115.224 56.9641 115.405 56.9389 115.576L56.8885 115.67C56.7552 116.022 56.686 116.4 56.6192 116.766C56.6015 116.862 56.5837 116.959 56.5652 117.054C56.4971 117.403 56.4329 117.752 56.3685 118.101C56.2728 118.621 56.1737 119.159 56.0694 119.665C55.9303 120.032 55.8057 120.409 55.6852 120.774C55.5988 121.035 55.5126 121.296 55.4246 121.545L55.3763 121.652C55.193 122.055 54.9649 122.556 55.2242 123.043C55.8704 124.132 57.4039 123.357 58.3203 122.894C58.4245 122.841 58.5215 122.792 58.6236 122.742C58.7903 122.633 58.9649 122.53 59.1406 122.427C59.668 122.115 60.2133 121.793 60.6002 121.291C60.7481 121.069 60.8113 120.778 60.7749 120.49L60.8096 120.372C60.832 120.294 60.8545 120.216 60.8809 120.135C61.0874 119.382 61.2847 118.561 61.4846 117.623C61.5716 117.19 61.6763 116.752 61.7782 116.329C61.8312 116.108 61.8845 115.886 61.9342 115.668C62.1324 114.908 62.2846 114.124 62.4321 113.366C62.6657 112.165 62.9072 110.923 63.3337 109.76L63.3432 109.733C63.3647 109.682 63.3829 109.631 63.3984 109.579L63.428 109.496L63.42 109.499C63.5181 109.088 63.441 108.65 63.2003 108.296C63.4583 106.624 63.7597 104.444 63.8422 102.25C63.8929 102.236 63.9441 102.222 63.9963 102.206C64.1346 102.23 64.2867 102.24 64.4523 102.236C66.3621 102.134 68.3962 101.086 70.1803 99.2848C71.0019 98.4429 71.506 97.5164 71.6392 96.6047C72.0004 96.0917 72.3463 95.5681 72.637 95.125C72.8662 94.8283 73.0449 94.459 73.1417 94.0815C73.2094 94.002 73.2781 93.9239 73.3465 93.8491C73.411 93.7811 73.4859 93.7144 73.5806 93.6411C74.6378 93.6412 75.7132 93.6654 76.7535 93.6888C77.8103 93.7123 78.9032 93.7369 79.9616 93.7355L80.5416 93.8082C81.404 93.9172 82.2957 94.0297 83.1781 94.1057C83.6474 94.1459 84.3492 94.2061 84.8368 93.7886C85.4997 93.8375 86.1715 93.8458 86.8215 93.8533C87.2574 93.8587 87.7084 93.8643 88.1478 93.882C88.3935 93.8965 88.6501 93.9394 88.8983 93.9808C89.4583 94.0747 90.0371 94.1712 90.6029 93.9779C92.4586 94.2111 94.3445 94.3931 96.1688 94.5695C98.1314 94.7594 100.16 94.9556 102.154 95.2151C102.167 95.314 102.188 95.4188 102.22 95.5364C102.07 95.9061 102.188 96.3317 102.293 96.7095C102.314 96.7838 102.334 96.8563 102.352 96.9283C102.892 98.9028 103.847 100.785 105.112 102.37C106.103 103.646 107.349 104.76 108.816 105.684C108.868 105.746 108.92 105.807 108.972 105.868C109.14 106.969 109.312 108.245 109.265 109.518C109.279 110.679 109.06 111.854 108.847 112.99C108.789 113.301 108.73 113.612 108.677 113.922C108.17 114.408 108.015 115.128 107.866 115.824C107.815 116.057 107.768 116.277 107.706 116.493C107.626 116.868 107.549 117.244 107.471 117.619C107.358 118.163 107.246 118.707 107.129 119.238L107.086 119.376C106.934 119.854 106.778 120.349 106.849 120.875C106.687 121.23 106.714 121.63 106.922 121.927C107.114 122.202 107.423 122.343 107.773 122.317C108.335 122.64 108.949 122.874 109.543 123.1C109.919 123.243 110.308 123.391 110.697 123.567C111.061 123.666 111.412 123.679 111.739 123.607C112.326 124.1 112.944 124.579 113.543 125.042C114.336 125.656 115.156 126.29 115.893 126.948L115.999 127.076C116.444 127.613 116.993 128.279 117.836 128.037C118.931 128.901 120.006 129.815 121.025 130.744L121.125 130.858C121.488 131.274 121.936 131.788 122.602 131.701C123.066 132.128 123.555 132.54 124.028 132.938C124.869 133.648 125.739 134.382 126.482 135.213L126.5 135.233L126.524 135.245C127.401 135.671 128.256 136.298 129.137 137.162C129.36 137.376 129.596 137.584 129.825 137.784C130.32 138.218 130.833 138.667 131.211 139.209L131.241 139.239C131.431 139.382 131.626 139.504 131.815 139.622C132.135 139.822 132.437 140.011 132.725 140.301C132.894 140.421 133.069 140.572 133.255 140.733C133.993 141.369 134.912 142.16 135.843 141.143C135.885 141.084 135.922 141.026 135.956 140.968C136.22 140.51 136.229 140.086 135.984 139.68C136.003 139.654 136.022 139.627 136.041 139.591C136.509 138.446 136.878 137.237 137.18 136.191C137.207 136.033 137.262 135.868 137.32 135.692C137.464 135.254 137.627 134.761 137.33 134.318L137.367 134.106C137.439 133.694 137.512 133.282 137.585 132.869C138.076 132.224 138.201 131.406 138.32 130.617C138.365 130.316 138.408 130.031 138.472 129.748C138.603 129.016 138.701 128.265 138.795 127.539C138.945 126.389 139.1 125.2 139.392 124.068C139.572 123.724 139.56 123.392 139.548 123.071C139.54 122.832 139.532 122.606 139.599 122.374C140.181 121.616 140.369 120.621 140.552 119.659C140.63 119.25 140.703 118.864 140.806 118.49C140.867 118.209 140.926 117.928 140.985 117.647C141.178 116.723 141.379 115.767 141.623 114.863C141.848 114.373 141.972 113.845 142.093 113.329L142.112 113.243C142.282 112.458 142.515 111.382 141.775 110.74C141.511 110.501 141.165 110.387 140.794 110.417C140.568 110.259 140.335 110.108 140.109 109.962L140.037 109.915C139.868 109.81 139.697 109.708 139.526 109.605C139.209 109.415 138.881 109.219 138.583 109.015L138.467 108.918C138.13 108.632 137.749 108.308 137.257 108.361C136.402 107.667 135.596 106.888 134.816 106.134C134.234 105.571 133.632 104.989 133.01 104.444C132.415 103.932 131.795 103.429 131.197 102.944C130.473 102.357 129.725 101.75 129.015 101.124C128.85 100.511 128.304 100.191 127.821 99.9082C127.68 99.8256 127.541 99.744 127.413 99.6568C126.855 99.2729 126.335 98.8118 125.832 98.3658C125.56 98.1247 125.279 97.8758 124.997 97.6428C124.568 97.2722 124.147 96.9117 123.71 96.5752C123.571 96.2826 123.329 96.0707 123.04 95.991C122.89 95.9497 122.743 95.8738 122.587 95.7937C122.505 95.7516 122.423 95.7092 122.34 95.6718C122.186 95.2761 121.549 94.2943 119.087 94.5495C119.071 94.5519 119.055 94.5549 119.039 94.5585L118.991 94.5489C118.441 94.4844 117.825 94.4123 117.25 94.5175C117.251 94.4501 117.249 94.3838 117.245 94.319C117.329 94.2694 117.404 94.2054 117.464 94.1311C117.712 93.8567 117.815 93.4595 117.737 93.0877C117.814 92.8281 117.785 92.5405 117.657 92.2928C117.524 92.036 117.301 91.8483 117.029 91.7648Z" fill="#75ACA8"/>
<path d="M111.452 123.175C111.801 123.511 112.232 123.766 112.648 124.013C112.848 124.132 113.055 124.254 113.252 124.385C113.979 124.853 114.675 125.348 115.318 125.853C115.429 125.952 115.544 126.047 115.662 126.144C116.234 126.614 116.88 127.145 116.838 127.949C116.986 128.106 117.201 128.293 117.446 128.507L117.562 128.609C118.085 128.594 118.616 128.87 118.928 129.322C119.046 129.52 119.202 129.687 119.352 129.842C120.546 131.039 121.84 132.115 122.845 132.926C123.542 132.752 124.186 133.195 124.534 133.64C124.702 133.814 124.874 134.003 125.044 134.192C125.592 134.799 126.11 135.372 126.816 135.759C127.3 135.822 127.636 136.15 127.961 136.467C128.052 136.555 128.142 136.643 128.235 136.723C128.761 137.088 129.172 137.384 129.555 137.673C129.76 137.843 129.971 138.005 130.183 138.167C130.924 138.733 131.69 139.318 132.079 140.187C132.292 140.414 132.449 140.647 132.546 140.878C134.417 142.224 136.739 144.224 135.549 146.054C135.529 146.341 135.53 146.635 135.531 146.945C135.532 147.58 135.534 148.236 135.345 148.84C135.604 149.482 135.488 150.233 135.053 150.735C134.67 152.151 133.91 153.406 133.027 154.777C133.063 154.927 133.079 155.083 133.077 155.24L133.116 155.205L133.05 155.582C133.006 155.864 132.904 156.129 132.804 156.385C132.751 156.525 132.697 156.664 132.653 156.805L132.65 156.979C132.639 157.894 132.624 159.028 131.695 159.556C131.38 161.308 130.921 163.061 130.477 164.707L130.473 164.782C130.346 166.337 130.214 167.943 129.52 169.402C129.558 169.747 129.406 170.077 129.272 170.37L129.227 170.469C129.156 170.629 129.074 170.797 128.98 170.961C128.709 171.431 128.328 171.865 127.746 171.987C127.436 172.054 127.153 171.949 126.881 171.848C126.803 171.819 126.726 171.79 126.649 171.766C126.445 171.757 126.232 171.681 126.032 171.546C125.963 171.515 125.873 171.474 125.784 171.435C125.465 171.291 125.134 171.141 124.829 170.941C124.127 170.574 123.41 170.209 122.693 169.844C122.04 169.512 121.388 169.18 120.737 168.842C120.682 168.814 120.625 168.786 120.567 168.758C120.087 168.883 119.695 168.598 119.347 168.346C119.283 168.299 119.219 168.252 119.155 168.209L118.861 168.047C118.627 167.962 118.373 167.869 118.118 167.777C117.909 167.699 117.737 167.554 117.628 167.365C116.675 166.836 115.875 166.384 115.082 165.905C114.585 165.629 114.089 165.323 113.61 165.027C112.835 164.547 112.033 164.051 111.194 163.669C110.416 163.924 109.588 163.421 108.855 162.975C108.605 162.823 108.369 162.679 108.151 162.576C107.389 162.104 106.545 161.779 105.729 161.465C105.346 161.317 104.949 161.165 104.566 161C103.517 160.575 102.632 160.248 101.784 159.971C101.74 159.955 101.7 159.941 101.66 159.928C101.113 159.903 100.658 159.872 100.23 159.831C98.6476 159.729 97.0386 159.581 95.4827 159.437C94.9832 159.391 94.4837 159.345 93.9841 159.3C93.6133 159.267 93.2406 159.239 92.8686 159.216C92.514 159.238 92.1428 159.257 91.7727 159.269C89.5205 159.376 87.2297 159.277 85.0144 159.181C84.3239 159.151 83.6339 159.121 82.9441 159.097C82.5946 159.025 82.3407 158.847 82.2013 158.589C81.3891 158.587 80.5659 158.568 79.7685 158.551C78.2097 158.517 76.5977 158.482 75.016 158.564L75.0128 158.564C74.5495 158.698 74.1571 158.434 73.9776 158.08C73.441 158.046 72.9048 158.007 72.3686 157.969C72.1665 157.979 71.9499 157.986 71.7326 157.994C70.5761 158.06 69.3952 158.065 68.2529 158.068C67.7909 158.07 67.3291 158.072 66.8673 158.077C64.2255 158.364 61.6108 158.753 58.5017 159.247L58.1188 159.308C57.3033 159.437 56.4602 159.571 55.6182 159.603C55.3102 159.616 55.0393 159.532 54.831 159.359C53.4394 159.57 52.2601 159.743 51.0681 159.893C50.7177 160.484 50.048 160.549 49.4548 160.607C49.1418 160.637 48.8463 160.666 48.5948 160.76C47.1449 161.143 45.7202 161.655 44.3427 162.151C44.035 162.261 43.7277 162.372 43.4196 162.481C43.1402 163.192 42.8459 163.877 42.3722 164.457C42.2983 164.64 42.2362 164.842 42.1707 165.056C41.9492 165.779 41.6979 166.599 40.8641 166.841C40.5308 166.922 40.2134 166.866 39.9405 166.68C39.4792 166.366 39.2486 165.775 39.1869 165.327L39.1744 165.279C39.0513 164.776 38.8849 164.092 39.3363 163.64C39.3652 163.161 39.4655 162.593 39.9202 162.276L39.9892 162.044C40.0532 161.827 40.1173 161.61 40.1891 161.395C40.2321 161.267 40.2814 161.138 40.3355 161.01C40.2769 160.61 40.4343 160.247 40.5871 159.895C40.6654 159.715 40.7393 159.544 40.7841 159.372C41.4747 157.396 42.0379 155.904 42.613 154.524C42.7808 154.122 42.9507 153.721 43.1214 153.32C43.3134 152.55 43.539 151.716 43.8051 150.79C44.0099 150.097 44.225 149.406 44.4404 148.716C45.1198 146.538 45.8217 144.287 46.1578 141.993C45.9109 141.537 45.9477 140.963 46.2512 140.484C46.5348 140.04 46.9944 139.779 47.4715 139.782C47.607 139.232 47.7272 138.716 47.838 138.208L47.9463 137.717C48.3207 135.98 48.7077 134.183 49.3879 132.505C49.5658 132.073 50.0179 131.79 50.4922 131.802C50.7505 130.971 51.0172 130.2 51.3053 129.45C51.2148 129.097 51.3378 128.77 51.457 128.453C51.5174 128.292 51.5746 128.14 51.6029 127.989C51.6589 127.733 51.7072 127.48 51.7556 127.226C51.817 126.906 51.8796 126.575 51.9562 126.251C51.7461 125.882 51.7157 125.42 51.8772 125.004C52.0394 124.585 52.3645 124.279 52.7719 124.16C52.8582 124.109 52.9447 124.06 53.0331 124.015C53.1139 123.926 53.1939 123.866 53.287 123.816C53.4273 123.734 53.5948 123.69 53.7686 123.689C54.2081 123.523 54.6665 123.391 55.1099 123.263L55.2326 123.227C56.7261 122.81 58.2065 122.596 59.6333 122.592C60.4528 122.398 61.2201 122.229 61.9773 122.077C62.2708 121.794 62.6881 121.752 63.0577 121.715C63.1381 121.707 63.2172 121.698 63.2933 121.688C63.687 121.664 64.0891 121.593 64.5688 121.462C64.9067 121.374 65.2483 121.261 65.5788 121.15C66.2085 120.94 66.8596 120.723 67.5338 120.667C67.912 120.641 68.259 120.738 68.5426 120.949C69.1289 120.881 69.7251 120.83 70.3024 120.78C70.6641 120.749 71.0256 120.718 71.3859 120.683C73.2148 120.42 75.1789 120.293 77.2169 120.306C78.8472 120.077 80.7653 119.839 82.6544 119.941C83.4797 119.961 84.374 120.039 85.4638 120.186C89.9964 119.654 94.5768 120.228 98.8803 120.863L98.9436 120.87C99.3185 120.914 99.6723 120.955 100.031 120.911C100.409 120.876 100.744 121.008 100.982 121.283C102.019 121.424 103.08 121.599 104.134 121.802C104.416 121.855 104.698 121.911 104.98 121.967C105.926 122.155 106.904 122.349 107.881 122.43L108.026 122.451C108.424 122.509 108.835 122.569 109.228 122.69C109.374 122.614 109.529 122.573 109.688 122.568L109.664 122.531L109.978 122.591C110.186 122.631 110.367 122.721 110.542 122.809L110.562 122.82C110.909 122.827 111.224 122.953 111.452 123.175Z" fill="#FEB048"/>
<path d="M66.6303 211.349C66.0634 211.257 65.4824 211.192 64.921 211.13C64.1073 211.039 63.2662 210.945 62.4562 210.768C62.3206 210.718 62.2156 210.62 62.1653 210.498C62.1188 210.386 62.1218 210.261 62.1736 210.148C62.18 210.135 62.1866 210.123 62.1933 210.111C62.3957 209.761 62.7972 209.927 62.9339 209.984C65.4727 210.331 68.0651 210.619 70.5723 210.897L70.9346 210.937C72.3636 211.075 73.8219 211.129 75.2325 211.182L75.2831 211.184C75.994 211.21 76.7289 211.238 77.4515 211.276C83.9742 211.73 90.3498 212.139 96.6402 212.161C97.9958 212.152 99.372 212.021 100.703 211.893C102.44 211.727 104.237 211.556 106.008 211.654C106.359 211.722 106.496 212.025 106.452 212.291C106.441 212.357 106.417 212.422 106.384 212.48C106.274 212.67 106.075 212.761 105.839 212.729C104.298 212.677 102.724 212.855 101.201 213.027L101.182 213.029C100.414 213.115 99.6208 213.205 98.8412 213.264C96.6334 213.462 94.4065 213.428 92.3144 213.375C87.3813 213.29 82.3865 212.876 77.5555 212.474L76.4129 212.38C73.4626 212.249 70.3537 211.922 66.6303 211.349ZM125.748 172.866L125.747 172.869C125.532 173.476 125.307 174.089 125.09 174.681C124.754 175.6 124.406 176.55 124.082 177.499C123.772 178.511 123.515 179.554 123.267 180.568C123.112 181.199 122.952 181.852 122.778 182.5C122.362 184.184 121.817 185.857 121.289 187.476L121.283 187.494C121.072 188.143 120.853 188.813 120.646 189.477C120.092 191.465 119.541 193.491 119.009 195.449L118.989 195.522C117.95 199.345 116.875 203.297 115.73 207.158C115.137 209.109 114.556 210.89 113.953 212.603C113.896 212.785 113.829 212.973 113.77 213.137C113.652 213.464 113.531 213.801 113.464 214.146C113.445 214.129 113.427 214.113 113.407 214.1C110.46 212.029 107.397 210.024 104.436 208.085L104.408 208.068C102.894 207.076 101.329 206.051 99.7982 205.031C98.7609 204.336 97.6879 203.6 96.7409 202.951C96.1902 202.574 95.5052 202.104 94.8551 201.663C94.5768 201.441 94.1949 201.431 93.8824 201.639C93.5712 201.847 93.4329 202.2 93.5293 202.538C93.583 202.747 93.7151 202.921 93.9215 203.056C94.8487 203.662 95.8021 204.26 96.7245 204.839L96.7325 204.844C97.012 205.019 97.2913 205.195 97.5704 205.371C98.6956 206.082 99.844 206.8 100.955 207.494L101.016 207.532C103.538 209.108 106.147 210.738 108.667 212.411C110.104 213.38 111.284 214.198 112.352 214.967C112.26 214.945 112.157 214.94 112.042 214.957L112.041 214.957C111.522 215.05 110.954 215.129 110.304 215.199C109.257 215.296 108.188 215.329 107.155 215.36C106.622 215.376 106.072 215.393 105.528 215.419C104.632 215.461 103.734 215.517 102.86 215.572C100.597 215.712 98.2573 215.857 95.9517 215.774C94.0697 215.703 92.1669 215.585 90.3266 215.471C88.8989 215.382 87.4225 215.291 85.9589 215.221L85.7035 215.207C82.8165 215.043 79.8317 214.872 76.9164 214.492C76.1828 214.395 75.4375 214.29 74.7142 214.187C72.5401 213.879 70.2922 213.56 68.0601 213.441C67.8311 213.344 67.6145 213.455 67.5007 213.609C67.3931 213.752 67.3478 213.978 67.4839 214.163L67.4822 214.166L67.504 214.195C67.5718 214.283 67.6697 214.344 67.779 214.365C68.0152 214.418 68.2561 214.456 68.4932 214.493C68.6225 214.513 68.7524 214.533 68.882 214.556C70.1155 214.763 71.127 214.945 72.0647 215.13C72.7761 215.275 73.5189 215.433 74.1745 215.572L74.2071 215.579C74.9918 215.746 75.8036 215.918 76.6035 216.079C80.6924 216.904 84.9201 217.165 89.0086 217.418C89.3724 217.44 89.7364 217.463 90.1002 217.486C90.4966 217.51 90.8931 217.536 91.2895 217.563L91.3753 217.568C93.0831 217.681 94.8496 217.797 96.5903 217.805C98.6772 217.816 100.791 217.632 102.835 217.454C103.084 217.432 103.333 217.411 103.582 217.389C104.537 217.284 105.511 217.212 106.452 217.143C108.38 217.001 110.373 216.853 112.292 216.417C112.521 216.369 112.696 216.249 112.8 216.07C112.886 215.92 112.917 215.738 112.885 215.559C112.864 215.443 112.817 215.328 112.744 215.229C113.02 215.346 113.343 215.271 113.531 215.028C113.592 214.946 113.634 214.848 113.653 214.741C113.752 214.788 113.869 214.799 113.974 214.769C114.053 214.746 114.118 214.703 114.167 214.643L114.175 214.666L114.234 214.526L114.24 214.517C114.249 214.5 114.259 214.483 114.269 214.467C114.323 214.438 114.371 214.392 114.403 214.336C114.447 214.26 114.46 214.171 114.439 214.091C117.688 206.471 120.015 198.434 122.267 190.659C122.517 189.852 122.785 189.045 123.047 188.262C123.552 186.746 124.075 185.177 124.462 183.597C124.644 182.887 124.812 182.163 124.975 181.462L124.977 181.453C125.213 180.437 125.457 179.386 125.746 178.367C126.051 177.379 126.384 176.437 126.738 175.434C126.952 174.829 127.195 174.142 127.425 173.453C127.575 172.907 127.236 172.517 126.858 172.386C126.478 172.255 125.969 172.346 125.748 172.866ZM110 128.863C109.879 128.948 109.799 129.076 109.76 129.24C109.69 129.561 109.618 129.882 109.547 130.203L109.501 130.407C109.018 132.603 108.505 134.662 107.931 136.704C107.759 137.369 107.587 138.034 107.414 138.699L107.411 138.711C106.379 142.692 105.312 146.808 104.435 150.896C104.24 151.706 104.015 152.56 103.766 153.434C103.742 153.503 103.747 153.58 103.78 153.645C103.813 153.711 103.868 153.757 103.943 153.78C104.08 153.804 104.18 153.757 104.25 153.636C104.298 153.553 104.324 153.448 104.347 153.353C104.364 153.284 104.381 153.213 104.407 153.155C104.571 152.631 104.73 152.09 104.895 151.502C105.088 150.778 105.276 150.04 105.458 149.326L105.46 149.32C105.84 147.824 106.234 146.278 106.702 144.771C107.02 143.659 107.35 142.53 107.668 141.438L107.705 141.315C108.834 137.445 110.003 133.444 110.906 129.44C110.955 129.216 110.857 128.994 110.649 128.86C110.438 128.724 110.183 128.726 110 128.863ZM121.829 93.8994C123.022 94.7835 124.288 95.7278 125.507 96.7029C127.895 98.5142 130.208 100.439 132.38 102.424L133.716 103.58C135.291 104.944 137.076 106.49 138.812 107.977C139.596 108.642 140.371 109.273 141.091 109.855C141.274 110.079 141.453 110.29 141.625 110.486C141.668 110.534 141.712 110.582 141.756 110.629L141.838 110.719C142.067 110.971 142.257 111.175 142.436 111.361L142.502 111.43C142.731 111.67 142.966 111.916 143.253 112.049L143.292 112.067L143.283 112.109C142.946 113.722 142.614 115.408 142.321 116.896C142.025 118.395 141.719 119.945 141.401 121.473C141.004 123.351 140.466 125.222 139.946 127.032C139.789 127.577 139.612 128.195 139.444 128.796C139.213 129.635 138.984 130.506 138.782 131.275L138.778 131.29C138.371 132.836 137.949 134.434 137.478 135.99C137.316 136.484 137.165 136.994 137.019 137.487L137.017 137.496C136.63 138.803 136.232 140.15 135.592 141.363C135.551 141.431 135.485 141.485 135.408 141.516C135.745 141.837 136.037 142.121 136.3 142.383C136.495 142.577 136.577 142.881 136.512 143.178C136.526 143.206 136.543 143.24 136.556 143.279C137.301 146.092 136.392 148.983 135.644 150.914C135.228 152.128 134.878 153.378 134.54 154.586L134.532 154.614C134.317 155.38 134.095 156.172 133.859 156.946C133.128 159.095 132.489 161.309 131.872 163.45C131.466 164.86 131.046 166.318 130.597 167.763C130.47 168.107 130.359 168.466 130.252 168.814C129.892 169.977 129.522 171.175 128.578 171.975C128.206 172.245 127.762 172.262 127.336 172.24C127.22 172.31 127.089 172.324 126.955 172.281C126.408 172.071 125.863 171.863 125.319 171.655C124.718 171.425 124.117 171.195 123.516 170.964L123.462 171.153C123.288 171.762 123.107 172.392 122.966 173.02C122.517 175.036 121.803 177.01 121.113 178.919L121.103 178.947C120.81 179.757 120.507 180.596 120.229 181.425C119.655 183.263 119.034 185.125 118.435 186.926L118.427 186.948C118.086 187.972 117.734 189.03 117.393 190.074C115.94 194.609 114.442 199.027 113.169 202.75C113.054 203.065 112.938 203.379 112.823 203.692L112.736 203.928C112.274 205.182 111.796 206.479 111.352 207.765C111.274 207.97 111.199 208.177 111.123 208.385L111.107 208.43C110.8 209.271 110.484 210.14 110.052 210.896L110.043 210.912L110.027 210.919C109.945 210.956 109.849 210.945 109.776 210.891C109.639 210.786 109.677 210.6 109.697 210.5C109.781 210.134 109.891 209.769 109.998 209.417L110.005 209.392C110.078 209.151 110.153 208.903 110.219 208.656C110.865 206.21 111.666 203.779 112.44 201.429C112.868 200.128 113.31 198.784 113.725 197.439C115.294 192.991 116.787 188.453 118.167 184.212C118.835 181.83 119.69 179.475 120.518 177.197L120.738 176.589C121.308 175.115 121.686 173.889 121.93 172.732C122.051 172.263 122.185 171.796 122.315 171.344C122.388 171.09 122.46 170.837 122.531 170.583C121.318 170.11 120.303 169.704 119.347 169.306C119.372 169.409 119.372 169.516 119.345 169.617C118.947 171.265 118.476 172.853 117.945 174.337C116.606 178.505 115.291 182.657 114.039 186.675C111.662 193.628 109.026 200.66 106.74 206.709C106.84 206.72 106.967 206.747 107.001 206.891C107.033 207.014 106.961 207.138 106.833 207.18L106.822 207.182C106.508 207.197 106.318 207.149 106.224 207.031C106.088 206.86 106.17 206.57 106.264 206.233C106.521 205.361 106.809 204.483 107.088 203.634L107.105 203.58C107.285 203.033 107.47 202.468 107.645 201.911C108.054 200.658 108.466 199.374 108.829 198.242C109.496 196.164 110.186 194.015 110.899 191.895C111.837 189.299 112.708 186.63 113.55 184.049L113.553 184.04C113.852 183.121 114.145 182.222 114.441 181.326L114.441 181.326L114.457 181.278C114.937 179.902 115.374 178.454 115.797 177.053L115.799 177.046C116.111 176.014 116.433 174.948 116.766 173.932C117.313 172.441 117.701 170.892 118.077 169.394L118.104 169.285C118.147 169.128 118.251 168.992 118.393 168.905C117.493 168.521 116.661 168.15 115.852 167.771C115.722 168.199 115.584 168.629 115.451 169.046C115.154 169.978 114.848 170.935 114.605 171.898C113.706 175.343 112.429 178.727 111.194 181.999C110.667 183.394 110.122 184.835 109.61 186.276C108.508 189.335 107.37 192.528 106.366 195.345C105.888 196.685 105.41 198.025 104.932 199.365C104.656 200.115 104.343 200.862 104.041 201.584L104.037 201.593C103.613 202.606 103.175 203.653 102.837 204.717L102.829 204.741L102.828 204.74C102.793 204.85 102.702 204.926 102.593 204.94C102.476 204.944 102.391 204.91 102.339 204.837C102.19 204.629 102.364 204.165 102.505 203.792C102.558 203.65 102.609 203.517 102.62 203.446L102.661 203.329C103.532 200.92 104.432 198.429 105.154 195.932C105.602 194.531 106.054 193.095 106.453 191.828L106.455 191.82C107.564 188.299 108.711 184.658 109.957 181.116C110.525 179.452 111.135 177.781 111.724 176.165L112.008 175.386C112.38 174.324 112.676 173.22 112.964 172.152L112.966 172.144C113.188 171.317 113.418 170.462 113.682 169.631C113.954 168.793 114.245 167.956 114.547 167.144C114.001 166.874 113.472 166.602 112.973 166.336C112.739 166.211 112.505 166.084 112.272 165.956L112.209 166.25C112.065 166.919 111.916 167.612 111.68 168.273C111.18 169.625 110.681 171.004 110.198 172.337L110.16 172.445C109.142 175.257 108.092 178.159 106.977 180.983L106.825 181.434C105.127 186.457 103.523 191.202 101.526 195.992C101.034 197.209 100.571 198.386 100.017 199.8L99.9555 199.953C99.8182 200.296 99.677 200.649 99.4976 200.978C99.4373 201.082 99.3096 201.127 99.1999 201.081C99.1257 201.043 99.0806 200.992 99.0635 200.929C99.0333 200.818 99.0982 200.697 99.1507 200.617C99.6425 199.538 100.029 198.388 100.404 197.275L100.409 197.26C100.6 196.693 100.797 196.106 101.007 195.535C102.104 192.359 103.157 189.12 104.175 185.989C104.624 184.607 105.088 183.18 105.549 181.778C105.88 180.823 106.232 179.874 106.573 178.957L106.577 178.946C107.234 177.174 107.913 175.342 108.441 173.492C108.69 172.742 108.958 172.001 109.217 171.285C109.917 169.346 110.642 167.342 110.979 165.239C110.634 165.046 110.291 164.852 109.947 164.659L109.941 164.655C109.191 164.232 108.415 163.795 107.645 163.374C107.684 163.475 107.688 163.59 107.656 163.71C107.073 165.336 106.725 167.044 106.389 168.694L106.386 168.708C106.073 170.245 105.749 171.835 105.237 173.355C103.843 177.74 102.196 182.114 100.603 186.343L100.595 186.366C99.9556 188.064 99.2948 189.819 98.6598 191.549C98.3557 192.422 98.0889 193.31 97.8305 194.17L97.8261 194.186C97.5835 194.994 97.3325 195.83 97.0508 196.652C96.8391 197.281 96.5366 198.099 96.0787 198.837C96.0394 198.967 95.9358 199.08 95.8087 199.132C95.6418 199.205 95.4456 199.163 95.3088 199.025C95.1725 198.887 95.1339 198.697 95.2083 198.529C95.2631 198.443 95.325 198.373 95.385 198.306C95.4785 198.202 95.5729 198.096 95.6217 197.96C96.1881 196.811 96.5274 195.563 96.8554 194.355C96.9354 194.06 97.0185 193.755 97.1038 193.455C97.5615 191.754 98.1094 190.016 98.7773 188.144C99.4305 186.223 100.125 184.299 100.796 182.438C102.054 178.949 103.356 175.341 104.406 171.711C104.703 170.655 104.954 169.571 105.197 168.524C105.593 166.813 106.003 165.045 106.623 163.362C106.696 163.182 106.842 163.065 107.025 163.037C106.207 162.597 105.461 162.216 104.75 161.874C104.716 161.982 104.679 162.114 104.665 162.224C104.451 162.943 104.198 163.653 103.953 164.339L103.947 164.355C103.735 164.952 103.515 165.569 103.323 166.184C102.992 167.405 102.578 168.615 102.178 169.786C102.012 170.273 101.824 170.825 101.647 171.362C100.091 177.338 98.5586 182.518 96.9619 187.196C96.1609 189.552 95.2972 191.845 94.3955 194.012C94.2839 194.271 94.17 194.547 94.0783 194.768C93.7678 195.519 93.4466 196.296 93.0322 197.014C92.9825 197.1 92.9325 197.183 92.8794 197.269L92.8811 197.27L92.8424 197.325L92.8381 197.322C92.7542 197.404 92.637 197.427 92.5338 197.379C92.4689 197.349 92.4175 197.293 92.3925 197.225C92.3674 197.156 92.3704 197.083 92.4008 197.019C92.8082 196.212 93.1395 195.354 93.46 194.525L93.534 194.333C95.0435 190.328 96.2113 186.135 97.3412 182.081C97.9262 179.98 98.5303 177.811 99.1758 175.69C99.3797 175 99.5716 174.281 99.7408 173.648C100.019 172.606 100.307 171.529 100.659 170.481C101.277 168.847 101.764 167.145 102.234 165.498L102.301 165.265C102.421 164.881 102.551 164.495 102.676 164.122C102.952 163.303 103.236 162.457 103.424 161.597C103.46 161.498 103.488 161.39 103.509 161.302C103.108 161.125 102.75 160.974 102.414 160.841C102.283 160.848 102.166 160.826 102.064 160.775L101.936 161.203C101.476 162.729 100.999 164.308 100.61 165.885L100.603 165.912C100.509 166.31 100.42 166.713 100.335 167.104L100.324 167.15C100.06 168.353 99.7863 169.596 99.3591 170.793C98.7936 172.389 98.1321 173.973 97.4926 175.505C97.12 176.397 96.6979 177.408 96.3128 178.386C95.3475 180.879 94.1526 183.788 92.6093 186.461C92.4765 186.691 92.3419 186.918 92.2088 187.137C90.4592 190.088 88.7242 192.964 86.7354 195.693C86.2412 196.381 85.7296 197.058 85.2146 197.706C85.1966 197.726 85.1811 197.742 85.1656 197.76L85.1408 197.788L85.0203 197.74C84.908 197.819 84.7695 197.862 84.6085 197.868C82.4463 198.005 80.1715 197.844 77.6555 197.376C75.3702 197.104 73.134 196.811 70.9164 196.234C69.4021 195.905 67.8454 195.659 66.3403 195.421C64.8359 195.183 63.2833 194.937 61.7675 194.608C56.5003 193.941 51.2717 193.196 46.2295 192.393C45.449 192.293 44.6497 192.206 43.877 192.121L43.8556 192.119C42.27 191.946 40.6308 191.767 39.0368 191.47C39.0261 191.511 39.0117 191.55 38.9949 191.586C38.6212 192.359 38.1772 193.109 37.7479 193.835L37.7395 193.85C37.5547 194.162 37.3631 194.484 37.1811 194.804C37.0194 195.08 36.8566 195.355 36.6938 195.63L36.6615 195.685C36.407 196.115 36.146 196.557 35.8916 196.999L36.0333 197.021C39.6023 197.556 43.2925 198.11 46.8567 198.467C49.3187 198.719 51.8066 198.935 54.2124 199.144C57.1624 199.401 60.2125 199.665 63.2173 199.996C64.8469 200.141 66.509 200.229 68.1166 200.313C70.4245 200.434 72.8057 200.559 75.1406 200.857C76.5053 200.969 77.8958 201.024 79.2404 201.077C80.1137 201.111 81.0166 201.147 81.916 201.199C82.512 201.216 83.1202 201.21 83.7083 201.203C84.6771 201.192 85.6786 201.181 86.6648 201.278C88.2038 201.368 89.5849 201.291 90.7325 201.204C91.1044 201.172 91.329 201.446 91.3589 201.734C91.3869 202.004 91.2378 202.317 90.8468 202.365C89.2196 202.558 87.5654 202.52 85.9658 202.483C85.5664 202.474 85.1592 202.465 84.7584 202.459C81.7938 202.625 78.8765 202.559 75.6433 202.464C74.914 202.42 74.1765 202.357 73.4631 202.297L73.4432 202.296C72.6877 202.232 71.9063 202.166 71.137 202.122C70.0784 202.07 68.9998 202.041 67.9574 202.013C65.9849 201.96 63.9455 201.905 61.9448 201.688C60.6492 201.584 59.3281 201.485 58.0505 201.388L57.9975 201.384C51.7967 200.918 45.3863 200.435 39.1637 199.256C39.6459 199.531 40.1337 199.804 40.607 200.07L40.6221 200.079C41.2454 200.428 41.9519 200.825 42.633 201.218C43.2935 201.586 43.9604 201.963 44.6055 202.327C45.122 202.618 45.6389 202.91 46.1568 203.2C46.09 203.013 46.1128 202.796 46.2271 202.627C46.3753 202.403 46.6393 202.323 46.9332 202.411C49.584 202.636 52.2666 203.014 54.8606 203.381C56.8697 203.664 58.9465 203.957 60.9972 204.177C63.3082 204.351 65.6643 204.462 67.9424 204.57L67.964 204.571C70.7326 204.702 73.5952 204.837 76.4101 205.085C78.1789 205.193 79.9813 205.268 81.724 205.341L81.7388 205.341C83.7501 205.425 85.8243 205.511 87.8623 205.649C88.5136 205.682 89.1757 205.711 89.8157 205.739L89.8331 205.739C90.8536 205.783 91.909 205.829 92.9461 205.896C93.2536 205.915 93.4084 206.164 93.4029 206.401C93.3977 206.627 93.2448 206.857 92.9164 206.86C92.0093 206.856 91.0873 206.863 90.1955 206.868L90.1413 206.869C88.4876 206.88 86.781 206.891 85.1022 206.841C84.3601 206.838 83.6042 206.844 82.8732 206.849L82.8553 206.849C81.1081 206.863 79.3018 206.877 77.5233 206.768C76.9274 206.724 76.3289 206.68 75.7286 206.636L75.5264 206.621C72.4043 206.393 69.1758 206.158 66.0794 205.871C65.3958 205.799 64.7061 205.732 64.0387 205.667L64.0308 205.666C62.4425 205.511 60.8003 205.352 59.1764 205.112C58.3597 204.99 57.5302 204.859 56.7279 204.733L56.7207 204.732C53.7255 204.26 50.6308 203.772 47.5512 203.627C47.4347 203.622 47.3181 203.618 47.2017 203.614L47.1824 203.614C47.0832 203.611 46.982 203.608 46.8803 203.603C48.4102 204.454 50.2222 205.44 52.1422 206.358C52.272 206.363 52.4023 206.369 52.5321 206.374L52.5637 206.376C52.6682 206.38 52.7729 206.385 52.877 206.389C55.7148 206.556 58.5656 206.898 61.323 207.229C63.1124 207.444 64.9626 207.666 66.7919 207.838C70.2098 208.152 73.8185 208.317 78.149 208.359C81.0848 208.449 84.042 208.4 86.8193 208.341C88.2015 208.339 89.5983 208.409 90.949 208.477C92.4299 208.551 93.9608 208.627 95.471 208.609C96.6602 208.611 97.8667 208.584 99.0337 208.559C99.3102 208.553 99.5867 208.547 99.8631 208.541C100.151 208.544 100.31 208.78 100.319 209.012C100.327 209.233 100.201 209.468 99.8975 209.495C95.9505 209.921 91.944 209.835 88.0689 209.751L87.518 209.739C82.8546 209.906 78.6506 209.881 74.6669 209.665C70.0577 209.491 65.43 208.796 60.9546 208.124C58.575 207.767 56.116 207.398 53.673 207.109C57.5326 209.001 61.7177 211.11 66.4614 213.552L66.608 213.628L66.4447 213.653C66.1112 213.706 65.8188 213.904 65.6417 214.197L65.6262 214.223L65.5966 214.223C65.2215 214.229 64.8788 214.238 64.5485 214.249L64.5288 214.247L64.5226 214.244C63.2377 213.589 62.0819 213.012 60.9892 212.478C59.3727 211.661 57.7221 210.843 56.1256 210.053L56.1082 210.044C54.0494 209.025 51.9227 207.972 49.8464 206.907C47.0486 205.401 44.2787 203.742 41.6001 202.137C40.0078 201.183 38.3613 200.197 36.718 199.248C36.3769 199.043 36.0275 198.839 35.6897 198.642L35.4701 198.514C35.2046 198.448 34.9263 198.37 34.6921 198.217C34.6075 198.2 34.5388 198.173 34.4762 198.134C34.2834 198.018 34.1652 197.788 34.1747 197.548C34.1083 197.349 34.1338 197.137 34.2404 196.967C34.3578 196.818 34.4844 196.722 34.6182 196.679C34.995 196.047 35.3559 195.393 35.7057 194.76L35.9918 194.243C36.0991 194.037 36.2086 193.831 36.3183 193.624C36.7413 192.826 37.1777 192.003 37.5264 191.157C33.7382 190.405 30.6293 189.668 27.7448 188.837C27.6448 188.797 27.5425 188.765 27.4342 188.731C27.1028 188.629 26.763 188.523 26.5908 188.214C26.5106 188.01 26.6258 187.805 26.7804 187.725C26.8071 187.622 26.8547 187.524 26.9231 187.433C27.6167 186.6 28.3368 185.772 29.0337 184.973L29.0502 184.954C29.4991 184.438 29.9635 183.905 30.4147 183.377C33.456 178.99 36.1724 174.363 38.6548 170.015C39.0916 169.231 39.5345 168.468 40.0686 167.551L40.1613 167.391C39.7994 166.733 39.4724 166.227 39.1326 165.801C39.0782 165.729 39.0188 165.658 38.9612 165.589C38.8216 165.424 38.6788 165.254 38.5919 165.051C38.3753 164.235 38.6215 163.414 38.8598 162.62C38.9476 162.326 39.0387 162.023 39.1017 161.731C39.677 159.696 40.3867 157.588 41.2109 155.463C42.2237 152.895 43.0019 150.198 43.7544 147.59L43.7573 147.58C44.4929 145.031 45.2536 142.395 46.2335 139.879C46.5932 138.963 46.9933 138.05 47.3801 137.167C47.7808 136.252 48.1934 135.311 48.5609 134.369C49.2929 132.411 49.8702 130.366 50.4288 128.389L50.4579 128.287C50.7148 127.403 50.9851 126.522 51.2464 125.67L51.2829 125.551C51.3444 125.417 51.3917 125.261 51.4415 125.096C51.566 124.683 51.7074 124.216 52.0923 124.112C52.1223 123.966 52.2078 123.837 52.3469 123.731C53.1187 123.376 53.9416 123.143 54.7375 122.917L54.9721 122.851C54.9921 122.762 55.0124 122.674 55.0327 122.585L55.0524 122.498C55.0738 122.404 55.0951 122.31 55.116 122.217L55.1605 122.015C55.5325 120.328 55.9172 118.582 56.2215 116.852C56.7034 114.302 56.9317 111.68 57.1528 109.145C57.2923 107.545 57.4367 105.89 57.6432 104.267C57.7473 103.332 57.8666 102.38 57.9818 101.459L57.9862 101.422C58.3738 98.3292 58.7745 95.131 58.6876 91.9641L58.6855 91.9252C58.6272 90.9164 58.5674 89.8785 58.557 88.8552C58.5496 88.4723 58.8831 88.1156 59.2851 88.0755C59.5585 88.0481 59.8432 88.1773 60.0149 88.4056L60.6125 88.3832C61.7393 88.3416 62.9044 88.2987 64.0502 88.2807C66.9634 88.1878 69.9172 88.3422 72.7737 88.492L72.8299 88.4949C74.0899 88.5607 75.3926 88.629 76.6744 88.6747C84.4357 88.875 90.9633 89.1192 97.5943 89.6591C100.813 89.8125 103.938 90.035 106.883 90.32C107.702 90.4125 108.54 90.4305 109.349 90.448C109.868 90.4591 110.453 90.4716 111.012 90.5064C111.932 90.5769 112.858 90.726 113.753 90.8702L113.76 90.8713C114.144 90.9332 114.542 90.9973 114.934 91.0544C115.436 91.1142 115.944 91.1946 116.436 91.2725L116.461 91.2765C116.77 91.3257 117.12 91.3814 117.461 91.4298C117.729 91.4641 117.958 91.6925 118.012 91.9756C118.375 92.0625 118.588 92.3653 118.598 92.8092C118.61 93.3407 118.296 93.9966 117.809 94.1414L117.78 94.3331C117.876 94.3085 117.974 94.2902 118.07 94.2729C118.179 94.2526 118.278 94.2342 118.357 94.21C118.755 94.1317 119.158 94.071 119.547 94.0126L119.578 94.0081C119.953 93.9522 120.378 93.8888 120.782 93.8103C120.841 93.7986 120.902 93.7986 120.964 93.8099C121 93.7745 121.037 93.743 121.078 93.7138C121.336 93.5707 121.676 93.6582 121.829 93.8994ZM55.8641 122.584C56.0153 122.536 56.1523 122.49 56.282 122.444C57.6976 121.988 58.9974 121.609 60.256 121.286C60.2687 121.23 60.2817 121.176 60.2946 121.122L60.3018 121.092C60.3481 120.899 60.3877 120.733 60.3999 120.611C60.5398 119.96 60.6522 119.304 60.7612 118.67L60.7664 118.639C60.8143 118.359 60.8625 118.08 60.9128 117.801C61.528 114.848 61.8772 112.361 62.0116 109.975C62.0556 109.083 62.1493 108.187 62.2399 107.321C62.3872 105.912 62.5389 104.459 62.4803 103.02C62.4804 103.016 62.4805 103.012 62.4808 103.009C62.3513 102.764 62.442 102.506 62.5899 102.357C62.7692 102.177 63.0278 102.138 63.2513 102.255C65.7892 101.769 69.1625 100.128 70.5823 97.6688C70.621 97.6018 70.6571 97.536 70.6932 97.4669C70.9668 96.8405 71.3474 96.2572 71.7153 95.6939C72.2724 94.8401 72.8478 93.9589 73.0494 92.92C73.0834 92.784 73.1688 92.6707 73.2908 92.5989C73.4141 92.5256 73.5626 92.5035 73.6976 92.5388C73.9464 92.5947 74.0723 92.7903 74.071 93.1203C74.1103 93.1165 74.1502 93.1159 74.1918 93.1178C82.2282 92.8533 89.9686 93.1696 97.1959 94.0587C98.3909 94.232 99.6832 94.3572 101.262 94.4524C101.412 94.2279 101.708 94.1318 101.989 94.2179C102.212 94.2867 102.442 94.4888 102.418 94.8505C102.673 97.5311 104.294 99.8012 105.794 101.718C105.877 101.825 105.959 101.932 106.042 102.039L106.063 102.066C106.702 102.895 107.361 103.75 108.159 104.45C108.421 104.672 108.698 104.899 109.005 105.145C109.18 105.282 109.213 105.534 109.08 105.705C108.948 105.877 108.703 105.911 108.52 105.782C107.518 105.098 106.775 104.457 106.185 103.768C104.019 101.373 101.922 98.6822 101.252 95.2393C99.9046 95.1434 98.5404 94.9879 97.2213 94.8375L97.2136 94.8368C95.381 94.6279 93.4877 94.4117 91.6154 94.3524C90.2406 94.2639 88.8417 94.2338 87.4891 94.2045C86.0677 94.1736 84.5986 94.1422 83.1487 94.0421C82.0684 94.0059 80.9369 93.9963 79.9382 93.9877C78.0454 93.9713 76.092 93.9543 74.1778 93.7842C74.1009 93.7809 74.029 93.7668 73.9646 93.742C73.7027 94.6427 73.0274 95.7789 72.8047 96.0498C72.5002 96.4919 72.2535 96.9818 72.0148 97.4556C71.8002 97.8819 71.5784 98.3221 71.3116 98.7329C69.9439 100.618 67.6666 102.045 64.5424 102.976C64.3386 103.034 64.0703 103.108 63.7889 103.174C63.8104 104.39 63.6729 105.615 63.5399 106.799L63.5392 106.807C63.4648 107.469 63.3881 108.154 63.3402 108.828C63.13 112.293 62.7429 115.08 62.1216 117.599L62.0971 117.722C61.8798 118.807 61.6555 119.927 61.3633 121.016C61.4146 121.004 61.466 120.991 61.5172 120.979C61.6832 120.939 61.8711 120.894 62.0572 120.854C64.1079 120.321 66.3257 119.931 68.8354 119.662C69.2832 117.854 71.8782 113.794 72.2574 113.366C73.0958 112.251 74.0495 111.292 75.0915 110.515C75.849 109.977 76.6928 109.562 77.5091 109.161C77.8081 109.014 78.146 108.848 78.4664 108.681C80.4456 107.59 82.8379 107.234 85.2025 107.68C87.5167 108.117 89.649 109.282 91.2066 110.96C92.5767 112.241 94.482 114.252 95.1933 116.906C95.2305 117.065 95.3039 117.269 95.3815 117.485C95.5978 118.084 95.8665 118.831 95.6197 119.276L95.6141 119.286C95.5156 119.456 95.3456 119.569 95.1095 119.62C94.4329 119.675 94.3226 119.126 94.216 118.594C94.173 118.38 94.1327 118.179 94.0575 118.022C93.6633 116.822 93.0732 115.298 91.9871 114.117C90.8131 112.82 89.352 111.206 87.5437 110.256C85.2412 109.172 82.5965 109.023 80.289 109.85C78.9971 110.375 77.5003 111.001 76.0986 111.789C75.2776 112.323 74.4763 113.039 73.5781 114.041C72.6175 115.205 71.6929 116.573 70.6685 118.345C70.442 118.742 70.2292 119.15 70.0228 119.546C72.5777 119.317 75.1875 119.222 77.6427 119.143C79.7449 119.026 81.8718 119.143 83.9286 119.256C84.6606 119.295 85.4902 119.341 86.2929 119.373C87.9201 119.393 89.5681 119.526 91.1615 119.655C92.0848 119.73 93.0343 119.807 93.9788 119.861C95.0527 119.91 96.4648 119.993 97.8593 120.201C98.9253 120.354 100.014 120.485 101.066 120.611L101.105 120.616C102.581 120.793 104.108 120.976 105.607 121.224C105.755 121.251 105.901 121.281 106.046 121.31L106.095 121.32C106.136 121.328 106.177 121.336 106.217 121.344C106.249 121.211 106.285 121.078 106.319 120.952C106.384 120.709 106.45 120.462 106.489 120.228C106.694 118.704 107.022 117.178 107.34 115.703L107.344 115.684C107.623 114.385 107.912 113.043 108.115 111.707C108.22 110.947 108.303 110.18 108.385 109.438L108.387 109.422C108.445 108.892 108.505 108.343 108.572 107.805C108.587 107.665 108.659 107.538 108.776 107.447C108.894 107.353 109.045 107.31 109.19 107.329C109.801 107.462 109.692 108.054 109.595 108.576C109.559 108.768 109.526 108.949 109.531 109.093C109.3 112.272 108.577 115.4 107.901 118.04C107.817 118.372 107.746 118.727 107.683 119.04C107.515 119.874 107.341 120.736 106.941 121.487C107.642 121.633 108.366 121.794 109.006 121.936L109.03 121.941C109.509 122.048 110.004 122.157 110.493 122.262C110.468 122.184 110.464 122.1 110.482 122.017C110.559 121.736 110.682 121.473 110.801 121.218C110.903 121.001 111.009 120.776 111.084 120.545C111.646 118.97 112.136 117.256 112.672 114.985C114.304 107.671 115.705 100.407 116.835 93.396C116.851 93.3063 116.886 93.2255 116.938 93.1573C116.949 93.0823 116.965 93.0074 116.985 92.9338C116.97 92.863 116.967 92.7902 116.975 92.7076L116.227 92.5719C114.571 92.2708 112.861 91.9603 111.166 91.7515C110.541 91.694 109.903 91.6859 109.285 91.6777C108.755 91.6711 108.206 91.6639 107.665 91.6254C104.648 91.3032 101.576 91.1639 98.6047 91.0292L98.591 91.0285C97.0541 90.9589 95.4646 90.8869 93.9008 90.7902C90.1107 90.5482 86.2515 90.4209 82.5192 90.2976C79.4328 90.1959 76.247 90.0907 73.0997 89.9205C69.4485 89.6739 65.8429 89.6088 62.3821 89.7271L62.3473 89.7286C61.6554 89.7591 60.94 89.7907 60.2349 89.8532L60.2417 89.9574C60.2989 90.8053 60.3579 91.6823 60.3738 92.5472C60.4104 96.0153 59.8963 99.4962 59.3995 102.863C59.1754 104.381 58.9447 105.945 58.7671 107.486C58.2778 113.069 56.961 118.482 55.8641 122.584ZM100.952 160.466C100.596 160.439 100.24 160.412 99.8844 160.386L99.8052 160.38C99.1667 160.333 98.4441 160.28 97.7441 160.22C97.6175 160.654 97.4751 161.065 97.3374 161.462C97.1447 162.018 96.9641 162.539 96.8206 163.119C96.5933 164.089 96.2705 165.024 95.8554 166.129C94.2544 170.767 92.1745 175.275 89.6776 179.524C89.2234 180.344 88.7553 181.176 88.3023 181.98L88.2868 182.007C87.5407 183.332 86.7717 184.698 86.0394 186.055C86.0116 186.164 85.9299 186.261 85.8203 186.316C85.71 186.371 85.5834 186.377 85.4721 186.331C85.3435 186.278 85.2498 186.159 85.221 186.013C85.1946 185.879 85.2312 185.747 85.3173 185.656C85.4675 185.374 85.6145 185.086 85.7573 184.808C85.8504 184.625 85.9435 184.443 86.038 184.262C87.6043 181.272 89.106 178.282 90.4951 175.496C92.0638 172.211 93.5381 168.604 95.1337 164.147C95.5698 162.591 95.9551 161.38 96.3464 160.338C96.3742 160.262 96.3993 160.175 96.4221 160.095C96.1547 160.066 95.9248 160.04 95.7016 160.013C93.1418 159.925 90.3587 159.756 87.1961 159.494C86.7476 159.468 86.2799 159.447 85.7678 159.43C85.8595 159.61 85.8595 159.819 85.7547 159.982C85.4736 160.403 85.3017 160.883 85.1225 161.421C84.8484 162.263 84.4095 163.01 84.017 163.629C83.8679 163.855 83.7203 164.086 83.5895 164.29C83.0358 165.154 82.4638 166.047 81.7101 166.778C81.1831 167.287 80.5835 167.726 80.0038 168.151C79.8417 168.269 79.68 168.388 79.5194 168.508C77.6567 169.895 76.0413 170.706 74.4358 171.061C71.9572 171.718 69.2894 171.743 66.9248 171.132C64.2866 170.45 62.1671 169.022 60.7948 167.002C59.6516 165.348 58.9194 163.476 58.6771 161.589L58.6731 161.535C58.6455 161.146 58.6118 160.665 58.6767 160.226C56.2813 160.444 53.9197 160.721 51.6566 161.049C50.4472 163.777 49.0161 166.363 47.7752 168.533C46.3552 171.06 44.6968 173.459 43.0927 175.779L43.0711 175.81C42.7118 176.33 42.3402 176.868 41.9776 177.397C41.9243 177.478 41.8698 177.56 41.8155 177.642L41.7861 177.686C41.5929 177.977 41.3935 178.276 41.2167 178.583C41.2105 178.593 41.2044 178.604 41.1982 178.615C42.079 179.118 43.0695 179.768 43.7721 180.768C43.8846 180.91 46.5204 184.261 46.0838 185.493C47.4115 185.777 48.7925 185.943 50.1287 186.104L50.1407 186.105C51.1222 186.224 52.1372 186.346 53.1233 186.514C55.1913 186.828 57.2383 187.25 59.2175 187.658C61.2464 188.076 63.3431 188.508 65.4541 188.821C66.2096 188.952 66.9722 189.105 67.7101 189.253C68.8898 189.49 70.1089 189.735 71.3207 189.892C71.5953 189.931 71.883 189.958 72.1368 189.981C72.5118 190.016 72.8967 190.052 73.2734 190.121C73.3233 190.011 73.4235 189.941 73.5602 189.921C75.4629 188.258 77.2665 187.321 79.074 187.056C80.3671 186.848 81.6893 186.947 82.9681 187.043C83.3939 187.075 83.8324 187.108 84.2612 187.129C84.627 187.176 84.7612 187.474 84.7323 187.73C84.7028 187.988 84.5034 188.249 84.1334 188.213C83.8751 188.19 83.615 188.164 83.3537 188.139L83.3428 188.138C81.5549 187.962 79.706 187.78 77.9699 188.314C76.4664 188.749 75.1752 189.642 73.9266 190.506L73.8032 190.591C73.8127 190.645 73.8139 190.698 73.8072 190.749C73.7725 191.046 73.4893 191.267 73.1894 191.233C70.7805 191.113 68.3647 190.7 66.0282 190.301C64.8705 190.102 63.674 189.898 62.4917 189.731C61.0212 189.473 59.5429 189.153 58.1131 188.844L58.0973 188.841C57.0262 188.609 55.9188 188.369 54.8251 188.158C53.5209 187.9 52.188 187.673 50.8991 187.453L50.8756 187.45C49.855 187.276 48.7996 187.096 47.7557 186.901C47.427 186.841 47.0941 186.771 46.7724 186.704L46.755 186.701C46.3159 186.609 45.868 186.515 45.4269 186.444C45.133 186.327 45.0528 186.052 45.1003 185.825C44.7941 185.615 44.7452 185.169 44.7385 184.985C44.5377 184.134 44.1296 183.354 43.7962 182.77C42.7929 180.925 41.7743 179.907 40.0373 179.01L39.9841 178.983L40.096 178.811C40.0254 178.542 40.2378 178.252 40.4098 178.017L40.4608 177.947C40.8385 177.383 41.2149 176.814 41.5916 176.246L41.5986 176.235C41.8283 175.889 42.0578 175.542 42.2883 175.196C44.2116 172.412 45.818 169.498 47.4304 166.507C47.7418 165.921 48.0657 165.329 48.3795 164.756L48.3923 164.733C49.0096 163.606 49.6476 162.441 50.2199 161.265C48.5106 161.534 46.8401 161.834 45.2537 162.156L45.024 162.201C44.5378 163.294 43.9538 164.424 43.1864 165.753C42.9145 166.224 42.6172 166.725 42.2512 167.329C41.6612 168.326 41.063 169.348 40.4843 170.335L40.4477 170.398C37.9343 174.69 35.3354 179.128 32.4517 183.264C32.1789 183.564 31.9445 183.829 31.7333 184.078C31.5974 184.238 31.4803 184.38 31.3746 184.511L31.3523 184.538L31.3184 184.529C31.2842 184.519 31.2498 184.51 31.2157 184.502L31.1752 184.491C30.4012 185.54 29.5347 186.653 28.4513 187.991C30.2274 188.343 32.0442 188.618 33.8016 188.882C35.8303 189.189 37.9239 189.505 39.9588 189.94C41.5147 190.206 43.3543 190.505 45.1929 190.702C46.5734 190.901 47.9627 191.151 49.3068 191.393C50.8025 191.662 52.3494 191.941 53.8857 192.15C55.437 192.471 57.0318 192.653 58.5742 192.828C59.8235 192.971 61.1152 193.118 62.3754 193.338C63.7853 193.647 65.2251 193.893 66.6175 194.131C68.6462 194.478 70.7444 194.837 72.7693 195.393C74.7859 195.8 76.8673 196.054 78.8802 196.301L78.9033 196.303C79.5865 196.387 80.2926 196.473 80.986 196.564C82.1458 196.673 83.2902 196.605 84.4574 196.518C84.7874 196.115 85.104 195.693 85.4101 195.284L85.4628 195.214C85.5771 195.061 85.6911 194.909 85.8063 194.758C86.9051 193.26 87.9976 191.606 89.1459 189.705C90.3636 187.666 91.7427 185.356 92.7872 182.967C93.3128 181.77 93.7812 180.532 94.2339 179.335C94.6137 178.332 95.0065 177.294 95.4312 176.283C95.7439 175.531 96.0863 174.752 96.388 174.064C97.4503 171.644 98.5486 169.141 99.0657 166.49C99.3828 165.217 99.7727 163.993 100.26 162.546L100.378 162.197C100.57 161.629 100.768 161.045 100.952 160.466ZM61.4935 165.757C64.1185 169.895 69.5616 170.84 73.7914 169.941C76.4752 169.523 78.7239 167.825 80.6212 166.266C81.3874 165.608 81.9914 164.699 82.5444 163.825L82.5763 163.776C83.1151 162.955 83.7258 162.024 84.0256 161.08C84.0636 160.984 84.1042 160.86 84.1505 160.717L84.1527 160.711C84.2871 160.298 84.4678 159.739 84.7412 159.407C82.4599 159.362 80.1412 159.42 77.8982 159.476C76.731 159.505 75.5304 159.535 74.3406 159.55C69.0402 159.561 64.2361 159.753 59.6543 160.139C59.5826 161.786 60.2012 163.677 61.4935 165.757ZM123.957 134.419L123.956 134.419C122.683 133.349 121.421 132.217 120.202 131.121C117.125 128.359 113.947 125.506 110.296 123.403C109.787 123.283 109.272 123.151 108.773 123.024L108.76 123.021C107.792 122.775 106.793 122.521 105.797 122.329C104.284 122.026 102.723 121.859 101.214 121.697L101.202 121.696C100.831 121.656 100.461 121.616 100.091 121.574C97.6166 121.256 95.1059 121.146 92.6777 121.039L92.6252 121.037C91.5058 120.988 90.3482 120.936 89.2065 120.865C86.6622 120.801 84.0885 120.706 81.5575 120.583C79.8286 120.526 78.0762 120.614 76.3819 120.699C75.7978 120.728 75.1936 120.759 74.5982 120.783C72.5311 120.844 70.5017 120.998 68.5662 121.24C63.9465 121.908 59.3749 123.047 55.5104 124.073C55.4926 124.134 55.4428 124.267 55.2812 124.333C55.1378 124.386 54.9852 124.35 54.8779 124.241C54.3292 124.388 53.7806 124.536 53.2325 124.685C53.1249 124.804 52.9969 124.874 52.8511 124.892C52.7158 125.329 52.5732 125.772 52.4354 126.201L52.4269 126.228C52.2492 126.782 52.0648 127.355 51.8932 127.922C51.7168 128.501 51.5489 129.083 51.3865 129.647C51.2497 130.121 51.1089 130.609 50.9654 131.088C50.3118 133.579 49.2859 135.975 48.2939 138.292C47.97 139.049 47.635 139.831 47.3148 140.614C46.3104 143.224 45.5479 145.959 44.8104 148.605C44.3937 150.1 43.9641 151.64 43.4966 153.14C43.0459 154.541 42.5075 155.942 41.9868 157.297C41.081 159.654 40.1446 162.09 39.6411 164.598C39.9923 165.211 40.3326 165.847 40.6787 166.498C41.3257 165.377 42.0733 164.052 42.738 162.689C42.4124 162.769 42.1408 162.842 41.8878 162.915C41.7193 163.061 41.4835 163.119 41.2707 163.068C41.0748 163.02 40.9268 162.889 40.8546 162.699C40.7816 162.5 40.8254 162.268 40.9705 162.093C41.1005 161.935 41.29 161.857 41.4786 161.883C42.7868 161.455 44.1441 161.128 45.5353 160.803C50.1472 159.777 54.3567 159.1 58.4045 158.734C59.1793 158.659 59.9674 158.574 60.7294 158.491L60.7505 158.489C62.815 158.267 64.9498 158.036 67.061 157.96C73.7098 157.611 80.3618 157.764 86.6053 157.952C87.6439 158.006 88.6877 158.103 89.6971 158.196C90.7649 158.295 91.8695 158.397 92.9634 158.449C94.5765 158.446 96.2489 158.66 97.8661 158.867C98.2015 158.909 98.5328 158.952 98.8597 158.992C99.4188 159.043 99.979 159.106 100.521 159.165L100.58 159.172C101.171 159.238 101.783 159.306 102.385 159.358L102.417 159.368C102.634 159.501 102.846 159.624 103.052 159.737L103.187 159.809L103.193 159.832C103.195 159.84 103.197 159.848 103.198 159.857L103.248 159.875C103.317 159.901 103.386 159.926 103.455 159.953C103.732 160.1 103.954 160.209 104.154 160.3C104.209 160.324 104.264 160.348 104.319 160.372L104.331 160.377C104.37 160.394 104.409 160.411 104.447 160.428L104.531 160.465C104.673 160.528 104.812 160.59 104.952 160.648C105.227 160.764 105.476 160.864 105.715 160.954L106.127 161.146C106.635 161.392 107.154 161.639 107.656 161.878L107.738 161.917C109.125 162.576 110.558 163.257 111.932 163.995C114.895 165.699 117.92 167.146 121.018 168.6C122.128 169.13 123.271 169.615 124.376 170.084C125.338 170.492 126.333 170.915 127.303 171.365C127.413 171.414 127.495 171.494 127.54 171.599C128.043 171.53 128.45 171.141 128.661 170.531C128.968 169.701 129.174 168.825 129.374 167.979L129.419 167.789C129.864 165.825 130.351 163.885 130.823 162.009L130.848 161.909C131.065 161.044 131.289 160.149 131.508 159.26C131.784 158.25 132.112 157.244 132.429 156.271C132.749 155.291 133.08 154.277 133.356 153.262C133.629 152.243 133.954 151.225 134.267 150.24C134.496 149.519 134.733 148.775 134.948 148.037C135.24 146.656 135.315 145.369 135.168 144.214C135.121 144.03 135.078 143.847 135.063 143.664C133.506 142.194 131.841 140.799 130.231 139.45L129.594 138.916C128.562 138.05 127.484 137.207 126.442 136.392C125.623 135.752 124.778 135.09 123.957 134.419ZM121.609 95.2985L121.586 95.3927C121.535 95.589 121.489 95.7714 121.478 95.9048C121.324 96.523 121.145 97.1349 120.972 97.7272C120.837 98.1886 120.685 98.7072 120.551 99.2116C119.852 101.538 119.309 103.944 118.784 106.271L118.776 106.308C118.573 107.206 118.364 108.134 118.148 109.044C117.76 110.61 117.315 112.179 116.884 113.696C116.684 114.402 116.457 115.203 116.246 115.969C116.16 116.284 116.074 116.599 115.989 116.915L115.987 116.922C115.495 118.732 114.987 120.603 114.341 122.389C114.26 122.513 114.121 122.528 114.023 122.482C113.914 122.43 113.866 122.322 113.901 122.207C113.924 122.14 113.948 122.073 113.973 122.008L113.999 121.936C114.531 120.212 114.928 118.416 115.312 116.679C115.596 115.397 115.888 114.075 116.232 112.789C116.929 110.019 117.54 107.229 118.046 104.495C118.41 102.58 118.941 100.675 119.454 98.8326L119.457 98.823C119.807 97.5688 120.168 96.2723 120.474 94.9841C119.94 95.0096 119.251 95.0486 118.586 95.1234C118.465 95.1189 118.328 95.1475 118.184 95.1775C117.998 95.2161 117.807 95.2556 117.641 95.2313C116.911 99.9053 116.033 104.635 115.184 109.209L114.967 110.379C114.45 113.038 113.888 115.455 113.248 117.767C113.189 117.959 113.132 118.151 113.074 118.343C112.683 119.64 112.281 120.977 111.594 122.166C111.531 122.266 111.465 122.357 111.404 122.441L111.297 122.586L111.299 122.539C111.278 122.553 111.256 122.565 111.233 122.576C111.274 122.635 111.303 122.702 111.319 122.773C112.742 123.467 114.057 124.352 115.282 125.2C115.561 125.395 115.842 125.6 116.087 125.779C116.098 125.735 116.111 125.694 116.125 125.655L116.193 125.378C116.263 125.092 116.333 124.807 116.401 124.52C116.953 121.96 117.62 119.439 118.312 116.867C118.823 114.743 119.239 112.559 119.641 110.446L119.646 110.423C120.028 108.414 120.424 106.336 120.902 104.31C121.073 103.52 121.258 102.724 121.438 101.954L121.481 101.769C121.522 101.591 121.563 101.414 121.604 101.236C121.639 101.122 121.662 100.993 121.687 100.857C121.775 100.371 121.874 99.8203 122.488 99.8758C122.697 99.9218 122.844 100.013 122.928 100.148C123.087 100.401 123.004 100.756 122.93 101.068L122.927 101.081C122.616 102.563 122.273 104.065 121.941 105.517L121.938 105.53C121.373 108.005 120.789 110.564 120.343 113.108C119.943 115.271 119.319 117.413 118.716 119.485L118.708 119.511C118.413 120.522 118.109 121.568 117.834 122.602C117.731 123.016 117.625 123.43 117.519 123.843L117.514 123.864C117.333 124.572 117.145 125.304 116.974 126.027C117.009 126.148 116.986 126.285 116.916 126.397C117.571 126.895 118.24 127.421 118.958 128.006C119.141 127.449 119.291 126.868 119.436 126.307L119.438 126.297C119.534 125.925 119.634 125.541 119.742 125.168C120.539 122.457 121.072 119.61 121.587 116.856L121.589 116.847C121.906 115.153 122.233 113.401 122.62 111.701C122.809 110.776 122.996 109.808 123.178 108.873C123.399 107.728 123.628 106.544 123.866 105.418C124.042 104.525 124.216 103.615 124.384 102.736L124.465 102.309C124.496 102.149 124.568 102.025 124.678 101.94C124.852 101.796 125.102 101.784 125.314 101.909C125.522 102.031 125.626 102.244 125.585 102.465C125.431 103.299 125.278 104.134 125.125 104.969C124.099 110.574 123.037 116.37 121.658 122.002C121.312 123.215 120.936 124.441 120.573 125.627L120.565 125.653C120.269 126.618 119.964 127.616 119.677 128.595C120.314 129.122 120.958 129.662 121.527 130.14C121.785 130.356 122.042 130.573 122.3 130.789C122.282 130.523 122.404 130.177 122.512 129.869C122.58 129.678 122.642 129.501 122.655 129.384C123.035 128.068 123.372 126.733 123.658 125.584C123.845 124.794 124.032 124.003 124.219 123.212L124.221 123.204C125.204 119.047 126.22 114.749 127.329 110.548C127.596 109.49 127.931 108.435 128.254 107.414C128.607 106.301 128.973 105.149 129.251 103.992C129.351 103.618 129.696 103.501 129.986 103.578C130.262 103.651 130.512 103.909 130.41 104.301C129.446 107.189 128.347 110.63 127.496 114.256C126.735 117.301 125.852 120.846 124.995 124.395C124.871 124.866 124.749 125.346 124.632 125.811L124.624 125.841C124.19 127.557 123.742 129.326 123.077 130.985C123.008 131.098 122.902 131.172 122.785 131.194C123.159 131.506 123.478 131.77 123.786 132.023C124.204 132.361 124.646 132.708 125.174 133.113C125.183 132.964 125.222 132.856 125.292 132.785C125.346 132.731 125.417 132.7 125.502 132.695C126.872 128.344 127.952 123.808 128.905 119.806C129.478 116.837 130.211 113.855 130.919 110.971L130.956 110.823C131.155 110.009 131.362 109.167 131.562 108.34C131.585 108.245 131.601 108.141 131.615 108.05C131.66 107.752 131.707 107.444 131.973 107.245C132.238 107.028 132.607 107.018 132.911 107.22C133.215 107.422 133.348 107.766 133.251 108.097C132.705 110.141 132.175 112.214 131.663 114.218C130.57 118.497 129.439 122.922 128.115 127.215C127.915 127.814 127.73 128.425 127.552 129.015C127.096 130.522 126.624 132.079 125.893 133.494C125.869 133.532 125.84 133.565 125.805 133.594C126.122 133.835 126.44 134.075 126.758 134.314L126.83 134.369C127.434 134.825 128.058 135.295 128.666 135.766C128.678 135.743 128.69 135.723 128.703 135.704C129.999 130.921 131.355 125.816 132.452 120.627C132.669 119.701 132.913 118.76 133.15 117.85L133.155 117.832C133.617 116.053 134.096 114.213 134.391 112.409C134.465 111.973 134.525 111.507 134.586 110.895C134.672 110.315 135.15 110.108 135.558 110.162C135.963 110.214 136.371 110.538 136.306 111.125C135.961 113.667 135.216 116.155 134.496 118.56L134.489 118.583C134.095 119.901 133.688 121.263 133.351 122.618C132.672 125.361 131.995 127.831 131.279 130.171C130.878 131.504 130.516 132.746 130.174 133.965C130.092 134.222 130.019 134.489 129.949 134.747C129.801 135.287 129.65 135.841 129.406 136.347L129.477 136.402C129.525 136.441 129.574 136.478 129.622 136.517C130.44 137.181 131.247 137.851 132.023 138.509C132.032 138.485 132.042 138.462 132.052 138.44C132.068 138.4 132.086 138.358 132.095 138.325L132.308 137.667C132.873 135.922 133.456 134.118 133.958 132.321L133.973 132.261C135.476 126.518 137.031 120.579 138.209 114.659C138.271 114.47 138.298 114.262 138.324 114.06C138.376 113.661 138.429 113.254 138.722 112.965C138.974 112.759 139.32 112.75 139.607 112.941C139.89 113.131 140.013 113.451 139.92 113.757C139.401 115.618 138.884 117.515 138.384 119.35C137.328 123.225 136.238 127.226 135.063 131.153C134.471 133.113 133.805 135.04 133.059 137.175C133.023 137.276 132.988 137.378 132.954 137.479C132.808 137.901 132.658 138.338 132.489 138.761C132.481 138.794 132.462 138.827 132.436 138.857C133.355 139.643 134.189 140.382 134.983 141.112C134.985 141.102 134.987 141.092 134.989 141.081L135.017 141.079L134.99 141.074C135.007 140.987 135.026 140.888 135.109 140.826C136.092 137.526 136.766 134.096 137.417 130.779L137.419 130.769C137.621 129.738 137.83 128.673 138.047 127.621C138.903 124.052 139.707 120.146 140.503 115.68C140.731 114.545 140.992 113.321 141.327 111.83C141.187 111.814 141.056 111.76 140.95 111.674C140.219 111.083 139.462 110.516 138.729 109.967C138.36 109.691 137.942 109.378 137.538 109.069C132.858 105.499 128.429 101.465 124.146 97.5637L124.138 97.5562C123.54 97.0117 122.943 96.4677 122.345 95.9248C122.237 95.8009 122.046 95.6482 121.843 95.4867C121.767 95.4264 121.688 95.3631 121.609 95.2985ZM119.48 98.8396C119.481 98.8397 119.481 98.8397 119.48 98.8396V98.8396Z" fill="black"/>
</g>
</svg>
