<svg width="142" height="94" viewBox="0 0 142 94" fill="none" xmlns="http://www.w3.org/2000/svg">
<path d="M18.5657 21.1888C49.2037 10.3621 65.8074 12.8671 94.2357 35.0588L93.2377 50.3529C56.9643 47.8609 48.2252 56.3921 28.9083 68.4151C30.8681 61.0882 32.9585 57.2189 41.3655 51.4364C26.8829 52.6637 19.3636 54.7945 6.64266 60.2466C16.5929 49.4883 23.1327 44.5689 38.3199 39.8789C26.1085 36.8589 19.267 38.1899 7.06618 41.6942C15.8731 32.9422 22.4669 29.4614 37.9764 26.5011C30.4624 22.7279 26.2039 21.7821 18.5657 21.1888Z" fill="#F4EFD3" stroke="#F4EFD3" strokeWidth="10" stroke-linejoin="round"/>
<path d="M59.0366 16.4037C76.6881 21.2967 84.769 26.2362 96.7647 37.9717L97.1467 49.6629C73.8428 47.9317 62.1243 49.8608 43.6066 58.4316L49.1262 49.7313L33.9308 47.3712L49.7404 39.8802L33.4724 33.3418L51.8111 28.7644L40.6404 20.6553L59.0366 16.4037Z" fill="#FEB048" stroke="#F4EFD3" strokeWidth="10" stroke-linejoin="round"/>
<path d="M84.4052 36.4555C73.3839 32.4956 67.2038 31.3467 56.1799 30.6817" stroke="#F4EFD3" strokeWidth="10" stroke-linecap="round" stroke-linejoin="round"/>
<path d="M86.9349 33.6577C78.8363 29.2063 73.8354 27.4242 64.2861 25.2208" stroke="#F4EFD3" strokeWidth="10" stroke-linecap="round" stroke-linejoin="round"/>
<path d="M81.2814 39.6939C69.8088 36.1722 63.4091 35.4166 52.0403 35.7791" stroke="#F4EFD3" strokeWidth="10" stroke-linecap="round" stroke-linejoin="round"/>
<path d="M73.6929 42.3757C65.3565 41.6572 60.1686 42.2883 50.7556 43.7325" stroke="#F4EFD3" strokeWidth="10" stroke-linecap="round" stroke-linejoin="round"/>
<path d="M71.9871 46.0362C65.867 46.285 62.5111 46.8672 56.6763 48.7359" stroke="#F4EFD3" strokeWidth="10" stroke-linecap="round" stroke-linejoin="round"/>
<path d="M87.3194 22.5033L93.7179 37.837L75.7239 44.3694L89.0986 49.7382L80.9533 62.597L95.6512 58.3256L94.2693 79.0627L105.213 63.0228L112.761 73.4503L115.963 61.1273L127.134 63.5249L122.69 53.558L136.793 49.7273L123.285 41.6944L128.862 27.6086L114.567 34.1608L107.632 13.8822L102.246 30.958L87.3194 22.5033Z" fill="#E9DEA6" stroke="#F4EFD3" strokeWidth="10" stroke-linejoin="round"/>
<path d="M103.566 49.8748C105.237 53.1583 106.775 53.5389 110.119 52.7508" stroke="#F4EFD3" strokeWidth="10" stroke-linejoin="round"/>
<ellipse cx="2.31568" cy="1.98499" rx="2.31568" ry="1.98499" transform="matrix(0.901947 0.431846 -0.431676 0.902029 96.7584 44.036)" fill="#FEB048"/>
<ellipse cx="2.31562" cy="1.98505" rx="2.31562" ry="1.98505" transform="matrix(0.956101 0.293038 -0.292883 0.956148 114.254 50.501)" fill="#FEB048"/>
<path d="M110.312 44.3181C116.857 41.5734 119.255 43.084 122.211 48.9391C115.806 50.2022 113.323 48.975 110.312 44.3181Z" fill="#F4EFD3" stroke="#F4EFD3" strokeWidth="10" stroke-linejoin="round"/>
<path d="M116.491 43.1658C114.056 43.1276 112.805 43.4933 110.684 44.5256C111.603 46.1036 112.24 46.8866 113.654 48.0335C116.689 46.9148 117.346 45.8635 116.491 43.1658Z" fill="#272B52" stroke="#F4EFD3" strokeWidth="10" stroke-linejoin="round"/>
<path d="M96.9125 38.81C103.458 36.0652 105.856 37.5759 108.812 43.431C102.406 44.6941 99.9234 43.4669 96.9125 38.81Z" fill="#F4EFD3" stroke="#F4EFD3" strokeWidth="10" stroke-linejoin="round"/>
<path d="M103.091 37.6578C100.657 37.6195 99.4055 37.9852 97.285 39.0175C98.2039 40.5956 98.8409 41.3785 100.255 42.5254C103.29 41.4067 103.947 40.3554 103.091 37.6578Z" fill="#272B52" stroke="#F4EFD3" strokeWidth="10" stroke-linejoin="round"/>
<path d="M18.5657 21.1888C49.2037 10.3621 65.8074 12.8671 94.2357 35.0588L93.2377 50.3529C56.9643 47.8609 48.2252 56.3921 28.9083 68.4151C30.8681 61.0882 32.9585 57.2189 41.3655 51.4364C26.8829 52.6637 19.3636 54.7945 6.64266 60.2466C16.5929 49.4883 23.1327 44.5689 38.3199 39.8789C26.1085 36.8589 19.267 38.1899 7.06618 41.6942C15.8731 32.9422 22.4669 29.4614 37.9764 26.5011C30.4624 22.7279 26.2039 21.7821 18.5657 21.1888Z" fill="#E9DEA6" stroke="#272B52" strokeWidth="2"/>
<path d="M59.0366 16.4037C76.6881 21.2967 84.769 26.2362 96.7647 37.9717L97.1467 49.6629C73.8428 47.9317 62.1243 49.8608 43.6066 58.4316L49.1262 49.7313L33.9308 47.3712L49.7404 39.8802L33.4724 33.3418L51.8111 28.7644L40.6404 20.6553L59.0366 16.4037Z" fill="#FEB048" stroke="#272B52" strokeWidth="2"/>
<path d="M84.4052 36.4555C73.3839 32.4956 67.2038 31.3467 56.1799 30.6817" stroke="#272B52" strokeWidth="2" stroke-linecap="round"/>
<path d="M86.9349 33.6577C78.8363 29.2063 73.8354 27.4242 64.2861 25.2208" stroke="#272B52" strokeWidth="2" stroke-linecap="round"/>
<path d="M81.2814 39.6939C69.8088 36.1722 63.4091 35.4166 52.0403 35.7791" stroke="#272B52" strokeWidth="2" stroke-linecap="round"/>
<path d="M73.6929 42.3757C65.3565 41.6572 60.1686 42.2883 50.7556 43.7325" stroke="#272B52" strokeWidth="2" stroke-linecap="round"/>
<path d="M71.9871 46.0362C65.867 46.285 62.5111 46.8672 56.6763 48.7359" stroke="#272B52" strokeWidth="2" stroke-linecap="round"/>
<path d="M87.3194 22.5033L93.7179 37.837L75.7239 44.3694L89.0986 49.7382L80.9533 62.597L95.6512 58.3256L94.2693 79.0627L105.213 63.0228L112.761 73.4503L115.963 61.1273L127.134 63.5249L122.69 53.558L136.793 49.7273L123.285 41.6944L128.862 27.6086L114.567 34.1608L107.632 13.8822L102.246 30.958L87.3194 22.5033Z" fill="#E9DEA6" stroke="#272B52" strokeWidth="2"/>
<path d="M103.566 49.8748C105.237 53.1583 106.775 53.5389 110.119 52.7508" stroke="#272B52" strokeWidth="2"/>
<ellipse cx="2.31568" cy="1.98499" rx="2.31568" ry="1.98499" transform="matrix(0.901947 0.431846 -0.431676 0.902029 96.7584 44.036)" fill="#FEB048"/>
<ellipse cx="2.31562" cy="1.98505" rx="2.31562" ry="1.98505" transform="matrix(0.956101 0.293038 -0.292883 0.956148 114.254 50.501)" fill="#FEB048"/>
<path d="M110.312 44.3181C116.857 41.5734 119.255 43.084 122.211 48.9391C115.806 50.2022 113.323 48.975 110.312 44.3181Z" fill="#F4EFD3" stroke="#272B52"/>
<path d="M116.491 43.1658C114.056 43.1276 112.805 43.4933 110.684 44.5256C111.603 46.1036 112.24 46.8866 113.654 48.0335C116.689 46.9148 117.346 45.8635 116.491 43.1658Z" fill="#272B52" stroke="#272B52"/>
<path d="M96.9125 38.81C103.458 36.0652 105.856 37.5759 108.812 43.431C102.406 44.6941 99.9234 43.4669 96.9125 38.81Z" fill="#F4EFD3" stroke="#272B52"/>
<path d="M103.091 37.6578C100.657 37.6195 99.4055 37.9852 97.285 39.0175C98.2039 40.5956 98.8409 41.3785 100.255 42.5254C103.29 41.4067 103.947 40.3554 103.091 37.6578Z" fill="#272B52" stroke="#272B52"/>
</svg>
