<svg width="124" height="280" viewBox="0 0 124 280" fill="none" xmlns="http://www.w3.org/2000/svg">
<path d="M26.7338 53.1857L3.41333 75.7524L52.8836 76.4577V126.528L77.6175 103.961V53.1857H26.7338Z" fill="#FEB048" stroke="#272B52" stroke-linecap="round"/>
<rect x="3.91345" y="76.2524" width="48.4703" height="49.7752" fill="#A3AA10" stroke="#272B52"/>
<path d="M26.7338 205.511L2 227.373H52.8837V278.853L77.6175 256.287V205.511H26.7338Z" fill="#FEB048" stroke="#272B52" stroke-linecap="round"/>
<path d="M2.5 227.168H52.3837V278.353H2.5V227.168Z" fill="#F36A22" stroke="#272B52"/>
<path d="M76.6483 1L52.8838 23.5668H104.737V75.7524L128.501 51.7752V1H76.6483Z" fill="#F36A22" stroke="#272B52" stroke-linecap="round"/>
<rect x="53.3838" y="24.0668" width="50.853" height="51.1857" fill="#E9DEA6" stroke="#272B52"/>
<path d="M26.7338 156.147L2 178.713H55.0025V229.203L77.6175 206.922V156.147H26.7338Z" fill="#FEB048" stroke="#272B52" stroke-linecap="round"/>
<rect x="2.5" y="179.213" width="49.8837" height="51.1857" fill="#A3AA10" stroke="#272B52"/>
<path d="M76.6482 156.147L54.6046 178.008H104.737V230.899L127.782 204.101L128.501 156.147H76.6482Z" fill="#FEB048" stroke="#272B52" stroke-linecap="round"/>
<rect x="53.3837" y="179.213" width="51.2972" height="51.1857" fill="#A3AA10" stroke="#272B52"/>
<path d="M77.6175 103.961L52.8838 126.528H105.181V178.713L128.501 156.013V103.961H77.6175Z" fill="#E9DEA6" stroke="#272B52" stroke-linecap="round"/>
<rect x="53.3837" y="127.028" width="51.2972" height="51.1857" fill="#F36A22" stroke="#272B52"/>
</svg>
