<svg width="37" height="38" viewBox="0 0 37 38" fill="none" xmlns="http://www.w3.org/2000/svg">
<rect x="0.695652" y="0.559666" width="35.6087" height="36.5915" rx="2.93478" fill="#E9DEA6"/>
<ellipse cx="18.5" cy="18.8555" rx="14.087" ry="14.5784" fill="#F2E7E2"/>
<path d="M30.5578 18.8555C30.5578 25.615 25.2231 31.077 18.6639 31.077C12.1048 31.077 6.77009 25.615 6.77009 18.8555C6.77009 12.0961 12.1048 6.6341 18.6639 6.6341C25.2231 6.6341 30.5578 12.0961 30.5578 18.8555Z" fill="#FEB048" stroke="black" stroke-width="0.782609"/>
<path d="M24.1962 14.9414C24.2701 15.996 24.0865 16.9587 23.7401 17.6612C23.3912 18.3686 22.8982 18.7771 22.3647 18.8144C21.8312 18.8518 21.2861 18.516 20.8421 17.8641C20.4011 17.2168 20.0852 16.2891 20.0113 15.2345C19.9375 14.1799 20.121 13.2172 20.4674 12.5148C20.8163 11.8073 21.3093 11.3989 21.8428 11.3615C22.3763 11.3242 22.9214 11.6599 23.3655 12.3118C23.8064 12.9591 24.1224 13.8869 24.1962 14.9414Z" fill="#F2E7E2" stroke="black" stroke-width="0.391304"/>
<path d="M13.073 14.7646C12.9991 15.8191 13.1827 16.7818 13.5291 17.4843C13.878 18.1917 14.371 18.6002 14.9044 18.6376C15.4379 18.6749 15.983 18.3392 16.4271 17.6872C16.8681 17.0399 17.184 16.1122 17.2579 15.0576C17.3317 14.003 17.1481 13.0403 16.8017 12.3379C16.4528 11.6305 15.9598 11.222 15.4264 11.1846C14.8929 11.1473 14.3478 11.483 13.9037 12.1349C13.4628 12.7823 13.1468 13.71 13.073 14.7646Z" fill="#F2E7E2" stroke="black" stroke-width="0.391304"/>
<ellipse cx="22.196" cy="15.126" rx="0.982811" ry="2.29323" transform="rotate(-2.32829 22.196 15.126)" fill="black"/>
<ellipse cx="0.982811" cy="2.29323" rx="0.982811" ry="2.29323" transform="matrix(-0.999174 -0.0406251 -0.0406251 0.999174 16.3915 12.547)" fill="black"/>
<path d="M11.6204 20.3297C17.3235 25.3354 20.3602 25.1243 25.5435 20.3297" stroke="black" stroke-width="0.782609" stroke-linecap="round"/>
<rect x="0.695652" y="0.559666" width="35.6087" height="36.5915" rx="2.93478" stroke="#383D75" stroke-width="0.391304"/>
</svg>
