<svg width="186" height="160" viewBox="0 0 186 160" fill="none" xmlns="http://www.w3.org/2000/svg">
<path d="M147.228 29.8245C146.832 32.5919 146.134 33.6309 143.983 34.5397C146.372 35.1201 146.844 36.39 147.228 39.1547C147.871 36.5179 148.316 35.125 150.98 34.5397C148.597 33.8199 147.825 32.7265 147.228 29.8245Z" fill="#242A2B" stroke="#242A2B" strokeWidth="4.66511" stroke-linejoin="round"/>
<path d="M147.228 29.8245C146.832 32.5919 146.134 33.6309 143.983 34.5397C146.372 35.1201 146.844 36.39 147.228 39.1547C147.871 36.5179 148.316 35.125 150.98 34.5397C148.597 33.8199 147.825 32.7265 147.228 29.8245Z" fill="#CA5355" stroke="#242A2B" strokeWidth="1.16628"/>
<path d="M171.973 11.7471C170.836 19.7898 168.827 22.8095 162.643 25.4509C169.511 27.1376 170.87 30.8282 171.973 38.8631C173.822 31.2 175.1 27.1517 182.761 25.4509C175.908 23.3587 173.69 20.1813 171.973 11.7471Z" fill="#242A2B" stroke="#242A2B" strokeWidth="4.66511" stroke-linejoin="round"/>
<path d="M171.973 11.7471C170.836 19.7898 168.827 22.8095 162.643 25.4509C169.511 27.1376 170.87 30.8282 171.973 38.8631C173.822 31.2 175.1 27.1517 182.761 25.4509C175.908 23.3587 173.69 20.1813 171.973 11.7471Z" fill="#2F7A84" stroke="#242A2B" strokeWidth="1.16628"/>
<path d="M134.187 3C133.462 8.18886 132.181 10.137 128.237 11.8411C132.617 12.9294 133.483 15.3104 134.187 20.4942C135.366 15.5502 136.181 12.9385 141.066 11.8411C136.696 10.4914 135.282 8.44141 134.187 3Z" fill="#242A2B" stroke="#242A2B" strokeWidth="4.66511" stroke-linejoin="round"/>
<path d="M134.187 3C133.462 8.18886 132.181 10.137 128.237 11.8411C132.617 12.9294 133.483 15.3104 134.187 20.4942C135.366 15.5502 136.181 12.9385 141.066 11.8411C136.696 10.4914 135.282 8.44141 134.187 3Z" fill="#A3AA10" stroke="#242A2B" strokeWidth="1.16628"/>
<path d="M36.9815 109.392C33.166 104.451 38.5714 93.6859 41.751 88.9211C47.8748 89.9799 60.2989 92.6624 61.0055 94.9213C61.8887 97.7449 64.5384 102.51 63.4786 102.863C62.6306 103.145 59.7101 100.745 58.3558 99.5097C57.6492 103.569 60.8288 110.098 56.766 110.804C52.3851 110.804 51.4077 103.274 51.4666 99.5097C51.1722 102.451 50.0534 108.969 47.9336 111.51C45.5312 114.616 44.3418 105.275 44.0474 100.216C41.751 105.157 40.1612 109.392 36.9815 109.392Z" fill="#F4EFD3"/>
<path d="M160.811 77.8032C159.103 70.5676 155.971 55.9554 157.101 55.3907C158.514 54.6848 164.344 55.3907 166.993 64.7439L168.23 55.3907C170.482 57.693 173.2 62.4621 174.519 65.8478C174.559 62.716 175.145 56.7494 176.179 56.979C177.769 57.3319 183.598 74.2736 178.829 79.7444L160.811 77.8032Z" fill="#F4EFD3"/>
<path d="M113.293 66.5082L111.35 64.7435V60.1551L119.652 56.2726H128.131L130.074 61.3904L130.957 66.5082L124.775 72.8614C122.874 73.1645 119.188 73.7301 119.652 73.5673C116.967 74.2732 116.767 77.2733 117.002 78.6851C110.996 82.0381 108.7 77.6262 108.7 75.332C111.244 74.485 112.822 69.0966 113.293 66.5082Z" fill="#F4EFD3"/>
<ellipse cx="122.831" cy="64.0377" rx="1.05988" ry="1.23533" fill="white"/>
<ellipse cx="127.601" cy="64.7438" rx="0.883236" ry="1.23533" fill="white"/>
<path fillRule="evenodd" clipRule="evenodd" d="M42.0122 89.2057C48.4981 90.9338 54.914 92.9667 61.3459 94.8842C62.0693 95.1001 62.0672 95.1361 62.7145 94.7466C64.475 93.6873 66.2683 92.681 68.0828 91.7169C73.5549 88.8099 79.1796 86.4828 85.2058 85.0034C89.4757 83.9537 93.8186 83.1219 98.1743 82.5113C97.7316 83.8732 96.8714 85.2934 95.8101 86.2521C94.986 86.9961 93.8631 87.4025 92.8462 87.8014C89.821 88.9866 86.6538 89.8152 83.6804 91.1338C80.6478 92.4778 78.7315 95.2726 78.1564 98.515C78.0483 99.1214 78.0547 99.2135 78.5526 99.5193C79.1108 99.8622 79.7898 100.063 80.4052 100.273C85.3477 101.955 90.5603 102.991 95.6713 104.012C98.3851 104.554 101.107 105.058 103.845 105.463C105.544 105.715 107.338 106.054 109.064 105.953C116.457 105.522 120.839 96.7287 123.005 90.7814C129.684 94.3974 137.349 96.7086 144.832 97.8229C153.904 99.1754 165.334 99.2495 172.506 92.5688C175.922 89.3867 178.019 85.0786 179.561 80.7387C174.533 80.308 169.529 79.555 164.545 78.793C163.674 78.6599 162.803 78.5245 161.933 78.3866C161.584 78.331 161.047 78.1347 160.689 78.1869C160.145 78.2657 159.444 78.8544 158.962 79.1154C155.274 81.1155 151.461 82.9504 147.503 84.3579C145.382 85.1114 143.181 85.7791 140.934 86.0024C138.522 86.2416 136.051 85.7495 133.723 85.1611C127.88 83.6849 121.768 81.1874 116.895 77.5886C115.709 79.2774 113.57 80.4213 111.53 79.6064C109.296 78.7139 108.053 76.3731 106.856 74.4479C106.42 73.7469 105.598 73.7421 104.786 73.5353C102.52 72.9577 100.227 72.487 97.9233 72.0963C90.3549 70.8135 82.5724 70.3783 74.9341 71.2631C67.4811 72.1268 60.1426 74.5293 53.5709 78.1402C50.7119 79.7112 47.9282 81.5313 45.5523 83.7801C44.0524 85.2003 42.2982 87.0596 42.0122 89.2057Z" fill="#FFF5F7"/>
<path d="M52.9907 77.7181L70.3679 89.8034L65.8986 92.4794L50.229 81.7397L52.9907 77.7181Z" fill="#6CBBD7"/>
<path d="M173 92.4504L156.395 80.9794L160.063 78.4832L175.296 89.2738L173 92.4504Z" fill="#6CBBD7"/>
<path d="M81.3564 92.4503L116.509 101.72L115.943 103.745L80.79 94.475L81.3564 92.4503Z" fill="#6CBBD7"/>
<path d="M95.3115 85.6687L121.985 93.5096L121.419 95.5343L94.7451 87.6934L95.3115 85.6687Z" fill="#6CBBD7"/>
<rect width="21.4073" height="2.83602" transform="matrix(0.824855 0.565345 -0.566088 0.824345 64.4176 72.527)" fill="#6CBBD7"/>
<path d="M164.344 97.7443L147.386 85.7438L149.859 85.2144L166.655 96.5659L164.344 97.7443Z" fill="#6CBBD7"/>
<path d="M80.5776 70.081L97.1604 81.4466L95.4516 83.0974L77.6103 71.6265L80.5776 70.081Z" fill="#6CBBD7"/>
<path d="M145.089 98.2739L126.895 83.9793L129.015 83.4499L148.622 97.568L145.089 98.2739Z" fill="#6CBBD7"/>
<path fillRule="evenodd" clipRule="evenodd" d="M64.5287 40.3607C66.8675 41.1431 68.9776 42.2929 71.04 43.6316C72.0441 44.284 73.0494 45.0474 74.1595 45.5093C75.1446 45.9191 76.2208 46.1055 77.2335 46.4423C81.7682 47.9509 86.6895 48.2544 91.3015 46.804C96.0036 45.3254 99.9938 42.1502 104.856 41.1541C109.597 40.1829 114.419 40.3977 118.973 42.1566C121.183 43.011 123.049 44.4467 124.936 45.8447C126.744 47.1844 128.643 48.5058 130.042 50.2943C131.417 52.0506 132.211 54.2363 132.817 56.3617C133.166 57.5874 133.328 58.8531 133.302 60.1281C133.284 61.0201 132.813 61.8817 133.09 62.7439C133.48 63.9532 134.047 64.842 133.901 66.1882C133.782 67.2724 133.29 68.2067 132.519 68.9677C131.727 69.7484 130.781 70.2846 129.726 70.6233C128.929 70.8795 128.677 70.8147 128.214 70.12C126.916 71.2939 125.989 72.7774 124.363 73.5528C123.556 73.938 122.729 74.1234 121.84 74.1799C121.166 74.2227 120.548 74.2421 119.979 74.6516C119.382 75.0814 117.198 76.9986 118.033 77.7527C118.52 78.1926 119.657 78.2799 120.278 78.5328C121.144 78.8863 121.979 79.3201 122.766 79.828C125.645 81.6861 128.51 82.8449 131.84 83.6767C135.296 84.5391 138.781 85.0069 142.347 85.0196C145.587 85.0312 148.981 84.7857 151.984 83.4745C153.426 82.8459 154.817 82.0121 155.997 80.9676C157.174 79.9254 157.896 78.4764 159.106 77.5067C159.889 76.879 159.164 75.9126 158.923 75.0508C158.431 73.298 158.054 71.3026 157.905 69.4901C157.76 67.7294 157.517 65.9738 157.205 64.2316C156.873 62.3846 156.181 60.6654 155.693 58.8616C155.333 57.5315 154.971 55.9705 155.388 54.6122C155.596 53.9384 156.054 53.2263 156.707 52.9048C157.291 52.6172 157.651 52.892 158.174 52.8611C159.709 52.771 160.893 53.3961 162.051 54.4191C162.677 54.9718 163.401 55.4557 163.998 56.0346C164.461 56.4848 164.571 57.2111 165.065 57.6103C165.877 55.5413 166.726 52.9113 169.478 54.0945C171.655 55.0308 171.935 58.5488 172.991 60.3827C173.585 59.8943 173.652 58.9321 173.883 58.2514C174.121 57.5468 174.524 56.8028 175.091 56.3044C176.332 55.2159 177.843 55.653 178.697 56.9569C179.154 57.654 178.881 58.4541 179.335 59.1425C179.784 59.8252 179.644 60.6229 179.827 61.418C180.059 62.4257 180.341 63.4188 180.529 64.438C180.614 64.9091 180.74 65.4403 180.719 65.9239C180.71 66.1244 180.548 66.4692 180.597 66.667C180.662 66.926 180.97 67.1589 181.083 67.4151C181.235 67.7593 181.179 68.0095 181.196 68.3646C181.227 69.0037 181.398 69.5281 181.581 70.1593C182.044 71.7494 181.927 73.7619 181.242 75.2677C180.887 76.0482 180.638 76.6159 180.532 77.4511C180.464 77.9904 180.057 78.4818 180.081 79.0614C180.115 79.8682 182.275 81.1125 180.571 81.647C179.858 81.8713 179.705 81.7538 179.512 82.5666C179.318 83.374 179.1 84.1592 178.783 84.9275C178.111 86.5593 177.118 88.0197 176.18 89.5055C175.167 91.1129 174.101 92.6675 172.602 93.8665C171.212 94.9787 169.619 95.8835 168.032 96.6835C164.69 98.3693 160.971 99.3111 157.218 99.2201C153.216 99.1227 149.156 99.5005 145.19 98.8211C141.13 98.1259 137.169 96.9745 133.124 96.203C131.308 95.8559 129.615 95.4771 127.962 94.621C126.285 93.7522 124.612 92.8643 123.077 91.7574C122.02 94.2887 121.451 96.9269 119.936 99.255C118.614 101.288 117.018 103.198 115.065 104.655C113.157 106.08 110.666 107.144 108.264 107.236C107.531 107.264 106.405 106.942 105.878 107.494C105.615 107.77 105.588 108.319 105.484 108.673C105.306 109.277 105.049 109.865 104.906 110.478C104.69 111.407 105.562 111.422 106.328 111.799C107.355 112.305 108.357 112.858 109.348 113.427C110.362 114.009 111.329 114.678 112.344 115.251C113.216 115.742 114.116 116.122 114.955 116.679C116.939 117.995 119.112 118.874 121.242 119.916C123.522 121.033 125.739 122.277 127.981 123.47C132.419 125.831 136.87 128.281 141.06 131.065C143.017 132.364 144.897 133.717 146.903 134.945C148.774 136.091 150.909 137.433 152.1 139.314C153.029 140.78 154.364 141.475 155.9 142.275C156.804 142.745 157.365 142.834 158.1 142.064C158.821 141.307 159.518 140.555 160.28 139.833C163.4 136.873 166.07 133.634 168.672 130.227C170.604 127.697 173.255 124.659 176.803 125.214C177.867 125.38 178.573 125.875 179.36 126.571C179.894 127.043 180.858 127.352 181.214 127.964C181.419 128.317 181.506 128.769 181.713 129.141C181.93 129.528 182.199 129.906 182.344 130.329C182.589 131.047 182.06 132.185 182.587 132.769C182.972 133.197 182.614 134.204 182.508 134.688C182.314 135.582 182.149 136.489 181.842 137.352C181.599 138.031 181.362 138.962 180.852 139.492C180.397 139.967 179.863 139.92 179.982 140.739C179.489 140.575 179.067 141.753 178.927 142.05C178.554 142.848 178.146 143.504 177.546 144.166C176.026 145.838 174.286 146.97 172.316 148.032C171.597 148.421 170.106 148.961 169.939 149.857C169.779 150.717 170.271 151.417 169.924 152.336C169.206 154.249 167.591 156.266 166.272 157.808C165.086 159.197 163.935 160.125 162.033 159.799C160.347 159.51 158.681 158.651 157.279 157.698C155.589 156.55 153.8 155.688 151.976 154.777C151.079 154.328 150.181 153.914 149.403 153.271C148.68 152.672 148.053 151.998 147.214 151.553C146.617 151.236 145.838 151.011 145.589 150.307C145.317 149.537 145.812 149.058 146.234 148.507C146.518 148.137 146.674 148.079 146.43 147.783C146.234 147.546 145.699 147.345 145.43 147.2C144.778 146.85 144.127 146.546 143.431 146.929C142.655 147.357 142.124 148.242 141.541 148.885C140.844 149.656 140.062 150.357 139.297 151.06C137.78 152.455 136.118 153.704 134.636 155.13C134.297 155.456 133.63 156.283 133.071 156.126C132.658 156.011 132.875 155.766 132.663 155.578C132.434 155.375 132.239 155.372 131.945 155.152C131.217 154.607 130.994 153.561 130.228 152.996C129.442 152.415 128.472 151.998 127.62 151.519C123.735 149.337 119.949 146.985 116.398 144.288C114.617 142.936 112.935 141.468 111.21 140.048C110.398 139.379 109.575 138.647 108.671 138.104C107.848 137.608 106.933 137.262 106.094 136.787C104.297 135.769 102.373 134.989 100.593 133.938C99.7566 133.444 99.1369 132.78 98.3584 132.23C97.6772 131.747 97.1095 131.461 96.6032 130.76C96.3616 131.29 95.7007 130.599 95.4623 130.436C95.2738 130.308 95.0333 130.218 94.8586 130.072C94.6838 129.924 94.5778 129.597 94.4444 129.494C94.1499 129.268 93.8067 129.319 93.4116 129.177C92.882 128.987 92.1839 128.483 91.7772 128.096C91.4964 127.83 91.9551 128.039 91.4795 127.712C91.2581 127.56 90.8789 127.518 90.63 127.358C90.0399 126.975 89.4976 126.482 88.9341 126.06C87.9119 125.295 86.591 124.599 86.0116 123.406C82.8974 125.961 79.8901 128.734 76.314 130.647C72.8598 132.493 68.8653 133.331 65.177 134.607C61.3816 135.917 57.5492 137.235 53.6914 138.346C51.8154 138.886 49.8812 139.274 47.9639 139.64C45.9969 140.014 44.0574 139.902 42.084 140.114C41.1137 140.218 40.1423 140.185 39.1731 140.278C38.2802 140.364 37.4137 140.591 36.5271 140.709C35.7453 140.813 34.864 140.725 34.112 140.938C33.5601 141.094 32.8313 141.646 32.4277 140.927C32.1322 141.37 32.0379 141.161 31.6524 141.133C31.2414 141.102 31.1174 141.12 30.7149 141.197C30.0603 141.322 29.3389 141.37 28.7828 140.857C28.5286 141.777 26.0658 140.94 25.7724 140.332C25.4408 141.306 22.4495 140.465 22.4061 139.551C22.369 138.776 22.8838 137.663 23.0967 136.936C23.4431 135.748 23.8721 134.588 24.3212 133.436C24.7957 132.218 25.283 131.004 25.7713 129.792C25.9864 129.258 26.1887 128.717 26.4344 128.197C26.5541 127.943 26.8666 127.562 26.8624 127.268C26.8465 126.407 25.3031 126.346 24.6506 126.131C24.157 125.968 23.656 125.797 23.1867 125.572C22.8467 125.408 22.4378 125.034 22.0618 124.982C21.1985 124.862 21.3944 125.838 21.3002 126.438C21.1805 127.209 20.7547 127.606 19.9369 127.612C18.9815 127.618 16.257 125.977 15.7433 127.227C15.5018 127.814 15.5674 128.939 15.4795 129.568C15.3344 130.601 15.3916 131.628 15.5335 132.657C15.7655 134.353 16.5324 136.497 15.6691 138.122C13.9457 141.368 7.97042 139.412 6.06269 137.369C3.25458 134.36 3.33614 129.852 4.68247 126.209C5.33603 124.438 6.28408 122.539 7.52342 121.098C8.07423 120.458 9.12185 119.841 9.30298 118.962C9.45446 118.231 8.88669 117.559 9.00638 116.811C9.14832 115.924 9.89934 115.386 10.5434 114.848C11.2139 114.287 11.8664 113.677 12.6301 113.243C14.398 112.24 16.4032 112.845 18.1605 113.583C20.082 114.388 21.923 115.469 23.6401 116.645C24.4907 117.228 25.211 117.752 26.2183 118.033C26.9916 118.249 27.7723 118.462 28.5477 118.665C29.2807 118.856 29.8982 118.999 30.4119 118.366C30.9776 117.669 31.1651 117.388 32.1449 117.358C33.1872 117.327 34.2306 117.385 35.2729 117.425C35.4932 117.433 35.9921 117.365 36.1659 117.548C36.3205 117.711 36.097 118.051 36.2411 118.155C36.4688 118.318 37.7601 116.495 37.8713 117.971C37.9412 117.255 38.6943 117.602 39.1138 117.696C39.2663 117.73 39.4189 117.77 39.5693 117.804C39.7335 117.749 39.8701 117.791 39.9781 117.93C40.1497 117.966 40.2673 117.9 40.3277 117.733C42.1507 117.706 43.9907 117.821 45.8179 117.811C47.9311 117.8 50.057 117.779 52.1512 117.474C52.9266 117.36 53.703 117.204 54.4795 117.109C54.8354 117.065 55.1341 117.103 55.4815 117.127C55.6086 117.15 55.723 117.203 55.8268 117.283C55.8798 117.179 55.9593 117.1 56.0641 117.046C57.3935 116.658 58.761 116.393 60.1126 116.054C61.0585 115.816 61.8519 115.632 62.7936 115.566L62.9716 115.554L63.3497 115.666C63.4048 115.531 63.4948 115.426 63.6198 115.351C63.927 115.225 64.1876 115.176 64.5191 115.142C65.8358 115.008 67.1281 115.022 68.3727 114.83C69.0284 114.729 71.4234 114.357 71.8651 115.007C72.2041 114.215 74.6436 115.293 75.3575 114.825C74.2495 113.315 73.7665 111.698 73.453 109.871C73.1108 107.882 72.8958 105.789 73.4011 103.806C73.8671 101.98 74.8819 100.106 76.2696 98.8211C77.6116 97.5777 77.9262 96.0919 78.8213 94.5585C80.6867 91.3627 83.7585 89.4102 87.1821 88.2313C89.0464 87.59 90.9414 87.0556 92.8216 86.4662C94.3491 85.9868 95.6276 85.3011 96.3998 83.8354C89.897 83.8354 83.6749 85.8513 77.7207 88.2959C74.758 89.5118 71.809 90.7764 68.8844 92.078C67.3951 92.7405 65.9216 93.4485 64.5329 94.3035L64.1484 94.5395C63.7014 94.8167 63.2565 95.1004 62.8392 95.4189C62.7396 95.4951 62.1962 95.8115 62.1644 95.9173C61.9155 96.7396 63.283 98.0624 63.6389 98.7672C64.1219 99.728 64.5954 100.851 64.6547 101.934C64.7257 103.229 63.8995 103.877 62.6252 103.611C61.0681 103.286 59.8891 101.99 58.6519 101.087C58.3765 101.915 58.7324 102.867 58.9252 103.673C59.1911 104.78 59.4538 105.903 59.6423 107.025C59.9082 108.611 59.7196 110.401 58.1392 111.233C54.114 113.351 52.0622 107.762 51.2445 104.971C50.6926 105.37 50.7561 106.828 50.6545 107.438C50.4596 108.612 50.2361 109.872 49.7138 110.95C49.3145 111.775 48.6355 112.739 47.6356 112.828C46.5519 112.924 45.678 111.993 45.1929 111.134C44.3529 109.649 44.1559 107.994 44.0892 106.329C44.0743 105.963 44.1813 102.568 43.8095 102.471C42.7195 104.423 42.1115 106.594 40.8298 108.456C39.707 110.088 38.0185 111.195 36.4995 109.308C34.149 106.386 34.9011 102.164 35.865 98.8772C36.4243 96.966 37.187 95.1406 38.2145 93.4315C38.6403 92.7225 39.1562 92.1902 39.6858 91.5658C40.1212 91.0494 40.2896 90.8081 40.101 90.2134C39.9919 89.8674 39.8881 89.8547 39.9856 89.4716C40.0565 89.1975 40.2673 88.8589 40.387 88.6038C40.7324 87.8747 41.0936 87.1551 41.5151 86.4672C42.4176 84.9973 43.6453 83.7751 44.9366 82.6417L45.0658 82.5285L45.0594 82.5338C44.9768 82.61 45.5806 82.1507 45.5679 82.1496L45.5647 82.1507L45.5806 82.1412C45.803 81.9962 45.8878 81.5178 46.1409 81.9443L46.16 81.9761C46.1992 81.3485 46.7288 80.9909 47.1822 80.6395C47.3517 80.5083 47.5212 80.3263 47.7267 80.248C47.8686 80.1929 48.2012 80.2469 48.305 80.1707C48.5063 80.0226 48.6048 79.7297 48.7955 79.5555C48.9872 79.3812 49.2509 79.2997 49.4692 79.1668C50.0041 78.8409 50.4945 78.442 51.0157 78.0947C52.1226 77.3566 53.2783 76.6916 54.4636 76.0858C56.955 74.8108 59.5989 73.785 62.246 72.8802C64.5785 72.0827 66.9957 71.3439 69.3917 70.7631C71.8503 70.1666 74.4349 70.3151 76.9454 70.07C82.0648 69.57 87.467 69.6709 92.5833 70.1698C95.0905 70.4144 97.584 70.7967 100.056 71.2748C102.456 71.7383 104.95 72.2659 107.08 73.5189C107.534 73.7859 108.355 74.6423 108.886 74.6108C109.334 74.5844 109.723 73.7584 109.934 73.4329C110.434 72.6599 111.063 71.9495 111.488 71.1348C112.011 70.1316 112.279 69.004 112.673 67.9484C110.848 68.1998 108.931 68.3628 107.179 67.664C105.592 67.0312 104.522 65.7665 103.338 64.5986C102.089 63.3685 100.752 62.535 98.9664 62.422C96.9411 62.2937 95.1138 63.02 93.2506 63.697C89.3133 65.1273 85.3771 66.6988 81.3254 67.7777C79.3456 68.3049 77.3097 68.7212 75.2579 68.815C74.2135 68.8624 73.1564 68.8155 72.1225 69.0083C71.6946 69.088 71.5664 69.1548 71.2275 68.9657C71.273 68.9916 70.7963 68.1988 70.7021 68.5073C70.6099 68.8047 70.7593 69.037 70.4987 69.2611C70.1926 69.5242 69.5284 69.3961 69.1736 69.3659C68.6418 69.3206 68.2192 69.1404 67.7075 69.0205C66.9163 68.8352 66.0297 68.9573 65.2246 68.856C64.8496 68.809 64.5785 68.7146 64.2416 68.6111C63.8889 68.5027 64.1156 68.5164 63.7522 68.4702C63.4302 68.4292 63.248 68.4716 62.8582 68.3449C62.5097 68.2316 62.1877 68.1537 61.8307 68.0706C61.5045 67.9948 61.2407 67.8583 60.9378 67.7695C61.3191 67.8812 60.4473 67.536 60.4855 67.6278L60.4887 67.6337L60.4855 67.6306C60.3912 67.5241 60.2811 67.31 60.0936 67.2767L60.0554 67.2726C60.6719 68.2181 57.9623 67.219 57.7822 67.1644C56.2844 66.7092 54.7506 65.6759 53.1861 65.5808C51.6586 65.4878 50.1767 66.5281 48.9469 67.2996C47.4618 68.2313 45.9831 69.1707 44.5033 70.1119C41.2334 72.1922 37.6923 74.0529 34.0219 75.3173C32.236 75.9323 30.4067 76.4255 28.5964 76.9581C27.7797 77.1981 26.8888 77.2967 26.1082 77.6411C25.5807 77.8739 24.8212 78.5703 24.2884 77.9534C24.0733 78.4932 23.031 78.4656 22.5893 78.4823C22.5215 78.4848 22.6306 78.6143 22.4749 78.6035C22.2461 78.5873 22.1847 78.3651 22.0046 78.3187C21.6381 78.2246 21.6 78.3656 21.2377 78.5056C20.7663 78.6873 20.8553 78.53 20.439 78.4871C20.1996 78.4624 19.9475 78.5934 19.7081 78.6008C19.6107 78.604 19.4835 78.4424 19.3426 78.4447C19.2081 78.4473 18.8914 78.6085 18.7124 78.6353C18.2643 78.7026 17.7368 78.658 17.2845 78.6379C16.6384 78.609 10.162 78.032 10.6271 76.6793C9.84744 77.3976 8.04033 76.2235 7.22788 75.8505C6.92599 75.7117 6.90585 75.5768 6.73531 75.4203C6.78297 75.2322 6.70249 75.1483 6.49382 75.1684C6.44933 75.1633 6.40484 75.1584 6.36035 75.1533C6.00338 74.9715 5.87627 74.9756 5.59238 74.6569C5.21317 74.2313 4.51617 73.8466 4.31915 73.2922C4.26618 73.1433 4.32233 72.8863 4.26936 72.7694C4.20051 72.6193 4.01938 72.6366 3.97807 72.515C3.96324 72.4724 4.03315 72.1934 4.02785 72.1888C3.70054 71.9147 3.2387 72.0447 2.85842 71.7157C1.80975 70.8058 1.17631 68.9807 0.874423 67.6846C0.0852729 64.295 -0.184842 60.8865 1.34791 57.6804C2.09257 56.1215 3.00459 54.6388 4.01195 53.2363C4.29053 52.8483 4.58183 52.3361 4.93774 52.0087C5.09663 51.8616 5.30639 51.8315 5.38371 51.7435C5.79894 51.2739 6.01503 50.6699 6.57114 50.213C7.19081 49.704 7.80199 49.1808 8.48627 48.7598C9.11547 48.3733 9.89721 48.1238 10.4734 47.7623C10.6313 47.6631 10.5773 47.5065 10.7489 47.3886C10.9311 47.2636 11.1662 47.2538 11.3717 47.193C11.6164 47.1211 11.9193 46.9886 12.1736 46.9668C12.6471 46.9257 12.807 47.0613 13.164 47.3977C13.164 46.1033 15.5494 45.9232 16.5144 45.9209C16.9593 45.9196 19.1965 45.7202 19.1531 46.4015C19.6626 45.7285 21.2122 46.2292 21.8859 46.4311C22.6952 46.673 23.2069 47.2651 23.7248 47.8976C23.8212 47.6971 23.9176 47.4965 24.014 47.2961C24.1612 47.3988 24.6591 47.5697 24.4992 47.8408C25.0818 47.3272 24.7534 47.7503 25.2523 47.8417C25.4715 47.8818 25.6601 47.8008 25.891 47.7735C25.9101 48.0779 25.7777 48.1766 25.5891 48.3888C26.0415 48.3973 27.7786 48.2169 26.4927 48.7846C26.6643 49.0918 27.4799 48.9839 27.767 49.0252C27.9184 49.0471 28.2977 49.055 28.3877 49.166C28.4481 49.2391 28.3432 49.4411 28.3559 49.459C28.4788 49.625 28.2246 49.7102 28.4756 49.7583C28.5371 49.7701 28.733 49.5738 28.7775 49.5746C29.1038 49.5797 28.875 49.515 29.2203 49.5647C29.3431 49.5823 29.5773 49.7213 29.733 49.7534C32.0951 50.2364 34.9827 48.4194 36.6987 47.0127C38.7494 45.3319 40.5343 43.5354 42.9992 42.4444C45.3836 41.3891 48.0402 40.557 50.575 39.9535C55.2622 38.8375 59.9166 38.8179 64.5287 40.3607ZM124.192 147.91C124.268 147.951 124.343 147.991 124.419 148.031C124.527 147.976 124.635 147.921 124.744 147.867C124.434 147.72 124.413 147.656 124.192 147.91ZM149.363 141.216C148.794 141.574 148.307 142.384 147.809 142.866C147.111 143.543 146.381 144.188 145.652 144.832C146.492 145.123 147.712 146.302 148.62 145.769C149.071 145.504 149.355 144.727 149.64 144.314C150.081 143.675 150.597 143.076 151.115 142.499C151.649 141.904 149.958 140.841 149.363 141.216ZM96.0979 128.981C96.3235 129.075 96.8171 129.618 96.5883 129.809C96.3563 129.541 96.0449 129.347 96.0979 128.981ZM23.7863 120.387C23.3753 120.743 22.9113 121.483 22.6253 121.95C22.3022 122.476 22.2906 122.742 22.7831 123.092C23.7354 123.77 25.1188 123.969 26.2226 124.286C26.8115 124.455 27.5403 124.88 28.0413 124.343C28.5371 123.811 28.5381 122.821 28.7616 122.162C28.9417 121.627 29.1356 121.098 29.323 120.567C28.2828 120.671 27.2363 120.678 26.213 120.445C25.4705 120.277 24.443 119.82 23.7863 120.387ZM41.7609 91.9606C40.9209 93.1013 40.172 94.3088 39.511 95.5618C38.4168 97.6348 37.5673 99.836 37.0281 102.118C36.6468 103.735 36.0885 106.008 36.9603 107.559C38.8596 110.938 42.7132 101.184 43.3011 100.164C43.6517 99.5566 44.1951 98.9047 44.7967 99.6857C45.2903 100.326 45.1294 101.354 45.1527 102.108C45.2205 104.351 44.9069 107.038 45.8052 109.148C46.0996 109.842 46.8803 110.842 47.7605 110.527C48.5508 110.245 48.9448 108.886 49.1895 108.185C49.9617 105.972 50.5094 103.265 50.5348 100.921C50.539 100.451 50.1164 97.3385 51.2063 98.0264C51.9192 98.4772 51.8906 100.661 51.9595 101.377C52.2307 104.171 52.7825 108.914 56.2505 109.383C57.0143 109.487 57.8786 109.306 58.3256 108.62C58.8817 107.769 58.3225 106.622 58.1286 105.726C57.7928 104.182 57.4126 102.59 57.3787 100.999C57.3585 100.024 57.4549 98.4042 58.8245 98.7809C60.4759 99.2338 61.174 101.392 63.0288 101.465C63.0298 101.03 62.7894 100.676 62.586 100.313C61.9261 99.1397 60.7238 98.1354 60.317 96.838C60.1846 96.4126 60.3224 95.7723 60.0586 95.4168C59.8097 95.0824 59.2472 94.9967 58.8712 94.9205C56.366 94.4157 53.9043 93.731 51.4118 93.1479C48.7467 92.5257 46.2765 91.8526 43.7809 90.7563C42.656 90.2621 42.3996 91.0949 41.7609 91.9606ZM101.513 109.456C101.88 109.631 102.245 109.812 102.618 109.977C102.941 110.121 103.068 110.007 103.197 109.705C102.963 109.656 101.648 109.19 101.513 109.456ZM85.733 71.6173C80.9674 71.7569 76.3088 71.8177 71.612 72.7217C69.3653 73.1541 67.1631 73.655 64.9609 74.2689C64.0298 74.5283 63.2099 74.7987 62.3985 75.3159C62.0966 75.5081 61.2979 76.1116 61.1751 75.4219C60.7736 75.806 59.9919 76.9787 59.35 76.3272C59.2377 76.7982 58.887 76.7836 58.5449 76.9437C58.4252 77 58.3595 77.1916 58.2038 77.2611C58.1657 77.2784 58.1519 77.0092 58.0958 77.0048C57.8913 76.9886 57.7303 77.4187 57.6127 77.5283C57.3299 77.7912 57.0651 77.9115 56.6901 78.0069C56.527 78.0613 56.3607 78.0961 56.1891 78.1116C55.9878 78.194 55.8682 78.1348 55.8279 77.9337C55.5504 77.9383 55.347 78.0391 55.0557 78.1706C55.6838 78.3144 54.6278 78.4725 54.4879 78.4884C54.4699 78.957 54.8714 78.6601 55.1298 78.7572C55.0101 79.3454 53.9191 79.7943 53.47 80.0829C53.3937 79.9197 53.3174 79.7566 53.2401 79.5939C53.1162 79.7138 53.0198 79.8518 52.9509 80.0077C52.9054 80.1972 52.7709 80.2628 52.5484 80.2035C52.3397 80.3686 52.309 80.2924 52.1809 80.5252C52.0484 80.7654 52.4393 81.2342 51.8716 81.0321C51.8716 81.8321 51.1279 81.3475 51.2582 81.1401C50.6958 81.0861 50.4564 82.1147 50.5189 82.5158C50.2509 82.2491 50.0856 82.283 49.8155 82.4914L49.7912 82.5094L49.806 82.4999C50.0136 82.3592 49.7996 82.9338 49.8187 82.9274L49.8208 82.9243C49.2499 83.6767 49.3039 82.8343 49.4797 82.3909C49.0931 82.5465 49.02 82.9655 48.7096 83.2026C48.4332 83.4132 48.3548 83.3147 48.1175 83.3465C47.751 83.3952 47.8612 83.0936 47.7012 83.4968C47.6324 83.6682 47.7362 83.974 47.7362 84.1603C47.8951 83.9433 47.8347 83.6005 48.1218 83.4767C48.036 84.1052 46.8125 86.2651 46.2977 84.9921C45.7967 85.3392 46.3486 85.7201 46.0202 86.1858C45.7755 85.9508 45.7172 85.5751 45.7448 85.2545C45.5912 85.4587 45.5954 85.7159 45.4757 85.9222C45.3507 86.1381 45.2194 86.1551 45.159 86.3889C45.0669 86.7445 45.3804 86.5699 45.2151 86.9477C45.1315 87.1361 44.7438 87.3022 44.5902 87.4091C44.0553 87.7816 43.5129 88.2133 44.033 88.8335C44.8476 89.8039 46.9926 89.915 48.144 90.0779C50.6004 90.4251 52.9944 91.0029 55.4148 91.5383C56.8723 91.86 58.3002 92.2188 59.7292 92.6484C60.7556 92.9574 62.174 93.149 62.7152 94.2104C65.5774 91.4769 69.3928 90.0515 72.9233 88.4123C76.7483 86.6366 80.6983 84.9878 84.75 83.8015C88.343 82.7486 92.0272 82.3496 95.7388 81.9867C96.7176 81.8914 98.2249 81.6459 99.0967 82.247C99.6348 82.6174 99.6602 83.1782 99.2481 83.6745C99.0246 83.9433 98.7842 83.8735 98.6475 84.3518C98.5416 84.7222 98.5999 85.0026 98.6963 85.3688C98.4495 85.1751 98.0056 85.2905 97.8796 84.9487L97.8669 84.9106L97.8552 84.9518C97.6857 85.6185 98.8668 85.7106 98.5045 86.5106L98.4812 86.5593C98.3562 86.8038 98.3552 86.0196 98.245 86.0143C97.9452 85.9984 97.7005 86.6979 97.5777 86.8916C98.1348 86.8916 97.9219 87.2958 97.6232 87.5001C97.4103 87.6461 97.0501 87.6885 96.8023 87.8091C96.3076 88.0504 95.8733 88.4038 95.3659 88.6334C94.8109 88.8853 94.3226 88.9012 93.7707 89.0504C93.6849 89.0737 93.347 89.1996 93.312 89.2028C93.2654 89.207 93.2548 89.3499 93.2156 89.3552C92.8629 89.4049 92.596 89.0779 92.2549 89.2113C92.1246 89.2631 92.1924 89.5816 92.079 89.6536C91.9541 89.734 91.5992 89.6314 91.4477 89.6229C91.0833 89.6028 91.0272 89.5541 90.7391 89.7234C90.2423 90.0134 89.9891 90.4049 89.3197 90.4759C88.7964 90.5319 88.4595 90.4325 87.9606 90.6293C87.4564 90.8272 86.9798 90.8716 86.4883 91.0039C86.4258 91.0208 86.4088 91.2336 86.359 91.2484C86.1959 91.2971 86.0021 91.26 85.8463 91.3076C85.4894 91.4177 85.2002 91.515 84.8686 91.7119C83.4132 92.5765 81.8116 93.8739 80.6697 95.1205C80.1486 95.6887 78.6953 97.1216 79.1687 97.9449C79.4727 98.474 80.5225 98.7301 81.0468 98.9534C81.8275 99.2868 82.6347 99.5291 83.4249 99.837C84.4058 100.221 85.2966 100.817 86.2976 101.15C87.2636 101.473 88.2985 101.537 89.2964 101.709C93.616 102.453 97.8467 103.65 102.169 104.392C104.539 104.799 106.959 105.285 109.366 104.902C111.487 104.563 113.519 103.626 115.213 102.315C118.297 99.9323 120.446 96.547 121.527 92.8241C121.749 92.0548 121.797 90.1309 122.516 89.66C123.116 89.2684 123.431 90.1319 123.82 90.4737C124.452 91.0272 125.379 91.242 126.14 91.5584C128.024 92.3415 129.735 93.167 131.725 93.6971C133.744 94.2337 135.79 94.6538 137.831 95.0961C141.966 95.9935 145.914 96.8412 150.165 96.8549C154.372 96.8687 158.594 97.0274 162.754 96.2528C166.393 95.5755 170.053 93.7257 172.774 91.2134C174.148 89.9457 175.207 88.3435 176.286 86.8302C176.867 86.0175 177.405 85.1762 177.857 84.2862C178.19 83.6322 178.762 82.6851 178.82 81.9443C178.872 81.2808 178.484 81.375 177.822 81.3073C176.803 81.2036 175.78 81.1379 174.76 81.0332C172.704 80.8226 170.654 80.5538 168.598 80.3347C166.501 80.1125 164.417 79.8101 162.379 79.2548C161.77 79.0888 161.32 78.8794 160.89 79.471C160.612 79.8518 160.618 80.721 160.038 80.0829C158.926 81.4861 157.299 82.3274 155.779 83.2079C154.134 84.1613 152.535 85.2101 150.792 85.9794C147.035 87.6387 142.895 87.5075 138.909 86.9752C134.858 86.4355 130.754 85.7392 126.948 84.1984C125.201 83.4925 123.701 82.4174 122.136 81.3919C121.398 80.9094 120.634 80.5115 119.851 80.1093C118.968 79.6557 118.428 78.9831 117.631 78.4587C117.092 80.2088 115.023 80.811 113.389 80.8893C111.348 80.9866 109.699 80.013 108.462 78.4319C107.434 77.1194 107.234 75.156 105.644 74.4375C103.829 73.618 101.702 73.2923 99.7608 72.9111C95.2007 72.0161 90.38 71.4808 85.733 71.6173ZM109.923 85.0735C110.437 85.3032 111.929 87.0175 110.744 87.0419C109.992 87.0577 109.55 86.1159 108.72 86.2588C108.347 86.3223 107.791 86.4514 107.699 86.7382C107.471 87.4535 108.524 87.9139 108.98 88.1128C109.681 88.4186 110.258 88.7266 110.641 89.4271C111.228 90.5023 111.383 92.2421 110.007 92.7236C108.985 93.0812 107.707 92.8029 106.698 92.5225C105.847 92.2854 105.198 91.4061 105.59 90.533C105.7 90.2854 105.998 89.8494 106.343 90.0134C106.618 90.1425 106.485 90.3891 106.569 90.6092C106.907 91.4928 109.434 92.7511 110.016 91.4166C110.725 89.7891 108.027 89.2991 107.204 88.7552C106.14 88.0525 106.111 86.8493 106.924 85.9297C107.635 85.1243 108.89 84.6122 109.923 85.0735ZM114.381 90.588C114.338 90.9722 114.285 91.369 114.219 91.7489C114.161 92.0791 114.165 92.4262 113.784 92.5458C113.534 92.6241 113.29 92.3585 113.049 92.5352C112.781 92.731 112.909 91.3076 112.921 91.2272C113.001 90.696 113.145 89.6187 113.655 89.2896C114.52 88.7319 114.433 90.1213 114.381 90.588ZM114.326 88.3636C113.408 88.9435 113.171 87.298 113.535 86.7625C114.441 85.4344 115.772 87.4493 114.326 88.3636ZM95.6922 87.5551C95.9549 87.7498 95.868 87.6419 95.868 88.1604C95.563 88.1731 95.6096 87.7562 95.6922 87.5551ZM96.7281 87.1064C96.6402 87.3128 97.0375 87.5593 97.1646 87.5911C97.173 87.5255 96.9792 86.5244 96.7281 87.1064ZM46.964 84.1C46.7204 84.4534 46.8581 84.6704 47.2458 84.5307L47.2775 84.519L46.964 84.1ZM51.8652 80.7051L51.6332 80.8025C51.5241 80.9072 51.415 81.012 51.3048 81.1157C51.6247 81.0543 51.8461 81.102 51.8652 80.7051ZM53.1511 80.2088C52.9912 79.8829 52.4425 80.5284 52.4298 80.6797C52.558 80.6046 53.3376 80.5877 53.1511 80.2088ZM53.667 79.0577C53.5335 79.2453 53.56 79.3958 53.7486 79.509C53.9043 79.3008 54.0229 79.0734 54.1034 78.8263C53.8948 78.6753 53.7411 78.8797 53.667 79.0577ZM158.822 55.8084C158.42 55.9888 158.629 56.6097 158.669 56.9463C158.856 58.5491 159.153 60.1359 159.337 61.7384C159.594 63.9921 159.631 66.2731 160.054 68.5068C160.441 70.5437 161.092 72.5219 161.435 74.5683C161.666 75.9373 161.227 77.5193 162.861 77.9345C164.33 78.3081 166.006 78.3283 167.513 78.4926C169.454 78.704 171.398 78.808 173.348 78.9023C174.27 78.9469 175.222 78.9584 176.136 79.0982C176.674 79.1805 177.343 79.5371 177.757 79.0393C178.161 78.5554 178.162 77.3235 178.287 76.7056C178.453 75.8899 178.602 75.0698 178.683 74.2407C178.868 72.3633 178.596 70.5043 178.348 68.6455C178.08 66.6419 177.874 64.6297 177.598 62.628C177.419 61.3376 177.439 59.2541 176.55 58.2126C175.74 60.6304 175.52 63.1974 175.48 65.7326C175.471 66.2768 175.115 69.4046 174.167 67.8798C173.904 67.4556 173.9 67.2135 173.49 66.8549C173.068 66.4853 172.921 66.1898 172.778 65.6302C172.519 64.6165 172.478 63.7251 171.919 62.8137C170.781 60.9585 170.319 58.6616 168.625 57.1638C168.608 58.9047 168.357 60.7875 168.68 62.5071C168.884 63.5877 169.719 65.1431 169.03 66.212C168.687 66.7452 168.489 66.5862 168.085 66.3184C167.826 66.1467 167.866 66.0667 167.541 65.8948C167.231 65.731 166.987 65.7386 166.694 65.5099C165.655 64.7002 165.573 63.2933 165.233 62.1285C164.484 59.5568 161.894 57.9686 159.91 56.378C159.694 56.205 159.154 55.6598 158.822 55.8084ZM119.676 61.0183C118.156 61.6252 116.587 61.8563 114.971 61.5135C114.973 61.8683 115.485 62.4449 115.089 62.6488C114.995 62.6975 114.456 62.4646 114.351 62.4374C113.769 62.2864 112.983 62.0267 112.373 62.1505C111.729 62.2816 111.752 62.6989 112.173 63.1715C112.764 63.8348 114.248 63.8618 114.265 64.9624C114.273 65.4384 113.979 66.0346 113.916 66.5254C113.823 67.2596 113.72 67.9877 113.547 68.7086C113.251 69.9479 112.77 71.1268 112.198 72.2634C111.705 73.2427 111.106 74.2631 110.187 74.903C109.589 75.3201 109.82 75.1318 109.937 75.7465C110.016 76.1583 110.002 76.4649 109.47 76.3633C109.368 76.332 109.267 76.3008 109.165 76.2695C110.413 78.3125 113.568 79.6003 115.728 78.237C114.817 77.5033 116.053 76.2242 116.576 75.6823C117.357 74.8705 118.177 73.9364 119.015 73.1952C120.299 72.0607 121.979 72.6128 123.497 72.1355C125.034 71.6525 126.152 70.5626 127.146 69.3446C128.03 68.2598 129.204 66.9323 129.324 65.464C129.347 65.1765 129.207 64.8394 129.258 64.5675C129.309 64.2902 129.477 64.2543 129.565 64.0727C129.744 63.6991 129.789 63.3145 129.817 62.8869C129.91 61.4913 129.466 61.2721 128.154 60.9116C127.39 60.7012 126.615 60.5362 125.849 60.3309C125.118 60.135 124.467 59.7579 123.747 59.5476C122.23 59.1048 121.012 60.4854 119.676 61.0183ZM123.586 69.7887C124.791 70.52 122.89 70.9883 122.188 70.665C117.356 67.7438 122.912 69.3804 123.586 69.7887ZM125.858 63.7082C126.952 65.0154 128.17 67.6725 125.772 68.2102C125.032 68.3762 123.887 68.6444 123.142 68.441C122.079 68.1502 122.357 66.764 123.417 66.7031C124.045 66.667 125.487 67.1637 125.86 66.4346C126.062 66.0392 125.603 65.4108 125.533 65.0162C125.443 64.5084 125.524 64.1026 125.858 63.7082ZM60.4887 67.6337L60.4897 67.6351C60.4929 67.6405 60.4992 67.647 60.5077 67.6546L60.512 67.658L60.5045 67.6504L60.4887 67.6337ZM128.026 64.1755C128.787 64.1737 128.41 65.7878 128.033 66.0634C127.356 66.558 127.066 64.1775 128.026 64.1755ZM123.014 65.3925C122.13 65.4994 122.329 63.3894 123.133 63.3246C124.188 63.2393 124.034 65.269 123.014 65.3925ZM130.647 61.8904C130.541 62.1054 130.621 64.1989 130.875 64.2385C130.942 63.7271 130.905 63.2129 130.898 62.6993L130.897 62.5695C130.903 62.5776 130.944 61.2837 130.647 61.8904Z" fill="#242A2B"/>
<path d="M116.093 89.9799C116.093 92.8481 113.459 95.2476 110.113 95.2476C106.767 95.2476 104.133 92.8481 104.133 89.9799C104.133 87.1118 106.767 84.7122 110.113 84.7122C113.459 84.7122 116.093 87.1118 116.093 89.9799Z" fill="#FDF074" stroke="#EABB76" strokeWidth="0.759075"/>
<path fillRule="evenodd" clipRule="evenodd" d="M65.2251 142.176C64.563 142.142 63.2359 141.997 63.2983 141.064C63.3782 139.876 65.7259 140.164 66.4965 140.051C69.8541 139.554 72.9553 138.056 75.6723 136.069C77.0231 135.081 78.2413 133.92 79.6428 133.001C79.9151 132.822 80.5807 132.301 80.9345 132.576C81.3595 132.906 80.8793 133.699 80.6428 133.999C79.728 135.157 78.2666 136.17 77.1383 137.115C75.6321 138.379 74.0182 139.53 72.265 140.43C70.1469 141.518 67.63 142.293 65.2251 142.176Z" fill="#242A2B"/>
<path fillRule="evenodd" clipRule="evenodd" d="M137.142 120.572C137.516 121.119 138.201 122.264 137.42 122.777C136.423 123.431 135.236 121.388 134.679 120.843C132.255 118.469 129.187 116.905 125.961 115.942C124.357 115.463 122.695 115.194 121.115 114.633C120.808 114.524 119.99 114.309 119.996 113.862C120.002 113.324 120.926 113.227 121.308 113.234C122.784 113.263 124.474 113.815 125.91 114.142C127.828 114.578 129.721 115.169 131.498 116.021C133.645 117.05 135.784 118.586 137.142 120.572Z" fill="#242A2B"/>
<path fillRule="evenodd" clipRule="evenodd" d="M76.2634 143.006C75.6931 143.188 74.1704 143.916 73.9115 142.987C73.618 141.934 76.2238 141.272 76.888 140.887C77.2381 140.684 78.7622 139.644 79.1711 140.036C80.0223 140.853 76.7066 142.733 76.2634 143.006Z" fill="#242A2B"/>
<path fillRule="evenodd" clipRule="evenodd" d="M131.138 111.281C131.627 111.625 133.127 112.398 132.543 113.165C131.88 114.034 129.778 112.36 129.07 112.063C128.696 111.907 126.946 111.322 127.012 110.759C127.149 109.588 130.652 111.093 131.138 111.281Z" fill="#242A2B"/>
</svg>
