<svg width="549" height="229" viewBox="0 0 549 229" fill="none" xmlns="http://www.w3.org/2000/svg">
<path d="M456.979 163.903C479.412 241.882 540.225 233.862 567.828 220.104V170.928C533.946 176.49 464.341 171.806 456.979 108.581C449.617 45.3548 373.294 41.2568 336.052 47.1111C308.45 51.4502 266.213 90.8423 230.461 9.35119C185.771 -92.5127 108.22 -50.3621 85.8751 -32.3603C67.4733 -17.5353 21.1766 -38.3609 -0.00012207 -50.3621C7.71112 -18.0467 46.4426 10.1284 76.2361 -2.96256C114.208 -19.6472 194.884 -34.3998 213.812 40.0662C237.471 133.149 313.707 104.19 336.052 94.5304C358.398 84.8709 428.938 66.43 456.979 163.903Z" fill="#FEB048"/>
<path d="M463.14 135.294C485.572 213.103 546.386 205.1 573.989 191.373V142.303C540.107 147.853 470.502 143.18 463.14 80.0907C455.777 17.0018 387.78 -5.72569 348.347 10.9228C322.607 21.7902 272.374 62.3908 236.622 -18.9238C187.91 -129.713 115.695 -96.4707 93.3504 -78.5078C74.9486 -63.7149 27.3375 -66.5326 6.16077 -78.5079C13.872 -46.2624 51.2891 -13.2546 81.0825 -26.3172C119.055 -42.9657 201.045 -72.1989 219.973 2.10582C243.632 94.9868 319.868 75.7095 342.213 66.0709C364.558 56.4324 435.099 38.0314 463.14 135.294Z" fill="#6DB8C2"/>
<path d="M463.14 93.2873C485.572 170.985 546.386 162.994 573.989 149.286V100.287C540.107 105.829 470.502 101.162 463.14 38.1637C455.777 -24.8347 379.454 -28.9179 342.213 -23.0847C314.611 -18.7612 272.374 20.4892 236.622 -60.7088C191.932 -162.206 114.381 -120.207 92.0359 -102.27C73.6341 -87.4985 27.3374 -108.249 6.16071 -120.207C13.8719 -88.0081 51.289 -55.0476 81.0825 -68.0915C119.055 -84.7161 201.045 -113.907 219.973 -39.7093C243.632 53.0384 319.868 33.7888 342.213 24.1641C364.558 14.5393 435.099 -3.83524 463.14 93.2873Z" fill="#F36A22"/>
<path d="M463.14 65.3291C485.572 143.308 546.386 135.287 573.989 121.53V72.3542C540.107 77.9158 470.502 73.2323 463.14 10.0065C455.777 -53.2193 379.454 -57.3173 342.213 -51.4631C314.611 -47.1239 272.374 -7.73183 236.622 -89.2229C191.932 -191.087 114.381 -148.936 92.036 -130.934C73.6342 -116.109 27.3375 -136.935 6.16077 -148.936C13.872 -116.621 52.6035 -98.0853 82.3969 -111.176C120.369 -127.861 201.045 -142.614 219.973 -68.1476C243.632 24.9349 319.868 5.61581 342.213 -4.04369C364.558 -13.7032 435.099 -32.1441 463.14 65.3291Z" fill="#FEB048"/>
<path d="M469.301 36.7193C491.733 114.529 552.547 106.526 580.15 92.7984V43.7292C546.268 49.2787 476.663 44.6054 469.301 -18.4835C461.938 -81.5725 393.941 -104.3 354.508 -87.6515C328.768 -76.784 278.535 -36.1834 242.783 -117.498C194.071 -228.287 121.856 -195.045 99.5113 -177.082C81.1095 -162.289 33.4984 -165.107 12.3217 -177.082C20.0329 -144.837 57.45 -111.829 87.2434 -124.891C125.215 -141.54 207.206 -170.773 226.133 -96.4684C249.793 -3.58745 326.029 -22.8647 348.374 -32.5033C370.719 -42.1419 441.26 -60.5428 469.301 36.7193Z" fill="#6DB8C2"/>
<path d="M469.301 -5.28677C491.733 72.4113 552.547 64.4199 580.15 50.7119V1.71307C546.268 7.25459 476.663 2.58803 469.301 -60.4104C461.938 -123.409 385.615 -127.492 348.374 -121.659C320.771 -117.335 278.535 -78.0849 242.783 -159.283C198.092 -260.78 120.542 -218.781 98.1968 -200.844C79.795 -186.073 33.4983 -206.823 12.3216 -218.781C20.0328 -186.582 57.4499 -153.622 87.2433 -166.666C125.215 -183.29 207.206 -212.482 226.133 -138.283C249.793 -45.5357 326.029 -64.7853 348.374 -74.41C370.719 -84.0348 441.26 -102.409 469.301 -5.28677Z" fill="#F36A22"/>
<path d="M469.301 -33.245C491.733 44.7336 552.547 36.7133 580.15 22.9558V-26.2199C546.268 -20.6583 476.663 -25.3418 469.301 -88.5676C461.938 -151.793 385.615 -155.891 348.374 -150.037C320.771 -145.698 278.535 -106.306 242.783 -187.797C198.093 -289.661 120.542 -247.51 98.1969 -229.509C79.795 -214.683 33.4984 -235.509 12.3217 -247.51C20.0329 -215.195 58.7644 -196.659 88.5578 -209.75C126.53 -226.435 207.206 -241.188 226.133 -166.722C249.793 -73.6392 326.029 -92.9583 348.374 -102.618C370.719 -112.277 441.26 -130.718 469.301 -33.245Z" fill="#FEB048"/>
<path d="M475.461 -61.8548C497.894 15.955 558.708 7.95203 586.311 -5.77567V-54.8449C552.429 -49.2954 482.824 -53.9687 475.461 -117.058C468.099 -180.147 400.102 -202.874 360.669 -186.226C334.929 -175.358 284.696 -134.758 248.944 -216.072C200.232 -326.861 128.017 -293.619 105.672 -275.656C87.2704 -260.863 39.6592 -263.681 18.4825 -275.656C26.1938 -243.411 63.6108 -210.403 93.4043 -223.466C131.376 -240.114 213.367 -269.347 232.294 -195.042C255.954 -102.162 332.19 -121.439 354.535 -131.077C376.88 -140.716 447.421 -159.117 475.461 -61.8548Z" fill="#6DB8C2"/>
</svg>
