<svg width="549" height="227" viewBox="0 0 549 227" fill="none" xmlns="http://www.w3.org/2000/svg">
<path d="M91.6805 161.903C69.2477 239.882 8.43405 231.862 -19.1687 218.104V168.928C14.7134 174.49 84.3182 169.806 91.6805 106.581C99.0427 43.3548 175.366 39.2568 212.607 45.1111C240.21 49.4502 282.446 88.8423 318.198 7.35119C362.888 -94.5127 440.439 -52.3621 462.784 -34.3603C481.186 -19.5353 527.483 -40.3609 548.659 -52.3621C540.948 -20.0467 502.217 8.12843 472.423 -4.96256C434.451 -21.6472 353.775 -36.3998 334.848 38.0662C311.188 131.149 234.952 102.19 212.607 92.5304C190.262 82.8709 119.721 64.43 91.6805 161.903Z" fill="#FEB048"/>
<path d="M85.5196 133.294C63.0868 211.103 2.27316 203.1 -25.3296 189.373V140.303C8.5525 145.853 78.1573 141.18 85.5196 78.0907C92.8819 15.0018 160.879 -7.72569 200.312 8.92277C226.052 19.7902 276.285 60.3908 312.037 -20.9238C360.749 -131.713 432.964 -98.4707 455.309 -80.5078C473.711 -65.7149 521.322 -68.5326 542.498 -80.5079C534.787 -48.2624 497.37 -15.2546 467.577 -28.3172C429.605 -44.9657 347.614 -74.1989 328.687 0.10582C305.027 92.9868 228.791 73.7095 206.446 64.0709C184.101 54.4324 113.56 36.0314 85.5196 133.294Z" fill="#6DB8C2"/>
<path d="M85.5196 91.2873C63.0868 168.985 2.27316 160.994 -25.3296 147.286V98.2872C8.5525 103.829 78.1573 99.1621 85.5196 36.1637C92.8819 -26.8347 169.205 -30.9179 206.446 -25.0847C234.049 -20.7612 276.285 18.4892 312.037 -62.7088C356.728 -164.206 434.278 -122.207 456.623 -104.27C475.025 -89.4985 521.322 -110.249 542.498 -122.207C534.787 -90.0081 497.37 -57.0476 467.577 -70.0915C429.605 -86.7161 347.614 -115.907 328.687 -41.7093C305.027 51.0384 228.791 31.7888 206.446 22.1641C184.101 12.5393 113.56 -5.83524 85.5196 91.2873Z" fill="#F36A22"/>
<path d="M85.5196 63.3291C63.0868 141.308 2.27316 133.287 -25.3296 119.53V70.3542C8.5525 75.9158 78.1573 71.2323 85.5196 8.0065C92.8819 -55.2193 169.205 -59.3173 206.446 -53.4631C234.049 -49.1239 276.285 -9.73183 312.037 -91.2229C356.728 -193.087 434.278 -150.936 456.623 -132.934C475.025 -118.109 521.322 -138.935 542.498 -150.936C534.787 -118.621 496.056 -100.085 466.262 -113.176C428.29 -129.861 347.614 -144.614 328.687 -70.1476C305.027 22.9349 228.791 3.61581 206.446 -6.04369C184.101 -15.7032 113.56 -34.1441 85.5196 63.3291Z" fill="#FEB048"/>
<path d="M79.3587 34.7193C56.926 112.529 -3.88773 104.526 -31.4905 90.7984V41.7292C2.39161 47.2787 71.9964 42.6054 79.3587 -20.4835C86.721 -83.5725 154.719 -106.3 194.151 -89.6515C219.891 -78.784 270.124 -38.1834 305.876 -119.498C354.588 -230.287 426.803 -197.045 449.148 -179.082C467.55 -164.289 515.161 -167.107 536.338 -179.082C528.626 -146.837 491.209 -113.829 461.416 -126.891C423.444 -143.54 341.453 -172.773 322.526 -98.4684C298.866 -5.58745 222.63 -24.8647 200.285 -34.5033C177.94 -44.1419 107.4 -62.5428 79.3587 34.7193Z" fill="#6DB8C2"/>
<path d="M79.3587 -7.28677C56.926 70.4113 -3.88773 62.4199 -31.4905 48.7119V-0.286926C2.39161 5.25459 71.9964 0.588028 79.3587 -62.4104C86.721 -125.409 163.044 -129.492 200.285 -123.659C227.888 -119.335 270.124 -80.0849 305.876 -161.283C350.567 -262.78 428.117 -220.781 450.462 -202.844C468.864 -188.073 515.161 -208.823 536.338 -220.781C528.626 -188.582 491.209 -155.622 461.416 -168.666C423.444 -185.29 341.453 -214.482 322.526 -140.283C298.866 -47.5357 222.63 -66.7853 200.285 -76.41C177.94 -86.0348 107.4 -104.409 79.3587 -7.28677Z" fill="#F36A22"/>
<path d="M79.3587 -35.245C56.926 42.7336 -3.88773 34.7133 -31.4905 20.9558V-28.2199C2.39161 -22.6583 71.9964 -27.3418 79.3587 -90.5676C86.721 -153.793 163.044 -157.891 200.285 -152.037C227.888 -147.698 270.124 -108.306 305.876 -189.797C350.567 -291.661 428.117 -249.51 450.462 -231.509C468.864 -216.683 515.161 -237.509 536.338 -249.51C528.626 -217.195 489.895 -198.659 460.101 -211.75C422.129 -228.435 341.453 -243.188 322.526 -168.722C298.866 -75.6392 222.63 -94.9583 200.285 -104.618C177.94 -114.277 107.4 -132.718 79.3587 -35.245Z" fill="#FEB048"/>
<path d="M73.1978 -63.8548C50.7651 13.955 -10.0486 5.95203 -37.6514 -7.77567V-56.8449C-3.76928 -51.2954 65.8355 -55.9687 73.1978 -119.058C80.5601 -182.147 148.558 -204.874 187.99 -188.226C213.73 -177.358 263.963 -136.758 299.716 -218.072C348.427 -328.861 420.642 -295.619 442.987 -277.656C461.389 -262.863 509 -265.681 530.177 -277.656C522.465 -245.411 485.048 -212.403 455.255 -225.466C417.283 -242.114 335.292 -271.347 316.365 -197.042C292.705 -104.162 216.469 -123.439 194.124 -133.077C171.779 -142.716 101.239 -161.117 73.1978 -63.8548Z" fill="#6DB8C2"/>
</svg>
