<svg width="214" height="158" viewBox="0 0 214 158" fill="none" xmlns="http://www.w3.org/2000/svg">
<path d="M107.82 66.1778C101.229 64.6107 100.895 56.9769 101.552 53.3559H103.701L104.596 47.8354L106.029 48.7258L107.104 46.9449C105.969 46.0545 104.167 43.597 106.029 40.8902C107.892 38.1833 110.029 42.018 110.865 44.2737C111.283 42.3742 112.334 38.0408 113.193 35.9038C115.522 33.4107 122.507 39.6436 123.044 39.6436C126.805 38.397 126.984 40.534 127.701 40.8902C128.417 41.2463 126.805 49.6162 123.044 54.6025C119.175 57.5943 116.178 57.986 115.163 57.808C114.805 61.0134 111.581 66.7121 107.82 66.1778Z" fill="#F4EFD3"/>
<path d="M120.895 52.4659L116.775 51.2193C117.014 51.8723 117.671 52.5727 118.387 53.0001C119.103 53.4275 120.357 53.0595 120.895 52.4659Z" fill="#242A2B"/>
<ellipse cx="116.954" cy="46.411" rx="1.61193" ry="1.60274" fill="#FBE4E4"/>
<ellipse cx="123.402" cy="47.8358" rx="1.61193" ry="1.60274" fill="#FBE4E4"/>
<path d="M178.231 72.1858C184.239 71.5921 190.908 71.4163 196.018 74.3848C201.071 77.3214 204.833 82.0688 206.998 87.4442C209.458 93.5457 209.853 100.689 207.104 106.767C204.02 113.572 198.912 118.443 193.131 123.003C193.115 123.014 193.82 123.17 194.555 123.334" stroke="#E975BE" strokeWidth="1.08517" stroke-linecap="round" stroke-linejoin="round"/>
<path d="M53.9234 124.035C40.0396 112.219 42.771 100.486 45.8722 96.0959C57.3228 106.062 63.2279 106.069 67.5219 107.315C70.9571 108.312 87.2016 102.799 94.8949 99.2992L94.3582 104.816C95.6106 104.816 102.052 111.756 104.199 117.807C106.345 123.857 105.093 129.73 102.946 132.221C97.4311 137.021 93.9083 136.372 92.6975 135.363C91.6244 135.894 86.993 137.707 73.9619 142.365C55.641 148.914 29.9488 131.806 19.3928 122.434C16.3513 126.883 7.22659 133.823 6.1531 127.238C5.07961 120.654 17.9615 108.909 18.6772 108.375C19.035 107.307 20.6452 106.773 22.4344 107.307C36.2108 116.027 52.671 124.035 53.9234 124.035Z" fill="#242A2B"/>
<path d="M77.5517 147.562C68.6682 136.307 70.0294 101.082 71.8205 84.8768C79.1279 75.3316 91.8203 81.4932 97.2531 85.7672L95.1038 98.0548L92.4173 122.452V142.397C92.9546 144.119 94.9964 147.775 98.865 148.63C102.734 149.485 103.82 152.31 103.88 153.616L103.343 155.041L101.372 156.288C94.6859 155.753 80.5607 153.26 77.5517 147.562Z" fill="#F4EFD3"/>
<path d="M152.596 105.178C138.709 108.924 121.79 117.287 106.567 92.356C100.575 81.9439 97.2515 71.8129 103.328 68.5047L113.87 75.263L122.507 81.6711L127.163 88.4382L132.536 92.356L139.342 93.4245L145.969 93.4245L153.312 91.5363C155.116 91.7154 157.409 89.5067 161.372 89.5067C165.133 89.5067 167.482 90.1207 168.715 90.5752L170.327 91.5363L172.656 94.493C177.572 107.979 162.177 111.411 152.596 105.178Z" fill="#F4EFD3"/>
<path d="M147.624 141.808L143.086 146.066C142.968 146.177 142.874 146.311 142.81 146.46C142.745 146.608 142.712 146.768 142.712 146.93V153.714C142.711 154.009 142.822 154.293 143.022 154.512C143.221 154.73 143.496 154.867 143.791 154.894L152.723 155.758L157.646 151.136C157.765 151.025 157.86 150.892 157.925 150.743C157.99 150.595 158.023 150.435 158.023 150.273V143.447C158.023 143.151 157.912 142.866 157.712 142.647C157.511 142.428 157.236 142.292 156.939 142.264L148.554 141.49C148.385 141.475 148.215 141.495 148.055 141.55C147.895 141.604 147.748 141.692 147.624 141.808Z" fill="#CA5355"/>
<path d="M147.149 140.625L141.823 145.623C141.684 145.753 141.574 145.911 141.499 146.085C141.423 146.259 141.384 146.447 141.385 146.637V154.597C141.384 154.943 141.514 155.277 141.748 155.534C141.982 155.79 142.303 155.95 142.65 155.983L153.132 156.997L158.912 151.572C159.051 151.441 159.161 151.284 159.237 151.11C159.312 150.935 159.351 150.748 159.351 150.558V142.547C159.351 142.2 159.22 141.866 158.985 141.609C158.749 141.353 158.426 141.193 158.078 141.161L148.24 140.248C148.041 140.23 147.842 140.254 147.654 140.319C147.465 140.384 147.293 140.488 147.149 140.625Z" fill="#F4B510"/>
<path d="M175.124 96.3978V103.221C175.124 103.383 175.09 103.542 175.026 103.691C174.962 103.839 174.868 103.973 174.75 104.084L169.821 108.706L160.885 107.843C160.627 107.82 160.384 107.71 160.196 107.532C161.673 107.354 162.915 106.671 163.296 105.934C163.882 104.792 163.726 102.801 161.229 102.454C160.746 102.389 160.268 102.292 159.799 102.161V99.8755C159.798 99.7143 159.832 99.5545 159.896 99.4065C159.96 99.2583 160.055 99.1249 160.173 99.0146L164.709 94.7513C164.832 94.639 164.977 94.5529 165.135 94.4988C165.293 94.4444 165.461 94.4232 165.627 94.4362L174.012 95.2126C174.314 95.2329 174.597 95.3667 174.804 95.5869C175.01 95.807 175.125 96.0968 175.124 96.3978Z" fill="#CA5355"/>
<path d="M176.454 95.4981V103.506C176.453 103.697 176.414 103.886 176.338 104.061C176.261 104.236 176.15 104.394 176.01 104.525L170.235 109.946L159.753 108.934C159.406 108.901 159.084 108.74 158.85 108.483C158.616 108.227 158.487 107.892 158.487 107.546V107.514C159.057 107.604 159.638 107.61 160.21 107.532C161.687 107.354 162.929 106.671 163.31 105.934C163.896 104.792 163.74 102.801 161.243 102.454C160.76 102.389 160.282 102.292 159.813 102.161C158.692 101.821 158.623 101.449 158.623 101.449L158.485 101.536V99.5947C158.484 99.4054 158.522 99.2177 158.597 99.0435C158.672 98.8692 158.782 98.7126 158.922 98.5831L164.25 93.5822C164.394 93.4464 164.567 93.3427 164.754 93.2779C164.943 93.2128 165.142 93.1881 165.341 93.2055L175.179 94.1189C175.525 94.1515 175.847 94.3107 176.083 94.5653C176.318 94.8199 176.45 95.1524 176.454 95.4981Z" fill="#CA5355"/>
<path d="M176.784 117.07L171.421 122.094C171.282 122.225 171.17 122.383 171.094 122.559C171.018 122.734 170.978 122.924 170.978 123.115V131.132C170.978 131.481 171.108 131.818 171.344 132.076C171.579 132.334 171.903 132.496 172.253 132.53L182.817 133.55L188.639 128.088C188.779 127.957 188.89 127.799 188.966 127.623C189.043 127.448 189.082 127.259 189.082 127.067V119.007C189.082 118.657 188.951 118.319 188.714 118.061C188.477 117.802 188.151 117.641 187.801 117.609L177.893 116.696C177.692 116.675 177.489 116.699 177.298 116.763C177.106 116.828 176.931 116.933 176.784 117.07Z" fill="#CA5355"/>
<path d="M191.322 121.966L185.741 127.204C185.596 127.341 185.481 127.506 185.402 127.688C185.323 127.871 185.282 128.068 185.282 128.266V136.608C185.282 136.971 185.418 137.321 185.663 137.59C185.909 137.859 186.246 138.027 186.609 138.063L197.594 139.124L203.65 133.443C203.795 133.306 203.911 133.142 203.99 132.959C204.069 132.776 204.109 132.58 204.109 132.381V123.98C204.109 123.616 203.972 123.265 203.725 122.996C203.478 122.727 203.14 122.56 202.775 122.526L192.466 121.569C192.258 121.55 192.048 121.576 191.85 121.644C191.653 121.713 191.473 121.822 191.322 121.966Z" fill="#CA5355"/>
<path d="M190.74 120.512L184.191 126.659C184.02 126.82 183.884 127.013 183.791 127.227C183.699 127.442 183.651 127.673 183.651 127.906V137.698C183.651 138.123 183.81 138.533 184.097 138.848C184.385 139.163 184.78 139.36 185.206 139.401L198.09 140.648L205.209 133.976C205.38 133.815 205.515 133.622 205.608 133.408C205.701 133.193 205.749 132.962 205.749 132.729V122.876C205.748 122.449 205.588 122.037 205.299 121.722C205.009 121.406 204.612 121.21 204.185 121.17L192.084 120.051C191.84 120.029 191.594 120.058 191.362 120.138C191.131 120.217 190.919 120.345 190.74 120.512Z" fill="#EABB76"/>
<path d="M175.204 128.02L167.38 135.363C167.175 135.555 167.013 135.785 166.902 136.041C166.791 136.297 166.734 136.573 166.734 136.852V148.548C166.736 149.056 166.927 149.545 167.27 149.921C167.613 150.297 168.084 150.534 168.592 150.585L183.993 152.074L192.491 144.102C192.694 143.911 192.856 143.68 192.967 143.424C193.078 143.168 193.135 142.892 193.136 142.614V130.844C193.134 130.335 192.941 129.844 192.596 129.468C192.25 129.092 191.777 128.856 191.266 128.807L176.812 127.469C176.52 127.442 176.226 127.478 175.948 127.573C175.671 127.668 175.417 127.82 175.204 128.02Z" fill="#CA5355"/>
<path d="M174.384 125.981L165.198 134.599C164.959 134.824 164.768 135.095 164.637 135.395C164.507 135.695 164.44 136.019 164.44 136.346V150.072C164.439 150.669 164.663 151.245 165.066 151.687C165.47 152.129 166.024 152.406 166.622 152.463L184.694 154.21L194.661 144.848C194.9 144.623 195.091 144.352 195.221 144.052C195.351 143.752 195.419 143.428 195.419 143.101V129.297C195.419 128.699 195.195 128.122 194.789 127.68C194.384 127.237 193.827 126.961 193.228 126.906L176.272 125.337C175.929 125.305 175.584 125.345 175.258 125.456C174.932 125.567 174.635 125.746 174.384 125.981Z" fill="#C61800"/>
<path d="M176.221 115.673L169.927 121.58C169.763 121.734 169.632 121.92 169.543 122.125C169.454 122.331 169.408 122.553 169.407 122.777V132.185C169.408 132.594 169.561 132.989 169.838 133.292C170.115 133.595 170.495 133.785 170.905 133.825L183.293 135.021L190.123 128.609C190.287 128.456 190.418 128.27 190.507 128.064C190.597 127.858 190.642 127.636 190.642 127.412V117.945C190.639 117.536 190.483 117.142 190.204 116.841C189.925 116.54 189.543 116.353 189.133 116.317L177.505 115.241C177.273 115.219 177.038 115.247 176.817 115.321C176.596 115.395 176.393 115.515 176.221 115.673Z" fill="#F4EFD3"/>
<path d="M120.005 27.3716C126.436 22.5215 136.176 18.1668 149.207 20.4252" stroke="#A33233" strokeWidth="1.08517" stroke-miterlimit="10"/>
<path d="M123.271 31.1624C128.994 27.2097 136.789 24.1749 146.954 24.8257" stroke="#E975BE" strokeWidth="1.08517" stroke-linecap="round" stroke-linejoin="round"/>
<path d="M168.188 29.1163C174.472 34.8867 177.774 43.0205 178.982 51.3097C179.782 56.8227 179.79 62.421 179.003 67.9359C178.943 68.2597 178.902 68.5869 178.881 68.9155C179.288 68.7333 179.709 68.5844 180.14 68.4702C185.334 67.1435 190.86 66.9288 195.887 68.9703C200.069 70.6669 203.629 73.6423 206.348 77.1909C209.984 81.9646 212.182 87.6656 212.689 93.6321C213.608 105.05 208.117 114.257 199.881 120.751L199.787 120.826" stroke="#A33233" strokeWidth="1.08517" stroke-linejoin="round"/>
<path d="M167.184 34.6113C175.328 44.1266 175.845 56.9211 175.126 69.115C175.11 69.3822 175.009 70.0901 174.915 70.8094" stroke="#E975BE" strokeWidth="1.08517" stroke-linecap="round" stroke-linejoin="round"/>
<path d="M73.6824 142.331C72.3961 142.792 71.0491 143.064 69.684 143.138C50.2939 144.323 32.098 133.775 19.2829 121.967C18.6973 121.428 18.1346 120.876 17.5927 120.316" stroke="#242A2B" strokeWidth="1.08517" stroke-miterlimit="10"/>
<path d="M92.3354 134.756C93.4562 136.46 96.0858 135.779 96.0858 135.779C110.752 132.788 106.473 113.481 94.0671 104.52" stroke="#242A2B" strokeWidth="1.44689" stroke-miterlimit="10"/>
<path d="M122.483 81.2494C122.483 81.2494 121.171 98.0012 109.773 97.4463C109.773 97.4463 105.499 92.8496 105.607 89.3535C105.715 85.8575 115.253 64.0249 115.253 64.0249C115.253 64.0249 121.435 79.3564 122.483 81.2494Z" fill="#E975BE"/>
<path d="M109.417 88.6868C104.101 93.7562 99.3537 96.8321 94.9052 98.6543L96.7425 85.8827C76.7047 73.9674 71.372 87.2528 71.372 87.2528C70.6049 88.4996 70.2489 103.292 70.1479 108.341C70.1226 108.341 69.4865 108.341 69.4589 108.341C56.8276 107.67 45.4113 96.1813 45.4113 96.1813C51.7935 80.247 74.578 60.5586 74.578 60.5586C90.3924 49.5316 102.463 53.24 102.463 53.24C98.7451 53.5072 103.811 63.7441 103.811 63.7441C111.278 70.1905 114.034 60.5632 114.034 60.5632C121.259 77.758 109.417 88.6868 109.417 88.6868Z" fill="#E975BE"/>
<path d="M18.6398 121.302V121.359L19.6135 122.273C19.6135 122.273 19.2093 122.645 18.6398 123.186C17.898 123.871 16.876 124.816 16.1135 125.538C14.793 126.785 8.04099 133.496 6.23816 127.392C6.59413 125.257 7.95831 120.866 13.1877 115.532C20.624 107.932 19.5883 108.875 21.4554 109.001C22.3166 109.056 23.4328 109.558 24.3882 110.086C21.9721 111.086 18.3091 113.86 18.6398 121.302Z" fill="#CA5355"/>
<path d="M26.4069 111.348C26.4069 111.348 19.0968 112.033 18.6398 121.302V121.359C18.6099 121.93 18.6099 122.53 18.6398 123.17C17.898 123.855 16.876 124.8 16.1135 125.522C14.793 126.769 8.04099 133.48 6.23816 127.376C6.59413 125.241 7.95831 120.85 13.1877 115.516C20.624 107.916 19.5883 108.859 21.4554 108.985C22.3166 109.04 23.4328 109.542 24.3882 110.069C25.0826 110.461 25.7565 110.888 26.4069 111.348Z" fill="#CA5355"/>
<path d="M94.8569 99.0397C103.125 93.8858 116.39 87.2865 116.358 72.4711C116.358 68.9522 115.992 66.0773 115.209 63.3553L115.134 63.095C114.86 62.2138 114.491 61.3648 114.034 60.5626" stroke="#242A2B" strokeWidth="1.44689" stroke-miterlimit="10"/>
<path d="M54.9766 124.686C53.0635 123.067 51.3364 121.505 50.1881 120.427L50.1698 120.409C49.2649 119.571 48.7229 119.039 48.7229 119.039C47.9536 117.995 47.2692 116.983 46.656 116.011C46.644 115.996 46.6353 115.979 46.6307 115.96C42.1707 108.79 41.902 103.077 46.0566 94.6712C46.0807 94.6105 46.1082 94.5509 46.1392 94.4931C46.5986 93.5797 47.1061 92.6252 47.6665 91.6387C55.9825 77.0243 80.3815 49.7935 101.43 53.237" stroke="#242A2B" strokeWidth="1.08517" stroke-miterlimit="10"/>
<path d="M19.2897 121.96C14.9262 127.344 11.8648 129.256 9.79559 129.678C7.72636 130.101 5.82018 128.276 6.12104 126.166C7.08101 119.498 14.8848 111.522 18.7248 107.955C19.3129 107.405 20.0676 107.064 20.8712 106.986C21.6747 106.907 22.4818 107.095 23.1664 107.521L25.0886 108.711C30.7681 112.232 36.6956 115.667 42.6553 118.831C48.1189 121.736 54.1222 125.47 60.5894 124.625" stroke="#242A2B" strokeWidth="1.08517" stroke-miterlimit="10"/>
<path d="M97.5575 71.9528C97.6317 74.6032 97.5635 77.256 97.3531 79.8994C96.6251 89.465 94.6592 98.9004 93.5775 108.427C92.8885 114.524 92.4659 120.648 92.3833 126.784C92.3144 131.936 92.3006 135.866 92.4545 141.017C92.5532 144.333 94.4387 146.45 97.3095 147.868C99.7278 149.06 101.413 148.818 102.92 151.222C106.018 156.178 99.9345 156.529 97.4587 155.876C90.5138 154.049 80.2963 153.047 76.3301 146.18C73.1676 140.7 72.7657 137.117 71.9665 130.993C71.0938 124.357 70.3589 117.694 70.2027 110.998C69.9616 100.218 70.8022 82.877 74.688 72.6812" stroke="#242A2B" strokeWidth="1.08517" stroke-miterlimit="10"/>
<path d="M184.31 123.084L184.273 123.12L183.412 123.033L183.444 123.004L184.31 123.084Z" fill="#CA5355"/>
<path d="M170.648 121.916L177.724 122.613L170.648 121.973V121.916Z" fill="#CA5355"/>
<path d="M184.31 123.082L184.273 123.119L183.412 123.032L183.318 123.119L182.907 123.082L183.001 122.996L183.031 122.964L183.444 123.003L184.31 123.082Z" fill="#CA5355"/>
<path d="M184.31 123.082L184.274 123.119L183.412 123.032L183.001 122.996L183.031 122.964L183.444 123.003L184.31 123.082Z" fill="#CA5355"/>
<path d="M166.243 135.3L176.704 136.316L166.243 135.382V135.3Z" fill="#CA5355"/>
<path d="M186.448 137.008L186.393 137.063L185.118 136.935L184.98 137.063L184.372 137.008L184.51 136.88L184.556 136.835L185.166 136.889L186.448 137.008Z" fill="#CA5355"/>
<path d="M186.448 137.008L186.393 137.063L185.119 136.935L184.51 136.88L184.556 136.835L185.167 136.889L186.448 137.008Z" fill="#CA5355"/>
<path d="M115.129 63.0931C115.129 63.0931 121.885 85.5035 129.788 90.7235C137.234 95.6399 147.231 93.5071 155.083 90.8217C157.251 90.0796 159.43 89.3557 161.743 89.39C164.997 89.4356 171.63 90.1527 172.491 93.9182" stroke="#242A2B" strokeWidth="1.08517" stroke-miterlimit="10"/>
<path d="M106.248 91.5292C117.908 115.006 138.582 110.322 149.224 106.08C150.188 105.69 151.234 105.541 152.27 105.646C153.298 105.758 154.107 106.192 155.064 106.559C156.693 107.199 158.532 107.658 160.298 107.539C162.064 107.42 164.216 106.082 163.472 104.011C162.88 102.36 161.033 102.479 159.619 102.161C158.204 101.844 157.864 99.7932 159.187 99.1287C159.203 99.1237 159.218 99.115 159.23 99.1036" stroke="#242A2B" strokeWidth="1.08517" stroke-miterlimit="10"/>
<path d="M159.351 141.282L153.132 147.125L141.385 146.038L147.611 140.197L159.351 141.282Z" stroke="#242A2B" strokeWidth="1.08517" stroke-linecap="square" stroke-linejoin="round"/>
<path d="M153.132 147.126V157L141.385 155.865V146.039L153.132 147.126Z" stroke="#242A2B" strokeWidth="1.08517" stroke-linecap="square" stroke-linejoin="round"/>
<path d="M159.351 141.282V151.163L153.132 156.999V147.125L159.351 141.282Z" stroke="#242A2B" strokeWidth="1.08517" stroke-linecap="square" stroke-linejoin="round"/>
<path d="M195.515 127.202L184.873 137.202L174.825 136.271L164.777 135.341L169.481 130.925V133.416L183.318 134.756L190.642 127.878V126.748L195.515 127.202Z" stroke="#242A2B" strokeWidth="0.723447" stroke-linecap="square" stroke-linejoin="round"/>
<path d="M184.873 137.2V154.091L164.777 152.15V135.343L184.873 137.2Z" stroke="#242A2B" strokeWidth="0.723447" stroke-linecap="square" stroke-linejoin="round"/>
<path d="M195.513 127.205V144.108L184.873 154.091V137.2L195.513 127.205Z" stroke="#242A2B" strokeWidth="0.723447" stroke-linecap="square" stroke-linejoin="round"/>
<path d="M190.642 116.242L183.318 123.12L169.481 121.843L176.812 114.963L190.642 116.242Z" stroke="#242A2B" strokeWidth="1.08517" stroke-linecap="square" stroke-linejoin="round"/>
<path d="M183.318 125.645V123.119L169.481 121.843V132.461" stroke="#242A2B" strokeWidth="0.723447" stroke-linecap="square" stroke-linejoin="round"/>
<path d="M190.642 116.242V127.879L183.318 134.757V123.12L190.642 116.242Z" stroke="#242A2B" strokeWidth="0.723447" stroke-linecap="square" stroke-linejoin="round"/>
<path d="M190.846 120.338L191.161 120.044L205.776 121.396L198.035 128.673L195.864 128.47" stroke="#242A2B" strokeWidth="0.723447" stroke-linecap="square" stroke-linejoin="round"/>
<path d="M195.736 128.456L198.035 128.673V140.961L195.515 140.719" stroke="#242A2B" strokeWidth="0.723447" stroke-linecap="square" stroke-linejoin="round"/>
<path d="M205.774 121.395V133.694L198.032 140.96V128.668L205.774 121.395Z" stroke="#242A2B" strokeWidth="0.723447" stroke-linecap="square" stroke-linejoin="round"/>
<path d="M176.451 94.2803L170.232 100.124L158.485 99.0369L164.711 93.1934L176.451 94.2803Z" stroke="#242A2B" strokeWidth="1.08517" stroke-linecap="square" stroke-linejoin="round"/>
<path d="M158.482 107.482V108.866L170.23 110.001V100.127L159.231 99.1085L158.482 99.04V99.8964V100.785" stroke="#242A2B" strokeWidth="1.08517" stroke-linecap="square" stroke-linejoin="round"/>
<path d="M176.451 94.2812V104.162L170.232 109.999V100.125L176.451 94.2812Z" stroke="#242A2B" strokeWidth="1.08517" stroke-linecap="square" stroke-linejoin="round"/>
<path d="M133.336 37.7648C132.876 38.9033 132.067 39.8688 131.025 40.5246C129.982 41.1802 128.758 41.493 127.526 41.4184C127.499 40.9178 127.35 40.4312 127.092 40.0003C125.987 38.21 124.949 41.0987 120.949 38.306C115.407 34.424 112.869 35.7941 112.869 35.7941C112.64 35.9128 112.458 37.2875 112.396 37.5273C112.017 38.9202 111.64 40.3063 111.248 41.697C111.018 42.5464 110.788 43.389 110.559 44.2316C110.5 44.0757 110.432 43.9231 110.354 43.7749C110.102 41.7677 109.479 39.3518 107.22 40.0094C106.762 40.1512 106.344 40.3983 106 40.731C104.326 42.3432 105.116 44.2636 106.374 45.7867C106.678 46.2466 107.031 46.6723 107.426 47.0563C107.112 47.513 105.83 49.3398 105.83 49.3398C105.697 49.5225 102.861 45.1473 102.668 44.6861C102.444 43.5989 102.406 42.4818 102.555 41.3818C103.191 36.8605 105.842 31.8893 109.904 29.8593C110.915 29.3569 110.717 28.6947 110.91 27.8315C110.916 27.7813 110.939 27.7342 110.974 27.6982C111.01 27.6618 111.057 27.6386 111.107 27.6317C111.158 27.6249 111.209 27.6351 111.254 27.6605C111.298 27.6861 111.332 27.7253 111.351 27.7721C112.316 29.2382 115.182 29.5441 115.182 29.5441C125.023 28.56 128.08 33.4558 129.986 34.5336C130.755 34.9567 131.645 35.1072 132.512 34.9606C132.518 35.2394 132.6 35.5114 132.751 35.7466C132.902 35.9818 133.115 36.1713 133.366 36.2942L133.247 36.7509C133.16 37.0893 133.192 37.4467 133.336 37.7648Z" fill="#CA5355"/>
<path d="M127.519 41.4182C128.749 41.4926 129.971 41.1812 131.013 40.5276C132.054 39.8741 132.863 38.9114 133.325 37.776C133.505 37.3419 133.645 36.8925 133.743 36.4333L133.669 36.4128C133.564 36.3872 133.462 36.3479 133.366 36.2963C133.115 36.1732 132.902 35.9837 132.751 35.7485C132.6 35.5133 132.518 35.2415 132.512 34.9627C132.504 34.8088 132.522 34.6547 132.563 34.506L133.157 32.3184C133.157 32.3184 131.166 33.3688 129.299 32.2956C127.432 31.2223 124.768 26.3402 114.495 27.3061C114.495 27.3061 112.238 27.0983 111.28 25.6049C111.26 25.559 111.225 25.5209 111.181 25.4962C111.138 25.4718 111.087 25.4624 111.037 25.4693C110.987 25.4764 110.941 25.4994 110.906 25.5351C110.87 25.5707 110.848 25.6168 110.841 25.6666C110.648 26.5297 110.226 27.0961 109.218 27.5984C105.146 29.6307 102.493 34.6019 101.869 39.121C101.634 41.0078 101.908 42.923 102.663 44.6699C102.856 45.1266 105.692 49.5064 105.826 49.3237C105.826 49.3237 107.107 47.4969 107.422 47.0402L107.497 46.9397L107.399 46.8507C107.032 46.5141 106.688 46.1533 106.37 45.7706C105.111 44.2475 104.321 42.327 105.996 40.7149C106.339 40.3822 106.757 40.1349 107.215 39.9933C109.475 39.3356 110.097 41.7516 110.35 43.7588C110.399 44.142 110.405 44.5295 110.371 44.9142L110.554 44.2292C110.784 43.3866 111.014 42.544 111.243 41.6945C111.627 40.3038 112.003 38.9178 112.392 37.5248C112.454 37.2851 112.644 35.9104 112.865 35.7916C112.865 35.7916 115.402 34.4352 120.944 38.3035C124.945 41.0962 125.983 38.2076 127.087 39.9979C127.346 40.4285 127.494 40.9151 127.521 41.4159C127.527 41.5767 127.523 41.7377 127.508 41.8977C127.511 41.919 127.511 41.9404 127.508 41.9617C127.476 42.311 127.43 42.6604 127.384 43.0007C126.924 46.2843 126.029 49.6525 124.267 52.5C122.131 55.9504 117.41 58.9601 113.345 56.5829C112.079 55.8408 109.062 54.0159 108.093 52.9244" stroke="#242A2B" strokeWidth="1.44689" stroke-miterlimit="10"/>
<path d="M124.532 48.4383C124.786 47.9469 124.66 47.3795 124.252 47.1712C123.843 46.9627 123.307 47.192 123.053 47.6834C122.799 48.1748 122.925 48.7423 123.333 48.9507C123.742 49.1592 124.279 48.9297 124.532 48.4383Z" fill="#242A2B"/>
<path d="M118.124 47.2586C118.378 46.7672 118.252 46.1999 117.844 45.9915C117.435 45.783 116.898 46.0122 116.645 46.5036C116.391 46.9951 116.517 47.5625 116.925 47.771C117.334 47.9795 117.87 47.75 118.124 47.2586Z" fill="#242A2B"/>
<path d="M104.996 48.2841L103.338 53.6001L101.443 53.2461C100.251 55.2236 101.788 61.6152 103.82 63.7502C109.619 69.8609 113.186 62.8071 113.186 62.8071L114.033 60.5556L115.262 57.2993" stroke="#242A2B" strokeWidth="1.44689" stroke-miterlimit="10"/>
<path d="M155.224 31.996C155.656 32.3819 156.002 32.8537 156.239 33.3807C156.477 33.9077 156.6 34.4784 156.602 35.0559V35.7089C156.604 36.1707 156.703 36.6269 156.892 37.0482C157.082 37.4695 157.358 37.847 157.703 38.1559C158.048 38.4649 158.454 38.6987 158.895 38.8424C159.336 38.9862 159.803 39.0365 160.265 38.9903C161.98 38.8168 163.234 37.2663 163.234 35.5423V35.0536C163.233 34.4804 163.352 33.9134 163.584 33.3889C163.816 32.8642 164.157 32.3938 164.582 32.0074" stroke="#A33233" strokeWidth="1.08517" stroke-linejoin="round"/>
<path d="M155.224 31.996C155.656 32.3819 156.002 32.8537 156.239 33.3807C156.477 33.9077 156.6 34.4784 156.602 35.0559V35.7089C156.604 36.1707 156.703 36.6269 156.892 37.0482C157.082 37.4695 157.358 37.847 157.703 38.1559C158.048 38.4649 158.454 38.6987 158.895 38.8424C159.336 38.9862 159.803 39.0365 160.265 38.9903C161.98 38.8168 163.234 37.2663 163.234 35.5423V35.0536C163.233 34.4804 163.352 33.9134 163.584 33.3889C163.816 32.8642 164.157 32.3938 164.582 32.0074" stroke="#A33233" strokeWidth="1.08517" stroke-linejoin="round"/>
<path d="M155.224 31.9964C155.004 31.8059 154.765 31.6376 154.512 31.494C152.57 30.3856 151.02 28.7065 150.076 26.6874C149.132 24.6686 148.839 22.4084 149.237 20.2174C149.636 18.0263 150.708 16.0118 152.304 14.4499C153.9 12.8882 155.943 11.8559 158.153 11.4944C160.362 11.1331 162.63 11.4606 164.646 12.4318C166.661 13.4029 168.324 14.9706 169.408 16.9191C170.491 18.8678 170.942 21.102 170.698 23.3154C170.453 25.5288 169.526 27.6127 168.043 29.2813C168.02 29.3034 167.999 29.3279 167.981 29.3543C167.198 30.21 166.284 30.9382 165.274 31.5123C165.024 31.65 164.793 31.8171 164.585 32.0101" stroke="#A33233" strokeWidth="1.08517" stroke-linejoin="round"/>
<path d="M158.756 31.2935C158.056 30.0284 156.875 28.3523 156.044 27.158C155.14 25.8914 154.401 24.5156 153.846 23.0637C153.772 22.9071 153.744 22.7331 153.763 22.5613C153.775 22.4762 153.819 22.3985 153.887 22.3449C153.954 22.2914 154.04 22.2659 154.126 22.2736C154.28 22.3033 154.356 22.4632 154.436 22.6024C154.766 23.2548 155.237 23.8271 155.814 24.2785C156.138 24.5274 156.597 24.7352 156.935 24.5069C157.037 24.4176 157.12 24.3078 157.176 24.1845C157.233 24.0614 157.263 23.9276 157.263 23.7922C157.365 22.8306 157.112 21.8649 156.551 21.0748C156.322 20.7642 155.922 20.4628 155.598 20.666C155.274 20.8693 155.369 21.3716 155.561 21.7096C155.904 22.336 156.372 22.8865 156.936 23.3272C157.5 23.7682 158.148 24.0904 158.841 24.274C159.181 24.3872 159.548 24.3911 159.891 24.2854C160.081 24.1993 160.247 24.0685 160.374 23.904C160.502 23.7396 160.587 23.5469 160.623 23.3423C160.692 22.9313 160.656 22.51 160.52 22.1161C160.331 21.5018 159.966 20.8738 159.353 20.6683C159.161 20.5941 158.948 20.5941 158.756 20.6683C158.629 20.7361 158.523 20.8384 158.451 20.9631C158.379 21.0878 158.344 21.2303 158.349 21.3739C158.365 21.6614 158.453 21.9405 158.607 22.1846C158.963 22.802 159.464 23.3245 160.068 23.7072C160.671 24.0897 161.359 24.321 162.072 24.3813C162.549 24.4487 163.033 24.3336 163.427 24.0593C163.592 23.9077 163.724 23.725 163.817 23.5218C163.91 23.3188 163.961 23.0993 163.967 22.8765C164.019 22.2081 163.829 21.5431 163.432 21.0017C163.351 20.8944 163.23 20.7734 163.099 20.8168C162.968 20.8601 162.931 21.0063 162.915 21.1364C162.855 21.6479 162.898 22.1661 163.042 22.6609C163.185 23.1555 163.427 23.617 163.751 24.0182C164.109 24.4544 164.654 24.8334 165.205 24.7033C165.413 24.64 165.601 24.5215 165.747 24.3605C165.892 24.1998 165.992 24.0025 166.034 23.7899C166.113 23.3635 166.07 22.9235 165.91 22.5202C165.712 22.6408 165.543 22.8023 165.415 22.9938C165.286 23.1854 165.2 23.4024 165.163 23.63C165.062 24.0867 165.069 24.5434 164.991 25.0001C164.559 27.5622 161.721 28.7063 161.17 31.1656" stroke="#A33233" strokeWidth="1.08517" stroke-linejoin="round"/>
<path d="M159.904 7.48972L159.796 1" stroke="#A33233" strokeWidth="1.08517" stroke-linejoin="round"/>
<path d="M147.454 13.5278L142.937 8.84436" stroke="#A33233" strokeWidth="1.08517" stroke-linejoin="round"/>
<path d="M172.398 13.8199L177.016 9.2323" stroke="#A33233" strokeWidth="1.08517" stroke-linejoin="round"/>
<path d="M174.864 75.1315C176.171 75.1315 177.23 74.0786 177.23 72.7795C177.23 71.4806 176.171 70.4275 174.864 70.4275C173.558 70.4275 172.499 71.4806 172.499 72.7795C172.499 74.0786 173.558 75.1315 174.864 75.1315Z" fill="#CA5355"/>
<path d="M35.7979 134.917L31.5993 131.665L27.4007 128.413C24.1776 126.469 20.1324 126.482 16.8948 128.432L13.1335 130.704C10.6923 132.18 7.61345 132.123 5.24539 130.548L5.10198 130.447C1.14093 127.827 0.505897 122.294 3.7601 118.846L13.3264 108.713C16.599 105.244 21.9482 104.753 25.7955 107.566C25.7955 107.566 33.944 113.808 36.7205 115.822C38.5389 117.157 43.7362 121.511 43.7362 121.511L35.7979 134.917Z" fill="#242A2B"/>
<path d="M25.7945 107.566C25.7945 107.566 35.1529 112.605 37.9296 114.619C39.7481 115.954 44.9458 120.308 44.9458 120.308L41.4011 124.361C39.9491 123.17 38.3537 121.878 37.4962 121.263C34.7349 119.239 26.5705 113.005 26.5705 113.005C22.7229 110.192 17.3734 110.683 14.1005 114.152L4.53357 124.287C3.55509 125.325 2.93384 126.542 2.63656 127.815C1.07306 125.016 1.36202 121.371 3.74223 118.857L13.3092 108.722C16.5974 105.244 21.9469 104.753 25.7945 107.566Z" fill="#242A2B"/>
<path d="M35.9991 124.613C37.2399 124.534 37.3589 123.554 37.5784 122.69C37.6363 121.695 38.319 121.258 39.0289 120.917C39.1565 120.108 39.7168 119.743 40.2188 119.454C40.4026 119.293 40.4278 119.041 40.4712 118.818C42.1813 120.216 43.745 121.525 43.745 121.525L34.5727 132.733L31.3273 130.784C31.5783 130.614 31.1681 129.825 31.7794 129.771C31.8089 129.092 33.4026 129.568 32.9693 128.308C32.7525 127.219 34.4381 127.588 34.4198 126.535C35.5965 126.453 35.1241 124.989 35.9991 124.613Z" fill="#191919"/>
<path d="M34.3671 134.207L27.0338 128.689C23.8106 126.745 20.1328 126.483 16.8951 128.433L13.1337 130.705C10.6925 132.18 7.61361 132.124 5.24552 130.549L5.10211 130.448C1.141 127.828 0.505958 122.295 3.7602 118.847L13.3266 108.713C16.5993 105.244 21.9485 104.753 25.7959 107.566C25.7959 107.566 35.1537 112.605 37.9303 114.619C39.7487 115.953 44.9461 120.307 44.9461 120.307L34.3671 134.207Z" stroke="#34323A" strokeWidth="0.723447" stroke-miterlimit="10" stroke-linecap="round" stroke-linejoin="round"/>
<path d="M43.0813 119.005C43.06 118.986 43.477 119.543 42.7807 119.37C41.9869 119.12 42.3969 120.011 41.9711 120.358C41.469 120.647 40.9087 121.012 40.7811 121.821C40.0711 122.162 39.3883 122.599 39.3304 123.594C39.1231 124.462 38.9919 125.438 37.7509 125.517C36.8758 125.894 37.3482 127.358 36.1714 127.439C36.1897 128.492 34.5039 128.123 34.7208 129.213C35.1541 130.473 33.548 129.994 33.5307 130.676C32.7604 130.742 33.6002 131.987 32.7211 131.664C32.1102 131.563 32.8748 132.388 32.4205 132.029C32.2758 132.394 31.4116 132.166 31.9532 133C31.7935 133.27 31.6828 133.502 31.9991 133.995C31.9408 134.071 31.9223 134.144 31.9862 134.25C32.0592 134.372 32.2268 134.53 32.5468 134.804C32.9676 135.142 33.1414 135.276 33.1932 135.328C33.9889 135.98 33.7541 135.779 33.9157 135.91C33.8517 135.855 33.9584 135.946 34.617 136.473C34.2298 136.156 34.9066 136.714 34.8426 136.659C35.1444 136.903 35.5956 137.274 36.0376 137.63C36.059 137.649 36.3395 137.874 36.684 138.154C36.7175 138.175 37.4127 138.711 37.3275 138.586C37.1021 138.349 37.7792 138.803 37.5874 138.535C37.3652 138.234 37.6431 138.316 37.9667 138.422C38.2141 138.471 38.4494 138.465 38.575 138.38C39.3901 138.648 39.0683 137.921 39.4295 137.726C39.4295 137.726 39.6588 137.693 39.7301 137.361C40.1672 137.328 40.1688 136.759 40.5397 136.373C40.7917 135.892 41.4496 135.603 41.7297 134.91C42.5251 134.642 42.6926 133.778 43.1804 133.136C43.842 132.629 44.3391 131.95 44.7599 131.214C45.3667 130.615 45.7753 129.876 46.3394 129.292C46.6869 128.537 47.1014 127.877 47.79 127.518C48.6403 127.291 49.0054 126.774 48.98 126.055C48.9333 125.319 49.7611 125.435 49.7897 125.067C49.733 124.626 50.2305 124.814 50.0903 124.702C50.0765 124.194 49.7516 123.478 50.5576 123.731C50.6502 123.418 50.3219 122.818 50.5117 122.736C50.2806 122.316 50.4487 122.319 49.964 121.926C50.0189 121.966 50.3938 122.28 49.3176 121.403C48.7902 120.973 48.9731 121.123 47.8969 120.246C48.1652 120.468 46.5921 119.195 46.4762 119.089C45.4641 118.266 45.8208 118.55 45.8299 118.565C45.775 118.525 45.0795 118.093 44.9234 118.196C44.2276 117.867 44.2449 118.208 43.9358 118.351C43.6023 118.487 43.3022 118.697 43.0813 119.005Z" fill="#242A2B"/>
<path d="M45.7894 118.554C45.7773 118.551 45.7773 118.551 45.7804 118.539C45.7773 118.551 45.7894 118.554 45.7894 118.554Z" fill="#242A2B"/>
<path d="M46.4617 126.067C46.4494 126.064 46.4526 126.052 46.4403 126.049C46.4526 126.052 46.4648 126.055 46.4617 126.067Z" fill="#242A2B"/>
<path d="M47.9035 120.272C47.9157 120.275 47.9248 120.291 47.9248 120.291C47.9157 120.275 47.9157 120.275 47.9035 120.272Z" fill="#242A2B"/>
<path d="M50.0537 122L50.0658 122.004C50.0627 122.016 50.0537 122 50.0537 122Z" fill="#242A2B"/>
<path d="M49.9991 121.961C50.0204 121.979 50.0418 121.998 50.0509 122.013C50.0327 121.982 50.0113 121.964 49.9991 121.961Z" fill="#242A2B"/>
<path d="M50.0627 122.016C50.1085 122.041 50.0963 122.038 50.0627 122.016V122.016Z" fill="#242A2B"/>
<path d="M43.0813 119.005C43.06 118.986 43.477 119.543 42.7807 119.37C41.9869 119.12 42.3969 120.011 41.9711 120.358C41.469 120.647 40.9087 121.012 40.7811 121.821C40.0711 122.162 39.3883 122.599 39.3304 123.594C39.1231 124.462 38.9919 125.438 37.7509 125.517C36.8758 125.894 37.3482 127.358 36.1714 127.439C36.1897 128.492 34.5039 128.123 34.7208 129.213C35.1541 130.473 33.548 129.994 33.5307 130.676C32.7604 130.742 33.6002 131.987 32.7211 131.664C32.1102 131.563 32.8748 132.388 32.4205 132.029C32.2758 132.394 31.4116 132.166 31.9532 133C31.7935 133.27 31.6828 133.502 31.9991 133.995C31.9408 134.071 31.9223 134.144 31.9862 134.25C32.0592 134.372 32.2268 134.53 32.5468 134.804C32.9676 135.142 33.1414 135.276 33.1932 135.328C33.9889 135.98 33.7541 135.779 33.9157 135.91C33.8517 135.855 33.9584 135.946 34.617 136.473C34.2298 136.156 34.9066 136.714 34.8426 136.659C35.1444 136.903 35.5956 137.274 36.0376 137.63C36.059 137.649 36.3395 137.874 36.684 138.154C36.7175 138.175 37.4127 138.711 37.3275 138.586C37.1021 138.349 37.7792 138.803 37.5874 138.535C37.3652 138.234 37.6431 138.316 37.9667 138.423C38.2141 138.471 38.4494 138.465 38.575 138.38C39.3901 138.648 39.0683 137.921 39.4295 137.726C39.4295 137.726 39.6588 137.693 39.7301 137.361C40.1672 137.328 40.1688 136.759 40.5397 136.373C40.7917 135.892 41.4496 135.603 41.7297 134.91C42.5251 134.642 42.6926 133.778 43.1804 133.136C43.842 132.629 44.3391 131.95 44.7599 131.214C45.3667 130.615 45.7753 129.876 46.3394 129.292C46.6869 128.537 47.1014 127.877 47.79 127.518C48.6403 127.291 49.0054 126.774 48.98 126.055C48.9333 125.319 49.7611 125.435 49.7897 125.067C49.733 124.626 50.2305 124.814 50.0903 124.702C50.0765 124.194 49.7516 123.478 50.5576 123.731C50.6502 123.418 50.3219 122.818 50.5117 122.736C50.2806 122.316 50.4487 122.319 49.964 121.926C50.0189 121.966 50.3938 122.28 49.3176 121.403C48.7902 120.973 48.9731 121.123 47.8969 120.246C48.1652 120.468 46.5921 119.195 46.4762 119.089C45.4641 118.266 45.8208 118.55 45.8299 118.565C45.775 118.525 45.0795 118.093 44.9234 118.196C44.2276 117.867 44.2449 118.208 43.9358 118.351C43.6023 118.487 43.3022 118.697 43.0813 119.005Z" stroke="#34323A" strokeWidth="0.723447" stroke-miterlimit="10" stroke-linecap="round" stroke-linejoin="round"/>
<path d="M8.08985 129.574C8.18207 129.211 8.55229 128.99 8.91663 129.081C9.2811 129.172 9.50165 129.54 9.40943 129.903C9.31721 130.266 8.94711 130.487 8.58264 130.396C8.21829 130.305 7.99763 129.937 8.08985 129.574Z" fill="#242A2B"/>
<path d="M4.57826 120.689C4.67048 120.326 5.0407 120.105 5.40504 120.196C5.76952 120.287 5.99005 120.655 5.89783 121.018C5.80561 121.381 5.43552 121.602 5.07105 121.511C4.70671 121.42 4.48604 121.052 4.57826 120.689Z" fill="#242A2B"/>
<path d="M6.1592 119.171C6.22921 118.895 6.51031 118.728 6.78693 118.797C7.06368 118.866 7.23111 119.145 7.16109 119.421C7.09108 119.697 6.81009 119.864 6.53335 119.795C6.25673 119.726 6.08918 119.446 6.1592 119.171Z" fill="#242A2B"/>
<path d="M5.4674 128.477C5.59209 127.986 6.09256 127.688 6.58508 127.811C7.07772 127.934 7.37596 128.432 7.25127 128.923C7.12658 129.413 6.62621 129.712 6.13357 129.589C5.64106 129.466 5.34271 128.968 5.4674 128.477Z" fill="#242A2B"/>
<path d="M3.48547 123.053C3.61016 122.563 4.11064 122.265 4.60315 122.387C5.09579 122.51 5.39402 123.008 5.26933 123.499C5.14464 123.99 4.64429 124.288 4.15165 124.165C3.65913 124.042 3.36078 123.544 3.48547 123.053Z" fill="#242A2B"/>
<path d="M3.72849 125.895C3.88562 125.276 4.51627 124.901 5.13708 125.056C5.75789 125.211 6.13378 125.838 5.97665 126.456C5.81952 127.075 5.18887 127.451 4.56806 127.296C3.94725 127.141 3.57136 126.514 3.72849 125.895Z" fill="#242A2B"/>
<path d="M104.558 49.8749L104.755 49.6791" stroke="#242A2B" strokeWidth="1.08517" stroke-linecap="round"/>
<path d="M101.998 54.1815C102.376 54.1815 102.76 54.1613 103.136 54.1815C103.524 54.2024 102.453 54.5418 102.042 54.4208C101.137 54.1542 103.777 54.4281 102.349 54.7254C100.597 55.0899 103.221 54.755 103.771 54.4208C104.622 53.9033 105.203 52.5533 105.543 51.68C105.71 51.2494 105.873 50.7795 105.98 50.3313C105.991 50.2865 106.385 49.1675 106.286 49.1784C105.667 49.2468 104.625 53.3624 105.346 50.2008C105.555 49.2849 105.734 49.1598 105.39 50.2008C105.21 50.7426 104.825 53.5497 104.208 53.703C104.195 53.7062 104.556 52.7305 104.558 52.7241C104.813 52.0631 104.985 51.3883 105.149 50.7011C105.276 50.1686 105.543 49.6423 105.543 49.0914" stroke="#242A2B" strokeWidth="1.08517" stroke-linecap="round"/>
<path d="M53.1676 122.703C53.1179 122.308 51.6559 121.443 51.4064 121.126C50.8599 120.432 50.3002 118.927 49.5796 118.396C48.1052 117.31 47.4313 116.578 46.5605 114.97C45.9388 113.822 45.5437 112.445 45.0947 111.218C44.1854 108.731 44.5166 106.136 44.0118 103.626C43.6473 101.814 44.3701 99.7899 44.504 97.992C44.5854 96.8992 45.1323 94.7996 45.6854 93.8372C47.9683 89.8652 50.8891 85.9457 53.9551 82.5584C54.8746 81.5426 55.5413 80.2574 56.3179 79.1323C57.0834 78.0232 58.3957 77.4087 59.3589 76.4893C60.1421 75.7418 60.8897 74.6304 61.481 73.7158C62.3511 72.3701 64.0629 71.2574 65.2002 70.1266C67.1018 68.2359 69.6898 66.8336 71.3806 64.7645C72.8015 63.0258 75.2355 62.2641 76.9485 60.8381C77.8134 60.1181 78.3639 59.4379 79.4425 58.9782C80.4593 58.545 81.7291 58.3106 82.5929 57.6078C84.2579 56.2532 86.2446 55.676 88.2592 55.0083C90.7829 54.1719 93.8071 53.7902 96.4852 53.7902" stroke="#242A2B" strokeWidth="1.08517" stroke-linecap="round"/>
<path d="M71.7645 87.1915C71.6238 87.7682 71.4813 88.3807 71.3385 89.0257C67.8988 105.338 71.4779 129.982 73.7902 140.616C65.5629 127.326 68.512 101.794 71.3385 89.0257C71.4701 88.4017 71.6119 87.7899 71.7645 87.1915Z" fill="#242A2B" stroke="#242A2B" strokeWidth="0.361724"/>
<path d="M97.4698 53.7902C96.9119 53.8595 98.1285 53.9859 98.2574 53.9859" stroke="#242A2B" strokeWidth="1.08517" stroke-linecap="round"/>
<path d="M96.3974 53.8736C98.7293 53.8736 99.6341 53.3136 96.7111 53.7442C93.3103 54.2452 96.8666 54.0141 98.2796 53.8161C98.5563 53.7773 100.332 53.356 99.2033 53.356C98.6473 53.356 97.0091 53.6148 97.5651 53.6148C99.0138 53.6148 100.38 54.4308 101.73 53.8736" stroke="#242A2B" strokeWidth="1.08517" stroke-linecap="round"/>
<path d="M158.552 99.1C160.573 97.0911 162.32 94.8433 164.495 93.1134C166.349 91.6391 160.907 96.2132 159.26 97.9132C157.69 99.5343 162.196 94.0138 164.302 93.1909C165.411 92.7578 165.574 92.4919 166.759 92.7536C167.122 92.8339 169.106 93.056 168.389 92.9669C167.763 92.8891 167.119 92.8444 166.491 92.775C165.734 92.6914 166.846 92.7884 167.048 92.8603C168.528 93.3859 173.254 93.7242 171.683 93.7242" stroke="#242A2B" strokeWidth="1.08517" stroke-linecap="round"/>
<path d="M108.349 91.6125C107.75 91.687 109.626 94.4722 109.679 94.5564C109.71 94.6049 111.274 97.196 110.741 96.5723C110.141 95.8707 109.597 95.1902 109.121 94.3964C108.713 93.7152 107.223 91.5851 108.585 93.5111C109.363 94.6114 110.055 95.7732 110.806 96.8923C111.128 97.3729 111.538 97.7396 110.924 97.0309C108.464 94.1936 107.523 92.1757 107.62 92.0392C107.731 91.8812 108.093 91.2064 107.577 91.4632C106.89 91.8045 107.558 92.0897 107.566 92.0712C107.57 92.0613 108.495 94.1222 108.735 94.599C109.212 95.5469 108.024 92.5895 107.502 91.6659C106.792 90.4125 108.884 94.1944 109.658 95.4097C110.052 96.03 110.636 96.8896 109.915 95.5377C109.314 94.4107 108.617 93.3526 107.888 92.3058C105.893 89.4413 115.508 104.002 113.627 101.063C112.422 99.1798 111.594 97.5266 109.958 95.9003C108.143 94.0957 111.467 98.0951 111.825 98.5669C112.841 99.907 115.913 103.907 114.957 102.524C113.784 100.828 112.363 98.9282 110.924 97.4362C109.76 96.2305 108.257 93.9977 108.156 92.1885C108.133 91.7876 108.4 91.5812 108.338 91.1219C108.164 89.8204 108.519 92.232 108.692 92.6791C108.937 93.3097 109.924 94.4056 109.121 93.1485C108.985 92.9345 108.045 91.0044 108.446 91.9325C109.052 93.3402 109.763 94.6171 110.516 95.9643C111.077 96.9681 112.212 97.9621 112.597 99.0148C113.747 102.159 116.705 103.498 118.872 105.82C119.977 107.003 123.082 107.129 123.603 107.164C124.791 107.242 125.964 107.845 127.175 108.113C130.621 108.874 134.053 108.892 137.656 108.892C138.667 108.892 139.393 108.493 140.316 108.326C141.23 108.161 141.947 107.525 142.826 107.366C144.659 107.035 146.553 106.927 148.319 106.3C150.049 105.685 151.118 104.721 152.76 105.585C153.928 106.2 155.366 107.356 156.815 107.356" stroke="#242A2B" strokeWidth="1.08517" stroke-linecap="round"/>
<path d="M160.677 107.356C161.508 107.356 161.857 107.446 162.414 106.78" stroke="#242A2B" strokeWidth="1.08517" stroke-linecap="round"/>
<path d="M151.521 105.356C151.521 105.852 152.417 105.941 152.417 106.424" stroke="#242A2B" strokeWidth="1.08517" stroke-linecap="round"/>
<path d="M40.4772 135.285C41.6992 136.39 45.589 139.433 44.2902 138.423C43.4156 137.743 42.5219 136.977 41.8452 136.085C41.6506 135.828 40.6729 134.728 41.3795 135.611C42.4072 136.895 43.7748 137.99 45.2799 138.63C45.6311 138.78 43.3759 137.053 42.9513 136.677C39.7567 133.846 42.0137 136.192 43.8827 137.565C44.3264 137.891 46.6371 138.881 46.3277 138.69C44.9458 137.833 43.734 136.753 42.3691 135.878C40.341 134.577 44.3383 137.578 44.9306 137.89C47.02 138.992 48.8622 140.256 51.276 140.347C53.6569 140.437 55.912 141.357 58.349 141.413C60.9489 141.473 63.4753 141.946 66.0916 141.946C67.9314 141.946 69.9735 141.964 71.6511 141.206C71.9611 141.066 72.3687 141.165 72.6989 141.146C72.787 141.142 73.6303 140.742 73.6303 140.939C73.6303 141.857 72.3534 141.694 71.9712 142.005C70.7357 143.01 67.8028 142.507 66.4117 142.153C65.2879 141.867 63.8863 141.447 62.7442 141.413C61.8064 141.385 60.8277 142.013 59.8626 141.62C59.2049 141.353 57.2685 141.412 57.3012 141.413C58.4716 141.459 59.5734 141.929 60.7649 141.946C61.819 141.961 63.0161 141.777 64.0541 142.005C66.8404 142.618 69.0441 141.56 71.6511 141.413C71.9487 141.396 73.6557 141.121 73.0191 141.146C71.2623 141.218 69.6537 142.165 67.838 141.887C67.1775 141.785 60.9105 140.713 60.9105 142.212C60.9105 144.03 68.1974 142.532 69.2934 142.479C70.7555 142.408 74.9486 141.146 73.4848 141.146" stroke="#242A2B" strokeWidth="1.08517" stroke-linecap="round"/>
<path d="M46.0713 98.0007C47.3739 98.1447 50.3423 100.907 49.0989 100.495C48.4779 100.289 46.1308 97.7585 46.5615 98.1011C47.6393 98.9584 50.8436 101.557 49.7044 100.782C48.5539 99.999 45.8283 96.7996 46.8498 97.7427C47.1922 98.0588 46.103 97.2295 45.956 97.0833C45.8087 96.9369 45.63 95.4944 45.8262 96.5673C45.9551 97.2719 45.6799 96.8923 45.9848 97.155C47.4361 98.4057 48.8314 99.7614 50.4253 100.839C51.7323 101.723 47.7319 99.1101 46.7057 97.9148C46.0735 97.1784 46.9471 98.1319 47.0805 98.2875C48.0198 99.383 48.8246 100.586 50.0792 101.355C51.1112 101.987 54.4217 103.5 53.3375 102.961C51.5144 102.054 49.6203 100.755 48.1762 99.3196C46.6471 97.7992 49.1874 100.593 49.7188 100.968C51.0975 101.942 55.1752 103.096 55.7452 104.796C55.9888 105.522 54.5516 103.825 53.9863 103.305C53.0534 102.446 51.9429 101.77 50.7857 101.255C48.3671 100.179 50.869 101.682 51.7228 102.072C52.9823 102.647 54.2005 103.428 55.3559 104.193C56.7042 105.087 58.0063 105.941 59.508 106.458C61.5221 107.152 63.7776 108.322 65.9381 108.322C66.9757 108.322 67.8196 108.58 68.908 108.58C69.9164 108.58 66.2338 108.472 65.4767 108.265C62.0441 107.323 57.9325 106.956 55.2838 104.322C53.6446 102.693 51.504 101.697 49.7044 100.266C48.358 99.1947 47.6076 97.4257 46.201 96.3379C44.465 94.9953 48.9648 99.8094 50.7424 101.097C52.562 102.415 52.2007 102.163 50.7424 100.939C49.4603 99.8638 48.5042 98.233 47.2391 97.2267C47.0831 97.1026 48.7357 99.8086 49.1998 100.294C50.8493 102.021 53.4412 103.399 55.5433 104.58C58.1046 106.02 60.7004 107.548 63.7178 107.548C64.5348 107.548 65.8455 107.889 66.7022 108.078C67.281 108.206 67.933 108.344 68.4899 108.566C69.5571 108.99 66.241 108.064 65.1595 107.677C62.8414 106.847 60.3977 106.376 58.2105 105.168C55.4579 103.648 52.8773 101.788 50.1369 100.18C48.8875 99.4465 46.862 97.5244 46.0569 96.3236C45.0806 94.8675 46.5546 96.6751 47.1237 97.241C48.6137 98.7225 49.9459 100.382 51.6651 101.613C52.116 101.936 54.5105 103.525 54.0007 103.047C52.5757 101.711 50.7806 100.909 49.3872 99.4916C48.4201 98.5076 47.0872 97.5807 46.3308 96.4526" stroke="#242A2B" strokeWidth="1.08517" stroke-linecap="round"/>
<path d="M73.8386 62.9086C75.6811 61.5076 77.0131 58.7462 79.3459 58.2067C80.7298 57.8867 82.2188 57.2782 83.4548 56.5869C84.4327 56.04 86.5545 55.2824 86.5545 55.2824C86.5545 55.2824 84.1265 56.5574 82.8637 57.0886C80.9033 57.9133 78.4073 57.9635 76.7508 59.4969C75.207 60.926 73.4658 61.9711 71.7481 63.1666C68.8695 65.1702 72.0903 62.8171 73.2042 62.1345C75.3612 60.8128 77.0765 58.5531 79.4612 57.619C82.6335 56.3765 91.9395 52.1608 88.89 53.6769C86.1689 55.0298 83.4448 56.3423 80.5858 57.4327C76.9419 58.8224 74.1702 61.3744 70.7455 63.1666C67.8877 64.6622 65.7867 68.2306 63.4583 70.3914" stroke="#242A2B" strokeWidth="1.08517" stroke-linecap="round"/>
<path d="M89.9094 54.0387C91.9861 54.0387 94.0212 53.4202 96.1376 53.58C97.7732 53.7035 99.2046 53.0669 100.809 53.5227" stroke="#242A2B" strokeWidth="1.08517" stroke-linecap="round"/>
<path d="M89.5513 53.356C94.0162 53.356 98.5562 53.614 103.046 53.614" stroke="#242A2B" strokeWidth="1.08517" stroke-linecap="round"/>
<path d="M64.4965 69.8752C63.277 70.01 61.5996 73.7949 61.1229 74.5198" stroke="#242A2B" strokeWidth="1.08517" stroke-linecap="round"/>
<path d="M71.2828 63.6849C69.2898 63.6849 67.1279 67.399 66.2679 68.3151" stroke="#242A2B" strokeWidth="1.08517" stroke-linecap="round"/>
<path d="M101.909 60.1232C102.213 62.5361 107.315 65.1936 109.595 65.1936C110.261 65.1936 113.025 64.3905 111.044 64.8283C109.447 65.1811 108.717 65.5336 107.031 65.5336C105.766 65.5336 104.03 64.2249 103.521 63.1506C103.305 62.6941 104.599 63.6988 105.151 64.0039C105.797 64.3608 106.522 64.6847 107.183 64.8726C109.104 65.4184 114.088 63.2219 114.088 60.4794" stroke="#242A2B" strokeWidth="1.08517" stroke-linecap="round"/>
<path d="M113.014 62.9726C112.966 63.3575 114.36 59.6807 114.904 58.7341C115.04 58.4973 115.553 57.3052 115.88 57.6301M115.88 57.6301C116.355 58.1026 115.28 58.6653 114.98 59.2629C114.521 60.1746 113.966 61.1497 113.593 62.0768C113.219 63.0084 114.097 59.8313 114.736 59.0548C116.417 57.9863 114.596 57.6301 115.88 57.6301ZM115.88 57.6301C125.014 57.9863 127.553 45.716 127.553 41.2466" stroke="#242A2B" strokeWidth="1.08517" stroke-linecap="round"/>
<path d="M149.909 105.645C150.961 105.645 152.932 107.529 154.002 107.175C154.617 106.971 150.796 105.777 150.267 105.702C149.294 105.564 155.256 108.029 154.343 107.666C153.831 107.462 151.103 106.14 150.804 105.645C150.737 105.533 153.141 106.449 153.337 106.495C154.071 106.669 154.312 106.184 153.679 106.004C152.505 105.671 152.4 105.418 151.988 106.155C151.669 106.726 155.962 107.519 154.723 106.835C154.339 106.623 152.42 106.355 152.919 106.665C153.223 106.854 155.974 107.984 154.628 107.609C153.718 107.356 152.311 105.985 152.311 105.985C152.311 105.985 153.619 107.582 154.552 107.685C155.646 107.806 156.213 107.744 157.287 107.685C158.663 107.609 163.031 106.105 163.521 104.643" stroke="#242A2B" strokeWidth="1.08517" stroke-linecap="round"/>
<path d="M108.716 28.2466C98.2559 35.5124 102.089 45.0457 105.313 48.9042C106.447 48.3105 108.465 47.0521 107.462 46.7672C106.208 46.411 103.163 41.7809 106.566 40.0001C109.289 38.5754 110.327 41.7809 110.507 43.5617C111.044 41.6028 112.298 37.2932 113.014 35.7261C115.88 34.4795 120.536 37.685 122.148 38.9316C123.438 39.9288 125.432 39.5845 126.268 39.2877C126.566 39.6439 127.306 40.5699 127.88 41.4247C130.208 42.137 133.432 37.8631 133.432 36.4384C131.856 35.2987 132.775 33.1142 133.432 32.1645C132.059 32.58 129.241 33.1617 128.954 32.1645C128.596 30.9179 123.402 27.7124 119.999 27.3562C114.411 27.9261 111.701 26.2877 111.044 25.3973C110.865 25.8129 110.148 26.9645 108.716 28.2466Z" fill="#242A2B"/>
<path d="M92.417 128.151C94.6856 111.411 99.2228 74.6549 97.79 72.233C95.5214 87.9636 90.9842 123.307 92.417 128.151Z" fill="#242A2B"/>
<path d="M123.581 83.0959C125.909 88.3197 136.942 96.7014 160.297 89.1507C150.685 93.6622 129.456 98.9096 123.581 83.0959Z" fill="#242A2B"/>
<path d="M120.923 45.8764C121.945 47.8066 122.903 51.3946 118.566 50.3046C119.509 49.453 120.923 48.7718 120.923 45.8764Z" fill="#242A2B" stroke="#242A2B" strokeWidth="0.361724"/>
<path d="M105.079 123.061C103.555 119.039 98.2014 111.936 95.2827 108.383C95.3463 107.367 95.4353 105.303 95.2827 105.178C102.19 110.786 104.361 118.969 105.079 123.061C105.363 123.81 105.514 124.453 105.492 124.945C105.428 126.345 105.478 125.335 105.079 123.061Z" fill="#242A2B"/>
<path d="M95.2827 108.383C98.7454 112.598 105.635 121.811 105.492 124.945C105.312 128.863 106.029 113.904 95.2827 105.178C95.4353 105.303 95.3463 107.367 95.2827 108.383Z" stroke="#242A2B" strokeWidth="0.361724"/>
<path d="M97.611 155.575L90.2678 151.123L99.7603 155.575C100.596 155.931 102.518 156.252 103.521 154.685C104.364 153.368 101.052 152.127 98.4487 151.447L97.0737 151.123C97.484 151.208 97.9535 151.317 98.4487 151.447L103.88 152.726C104.357 154.328 103.772 157.142 97.611 155.575Z" fill="#242A2B" stroke="#242A2B" strokeWidth="0.723447"/>
<path d="M164.775 92.1777C166.494 90.8955 170.267 92.2371 171.939 93.0681L165.312 93.6024C163.581 95.027 159.688 98.2681 157.969 99.8352C158.148 93.4243 162.625 93.7804 164.775 92.1777Z" fill="#242A2B"/>
<path d="M71.2832 87.0136C73.2533 82.6209 81.098 76.2218 96.7158 85.767C95.4621 87.0136 77.3011 79.4628 71.2832 87.0136Z" fill="#242A2B"/>
<path d="M122.507 81.6713C121.217 94.0658 113.79 97.1644 110.686 97.1644C117.671 100.904 122.327 88.7352 123.581 83.0959L122.507 81.6713Z" fill="#242A2B" stroke="#242A2B" strokeWidth="0.361724"/>
<path d="M181.969 134.205V123.164H183.043V134.205H181.969Z" fill="#242A2B" stroke="#242A2B" strokeWidth="0.723447"/>
<path d="M184.476 152.726V137.055H185.551V152.726H184.476Z" fill="#242A2B" stroke="#242A2B" strokeWidth="0.723447"/>
<path fillRule="evenodd" clipRule="evenodd" d="M70.8538 52.3099C68.6457 53.3737 66.4377 54.4376 64.2301 55.5015C63.5002 53.9383 62.2671 49.6679 60.4158 49.1227C57.4189 48.2398 59.3272 52.8948 59.8444 53.9591C60.2693 54.8334 61.2549 56.188 61.0157 57.23C60.6947 58.634 58.7158 59.1313 57.6799 59.8556C55.1165 61.6485 55.1368 65.4138 58.8492 63.8183C60.9499 62.9151 63.551 60.4105 65.1611 63.2542C65.9045 64.5662 67.6659 71.8966 69.5057 67.1028C70.644 64.1347 65.165 61.051 67.8661 58.5402C68.7357 57.7322 69.7536 57.664 70.6223 57.1996C72.7201 56.0777 71.5373 54.0046 70.8538 52.3099Z" fill="#242A2B"/>
<path fillRule="evenodd" clipRule="evenodd" d="M190.908 71.2494C194.01 73.4569 197.567 74.9649 200.808 76.953C201.619 77.4506 204.147 78.4838 204.122 79.4068C204.108 79.9465 203.349 80.6232 203.016 80.9972C202.446 81.638 201.91 82.2854 201.384 82.9632C198.978 86.0671 196.711 89.2002 194.103 92.1482C193.71 92.5916 192.527 94.7089 192.145 93.6573C191.972 93.1805 192.115 92.6447 191.664 92.2002C191.431 91.9713 190.534 91.8451 190.795 91.354C190.97 91.4325 191.144 91.5112 191.318 91.5894C191.183 91.197 191.193 90.767 190.99 90.396C190.864 90.1655 190.617 90.0565 190.532 89.7969C190.414 89.4383 190.614 89.0216 190.581 88.6519C190.547 88.2833 190.357 87.9348 190.243 87.587C189.568 85.5254 189.326 83.4472 188.98 81.3201C188.638 79.2154 188.106 77.1765 187.897 75.0484C187.676 72.8005 187.405 70.5572 187.044 68.3274C187.689 68.418 188.184 69.1199 188.64 69.5167C189.357 70.1403 190.135 70.6991 190.908 71.2494ZM188.477 93.0116C188.329 92.8952 188.213 92.7521 188.13 92.5825C189.65 91.8279 188.732 93.1152 188.477 93.0116ZM187.552 91.4023C186.89 91.5853 186.414 91.6224 185.903 91.3492C185.854 91.3234 185.91 91.1237 185.823 91.0827C185.746 91.0472 185.63 91.0912 185.564 91.0578C185.342 90.9444 184.953 91.1929 184.915 90.7588C185.76 90.4994 186.592 90.0209 187.485 89.9403C188.725 89.8284 188.668 91.094 187.552 91.4023ZM184.649 88.9001C183.745 89.112 183 89.6068 182.04 89.4775C181.138 89.3566 180.355 88.888 179.643 88.3481C181.423 87.8433 183.289 87.7523 185.067 87.264C185.645 87.105 186.406 86.6859 187.03 86.8548C187.723 87.0426 187.767 87.6931 187.974 88.285C186.865 88.4849 185.748 88.643 184.649 88.9001ZM178.995 86.3884C178.126 86.5963 177.239 87.051 176.512 86.2663C176.395 86.1397 176.292 86.2661 176.306 85.8761C176.321 85.4647 176.693 85.1998 177.014 85.0549C177.767 84.7145 178.824 84.9346 179.624 84.8845C180.9 84.8049 182.199 84.5391 183.462 84.3344C184.336 84.1928 185.239 83.8784 186.133 83.9404C186.823 83.9884 187.655 84.5775 186.649 85.0072C185.734 85.3988 184.361 85.3388 183.369 85.5083C181.903 85.759 180.442 86.0419 178.995 86.3884ZM178.146 82.2939C178.203 82.3513 178.259 82.4088 178.315 82.4662C178.306 82.4641 178.648 82.1863 178.739 82.1783C179.179 82.1399 179.622 82.1703 180.063 82.1453C181.079 82.0879 182.104 81.9105 183.102 81.7152C183.915 81.556 184.743 81.2817 185.579 81.3504C186.304 81.4099 186.38 81.5586 186.427 82.2592C184.578 82.2592 182.673 82.2201 180.856 82.6124C179.673 82.8676 178.369 83.6278 177.776 82.2574C177.9 82.2696 178.023 82.2817 178.146 82.2939ZM179.303 79.3279C179.761 79.6778 181.011 79.0959 181.561 79.0378C182.158 78.9745 182.719 78.9088 183.298 78.7598C183.81 78.6275 185.507 77.9671 185.901 78.5987C186.504 79.5664 184.062 79.744 183.675 79.7919C182.051 79.9929 180.366 80.1711 178.787 80.5978C178.959 80.1746 179.131 79.7513 179.303 79.3279ZM181.53 76.041C181.648 76.4883 185.32 74.84 185.387 76.038C185.438 76.9571 181.754 77.415 181.092 77.3344C181.247 76.9111 181.66 76.5321 181.53 76.041ZM182.762 73.2294C182.841 72.3272 182.961 72.3324 183.683 72.2474C184.234 72.1826 184.991 71.8591 184.848 72.8426C184.725 73.6848 182.684 74.1399 182.762 73.2294ZM184.075 70.1251C184.249 69.6407 184.64 70.2927 184.648 70.539C184.67 71.1945 184.174 71.0527 183.696 71.0527C183.829 70.7465 183.956 70.4369 184.075 70.1251ZM190.118 66.4891C190.021 66.3716 189.474 66.3267 189.318 66.2697C188.936 66.1292 188.99 65.8298 188.501 66.1251C188.476 66.1004 188.523 65.8783 188.496 65.8681C188.483 65.8629 188.14 65.7333 188.028 65.6617C187.759 65.4891 187.517 65.3202 187.27 65.1036C187.007 64.8736 186.744 64.5397 186.444 64.3564C186.317 64.2792 186.214 64.1697 186.061 64.1461C185.666 64.085 185.779 64.3612 185.433 64.4161C185.22 64.4499 185.065 64.2005 184.786 64.3081C184.545 64.4009 184.405 64.7394 184.298 64.9408C183.908 65.6739 183.607 66.4629 183.225 67.2038C181.272 70.9924 179.052 74.6373 177.16 78.4612C176.249 80.3034 175.298 82.1583 174.657 84.1161C174.194 85.528 173.15 87.5907 174.048 89.0016C174.702 90.0274 176.01 90.4704 177.053 90.9661C178.624 91.7119 180.071 92.6868 181.659 93.4099C183.552 94.2722 185.391 95.1742 187.236 96.1372C188.023 96.5478 188.733 97.1393 189.517 97.5283C189.997 97.7662 190.738 97.3603 190.894 97.9056C191.496 97.1758 192.469 97.6623 193.165 97.1484C193.574 96.8462 193.873 96.2508 194.214 95.8785C194.726 95.3204 195.282 94.8026 195.804 94.2542C197.877 92.0762 199.792 89.8078 201.678 87.4684C203.48 85.2345 205.585 83.1239 207.106 80.6785C207.711 79.7078 207.82 78.6898 207.421 77.6173C207.13 76.835 206.429 75.6538 205.427 76.1718C205.807 75.5395 204.341 74.8643 203.896 74.7407C203.889 74.739 203.802 75.2247 203.678 75.2125C203.722 75.2168 203.305 74.1364 203.122 73.9979C202.578 73.5857 201.917 73.1047 201.324 72.7654C200.78 72.4543 200.206 72.3001 199.679 71.9519C199.04 71.5299 198.454 71.0295 197.813 70.6104C197.194 70.2058 196.504 69.7274 195.819 69.4493C195.226 69.2079 194.693 69.1607 194.159 68.7652C193.499 68.2758 192.923 67.9438 192.161 67.6067C191.502 67.315 190.589 67.0603 190.118 66.4891Z" fill="#242A2B"/>
</svg>
