<svg width="187" height="222" viewBox="0 0 187 222" fill="none" xmlns="http://www.w3.org/2000/svg">
<path opacity="0.41" d="M93.5002 136.445V101.969C93.5002 98.0131 90.3115 94.808 86.376 94.808H32.5134C28.5778 94.808 25.3892 91.603 25.3892 87.6472C25.3892 83.6914 28.5778 80.4863 32.5134 80.4863H146.702C150.638 80.4863 153.826 77.2812 153.826 73.3254C153.826 69.3696 150.638 66.1646 146.702 66.1646H100.596C96.6601 66.1646 93.4715 62.9595 93.4715 59.0037V28.5989" stroke="#6CBBD7" strokeWidth="3" stroke-miterlimit="10" stroke-linecap="round" stroke-linejoin="round"/>
<path d="M93.5002 132.605V98.1284C93.5002 94.1726 90.3115 90.9675 86.376 90.9675H32.5134C28.5778 90.9675 25.3892 87.7625 25.3892 83.8067C25.3892 79.8509 28.5778 76.6458 32.5134 76.6458H146.702C150.638 76.6458 153.826 73.4407 153.826 69.4849C153.826 65.5291 150.638 62.3241 146.702 62.3241H100.596C96.6601 62.3241 93.4715 59.119 93.4715 55.1632V0" stroke="black" strokeWidth="3" stroke-miterlimit="10" stroke-linejoin="round"/>
<path d="M101.831 135.435H85.1692V139.044H101.831V135.435Z" fill="#663C3B"/>
<path d="M99.4465 133.644H87.5249V136.473H99.4465V133.644Z" fill="#663C3B"/>
<path d="M97.8664 131.825H89.1047V134.54H97.8664V131.825Z" fill="#663C3B"/>
<path d="M148.081 139.188H38.9193C17.9775 139.188 1 156.253 1 177.302C1 198.352 17.9775 215.417 38.9193 215.417C53.6561 215.417 66.4394 206.956 72.7019 194.627H114.298C120.561 206.956 133.344 215.417 148.081 215.417C169.023 215.417 186 198.352 186 177.302C186 156.253 169.023 139.188 148.081 139.188Z" fill="#FEC556"/>
<path d="M87.5822 154.087H79.5387C78.9067 154.087 78.3896 153.567 78.3896 152.932C78.3896 152.297 78.9067 151.777 79.5387 151.777H87.5822C88.2142 151.777 88.7313 152.297 88.7313 152.932C88.7313 153.567 88.2429 154.087 87.5822 154.087Z" fill="#F29940"/>
<path d="M110.19 154.174H93.8446C93.2126 154.174 92.6956 153.654 92.6956 153.019C92.6956 152.384 93.2126 151.864 93.8446 151.864H110.19C110.822 151.864 111.339 152.384 111.339 153.019C111.339 153.654 110.851 154.174 110.19 154.174Z" fill="#F29940"/>
<path d="M110.19 158.938H79.5102C78.8782 158.938 78.3611 158.418 78.3611 157.783C78.3611 157.148 78.8782 156.628 79.5102 156.628H110.19C110.822 156.628 111.339 157.148 111.339 157.783C111.339 158.418 110.822 158.938 110.19 158.938Z" fill="#F29940"/>
<path d="M79.1655 182.701C78.16 181.691 78.16 180.045 79.1655 179.034L87.6973 170.458C88.7027 169.448 90.3401 169.448 91.3456 170.458C92.351 171.469 92.351 173.115 91.3456 174.125L82.8137 182.701C81.8083 183.712 80.1709 183.712 79.1655 182.701Z" fill="#F29940"/>
<path d="M98.4123 182.701C97.4068 181.691 97.4068 180.045 98.4123 179.034L106.944 170.458C107.95 169.448 109.587 169.448 110.592 170.458C111.598 171.469 111.598 173.115 110.592 174.125L102.061 182.701C101.055 183.712 99.4177 183.712 98.4123 182.701Z" fill="#F29940"/>
<path d="M38.9193 142.45H148.081C168.563 142.45 185.253 158.504 185.971 178.572C186 178.11 186 177.677 186 177.215C186 156.166 169.023 139.101 148.081 139.101H38.9193C17.9775 139.101 1 156.166 1 177.215C1 177.677 0.999997 178.11 1.02872 178.572C1.71817 158.504 18.4084 142.45 38.9193 142.45Z" fill="#F29940"/>
<path d="M148.081 210.45C133.344 210.45 121.422 204.299 115.16 191.97H71.8401C65.5776 204.299 53.6561 210.45 38.9193 210.45C18.8106 210.45 2.35016 194.684 1.08618 174.79C1.02873 175.598 1 176.407 1 177.244C1 198.294 17.9775 215.358 38.9193 215.358C53.6561 215.358 66.4394 206.898 72.7019 194.569H114.298C120.561 206.898 133.344 215.358 148.081 215.358C169.023 215.358 186 198.294 186 177.244C186 176.407 185.971 175.598 185.914 174.79C184.65 194.684 168.189 210.45 148.081 210.45Z" fill="#F29940"/>
<path d="M39.0627 203.867C52.5482 203.867 63.4804 192.878 63.4804 179.324C63.4804 165.769 52.5482 154.78 39.0627 154.78C25.5773 154.78 14.645 165.769 14.645 179.324C14.645 192.878 25.5773 203.867 39.0627 203.867Z" fill="#F29940"/>
<path d="M39.063 201.499C52.3899 201.499 63.1935 190.64 63.1935 177.245C63.1935 163.849 52.3899 152.99 39.063 152.99C25.7362 152.99 14.9326 163.849 14.9326 177.245C14.9326 190.64 25.7362 201.499 39.063 201.499Z" fill="#835559"/>
<path d="M39.063 197.745C50.3273 197.745 59.4589 188.567 59.4589 177.245C59.4589 165.922 50.3273 156.744 39.063 156.744C27.7986 156.744 18.667 165.922 18.667 177.245C18.667 188.567 27.7986 197.745 39.063 197.745Z" fill="#95676B"/>
<path d="M53.5414 172.625H43.6594V162.692C43.6594 161.97 43.0561 161.364 42.338 161.364H35.7883C35.0701 161.364 34.4668 161.97 34.4668 162.692V172.625H24.5849C23.8667 172.625 23.2634 173.231 23.2634 173.953V180.536C23.2634 181.258 23.8667 181.865 24.5849 181.865H34.4668V191.797C34.4668 192.519 35.0701 193.126 35.7883 193.126H42.338C43.0561 193.126 43.6594 192.519 43.6594 191.797V181.865H53.5414C54.2596 181.865 54.8628 181.258 54.8628 180.536V173.953C54.8628 173.202 54.2596 172.625 53.5414 172.625Z" fill="#663C3B"/>
<path d="M39.063 201.499C52.3899 201.499 63.1935 190.64 63.1935 177.245C63.1935 163.849 52.3899 152.99 39.063 152.99C25.7362 152.99 14.9326 163.849 14.9326 177.245C14.9326 190.64 25.7362 201.499 39.063 201.499Z" stroke="black" stroke-miterlimit="10" stroke-linecap="round" stroke-linejoin="round"/>
<path d="M148.224 203.867C161.71 203.867 172.642 192.878 172.642 179.324C172.642 165.769 161.71 154.78 148.224 154.78C134.739 154.78 123.807 165.769 123.807 179.324C123.807 192.878 134.739 203.867 148.224 203.867Z" fill="#F29940"/>
<path d="M148.224 201.499C161.551 201.499 172.355 190.64 172.355 177.245C172.355 163.849 161.551 152.99 148.224 152.99C134.897 152.99 124.094 163.849 124.094 177.245C124.094 190.64 134.897 201.499 148.224 201.499Z" fill="#835559"/>
<path d="M148.225 197.745C159.489 197.745 168.621 188.567 168.621 177.245C168.621 165.922 159.489 156.744 148.225 156.744C136.96 156.744 127.829 165.922 127.829 177.245C127.829 188.567 136.96 197.745 148.225 197.745Z" fill="#95676B"/>
<path d="M148.224 201.499C161.551 201.499 172.355 190.64 172.355 177.245C172.355 163.849 161.551 152.99 148.224 152.99C134.897 152.99 124.094 163.849 124.094 177.245C124.094 190.64 134.897 201.499 148.224 201.499Z" stroke="black" stroke-miterlimit="10" stroke-linecap="round" stroke-linejoin="round"/>
<path d="M37.1956 166.676L38.7756 163.904C38.8905 163.702 39.1778 163.702 39.2927 163.904L40.8727 166.676C40.9876 166.878 40.8439 167.138 40.6141 167.138H37.4255C37.2244 167.138 37.0807 166.878 37.1956 166.676Z" fill="#FEC556"/>
<path d="M37.1956 187.812L38.7756 190.584C38.8905 190.786 39.1778 190.786 39.2927 190.584L40.8727 187.812C40.9876 187.61 40.8439 187.35 40.6141 187.35H37.4255C37.2244 187.35 37.0807 187.61 37.1956 187.812Z" fill="#FEC556"/>
<path d="M53.5414 172.625H43.6594V162.692C43.6594 161.97 43.0561 161.364 42.338 161.364H35.7883C35.0701 161.364 34.4668 161.97 34.4668 162.692V172.625H24.5849C23.8667 172.625 23.2634 173.231 23.2634 173.953V180.536C23.2634 181.258 23.8667 181.865 24.5849 181.865H34.4668V191.797C34.4668 192.519 35.0701 193.126 35.7883 193.126H42.338C43.0561 193.126 43.6594 192.519 43.6594 191.797V181.865H53.5414C54.2596 181.865 54.8628 181.258 54.8628 180.536V173.953C54.8628 173.202 54.2596 172.625 53.5414 172.625Z" stroke="#663C3B" strokeWidth="3" stroke-miterlimit="10" stroke-linecap="round" stroke-linejoin="round"/>
<path d="M49.06 175.367L51.8177 176.955C52.0188 177.071 52.0188 177.36 51.8177 177.475L49.06 179.063C48.8589 179.179 48.6003 179.034 48.6003 178.803V175.598C48.6003 175.396 48.8589 175.252 49.06 175.367Z" fill="#FEC556"/>
<path d="M28.549 175.367L25.7912 176.955C25.5901 177.071 25.5901 177.36 25.7912 177.475L28.549 179.063C28.75 179.179 29.0086 179.034 29.0086 178.803V175.598C29.0086 175.396 28.75 175.252 28.549 175.367Z" fill="#FEC556"/>
<path d="M122.141 137.398H148.224C153.826 137.398 159.169 138.582 164.024 140.69" stroke="black" strokeWidth="3" stroke-miterlimit="10" stroke-linecap="round" stroke-linejoin="round"/>
<path d="M23.2634 140.69C28.1182 138.553 33.4614 137.398 39.0631 137.398H64.6873" stroke="black" strokeWidth="3" stroke-miterlimit="10" stroke-linecap="round" stroke-linejoin="round"/>
<path d="M148.081 139.13H38.9193C17.9775 139.13 1 156.195 1 177.245C1 198.294 17.9775 215.359 38.9193 215.359C53.6561 215.359 66.4394 206.899 72.7019 194.569H114.298C120.561 206.899 133.344 215.359 148.081 215.359C169.023 215.359 186 198.294 186 177.245C186 156.195 169.023 139.13 148.081 139.13Z" stroke="black" stroke-miterlimit="10" stroke-linecap="round" stroke-linejoin="round"/>
<path opacity="0.17" d="M152.103 173.693L140.727 185.127C138.256 187.61 134.263 187.61 131.793 185.127C129.322 182.644 129.322 178.63 131.793 176.147L143.169 164.713C145.639 162.23 149.632 162.23 152.103 164.713C154.573 167.167 154.573 171.21 152.103 173.693Z" fill="black"/>
<path d="M151.528 172.537L140.152 183.972C137.682 186.455 133.689 186.455 131.218 183.972C128.748 181.489 128.748 177.475 131.218 174.992L142.594 163.557C145.064 161.074 149.057 161.074 151.528 163.557C153.998 166.012 153.998 170.054 151.528 172.537Z" fill="#FEC556"/>
<path d="M151.528 172.537L140.152 183.972C137.682 186.455 133.689 186.455 131.218 183.972C128.748 181.489 128.748 177.475 131.218 174.992L142.594 163.557C145.064 161.074 149.057 161.074 151.528 163.557C153.998 166.012 153.998 170.054 151.528 172.537Z" stroke="#663C3B" strokeWidth="3" stroke-miterlimit="10" stroke-linecap="round" stroke-linejoin="round"/>
<path d="M135.7 183.51C137.921 183.51 139.721 181.7 139.721 179.468C139.721 177.235 137.921 175.425 135.7 175.425C133.479 175.425 131.678 177.235 131.678 179.468C131.678 181.7 133.479 183.51 135.7 183.51Z" fill="#32B94D"/>
<path d="M133.114 179.237C133.229 177.793 134.493 176.754 135.929 176.869" stroke="#663C3B" strokeWidth="3" stroke-miterlimit="10" stroke-linecap="round" stroke-linejoin="round"/>
<path d="M135.7 183.51C137.921 183.51 139.721 181.7 139.721 179.468C139.721 177.235 137.921 175.425 135.7 175.425C133.479 175.425 131.678 177.235 131.678 179.468C131.678 181.7 133.479 183.51 135.7 183.51Z" stroke="#663C3B" strokeWidth="3" stroke-miterlimit="10" stroke-linecap="round" stroke-linejoin="round"/>
<path d="M144.49 168.033C144.49 166.589 145.639 165.434 147.075 165.434" stroke="#663C3B" strokeWidth="3" stroke-miterlimit="10" stroke-linecap="round" stroke-linejoin="round"/>
<path d="M147.075 172.076C149.296 172.076 151.097 170.266 151.097 168.033C151.097 165.801 149.296 163.991 147.075 163.991C144.854 163.991 143.053 165.801 143.053 168.033C143.053 170.266 144.854 172.076 147.075 172.076Z" stroke="#663C3B" strokeWidth="3" stroke-miterlimit="10" stroke-linecap="round" stroke-linejoin="round"/>
<path opacity="0.17" d="M165.489 181.257L154.113 192.692C151.643 195.175 147.65 195.175 145.179 192.692C142.709 190.208 142.709 186.195 145.179 183.712L156.555 172.277C159.026 169.794 163.019 169.794 165.489 172.277C167.96 174.761 167.96 178.774 165.489 181.257Z" fill="black"/>
<path d="M165.202 179.814L153.826 191.248C151.356 193.732 147.363 193.732 144.892 191.248C142.422 188.765 142.422 184.752 144.892 182.268L156.268 170.834C158.738 168.351 162.731 168.351 165.202 170.834C167.672 173.317 167.672 177.331 165.202 179.814Z" fill="#FEC556"/>
<path d="M165.202 179.814L153.826 191.248C151.356 193.732 147.363 193.732 144.892 191.248C142.422 188.765 142.422 184.752 144.892 182.268L156.268 170.834C158.738 168.351 162.731 168.351 165.202 170.834C167.672 173.317 167.672 177.331 165.202 179.814Z" stroke="#663C3B" strokeWidth="3" stroke-miterlimit="10" stroke-linecap="round" stroke-linejoin="round"/>
<path d="M149.374 190.815C151.595 190.815 153.395 189.005 153.395 186.773C153.395 184.54 151.595 182.73 149.374 182.73C147.152 182.73 145.352 184.54 145.352 186.773C145.352 189.005 147.152 190.815 149.374 190.815Z" fill="#FEF585"/>
<path d="M146.788 186.773C146.788 185.33 147.937 184.175 149.373 184.175" stroke="#663C3B" strokeWidth="3" stroke-miterlimit="10" stroke-linecap="round" stroke-linejoin="round"/>
<path d="M149.374 190.815C151.595 190.815 153.395 189.005 153.395 186.773C153.395 184.54 151.595 182.73 149.374 182.73C147.152 182.73 145.352 184.54 145.352 186.773C145.352 189.005 147.152 190.815 149.374 190.815Z" stroke="#663C3B" strokeWidth="3" stroke-miterlimit="10" stroke-linecap="round" stroke-linejoin="round"/>
<path d="M160.749 179.381C162.97 179.381 164.771 177.571 164.771 175.338C164.771 173.106 162.97 171.296 160.749 171.296C158.528 171.296 156.728 173.106 156.728 175.338C156.728 177.571 158.528 179.381 160.749 179.381Z" fill="#E7503B"/>
<path d="M158.164 175.339C158.164 173.895 159.313 172.74 160.749 172.74" stroke="#663C3B" strokeWidth="3" stroke-miterlimit="10" stroke-linecap="round" stroke-linejoin="round"/>
<path d="M160.749 179.381C162.97 179.381 164.771 177.571 164.771 175.338C164.771 173.106 162.97 171.296 160.749 171.296C158.528 171.296 156.728 173.106 156.728 175.338C156.728 177.571 158.528 179.381 160.749 179.381Z" stroke="#663C3B" strokeWidth="3" stroke-miterlimit="10" stroke-linecap="round" stroke-linejoin="round"/>
<path d="M79.1655 181.547C78.16 180.536 78.16 178.89 79.1655 177.88L87.6973 169.304C88.7027 168.293 90.3401 168.293 91.3456 169.304C92.351 170.315 92.351 171.96 91.3456 172.971L82.8137 181.547C81.8083 182.557 80.1709 182.557 79.1655 181.547Z" fill="#663C3B"/>
<path d="M98.4123 181.547C97.4068 180.536 97.4068 178.89 98.4123 177.88L106.944 169.304C107.95 168.293 109.587 168.293 110.592 169.304C111.598 170.315 111.598 171.96 110.592 172.971L102.061 181.547C101.055 182.557 99.4177 182.557 98.4123 181.547Z" fill="#663C3B"/>
<path d="M39.0628 181.865C41.6011 181.865 43.6591 179.796 43.6591 177.245C43.6591 174.693 41.6011 172.625 39.0628 172.625C36.5242 172.625 34.4666 174.693 34.4666 177.245C34.4666 179.796 36.5242 181.865 39.0628 181.865Z" fill="#FEC556"/>
<path d="M39.0628 180.911C36.736 180.911 34.7251 179.063 34.4953 176.753C34.4666 176.898 34.4666 177.071 34.4666 177.215C34.4666 179.727 36.5636 181.835 39.0628 181.835C41.562 181.835 43.6591 179.727 43.6591 177.215C43.6591 177.042 43.6591 176.898 43.6304 176.753C43.3718 179.063 41.3897 180.911 39.0628 180.911Z" fill="#F29940"/>
<path d="M35.6157 177.244C35.6157 175.367 37.1957 173.779 39.0629 173.779" stroke="#663C3B" strokeWidth="3" stroke-miterlimit="10" stroke-linecap="round" stroke-linejoin="round"/>
</svg>
