<svg width="224" height="228" viewBox="0 0 224 228" fill="none" xmlns="http://www.w3.org/2000/svg">
<path opacity="0.41" d="M176.552 136.415H47.0018C22.1485 136.415 2 156.563 2 181.417C2 206.27 22.1485 226.418 47.0018 226.418C64.4911 226.418 79.6621 216.429 87.0942 201.872H136.46C143.892 216.429 159.063 226.418 176.552 226.418C201.406 226.418 221.554 206.27 221.554 181.417C221.554 156.563 201.406 136.415 176.552 136.415Z" fill="black" stroke="black" strokeWidth="3" stroke-miterlimit="10" stroke-linecap="round" stroke-linejoin="round"/>
<path opacity="0.41" d="M111.777 125.403V84.697C111.777 80.0264 107.993 76.2421 103.322 76.2421H39.3993C34.7286 76.2421 30.9444 72.4579 30.9444 67.7872C30.9444 63.1166 34.7286 59.3324 39.3993 59.3324H174.916C179.587 59.3324 183.371 55.5481 183.371 50.8775C183.371 46.2069 179.587 42.4226 174.916 42.4226H120.198C115.527 42.4226 111.743 38.6384 111.743 33.9677V-1.9314" stroke="black" strokeWidth="3" stroke-miterlimit="10" stroke-linecap="round" stroke-linejoin="round"/>
<path d="M111.777 120.869V80.1624C111.777 75.4918 107.993 71.7076 103.322 71.7076H39.3993C34.7286 71.7076 30.9444 67.9233 30.9444 63.2527C30.9444 58.582 34.7286 54.7978 39.3993 54.7978H174.916C179.587 54.7978 183.371 51.0136 183.371 46.3429C183.371 41.6723 179.587 37.888 174.916 37.888H120.198C115.527 37.888 111.743 34.1038 111.743 29.4332V-5" stroke="black" strokeWidth="3" stroke-miterlimit="10" stroke-linejoin="round"/>
<path d="M121.664 124.21H101.89V128.472H121.664V124.21Z" fill="#663C3B"/>
<path d="M118.834 122.095H104.686V125.437H118.834V122.095Z" fill="#663C3B"/>
<path d="M116.959 119.948H106.561V123.153H116.959V119.948Z" fill="#663C3B"/>
<path d="M176.552 128.642H47.0018C22.1485 128.642 2 148.79 2 173.644C2 198.497 22.1485 218.645 47.0018 218.645C64.4911 218.645 79.6621 208.656 87.0942 194.099H136.46C143.892 208.656 159.063 218.645 176.552 218.645C201.406 218.645 221.554 198.497 221.554 173.644C221.554 148.79 201.406 128.642 176.552 128.642Z" fill="#FEC556"/>
<path d="M104.754 146.233H95.2081C94.458 146.233 93.8444 145.619 93.8444 144.869C93.8444 144.119 94.458 143.506 95.2081 143.506H104.754C105.504 143.506 106.118 144.119 106.118 144.869C106.118 145.619 105.538 146.233 104.754 146.233Z" fill="#F29940"/>
<path d="M131.584 146.336H112.186C111.436 146.336 110.822 145.722 110.822 144.972C110.822 144.222 111.436 143.609 112.186 143.609H131.584C132.334 143.609 132.948 144.222 132.948 144.972C132.948 145.722 132.369 146.336 131.584 146.336Z" fill="#F29940"/>
<path d="M131.585 151.961H95.1743C94.4243 151.961 93.8106 151.347 93.8106 150.597C93.8106 149.847 94.4243 149.233 95.1743 149.233H131.585C132.335 149.233 132.949 149.847 132.949 150.597C132.949 151.347 132.335 151.961 131.585 151.961Z" fill="#F29940"/>
<path d="M94.765 180.018C93.5718 178.825 93.5718 176.882 94.765 175.688L104.89 165.563C106.084 164.37 108.027 164.37 109.22 165.563C110.413 166.756 110.413 168.699 109.22 169.893L99.0948 180.018C97.9015 181.211 95.9583 181.211 94.765 180.018Z" fill="#F29940"/>
<path d="M117.607 180.018C116.414 178.825 116.414 176.882 117.607 175.688L127.732 165.563C128.925 164.37 130.869 164.37 132.062 165.563C133.255 166.756 133.255 168.699 132.062 169.893L121.937 180.018C120.743 181.211 118.8 181.211 117.607 180.018Z" fill="#F29940"/>
<path d="M47.0018 132.494H176.552C200.86 132.494 220.668 151.449 221.52 175.143C221.554 174.597 221.554 174.086 221.554 173.541C221.554 148.687 201.406 128.539 176.552 128.539H47.0018C22.1485 128.539 2 148.687 2 173.541C2 174.086 2 174.597 2.03409 175.143C2.8523 151.449 22.6599 132.494 47.0018 132.494Z" fill="#F29940"/>
<path d="M176.552 212.781C159.063 212.781 144.915 205.519 137.483 190.962H86.0715C78.6394 205.519 64.4911 212.781 47.0018 212.781C23.1372 212.781 3.60234 194.167 2.10228 170.677C2.03409 171.632 2 172.586 2 173.575C2 198.428 22.1485 218.577 47.0018 218.577C64.4911 218.577 79.6621 208.588 87.0942 194.03H136.46C143.892 208.588 159.063 218.577 176.552 218.577C201.406 218.577 221.554 198.428 221.554 173.575C221.554 172.586 221.52 171.632 221.452 170.677C219.952 194.167 200.417 212.781 176.552 212.781Z" fill="#F29940"/>
<path d="M47.1721 205.009C63.1764 205.009 76.1505 192.034 76.1505 176.03C76.1505 160.026 63.1764 147.052 47.1721 147.052C31.1679 147.052 18.1937 160.026 18.1937 176.03C18.1937 192.034 31.1679 205.009 47.1721 205.009Z" fill="#F29940"/>
<path d="M47.1723 202.213C62.9884 202.213 75.8098 189.392 75.8098 173.576C75.8098 157.76 62.9884 144.938 47.1723 144.938C31.3563 144.938 18.5349 157.76 18.5349 173.576C18.5349 189.392 31.3563 202.213 47.1723 202.213Z" fill="#835559"/>
<path d="M47.1722 197.781C60.5405 197.781 71.3777 186.944 71.3777 173.575C71.3777 160.207 60.5405 149.37 47.1722 149.37C33.804 149.37 22.9667 160.207 22.9667 173.575C22.9667 186.944 33.804 197.781 47.1722 197.781Z" fill="#95676B"/>
<path d="M64.3549 168.121H52.6271V156.393C52.6271 155.541 51.9112 154.825 51.0589 154.825H43.2859C42.4335 154.825 41.7176 155.541 41.7176 156.393V168.121H29.9899C29.1376 168.121 28.4216 168.837 28.4216 169.689V177.462C28.4216 178.314 29.1376 179.03 29.9899 179.03H41.7176V190.758C41.7176 191.61 42.4335 192.326 43.2859 192.326H51.0589C51.9112 192.326 52.6271 191.61 52.6271 190.758V179.03H64.3549C65.2072 179.03 65.9231 178.314 65.9231 177.462V169.689C65.9231 168.803 65.2072 168.121 64.3549 168.121Z" fill="#663C3B"/>
<path d="M47.1723 202.213C62.9884 202.213 75.8098 189.392 75.8098 173.576C75.8098 157.76 62.9884 144.938 47.1723 144.938C31.3563 144.938 18.5349 157.76 18.5349 173.576C18.5349 189.392 31.3563 202.213 47.1723 202.213Z" stroke="black" strokeWidth="3" stroke-miterlimit="10" stroke-linecap="round" stroke-linejoin="round"/>
<path d="M176.723 205.009C192.727 205.009 205.701 192.034 205.701 176.03C205.701 160.026 192.727 147.052 176.723 147.052C160.719 147.052 147.744 160.026 147.744 176.03C147.744 192.034 160.719 205.009 176.723 205.009Z" fill="#F29940"/>
<path d="M176.723 202.213C192.539 202.213 205.36 189.392 205.36 173.576C205.36 157.76 192.539 144.938 176.723 144.938C160.906 144.938 148.085 157.76 148.085 173.576C148.085 189.392 160.906 202.213 176.723 202.213Z" fill="#835559"/>
<path d="M176.723 197.781C190.091 197.781 200.928 186.944 200.928 173.575C200.928 160.207 190.091 149.37 176.723 149.37C163.355 149.37 152.517 160.207 152.517 173.575C152.517 186.944 163.355 197.781 176.723 197.781Z" fill="#95676B"/>
<path d="M176.723 202.213C192.539 202.213 205.36 189.392 205.36 173.576C205.36 157.76 192.539 144.938 176.723 144.938C160.906 144.938 148.085 157.76 148.085 173.576C148.085 189.392 160.906 202.213 176.723 202.213Z" stroke="black" strokeWidth="3" stroke-miterlimit="10" stroke-linecap="round" stroke-linejoin="round"/>
<path d="M44.9563 161.097L46.8313 157.824C46.9677 157.586 47.3086 157.586 47.445 157.824L49.3201 161.097C49.4564 161.336 49.286 161.643 49.0132 161.643H45.229C44.9904 161.643 44.8199 161.336 44.9563 161.097Z" fill="#FEC556"/>
<path d="M44.9563 186.053L46.8313 189.326C46.9677 189.564 47.3086 189.564 47.445 189.326L49.3201 186.053C49.4564 185.814 49.286 185.507 49.0132 185.507H45.229C44.9904 185.507 44.8199 185.814 44.9563 186.053Z" fill="#FEC556"/>
<path d="M64.3549 168.121H52.6271V156.393C52.6271 155.541 51.9112 154.825 51.0589 154.825H43.2859C42.4335 154.825 41.7176 155.541 41.7176 156.393V168.121H29.9899C29.1376 168.121 28.4216 168.837 28.4216 169.689V177.462C28.4216 178.314 29.1376 179.03 29.9899 179.03H41.7176V190.758C41.7176 191.61 42.4335 192.326 43.2859 192.326H51.0589C51.9112 192.326 52.6271 191.61 52.6271 190.758V179.03H64.3549C65.2072 179.03 65.9231 178.314 65.9231 177.462V169.689C65.9231 168.803 65.2072 168.121 64.3549 168.121Z" stroke="#663C3B" strokeWidth="3" stroke-miterlimit="10" stroke-linecap="round" stroke-linejoin="round"/>
<path d="M59.0365 171.359L62.3094 173.234C62.548 173.37 62.548 173.711 62.3094 173.848L59.0365 175.723C58.7979 175.859 58.491 175.689 58.491 175.416V171.632C58.491 171.393 58.7979 171.223 59.0365 171.359Z" fill="#FEC556"/>
<path d="M34.6946 171.359L31.4217 173.234C31.1831 173.37 31.1831 173.711 31.4217 173.848L34.6946 175.723C34.9332 175.859 35.24 175.689 35.24 175.416V171.632C35.24 171.393 34.9332 171.223 34.6946 171.359Z" fill="#FEC556"/>
<path d="M145.767 126.528H176.723C183.371 126.528 189.712 127.926 195.473 130.415" stroke="black" strokeWidth="3" stroke-miterlimit="10" stroke-linecap="round" stroke-linejoin="round"/>
<path d="M28.4216 130.415C34.1832 127.892 40.5244 126.528 47.1724 126.528H77.5827" stroke="black" strokeWidth="3" stroke-miterlimit="10" stroke-linecap="round" stroke-linejoin="round"/>
<path d="M176.552 128.573H47.0018C22.1485 128.573 2 148.722 2 173.575C2 198.428 22.1485 218.577 47.0018 218.577C64.4911 218.577 79.6621 208.588 87.0942 194.031H136.46C143.892 208.588 159.063 218.577 176.552 218.577C201.406 218.577 221.554 198.428 221.554 173.575C221.554 148.722 201.406 128.573 176.552 128.573Z" stroke="black" strokeWidth="3" stroke-miterlimit="10" stroke-linecap="round" stroke-linejoin="round"/>
<path opacity="0.17" d="M181.325 169.382L167.825 182.882C164.893 185.814 160.154 185.814 157.222 182.882C154.29 179.951 154.29 175.212 157.222 172.28L170.723 158.779C173.654 155.847 178.393 155.847 181.325 158.779C184.257 161.677 184.257 166.45 181.325 169.382Z" fill="black"/>
<path d="M180.643 168.017L167.143 181.518C164.211 184.45 159.472 184.45 156.54 181.518C153.608 178.586 153.608 173.847 156.54 170.915L170.041 157.415C172.973 154.483 177.711 154.483 180.643 157.415C183.575 160.313 183.575 165.086 180.643 168.017Z" fill="#FEC556"/>
<path d="M180.643 168.017L167.143 181.518C164.211 184.45 159.472 184.45 156.54 181.518C153.608 178.586 153.608 173.847 156.54 170.915L170.041 157.415C172.973 154.483 177.711 154.483 180.643 157.415C183.575 160.313 183.575 165.086 180.643 168.017Z" stroke="#663C3B" strokeWidth="3" stroke-miterlimit="10" stroke-linecap="round" stroke-linejoin="round"/>
<path d="M161.859 180.973C164.495 180.973 166.632 178.836 166.632 176.2C166.632 173.564 164.495 171.427 161.859 171.427C159.223 171.427 157.086 173.564 157.086 176.2C157.086 178.836 159.223 180.973 161.859 180.973Z" fill="#32B94D"/>
<path d="M158.79 175.928C158.927 174.223 160.427 172.996 162.131 173.132" stroke="#663C3B" strokeWidth="3" stroke-miterlimit="10" stroke-linecap="round" stroke-linejoin="round"/>
<path d="M161.859 180.973C164.495 180.973 166.632 178.836 166.632 176.2C166.632 173.564 164.495 171.427 161.859 171.427C159.223 171.427 157.086 173.564 157.086 176.2C157.086 178.836 159.223 180.973 161.859 180.973Z" stroke="#663C3B" strokeWidth="3" stroke-miterlimit="10" stroke-linecap="round" stroke-linejoin="round"/>
<path d="M175.359 167.472C177.995 167.472 180.132 165.335 180.132 162.699C180.132 160.063 177.995 157.927 175.359 157.927C172.723 157.927 170.586 160.063 170.586 162.699C170.586 165.335 172.723 167.472 175.359 167.472Z" fill="#8BD8F5"/>
<path d="M172.291 162.699C172.291 160.995 173.654 159.631 175.359 159.631" stroke="#663C3B" strokeWidth="3" stroke-miterlimit="10" stroke-linecap="round" stroke-linejoin="round"/>
<path d="M175.359 167.472C177.995 167.472 180.132 165.335 180.132 162.699C180.132 160.063 177.995 157.927 175.359 157.927C172.723 157.927 170.586 160.063 170.586 162.699C170.586 165.335 172.723 167.472 175.359 167.472Z" stroke="#663C3B" strokeWidth="3" stroke-miterlimit="10" stroke-linecap="round" stroke-linejoin="round"/>
<path opacity="0.17" d="M197.212 178.313L183.711 191.814C180.78 194.746 176.041 194.746 173.109 191.814C170.177 188.882 170.177 184.143 173.109 181.211L186.609 167.711C189.541 164.779 194.28 164.779 197.212 167.711C200.144 170.643 200.144 175.381 197.212 178.313Z" fill="black"/>
<path d="M196.871 176.609L183.371 190.11C180.439 193.042 175.7 193.042 172.768 190.11C169.836 187.178 169.836 182.439 172.768 179.507L186.269 166.007C189.2 163.075 193.939 163.075 196.871 166.007C199.803 168.939 199.803 173.677 196.871 176.609Z" fill="#FEC556"/>
<path d="M196.871 176.609L183.371 190.11C180.439 193.042 175.7 193.042 172.768 190.11C169.836 187.178 169.836 182.439 172.768 179.507L186.269 166.007C189.2 163.075 193.939 163.075 196.871 166.007C199.803 168.939 199.803 173.677 196.871 176.609Z" stroke="#663C3B" strokeWidth="3" stroke-miterlimit="10" stroke-linecap="round" stroke-linejoin="round"/>
<path d="M178.087 189.598C180.723 189.598 182.859 187.461 182.859 184.825C182.859 182.189 180.723 180.052 178.087 180.052C175.451 180.052 173.314 182.189 173.314 184.825C173.314 187.461 175.451 189.598 178.087 189.598Z" fill="#FEF585"/>
<path d="M175.018 184.826C175.018 183.122 176.382 181.758 178.086 181.758" stroke="#663C3B" strokeWidth="3" stroke-miterlimit="10" stroke-linecap="round" stroke-linejoin="round"/>
<path d="M178.087 189.598C180.723 189.598 182.859 187.461 182.859 184.825C182.859 182.189 180.723 180.052 178.087 180.052C175.451 180.052 173.314 182.189 173.314 184.825C173.314 187.461 175.451 189.598 178.087 189.598Z" stroke="#663C3B" strokeWidth="3" stroke-miterlimit="10" stroke-linecap="round" stroke-linejoin="round"/>
<path d="M191.587 176.098C194.223 176.098 196.36 173.961 196.36 171.325C196.36 168.689 194.223 166.552 191.587 166.552C188.951 166.552 186.814 168.689 186.814 171.325C186.814 173.961 188.951 176.098 191.587 176.098Z" fill="#E7503B"/>
<path d="M188.519 171.325C188.519 169.621 189.882 168.257 191.587 168.257" stroke="#663C3B" strokeWidth="3" stroke-miterlimit="10" stroke-linecap="round" stroke-linejoin="round"/>
<path d="M191.587 176.098C194.223 176.098 196.36 173.961 196.36 171.325C196.36 168.689 194.223 166.552 191.587 166.552C188.951 166.552 186.814 168.689 186.814 171.325C186.814 173.961 188.951 176.098 191.587 176.098Z" stroke="#663C3B" strokeWidth="3" stroke-miterlimit="10" stroke-linecap="round" stroke-linejoin="round"/>
<path d="M94.765 178.655C93.5718 177.462 93.5718 175.518 94.765 174.325L104.89 164.2C106.084 163.007 108.027 163.007 109.22 164.2C110.413 165.393 110.413 167.336 109.22 168.53L99.0948 178.655C97.9015 179.848 95.9583 179.848 94.765 178.655Z" fill="#663C3B"/>
<path d="M117.607 178.655C116.414 177.462 116.414 175.518 117.607 174.325L127.732 164.2C128.925 163.007 130.869 163.007 132.062 164.2C133.255 165.393 133.255 167.336 132.062 168.53L121.937 178.655C120.743 179.848 118.8 179.848 117.607 178.655Z" fill="#663C3B"/>
<path d="M47.1722 179.03C50.1846 179.03 52.6269 176.588 52.6269 173.576C52.6269 170.563 50.1846 168.121 47.1722 168.121C44.1594 168.121 41.7174 170.563 41.7174 173.576C41.7174 176.588 44.1594 179.03 47.1722 179.03Z" fill="#FEC556"/>
<path d="M47.1722 177.904C44.4107 177.904 42.0242 175.722 41.7515 172.995C41.7174 173.166 41.7174 173.37 41.7174 173.541C41.7174 176.507 44.2061 178.995 47.1722 178.995C50.1382 178.995 52.6269 176.507 52.6269 173.541C52.6269 173.336 52.6269 173.166 52.5928 172.995C52.286 175.722 49.9336 177.904 47.1722 177.904Z" fill="#F29940"/>
<path d="M43.0811 173.575C43.0811 171.359 44.9562 169.484 47.1722 169.484" stroke="#663C3B" strokeWidth="3" stroke-miterlimit="10" stroke-linecap="round" stroke-linejoin="round"/>
</svg>
