<svg width="25" height="24" viewBox="0 0 25 24" fill="none" xmlns="http://www.w3.org/2000/svg">
<path d="M6.5 12H10.5M8.5 10V14M15.5 13H15.51M18.5 11H18.51M5.7 18H19.3C20.4201 18 20.9802 18 21.408 17.782C21.7843 17.5903 22.0903 17.2843 22.282 16.908C22.5 16.4802 22.5 15.9201 22.5 14.8V9.2C22.5 8.0799 22.5 7.51984 22.282 7.09202C22.0903 6.71569 21.7843 6.40973 21.408 6.21799C20.9802 6 20.4201 6 19.3 6H5.7C4.57989 6 4.01984 6 3.59202 6.21799C3.21569 6.40973 2.90973 6.71569 2.71799 7.09202C2.5 7.51984 2.5 8.07989 2.5 9.2V14.8C2.5 15.9201 2.5 16.4802 2.71799 16.908C2.90973 17.2843 3.21569 17.5903 3.59202 17.782C4.01984 18 4.5799 18 5.7 18Z" stroke="#F4EFD3" strokeWidth="2" stroke-linecap="round" stroke-linejoin="round"/>
</svg>
