<svg width="10" height="8" viewBox="0 0 10 8" fill="none" xmlns="http://www.w3.org/2000/svg">
<path fillRule="evenodd" clipRule="evenodd" d="M2.70659 3.29919C2.61435 3.20368 2.504 3.12749 2.382 3.07508C2.25999 3.02267 2.12877 2.99509 1.99599 2.99393C1.86321 2.99278 1.73154 3.01808 1.60864 3.06836C1.48574 3.11864 1.37409 3.1929 1.2802 3.28679C1.18631 3.38068 1.11205 3.49233 1.06177 3.61523C1.01149 3.73813 0.986189 3.86981 0.987342 4.00259C0.988496 4.13537 1.01608 4.26659 1.06849 4.38859C1.1209 4.51059 1.19708 4.62094 1.29259 4.71318L3.29259 6.71318C3.48012 6.90066 3.73443 7.00597 3.99959 7.00597C4.26476 7.00597 4.51906 6.90066 4.70659 6.71318L8.70659 2.71318C8.8021 2.62094 8.87829 2.51059 8.93069 2.38859C8.9831 2.26659 9.01069 2.13537 9.01184 2.00259C9.013 1.86981 8.9877 1.73813 8.93741 1.61523C8.88713 1.49233 8.81288 1.38068 8.71899 1.28679C8.62509 1.1929 8.51344 1.11864 8.39055 1.06836C8.26765 1.01808 8.13597 0.99278 8.00319 0.993934C7.87041 0.995088 7.73919 1.02267 7.61719 1.07508C7.49518 1.12749 7.38484 1.20368 7.29259 1.29919L3.99959 4.59219L2.70659 3.29919Z" fill="#272B52"/>
</svg>
