<svg width="200" height="163" viewBox="0 0 200 163" fill="none" xmlns="http://www.w3.org/2000/svg">
<path d="M39.5154 72.976L8.43454 59.3616C7.72816 59.0522 7.42415 58.2649 7.75897 57.6121L36.4315 1.70918C36.7663 1.05638 37.6182 0.775438 38.3246 1.08486L74.2859 16.837C74.9923 17.1464 75.2963 17.9337 74.9615 18.5865L48.6083 69.9673C46.989 73.1245 42.9188 74.4668 39.5154 72.976Z" fill="#FCA417"/>
<path opacity="0.33" d="M9.49961 57.8369L37.7217 2.81226C38.1783 1.92209 39.333 1.54125 40.2963 1.96319L38.7808 1.29935C37.8175 0.877413 36.6627 1.25825 36.2062 2.14842L7.9841 57.173C7.52753 58.0632 7.93963 59.1304 8.90288 59.5523L10.4184 60.2162C9.44905 59.8061 9.04304 58.7271 9.49961 57.8369Z" fill="white"/>
<path d="M24.9367 51.7201C28.6109 53.3295 33.0014 51.8816 34.7429 48.4861C36.4845 45.0906 34.9177 41.0332 31.2435 39.4238C27.5693 37.8144 23.1788 39.2623 21.4373 42.6578C19.6957 46.0533 21.2625 50.1106 24.9367 51.7201Z" fill="#FCA84C"/>
<path opacity="0.66" d="M25.0733 39.8317C28.654 38.2169 32.9628 39.5374 34.8102 42.774C34.7771 42.7159 34.7501 42.646 34.717 42.5878C32.9426 39.2087 28.5237 37.7964 24.8739 39.4537C21.2242 41.1109 19.6892 45.1771 21.4825 48.55C21.5156 48.6081 21.5555 48.6837 21.5886 48.7418C19.9548 45.3952 21.4797 41.4409 25.0733 39.8317Z" fill="#FCA84C"/>
<path d="M73.8237 16.6345L72.2182 15.9313C73.1815 16.3532 73.6321 17.4373 73.1755 18.3275L48.1008 67.2158C45.9031 71.5005 40.3246 73.3304 35.6753 71.2939L37.2807 71.9971C41.9172 74.028 47.4768 72.2044 49.6805 67.9078L74.7492 19.0313C75.1929 18.1355 74.7869 17.0565 73.8237 16.6345Z" fill="#FCA84C"/>
<path d="M32.1561 69.7524L37.2678 71.9915C41.9042 74.0224 47.4638 72.1988 49.6675 67.9022L52.0904 63.1783L32.1561 69.7524Z" fill="#FCA84C"/>
<path d="M37.8524 70.8519L10.5604 58.8971C9.90541 58.6102 9.11031 58.8724 8.79984 59.4777L8.78767 59.5014L37.2741 71.9794C44.7361 75.248 47.4702 72.1867 49.6739 67.8901L50.2522 66.7625C48.0485 71.0591 42.5017 72.8884 37.8524 70.8519Z" fill="#FCA84C"/>
<path d="M39.5154 72.976L8.43454 59.3616C7.72816 59.0522 7.42415 58.2649 7.75897 57.6121L36.4315 1.70918C36.7663 1.05638 37.6182 0.775438 38.3246 1.08486L74.2859 16.837C74.9923 17.1464 75.2963 17.9337 74.9615 18.5865L48.6083 69.9673C46.989 73.1245 42.9188 74.4668 39.5154 72.976Z" stroke="black" strokeWidth="1.81343" stroke-miterlimit="10" stroke-linecap="round" stroke-linejoin="round"/>
<path d="M54.3826 41.2599L28.9272 30.1096C28.6446 29.9858 28.523 29.6709 28.657 29.4098L38.6406 9.94467C38.7745 9.68355 39.1153 9.57117 39.3979 9.69494L66.3945 21.5203C66.677 21.6441 66.7986 21.959 66.6647 22.2201L57.4116 40.261C56.8759 41.3054 55.5128 41.7549 54.3826 41.2599Z" fill="#514447"/>
<path d="M54.3826 41.2599L28.9272 30.1096C28.6446 29.9858 28.523 29.6709 28.657 29.4098L38.6406 9.94467C38.7745 9.68355 39.1153 9.57117 39.3979 9.69494L66.3945 21.5203C66.677 21.6441 66.7986 21.959 66.6647 22.2201L57.4116 40.261C56.8759 41.3054 55.5128 41.7549 54.3826 41.2599Z" stroke="black" strokeWidth="1.81343" stroke-miterlimit="10" stroke-linecap="round" stroke-linejoin="round"/>
<path d="M52.219 37.5357L34.9576 29.9746C34.8805 29.9409 34.8535 29.8709 34.89 29.7997L42.4082 15.1415C42.4447 15.0703 42.5205 15.0453 42.5975 15.0791L59.8589 22.6401C59.936 22.6739 59.963 22.7438 59.9265 22.815L52.4083 37.4732C52.3718 37.5445 52.2832 37.5638 52.219 37.5357Z" fill="#83906F"/>
<path d="M52.219 37.5357L34.9576 29.9746C34.8805 29.9409 34.8535 29.8709 34.89 29.7997L42.4082 15.1415C42.4447 15.0703 42.5205 15.0453 42.5975 15.0791L59.8589 22.6401C59.936 22.6739 59.963 22.7438 59.9265 22.815L52.4083 37.4732C52.3718 37.5445 52.2832 37.5638 52.219 37.5357Z" stroke="black" strokeWidth="1.81343" stroke-miterlimit="10" stroke-linecap="round" stroke-linejoin="round"/>
<path d="M73.8235 16.6345L38.787 1.28738C37.8237 0.86545 36.6689 1.24629 36.2124 2.13646L35.3845 3.75064L73.9144 20.628L74.7423 19.0138C75.1928 18.1355 74.7868 17.0564 73.8235 16.6345Z" stroke="black" strokeWidth="1.81343" stroke-miterlimit="10" stroke-linecap="round" stroke-linejoin="round"/>
<path d="M44.5343 40.6818L54.8731 45.2106" stroke="black" strokeWidth="1.81343" stroke-miterlimit="10" stroke-linecap="round" stroke-linejoin="round"/>
<path d="M26.8489 32.9349L37.1877 37.4636" stroke="black" strokeWidth="1.81343" stroke-miterlimit="10" stroke-linecap="round" stroke-linejoin="round"/>
<path d="M31.884 48.8476L23.2533 45.067C22.9322 44.9264 22.7842 44.5709 22.9425 44.2623L23.74 42.7074C23.8922 42.4107 24.2769 42.274 24.6108 42.4203L33.2415 46.2008C33.5626 46.3414 33.7106 46.6969 33.5523 47.0055L32.7548 48.5604C32.5837 48.8633 32.2051 48.9882 31.884 48.8476Z" fill="#664A4A"/>
<path d="M24.7606 48.9975L28.8515 41.0215C29.0037 40.7248 29.3884 40.588 29.7223 40.7343L31.4048 41.4713C31.7259 41.6119 31.8738 41.9674 31.7156 42.276L27.6247 50.252C27.4725 50.5487 27.0878 50.6855 26.7539 50.5392L25.0714 49.8022C24.7436 49.6441 24.6085 49.2942 24.7606 48.9975Z" fill="#664A4A"/>
<path d="M33.0692 46.1687L30.6161 45.0942C30.462 45.0267 30.4073 44.8573 30.4742 44.7268L31.6248 42.4835C31.8318 42.08 31.6426 41.5901 31.2059 41.3989L29.9473 40.8475C29.5363 40.6675 29.0441 40.8298 28.8493 41.2096L27.6683 43.5122C27.5952 43.6547 27.412 43.7052 27.2707 43.6433L24.8177 42.5688C24.3938 42.3832 23.8827 42.5517 23.6818 42.9434L23.0852 44.1066C22.8843 44.4982 23.0667 44.9706 23.4906 45.1563L25.9436 46.2308C26.0978 46.2983 26.1525 46.4676 26.0855 46.5982L24.935 48.8414C24.728 49.2449 24.9171 49.7348 25.3538 49.9261L26.5611 50.4549C26.9978 50.6462 27.5278 50.4714 27.7348 50.0678L28.8854 47.8246C28.9584 47.6822 29.1416 47.6316 29.2829 47.6935L31.6846 48.7455C32.147 48.948 32.6831 48.7613 32.8962 48.3459L33.4684 47.2302C33.6686 46.8092 33.493 46.3543 33.0692 46.1687Z" stroke="black" strokeWidth="1.81343" stroke-miterlimit="10" stroke-linecap="round" stroke-linejoin="round"/>
<path d="M40.8286 56.6463C40.1223 56.3369 39.5951 55.8007 39.3316 55.1184C39.0682 54.4361 39.1089 53.7127 39.4437 53.0599C39.7785 52.4071 40.3587 51.9199 41.097 51.6764L47.6661 49.51C48.4044 49.2665 49.1872 49.3042 49.8936 49.6136C50.6 49.923 51.1271 50.4592 51.3906 51.1415C51.9311 52.5411 51.1397 54.084 49.6313 54.5716L43.0623 56.738C42.324 56.9815 41.535 56.9557 40.8286 56.6463Z" fill="#FCA84C"/>
<path opacity="0.66" d="M39.5374 55.2086C39.2739 54.5263 39.3147 53.8028 39.6495 53.15C39.9843 52.4972 40.5645 52.0101 41.3028 51.7666L47.8718 49.6002C48.5723 49.3692 49.3166 49.39 49.9905 49.6706C49.952 49.6538 49.9263 49.6425 49.8878 49.6256C49.1814 49.3162 48.3986 49.2785 47.6603 49.522L41.0912 51.6884C40.3529 51.9319 39.7727 52.4191 39.4379 53.0719C39.1031 53.7247 39.0624 54.4481 39.3258 55.1304C39.5893 55.8127 40.1165 56.3489 40.8228 56.6583C40.8614 56.6752 40.8871 56.6864 40.9256 56.7033C40.2821 56.3633 39.7874 55.8559 39.5374 55.2086Z" fill="#FCA84C"/>
<path d="M47.8179 53.661C48.7826 54.0836 49.9353 53.7034 50.3926 52.812C50.8498 51.9205 50.4384 50.8552 49.4738 50.4327C48.5091 50.0101 47.3564 50.3903 46.8992 51.2818C46.4419 52.1732 46.8533 53.2385 47.8179 53.661Z" fill="#FF1F1F"/>
<path d="M41.249 55.8275C42.2136 56.25 43.3663 55.8699 43.8236 54.9784C44.2808 54.0869 43.8695 53.0217 42.9048 52.5991C41.9401 52.1766 40.7874 52.5567 40.3302 53.4482C39.873 54.3397 40.2843 55.4049 41.249 55.8275Z" fill="#FF1F1F"/>
<path d="M47.8179 53.661C48.7826 54.0836 49.9353 53.7034 50.3926 52.812C50.8498 51.9205 50.4384 50.8552 49.4738 50.4327C48.5091 50.0101 47.3564 50.3903 46.8992 51.2818C46.4419 52.1732 46.8533 53.2385 47.8179 53.661Z" stroke="black" strokeWidth="1.81343" stroke-miterlimit="10" stroke-linecap="round" stroke-linejoin="round"/>
<path d="M41.249 55.8275C42.2136 56.25 43.3663 55.8699 43.8236 54.9784C44.2808 54.0869 43.8695 53.0217 42.9048 52.5991C41.9401 52.1766 40.7874 52.5567 40.3302 53.4482C39.873 54.3397 40.2843 55.4049 41.249 55.8275Z" stroke="black" strokeWidth="1.81343" stroke-miterlimit="10" stroke-linecap="round" stroke-linejoin="round"/>
<path d="M26.6117 58.2682L26.4699 57.9008C26.3888 57.6909 26.5045 57.4654 26.7255 57.4023L30.72 56.085C30.9471 56.0101 31.1912 56.117 31.2594 56.3213L31.4012 56.6887C31.4823 56.8986 31.3667 57.1241 31.1456 57.1872L27.1511 58.5045C26.924 58.5794 26.68 58.4725 26.6117 58.2682Z" stroke="black" strokeWidth="1.81343" stroke-miterlimit="10" stroke-linecap="round" stroke-linejoin="round"/>
<path d="M31.0039 60.192L30.862 59.8246C30.781 59.6147 30.8966 59.3892 31.1177 59.3261L35.1121 58.0088C35.3393 57.9339 35.5833 58.0408 35.6516 58.2451L35.7934 58.6125C35.8745 58.8224 35.7588 59.0479 35.5378 59.111L31.5433 60.4283C31.329 60.5088 31.085 60.4019 31.0039 60.192Z" stroke="black" strokeWidth="1.81343" stroke-miterlimit="10" stroke-linecap="round" stroke-linejoin="round"/>
<path d="M39.646 65.0242L40.7411 67.8877" stroke="black" strokeWidth="1.81343" stroke-miterlimit="10" stroke-linecap="round" stroke-linejoin="round"/>
<path d="M37.6263 65.6804L38.7342 68.5495" stroke="black" strokeWidth="1.81343" stroke-miterlimit="10" stroke-linecap="round" stroke-linejoin="round"/>
<path d="M41.829 64.294L42.9369 67.1631" stroke="black" strokeWidth="1.81343" stroke-miterlimit="10" stroke-linecap="round" stroke-linejoin="round"/>
<path d="M43.8357 63.6323L44.9437 66.5014" stroke="black" strokeWidth="1.81343" stroke-miterlimit="10" stroke-linecap="round" stroke-linejoin="round"/>
<path d="M45.8425 62.9705L46.9504 65.8397" stroke="black" strokeWidth="1.81343" stroke-miterlimit="10" stroke-linecap="round" stroke-linejoin="round"/>
<path d="M71.6401 15.6783L41.073 2.28894L39.4111 5.52917L69.9782 18.9185L71.6401 15.6783Z" stroke="black" strokeWidth="1.81343" stroke-miterlimit="10" stroke-linecap="round" stroke-linejoin="round"/>
<path d="M40.6042 12.4039L53.1521 17.9003" stroke="black" strokeWidth="1.81343" stroke-miterlimit="10" stroke-linecap="round" stroke-linejoin="round"/>
<path d="M59.869 20.8427L63.8889 22.6035" stroke="black" strokeWidth="1.81343" stroke-miterlimit="10" stroke-linecap="round" stroke-linejoin="round"/>
<path d="M39.1795 37.813L38.7412 38.6676" stroke="black" strokeWidth="1.81343" stroke-miterlimit="10" stroke-linecap="round" stroke-linejoin="round"/>
<path d="M40.4512 38.3697L40.0129 39.2243" stroke="black" strokeWidth="1.81343" stroke-miterlimit="10" stroke-linecap="round" stroke-linejoin="round"/>
<path d="M41.7097 38.9212L41.2714 39.7757" stroke="black" strokeWidth="1.81343" stroke-miterlimit="10" stroke-linecap="round" stroke-linejoin="round"/>
<path d="M42.9813 39.4778L42.543 40.3324" stroke="black" strokeWidth="1.81343" stroke-miterlimit="10" stroke-linecap="round" stroke-linejoin="round"/>
<rect x="2.24486" y="-2.01634" width="30.2375" height="54.2983" transform="matrix(0.0620769 -0.998071 0.998986 0.0450206 60.4057 91.6155)" fill="#C61800" stroke="#242A2B" strokeWidth="4.23134"/>
<path d="M71.4557 91.8468C71.8514 89.4888 73.5992 79.7293 74.4236 75.1443L115.976 65.4597C116.305 63.4479 116.965 58.9191 116.965 56.898C105.357 54.3155 79.3703 61.9041 67.8281 66.0212C62.7715 68.033 52.7902 73.9653 53.3179 81.6007C53.8455 89.2361 55.7362 89.2736 56.6157 88.3378L60.0783 80.1972C59.5837 91.2853 61.2326 90.5835 62.8814 90.5835C63.6729 85.643 65.8494 81.6007 66.8388 80.1972C66.8388 89.3203 70.4663 92.4082 71.4557 91.8468Z" fill="#F4EFD3"/>
<path d="M122.406 53.3892C118.581 50.8066 97.728 48.3831 87.7797 47.4942C86.2957 46.231 81.1841 57.1788 78.8757 56.7577C77.0289 56.4208 78.1062 50.4417 78.8757 47.4942C77.2818 51.1902 73.5993 58.077 71.6206 56.0559C69.642 54.0348 71.5657 48.4767 72.7748 45.9503C71.016 48.4299 67.1686 53.3892 65.8495 53.3892C63.706 49.5996 64.0358 45.9503 71.6206 40.1957C77.6885 35.592 110.424 42.1139 126.034 45.9503L122.406 53.3892Z" fill="#F4EFD3"/>
<path d="M153.57 56.6174C153.834 55.7191 155.879 55.0267 156.868 54.7928C154.065 48.3364 156.538 47.2135 158.022 46.3714C158.946 45.2485 161.375 44.9678 162.474 44.9678C163.354 45.4357 165.277 46.4556 165.937 46.7925C166.597 47.1293 168.63 46.6521 169.565 46.3714L170.389 53.3892L167.586 53.8103C168.41 54.3249 170.059 55.6069 170.059 56.6174C170.059 57.8806 163.464 58.7228 163.629 57.4596C163.76 56.449 157.857 57.8806 154.889 58.7228C154.34 58.3953 153.307 57.5157 153.57 56.6174Z" fill="#F4EFD3"/>
<path d="M106.247 154.025L118.779 151.358H127.518C128.969 155.064 129.222 159.078 129.167 160.622C125.209 160.856 116.602 161.183 113.832 160.622C111.029 159.078 103.114 163.008 101.465 161.323C99.8166 159.639 103.609 154.586 106.247 154.025Z" fill="#2F7A84" stroke="#242A2B" strokeWidth="0.604478"/>
<path d="M172.203 121.883L170.389 114.866L177.974 112.479L180.942 111.076H182.755L199.409 127.357L197.76 129.322L194.627 130.585L192.154 129.884L184.074 123.848L172.203 121.883Z" fill="#2F7A84"/>
<path fillRule="evenodd" clipRule="evenodd" d="M126.225 45.508C125.538 47.055 124.852 48.6024 124.165 50.1495C123.725 51.1409 123.285 52.1322 122.845 53.1236C122.689 53.4751 122.602 53.8357 122.3 54.0797C121.589 54.6543 120.312 55.02 119.457 55.4242C118.884 55.695 118.311 55.9659 117.739 56.2367C117.443 56.3765 116.788 56.552 116.581 56.7839C116.354 57.0395 116.461 57.5089 116.461 57.8623V60.9134V66.6626C119.42 66.3477 122.379 66.0331 125.337 65.7182C121.395 69.5897 117.454 73.461 113.512 77.3325C112.541 78.2866 111.361 79.2049 110.637 80.315C109.097 82.6779 107.591 85.0578 106.069 87.429C104.651 89.6361 103.234 91.8433 101.816 94.0504L114.568 93.5884C117.87 93.4688 121.262 93.6487 124.443 92.8521C127.065 92.1956 129.687 91.5392 132.31 90.8827C132.658 90.7952 133.745 90.6964 133.992 90.4575C134.223 90.2337 134.218 89.3881 134.284 89.1017C135.522 83.6865 137.097 77.719 140.71 73.0576C143.3 69.7161 146.795 66.7905 149.995 63.8766C151.244 62.7394 152.515 61.6157 153.72 60.4439C154.029 60.1438 154.475 59.8032 154.679 59.4387C154.811 59.2031 154.995 58.7543 154.913 58.5452C154.878 58.4546 154.054 58.1293 153.936 58.0647C153.102 57.6082 152.274 57.1421 151.445 56.6782C149.116 55.3745 146.789 54.0676 144.446 52.7814C142.619 51.7784 140.798 50.715 138.872 49.8531C136.875 48.9597 134.676 48.3309 132.582 47.6251C130.466 46.9117 128.347 46.2064 126.225 45.508Z" fill="#00E5AC"/>
<path fillRule="evenodd" clipRule="evenodd" d="M198.028 128.159C197.012 128.974 195.162 130.068 193.7 129.571C192.965 129.321 192.338 128.772 191.669 128.419C190.883 128.003 190.144 127.588 189.478 127.034C188.149 125.929 187.142 124.314 185.572 123.448C185.044 123.158 184.014 123.095 183.648 122.631C183.484 122.422 183.469 122.106 183.499 121.866C183.565 121.347 183.894 121.378 183.344 120.997H184.198C184.214 120.716 183.885 120.693 183.64 120.729C183.754 120.284 183.87 118.542 182.917 119.331C182.09 120.016 182.504 121.151 181.919 121.892C181.471 122.46 180.282 122 180.121 121.376C180.049 121.095 180.412 120.657 180.455 120.382C180.55 119.772 180.23 119.245 179.766 118.783C178.746 119.361 179.324 120.558 178.743 121.318C178.218 122.005 177.047 121.684 176.247 121.563C175.287 121.418 174.202 121.565 173.284 121.372C171.898 121.081 172.416 119.696 172.279 118.801C172.132 117.844 170.994 116.514 171.336 115.548C171.703 114.51 173.849 114.286 174.874 114.034C177.218 113.459 180.561 113.348 182.304 111.737C183.69 113.053 184.805 114.559 186.258 115.826C187.828 117.194 189.505 118.457 191.013 119.88C192.582 121.362 194.201 122.814 195.713 124.338C196.372 125.003 196.952 125.72 197.634 126.369C198.241 126.945 198.88 127.476 198.028 128.159ZM128.361 102.571C129.081 102.245 129.173 102.449 129.173 103.121C128.966 102.798 128.76 102.712 128.361 102.571ZM122.255 115.624V114.44C122.949 114.425 122.522 115.437 122.255 115.624ZM122.085 117.387C122.085 116.862 122.068 116.363 122.246 115.854C122.339 116.409 122.517 116.89 122.085 117.387ZM125.07 153.391C125.708 153.442 126.691 153.068 127.227 153.494C127.778 153.932 127.734 155.206 127.864 155.797C128.08 156.774 128.271 157.754 128.453 158.736C128.572 159.38 128.719 160.033 127.864 160.28C126.601 160.644 124.796 160.124 123.479 160.077C120.877 159.984 118.277 159.854 115.673 159.809C113.149 159.766 110.62 159.8 108.108 160.024C106.973 160.125 105.864 160.303 104.74 160.464C104.148 160.55 102.562 160.906 102.027 160.481C101.021 159.681 102.694 157.814 103.413 157.287C104.748 156.308 106.647 155.602 108.321 155.177C109.216 154.95 110.707 154.312 111.412 155.026C111.953 155.573 111.931 156.303 112.706 156.718C114.502 157.679 113.451 154.923 112.329 154.584C113.083 153.083 114.519 155.202 115.114 155.711C115.326 155.892 116.015 156.489 116.315 156.189C116.539 155.964 116.091 155.159 116.008 154.94C115.882 154.607 115.563 154.101 115.655 153.74C115.821 153.087 116.897 152.909 117.542 152.854C118.541 152.77 119.522 153.04 120.51 153.13C122.026 153.268 123.553 153.27 125.07 153.391ZM115.034 91.8708C113.06 92.0045 111.074 91.7476 109.106 91.9578C107.243 92.1569 105.488 92.739 103.732 93.2738C106.343 88.0623 109.72 83.3182 113.836 78.874C115.886 76.6605 118.091 74.4623 120.306 72.3674C121.336 71.3928 122.402 70.4505 123.467 69.5032C124.416 68.6582 125.096 67.2231 126.235 66.592C127.208 66.0533 128.907 66.4375 129.984 66.4709C131.202 66.5087 132.685 66.603 133.872 66.2579C134.733 66.0078 134.97 65.3405 133.892 65.3184C132.622 65.2921 131.372 65.4049 130.084 65.3035C126.748 65.0411 123.533 64.6099 120.17 64.8545C119.4 64.9104 118.386 65.1898 117.63 65.1059C117.086 65.0453 117.444 65.278 117.066 64.9066C116.921 64.7646 116.747 64.4307 116.704 64.242C116.463 63.1821 117.147 61.6677 117.31 60.6007C117.462 59.6132 117.327 58.5279 117.611 57.5663C117.868 56.6912 118.654 56.5745 119.622 56.481C122.27 56.2251 124.972 56.0889 127.632 55.896C133.702 55.456 139.965 54.792 145.994 55.8796C148.171 56.2723 150.826 56.8796 152.771 57.8519C153.379 58.1558 153.992 58.5138 153.771 59.1435C153.542 59.7972 152.417 60.4878 151.859 60.9184C147.741 64.1007 143.764 67.3466 140.871 71.4298C137.182 76.6367 135.065 82.2603 133.822 88.2269C133.555 89.5105 133.307 90.1823 131.756 90.5518C130.09 90.9486 128.483 91.2065 126.756 91.3272C122.852 91.6001 118.936 91.6058 115.034 91.8708ZM116.356 57.3886C116.057 59.284 115.652 61.1753 115.612 63.0856C115.597 63.8072 115.516 64.1687 114.615 64.3296C113.552 64.5192 112.472 64.6605 111.404 64.8573C106.252 65.8078 101.197 66.9751 96.1569 68.2889C91.2582 69.5661 86.4399 71.003 81.4311 71.9491C79.2765 72.3561 76.7553 72.6304 74.7929 73.5315C72.6818 74.5012 72.9596 76.0911 72.7701 77.8373C72.5169 80.1703 71.7041 82.4293 71.4183 84.7615C71.2816 85.8759 71.1571 86.9969 71.1778 88.1183C71.1953 89.0742 71.3562 90.1312 70.6013 90.9356C69.0869 89.2122 68.369 87.0447 68.0706 84.9324C67.9255 83.9056 67.9829 82.8706 67.9414 81.8391C67.9079 81.0086 67.9297 79.6875 67.2942 78.994C65.9127 77.4867 64.116 83.5271 63.9451 84.1721C63.6578 85.2578 63.4208 86.3526 63.1345 87.4385C63.0076 87.9197 62.8447 89.6693 62.0872 89.8437C60.5173 90.2052 60.8619 86.4501 60.837 85.8783C60.7873 84.7242 60.7536 83.5689 60.7853 82.4138C60.8084 81.5801 60.9979 80.6754 60.8854 79.8413C60.6091 77.7932 59.2563 79.951 58.8759 80.7134C57.9149 82.6379 57.4802 84.6978 56.6184 86.6531C56.475 86.9784 56.1382 88.0733 55.6045 88.0937C55.0107 88.1162 55.0154 86.9853 54.9815 86.655C54.7844 84.7399 54.1189 82.8383 54.3198 80.9034C54.5226 78.9496 55.3272 76.941 56.4657 75.2416C58.8728 71.6488 63.2197 69.5858 67.3834 67.7066C72.1483 65.5564 77.1789 63.8576 82.3169 62.4737C88.4962 60.8092 94.8411 59.4625 101.224 58.5041C104.472 58.0166 107.769 57.6679 111.05 57.3884C112.203 57.2902 113.356 57.2328 114.494 57.046C114.924 56.9753 116.474 56.6397 116.356 57.3886ZM119.675 51.2547C118.047 51.2656 116.384 50.5938 114.798 50.3161C112.91 49.9852 111.065 49.5064 109.18 49.1609C105.489 48.4845 101.796 47.825 98.1081 47.1337C96.5071 46.8335 94.8983 46.5723 93.3036 46.2499C91.5974 45.905 89.7542 45.5205 88.0078 45.892C85.3609 46.4553 84.2427 48.9203 83.2708 50.844C82.5843 52.2029 82.0464 53.7175 80.9758 54.8999C80.5946 55.3215 80.0527 55.8243 79.3615 55.6877C78.0774 55.4342 78.2813 53.9878 78.4448 53.1882C78.6818 52.0279 79.0175 50.8813 79.2863 49.7262C79.3945 49.2601 80.2338 46.2091 78.7355 46.6815C77.6241 47.0319 77.036 49.3396 76.6153 50.1639C76.3027 50.7764 75.9714 51.385 75.6206 51.9824C75.1524 52.7793 73.8166 55.442 72.3376 55.0986C70.2212 54.6071 72.2513 49.8709 72.6119 48.8727C72.8098 48.3247 74.9611 44.1692 73.1453 44.5088C72.372 44.6537 71.6187 45.8763 71.2244 46.3831C70.5252 47.2819 69.8282 48.1872 69.1701 49.1082C68.4931 50.0555 68.1474 51.1336 67.4759 52.067C67.1226 52.5583 66.4017 53.213 65.6979 52.7582C64.6006 52.0497 65.251 49.5851 65.4431 48.6532C65.8006 46.9206 66.6886 45.1444 67.9071 43.728C69.7379 41.5997 73.1926 40.912 76.0976 40.4985C79.8474 39.9647 83.6494 40.1107 87.4149 40.4265C91.6498 40.7818 95.8201 41.1622 99.9944 41.8887C104.201 42.6208 108.41 43.347 112.553 44.3152C114.504 44.7714 116.483 45.1758 118.407 45.7112C120.452 46.2803 122.447 46.9886 124.549 47.3987C123.81 48.9692 123.071 50.5398 122.331 52.1105C121.624 51.5146 120.658 51.2479 119.675 51.2547ZM155.916 55.5825C156.564 55.2807 157.28 55.1383 157.517 54.4711C157.726 53.8816 157.369 53.2137 157.198 52.6479C156.72 51.0635 156.594 49.4223 157.017 47.8193C157.421 48.3446 158.935 50.365 159.855 49.1418C160.41 48.4041 158.923 47.3427 158.488 46.8241C159.441 46.3236 160.802 44.9803 161.9 45.7904C162.61 46.3142 162.91 46.8184 163.866 47.073C165.027 47.3822 166.12 47.3114 167.305 47.226C168.135 47.1663 168.335 47.0721 168.659 47.6161C168.914 48.0437 169.045 48.5729 169.194 49.0321C169.487 49.9374 170.165 51.7212 169.362 52.5693C168.658 53.3122 165.928 52.6752 165.548 53.6342C165.342 54.1572 166.329 54.1759 166.706 54.4347C167.173 54.755 167.559 55.2648 167.813 55.7202C168.001 56.057 168.287 56.6134 167.967 56.9578C167.525 57.4341 166.706 57.0728 166.349 56.7266C165.876 56.2666 165.723 55.6378 165.328 55.1369C164.603 54.2178 164.56 54.949 164.363 55.6089C164.158 56.2946 163.673 56.2474 162.931 56.3354C161.629 56.4901 160.313 56.7082 159.045 57.0054C158.395 57.1576 157.766 57.3516 157.147 57.5782C156.748 57.724 156.057 58.1658 155.624 58.17C154.822 58.1777 154.267 57.0363 153.853 56.5602C154.54 56.2336 155.225 55.904 155.916 55.5825ZM198.97 125.473C196.967 123.427 195.233 121.204 193.258 119.14C191.309 117.105 189.055 115.325 186.868 113.481C185.836 112.611 184.847 111.656 183.708 110.885C182.858 110.31 182.204 110.301 181.182 110.556C178.278 111.28 175.32 112.152 172.571 113.232C170.012 114.239 167.68 115.531 164.904 116.092C162.071 116.665 159.125 116.849 156.221 116.707C153.242 116.561 150.433 116.034 147.6 115.258C144.917 114.524 142.12 113.883 139.826 112.427C137.42 110.901 135.562 108.707 133.84 106.643C132.968 105.598 132.103 104.5 131.515 103.316C131.006 102.289 130.673 101.076 129.758 100.238C129.534 100.508 129.255 100.741 129.141 101.059C129.089 101.203 129.394 101.198 129.363 101.313C129.304 101.53 128.966 101.75 128.769 101.868C128.063 102.291 128.059 101.954 128.244 102.745C128.352 103.207 128.148 104.247 127.264 103.907C127.589 104.239 127.072 104.657 126.904 104.93C126.788 104.817 126.643 104.777 126.47 104.811C126.794 105.359 126.603 105.374 126.29 105.809C126.232 105.888 126.03 106.304 126.059 106.269C125.739 106.657 125.369 106.755 125.183 107.238C125.029 107.635 125.069 108.071 124.898 108.467C124.691 108.224 124.484 107.981 124.278 107.738C124.32 107.929 124.404 108.212 124.502 108.386C124.564 108.494 124.829 108.747 124.825 108.806C124.811 109.027 124.487 108.974 124.394 109.165C124.221 109.522 124.472 109.575 124.377 109.924C124.269 110.324 123.978 110.164 123.84 110.506C123.814 110.57 124.018 110.825 123.985 110.965C123.94 111.163 123.73 111.273 123.655 111.449C123.466 111.896 123.535 112.223 123.272 112.651C123.171 112.818 123.023 112.928 122.951 113.117C122.888 113.283 123.024 113.637 122.902 113.786C122.317 114.504 122.399 113.268 122.444 112.961C122.816 110.387 124.012 107.731 125.106 105.325C125.649 104.13 126.178 102.897 126.86 101.752C127.134 101.291 127.451 100.815 127.904 100.463C128.477 100.017 129.291 99.8381 129.81 99.3399C129.728 99.4184 130.373 98.899 130.27 99.0698C130.362 98.9172 130.201 98.7105 130.258 98.5628C130.33 98.3794 130.464 98.3409 130.614 98.1803C130.884 97.8921 131.204 97.7486 130.781 97.3814C131.409 97.2631 131.71 97.0895 131.835 96.5167C131.927 96.0975 131.742 96.1249 132.065 95.8456C132.389 95.5649 132.553 95.784 132.758 95.298C133.002 94.7164 133.164 93.9256 133.311 93.317C133.438 92.7857 133.128 92.0043 133.654 91.6292C134.321 91.1541 134.917 91.3553 134.797 90.3999C134.681 89.4686 135.021 88.9044 135.363 88.0231C136.045 86.2636 136.308 84.406 136.906 82.6256C138.182 78.826 140.436 75.4003 142.86 72.0558C145.1 68.9653 148.231 66.3323 151.255 63.7966C152.083 63.1021 152.902 62.3975 153.645 61.6362C154.286 60.9805 154.578 60.0879 155.194 59.4655C155.568 59.0876 156.264 58.9259 156.786 58.7255C157.656 58.3912 158.694 57.955 159.677 58.0227C159.286 59.1433 159.159 60.4528 160.311 61.2931C161.71 62.3125 162.977 61.2535 164.258 60.6723C166.595 59.6129 169.936 60.5854 171.973 58.9975C172.458 58.6193 172.593 58.0151 173.097 57.6619C173.468 57.4029 173.994 57.3372 174.411 57.1442C175.677 56.5577 176.291 55.4841 175.798 54.2981C175.348 53.2139 174.648 52.8379 176.206 52.2884C177.471 51.8427 177.952 51.171 177.379 49.9752C176.833 48.8351 175.833 48.7038 174.887 47.9577C173.971 47.2351 175.023 46.3941 175.71 45.8516C176.595 45.1518 176.765 44.5211 175.738 43.7933C174.663 43.0314 173.129 43.058 171.876 43.4349C170.459 43.8608 169.525 44.5689 168.926 45.7163C168.315 46.8845 166.802 46.5585 165.576 46.2329C164.404 45.9217 164.098 45.25 163.329 44.5268C162.473 43.7223 160.728 44.4102 159.718 44.7778C157.231 45.6825 154.76 47.1104 154.661 49.6397C154.602 51.148 155.352 52.4299 155.741 53.8456C156.098 55.1401 153.654 55.0382 153.231 56.2904C148.718 54.2566 143.691 53.6342 138.646 53.4957C133.283 53.3484 127.843 53.2304 122.526 53.9504C123.761 52.1201 124.412 50.1131 125.486 48.2328C125.795 47.6914 125.928 47.7377 126.61 47.9013C127.921 48.2154 129.221 48.5669 130.529 48.8904C135.306 50.0725 139.989 51.4966 144.608 53.0564C145.057 53.2081 146.059 53.6291 146.453 53.1712C146.907 52.6433 145.856 51.9924 145.431 51.7269C143.571 50.5654 141.266 49.8605 139.183 49.0457C134.63 47.2647 129.587 46.4194 124.835 45.0966C114.577 42.2406 103.965 40.0714 93.3045 38.6388C90.703 38.2892 88.0737 38.238 85.4609 37.9784C83.1466 37.7486 80.828 37.7539 78.5139 37.9913C74.2397 38.4301 69.2846 39.3767 66.8706 42.7071C64.6913 45.7141 63.2366 49.0948 63.7927 52.6616C63.9598 53.733 64.4928 55.0017 66.0458 54.7256C67.1231 54.534 67.6951 53.7549 68.1953 52.9945C68.9511 51.8457 69.6975 50.6969 70.5165 49.5789C70.8203 51.2552 69.7164 52.9036 69.8899 54.6113C70.0079 55.7701 70.7602 57.6009 72.5276 57.2728C74.95 56.8233 75.947 53.6019 77.1117 52.0565C77.1707 53.2468 76.6806 54.4199 76.8306 55.6129C76.9786 56.7913 78.0603 57.9039 79.5796 57.7424C81.0126 57.5901 81.9439 56.2833 82.5526 55.2994C83.3995 53.9302 84.008 52.4622 84.8352 51.0839C85.6105 49.792 86.5289 48.2539 88.38 48.0112C90.032 47.7944 91.9252 48.2962 93.557 48.5032C98.0834 49.0774 102.519 50.0551 106.996 50.845C111.796 51.6917 116.71 52.2061 121.362 53.5724C119.726 55.4677 115.445 55.0582 113.008 55.2616C109.326 55.5691 105.596 55.8005 101.934 56.2542C98.3177 56.7022 94.777 57.4976 91.1887 58.075C87.6193 58.6494 84.0561 59.2247 80.6023 60.2042C74.1898 62.023 67.6703 64.3247 62.0204 67.4981C59.3916 68.9748 57.0564 70.6624 55.4326 72.9932C53.7983 75.3385 53.013 77.9906 52.7135 80.6884C52.5271 82.3683 52.8437 83.8221 53.226 85.4571C53.503 86.6408 53.5926 88.6228 54.7076 89.4895C56.8358 91.1439 58.6028 84.4334 58.9957 83.6229C59.2787 84.9511 58.816 92.4338 62.2308 91.8252C63.7547 91.5538 64.1004 89.7732 64.3532 88.7008C64.8143 86.7457 65.2272 84.7513 66.0158 82.8683C66.522 85.4054 66.733 88.0486 67.8234 90.4717C68.5477 92.081 70.6142 94.9365 72.0549 92.1815C73.1356 90.1153 72.7648 87.7439 72.8944 85.5502C73.0379 83.1193 73.8578 80.7745 74.1481 78.3674C74.2606 77.4349 74.1587 76.384 75.2595 75.8752C76.2046 75.4385 77.5865 75.2962 78.6184 75.0524C81.6745 74.3301 84.7507 73.6662 87.7924 72.8999C90.8355 72.133 93.8364 71.2372 96.8388 70.3628C99.7104 69.5267 102.642 69.0513 105.549 68.3352C107.201 67.928 108.834 67.502 110.509 67.1621C111.289 67.004 112.078 66.8808 112.856 66.7171C113.433 66.5958 114.193 66.1381 114.785 66.1463C115.396 66.1548 115.625 66.5945 116.325 66.629C117.078 66.6661 117.844 66.5246 118.593 66.4757C120.418 66.3565 122.358 66.1638 124.179 66.3792C123.085 67.4841 121.607 68.2479 120.311 69.1633C118.817 70.2189 117.371 71.3588 116.095 72.6054C113.528 75.1138 111.101 77.7651 108.846 80.4825C106.622 83.1633 104.831 86.0968 103.274 89.094C102.499 90.5875 101.746 92.1137 101.21 93.6834C100.99 94.3283 100.81 94.9756 100.412 95.5621C100.048 96.1 99.5342 96.5637 99.9651 97.2133C100.262 97.0552 100.528 96.8587 100.797 96.6689C100.487 98.5277 99.8175 100.326 99.4736 102.179C99.1345 104.005 99.1483 105.882 99.1703 107.726C99.2164 111.588 99.5537 115.362 100.474 119.149C101.405 122.979 102.6 126.78 104.108 130.475C105.559 134.032 107.015 137.763 109.041 141.116C111.204 144.697 113.778 148.462 116.91 151.493C114.864 152.207 112.261 152.073 110.095 152.361C107.83 152.661 105.872 153.228 103.942 154.294C101.99 155.373 100.93 156.763 100.66 158.731C100.469 160.131 99.899 162.07 102.058 162.438C103.61 162.703 105.346 162.268 106.902 162.161C109.623 161.973 112.348 161.856 115.075 161.754C117.796 161.653 120.517 161.564 123.238 161.493C124.518 161.459 125.798 161.442 127.078 161.403C127.651 161.385 127.999 161.378 128.513 161.519C128.919 161.63 128.89 161.862 129.342 161.576C130.072 161.114 129.922 159.656 129.902 159.016C129.871 158.027 129.76 157.027 129.534 156.057C129.399 155.48 127.767 151.764 129.036 151.608C127.562 150.229 126.973 148.259 126.311 146.531C125.481 144.365 124.752 142.205 124.18 139.978C122.959 135.22 122.419 130.41 122.419 125.541C128.081 128.512 134.072 130.121 140.742 130.301C147.372 130.479 154.657 130.016 160.953 128.138C163.869 127.268 166.481 126.126 168.98 124.588C169.876 124.037 170.836 122.788 172.012 122.809C173.416 122.835 174.988 123.287 176.381 123.48C179.047 123.85 182.526 124.059 184.782 125.462C186.008 126.225 186.886 127.292 187.98 128.17C188.812 128.838 189.913 129.201 190.739 129.869C191.63 130.59 191.276 131.532 192.754 131.591C194.017 131.64 195.401 131.208 196.491 130.7C198.664 129.687 200.978 127.525 198.97 125.473Z" fill="#242A2B"/>
<path fillRule="evenodd" clipRule="evenodd" d="M163.651 50.1486C164.401 50.5849 165.893 50.5698 166.584 50.0286C167.286 49.4781 166.348 49.3934 165.776 49.4102C165.336 49.4233 164.513 49.609 164.763 48.962C164.986 48.388 166.209 48.6802 166.311 48.0501C165.391 47.9096 164.377 47.9602 163.696 48.5761C163.203 49.0213 162.95 49.74 163.651 50.1486Z" fill="#242A2B"/>
<mask id="path-48-inside-1_496_1913" fill="white">
<path d="M71.126 57.6107L72.4111 36.9495L95.0445 37.9695L93.7595 58.6307L71.126 57.6107Z"/>
</mask>
<path d="M71.126 57.6107L72.4111 36.9495L95.0445 37.9695L93.7595 58.6307L71.126 57.6107Z" fill="#EABB76"/>
<path d="M72.4111 36.9495L72.5987 33.933L69.5794 33.7969L69.3918 36.8135L72.4111 36.9495ZM95.0445 37.9695L98.0638 38.1056L98.2515 35.0891L95.2321 34.953L95.0445 37.9695ZM74.1454 57.7467L75.4304 37.0856L69.3918 36.8135L68.1067 57.4746L74.1454 57.7467ZM72.2235 39.9661L94.8569 40.9861L95.2321 34.953L72.5987 33.933L72.2235 39.9661ZM92.0252 37.8335L90.7401 58.4946L96.7788 58.7667L98.0638 38.1056L92.0252 37.8335Z" fill="#242A2B" mask="url(#path-48-inside-1_496_1913)"/>
<path fillRule="evenodd" clipRule="evenodd" d="M33.4816 15.212C33.6105 14.9544 33.7389 14.6967 33.8677 14.4393C34.027 14.8883 34.0717 15.1117 33.4816 15.212ZM33.653 16.4019C33.3739 16.4444 33.4839 15.699 33.4839 15.5691C33.966 15.8014 33.5667 16.08 33.653 16.4019ZM33.2178 14.2515C33.4558 14.1318 33.6938 14.0123 33.9317 13.8926C33.6003 14.4152 33.7304 14.0887 33.8671 14.4378C33.6171 14.4989 33.3741 14.4276 33.2178 14.2515ZM31.8075 18.3364C30.9155 21.0914 28.0822 23.2641 25.0897 24.3896C23.37 25.0361 21.6794 25.1979 19.8224 25.1258C19.1062 25.098 18.2634 24.8999 17.5741 24.9367C17.0434 24.9651 17.0673 24.9847 16.6278 25.3671C16.4333 25.0623 16.5742 24.8484 16.1841 24.6709C15.6973 24.4495 15.4952 24.7073 15.2538 25.0139C14.9378 24.7351 14.8085 24.5896 14.3991 24.4241C14.412 24.4293 14.0071 24.4162 14.0237 24.4205C13.9505 24.4013 13.5103 24.1604 13.3724 24.1165C12.8067 23.9359 12.1527 23.8616 11.6307 23.6024C11.1741 23.3762 10.798 22.7409 10.2756 23.2291C10.2751 22.4133 8.98428 22.075 8.37923 21.6477C7.43381 20.9801 6.68216 19.9916 6.21083 19.0354C5.7082 18.0157 5.54043 17.0382 5.30522 15.9874C5.1409 15.2531 4.06475 14.1917 4.71099 13.4508C4.86496 13.7615 4.79269 14.0797 5.04838 14.3614C5.27852 13.9839 5.4051 13.5615 5.50913 13.1483C5.56022 12.946 5.85618 12.352 5.82258 12.1757C5.75423 11.8148 5.2295 11.7952 5.5204 11.3529C6.12384 11.9118 6.61082 10.9303 6.1549 10.5391C5.92983 10.7552 5.84721 11.0007 5.74341 11.2683C5.1501 10.2488 6.79217 10.5771 6.43292 9.65678C7.03221 9.55864 7.37673 9.43012 7.60458 8.92607C7.85796 8.3652 7.67155 8.24296 8.2469 7.87231C8.44483 7.74498 9.00453 7.56181 9.10695 7.35219C9.3051 6.94726 8.80085 6.82717 9.2425 6.44771C9.39163 6.67045 9.97297 7.11143 10.2913 6.69181C10.355 6.60816 10.0874 6.5488 10.2821 6.35603C10.5704 6.0708 10.8931 5.79105 11.3808 5.851C10.9946 5.02919 13.4622 4.96415 14.0941 4.77021C14.7275 4.57607 15.2649 4.44854 15.9364 4.40348C16.6073 4.35842 16.6407 4.19112 17.2087 3.84731C17.2568 4.33922 17.3958 4.23108 17.8066 4.31787C17.9053 4.17368 18.0066 4.15743 18.1101 4.26929C18.2132 4.35274 18.3393 4.39192 18.488 4.38722C18.7136 4.39721 18.9695 4.37213 19.2058 4.37625C19.7607 4.38545 20.3331 4.34608 20.8773 4.35607C21.0177 4.33609 21.1489 4.29456 21.2718 4.23128C21.3231 4.31356 21.3747 4.39603 21.4258 4.47851C21.7142 4.50926 21.7365 4.81683 22.0911 4.48047C22.1961 4.90812 22.4976 4.68557 22.8161 4.80155C23.1065 4.90753 23.1528 5.07679 23.4209 5.19492C23.5972 5.31658 23.7861 5.33264 23.9882 5.2435C24.1804 5.36477 24.3755 5.48251 24.5734 5.59672C24.9382 5.77205 25.3681 5.8794 25.7525 6.0179C26.0082 6.10763 26.2622 6.20107 26.5142 6.29784C26.5218 6.55683 26.6583 6.64832 26.9234 6.57211C27.163 6.74274 27.2304 6.73608 27.4629 7.0266C27.9894 7.68503 28.4566 8.19653 29.1218 8.78502C32.0126 11.3435 32.9007 14.9606 31.8075 18.3364ZM32.6947 7.45719C31.3896 5.96951 29.5422 4.26595 27.8822 3.32641C27.0408 2.84997 25.8597 1.99487 24.8307 1.74294C24.5868 1.68319 24.3343 1.67926 24.0945 1.61658C23.9092 1.56819 23.8085 1.40638 23.5972 1.37719C23.4494 1.35681 23.4331 1.63832 23.2761 1.61246C22.9479 1.558 22.7399 1.2808 22.5081 1.10743C22.0103 1.83755 21.7402 0.609641 21.0092 1.43517C20.1393 0.274062 18.0956 0.52795 16.7065 0.586525C16.2945 0.603764 16.101 0.728552 15.7357 0.821018C15.3958 0.907018 15.3622 0.884887 14.991 0.882536C14.0665 0.876463 13.2458 0.975389 12.3913 1.32096C10.9557 1.90142 9.63788 2.8059 8.27429 3.50546C6.75028 4.28731 5.37656 5.28249 4.21066 6.42597C-0.00416839 10.5607 -1.13118 16.5958 2.22959 21.3891C7.56775 29.0021 21.3374 29.8157 29.1399 24.6501C35.1681 20.659 37.4621 12.8903 32.6947 7.45719Z" fill="#242A2B"/>
<path fillRule="evenodd" clipRule="evenodd" d="M82.8494 134.868C80.0837 134.468 76.6619 133.687 73.5875 133.953C70.32 134.236 69.0047 135.53 66.6291 136.308C60.1704 138.424 56.4083 135.271 52.8595 133.543C49.5078 131.911 45.4187 131.515 40.6897 132.518C38.8056 132.917 30.8681 134.749 32.2525 135.922C33.2478 136.766 37.1694 136.008 38.507 135.824C41.4108 135.424 44.1074 135.074 47.0773 135.657C52.6483 136.75 54.0936 139.746 60.8336 140.213C67.8032 140.696 68.0317 138.073 73.0055 137.086C76.34 136.424 78.6628 137.595 81.8795 137.362C84.9448 137.14 86.3626 135.376 82.8494 134.868Z" fill="#242A2B"/>
</svg>
