<svg width="161" height="169" viewBox="0 0 161 169" fill="none" xmlns="http://www.w3.org/2000/svg">
<mask id="path-1-inside-1_313_73700" fill="white">
<path fillRule="evenodd" clipRule="evenodd" d="M88 0C80.8203 0 75 5.82031 75 13V48.2222C75 55.4019 80.8203 61.2222 88 61.2222H108.457L117.482 87L126.507 61.2222H148C155.18 61.2222 161 55.4019 161 48.2222V13C161 5.8203 155.18 0 148 0H88Z"/>
</mask>
<path d="M108.457 61.2222L117.896 57.918C116.492 53.9075 112.707 51.2222 108.457 51.2222V61.2222ZM117.482 87L108.044 90.3043C109.448 94.3147 113.233 97 117.482 97C121.731 97 125.516 94.3147 126.92 90.3043L117.482 87ZM126.507 61.2222V51.2222C122.257 51.2222 118.472 53.9075 117.068 57.918L126.507 61.2222ZM85 13C85 11.3431 86.3432 10 88 10V-10C75.2974 -10 65 0.297472 65 13H85ZM85 48.2222V13H65V48.2222H85ZM88 51.2222C86.3431 51.2222 85 49.8791 85 48.2222H65C65 60.9248 75.2975 71.2222 88 71.2222V51.2222ZM108.457 51.2222H88V71.2222H108.457V51.2222ZM126.92 83.6957L117.896 57.918L99.0191 64.5265L108.044 90.3043L126.92 83.6957ZM117.068 57.918L108.044 83.6957L126.92 90.3043L135.945 64.5265L117.068 57.918ZM148 51.2222H126.507V71.2222H148V51.2222ZM151 48.2222C151 49.8791 149.657 51.2222 148 51.2222V71.2222C160.703 71.2222 171 60.9247 171 48.2222H151ZM151 13V48.2222H171V13H151ZM148 10C149.657 10 151 11.3431 151 13H171C171 0.29745 160.703 -10 148 -10V10ZM88 10H148V-10H88V10Z" fill="#F2E7E2" mask="url(#path-1-inside-1_313_73700)"/>
<mask id="path-3-inside-2_313_73700" fill="white">
<path fillRule="evenodd" clipRule="evenodd" d="M92.6237 4.62769C85.444 4.62769 79.6237 10.448 79.6237 17.6277V44.383C79.6237 51.5627 85.444 57.383 92.6237 57.383H109.483L117.538 79.5958L125.592 57.383H143.376C150.556 57.383 156.376 51.5627 156.376 44.383V17.6277C156.376 10.448 150.556 4.62769 143.376 4.62769H92.6237Z"/>
</mask>
<path fillRule="evenodd" clipRule="evenodd" d="M92.6237 4.62769C85.444 4.62769 79.6237 10.448 79.6237 17.6277V44.383C79.6237 51.5627 85.444 57.383 92.6237 57.383H109.483L117.538 79.5958L125.592 57.383H143.376C150.556 57.383 156.376 51.5627 156.376 44.383V17.6277C156.376 10.448 150.556 4.62769 143.376 4.62769H92.6237Z" fill="#A33233"/>
<path d="M109.483 57.383L110.424 57.0421L110.185 56.383H109.483V57.383ZM117.538 79.5958L116.598 79.9366L117.538 82.5294L118.478 79.9366L117.538 79.5958ZM125.592 57.383V56.383H124.891L124.652 57.0421L125.592 57.383ZM80.6237 17.6277C80.6237 11.0003 85.9962 5.62769 92.6237 5.62769V3.62769C84.8917 3.62769 78.6237 9.89568 78.6237 17.6277H80.6237ZM80.6237 44.383V17.6277H78.6237V44.383H80.6237ZM92.6237 56.383C85.9962 56.383 80.6237 51.0104 80.6237 44.383H78.6237C78.6237 52.115 84.8917 58.383 92.6237 58.383V56.383ZM109.483 56.383H92.6237V58.383H109.483V56.383ZM118.478 79.2549L110.424 57.0421L108.543 57.7239L116.598 79.9366L118.478 79.2549ZM124.652 57.0421L116.598 79.2549L118.478 79.9366L126.532 57.7239L124.652 57.0421ZM143.376 56.383H125.592V58.383H143.376V56.383ZM155.376 44.383C155.376 51.0104 150.004 56.383 143.376 56.383V58.383C151.108 58.383 157.376 52.115 157.376 44.383H155.376ZM155.376 17.6277V44.383H157.376V17.6277H155.376ZM143.376 5.62769C150.004 5.62769 155.376 11.0003 155.376 17.6277H157.376C157.376 9.8957 151.108 3.62769 143.376 3.62769V5.62769ZM92.6237 5.62769H143.376V3.62769H92.6237V5.62769Z" fill="#242A2B" mask="url(#path-3-inside-2_313_73700)"/>
<path d="M118.462 27.5346C118.462 25.3867 117.537 23.3269 115.889 21.8081C114.242 20.2894 112.007 19.4362 109.677 19.4362C107.348 19.4362 105.113 20.2894 103.466 21.8081C101.818 23.3269 100.892 25.3867 100.892 27.5346C100.892 29.6207 101.212 32.6879 104.406 35.633L118.462 45.351C118.462 45.351 129.324 38.578 132.518 35.633C135.713 32.6879 136.032 29.6207 136.032 27.5346C136.032 25.3867 135.107 23.3269 133.459 21.8081C131.812 20.2894 129.577 19.4362 127.247 19.4362C124.917 19.4362 122.683 20.2894 121.035 21.8081C119.388 23.3269 118.462 25.3867 118.462 27.5346Z" fill="#F2E7E2"/>
<ellipse cx="56.7459" cy="110.763" rx="48.7085" ry="50.5466" transform="rotate(-10 56.7459 110.763)" fill="#F2E7E2"/>
<path d="M98.1519 103.462C102.255 126.731 87.2569 148.774 64.7239 152.747C42.1908 156.72 20.5583 141.136 16.4554 117.867C12.3526 94.5989 27.3504 72.5558 49.8834 68.5826C72.4165 64.6095 94.049 80.1936 98.1519 103.462Z" fill="#FEB048" stroke="black" strokeWidth="2"/>
<path d="M73.9568 93.9358C74.8495 97.5178 74.8062 100.948 74.0393 103.59C73.2683 106.246 71.8036 108.007 69.924 108.476C68.0443 108.945 65.925 108.079 63.9979 106.097C62.081 104.125 60.4331 101.117 59.5404 97.5347C58.6476 93.9528 58.6909 90.5226 59.4579 87.8806C60.2289 85.2246 61.6936 83.4639 63.5732 82.9947C65.4528 82.5254 67.5722 83.3915 69.4992 85.3738C71.4161 87.3458 73.064 90.3538 73.9568 93.9358Z" fill="#F2E7E2" stroke="black"/>
<path d="M35.6272 100.071C36.0133 103.742 37.2272 106.951 38.8515 109.171C40.4844 111.403 42.463 112.557 44.3897 112.355C46.3165 112.153 48.0118 110.614 49.1446 108.093C50.2715 105.584 50.7912 102.194 50.405 98.5224C50.0188 94.8511 48.805 91.6425 47.1806 89.4222C45.5477 87.1901 43.5692 86.0365 41.6424 86.2385C39.7157 86.4404 38.0203 87.9791 36.8875 90.501C35.7606 93.0097 35.241 96.3999 35.6272 100.071Z" fill="#F2E7E2" stroke="black"/>
<ellipse cx="3.39828" cy="7.95111" rx="3.39828" ry="7.95111" transform="matrix(0.976916 -0.213622 0.213404 0.976964 62.0693 88.7676)" fill="black"/>
<ellipse cx="3.39828" cy="7.95111" rx="3.39828" ry="7.95111" transform="matrix(-0.991064 0.133386 0.133608 0.991034 45.7678 90.4885)" fill="black"/>
<path d="M34.207 119.928C56.6408 133.596 66.8543 131.052 81.6177 111.568" stroke="black" strokeWidth="2" stroke-linecap="round"/>
</svg>
