<svg width="642" height="474" viewBox="0 0 642 474" fill="none" xmlns="http://www.w3.org/2000/svg">
<path d="M422.66 397.063C420.231 404.264 413.315 409.552 404.92 409.854C399.746 410.005 394.995 408.243 391.404 405.171C386.653 408.796 380.634 411.063 374.087 411.264C368.649 411.415 363.475 410.207 359.041 407.89C353.339 422.696 338.714 433.473 321.133 434.077C304.133 434.631 289.192 425.415 282.117 411.768C280.903 411.919 279.688 412.02 278.474 412.07C259.837 412.674 243.998 399.883 241.094 382.76C240.725 384.976 240.566 387.242 240.619 389.609C241.306 408.897 258.253 424.005 278.474 423.351C279.688 423.3 280.903 423.2 282.117 423.048C289.139 436.746 304.133 445.912 321.133 445.358C338.661 444.804 353.339 434.027 359.041 419.171C363.475 421.487 368.649 422.746 374.087 422.545C380.634 422.343 386.653 420.077 391.404 416.451C394.995 419.473 399.746 421.286 404.92 421.135C415.585 420.782 423.927 412.271 423.557 402.099C423.557 400.336 423.188 398.624 422.66 397.063Z" fill="#CCFFFF"/>
<path d="M191.994 183.31V196.134C191.694 196.074 191.334 196.014 190.974 196.014C188.634 196.014 186.715 197.625 186.715 199.653C186.715 201.681 188.634 203.291 190.974 203.291C193.313 203.291 195.233 201.681 195.233 199.653V185.517L204.592 181.58V191.78C204.292 191.72 203.932 191.66 203.572 191.66C201.232 191.66 199.313 193.271 199.313 195.299C199.313 197.327 201.232 198.937 203.572 198.937C205.911 198.937 207.831 197.327 207.831 195.299V180.209V178.956V176.63L191.994 183.31Z" fill="#4F579E"/>
<path d="M278.517 335.568C278.517 335.568 271.108 340.012 260.142 347.122C249.176 353.935 234.358 363.414 219.539 372.598C212.13 377.338 205.017 382.077 198.2 386.521C194.644 388.594 191.384 390.964 188.42 392.742C185.16 394.815 182.196 396.593 179.529 398.37C176.861 400.148 174.194 401.629 171.823 402.814C169.452 403.999 167.377 405.184 165.599 405.776C162.043 407.257 159.968 407.85 159.968 407.85C158.486 408.146 157.004 407.257 156.708 405.48C156.412 404.591 156.708 403.702 157.301 403.11C157.301 403.11 158.783 401.333 161.746 398.963C163.228 397.778 165.303 396.593 167.378 395.112C169.748 393.631 172.416 392.446 175.083 390.668C178.047 389.187 181.011 387.41 184.271 385.632C187.531 383.855 191.087 382.077 194.644 380.004C201.757 376.153 209.462 372.005 217.168 368.154C232.579 359.86 247.695 351.565 259.253 345.344C270.812 339.123 278.221 334.976 278.221 334.976C278.517 334.976 278.814 334.976 278.814 335.272C278.517 334.976 278.517 335.272 278.517 335.568Z" fill="#5F4F9E" fill-opacity="0.64"/>
<path d="M276.144 324.903C276.144 324.903 263.103 328.162 243.246 333.198C223.389 338.234 197.012 345.047 170.635 351.861C157.595 355.415 144.258 358.97 132.107 362.229C125.883 363.71 119.955 365.487 114.324 366.969C108.693 368.45 103.358 369.635 98.32 371.116C93.2817 372.301 88.8361 373.486 84.6869 374.375C80.5376 375.263 76.9812 375.856 74.0175 376.448C68.0901 377.337 64.5336 377.337 64.5336 377.337C63.0517 377.337 61.5698 376.152 61.5698 374.671C61.5698 373.486 62.1626 372.597 63.0517 372.005C63.0517 372.005 66.3118 370.523 71.9429 368.746C74.9066 367.857 78.1667 366.672 82.3159 365.784C86.4651 364.895 90.9108 363.71 95.9491 362.525C100.987 361.34 106.322 360.155 111.953 358.97C117.584 357.785 123.808 356.6 130.032 355.119C142.48 352.453 155.816 349.787 169.153 347.121C195.827 341.492 222.5 335.568 242.357 331.42C262.214 326.977 275.551 324.015 275.551 324.015C275.847 324.015 275.847 324.014 276.144 324.311C276.736 324.607 276.44 324.607 276.144 324.903Z" fill="#5F4F9E" fill-opacity="0.64"/>
<path d="M275.555 316.908C275.555 316.908 267.257 316.908 254.513 316.908C241.769 316.908 225.172 316.908 208.278 317.204C199.98 317.204 191.385 317.501 183.679 317.501C179.827 317.501 175.974 317.501 172.417 317.501C168.861 317.501 165.304 317.501 162.341 317.501C159.08 317.501 156.413 317.501 153.746 317.204C151.078 317.204 149.004 316.908 147.226 316.612C143.669 316.019 141.595 315.131 141.595 315.131C140.113 314.538 139.52 312.761 140.113 311.28C140.409 310.391 141.002 309.798 141.891 309.502C141.891 309.502 143.966 308.91 147.818 308.317C149.597 308.021 151.968 308.021 154.338 308.021C157.006 308.021 159.673 308.317 162.933 308.317C166.193 308.613 169.454 308.614 173.01 308.91C176.567 309.206 180.419 309.502 184.272 309.798C192.274 310.391 200.573 310.983 208.871 311.576C225.764 312.761 242.361 313.946 255.105 314.538C267.849 315.131 276.148 315.723 276.148 315.723C276.444 315.723 276.444 316.019 276.444 316.019C275.851 316.908 275.851 316.908 275.555 316.908Z" fill="#5F4F9E" fill-opacity="0.64"/>
<path d="M275.257 268.616C275.257 268.616 270.811 264.765 264.291 259.432C257.771 253.804 248.88 246.398 240.285 239.288C231.394 231.882 222.503 224.773 215.983 219.144C214.501 217.663 213.019 216.478 211.537 215.293C210.351 214.108 209.166 212.923 208.573 211.738C207.091 209.665 206.499 208.184 206.499 208.184C205.906 206.702 206.795 204.925 208.573 204.333C209.166 204.036 209.759 204.036 210.351 204.333C210.351 204.333 211.833 204.629 214.204 206.11C215.39 206.702 216.575 207.591 217.761 208.776C218.946 209.961 220.428 211.442 221.91 212.923C228.134 218.848 235.839 227.439 243.545 235.733C251.547 244.028 259.253 252.323 265.477 258.247C271.404 264.468 275.553 268.319 275.553 268.319C275.85 268.616 275.85 268.616 275.553 268.912C275.553 268.616 275.553 268.616 275.257 268.616Z" fill="#5F4F9E" fill-opacity="0.64"/>
<path d="M152.558 115.466L154.633 124.946L164.117 126.723L155.522 131.463L156.708 141.239L149.595 134.722L140.704 138.573L144.853 129.982L138.333 122.872L147.816 123.761L152.558 115.466Z" fill="#5F4F9E" fill-opacity="0.64"/>
<path d="M86.4659 263.281L88.8369 275.426L100.988 277.796L90.3188 284.017L91.5043 296.163L82.6131 287.868L71.3508 292.904L76.3892 281.647L68.0908 272.76L80.242 273.945L86.4659 263.281Z" fill="#5F4F9E" fill-opacity="0.64"/>
<path d="M216.871 392.444L217.761 397.48L222.799 398.369L218.353 400.739L218.946 405.775L215.093 402.516L210.648 404.59L212.722 399.85L209.462 396.295L214.204 396.888L216.871 392.444Z" fill="#5F4F9E" fill-opacity="0.64"/>
<path d="M116.694 329.344C119.969 329.344 122.622 326.693 122.622 323.419C122.622 320.146 119.969 317.495 116.694 317.495C113.422 317.495 110.767 320.146 110.767 323.419C110.767 326.693 113.422 329.344 116.694 329.344Z" fill="#F23116"/>
<path d="M208.278 174.708C210.569 174.708 212.428 172.851 212.428 170.561C212.428 168.271 210.569 166.414 208.278 166.414C205.987 166.414 204.129 168.271 204.129 170.561C204.129 172.851 205.987 174.708 208.278 174.708Z" fill="#F23116"/>
<path d="M274.766 220.259L280.989 250.179C281.286 251.363 282.175 252.252 283.36 252.548L313.294 258.769C323.964 260.843 326.038 275.062 316.851 280.394L290.473 295.503C289.584 296.095 288.992 297.28 288.992 298.465L292.252 328.681C293.437 339.345 280.693 345.863 272.691 338.753L250.167 318.313C249.278 317.424 248.092 317.424 246.907 317.72L219.048 330.458C209.267 334.902 199.191 324.83 203.636 315.054L216.084 287.208C216.677 286.023 216.38 284.838 215.491 283.949L195.041 261.435C187.928 253.437 194.152 240.699 204.822 241.884L235.052 245.142C236.237 245.142 237.423 244.55 238.015 243.661L253.13 217.296C258.465 207.521 272.691 209.89 274.766 220.259Z" fill="#F04E64"/>
<path d="M286.132 249.698L286.13 249.69L279.611 219.478C279.611 219.477 279.611 219.476 279.61 219.475C277.337 209.256 263.706 207.278 258.6 216.064C258.6 216.065 258.6 216.065 258.6 216.065L243.19 243.02L243.182 243.035L243.172 243.049C242.475 244.094 241.123 244.753 239.792 244.753H239.766L239.74 244.75L208.917 241.491L208.916 241.491C198.406 240.356 192.167 252.846 199.26 260.502L199.26 260.503L220.296 283.306C221.308 284.322 221.674 285.728 220.98 287.125L208.241 315.255C208.241 315.256 208.241 315.257 208.24 315.257C203.982 324.909 213.63 334.554 223.288 330.297C223.289 330.297 223.289 330.296 223.29 330.296L251.441 317.56L251.482 317.541L251.526 317.53C252.764 317.221 254.173 317.176 255.251 318.244L278.357 338.971L286.132 249.698ZM286.132 249.698L286.134 249.706M286.132 249.698L286.134 249.706M286.134 249.706C286.475 251.071 287.504 252.099 288.869 252.44L288.879 252.443M286.134 249.706L288.879 252.443M288.879 252.443L288.889 252.445M288.879 252.443L288.889 252.445M288.889 252.445L319.119 258.666L319.125 258.667M288.889 252.445L319.125 258.667M319.125 258.667C329.34 260.652 331.608 274.558 322.532 279.661L322.529 279.663M319.125 258.667L322.529 279.663M322.529 279.663L295.57 295.061M322.529 279.663L295.57 295.061M295.57 295.061C294.219 295.742 293.492 297.129 293.832 298.552L297.384 329.326C297.384 329.327 297.384 329.327 297.384 329.328C298.518 339.824 286.32 346.077 278.358 338.972L295.57 295.061Z" fill="#FEE35E" stroke="#666666"/>
<path d="M274.468 227.662L281.285 252.842C281.581 253.73 282.47 254.619 283.359 254.619L309.144 258.47C318.331 259.951 320.702 271.801 312.996 276.54L291.361 290.76C290.472 291.352 290.176 292.241 290.176 293.426L294.325 318.902C295.807 327.789 285.434 334.01 278.321 328.382L258.167 312.089C257.278 311.496 256.389 311.2 255.5 311.792L232.383 323.642C224.381 327.789 215.193 319.791 218.454 311.2L227.641 286.909C227.937 286.02 227.641 284.835 227.048 284.243L208.673 266.172C202.153 259.655 206.895 248.694 216.082 249.287L241.867 250.768C242.756 250.768 243.942 250.175 244.238 249.287L255.796 226.18C259.946 217.59 272.097 218.774 274.468 227.662Z" fill="#FCE47E"/>
<path d="M277.435 235.958L280.399 258.176C280.399 259.064 280.992 259.657 281.881 259.953L303.22 266.174C310.925 268.248 311.814 278.616 304.702 282.171L284.548 291.947C283.659 292.243 283.363 293.132 283.363 294.02L284.252 316.238C284.548 324.236 275.064 328.087 269.433 322.459L254.022 306.462C253.429 305.87 252.54 305.573 251.651 305.87L230.608 313.572C223.199 316.238 216.382 308.536 220.235 301.426L230.905 281.875C231.201 280.986 231.201 280.097 230.608 279.505L216.975 262.027C212.233 255.806 217.568 246.919 225.274 248.4L247.205 252.547C248.094 252.844 248.983 252.251 249.28 251.659L261.727 233.292C266.173 225.886 276.25 228.256 277.435 235.958Z" fill="#F9EBB2"/>
<path d="M256.397 385.773C256.086 378.54 248.57 372.883 239.586 373.134C238.741 373.17 237.897 373.241 237.052 373.349C233.405 365.544 223.932 360.137 212.992 360.424C210.635 360.495 208.412 360.818 206.277 361.355C202.853 348.107 187.955 338.369 170.611 338.834C158.425 339.157 147.886 344.42 141.882 352.189C138.769 351.437 135.478 351.079 132.098 351.187C115.065 351.652 101.724 363.145 102.302 376.857C102.88 390.57 117.156 401.311 134.188 400.846C135.211 400.81 136.234 400.738 137.257 400.631C143.172 410.369 155.802 416.886 170.122 416.492C184.886 416.098 197.249 408.436 202.052 397.874C205.788 399.521 210.146 400.416 214.727 400.273C220.241 400.13 225.311 398.518 229.313 395.941C232.338 398.089 236.34 399.378 240.698 399.27C249.637 399.056 256.664 393.005 256.397 385.773Z" fill="white"/>
<path d="M255.596 382.227C253.55 387.347 247.724 391.106 240.653 391.321C236.295 391.429 232.292 390.176 229.268 387.992C225.266 390.569 220.196 392.181 214.682 392.324C210.101 392.431 205.743 391.572 202.007 389.925C197.204 400.451 184.885 408.113 170.076 408.543C155.756 408.936 143.171 402.384 137.212 392.682C136.189 392.789 135.166 392.861 134.143 392.897C118.445 393.326 105.103 384.232 102.657 372.059C102.346 373.634 102.212 375.246 102.257 376.928C102.835 390.641 117.11 401.382 134.143 400.917C135.166 400.881 136.189 400.809 137.212 400.702C143.126 410.44 155.756 416.956 170.076 416.563C184.841 416.169 197.204 408.507 202.007 397.945C205.743 399.592 210.101 400.487 214.682 400.344C220.196 400.2 225.266 398.589 229.268 396.011C232.292 398.16 236.295 399.449 240.653 399.341C249.636 399.091 256.663 393.04 256.352 385.808C256.352 384.554 256.04 383.337 255.596 382.227Z" fill="#CCFFFF"/>
<path d="M215.461 353.232L172.305 370.98C171.324 371.383 170.191 370.911 169.788 369.93L135.213 285.959C134.809 284.979 135.281 283.846 136.262 283.443L186.195 262.908C187.175 262.505 188.308 262.977 188.712 263.958L220.49 341.136C222.442 345.878 220.186 351.288 215.461 353.232Z" fill="#FCA417"/>
<path opacity="0.33" d="M171.614 368.406L137.588 285.759C137.038 284.422 137.678 282.887 139.015 282.337L136.911 283.203C135.574 283.753 134.934 285.288 135.484 286.625L169.51 369.271C170.061 370.608 171.596 371.248 172.933 370.698L175.037 369.833C173.707 370.401 172.165 369.743 171.614 368.406Z" fill="white"/>
<path d="M179.059 346.875C184.161 344.777 186.594 338.941 184.494 333.84C182.394 328.74 176.556 326.306 171.454 328.404C166.352 330.502 163.919 336.338 166.019 341.439C168.119 346.539 173.957 348.973 179.059 346.875Z" fill="#FCA84C"/>
<path opacity="0.66" d="M166.266 335C167.779 329.812 173.146 326.792 178.349 328.134C178.256 328.109 178.155 328.067 178.062 328.043C172.771 326.487 167.204 329.527 165.674 334.827C164.144 340.126 167.161 345.681 172.462 347.212C172.556 347.236 172.674 347.271 172.768 347.295C167.64 345.63 164.735 340.195 166.266 335Z" fill="#FCA84C"/>
<path d="M185.556 263.172L183.327 264.088C184.664 263.538 186.253 264.156 186.804 265.493L217.037 338.925C219.687 345.361 216.585 352.765 210.131 355.42L212.36 354.503C218.796 351.856 221.887 344.477 219.23 338.023L189.004 264.609C188.436 263.28 186.893 262.622 185.556 263.172Z" fill="#FCA84C"/>
<path d="M205.242 357.431L212.34 354.512C218.777 351.864 221.869 344.484 219.212 338.03L216.29 330.934L205.242 357.431Z" fill="#FCA84C"/>
<path d="M211.634 352.801L173.735 368.387C172.826 368.761 172.385 369.818 172.76 370.727L172.774 370.763L212.331 354.495C222.693 350.234 221.862 344.466 219.204 338.011L218.507 336.317C221.164 342.772 218.09 350.146 211.634 352.801Z" fill="#FCA84C"/>
<path d="M215.461 353.232L172.305 370.98C171.324 371.383 170.191 370.911 169.788 369.93L135.213 285.959C134.809 284.979 135.281 283.846 136.262 283.443L186.195 262.908C187.175 262.505 188.308 262.977 188.712 263.958L220.49 341.136C222.442 345.878 220.186 351.288 215.461 353.232Z" stroke="black" stroke-miterlimit="10" stroke-linecap="round" stroke-linejoin="round"/>
<path d="M194.57 306.998L159.224 321.534C158.831 321.696 158.378 321.507 158.217 321.115L146.177 291.875C146.016 291.483 146.205 291.03 146.597 290.868L184.084 275.452C184.476 275.291 184.929 275.48 185.091 275.872L196.249 302.972C196.895 304.541 196.14 306.353 194.57 306.998Z" fill="#514447"/>
<path d="M194.57 306.998L159.224 321.534C158.831 321.696 158.378 321.507 158.217 321.115L146.177 291.875C146.016 291.483 146.205 291.03 146.597 290.868L184.084 275.452C184.476 275.291 184.929 275.48 185.091 275.872L196.249 302.972C196.895 304.541 196.14 306.353 194.57 306.998Z" stroke="black" stroke-miterlimit="10" stroke-linecap="round" stroke-linejoin="round"/>
<path d="M188.549 305.492L164.581 315.349C164.474 315.393 164.373 315.351 164.329 315.244L155.263 293.226C155.219 293.119 155.261 293.018 155.368 292.974L179.336 283.117C179.443 283.073 179.544 283.115 179.588 283.222L188.654 305.241C188.698 305.348 188.638 305.456 188.549 305.492Z" fill="#83906F"/>
<path d="M188.549 305.492L164.581 315.349C164.474 315.393 164.373 315.351 164.329 315.244L155.263 293.226C155.219 293.119 155.261 293.018 155.368 292.974L179.336 283.117C179.443 283.073 179.544 283.115 179.588 283.222L188.654 305.241C188.698 305.348 188.638 305.456 188.549 305.492Z" stroke="black" stroke-miterlimit="10" stroke-linecap="round" stroke-linejoin="round"/>
<path d="M185.559 263.172L136.905 283.183C135.567 283.733 134.927 285.269 135.477 286.606L136.476 289.031L189.981 267.025L188.983 264.6C188.439 263.28 186.896 262.622 185.559 263.172Z" stroke="black" stroke-miterlimit="10" stroke-linecap="round" stroke-linejoin="round"/>
<path d="M184.953 316.308L199.31 310.402" stroke="black" stroke-miterlimit="10" stroke-linecap="round" stroke-linejoin="round"/>
<path d="M160.393 326.409L174.751 320.503" stroke="black" stroke-miterlimit="10" stroke-linecap="round" stroke-linejoin="round"/>
<path d="M182.278 337.067L170.293 341.995C169.848 342.179 169.326 341.976 169.135 341.512L168.173 339.177C167.99 338.731 168.192 338.21 168.656 338.019L180.641 333.09C181.087 332.907 181.608 333.109 181.799 333.573L182.761 335.909C182.934 336.38 182.724 336.883 182.278 337.067Z" fill="#664A4A"/>
<path d="M175.94 344.363L171.007 332.382C170.824 331.937 171.026 331.416 171.49 331.225L173.826 330.264C174.272 330.081 174.793 330.284 174.984 330.747L179.916 342.727C180.1 343.173 179.898 343.694 179.434 343.885L177.098 344.845C176.627 345.018 176.124 344.808 175.94 344.363Z" fill="#664A4A"/>
<path d="M180.449 333.231L177.042 334.632C176.828 334.72 176.594 334.608 176.514 334.412L175.126 331.042C174.877 330.436 174.172 330.142 173.565 330.391L171.818 331.11C171.247 331.345 170.974 331.999 171.209 332.57L172.633 336.028C172.721 336.242 172.609 336.476 172.413 336.557L169.007 337.958C168.418 338.2 168.135 338.879 168.377 339.467L169.097 341.215C169.339 341.803 170.019 342.086 170.607 341.844L174.013 340.444C174.227 340.356 174.461 340.468 174.542 340.664L175.929 344.034C176.179 344.64 176.884 344.934 177.49 344.684L179.167 343.995C179.773 343.745 180.067 343.041 179.817 342.435L178.43 339.065C178.342 338.851 178.454 338.617 178.65 338.537L181.985 337.165C182.627 336.901 182.913 336.179 182.656 335.555L181.966 333.879C181.692 333.262 181.037 332.989 180.449 333.231Z" stroke="black" stroke-miterlimit="10" stroke-linecap="round" stroke-linejoin="round"/>
<path d="M198.917 335.788C197.937 336.191 196.873 336.191 195.891 335.781C194.909 335.372 194.16 334.617 193.757 333.636C193.353 332.656 193.353 331.592 193.762 330.611L197.403 321.879C197.812 320.898 198.567 320.15 199.548 319.746C200.529 319.343 201.592 319.343 202.574 319.753C204.588 320.592 205.543 322.91 204.696 324.905L201.055 333.637C200.646 334.618 199.898 335.384 198.917 335.788Z" fill="#FCA84C"/>
<path opacity="0.66" d="M196.176 335.663C195.195 335.254 194.446 334.499 194.042 333.518C193.638 332.538 193.638 331.474 194.047 330.493L197.688 321.762C198.076 320.831 198.778 320.104 199.698 319.705C199.644 319.727 199.609 319.742 199.555 319.764C198.574 320.167 197.819 320.916 197.41 321.897L193.77 330.628C193.36 331.61 193.36 332.673 193.764 333.653C194.168 334.634 194.917 335.389 195.898 335.799C196.88 336.208 197.944 336.208 198.925 335.805C198.978 335.783 199.014 335.768 199.067 335.746C198.111 336.056 197.108 336.052 196.176 335.663Z" fill="#FCA84C"/>
<path d="M202.052 325.826C203.392 325.275 204.031 323.743 203.479 322.404C202.928 321.065 201.395 320.426 200.055 320.977C198.716 321.527 198.077 323.06 198.629 324.399C199.18 325.738 200.713 326.377 202.052 325.826Z" fill="#FF1F1F"/>
<path d="M198.41 334.557C199.75 334.006 200.388 332.474 199.837 331.135C199.286 329.796 197.753 329.157 196.413 329.707C195.074 330.258 194.435 331.79 194.986 333.13C195.538 334.469 197.071 335.108 198.41 334.557Z" fill="#FF1F1F"/>
<path d="M202.052 325.826C203.392 325.275 204.031 323.743 203.479 322.404C202.928 321.065 201.395 320.426 200.055 320.977C198.716 321.527 198.077 323.06 198.629 324.399C199.18 325.738 200.713 326.377 202.052 325.826Z" stroke="black" stroke-miterlimit="10" stroke-linecap="round" stroke-linejoin="round"/>
<path d="M198.41 334.557C199.75 334.006 200.388 332.474 199.837 331.135C199.286 329.796 197.753 329.157 196.413 329.707C195.074 330.258 194.435 331.79 194.986 333.13C195.538 334.469 197.071 335.108 198.41 334.557Z" stroke="black" stroke-miterlimit="10" stroke-linecap="round" stroke-linejoin="round"/>
<path d="M187.702 351.657L187.173 351.437C186.871 351.311 186.732 350.972 186.865 350.688L189.079 345.378C189.205 345.076 189.544 344.937 189.828 345.07L190.356 345.291C190.659 345.417 190.798 345.755 190.665 346.04L188.451 351.349C188.325 351.651 187.986 351.79 187.702 351.657Z" stroke="black" stroke-miterlimit="10" stroke-linecap="round" stroke-linejoin="round"/>
<path d="M193.801 349.149L193.273 348.928C192.971 348.802 192.831 348.464 192.964 348.18L195.178 342.87C195.304 342.568 195.643 342.429 195.927 342.562L196.456 342.783C196.758 342.909 196.898 343.247 196.764 343.531L194.55 348.841C194.442 349.135 194.104 349.275 193.801 349.149Z" stroke="black" stroke-miterlimit="10" stroke-linecap="round" stroke-linejoin="round"/>
<path d="M206.938 345.245L211.049 346.973" stroke="black" stroke-miterlimit="10" stroke-linecap="round" stroke-linejoin="round"/>
<path d="M205.808 347.92L209.937 349.641" stroke="black" stroke-miterlimit="10" stroke-linecap="round" stroke-linejoin="round"/>
<path d="M208.139 342.333L212.267 344.054" stroke="black" stroke-miterlimit="10" stroke-linecap="round" stroke-linejoin="round"/>
<path d="M209.251 339.666L213.38 341.388" stroke="black" stroke-miterlimit="10" stroke-linecap="round" stroke-linejoin="round"/>
<path d="M210.364 336.999L214.492 338.72" stroke="black" stroke-miterlimit="10" stroke-linecap="round" stroke-linejoin="round"/>
<path d="M182.527 264.42L140.079 281.878L142.084 286.746L184.531 269.288L182.527 264.42Z" stroke="black" stroke-miterlimit="10" stroke-linecap="round" stroke-linejoin="round"/>
<path d="M150.641 292.334L168.066 285.167" stroke="black" stroke-miterlimit="10" stroke-linecap="round" stroke-linejoin="round"/>
<path d="M177.394 281.331L182.976 279.035" stroke="black" stroke-miterlimit="10" stroke-linecap="round" stroke-linejoin="round"/>
<path d="M176.948 318.85L177.477 320.133" stroke="black" stroke-miterlimit="10" stroke-linecap="round" stroke-linejoin="round"/>
<path d="M178.713 318.123L179.242 319.407" stroke="black" stroke-miterlimit="10" stroke-linecap="round" stroke-linejoin="round"/>
<path d="M180.461 317.405L180.99 318.688" stroke="black" stroke-miterlimit="10" stroke-linecap="round" stroke-linejoin="round"/>
<path d="M182.227 316.678L182.755 317.961" stroke="black" stroke-miterlimit="10" stroke-linecap="round" stroke-linejoin="round"/>
<path d="M169.375 377.359L137.72 399.109C137.001 399.604 136.007 399.42 135.512 398.7L93.1454 337.104C92.6506 336.385 92.8345 335.392 93.5539 334.897L130.179 309.732C130.899 309.238 131.892 309.422 132.387 310.141L171.327 366.755C173.719 370.233 172.841 374.977 169.375 377.359Z" fill="#00E5AC"/>
<path opacity="0.33" d="M136.718 397.156L95.0216 336.532C94.3471 335.551 94.5962 334.205 95.5771 333.531L94.0338 334.592C93.0529 335.266 92.8038 336.612 93.4783 337.593L135.174 398.216C135.849 399.197 137.195 399.447 138.176 398.772L139.72 397.712C138.748 398.399 137.392 398.137 136.718 397.156Z" fill="white"/>
<path d="M138.98 378.542C142.722 375.97 143.67 370.853 141.096 367.111C138.523 363.37 133.403 362.421 129.661 364.993C125.919 367.564 124.971 372.682 127.544 376.423C130.118 380.164 135.238 381.113 138.98 378.542Z" fill="#00E5AC"/>
<path opacity="0.66" d="M126.628 371.197C126.947 366.76 130.743 363.401 135.162 363.58C135.083 363.577 134.995 363.561 134.915 363.557C130.388 363.221 126.435 366.631 126.121 371.16C125.808 375.689 129.198 379.638 133.729 379.953C133.809 379.956 133.91 379.963 133.989 379.967C129.575 379.514 126.296 375.643 126.628 371.197Z" fill="#00E5AC"/>
<path d="M129.713 310.056L128.078 311.179C129.059 310.505 130.444 310.727 131.119 311.708L168.167 365.572C171.414 370.293 170.2 376.789 165.465 380.042L167.1 378.919C171.821 375.675 173.031 369.201 169.775 364.467L132.737 310.616C132.049 309.644 130.694 309.382 129.713 310.056Z" fill="#00E5AC"/>
<path d="M161.879 382.505L167.086 378.928C171.808 375.683 173.018 369.209 169.762 364.475L166.181 359.269L161.879 382.505Z" fill="#00E5AC"/>
<path d="M166.221 377.673L138.422 396.775C137.755 397.233 137.583 398.16 138.042 398.827L138.06 398.853L167.076 378.916C174.676 373.694 173.009 369.196 169.752 364.461L168.897 363.219C172.154 367.953 170.957 374.42 166.221 377.673Z" fill="#00E5AC"/>
<path d="M169.375 377.359L137.72 399.109C137.001 399.604 136.007 399.42 135.512 398.7L93.1454 337.104C92.6506 336.385 92.8345 335.392 93.5539 334.897L130.179 309.732C130.899 309.238 131.892 309.422 132.387 310.141L171.327 366.755C173.719 370.233 172.841 374.977 169.375 377.359Z" stroke="black" stroke-miterlimit="10" stroke-linecap="round" stroke-linejoin="round"/>
<path d="M144.556 343.766L118.629 361.58C118.342 361.778 117.944 361.704 117.746 361.417L102.993 339.968C102.795 339.68 102.869 339.283 103.157 339.085L130.653 320.192C130.941 319.995 131.339 320.068 131.537 320.356L145.21 340.235C146.002 341.386 145.707 342.975 144.556 343.766Z" fill="#514447"/>
<path d="M144.556 343.766L118.629 361.58C118.342 361.778 117.944 361.704 117.746 361.417L102.993 339.968C102.795 339.68 102.869 339.283 103.157 339.085L130.653 320.192C130.941 319.995 131.339 320.068 131.537 320.356L145.21 340.235C146.002 341.386 145.707 342.975 144.556 343.766Z" stroke="black" stroke-miterlimit="10" stroke-linecap="round" stroke-linejoin="round"/>
<path d="M139.449 343.596L121.868 355.676C121.79 355.73 121.702 355.714 121.648 355.635L110.538 339.483C110.484 339.405 110.501 339.317 110.579 339.263L128.16 327.183C128.238 327.129 128.327 327.145 128.381 327.224L139.49 343.375C139.544 343.454 139.515 343.551 139.449 343.596Z" fill="#83906F"/>
<path d="M139.449 343.596L121.868 355.676C121.79 355.73 121.702 355.714 121.648 355.635L110.538 339.483C110.484 339.405 110.501 339.317 110.579 339.263L128.16 327.183C128.238 327.129 128.327 327.145 128.381 327.224L139.49 343.375C139.544 343.454 139.515 343.551 139.449 343.596Z" stroke="black" stroke-miterlimit="10" stroke-linecap="round" stroke-linejoin="round"/>
<path d="M129.714 310.056L94.0251 334.578C93.0439 335.253 92.7946 336.599 93.4694 337.58L94.6929 339.359L133.94 312.391L132.717 310.612C132.051 309.644 130.695 309.381 129.714 310.056Z" stroke="black" stroke-miterlimit="10" stroke-linecap="round" stroke-linejoin="round"/>
<path d="M138.428 352.922L148.96 345.685" stroke="black" stroke-miterlimit="10" stroke-linecap="round" stroke-linejoin="round"/>
<path d="M120.414 365.3L130.945 358.063" stroke="black" stroke-miterlimit="10" stroke-linecap="round" stroke-linejoin="round"/>
<path d="M139.871 370.09L131.08 376.131C130.753 376.356 130.298 376.283 130.064 375.943L128.886 374.229C128.661 373.902 128.734 373.448 129.074 373.214L137.865 367.174C138.192 366.949 138.647 367.022 138.88 367.362L140.059 369.075C140.28 369.424 140.198 369.866 139.871 370.09Z" fill="#664A4A"/>
<path d="M136.034 377.059L129.99 368.271C129.765 367.944 129.838 367.49 130.178 367.256L131.892 366.079C132.219 365.854 132.673 365.927 132.907 366.267L138.951 375.055C139.176 375.382 139.103 375.836 138.763 376.07L137.05 377.247C136.701 377.468 136.259 377.386 136.034 377.059Z" fill="#664A4A"/>
<path d="M137.735 367.321L135.236 369.038C135.079 369.145 134.871 369.095 134.773 368.952L133.072 366.48C132.767 366.035 132.148 365.921 131.704 366.226L130.422 367.107C130.003 367.395 129.897 367.968 130.185 368.387L131.93 370.924C132.038 371.081 131.988 371.289 131.844 371.387L129.346 373.104C128.914 373.401 128.804 373.997 129.1 374.428L129.982 375.71C130.279 376.141 130.875 376.252 131.307 375.955L133.805 374.239C133.962 374.131 134.17 374.181 134.269 374.324L135.969 376.796C136.275 377.241 136.893 377.355 137.338 377.05L138.567 376.205C139.012 375.899 139.126 375.281 138.82 374.837L137.12 372.365C137.012 372.208 137.062 372.001 137.206 371.902L139.652 370.221C140.123 369.897 140.229 369.266 139.914 368.809L139.068 367.579C138.74 367.131 138.166 367.024 137.735 367.321Z" stroke="black" stroke-miterlimit="10" stroke-linecap="round" stroke-linejoin="round"/>
<path d="M153.041 366.184C152.322 366.678 151.466 366.862 150.605 366.702C149.744 366.543 149.011 366.065 148.516 365.345C148.021 364.626 147.837 363.77 147.996 362.91L149.414 355.253C149.573 354.392 150.052 353.659 150.771 353.165C151.49 352.67 152.346 352.487 153.207 352.646C154.974 352.973 156.143 354.674 155.807 356.426L154.389 364.083C154.23 364.943 153.761 365.69 153.041 366.184Z" fill="#00E5AC"/>
<path opacity="0.66" d="M150.814 366.558C149.953 366.399 149.22 365.921 148.725 365.201C148.23 364.482 148.046 363.626 148.206 362.766L149.623 355.109C149.774 354.293 150.213 353.586 150.884 353.106C150.845 353.133 150.819 353.151 150.78 353.178C150.06 353.672 149.582 354.405 149.423 355.266L148.005 362.923C147.846 363.783 148.03 364.639 148.525 365.358C149.019 366.078 149.753 366.556 150.614 366.715C151.475 366.875 152.331 366.691 153.05 366.197C153.09 366.17 153.116 366.152 153.155 366.125C152.439 366.54 151.631 366.71 150.814 366.558Z" fill="#00E5AC"/>
<path d="M153.839 357.625C154.822 356.95 155.071 355.606 154.395 354.624C153.719 353.642 152.375 353.393 151.393 354.068C150.41 354.743 150.161 356.086 150.837 357.069C151.513 358.051 152.857 358.3 153.839 357.625Z" fill="#FF1F1F"/>
<path d="M152.42 365.282C153.403 364.607 153.651 363.263 152.976 362.281C152.3 361.298 150.956 361.049 149.973 361.724C148.991 362.4 148.742 363.743 149.418 364.725C150.093 365.708 151.438 365.957 152.42 365.282Z" fill="#FF1F1F"/>
<path d="M153.839 357.625C154.822 356.95 155.071 355.606 154.395 354.624C153.719 353.642 152.375 353.393 151.393 354.068C150.41 354.743 150.161 356.086 150.837 357.069C151.513 358.051 152.857 358.3 153.839 357.625Z" stroke="black" stroke-miterlimit="10" stroke-linecap="round" stroke-linejoin="round"/>
<path d="M152.42 365.282C153.403 364.607 153.651 363.263 152.976 362.281C152.3 361.298 150.956 361.049 149.973 361.724C148.991 362.4 148.742 363.743 149.418 364.725C150.093 365.708 151.438 365.957 152.42 365.282Z" stroke="black" stroke-miterlimit="10" stroke-linecap="round" stroke-linejoin="round"/>
<path d="M146.764 380.894L146.3 380.808C146.035 380.759 145.864 380.511 145.922 380.259L146.784 375.603C146.833 375.338 147.082 375.168 147.334 375.226L147.797 375.312C148.062 375.361 148.233 375.609 148.175 375.861L147.313 380.517C147.264 380.782 147.015 380.952 146.764 380.894Z" stroke="black" stroke-miterlimit="10" stroke-linecap="round" stroke-linejoin="round"/>
<path d="M151.238 377.82L150.774 377.734C150.509 377.685 150.338 377.436 150.396 377.185L151.258 372.529C151.307 372.264 151.556 372.093 151.808 372.151L152.271 372.237C152.536 372.286 152.707 372.535 152.649 372.786L151.787 377.442C151.751 377.698 151.503 377.869 151.238 377.82Z" stroke="black" stroke-miterlimit="10" stroke-linecap="round" stroke-linejoin="round"/>
<path d="M161.134 372.406L164.741 373.085" stroke="black" stroke-miterlimit="10" stroke-linecap="round" stroke-linejoin="round"/>
<path d="M160.688 374.753L164.308 375.424" stroke="black" stroke-miterlimit="10" stroke-linecap="round" stroke-linejoin="round"/>
<path d="M161.595 369.854L165.215 370.525" stroke="black" stroke-miterlimit="10" stroke-linecap="round" stroke-linejoin="round"/>
<path d="M162.028 367.515L165.649 368.186" stroke="black" stroke-miterlimit="10" stroke-linecap="round" stroke-linejoin="round"/>
<path d="M162.462 365.176L166.082 365.847" stroke="black" stroke-miterlimit="10" stroke-linecap="round" stroke-linejoin="round"/>
<path d="M127.49 311.584L96.3542 332.978L98.8103 336.549L129.946 315.155L127.49 311.584Z" stroke="black" stroke-miterlimit="10" stroke-linecap="round" stroke-linejoin="round"/>
<path d="M106.664 339.566L119.446 330.783" stroke="black" stroke-miterlimit="10" stroke-linecap="round" stroke-linejoin="round"/>
<path d="M126.287 326.083L130.382 323.269" stroke="black" stroke-miterlimit="10" stroke-linecap="round" stroke-linejoin="round"/>
<path d="M132.427 356.352L133.074 357.293" stroke="black" stroke-miterlimit="10" stroke-linecap="round" stroke-linejoin="round"/>
<path d="M133.722 355.463L134.37 356.404" stroke="black" stroke-miterlimit="10" stroke-linecap="round" stroke-linejoin="round"/>
<path d="M135.004 354.582L135.652 355.523" stroke="black" stroke-miterlimit="10" stroke-linecap="round" stroke-linejoin="round"/>
<path d="M136.299 353.692L136.947 354.634" stroke="black" stroke-miterlimit="10" stroke-linecap="round" stroke-linejoin="round"/>
<path d="M312.829 383.348C310.983 375.184 301.268 370.296 291.102 372.431C290.148 372.646 289.202 372.901 288.263 373.197C282.505 365.069 270.616 360.869 258.231 363.447C255.565 364.013 253.102 364.838 250.785 365.888C244.158 351.523 225.204 343.511 205.572 347.612C191.779 350.487 180.876 358.644 175.649 368.719C171.953 368.504 168.136 368.774 164.314 369.593C145.036 373.629 132.231 389.45 135.716 404.931C139.201 420.411 157.654 429.692 176.932 425.655C178.088 425.404 179.236 425.112 180.378 424.779C189.114 434.64 204.823 439.453 221.03 436.057C237.743 432.569 250.225 421.307 253.51 408.303C258.099 409.408 263.241 409.529 268.422 408.423C274.665 407.124 280.099 404.248 284.12 400.491C288.003 402.312 292.821 402.955 297.756 401.935C307.879 399.851 314.624 391.521 312.829 383.348Z" fill="white"/>
<path d="M311.186 379.477C309.915 385.723 304.064 391.2 296.065 392.9C291.13 393.92 286.319 393.318 282.429 391.456C278.408 395.213 272.973 398.089 266.73 399.388C261.542 400.453 256.408 400.373 251.819 399.268C248.526 412.232 236.094 423.486 219.338 427.023C203.131 430.42 187.464 425.557 178.685 415.745C177.544 416.078 176.395 416.37 175.239 416.621C157.471 420.342 140.42 412.743 135.128 399.398C135.098 401.254 135.279 403.114 135.676 405.02C139.162 420.501 157.615 429.782 176.893 425.746C178.049 425.494 179.198 425.202 180.339 424.869C189.075 434.731 204.785 439.544 220.992 436.147C237.705 432.66 250.188 421.397 253.473 408.392C258.061 409.497 263.203 409.618 268.384 408.512C274.627 407.214 280.062 404.337 284.083 400.58C287.965 402.401 292.784 403.044 297.719 402.024C307.886 399.889 314.63 391.559 312.785 383.395C312.526 381.969 311.921 380.649 311.186 379.477Z" fill="#CCFFFF"/>
<path d="M256.066 147.747L255.177 149.08C254.287 150.413 253.065 151.413 251.731 152.191L244.507 156.301L245.507 159.745L249.397 172.52C248.953 172.52 248.619 172.631 248.175 172.742C245.841 173.408 244.396 175.63 244.952 177.741C245.507 179.74 247.952 180.851 250.398 180.185C252.62 179.518 251.731 178.63 251.398 176.63L247.174 162.633L253.954 159.078C255.51 158.189 256.844 156.967 257.844 155.412L258.288 154.746L256.066 147.747Z" fill="#4F579E"/>
<path d="M438.623 432.374C438.253 422.754 429.331 415.231 418.666 415.564C417.663 415.612 416.66 415.707 415.656 415.85C411.327 405.469 400.082 398.278 387.094 398.659C384.296 398.754 381.656 399.183 379.122 399.897C375.056 382.278 357.37 369.325 336.779 369.944C322.313 370.373 309.801 377.373 302.673 387.706C298.977 386.706 295.071 386.23 291.058 386.373C270.837 386.992 254.998 402.278 255.685 420.516C256.371 438.755 273.319 453.041 293.539 452.421C294.754 452.374 295.968 452.279 297.182 452.136C304.204 465.088 319.198 473.755 336.199 473.231C353.727 472.707 368.404 462.517 374.106 448.469C378.541 450.66 383.715 451.85 389.153 451.66C395.7 451.469 401.718 449.326 406.47 445.898C410.06 448.755 414.812 450.469 419.986 450.326C430.598 450.041 438.939 441.993 438.623 432.374Z" fill="white"/>
<path d="M437.671 427.659C435.243 434.468 428.327 439.468 419.932 439.754C414.758 439.897 410.006 438.23 406.416 435.325C401.665 438.754 395.646 440.897 389.099 441.087C383.661 441.23 378.487 440.087 374.052 437.897C368.35 451.897 353.726 462.088 336.145 462.659C319.145 463.183 304.203 454.469 297.129 441.564C295.914 441.706 294.7 441.802 293.486 441.849C274.849 442.421 259.01 430.325 256.106 414.135C255.737 416.23 255.578 418.373 255.631 420.611C256.317 438.849 273.265 453.135 293.486 452.516C294.7 452.469 295.914 452.373 297.129 452.23C304.151 465.183 319.145 473.85 336.145 473.326C353.673 472.802 368.35 462.612 374.052 448.564C378.487 450.754 383.661 451.945 389.099 451.754C395.646 451.564 401.665 449.421 406.416 445.992C410.006 448.849 414.758 450.564 419.932 450.421C430.597 450.088 438.939 442.04 438.569 432.421C438.569 430.754 438.199 429.135 437.671 427.659Z" fill="#CCFFFF"/>
<path d="M226.725 394.362L227.926 402.471L231.17 405.471L227.926 408.472L226.725 416.58L225.524 408.472L222.279 405.471L225.524 402.471L226.725 394.362Z" fill="white"/>
<path d="M341.55 216.998L339.227 230.166L326.06 232.489L337.678 238.686L336.129 251.853L346.198 243.333L357.816 248.755L352.394 236.362L360.914 227.068L348.521 228.617L341.55 216.998Z" fill="#5F4F9E" fill-opacity="0.64"/>
<path d="M315.94 221.496L312.904 242.833L304.697 250.729L312.904 258.624L315.94 279.961L318.977 258.624L327.184 250.729L318.977 242.833L315.94 221.496Z" fill="white"/>
<path d="M423.569 400.054C423.199 389.881 414.277 381.924 403.612 382.277C402.609 382.327 401.606 382.428 400.602 382.579C396.273 371.6 385.028 363.996 372.04 364.399C369.242 364.5 366.602 364.953 364.068 365.708C360.002 347.075 342.316 333.377 321.725 334.032C307.259 334.485 294.747 341.888 287.619 352.816C283.924 351.758 280.017 351.255 276.004 351.406C255.783 352.061 239.945 368.226 240.631 387.514C241.317 406.802 258.265 421.91 278.486 421.255C279.7 421.205 280.914 421.104 282.128 420.953C289.15 434.651 304.144 443.817 321.145 443.263C338.673 442.709 353.35 431.932 359.052 417.076C363.487 419.392 368.661 420.651 374.099 420.45C380.646 420.248 386.664 417.982 391.416 414.356C395.006 417.378 399.758 419.191 404.932 419.04C415.544 418.738 423.885 410.227 423.569 400.054Z" fill="white"/>
<path d="M243.379 376.852L229.996 379.629L229.533 377.4C229.241 375.998 230.15 374.613 231.552 374.322L239.836 372.603C241.238 372.312 242.624 373.221 242.915 374.622L243.379 376.852Z" fill="#C1A7A7"/>
<path d="M243.379 376.852L229.996 379.629L229.533 377.4C229.241 375.998 230.15 374.613 231.552 374.322L239.836 372.603C241.238 372.312 242.624 373.221 242.915 374.622L243.379 376.852Z" stroke="black" stroke-miterlimit="10" stroke-linecap="round" stroke-linejoin="round"/>
<path d="M241.747 372.756L242.63 377.008" stroke="black" stroke-miterlimit="10" stroke-linecap="round" stroke-linejoin="round"/>
<path d="M240.313 373.052L241.196 377.304" stroke="black" stroke-miterlimit="10" stroke-linecap="round" stroke-linejoin="round"/>
<path d="M238.879 373.352L239.762 377.604" stroke="black" stroke-miterlimit="10" stroke-linecap="round" stroke-linejoin="round"/>
<path d="M237.445 373.649L238.329 377.901" stroke="black" stroke-miterlimit="10" stroke-linecap="round" stroke-linejoin="round"/>
<path d="M236.011 373.946L236.895 378.198" stroke="black" stroke-miterlimit="10" stroke-linecap="round" stroke-linejoin="round"/>
<path d="M234.577 374.243L235.46 378.495" stroke="black" stroke-miterlimit="10" stroke-linecap="round" stroke-linejoin="round"/>
<path d="M233.143 374.543L234.026 378.795" stroke="black" stroke-miterlimit="10" stroke-linecap="round" stroke-linejoin="round"/>
<path d="M231.709 374.84L232.593 379.092" stroke="black" stroke-miterlimit="10" stroke-linecap="round" stroke-linejoin="round"/>
<path d="M230.276 375.137L231.159 379.389" stroke="black" stroke-miterlimit="10" stroke-linecap="round" stroke-linejoin="round"/>
<path d="M296.58 359.844L245.281 370.49C243.863 370.784 242.699 371.74 242.07 373.033C240.766 375.796 238.22 377.936 235.002 378.603L216.203 382.504L224.543 422.639C224.984 424.758 227.042 426.108 229.161 425.668L306.907 409.535C309.026 409.095 310.376 407.038 309.936 404.919L301.198 362.873C300.758 360.755 298.683 359.408 296.58 359.844Z" fill="#E2A86D"/>
<path d="M222.267 388.51L217.647 389.469L224.401 421.972L229.021 421.013L222.267 388.51Z" fill="#D6975F"/>
<path d="M303.043 371.743L298.424 372.701L305.178 405.204L309.797 404.246L303.043 371.743Z" fill="#D6975F"/>
<mask id="mask0_313_72650" style="mask-type:alpha" maskUnits="userSpaceOnUse" x="217" y="371" width="93" height="51">
<path d="M303.033 371.711L217.642 389.427L224.41 421.987L309.801 404.271L303.033 371.711Z" fill="#E2A86D"/>
</mask>
<g mask="url(#mask0_313_72650)">
<path d="M224.516 384.62C234.531 388.041 240.776 397.461 239.855 406.855C238.774 417.961 228.254 423.3 227.634 423.594" stroke="#CC894C" stroke-miterlimit="10" stroke-linecap="round" stroke-linejoin="round"/>
<path d="M233.246 410.716C230.283 415.652 223.57 418.773 216.523 416.928" stroke="#CC894C" stroke-miterlimit="10" stroke-linecap="round" stroke-linejoin="round"/>
<path d="M213.513 391.637C223.351 390.444 231.745 394.617 234.165 401.06C234.286 401.4 235.374 404.397 234.685 407.88" stroke="#CC894C" stroke-miterlimit="10" stroke-linecap="round" stroke-linejoin="round"/>
<path d="M213.825 401.541C217.085 398.04 220.594 397.013 224.241 397.935C226.806 398.599 230.278 400.836 230.397 403.088C230.619 407.029 225.021 412.875 219.358 413.851" stroke="#CC894C" stroke-miterlimit="10" stroke-linecap="round" stroke-linejoin="round"/>
<path d="M222.735 400.041C223.254 400.299 225.96 401.166 226.044 404.289C226.074 405.313 224.298 409.319 219.963 409.488" stroke="#CC894C" stroke-miterlimit="10" stroke-linecap="round" stroke-linejoin="round"/>
<path d="M216.58 405.208C218.428 403.146 221.408 400.932 223.364 403.069" stroke="#CC894C" stroke-miterlimit="10" stroke-linecap="round" stroke-linejoin="round"/>
<path d="M220.204 422.643C221.792 422.447 231.008 421.133 235.501 413.488C236.666 411.502 237.267 409.516 237.564 407.826" stroke="#CC894C" stroke-miterlimit="10" stroke-linecap="round" stroke-linejoin="round"/>
<path d="M233.599 382.731C235.284 385.157 239.456 390.357 246.21 391.831C256.378 394.058 268.521 387.002 274.364 373.776" stroke="#CC894C" stroke-miterlimit="10" stroke-linecap="round" stroke-linejoin="round"/>
<path d="M241.297 381.385C241.587 382.222 242.605 384.802 245.356 386.525C249.062 388.846 252.937 387.743 253.549 387.567" stroke="#CC894C" stroke-miterlimit="10" stroke-linecap="round" stroke-linejoin="round"/>
<path d="M249.3 410.458C246.769 409.472 242.933 407.808 241.536 401.086C241.075 398.871 241.502 397.487 241.968 397.091C243.595 395.723 250.825 401.086 258.678 401.451C264.788 401.745 273.678 396.146 284.93 381.765" stroke="#CC894C" stroke-miterlimit="10" stroke-linecap="round" stroke-linejoin="round"/>
<path d="M287.839 372.723C282.969 374.398 273.446 378.55 268.807 387.887C268.546 388.389 265.768 394.05 267.042 394.982C267.882 395.588 271.39 386.404 280.467 380.749C282.659 379.381 284.647 378.553 286.038 378.048" stroke="#CC894C" stroke-miterlimit="10" stroke-linecap="round" stroke-linejoin="round"/>
<path d="M236.7 426.445C236.697 420.597 239.429 416.076 243.076 415.153C243.204 415.127 246.242 414.397 248.013 416.123C250.142 418.207 249.774 423.234 245.997 428.005" stroke="#CC894C" stroke-miterlimit="10" stroke-linecap="round" stroke-linejoin="round"/>
<path d="M241.925 412.568C246.18 411.22 250.524 412.611 253.256 415.683C256.738 419.562 257.417 424.987 253.507 429.437" stroke="#CC894C" stroke-miterlimit="10" stroke-linecap="round" stroke-linejoin="round"/>
<path d="M289.42 382.03C288.897 382.952 285.984 386.281 284.789 387.327C278.576 392.769 277.16 390.836 271.838 400.164C268.963 405.197 267.856 416.259 263.72 424.577" stroke="#CC894C" stroke-miterlimit="10" stroke-linecap="round" stroke-linejoin="round"/>
<path d="M293.793 365.059C294.533 369.258 293.27 374.288 290.892 379.234" stroke="#CC894C" stroke-miterlimit="10" stroke-linecap="round" stroke-linejoin="round"/>
<path d="M307.699 372.338C306.261 372.852 297.856 376.058 294.585 384.777C294.165 385.877 292.797 389.683 293.555 394.211C294.865 402.029 302.007 408.572 311.534 411.164" stroke="#CC894C" stroke-miterlimit="10" stroke-linecap="round" stroke-linejoin="round"/>
<path d="M301.036 397.99C303.467 402.653 309.355 405.635 315.901 405.789" stroke="#CC894C" stroke-miterlimit="10" stroke-linecap="round" stroke-linejoin="round"/>
<path d="M309.827 381.366C304.897 383.385 300.271 387.751 299.9 392.28C299.818 393.245 299.863 394.182 300.033 395.077" stroke="#CC894C" stroke-miterlimit="10" stroke-linecap="round" stroke-linejoin="round"/>
<path d="M280.207 421.153C279.818 409.288 285.03 402.309 288 399.334C291.057 396.291 295.078 396.453 292.981 403.55C291.5 408.576 295.409 414.51 290.853 419.692" stroke="#CC894C" stroke-miterlimit="10" stroke-linecap="round" stroke-linejoin="round"/>
<path d="M312.543 386.034C306.8 388.139 304.021 392.038 304.755 394.129C305.362 395.847 308.492 396.759 312.001 396.613" stroke="#CC894C" stroke-miterlimit="10" stroke-linecap="round" stroke-linejoin="round"/>
<path d="M288.439 394.777C288.564 391.86 289.233 385.89 293.015 379.623C297.216 372.654 302.924 369.177 305.514 367.809" stroke="#CC894C" stroke-miterlimit="10" stroke-linecap="round" stroke-linejoin="round"/>
<path d="M286.953 409.636C286.055 406.832 286.808 404.383 288.265 403.715C288.522 403.595 290.165 403.105 290.619 405.287" stroke="#CC894C" stroke-miterlimit="10" stroke-linecap="round" stroke-linejoin="round"/>
</g>
<path d="M248.898 414.128L256.176 408.93L251.632 402.579L244.354 407.777C242.605 409.037 242.196 411.465 243.441 413.217C244.705 414.981 247.146 415.372 248.898 414.128Z" fill="#E5D6D6"/>
<path d="M248.898 414.128L256.176 408.93L251.632 402.579L244.354 407.777C242.605 409.037 242.196 411.465 243.441 413.217C244.705 414.981 247.146 415.372 248.898 414.128Z" stroke="black" stroke-miterlimit="10" stroke-linecap="round" stroke-linejoin="round"/>
<path d="M247.1 413.239C248.367 412.976 249.181 411.736 248.918 410.469C248.654 409.203 247.414 408.389 246.147 408.652C244.88 408.915 244.066 410.155 244.33 411.421C244.593 412.688 245.833 413.502 247.1 413.239Z" fill="#EFE6E6"/>
<path d="M247.1 413.239C248.367 412.976 249.181 411.736 248.918 410.469C248.654 409.203 247.414 408.389 246.147 408.652C244.88 408.915 244.066 410.155 244.33 411.421C244.593 412.688 245.833 413.502 247.1 413.239Z" stroke="black" stroke-miterlimit="10" stroke-linecap="round" stroke-linejoin="round"/>
<path d="M224.401 421.97L224.537 422.623C224.977 424.741 227.036 426.092 229.155 425.652L306.903 409.515C309.022 409.076 310.373 407.017 309.933 404.899L309.797 404.245L224.401 421.97Z" fill="#E5D6D6"/>
<path opacity="0.2" d="M260.441 381.066C250.452 383.139 244.047 392.941 246.125 402.942C246.39 404.216 246.776 405.432 247.282 406.59L244.517 408.559C242.768 409.819 242.359 412.246 243.604 413.998C244.864 415.747 247.293 416.157 249.045 414.912L251.822 412.924C256.041 416.75 261.968 418.56 267.958 417.317C277.947 415.245 284.352 405.443 282.273 395.441C280.21 385.436 270.429 378.994 260.441 381.066Z" fill="#2D2D2D" stroke="#2D2D2D" stroke-miterlimit="10" stroke-linecap="round" stroke-linejoin="round"/>
<path d="M306.907 409.53L306.11 409.695L305.18 405.22L309.8 404.261L309.936 404.914C310.373 407.016 309.01 409.093 306.907 409.53Z" fill="#DBC8C8"/>
<path d="M229.157 425.668L229.954 425.502L229.024 421.027L224.404 421.986L224.54 422.639C224.976 424.741 227.038 426.107 229.157 425.668Z" fill="#DBC8C8"/>
<path d="M296.573 359.797L245.272 370.443C243.854 370.738 242.674 371.697 242.065 373.003C240.764 375.782 238.218 377.922 234.999 378.59L216.2 382.492L217.649 389.468L303.045 371.746L301.195 362.842C300.754 360.723 298.676 359.36 296.573 359.797Z" fill="#E5D6D6"/>
<path d="M220.852 381.694L216.232 382.653L217.649 389.469L222.269 388.51L220.852 381.694Z" fill="#DBC8C8"/>
<path d="M275.628 374.809L222.255 385.887C221.968 385.947 221.68 385.757 221.62 385.471C221.561 385.184 221.75 384.895 222.037 384.836L275.409 373.758C275.696 373.698 275.985 373.888 276.044 374.174C276.104 374.461 275.915 374.75 275.628 374.809Z" fill="#C1A7A7"/>
<path d="M296.557 359.8L295.761 359.965L298.409 372.706L303.028 371.747L301.175 362.829C300.738 360.727 298.676 359.36 296.557 359.8Z" fill="#DBC8C8"/>
<path d="M267.415 414.623C277.401 412.551 283.81 402.756 281.73 392.747C279.65 382.738 269.868 376.303 259.882 378.375C249.896 380.448 243.486 390.242 245.567 400.251C247.647 410.261 257.429 416.695 267.415 414.623Z" fill="#E5D6D6"/>
<path d="M266.66 410.992C274.667 409.33 279.809 401.495 278.146 393.491C276.482 385.487 268.643 380.345 260.636 382.007C252.63 383.668 247.488 391.503 249.151 399.508C250.815 407.512 258.654 412.653 266.66 410.992Z" fill="#845B5B"/>
<path d="M261.299 385.192C268.755 383.645 276.095 388.019 278.382 395.104C278.336 394.565 278.259 394.033 278.147 393.491C276.485 385.496 268.635 380.347 260.637 382.007C252.639 383.666 247.49 391.513 249.151 399.508C249.264 400.05 249.405 400.569 249.578 401.081C248.852 393.673 253.843 386.739 261.299 385.192Z" fill="#704848"/>
<path d="M296.58 359.844L245.281 370.49C243.863 370.784 242.699 371.74 242.07 373.033C240.766 375.796 238.22 377.936 235.002 378.603L216.203 382.504L224.543 422.639C224.984 424.758 227.042 426.108 229.161 425.668L306.907 409.535C309.026 409.095 310.376 407.038 309.936 404.919L301.198 362.873C300.758 360.755 298.683 359.408 296.58 359.844Z" stroke="black" stroke-miterlimit="10" stroke-linecap="round" stroke-linejoin="round"/>
<path d="M267.041 412.823C276.059 410.951 281.851 402.126 279.978 393.11C278.104 384.095 269.274 378.303 260.256 380.175C251.237 382.046 245.445 390.872 247.319 399.887C249.193 408.903 258.022 414.694 267.041 412.823Z" stroke="black" stroke-miterlimit="10" stroke-linecap="round" stroke-linejoin="round"/>
<path d="M266.66 410.992C274.667 409.33 279.809 401.495 278.146 393.491C276.482 385.487 268.643 380.345 260.636 382.007C252.63 383.668 247.488 391.503 249.151 399.508C250.815 407.512 258.654 412.653 266.66 410.992Z" stroke="black" stroke-miterlimit="10" stroke-linecap="round" stroke-linejoin="round"/>
<path d="M265.701 406.373C271.156 405.241 274.659 399.903 273.526 394.449C272.392 388.996 267.052 385.493 261.596 386.625C256.141 387.757 252.638 393.096 253.771 398.549C254.905 404.002 260.245 407.505 265.701 406.373Z" fill="#B57F7F"/>
<path opacity="0.34" d="M270.451 395.086C275.23 394.094 279.017 399.123 276.72 403.421C274.724 407.174 271.137 410.062 266.66 410.991C262.183 411.92 257.745 410.714 254.416 408.049C250.592 405.005 252.082 398.898 256.845 397.909L270.451 395.086Z" fill="white"/>
<path d="M262.259 389.81C267.166 388.792 271.992 391.545 273.73 396.069C273.7 395.527 273.639 394.991 273.526 394.45C272.394 389.003 267.045 385.494 261.597 386.625C256.148 387.756 252.639 393.102 253.771 398.549C253.884 399.091 254.041 399.606 254.23 400.115C254.018 395.258 257.352 390.829 262.259 389.81Z" fill="#AD6D6D"/>
<path d="M265.701 406.373C271.156 405.241 274.659 399.903 273.526 394.449C272.392 388.996 267.052 385.493 261.596 386.625C256.141 387.757 252.638 393.096 253.771 398.549C254.905 404.002 260.245 407.505 265.701 406.373Z" stroke="black" stroke-miterlimit="10" stroke-linecap="round" stroke-linejoin="round"/>
<path d="M264.873 402.392C268.128 401.717 270.219 398.531 269.543 395.276C268.867 392.022 265.679 389.931 262.424 390.607C259.168 391.282 257.078 394.468 257.754 397.723C258.43 400.977 261.617 403.068 264.873 402.392Z" fill="#4C3535"/>
<path d="M264.873 402.392C268.128 401.717 270.219 398.531 269.543 395.276C268.867 392.022 265.679 389.931 262.424 390.607C259.168 391.282 257.078 394.468 257.754 397.723C258.43 400.977 261.617 403.068 264.873 402.392Z" stroke="black" stroke-miterlimit="10" stroke-linecap="round" stroke-linejoin="round"/>
<path d="M264.426 400.242C266.494 399.813 267.821 397.789 267.392 395.722C266.962 393.655 264.938 392.328 262.87 392.757C260.803 393.186 259.475 395.209 259.904 397.276C260.334 399.343 262.358 400.671 264.426 400.242Z" fill="#3F2E2E"/>
<path d="M228.212 380L219.879 381.73L219.548 380.137C219.439 379.611 219.78 379.092 220.306 378.983L226.726 377.65C227.252 377.541 227.771 377.882 227.881 378.408L228.212 380Z" fill="#6A4949"/>
<path d="M228.212 380L219.879 381.73L219.548 380.137C219.439 379.611 219.78 379.092 220.306 378.983L226.726 377.65C227.252 377.541 227.771 377.882 227.881 378.408L228.212 380Z" stroke="black" stroke-miterlimit="10" stroke-linecap="round" stroke-linejoin="round"/>
<path d="M225.997 375.825L220.262 377.015L220.656 378.91L226.391 377.72L225.997 375.825Z" stroke="black" stroke-miterlimit="10" stroke-linecap="round" stroke-linejoin="round"/>
<path d="M225.997 375.825L220.262 377.015L220.656 378.91L226.391 377.72L225.997 375.825Z" fill="black"/>
<path d="M267.415 414.623C277.401 412.551 283.81 402.756 281.73 392.747C279.65 382.738 269.868 376.303 259.882 378.375C249.896 380.448 243.486 390.242 245.567 400.251C247.647 410.261 257.429 416.695 267.415 414.623Z" stroke="black" stroke-miterlimit="10" stroke-linecap="round" stroke-linejoin="round"/>
<path opacity="0.38" d="M262.87 392.757C260.799 393.186 259.474 395.206 259.904 397.276C259.908 397.292 259.908 397.292 259.911 397.308C260.319 396.792 261.005 396.417 261.994 396.295C262.982 396.172 263.22 396.439 264.37 396.532C265.382 396.605 266.589 396.255 267.376 395.643C266.904 393.614 264.91 392.333 262.87 392.757Z" fill="white"/>
<path d="M266.164 408.603C272.851 407.216 277.145 400.672 275.756 393.987C274.367 387.302 267.82 383.008 261.133 384.396C254.446 385.783 250.152 392.327 251.541 399.012C252.93 405.697 259.477 409.991 266.164 408.603Z" stroke="black" stroke-miterlimit="10" stroke-linecap="round" stroke-linejoin="round"/>
<path d="M266.66 410.992C274.667 409.33 279.809 401.495 278.146 393.491C276.482 385.487 268.643 380.345 260.636 382.007C252.63 383.668 247.488 391.503 249.151 399.508C250.815 407.512 258.654 412.653 266.66 410.992Z" stroke="black" stroke-miterlimit="10" stroke-linecap="round" stroke-linejoin="round"/>
<path d="M294.097 372.272L280.444 375.105C279.408 375.32 278.388 374.651 278.173 373.616L277.041 368.169C276.826 367.133 277.495 366.114 278.531 365.899L292.184 363.066C293.22 362.851 294.239 363.52 294.454 364.555L295.586 370.002C295.802 371.037 295.133 372.057 294.097 372.272Z" fill="#443636"/>
<path d="M294.097 372.272L280.444 375.105C279.408 375.32 278.388 374.651 278.173 373.616L277.041 368.169C276.826 367.133 277.495 366.114 278.531 365.899L292.184 363.066C293.22 362.851 294.239 363.52 294.454 364.555L295.586 370.002C295.802 371.037 295.133 372.057 294.097 372.272Z" stroke="black" stroke-miterlimit="10" stroke-linecap="round" stroke-linejoin="round"/>
<path d="M292.703 371.565L281.44 373.902C280.564 374.084 279.698 373.516 279.516 372.64L278.662 368.531C278.48 367.655 279.048 366.79 279.924 366.608L291.188 364.27C292.064 364.088 292.93 364.656 293.112 365.532L293.966 369.641C294.151 370.533 293.58 371.383 292.703 371.565Z" fill="#845B5B"/>
<path opacity="0.38" d="M289.948 372.136L293.05 365.312C292.779 364.571 292 364.101 291.188 364.27L290.678 364.375L286.873 372.774L289.948 372.136Z" fill="white"/>
<path opacity="0.38" d="M285.709 373.016L289.514 364.618L288.574 364.813L284.769 373.211L285.709 373.016Z" fill="white"/>
<ellipse cx="341.878" cy="321.546" rx="8.05158" ry="8.54636" fill="white"/>
<ellipse cx="26.8639" cy="13.1128" rx="26.8639" ry="13.1128" transform="matrix(0.990126 -0.14018 0.118508 0.992953 321 403.129)" fill="white"/>
<mask id="path-180-inside-1_313_72650" fill="white">
<ellipse cx="23.8927" cy="8.5305" rx="23.8927" ry="8.5305" transform="matrix(0.990615 -0.136682 0.121555 0.992585 324.164 408.414)"/>
</mask>
<ellipse cx="23.8927" cy="8.5305" rx="23.8927" ry="8.5305" transform="matrix(0.990615 -0.136682 0.121555 0.992585 324.164 408.414)" fill="#EABB76"/>
<path d="M362.632 411.716C362.464 410.345 362.733 409.175 363.067 408.372C363.378 407.628 363.718 407.248 363.763 407.199C363.799 407.16 363.319 407.65 361.863 408.405C359.034 409.871 354.399 411.369 348.691 412.157L351.122 432.008C358.486 430.992 365.453 428.961 370.815 426.181C373.455 424.813 376.218 423 378.401 420.605C380.542 418.255 383.084 414.208 382.444 408.983L362.632 411.716ZM348.691 412.157C342.983 412.944 338.141 412.754 335.053 412.104C333.464 411.769 332.882 411.426 332.926 411.454C332.981 411.489 333.402 411.764 333.881 412.399C334.398 413.085 334.94 414.143 335.108 415.514L315.295 418.248C315.935 423.473 319.368 426.696 322.004 428.387C324.691 430.11 327.799 431.112 330.681 431.719C336.534 432.951 343.759 433.024 351.122 432.008L348.691 412.157ZM335.108 415.514C335.275 416.885 335.007 418.055 334.672 418.858C334.362 419.602 334.021 419.982 333.976 420.032C333.941 420.07 334.42 419.58 335.876 418.825C338.705 417.359 343.34 415.861 349.048 415.074L346.617 395.222C339.254 396.238 332.287 398.269 326.925 401.049C324.285 402.417 321.522 404.23 319.339 406.625C317.198 408.975 314.655 413.023 315.295 418.248L335.108 415.514ZM349.048 415.074C354.756 414.286 359.598 414.476 362.687 415.126C364.276 415.461 364.857 415.805 364.814 415.777C364.758 415.741 364.338 415.467 363.858 414.831C363.342 414.146 362.8 413.088 362.632 411.716L382.444 408.983C381.805 403.757 378.372 400.534 375.736 398.844C373.049 397.12 369.94 396.118 367.059 395.511C361.205 394.279 353.981 394.206 346.617 395.222L349.048 415.074Z" fill="white" mask="url(#path-180-inside-1_313_72650)"/>
<mask id="path-182-inside-2_313_72650" fill="white">
<ellipse cx="23.8927" cy="8.5305" rx="23.8927" ry="8.5305" transform="matrix(0.990615 -0.136682 0.121555 0.992585 324.164 406.704)"/>
</mask>
<ellipse cx="23.8927" cy="8.5305" rx="23.8927" ry="8.5305" transform="matrix(0.990615 -0.136682 0.121555 0.992585 324.164 406.704)" fill="#EABB76"/>
<path d="M362.632 410.007C362.464 408.636 362.733 407.466 363.067 406.663C363.378 405.919 363.718 405.539 363.763 405.489C363.799 405.451 363.319 405.941 361.863 406.696C359.034 408.162 354.399 409.66 348.691 410.447L351.122 430.299C358.486 429.283 365.453 427.252 370.815 424.472C373.455 423.104 376.218 421.291 378.401 418.896C380.542 416.546 383.084 412.498 382.444 407.273L362.632 410.007ZM348.691 410.447C342.983 411.235 338.141 411.045 335.053 410.395C333.464 410.06 332.882 409.716 332.926 409.744C332.981 409.78 333.402 410.054 333.881 410.69C334.398 411.375 334.94 412.433 335.108 413.805L315.295 416.538C315.935 421.764 319.368 424.987 322.004 426.677C324.691 428.401 327.799 429.403 330.681 430.01C336.534 431.242 343.759 431.315 351.122 430.299L348.691 410.447ZM335.108 413.805C335.275 415.176 335.007 416.346 334.672 417.149C334.362 417.893 334.021 418.273 333.976 418.322C333.941 418.361 334.42 417.871 335.876 417.116C338.705 415.65 343.34 414.152 349.048 413.364L346.617 393.513C339.254 394.529 332.287 396.56 326.925 399.34C324.285 400.708 321.522 402.521 319.339 404.916C317.198 407.266 314.655 411.313 315.295 416.538L335.108 413.805ZM349.048 413.364C354.756 412.577 359.598 412.767 362.687 413.417C364.276 413.752 364.857 414.095 364.814 414.067C364.758 414.032 364.338 413.757 363.858 413.122C363.342 412.436 362.8 411.378 362.632 410.007L382.444 407.273C381.805 402.048 378.372 398.825 375.736 397.134C373.049 395.411 369.94 394.409 367.059 393.802C361.205 392.57 353.981 392.497 346.617 393.513L349.048 413.364Z" fill="white" mask="url(#path-182-inside-2_313_72650)"/>
<path d="M346.306 410.429L339.462 324.965H344.696L352.748 410.429C350.42 412.457 349.081 413.226 346.306 410.429Z" fill="#EABB76" stroke="white" strokeWidth="10"/>
<path d="M341.857 348.895L340.268 325.978C343.554 326.624 345.028 326.133 347.418 324.705C356.832 318.511 362.648 319.076 373.24 321.734C384.421 324.184 390.778 324.069 402.24 321.734C414.194 318.215 420.509 319.063 430.445 330.222C418.746 328.895 413.027 329.718 405.021 335.314C395.406 344.593 389.327 347.933 375.226 345.075C363.949 342.387 356.762 343.423 347.815 348.895H341.857Z" fill="#FEB048" stroke="white" strokeWidth="10"/>
<mask id="path-186-inside-3_313_72650" fill="white">
<ellipse cx="341.878" cy="321.546" rx="5.63611" ry="5.98246"/>
</mask>
<ellipse cx="341.878" cy="321.546" rx="5.63611" ry="5.98246" fill="#EABB76"/>
<path d="M337.514 321.546C337.514 319.898 338.914 317.529 341.878 317.529V337.529C351.067 337.529 357.514 329.803 357.514 321.546H337.514ZM341.878 317.529C344.842 317.529 346.242 319.898 346.242 321.546H326.242C326.242 329.803 332.689 337.529 341.878 337.529V317.529ZM346.242 321.546C346.242 323.195 344.842 325.564 341.878 325.564V305.564C332.689 305.564 326.242 313.29 326.242 321.546H346.242ZM341.878 325.564C338.914 325.564 337.514 323.195 337.514 321.546H357.514C357.514 313.29 351.067 305.564 341.878 305.564V325.564Z" fill="white" mask="url(#path-186-inside-3_313_72650)"/>
<path d="M345.099 329.238L346.306 344.622" stroke="white" strokeWidth="10" stroke-linecap="round"/>
<path d="M409.109 322.828C413.659 321.847 415.864 322.106 418.771 324.965" stroke="white" strokeWidth="10" stroke-linecap="round"/>
<path d="M387.369 343.767C390.565 342.946 392.146 342.286 394.616 340.776" stroke="white" strokeWidth="10" stroke-linecap="round"/>
<path d="M388.175 340.776C389.915 340.481 390.555 340.172 391.395 339.494" stroke="white" strokeWidth="10" stroke-linecap="round"/>
<path d="M353.15 326.674C356.371 324.11 358.227 321.429 363.215 324.965" stroke="white" strokeWidth="10" stroke-linecap="round"/>
<path d="M355.968 327.529C358.549 325.923 359.509 326.148 360.799 327.529" stroke="white" strokeWidth="10" stroke-linecap="round"/>
<path d="M372.043 410.418C372.161 411.384 371.736 412.447 370.716 413.567C369.698 414.684 368.134 415.802 366.115 416.849C362.083 418.939 356.34 420.69 349.846 421.586C343.351 422.482 337.378 422.348 332.976 421.421C330.773 420.957 328.991 420.301 327.738 419.497C326.482 418.691 325.815 417.779 325.697 416.812C325.578 415.846 326.003 414.783 327.024 413.664C328.042 412.546 329.606 411.428 331.624 410.381C335.656 408.291 341.399 406.54 347.894 405.644C354.388 404.748 360.362 404.882 364.763 405.809C366.967 406.273 368.748 406.93 370.002 407.734C371.258 408.539 371.925 409.451 372.043 410.418Z" fill="#EABB76" stroke="#242A2B"/>
<path d="M372.043 408.709C372.161 409.675 371.736 410.738 370.716 411.857C369.698 412.975 368.134 414.093 366.115 415.14C362.083 417.23 356.34 418.981 349.846 419.877C343.351 420.773 337.378 420.639 332.976 419.712C330.773 419.248 328.991 418.591 327.738 417.787C326.482 416.982 325.815 416.07 325.697 415.103C325.578 414.137 326.003 413.074 327.024 411.954C328.042 410.837 329.606 409.719 331.624 408.672C335.656 406.582 341.399 404.831 347.894 403.935C354.388 403.039 360.362 403.173 364.763 404.1C366.967 404.564 368.748 405.22 370.002 406.024C371.258 406.83 371.925 407.742 372.043 408.709Z" fill="#EABB76" stroke="#242A2B"/>
<path d="M346.306 410.429L339.462 324.965H344.696L352.748 410.429C350.42 412.457 349.081 413.226 346.306 410.429Z" fill="#EABB76" stroke="#242A2B"/>
<path d="M341.073 349.095L339.462 326.02C342.792 326.671 344.286 326.177 346.709 324.738C356.249 318.502 362.142 319.071 372.876 321.747C384.207 324.214 390.649 324.098 402.265 321.747C414.379 318.204 420.778 319.058 430.848 330.293C418.992 328.957 413.196 329.786 405.083 335.421C395.34 344.764 389.178 348.127 374.889 345.25C363.461 342.542 356.177 343.585 347.111 349.095H341.073Z" fill="#FEB048" stroke="#242A2B"/>
<path d="M347.014 321.546C347.014 324.603 344.687 327.029 341.878 327.029C339.069 327.029 336.742 324.603 336.742 321.546C336.742 318.49 339.069 316.064 341.878 316.064C344.687 316.064 347.014 318.49 347.014 321.546Z" fill="#EABB76" stroke="#242A2B"/>
<path d="M345.099 329.238L346.306 344.622" stroke="#242A2B" stroke-linecap="round"/>
<path d="M409.109 322.828C413.659 321.847 415.864 322.106 418.771 324.965" stroke="#242A2B" stroke-linecap="round"/>
<path d="M387.369 343.767C390.565 342.946 392.146 342.286 394.616 340.776" stroke="#242A2B" stroke-linecap="round"/>
<path d="M388.175 340.776C389.915 340.481 390.555 340.172 391.395 339.494" stroke="#242A2B" stroke-linecap="round"/>
<path d="M353.15 326.674C356.371 324.11 358.227 321.429 363.215 324.965" stroke="#242A2B" stroke-linecap="round"/>
<path d="M355.968 327.529C358.549 325.923 359.509 326.148 360.799 327.529" stroke="#242A2B" stroke-linecap="round"/>
</svg>
