<svg width="525" height="158" viewBox="0 0 525 158" fill="none" xmlns="http://www.w3.org/2000/svg">
<path d="M20.3189 117.895L5 127.953L23.7578 124.905L19.6936 147.763L31.5736 129.477L37.2009 139.534L38.4515 128.562L54.083 142.887L44.3914 123.686L66.9008 120.638L44.3914 114.543L58.7724 99.6088L38.4515 109.057L39.0767 95.0372L31.5736 108.143L22.1947 89.856L24.3831 110.886L9.37683 105.704L20.3189 117.895Z" fill="#2F7A84" stroke="#F2E7E2" stroke-width="10" stroke-linejoin="round"/>
<path d="M20.3189 117.895L5 127.953L23.7578 124.905L19.6936 147.763L31.5736 129.477L37.2009 139.534L38.4515 128.562L54.083 142.887L44.3914 123.686L66.9008 120.638L44.3914 114.543L58.7724 99.6088L38.4515 109.057L39.0767 95.0372L31.5736 108.143L22.1947 89.856L24.3831 110.886L9.37683 105.704L20.3189 117.895Z" fill="#2F7A84" stroke="#242A2B" stroke-width="2"/>
<path d="M474.77 33.8826L457.12 16.2286L466.194 40.3363L434.197 41.0784L462.073 51.951L449.951 62.132L465.125 60.8451L449.872 85.467L473.29 67.4281L483.355 96.5212L485.66 64.971L509.66 80.0682L491.514 55.6032L510.646 52.6664L490.935 46.2177L513.199 28.8399L485.326 37.3995L488.374 16.0657L474.77 33.8826Z" fill="#FEB048" stroke="#F2E7E2" stroke-width="10" stroke-linejoin="round"/>
<path d="M474.77 33.8826L457.12 16.2286L466.194 40.3363L434.197 41.0784L462.073 51.951L449.951 62.132L465.125 60.8451L449.872 85.467L473.29 67.4281L483.355 96.5212L485.66 64.971L509.66 80.0682L491.514 55.6032L510.646 52.6664L490.935 46.2177L513.199 28.8399L485.326 37.3995L488.374 16.0657L474.77 33.8826Z" fill="#FEB048" stroke="#242A2B" stroke-width="2"/>
<path d="M105.519 4.54689C100.207 13.8423 96.2754 16.5613 87.4146 16.7822C95.0041 22.1951 94.8689 27.3766 92.3046 37.7542C98.3034 29.2707 101.841 24.9359 112.052 26.5864C104.68 20.6847 103.511 15.7125 105.519 4.54689Z" fill="#F2E7E2" stroke="#F2E7E2" stroke-width="8" stroke-linejoin="round"/>
<path d="M105.519 4.54689C100.207 13.8423 96.2754 16.5613 87.4146 16.7822C95.0041 22.1951 94.8689 27.3766 92.3046 37.7542C98.3034 29.2707 101.841 24.9359 112.052 26.5864C104.68 20.6847 103.511 15.7125 105.519 4.54689Z" fill="#CA5355" stroke="#242A2B" stroke-width="2"/>
<path d="M454.338 119.808C452.871 129.876 450.279 133.657 442.299 136.963C451.162 139.075 452.914 143.695 454.338 153.754C456.724 144.16 458.373 139.093 468.258 136.963C459.416 134.344 456.553 130.367 454.338 119.808Z" fill="#F2E7E2" stroke="#F2E7E2" stroke-width="8" stroke-linejoin="round"/>
<path d="M454.338 119.808C452.871 129.876 450.279 133.657 442.299 136.963C451.162 139.075 452.914 143.695 454.338 153.754C456.724 144.16 458.373 139.093 468.258 136.963C459.416 134.344 456.553 130.367 454.338 119.808Z" fill="#A3AA10" stroke="#242A2B" stroke-width="2"/>
</svg>
