<svg width="207" height="56" viewBox="0 0 207 56" fill="none" xmlns="http://www.w3.org/2000/svg">
<path d="M11.4203 23C10.5162 29.5253 8.91835 31.9753 4 34.1183C9.46253 35.4868 10.5427 38.481 11.4203 45C12.8908 38.7827 13.9072 35.4982 20 34.1183C14.5499 32.4208 12.7858 29.8429 11.4203 23Z" fill="#F2E7E2" stroke="#F2E7E2" strokeWidth="8" stroke-linejoin="round"/>
<path d="M11.4203 23C10.5162 29.5253 8.91835 31.9753 4 34.1183C9.46253 35.4868 10.5427 38.481 11.4203 45C12.8908 38.7827 13.9072 35.4982 20 34.1183C14.5499 32.4208 12.7858 29.8429 11.4203 23Z" fill="#A3AA10" stroke="#242A2B" strokeWidth="2"/>
<path d="M93.058 4C91.5888 14.9786 88.9923 19.1006 81 22.7062C89.8766 25.0086 91.6319 30.0464 93.058 41.0143C95.4475 30.5539 97.0992 25.0279 107 22.7062C98.1436 19.8503 95.2769 15.513 93.058 4Z" fill="#F2E7E2" stroke="#F2E7E2" strokeWidth="8" stroke-linejoin="round"/>
<path d="M93.058 4C91.5888 14.9786 88.9923 19.1006 81 22.7062C89.8766 25.0086 91.6319 30.0464 93.058 41.0143C95.4475 30.5539 97.0992 25.0279 107 22.7062C98.1436 19.8503 95.2769 15.513 93.058 4Z" fill="#2F7A84" stroke="#242A2B" strokeWidth="2"/>
<path d="M11.4203 23C10.5162 29.5253 8.91835 31.9753 4 34.1183C9.46253 35.4868 10.5427 38.481 11.4203 45C12.8908 38.7827 13.9072 35.4982 20 34.1183C14.5499 32.4208 12.7858 29.8429 11.4203 23Z" fill="#F2E7E2" stroke="#F2E7E2" strokeWidth="8" stroke-linejoin="round"/>
<path d="M11.4203 23C10.5162 29.5253 8.91835 31.9753 4 34.1183C9.46253 35.4868 10.5427 38.481 11.4203 45C12.8908 38.7827 13.9072 35.4982 20 34.1183C14.5499 32.4208 12.7858 29.8429 11.4203 23Z" fill="#A3AA10" stroke="#242A2B" strokeWidth="2"/>
<path d="M93.058 4C91.5888 14.9786 88.9923 19.1006 81 22.7062C89.8766 25.0086 91.6319 30.0464 93.058 41.0143C95.4475 30.5539 97.0992 25.0279 107 22.7062C98.1436 19.8503 95.2769 15.513 93.058 4Z" fill="#F2E7E2" stroke="#F2E7E2" strokeWidth="8" stroke-linejoin="round"/>
<path d="M93.058 4C91.5888 14.9786 88.9923 19.1006 81 22.7062C89.8766 25.0086 91.6319 30.0464 93.058 41.0143C95.4475 30.5539 97.0992 25.0279 107 22.7062C98.1436 19.8503 95.2769 15.513 93.058 4Z" fill="#2F7A84" stroke="#242A2B" strokeWidth="2"/>
<path d="M193.348 28C192.331 35.1185 190.533 37.7912 185 40.129C191.145 41.622 192.361 44.8884 193.348 52C195.002 45.2175 196.146 41.6344 203 40.129C196.869 38.2773 194.884 35.465 193.348 28Z" fill="#F2E7E2" stroke="#F2E7E2" strokeWidth="8" stroke-linejoin="round"/>
<path d="M193.348 28C192.331 35.1185 190.533 37.7912 185 40.129C191.145 41.622 192.361 44.8884 193.348 52C195.002 45.2175 196.146 41.6344 203 40.129C196.869 38.2773 194.884 35.465 193.348 28Z" fill="#CA5355" stroke="#242A2B" strokeWidth="2"/>
</svg>
