<svg width="80" height="84" viewBox="0 0 80 84" fill="none" xmlns="http://www.w3.org/2000/svg">
<path d="M19.5386 4C17.6453 18.4549 14.2993 23.8821 4 28.6293C15.4389 31.6609 17.7008 38.2938 19.5386 52.7346C22.6179 38.962 24.7464 31.6862 37.505 28.6293C26.0922 24.8692 22.398 19.1585 19.5386 4Z" fill="#F2E7E2" stroke="#F2E7E2" strokeWidth="8" stroke-linejoin="round"/>
<path d="M19.5386 4C17.6453 18.4549 14.2993 23.8821 4 28.6293C15.4389 31.6609 17.7008 38.2938 19.5386 52.7346C22.6179 38.962 24.7464 31.6862 37.505 28.6293C26.0922 24.8692 22.398 19.1585 19.5386 4Z" fill="#8C3FD9" stroke="#242A2B" strokeWidth="2"/>
<path d="M63.5689 49.5408C62.3641 58.5752 60.2348 61.9672 53.6807 64.9342C60.96 66.8289 62.3994 70.9744 63.5689 80C65.5284 71.3921 66.8829 66.8447 75.0021 64.9342C67.7394 62.5841 65.3885 59.0149 63.5689 49.5408Z" fill="#F2E7E2" stroke="#F2E7E2" strokeWidth="8" stroke-linejoin="round"/>
<path d="M63.5689 49.5408C62.3641 58.5752 60.2348 61.9672 53.6807 64.9342C60.96 66.8289 62.3994 70.9744 63.5689 80C65.5284 71.3921 66.8829 66.8447 75.0021 64.9342C67.7394 62.5841 65.3885 59.0149 63.5689 49.5408Z" fill="#F36A22" stroke="#242A2B" strokeWidth="2"/>
</svg>
