<svg width="80" height="84" viewBox="0 0 80 84" fill="none" xmlns="http://www.w3.org/2000/svg">
<path d="M59.4634 4C61.3566 18.4549 64.7026 23.8821 75.002 28.6293C63.5631 31.6609 61.3012 38.2938 59.4634 52.7346C56.3841 38.962 54.2556 31.6862 41.4969 28.6293C52.9097 24.8692 56.604 19.1585 59.4634 4Z" fill="#F2E7E2" stroke="#F2E7E2" strokeWidth="8" stroke-linejoin="round"/>
<path d="M59.4634 4C61.3566 18.4549 64.7026 23.8821 75.002 28.6293C63.5631 31.6609 61.3012 38.2938 59.4634 52.7346C56.3841 38.962 54.2556 31.6862 41.4969 28.6293C52.9097 24.8692 56.604 19.1585 59.4634 4Z" fill="#8C3FD9" stroke="#242A2B" strokeWidth="2"/>
<path d="M15.4331 49.5408C16.6379 58.5752 18.7672 61.9672 25.3213 64.9342C18.042 66.8289 16.6026 70.9744 15.4331 80C13.4736 71.3921 12.1191 66.8447 3.9999 64.9342C11.2626 62.5841 13.6135 59.0149 15.4331 49.5408Z" fill="#F2E7E2" stroke="#F2E7E2" strokeWidth="8" stroke-linejoin="round"/>
<path d="M15.4331 49.5408C16.6379 58.5752 18.7672 61.9672 25.3213 64.9342C18.042 66.8289 16.6026 70.9744 15.4331 80C13.4736 71.3921 12.1191 66.8447 3.9999 64.9342C11.2626 62.5841 13.6135 59.0149 15.4331 49.5408Z" fill="#F36A22" stroke="#242A2B" strokeWidth="2"/>
</svg>
