<svg width="360" height="501" viewBox="0 0 360 501" fill="none" xmlns="http://www.w3.org/2000/svg">
<mask id="mask0_475_5401" style="mask-type:alpha" maskUnits="userSpaceOnUse" x="0" y="0" width="360" height="501">
<rect y="0.46228" width="360" height="500" fill="#D9D9D9"/>
</mask>
<g mask="url(#mask0_475_5401)">
<path d="M-634.689 70.1915C-701.892 121.861 -863.68 95.8333 -936.173 76.3605L-931.602 39.1334C-841.564 54.4624 -655.1 73.7584 -629.547 28.3111C-603.993 -17.1362 -399.628 4.8077 -300.64 21.4605C-227.271 33.8034 -121.03 44.121 -17.9021 -5.8371C111.007 -68.2847 316.494 -26.7976 374.541 -5.8371C422.344 11.4245 548.857 60.086 606.57 57.9502C582.957 79.8831 476.822 88.5022 398.412 68.815C298.477 43.7235 84.2298 6.08085 26.7214 56.2419C-45.1641 118.943 -246.225 72.0032 -305.047 57.358C-363.87 42.7128 -550.685 5.60414 -634.689 70.1915Z" fill="#272B52"/>
</g>
</svg>
