<svg width="1364" height="779" viewBox="0 0 1364 779" fill="none" xmlns="http://www.w3.org/2000/svg">
<mask id="mask0_457_5402" style="mask-type:alpha" maskUnits="userSpaceOnUse" x="0" y="0" width="1366" height="779">
<rect width="1366" height="778.228" fill="#F4EFD3"/>
</mask>
<g mask="url(#mask0_457_5402)">
<path d="M-1896.45 266.307C-1473.13 230.845 -598.926 178.646 -488.705 253.543C-350.929 347.165 98.628 341.4 368.111 267.958C637.594 194.516 1322.53 297.596 1648.42 141.541C1909.14 16.6971 2190.3 26.1413 2298.3 46.4688" stroke="#F3E9C4" stroke-width="4"/>
<path d="M-1969.12 183.679C-1545.8 148.217 -671.592 96.0183 -561.371 170.915C-423.595 264.537 25.9616 258.772 295.445 185.33C564.928 111.889 1249.86 214.968 1575.76 58.9133C1836.47 -65.9306 2117.64 -56.4864 2225.63 -36.1588" stroke="#F3E9C4" stroke-width="4"/>
<path d="M-2041.78 101.052C-1618.46 65.5899 -744.254 13.391 -634.033 88.2881C-496.257 181.91 -46.7004 176.145 222.783 102.703C492.266 29.2613 1177.2 132.341 1503.1 -23.714C1763.81 -148.558 2044.98 -139.114 2152.97 -118.786" stroke="#F3E9C4" stroke-width="4"/>
<path d="M-1927.24 330.629C-1503.92 295.167 -629.716 242.968 -519.495 317.866C-381.719 411.487 67.8378 405.722 337.321 332.281C606.804 258.839 1291.74 361.918 1617.63 205.863C1878.35 81.0195 2159.51 90.4637 2267.51 110.791" stroke="#F3E9C4" stroke-width="4"/>
<path d="M-1958.05 394.951C-1534.72 359.49 -660.52 307.291 -550.299 382.188C-412.523 475.809 37.0338 470.045 306.517 396.603C576 323.161 1260.94 426.241 1586.83 270.186C1847.54 145.342 2128.71 154.786 2236.7 175.114" stroke="#F3E9C4" stroke-width="4"/>
<path d="M-1988.85 459.274C-1565.52 423.813 -691.319 371.614 -581.098 446.511C-443.322 540.132 6.23444 534.368 275.717 460.926C545.2 387.484 1230.14 490.564 1556.03 334.509C1816.75 209.665 2097.91 219.109 2205.91 239.437" stroke="#F3E9C4" stroke-width="4"/>
<path d="M-2019.64 523.597C-1596.31 488.135 -722.11 435.936 -611.889 510.833C-474.112 604.455 -24.5558 598.69 244.927 525.248C514.41 451.807 1199.35 554.886 1525.24 398.831C1785.95 273.987 2067.12 283.431 2175.11 303.759" stroke="#F3E9C4" stroke-width="4"/>
<path d="M143 240.228L139.489 265.045L130 274.228L139.489 283.411L143 308.228L146.511 283.411L156 274.228L146.511 265.045L143 240.228Z" fill="white"/>
<path d="M185 201.228L182.569 218.016L176 224.228L182.569 230.44L185 247.228L187.431 230.44L194 224.228L187.431 218.016L185 201.228Z" fill="white"/>
<path d="M91 224.228L89.1094 237.366L84 242.228L89.1094 247.089L91 260.228L92.8906 247.089L98 242.228L92.8906 237.366L91 224.228Z" fill="white"/>
<path d="M1179.5 581.228L1175.31 610.789L1164 621.728L1175.31 632.666L1179.5 662.228L1183.69 632.666L1195 621.728L1183.69 610.789L1179.5 581.228Z" fill="white"/>
<path d="M1230.5 533.228L1227.66 553.665L1220 561.228L1227.66 568.79L1230.5 589.228L1233.34 568.79L1241 561.228L1233.34 553.665L1230.5 533.228Z" fill="white"/>
<path d="M1222 634.228L1219.57 651.381L1213 657.728L1219.57 664.075L1222 681.228L1224.43 664.075L1231 657.728L1224.43 651.381L1222 634.228Z" fill="white"/>
<path d="M-0.198507 -11.033H1381.8L1493 59.2278H1357L1065 15.2278L777 59.2278L403 5.22778L203 73.2278L-17 59.2278L-0.198507 -11.033Z" fill="#272B52"/>
<path d="M286.311 70.4193C219.108 122.089 57.3206 96.0611 -15.173 76.5882L-10.6021 39.3612C79.4357 54.6902 265.9 73.9862 291.454 28.5389C317.007 -16.9084 521.372 5.03547 620.36 21.6883C693.729 34.0312 802.951 77.7122 906.079 27.7542C1034.99 -34.6934 1238.34 22.6644 1296.38 43.6249C1344.19 60.8865 1469.86 60.3138 1527.57 58.1779C1503.96 80.1109 1397.82 88.7299 1319.41 69.0428C1219.48 43.9513 1005.23 6.3086 947.722 56.4697C875.836 119.171 674.775 72.231 615.953 57.5858C557.13 42.9406 370.315 5.83194 286.311 70.4193Z" fill="#272B52"/>
</g>
</svg>
