<svg width="312" height="311" viewBox="0 0 312 311" fill="none" xmlns="http://www.w3.org/2000/svg">
<path d="M142.085 81.2301C135.405 95.7473 146.059 108.544 149.605 114.647C155.006 114.308 163.192 115.15 165.26 115.698C175.553 106.918 181.375 102.486 178.166 94.5539C166.559 82.4048 170.437 68.6057 183.222 67.1253C199.331 65.26 187.95 28.195 188.129 16.6615C164.472 37.1245 147.527 27.5697 135.358 17.2633C125.338 39.039 136.672 38.1919 145.451 48.4853C150.685 56.2901 150.434 63.0836 142.085 81.2301Z" fill="#6DB8C2"/>
<path d="M230.625 142.295C216.134 135.558 203.296 146.162 197.179 149.684C197.497 155.086 196.623 163.269 196.066 165.334C204.805 175.662 209.215 181.501 217.159 178.324C229.354 166.764 243.138 170.697 244.568 183.488C246.369 199.604 283.479 188.369 295.012 188.594C274.642 164.856 284.264 147.949 294.618 135.821C272.882 125.715 273.684 137.052 263.356 145.791C255.531 150.994 248.738 150.717 230.625 142.295Z" fill="#6DB8C2"/>
<path d="M164.004 231.128C171.658 217.101 161.903 203.607 158.781 197.276C153.369 197.246 145.26 195.848 143.234 195.16C132.366 203.217 126.255 207.242 128.916 215.374C139.667 228.287 134.857 241.789 122.001 242.394C105.802 243.156 114.628 280.911 113.662 292.406C138.66 273.604 154.914 284.292 166.351 295.405C177.833 274.363 166.468 274.435 158.412 263.567C153.722 255.424 154.436 248.663 164.004 231.128Z" fill="#6DB8C2"/>
<path d="M78.912 161.068C93.1903 168.244 106.346 158.038 112.568 154.705C112.416 149.295 113.539 141.143 114.158 139.095C105.739 128.505 101.51 122.534 93.4721 125.468C80.9299 136.649 67.2728 132.298 66.2341 119.469C64.9254 103.306 27.49 113.402 15.9695 112.824C35.6046 137.174 25.4712 153.779 14.7513 165.585C36.1686 176.35 35.7129 164.994 46.3028 156.575C54.2834 151.613 61.0643 152.098 78.912 161.068Z" fill="#6DB8C2"/>
<path d="M195.337 94.8809C180.075 99.6178 177.68 116.095 175.511 122.813C179.374 126.603 184.22 133.254 185.195 135.158C198.606 136.944 205.794 138.311 209.548 130.622C210.824 113.868 223.679 107.527 233.326 116.046C245.483 126.78 271.275 88.7087 278.066 78.1157C247.032 74.2007 238.883 63.0567 238.413 47.1164C215.52 54.2217 223.726 62.0844 221.94 75.4947C219.634 84.6049 214.414 88.9598 195.337 94.8809Z" fill="#6DB8C2"/>
<path d="M216.765 195.493C212.088 180.212 195.62 177.752 188.911 175.557C185.106 179.405 178.436 184.226 176.528 185.193C174.689 198.596 173.294 205.779 180.968 209.563C197.717 210.905 201.091 223.661 192.534 233.275C181.753 245.388 203.944 270.024 211.486 278.751C215.524 247.733 248.417 239.164 264.359 238.757C257.344 215.836 249.449 224.012 236.046 222.172C226.945 219.831 222.61 214.594 216.765 195.493Z" fill="#6DB8C2"/>
<path d="M111.808 213.877C127.358 210.193 130.871 193.917 133.493 187.363C129.898 183.318 125.516 176.352 124.673 174.386C111.416 171.689 104.338 169.835 100.068 177.25C97.6523 193.878 84.4742 195.561 75.4301 186.404C64.0345 174.866 37.7984 213.166 29.7 224.519C60.3944 230.542 66.1923 242.657 65.5739 258.592C88.8983 253.065 81.2474 244.661 83.9444 231.404C86.866 222.472 92.371 218.483 111.808 213.877Z" fill="#6DB8C2"/>
<path d="M94.3899 108.319C98.5977 123.735 114.983 126.697 121.621 129.096C125.543 125.366 132.357 120.752 134.293 119.843C136.541 106.502 138.155 99.3653 130.6 95.3486C113.899 93.4956 108.006 80.4295 116.852 71.0813C127.999 59.3025 87.4278 43.916 80.1557 34.9622C75.1729 65.8425 64.0861 63.7011 48.1391 63.6212C54.4508 86.7456 62.5918 78.8152 75.9325 81.0629C84.9578 83.6812 89.1302 89.0484 94.3899 108.319Z" fill="#6DB8C2"/>
<ellipse cx="154.413" cy="159.756" rx="44.6456" ry="45.9985" transform="rotate(-3.59222 154.413 159.756)" fill="#6DB8C2"/>
<path d="M190.327 157.005C183.743 174.018 165.154 182.58 148.871 176.279C132.588 169.978 124.605 151.134 131.188 134.121C137.771 117.109 156.36 108.546 172.643 114.847C188.926 121.148 196.91 139.993 190.327 157.005Z" fill="#F9A400" stroke="#242A2B" stroke-width="3"/>
<path d="M144.832 140.535C142.273 144.832 138.443 144.616 136.746 144.096L140.737 147.135C144.753 174.174 164.87 169.66 174.279 161.578L178.268 162.137C175.7 160.562 175.476 156.754 175.685 155.048L173.672 159.657C163.666 165.887 157.055 163.879 153.379 161.895C147.835 159.853 143.377 149.878 142.575 145.648C143.707 145.309 144.477 141.925 144.832 140.535Z" fill="#242A2B"/>
<ellipse cx="3.28837" cy="9.11874" rx="3.28837" ry="9.11874" transform="matrix(0.922654 0.385629 -0.341749 0.939791 155.675 126.291)" fill="#242A2B"/>
<ellipse cx="3.28837" cy="9.11874" rx="3.28837" ry="9.11874" transform="matrix(0.922654 0.385629 -0.341749 0.939791 170.086 132.314)" fill="#242A2B"/>
</svg>
