<svg width="840" height="161" viewBox="0 0 840 161" fill="none" xmlns="http://www.w3.org/2000/svg">
<path opacity="0.41" d="M807.05 97.3893H717.95C700.857 97.3893 687 111.233 687 128.309C687 145.384 700.857 159.228 717.95 159.228C729.979 159.228 740.413 152.365 745.524 142.363H779.476C784.587 152.365 795.021 159.228 807.05 159.228C824.143 159.228 838 145.384 838 128.309C838 111.233 824.143 97.3893 807.05 97.3893Z" fill="#383D75" stroke="#383D75" stroke-width="3" stroke-miterlimit="10" stroke-linecap="round" stroke-linejoin="round"/>
<path opacity="0.41" d="M762.5 89.8235V61.8556C762.5 58.6466 759.897 56.0465 756.685 56.0465H712.722C709.509 56.0465 706.907 53.4465 706.907 50.2375C706.907 47.0284 709.509 44.4284 712.722 44.4284H805.924C809.137 44.4284 811.739 41.8284 811.739 38.6193C811.739 35.4103 809.137 32.8103 805.924 32.8103H768.292C765.079 32.8103 762.477 30.2102 762.477 27.0012V2.33606" stroke="#383D75" stroke-width="3" stroke-miterlimit="10" stroke-linecap="round" stroke-linejoin="round"/>
<path d="M762.5 86.708V58.7401C762.5 55.5311 759.897 52.931 756.685 52.931H712.722C709.509 52.931 706.907 50.331 706.907 47.122C706.907 43.9129 709.509 41.3129 712.722 41.3129H805.924C809.137 41.3129 811.739 38.7129 811.739 35.5038C811.739 32.2948 809.137 29.6948 805.924 29.6948H768.292C765.079 29.6948 762.477 27.0947 762.477 23.8857V0.227783" stroke="#383D75" stroke-width="3" stroke-miterlimit="10" stroke-linejoin="round"/>
<path d="M769.3 89.0039H755.7V91.9319H769.3V89.0039Z" fill="#663C3B"/>
<path d="M767.354 87.5509H757.623V89.8464H767.354V87.5509Z" fill="#663C3B"/>
<path d="M766.064 86.0759H758.913V88.2777H766.064V86.0759Z" fill="#663C3B"/>
<path d="M807.05 92.0487H717.95C700.857 92.0487 687 105.892 687 122.968C687 140.044 700.857 153.887 717.95 153.887C729.979 153.887 740.413 147.024 745.524 137.022H779.476C784.587 147.024 795.021 153.887 807.05 153.887C824.143 153.887 838 140.044 838 122.968C838 105.892 824.143 92.0487 807.05 92.0487Z" fill="#FEC556"/>
<path d="M757.67 104.135H751.105C750.589 104.135 750.167 103.713 750.167 103.198C750.167 102.683 750.589 102.261 751.105 102.261H757.67C758.186 102.261 758.608 102.683 758.608 103.198C758.608 103.713 758.209 104.135 757.67 104.135Z" fill="#F29940"/>
<path d="M776.123 104.206H762.781C762.265 104.206 761.843 103.784 761.843 103.269C761.843 102.754 762.265 102.332 762.781 102.332H776.123C776.638 102.332 777.061 102.754 777.061 103.269C777.061 103.784 776.662 104.206 776.123 104.206Z" fill="#F29940"/>
<path d="M776.123 108.07H751.081C750.566 108.07 750.144 107.649 750.144 107.133C750.144 106.618 750.566 106.197 751.081 106.197H776.123C776.639 106.197 777.061 106.618 777.061 107.133C777.061 107.649 776.639 108.07 776.123 108.07Z" fill="#F29940"/>
<path d="M750.8 127.348C749.979 126.528 749.979 125.193 750.8 124.373L757.764 117.416C758.584 116.596 759.921 116.596 760.741 117.416C761.562 118.236 761.562 119.571 760.741 120.391L753.778 127.348C752.957 128.167 751.62 128.167 750.8 127.348Z" fill="#F29940"/>
<path d="M766.51 127.348C765.689 126.528 765.689 125.193 766.51 124.373L773.473 117.416C774.294 116.596 775.63 116.596 776.451 117.416C777.272 118.236 777.272 119.571 776.451 120.391L769.487 127.348C768.667 128.167 767.33 128.167 766.51 127.348Z" fill="#F29940"/>
<path d="M717.95 94.695H807.05C823.768 94.695 837.39 107.719 837.977 123.998C838 123.623 838 123.272 838 122.897C838 105.821 824.143 91.9779 807.05 91.9779H717.95C700.857 91.9779 687 105.821 687 122.897C687 123.272 687 123.623 687.023 123.998C687.586 107.719 701.209 94.695 717.95 94.695Z" fill="#F29940"/>
<path d="M807.05 149.858C795.021 149.858 785.291 144.869 780.179 134.867H744.821C739.709 144.869 729.979 149.858 717.95 149.858C701.537 149.858 688.102 137.069 687.07 120.93C687.023 121.586 687 122.241 687 122.921C687 139.997 700.857 153.84 717.95 153.84C729.979 153.84 740.413 146.977 745.524 136.975H779.476C784.587 146.977 795.021 153.84 807.05 153.84C824.143 153.84 838 139.997 838 122.921C838 122.241 837.977 121.586 837.93 120.93C836.898 137.069 823.463 149.858 807.05 149.858Z" fill="#F29940"/>
<path d="M718.068 144.518C729.075 144.518 737.998 135.604 737.998 124.608C737.998 113.612 729.075 104.698 718.068 104.698C707.061 104.698 698.137 113.612 698.137 124.608C698.137 135.604 707.061 144.518 718.068 144.518Z" fill="#F29940"/>
<path d="M718.068 142.597C728.945 142.597 737.763 133.788 737.763 122.921C737.763 112.055 728.945 103.245 718.068 103.245C707.19 103.245 698.372 112.055 698.372 122.921C698.372 133.788 707.19 142.597 718.068 142.597Z" fill="#835559"/>
<path d="M718.068 139.552C727.262 139.552 734.715 132.106 734.715 122.921C734.715 113.736 727.262 106.29 718.068 106.29C708.874 106.29 701.42 113.736 701.42 122.921C701.42 132.106 708.874 139.552 718.068 139.552Z" fill="#95676B"/>
<path d="M729.885 119.173H721.819V111.116C721.819 110.53 721.327 110.038 720.741 110.038H715.395C714.808 110.038 714.316 110.53 714.316 111.116V119.173H706.25C705.664 119.173 705.172 119.665 705.172 120.251V125.591C705.172 126.177 705.664 126.669 706.25 126.669H714.316V134.727C714.316 135.312 714.808 135.804 715.395 135.804H720.741C721.327 135.804 721.819 135.312 721.819 134.727V126.669H729.885C730.471 126.669 730.964 126.177 730.964 125.591V120.251C730.964 119.642 730.471 119.173 729.885 119.173Z" fill="#663C3B"/>
<path d="M718.068 142.597C728.945 142.597 737.763 133.788 737.763 122.921C737.763 112.055 728.945 103.245 718.068 103.245C707.19 103.245 698.372 112.055 698.372 122.921C698.372 133.788 707.19 142.597 718.068 142.597Z" stroke="#383D75" stroke-width="3" stroke-miterlimit="10" stroke-linecap="round" stroke-linejoin="round"/>
<path d="M807.167 144.518C818.174 144.518 827.097 135.604 827.097 124.608C827.097 113.612 818.174 104.698 807.167 104.698C796.16 104.698 787.237 113.612 787.237 124.608C787.237 135.604 796.16 144.518 807.167 144.518Z" fill="#F29940"/>
<path d="M807.167 142.597C818.044 142.597 826.862 133.788 826.862 122.921C826.862 112.055 818.044 103.245 807.167 103.245C796.289 103.245 787.471 112.055 787.471 122.921C787.471 133.788 796.289 142.597 807.167 142.597Z" fill="#835559"/>
<path d="M807.167 139.552C816.361 139.552 823.815 132.106 823.815 122.921C823.815 113.736 816.361 106.29 807.167 106.29C797.973 106.29 790.52 113.736 790.52 122.921C790.52 132.106 797.973 139.552 807.167 139.552Z" fill="#95676B"/>
<path d="M807.167 142.597C818.044 142.597 826.862 133.788 826.862 122.921C826.862 112.055 818.044 103.245 807.167 103.245C796.289 103.245 787.471 112.055 787.471 122.921C787.471 133.788 796.289 142.597 807.167 142.597Z" stroke="#383D75" stroke-width="3" stroke-miterlimit="10" stroke-linecap="round" stroke-linejoin="round"/>
<path d="M716.544 114.348L717.833 112.099C717.927 111.935 718.161 111.935 718.255 112.099L719.545 114.348C719.639 114.512 719.521 114.723 719.334 114.723H716.731C716.567 114.723 716.45 114.512 716.544 114.348Z" fill="#FEC556"/>
<path d="M716.544 131.494L717.833 133.743C717.927 133.907 718.161 133.907 718.255 133.743L719.545 131.494C719.639 131.33 719.521 131.119 719.334 131.119H716.731C716.567 131.119 716.45 131.33 716.544 131.494Z" fill="#FEC556"/>
<path d="M729.885 119.173H721.819V111.116C721.819 110.53 721.327 110.038 720.741 110.038H715.395C714.808 110.038 714.316 110.53 714.316 111.116V119.173H706.25C705.664 119.173 705.172 119.665 705.172 120.251V125.591C705.172 126.177 705.664 126.669 706.25 126.669H714.316V134.727C714.316 135.312 714.808 135.804 715.395 135.804H720.741C721.327 135.804 721.819 135.312 721.819 134.727V126.669H729.885C730.471 126.669 730.964 126.177 730.964 125.591V120.251C730.964 119.642 730.471 119.173 729.885 119.173Z" stroke="#663C3B" stroke-width="3" stroke-miterlimit="10" stroke-linecap="round" stroke-linejoin="round"/>
<path d="M726.227 121.398L728.478 122.687C728.642 122.78 728.642 123.014 728.478 123.108L726.227 124.396C726.063 124.49 725.852 124.373 725.852 124.186V121.586C725.852 121.422 726.063 121.305 726.227 121.398Z" fill="#FEC556"/>
<path d="M709.486 121.398L707.235 122.687C707.071 122.78 707.071 123.014 707.235 123.108L709.486 124.396C709.65 124.49 709.861 124.373 709.861 124.186V121.586C709.861 121.422 709.65 121.305 709.486 121.398Z" fill="#FEC556"/>
<path d="M785.877 90.5966H807.167C811.739 90.5966 816.1 91.557 820.063 93.2669" stroke="#383D75" stroke-width="3" stroke-miterlimit="10" stroke-linecap="round" stroke-linejoin="round"/>
<path d="M705.172 93.2669C709.134 91.5336 713.495 90.5966 718.068 90.5966H738.983" stroke="#383D75" stroke-width="3" stroke-miterlimit="10" stroke-linecap="round" stroke-linejoin="round"/>
<path d="M807.05 92.0018H717.95C700.857 92.0018 687 105.845 687 122.921C687 139.997 700.857 153.84 717.95 153.84C729.979 153.84 740.413 146.977 745.524 136.975H779.476C784.587 146.977 795.021 153.84 807.05 153.84C824.143 153.84 838 139.997 838 122.921C838 105.845 824.143 92.0018 807.05 92.0018Z" stroke="#383D75" stroke-width="3" stroke-miterlimit="10" stroke-linecap="round" stroke-linejoin="round"/>
<path opacity="0.17" d="M810.332 120.04L801.047 129.316C799.031 131.33 795.772 131.33 793.755 129.316C791.739 127.301 791.739 124.045 793.755 122.031L803.04 112.755C805.057 110.741 808.316 110.741 810.332 112.755C812.349 114.746 812.349 118.026 810.332 120.04Z" fill="#383D75"/>
<path d="M809.863 119.102L800.578 128.378C798.562 130.393 795.303 130.393 793.286 128.378C791.27 126.364 791.27 123.108 793.286 121.093L802.571 111.818C804.588 109.803 807.847 109.803 809.863 111.818C811.88 113.809 811.88 117.088 809.863 119.102Z" fill="#FEC556"/>
<path d="M809.863 119.102L800.578 128.378C798.562 130.393 795.303 130.393 793.286 128.378C791.27 126.364 791.27 123.108 793.286 121.093L802.571 111.818C804.588 109.803 807.847 109.803 809.863 111.818C811.88 113.809 811.88 117.088 809.863 119.102Z" stroke="#663C3B" stroke-width="3" stroke-miterlimit="10" stroke-linecap="round" stroke-linejoin="round"/>
<path d="M796.944 128.004C798.757 128.004 800.227 126.536 800.227 124.725C800.227 122.914 798.757 121.445 796.944 121.445C795.131 121.445 793.661 122.914 793.661 124.725C793.661 126.536 795.131 128.004 796.944 128.004Z" fill="#32B94D"/>
<path d="M794.834 124.537C794.928 123.366 795.959 122.523 797.132 122.617" stroke="#663C3B" stroke-width="3" stroke-miterlimit="10" stroke-linecap="round" stroke-linejoin="round"/>
<path d="M796.944 128.004C798.757 128.004 800.227 126.536 800.227 124.725C800.227 122.914 798.757 121.445 796.944 121.445C795.131 121.445 793.661 122.914 793.661 124.725C793.661 126.536 795.131 128.004 796.944 128.004Z" stroke="#663C3B" stroke-width="3" stroke-miterlimit="10" stroke-linecap="round" stroke-linejoin="round"/>
<path d="M806.229 118.728C808.042 118.728 809.512 117.26 809.512 115.449C809.512 113.638 808.042 112.169 806.229 112.169C804.416 112.169 802.947 113.638 802.947 115.449C802.947 117.26 804.416 118.728 806.229 118.728Z" fill="#8BD8F5"/>
<path d="M804.119 115.448C804.119 114.277 805.057 113.34 806.229 113.34" stroke="#663C3B" stroke-width="3" stroke-miterlimit="10" stroke-linecap="round" stroke-linejoin="round"/>
<path d="M806.229 118.728C808.042 118.728 809.512 117.26 809.512 115.449C809.512 113.638 808.042 112.169 806.229 112.169C804.416 112.169 802.947 113.638 802.947 115.449C802.947 117.26 804.416 118.728 806.229 118.728Z" stroke="#663C3B" stroke-width="3" stroke-miterlimit="10" stroke-linecap="round" stroke-linejoin="round"/>
<path opacity="0.17" d="M821.258 126.176L811.973 135.452C809.957 137.467 806.698 137.467 804.681 135.452C802.665 133.438 802.665 130.182 804.681 128.167L813.966 118.892C815.983 116.877 819.242 116.877 821.258 118.892C823.275 120.906 823.275 124.162 821.258 126.176Z" fill="#383D75"/>
<path d="M821.024 125.006L811.739 134.281C809.723 136.296 806.464 136.296 804.447 134.281C802.431 132.267 802.431 129.011 804.447 126.997L813.732 117.721C815.749 115.706 819.008 115.706 821.024 117.721C823.041 119.735 823.041 122.991 821.024 125.006Z" fill="#FEC556"/>
<path d="M821.024 125.006L811.739 134.281C809.723 136.296 806.464 136.296 804.447 134.281C802.431 132.267 802.431 129.011 804.447 126.997L813.732 117.721C815.749 115.706 819.008 115.706 821.024 117.721C823.041 119.735 823.041 122.991 821.024 125.006Z" stroke="#663C3B" stroke-width="3" stroke-miterlimit="10" stroke-linecap="round" stroke-linejoin="round"/>
<path d="M808.105 133.93C809.918 133.93 811.387 132.462 811.387 130.651C811.387 128.839 809.918 127.371 808.105 127.371C806.292 127.371 804.822 128.839 804.822 130.651C804.822 132.462 806.292 133.93 808.105 133.93Z" fill="#FEF585"/>
<path d="M805.995 130.651C805.995 129.48 806.933 128.543 808.105 128.543" stroke="#663C3B" stroke-width="3" stroke-miterlimit="10" stroke-linecap="round" stroke-linejoin="round"/>
<path d="M808.105 133.93C809.918 133.93 811.387 132.462 811.387 130.651C811.387 128.839 809.918 127.371 808.105 127.371C806.292 127.371 804.822 128.839 804.822 130.651C804.822 132.462 806.292 133.93 808.105 133.93Z" stroke="#663C3B" stroke-width="3" stroke-miterlimit="10" stroke-linecap="round" stroke-linejoin="round"/>
<path d="M817.39 124.654C819.203 124.654 820.672 123.186 820.672 121.375C820.672 119.564 819.203 118.095 817.39 118.095C815.577 118.095 814.107 119.564 814.107 121.375C814.107 123.186 815.577 124.654 817.39 124.654Z" fill="#E7503B"/>
<path d="M815.28 121.375C815.28 120.204 816.218 119.267 817.39 119.267" stroke="#663C3B" stroke-width="3" stroke-miterlimit="10" stroke-linecap="round" stroke-linejoin="round"/>
<path d="M817.39 124.654C819.203 124.654 820.672 123.186 820.672 121.375C820.672 119.564 819.203 118.095 817.39 118.095C815.577 118.095 814.107 119.564 814.107 121.375C814.107 123.186 815.577 124.654 817.39 124.654Z" stroke="#663C3B" stroke-width="3" stroke-miterlimit="10" stroke-linecap="round" stroke-linejoin="round"/>
<path d="M750.8 126.411C749.979 125.591 749.979 124.256 750.8 123.436L757.764 116.479C758.584 115.66 759.921 115.66 760.741 116.479C761.562 117.299 761.562 118.634 760.741 119.454L753.778 126.411C752.957 127.231 751.62 127.231 750.8 126.411Z" fill="#663C3B"/>
<path d="M766.51 126.411C765.689 125.591 765.689 124.256 766.51 123.436L773.473 116.479C774.294 115.66 775.63 115.66 776.451 116.479C777.272 117.299 777.272 118.634 776.451 119.454L769.487 126.411C768.667 127.231 767.33 127.231 766.51 126.411Z" fill="#663C3B"/>
<path d="M718.067 126.669C720.139 126.669 721.819 124.991 721.819 122.921C721.819 120.851 720.139 119.173 718.067 119.173C715.995 119.173 714.316 120.851 714.316 122.921C714.316 124.991 715.995 126.669 718.067 126.669Z" fill="#FEC556"/>
<path d="M718.067 125.895C716.168 125.895 714.527 124.396 714.339 122.522C714.316 122.64 714.316 122.78 714.316 122.897C714.316 124.935 716.028 126.645 718.067 126.645C720.107 126.645 721.819 124.935 721.819 122.897C721.819 122.757 721.819 122.64 721.796 122.522C721.585 124.396 719.967 125.895 718.067 125.895Z" fill="#F29940"/>
<path d="M715.254 122.921C715.254 121.398 716.544 120.11 718.068 120.11" stroke="#663C3B" stroke-width="3" stroke-miterlimit="10" stroke-linecap="round" stroke-linejoin="round"/>
<path opacity="0.41" d="M94.2236 86.7794H25.7764C12.6453 86.7794 2 97.4013 2 110.504C2 123.606 12.6453 134.228 25.7764 134.228C35.0168 134.228 43.0323 128.962 46.959 121.287H73.041C76.9677 128.962 84.9832 134.228 94.2236 134.228C107.355 134.228 118 123.606 118 110.504C118 97.4013 107.355 86.7794 94.2236 86.7794Z" fill="#383D75" stroke="#383D75" stroke-width="3" stroke-miterlimit="10" stroke-linecap="round" stroke-linejoin="round"/>
<path opacity="0.41" d="M59.9999 80.9742V59.5146C59.9999 57.0523 58.0006 55.0573 55.5329 55.0573H21.7596C19.2919 55.0573 17.2925 53.0623 17.2925 50.6C17.2925 48.1377 19.2919 46.1427 21.7596 46.1427H93.3589C95.8266 46.1427 97.826 44.1477 97.826 41.6855C97.826 39.2232 95.8266 37.2282 93.3589 37.2282H64.449C61.9813 37.2282 59.9819 35.2332 59.9819 32.7709V13.8455" stroke="#383D75" stroke-width="3" stroke-miterlimit="10" stroke-linecap="round" stroke-linejoin="round"/>
<path d="M59.9999 78.5837V57.124C59.9999 54.6618 58.0006 52.6668 55.5329 52.6668H21.7596C19.2919 52.6668 17.2925 50.6718 17.2925 48.2095C17.2925 45.7472 19.2919 43.7522 21.7596 43.7522H93.3589C95.8266 43.7522 97.826 41.7572 97.826 39.2949C97.826 36.8327 95.8266 34.8377 93.3589 34.8377H64.449C61.9813 34.8377 59.9819 32.8427 59.9819 30.3804V12.2278" stroke="#383D75" stroke-width="3" stroke-miterlimit="10" stroke-linejoin="round"/>
<path d="M65.2236 80.3453H54.7764V82.5919H65.2236V80.3453Z" fill="#663C3B"/>
<path d="M63.7286 79.2304H56.2534V80.9918H63.7286V79.2304Z" fill="#663C3B"/>
<path d="M62.7379 78.0986H57.2441V79.7881H62.7379V78.0986Z" fill="#663C3B"/>
<path d="M94.2236 82.6816H25.7764C12.6453 82.6816 2 93.3036 2 106.406C2 119.508 12.6453 130.13 25.7764 130.13C35.0168 130.13 43.0323 124.864 46.959 117.19H73.041C76.9677 124.864 84.9832 130.13 94.2236 130.13C107.355 130.13 118 119.508 118 106.406C118 93.3036 107.355 82.6816 94.2236 82.6816Z" fill="#FEC556"/>
<path d="M56.2894 91.9553H51.2459C50.8496 91.9553 50.5254 91.6318 50.5254 91.2364C50.5254 90.841 50.8496 90.5175 51.2459 90.5175H56.2894C56.6856 90.5175 57.0099 90.841 57.0099 91.2364C57.0099 91.6318 56.7036 91.9553 56.2894 91.9553Z" fill="#F29940"/>
<path d="M70.4652 92.0097H60.2161C59.8198 92.0097 59.4956 91.6862 59.4956 91.2908C59.4956 90.8954 59.8198 90.5718 60.2161 90.5718H70.4652C70.8615 90.5718 71.1857 90.8954 71.1857 91.2908C71.1857 91.6862 70.8795 92.0097 70.4652 92.0097Z" fill="#F29940"/>
<path d="M70.4653 94.9749H51.2281C50.8318 94.9749 50.5076 94.6514 50.5076 94.256C50.5076 93.8606 50.8318 93.5371 51.2281 93.5371H70.4653C70.8616 93.5371 71.1858 93.8606 71.1858 94.256C71.1858 94.6514 70.8616 94.9749 70.4653 94.9749Z" fill="#F29940"/>
<path d="M51.0119 109.766C50.3815 109.137 50.3815 108.113 51.0119 107.484L56.3616 102.146C56.992 101.517 58.0187 101.517 58.6492 102.146C59.2796 102.775 59.2796 103.799 58.6492 104.428L53.2995 109.766C52.669 110.395 51.6423 110.395 51.0119 109.766Z" fill="#F29940"/>
<path d="M63.0802 109.766C62.4498 109.137 62.4498 108.113 63.0802 107.484L68.4299 102.146C69.0604 101.517 70.0871 101.517 70.7175 102.146C71.3479 102.775 71.3479 103.799 70.7175 104.428L65.3678 109.766C64.7374 110.395 63.7107 110.395 63.0802 109.766Z" fill="#F29940"/>
<path d="M25.7764 84.7121H94.2236C107.066 84.7121 117.532 94.705 117.982 107.196C118 106.909 118 106.639 118 106.351C118 93.2492 107.355 82.6273 94.2236 82.6273H25.7764C12.6453 82.6273 2 93.2492 2 106.351C2 106.639 2 106.909 2.01801 107.196C2.45031 94.705 12.9155 84.7121 25.7764 84.7121Z" fill="#F29940"/>
<path d="M94.2236 127.038C84.9832 127.038 77.5081 123.21 73.5814 115.536H46.4186C42.4919 123.21 35.0168 127.038 25.7764 127.038C13.1677 127.038 2.84658 117.225 2.05404 104.842C2.01801 105.345 2 105.848 2 106.37C2 119.472 12.6453 130.094 25.7764 130.094C35.0168 130.094 43.0323 124.828 46.959 117.153H73.041C76.9677 124.828 84.9832 130.094 94.2236 130.094C107.355 130.094 118 119.472 118 106.37C118 105.848 117.982 105.345 117.946 104.842C117.153 117.225 106.832 127.038 94.2236 127.038Z" fill="#F29940"/>
<path d="M25.8665 122.941C34.3222 122.941 41.177 116.101 41.177 107.664C41.177 99.2267 34.3222 92.387 25.8665 92.387C17.4107 92.387 10.5559 99.2267 10.5559 107.664C10.5559 116.101 17.4107 122.941 25.8665 122.941Z" fill="#F29940"/>
<path d="M25.8665 121.467C34.2228 121.467 40.997 114.708 40.997 106.37C40.997 98.032 34.2228 91.2728 25.8665 91.2728C17.5102 91.2728 10.7361 98.032 10.7361 106.37C10.7361 114.708 17.5102 121.467 25.8665 121.467Z" fill="#835559"/>
<path d="M25.8665 119.13C32.9295 119.13 38.6553 113.417 38.6553 106.37C38.6553 99.3222 32.9295 93.609 25.8665 93.609C18.8034 93.609 13.0776 99.3222 13.0776 106.37C13.0776 113.417 18.8034 119.13 25.8665 119.13Z" fill="#95676B"/>
<path d="M34.9448 103.494H28.7485V97.3115C28.7485 96.8622 28.3703 96.4847 27.92 96.4847H23.8131C23.3628 96.4847 22.9846 96.8622 22.9846 97.3115V103.494H16.7883C16.338 103.494 15.9597 103.872 15.9597 104.321V108.419C15.9597 108.868 16.338 109.245 16.7883 109.245H22.9846V115.428C22.9846 115.877 23.3628 116.255 23.8131 116.255H27.92C28.3703 116.255 28.7485 115.877 28.7485 115.428V109.245H34.9448C35.3951 109.245 35.7734 108.868 35.7734 108.419V104.321C35.7734 103.854 35.3951 103.494 34.9448 103.494Z" fill="#663C3B"/>
<path d="M25.8665 121.467C34.2228 121.467 40.997 114.708 40.997 106.37C40.997 98.032 34.2228 91.2728 25.8665 91.2728C17.5102 91.2728 10.7361 98.032 10.7361 106.37C10.7361 114.708 17.5102 121.467 25.8665 121.467Z" stroke="#383D75" stroke-width="3" stroke-miterlimit="10" stroke-linecap="round" stroke-linejoin="round"/>
<path d="M94.3137 122.941C102.769 122.941 109.624 116.101 109.624 107.664C109.624 99.2267 102.769 92.387 94.3137 92.387C85.858 92.387 79.0032 99.2267 79.0032 107.664C79.0032 116.101 85.858 122.941 94.3137 122.941Z" fill="#F29940"/>
<path d="M94.3135 121.467C102.67 121.467 109.444 114.708 109.444 106.37C109.444 98.032 102.67 91.2728 94.3135 91.2728C85.9572 91.2728 79.1831 98.032 79.1831 106.37C79.1831 114.708 85.9572 121.467 94.3135 121.467Z" fill="#835559"/>
<path d="M94.3137 119.13C101.377 119.13 107.103 113.417 107.103 106.37C107.103 99.3222 101.377 93.609 94.3137 93.609C87.2507 93.609 81.5249 99.3222 81.5249 106.37C81.5249 113.417 87.2507 119.13 94.3137 119.13Z" fill="#95676B"/>
<path d="M94.3135 121.467C102.67 121.467 109.444 114.708 109.444 106.37C109.444 98.032 102.67 91.2728 94.3135 91.2728C85.9572 91.2728 79.1831 98.032 79.1831 106.37C79.1831 114.708 85.9572 121.467 94.3135 121.467Z" stroke="#383D75" stroke-width="3" stroke-miterlimit="10" stroke-linecap="round" stroke-linejoin="round"/>
<path d="M24.6955 99.7916L25.6862 98.0662C25.7583 97.9403 25.9384 97.9403 26.0105 98.0662L27.0011 99.7916C27.0732 99.9174 26.9831 100.079 26.839 100.079H24.8396C24.7136 100.079 24.6235 99.9174 24.6955 99.7916Z" fill="#FEC556"/>
<path d="M24.6955 112.948L25.6862 114.673C25.7583 114.799 25.9384 114.799 26.0105 114.673L27.0011 112.948C27.0732 112.822 26.9831 112.66 26.839 112.66H24.8396C24.7136 112.66 24.6235 112.822 24.6955 112.948Z" fill="#FEC556"/>
<path d="M34.9448 103.494H28.7485V97.3115C28.7485 96.8622 28.3703 96.4847 27.92 96.4847H23.8131C23.3628 96.4847 22.9846 96.8622 22.9846 97.3115V103.494H16.7883C16.338 103.494 15.9597 103.872 15.9597 104.321V108.419C15.9597 108.868 16.338 109.245 16.7883 109.245H22.9846V115.428C22.9846 115.877 23.3628 116.255 23.8131 116.255H27.92C28.3703 116.255 28.7485 115.877 28.7485 115.428V109.245H34.9448C35.3951 109.245 35.7734 108.868 35.7734 108.419V104.321C35.7734 103.854 35.3951 103.494 34.9448 103.494Z" stroke="#663C3B" stroke-width="3" stroke-miterlimit="10" stroke-linecap="round" stroke-linejoin="round"/>
<path d="M32.1349 105.201L33.8641 106.19C33.9902 106.262 33.9902 106.441 33.8641 106.513L32.1349 107.502C32.0088 107.574 31.8467 107.484 31.8467 107.34V105.345C31.8467 105.219 32.0088 105.129 32.1349 105.201Z" fill="#FEC556"/>
<path d="M19.274 105.201L17.5448 106.19C17.4187 106.262 17.4187 106.441 17.5448 106.513L19.274 107.502C19.4 107.574 19.5621 107.484 19.5621 107.34V105.345C19.5621 105.219 19.4 105.129 19.274 105.201Z" fill="#FEC556"/>
<path d="M77.9585 81.5674H94.3138C97.8262 81.5674 101.177 82.3043 104.221 83.6163" stroke="#383D75" stroke-width="3" stroke-miterlimit="10" stroke-linecap="round" stroke-linejoin="round"/>
<path d="M15.9597 83.6163C19.0038 82.2863 22.3541 81.5674 25.8665 81.5674H41.9336" stroke="#383D75" stroke-width="3" stroke-miterlimit="10" stroke-linecap="round" stroke-linejoin="round"/>
<path d="M94.2236 82.6456H25.7764C12.6453 82.6456 2 93.2676 2 106.37C2 119.472 12.6453 130.094 25.7764 130.094C35.0168 130.094 43.0323 124.828 46.959 117.154H73.041C76.9677 124.828 84.9832 130.094 94.2236 130.094C107.355 130.094 118 119.472 118 106.37C118 93.2676 107.355 82.6456 94.2236 82.6456Z" stroke="#383D75" stroke-width="3" stroke-miterlimit="10" stroke-linecap="round" stroke-linejoin="round"/>
<path opacity="0.17" d="M96.7455 104.159L89.6125 111.276C88.0635 112.822 85.5597 112.822 84.0107 111.276C82.4616 109.731 82.4616 107.232 84.0107 105.687L91.1436 98.5695C92.6927 97.0239 95.1964 97.0239 96.7455 98.5695C98.2945 100.097 98.2945 102.613 96.7455 104.159Z" fill="#383D75"/>
<path d="M96.3851 103.44L89.2522 110.557C87.7031 112.103 85.1994 112.103 83.6503 110.557C82.1013 109.011 82.1013 106.513 83.6503 104.968L90.7833 97.8503C92.3323 96.3046 94.836 96.3046 96.3851 97.8503C97.9342 99.378 97.9342 101.894 96.3851 103.44Z" fill="#FEC556"/>
<path d="M96.3851 103.44L89.2522 110.557C87.7031 112.103 85.1994 112.103 83.6503 110.557C82.1013 109.011 82.1013 106.513 83.6503 104.968L90.7833 97.8503C92.3323 96.3046 94.836 96.3046 96.3851 97.8503C97.9342 99.378 97.9342 101.894 96.3851 103.44Z" stroke="#663C3B" stroke-width="3" stroke-miterlimit="10" stroke-linecap="round" stroke-linejoin="round"/>
<path d="M86.4602 110.27C87.8529 110.27 88.982 109.143 88.982 107.754C88.982 106.364 87.8529 105.237 86.4602 105.237C85.0675 105.237 83.9385 106.364 83.9385 107.754C83.9385 109.143 85.0675 110.27 86.4602 110.27Z" fill="#32B94D"/>
<path d="M84.8391 107.61C84.9112 106.711 85.7037 106.064 86.6043 106.136" stroke="#663C3B" stroke-width="3" stroke-miterlimit="10" stroke-linecap="round" stroke-linejoin="round"/>
<path d="M86.4602 110.27C87.8529 110.27 88.982 109.143 88.982 107.754C88.982 106.364 87.8529 105.237 86.4602 105.237C85.0675 105.237 83.9385 106.364 83.9385 107.754C83.9385 109.143 85.0675 110.27 86.4602 110.27Z" stroke="#663C3B" stroke-width="3" stroke-miterlimit="10" stroke-linecap="round" stroke-linejoin="round"/>
<path d="M93.5933 103.152C94.986 103.152 96.115 102.026 96.115 100.636C96.115 99.2466 94.986 98.1201 93.5933 98.1201C92.2006 98.1201 91.0715 99.2466 91.0715 100.636C91.0715 102.026 92.2006 103.152 93.5933 103.152Z" fill="#8BD8F5"/>
<path d="M91.9719 100.636C91.9719 99.7373 92.6924 99.0184 93.593 99.0184" stroke="#663C3B" stroke-width="3" stroke-miterlimit="10" stroke-linecap="round" stroke-linejoin="round"/>
<path d="M93.5933 103.152C94.986 103.152 96.115 102.026 96.115 100.636C96.115 99.2466 94.986 98.1201 93.5933 98.1201C92.2006 98.1201 91.0715 99.2466 91.0715 100.636C91.0715 102.026 92.2006 103.152 93.5933 103.152Z" stroke="#663C3B" stroke-width="3" stroke-miterlimit="10" stroke-linecap="round" stroke-linejoin="round"/>
<path opacity="0.17" d="M105.139 108.868L98.0061 115.985C96.457 117.531 93.9533 117.531 92.4042 115.985C90.8552 114.439 90.8552 111.941 92.4042 110.395L99.5371 103.278C101.086 101.732 103.59 101.732 105.139 103.278C106.688 104.824 106.688 107.322 105.139 108.868Z" fill="#383D75"/>
<path d="M104.959 107.969L97.8262 115.086C96.2771 116.632 93.7734 116.632 92.2243 115.086C90.6752 113.541 90.6752 111.043 92.2243 109.497L99.3572 102.38C100.906 100.834 103.41 100.834 104.959 102.38C106.508 103.925 106.508 106.424 104.959 107.969Z" fill="#FEC556"/>
<path d="M104.959 107.969L97.8262 115.086C96.2771 116.632 93.7734 116.632 92.2243 115.086C90.6752 113.541 90.6752 111.043 92.2243 109.497L99.3572 102.38C100.906 100.834 103.41 100.834 104.959 102.38C106.508 103.925 106.508 106.424 104.959 107.969Z" stroke="#663C3B" stroke-width="3" stroke-miterlimit="10" stroke-linecap="round" stroke-linejoin="round"/>
<path d="M95.0342 114.817C96.4269 114.817 97.5559 113.69 97.5559 112.301C97.5559 110.911 96.4269 109.784 95.0342 109.784C93.6415 109.784 92.5125 110.911 92.5125 112.301C92.5125 113.69 93.6415 114.817 95.0342 114.817Z" fill="#FEF585"/>
<path d="M93.4131 112.301C93.4131 111.403 94.1336 110.684 95.0342 110.684" stroke="#663C3B" stroke-width="3" stroke-miterlimit="10" stroke-linecap="round" stroke-linejoin="round"/>
<path d="M95.0342 114.817C96.4269 114.817 97.5559 113.69 97.5559 112.301C97.5559 110.911 96.4269 109.784 95.0342 109.784C93.6415 109.784 92.5125 110.911 92.5125 112.301C92.5125 113.69 93.6415 114.817 95.0342 114.817Z" stroke="#663C3B" stroke-width="3" stroke-miterlimit="10" stroke-linecap="round" stroke-linejoin="round"/>
<path d="M102.167 107.699C103.56 107.699 104.689 106.573 104.689 105.183C104.689 103.794 103.56 102.667 102.167 102.667C100.774 102.667 99.6453 103.794 99.6453 105.183C99.6453 106.573 100.774 107.699 102.167 107.699Z" fill="#E7503B"/>
<path d="M100.546 105.184C100.546 104.285 101.267 103.566 102.167 103.566" stroke="#663C3B" stroke-width="3" stroke-miterlimit="10" stroke-linecap="round" stroke-linejoin="round"/>
<path d="M102.167 107.699C103.56 107.699 104.689 106.573 104.689 105.183C104.689 103.794 103.56 102.667 102.167 102.667C100.774 102.667 99.6453 103.794 99.6453 105.183C99.6453 106.573 100.774 107.699 102.167 107.699Z" stroke="#663C3B" stroke-width="3" stroke-miterlimit="10" stroke-linecap="round" stroke-linejoin="round"/>
<path d="M51.0119 109.048C50.3815 108.419 50.3815 107.394 51.0119 106.765L56.3616 101.427C56.992 100.798 58.0187 100.798 58.6492 101.427C59.2796 102.056 59.2796 103.081 58.6492 103.71L53.2995 109.048C52.669 109.677 51.6423 109.677 51.0119 109.048Z" fill="#663C3B"/>
<path d="M63.0802 109.048C62.4498 108.419 62.4498 107.394 63.0802 106.765L68.4299 101.427C69.0604 100.798 70.0871 100.798 70.7175 101.427C71.3479 102.056 71.3479 103.081 70.7175 103.71L65.3678 109.048C64.7374 109.677 63.7107 109.677 63.0802 109.048Z" fill="#663C3B"/>
<path d="M25.8664 109.246C27.4579 109.246 28.7484 107.958 28.7484 106.37C28.7484 104.782 27.4579 103.494 25.8664 103.494C24.2746 103.494 22.9844 104.782 22.9844 106.37C22.9844 107.958 24.2746 109.246 25.8664 109.246Z" fill="#FEC556"/>
<path d="M25.8664 108.652C24.4074 108.652 23.1465 107.502 23.0024 106.064C22.9844 106.154 22.9844 106.262 22.9844 106.351C22.9844 107.915 24.2993 109.227 25.8664 109.227C27.4334 109.227 28.7484 107.915 28.7484 106.351C28.7484 106.244 28.7484 106.154 28.7303 106.064C28.5682 107.502 27.3254 108.652 25.8664 108.652Z" fill="#F29940"/>
<path d="M23.7048 106.37C23.7048 105.201 24.6955 104.213 25.8663 104.213" stroke="#663C3B" stroke-width="3" stroke-miterlimit="10" stroke-linecap="round" stroke-linejoin="round"/>
</svg>
