<svg width="1195" height="284" viewBox="0 0 1195 284" fill="none" xmlns="http://www.w3.org/2000/svg">
<path d="M1054.46 264.515L1035.16 117.805L1159.06 113.418L1144.82 265.88L1054.46 264.515Z" fill="#D10B1C"/>
<path d="M1159.84 248.626L1144.82 265.88L1159.06 113.419L1175.24 112.834L1159.84 248.626Z" fill="#F1523D"/>
<path d="M1064.79 264.613L1070.83 264.71L1065.38 116.44L1050.66 117.512L1064.79 264.613Z" fill="#F4EFD3"/>
<path d="M1087.21 265.003L1091.5 265.1L1091.4 149.487H1080.78L1087.21 265.003Z" fill="#F4EFD3"/>
<path d="M1101.05 265.198L1105.15 265.295L1113.63 175.709H1105.15L1101.05 265.198Z" fill="#F4EFD3"/>
<path d="M1123.08 265.49L1131.27 265.685L1147.26 114.003H1136.73L1123.08 265.49Z" fill="#F4EFD3"/>
<path d="M1151.55 258.374L1147.94 262.273L1160.81 119.56H1164.51L1151.55 258.374Z" fill="#F4EFD3"/>
<path d="M1156.81 252.038L1153.79 255.645L1168.12 112.931H1170.46L1156.81 252.038Z" fill="#F4EFD3"/>
<path d="M1159.54 249.016L1158.37 250.186L1172.51 112.834H1174.75L1159.54 249.016Z" fill="#F4EFD3"/>
<g filter="url(#filter0_d_647_6212)">
<path d="M1071.71 182.436H1129.52C1133.52 182.661 1134.07 180.685 1134.59 176.587C1134.35 151.311 1132.77 137.537 1126.2 114.003L1072.78 116.343C1069.03 139.774 1067.96 152.956 1067.62 176.587C1067.39 180.635 1067.65 182.528 1071.71 182.436Z" fill="#F9B64E"/>
<path d="M1072.69 177.269H1129.13C1129.65 154.832 1128.58 141.525 1121.04 114.783L1078.83 116.343C1074.18 139.133 1072.98 152.535 1072.69 177.269Z" fill="#1B1523"/>
<path d="M1120.75 177.172H1129.23C1129.52 151.441 1127.91 137.789 1121.53 114.978H1113.24C1118.53 139.232 1120.29 152.848 1120.75 177.172Z" fill="#3D1F21"/>
</g>
<path d="M1168.15 95.0918L1183.26 94.7019L1188.91 111.859L1170.49 112.639L1168.15 95.0918Z" fill="#E4011C"/>
<path d="M1182.58 122.192C1179.65 123.005 1170.36 116.115 1170.49 112.639L1188.91 111.859C1189.51 114.355 1186.2 122.03 1182.58 122.192Z" fill="#B8101D"/>
<path d="M1156.65 95.0923H1168.15L1170.49 112.639L1157.23 113.029L1156.65 95.0923Z" fill="#FFF0E9"/>
<path d="M1144.36 95.3847L1156.65 95.0923L1157.23 113.029L1145.73 113.321L1144.36 95.3847Z" fill="#E4011C"/>
<path d="M1133.35 95.5797L1144.36 95.3848L1145.73 113.321L1134.71 113.809L1133.35 95.5797Z" fill="#FFF0E9"/>
<path d="M1120.38 96.0672L1133.35 95.5798L1134.71 113.809L1120.87 114.394L1120.38 96.0672Z" fill="#E4011C"/>
<path d="M1107.22 96.5545L1120.38 96.0671L1120.87 114.394L1109.07 114.784L1107.22 96.5545Z" fill="#FFF0E9"/>
<path d="M1092.01 96.7494L1107.22 96.5544L1109.07 114.784L1091.72 115.466L1092.01 96.7494Z" fill="#E4011C"/>
<path d="M1076.32 97.2367L1092.01 97.0417L1091.72 115.466L1077.98 115.953L1076.32 97.2367Z" fill="#FFF0E9"/>
<path d="M1059.46 97.8215L1076.32 97.2366L1077.98 115.953L1058.38 116.635L1059.46 97.8215Z" fill="#E4011C"/>
<path d="M1048.44 97.8218H1059.46L1058.38 116.636L1050.1 116.928L1048.44 97.8218Z" fill="#FFF0E9"/>
<path d="M1034.7 98.2117L1048.44 97.8218L1050.1 116.928L1036.26 117.513L1034.7 98.2117Z" fill="#E4011C"/>
<path d="M1021.73 98.5041L1034.7 98.2117L1036.26 117.513L1020.17 118.098L1021.73 98.5041Z" fill="#FFF0E9"/>
<path d="M1014.42 98.5042H1021.73L1020.17 118.098L1005.26 118.585L1014.42 98.5042Z" fill="#E4011C"/>
<path d="M1165.22 122.679C1162.42 122.679 1157.23 118.526 1157.23 113.028L1170.49 112.639C1170.49 118.136 1168.02 122.679 1165.22 122.679Z" fill="#EFCFC2"/>
<path d="M1151.38 120.145C1148.21 120.145 1145.73 117.09 1145.73 113.321L1157.23 113.029C1157.23 116.797 1154.56 120.145 1151.38 120.145Z" fill="#B8101D"/>
<path d="M1127.67 121.12C1123.85 121.12 1120.87 118.214 1120.87 114.394L1134.71 113.809C1134.71 117.629 1131.5 121.12 1127.67 121.12Z" fill="#B8101D"/>
<path d="M1114.82 121.12C1111.54 121.12 1109.07 118.044 1109.07 114.784L1120.87 114.394C1120.87 117.654 1118.11 121.12 1114.82 121.12Z" fill="#EFCFC2"/>
<path d="M1100.08 121.705C1095.25 121.705 1091.72 118.773 1091.72 115.466L1109.07 114.784C1109.07 118.091 1104.91 121.705 1100.08 121.705Z" fill="#B7111D"/>
<path d="M1084.55 122.679C1080.75 122.679 1077.98 119.493 1077.98 115.953L1091.72 115.466C1091.72 119.006 1088.35 122.679 1084.55 122.679Z" fill="#EFCFC1"/>
<path d="M1067.7 123.264C1062.26 123.264 1058.38 120.176 1058.38 116.636L1077.98 115.953C1077.98 119.493 1073.15 123.264 1067.7 123.264Z" fill="#B9101D"/>
<path d="M1053.99 121.705C1051.72 121.705 1050.1 119.194 1050.1 116.928L1058.38 116.636C1058.38 118.901 1056.27 121.705 1053.99 121.705Z" fill="#FACBC4"/>
<path d="M1042.46 122.095C1038.61 122.095 1036.26 119.779 1036.26 117.513L1050.1 116.928C1050.1 119.194 1046.32 122.095 1042.46 122.095Z" fill="#B8101D"/>
<path d="M1027.33 122.874C1022.83 122.874 1020.17 120.406 1020.17 118.098L1036.26 117.513C1036.26 119.821 1031.84 122.874 1027.33 122.874Z" fill="#EFCFC2"/>
<path d="M1011.85 125.604C1007.7 125.604 1005.26 121.775 1005.26 118.585L1020.17 118.098C1020.17 121.288 1016 125.604 1011.85 125.604Z" fill="#B8101D"/>
<path d="M1140.17 120.73C1137.16 120.73 1134.71 117.9 1134.71 113.809L1145.73 113.321C1145.73 117.413 1143.19 120.73 1140.17 120.73Z" fill="#EFCFC2"/>
<path d="M1013.17 99.9013L1182.98 96.002L1191.66 48.7232C1193.53 28.4234 1185.14 29.4391 1156.86 48.7232C1152.57 33.3071 1149.69 25.0461 1138.92 14.897C1120.09 3.01324 1107.19 1.58801 1082.09 3.68656C1060.41 8.28367 1051.58 17.1354 1039.29 39.4624C1008.37 26.1545 1002.12 24.4921 1006.05 45.7988L1013.17 99.9013Z" fill="#F4EFD3" stroke="#E4011C" stroke-width="4.91932"/>
<path d="M1185.86 78.7214L1010.98 83.4006" stroke="#E4011C" stroke-width="4.91932"/>
<path d="M1165.84 87.2198C1165.87 89.0802 1167.36 90.5475 1169.15 90.5174C1170.94 90.4873 1172.38 88.9705 1172.35 87.1101C1172.32 85.2497 1170.82 83.7823 1169.04 83.8125C1167.25 83.8426 1165.81 85.3594 1165.84 87.2198Z" fill="#FC8800" stroke="black" stroke-width="0.70276"/>
<path d="M1153.95 87.4202C1153.98 89.2806 1155.47 90.748 1157.26 90.7178C1159.05 90.6877 1160.49 89.1709 1160.46 87.3105C1160.43 85.4501 1158.93 83.9828 1157.14 84.0129C1155.36 84.0431 1153.92 85.5598 1153.95 87.4202Z" fill="#FC8800" stroke="black" stroke-width="0.70276"/>
<path d="M1142.06 88.0103C1142.09 89.8707 1143.58 91.3381 1145.37 91.3079C1147.16 91.2778 1148.6 89.761 1148.57 87.9006C1148.54 86.0402 1147.05 84.5729 1145.26 84.603C1143.47 84.6331 1142.03 86.1499 1142.06 88.0103Z" fill="#FC8800" stroke="black" stroke-width="0.70276"/>
<path d="M1129.98 88.409C1130.01 90.2694 1131.5 91.7367 1133.29 91.7066C1135.08 91.6765 1136.52 90.1597 1136.49 88.2993C1136.46 86.4389 1134.97 84.9715 1133.18 85.0017C1131.39 85.0318 1129.95 86.5486 1129.98 88.409Z" fill="#FC8800" stroke="black" stroke-width="0.70276"/>
<path d="M1118.09 88.8042C1118.12 90.6647 1119.61 92.132 1121.4 92.1019C1123.19 92.0717 1124.63 90.555 1124.6 88.6946C1124.57 86.8342 1123.08 85.3668 1121.29 85.397C1119.5 85.4271 1118.06 86.9438 1118.09 88.8042Z" fill="#FC8800" stroke="black" stroke-width="0.70276"/>
<path d="M1106.01 89.0079C1106.04 90.8683 1107.53 92.3356 1109.32 92.3055C1111.11 92.2753 1112.55 90.7586 1112.52 88.8982C1112.48 87.0378 1110.99 85.5704 1109.2 85.6006C1107.41 85.6307 1105.97 87.1475 1106.01 89.0079Z" fill="#FC8800" stroke="black" stroke-width="0.70276"/>
<path d="M1094.12 89.598C1094.15 91.4584 1095.64 92.9257 1097.43 92.8956C1099.22 92.8654 1100.66 91.3487 1100.63 89.4883C1100.6 87.6279 1099.11 86.1605 1097.32 86.1907C1095.53 86.2208 1094.09 87.7375 1094.12 89.598Z" fill="#FC8800" stroke="black" stroke-width="0.70276"/>
<path d="M1082.04 89.9966C1082.07 91.857 1083.56 93.3244 1085.35 93.2943C1087.14 93.2641 1088.58 91.7474 1088.55 89.887C1088.52 88.0266 1087.03 86.5592 1085.24 86.5893C1083.45 86.6195 1082.01 88.1362 1082.04 89.9966Z" fill="#FC8800" stroke="black" stroke-width="0.70276"/>
<path d="M1070.15 90.3917C1070.18 92.2521 1071.67 93.7194 1073.46 93.6893C1075.25 93.6591 1076.69 92.1424 1076.66 90.282C1076.63 88.4216 1075.14 86.9542 1073.35 86.9844C1071.56 87.0145 1070.12 88.5312 1070.15 90.3917Z" fill="#FC8800" stroke="black" stroke-width="0.70276"/>
<path d="M1058.07 90.9854C1058.1 92.8458 1059.59 94.3132 1061.38 94.283C1063.17 94.2529 1064.61 92.7361 1064.58 90.8757C1064.55 89.0153 1063.06 87.548 1061.27 87.5781C1059.48 87.6082 1058.04 89.125 1058.07 90.9854Z" fill="#FC8800" stroke="black" stroke-width="0.70276"/>
<path d="M1046.18 91.1858C1046.21 93.0462 1047.7 94.5136 1049.49 94.4835C1051.28 94.4533 1052.72 92.9366 1052.69 91.0762C1052.66 89.2158 1051.17 87.7484 1049.38 87.7785C1047.59 87.8087 1046.15 89.3254 1046.18 91.1858Z" fill="#FC8800" stroke="black" stroke-width="0.70276"/>
<path d="M1034.1 91.7791C1034.13 93.6395 1035.62 95.1069 1037.41 95.0767C1039.2 95.0466 1040.64 93.5298 1040.61 91.6694C1040.58 89.809 1039.09 88.3417 1037.3 88.3718C1035.51 88.4019 1034.07 89.9187 1034.1 91.7791Z" fill="#FC8800" stroke="black" stroke-width="0.70276"/>
<path d="M1022.21 91.9795C1022.24 93.8399 1023.73 95.3073 1025.52 95.2772C1027.31 95.247 1028.75 93.7303 1028.72 91.8699C1028.69 90.0095 1027.2 88.5421 1025.41 88.5722C1023.62 88.6024 1022.18 90.1191 1022.21 91.9795Z" fill="#FC8800" stroke="black" stroke-width="0.70276"/>
<path d="M1160.91 48.4046L1188.3 56.0082L1189.28 50.2568L1170.56 42.1658L1160.91 48.4046Z" fill="#FC8800"/>
<path d="M1011.27 73.7901L1038.28 81.0037L1105.44 79.1516L1009.23 54.6836L1011.27 73.7901Z" fill="#FC8800"/>
<path d="M1040.32 41.9708L1157.69 77.4542L1184.5 76.6743L1065.47 11.5564C1054.29 18.4344 1049 25.8865 1040.32 41.9708Z" fill="#FC8800"/>
<path d="M1027.06 50.66C1027.92 50.6155 1028.9 50.5159 1029.97 50.361C1031.08 50.2068 1032.13 50.0163 1033.14 49.7894C1034.15 49.5625 1034.96 49.3297 1035.58 49.0911C1034.98 50.2874 1034.59 52.645 1034.39 56.164C1034.22 59.6604 1034.2 62.9514 1034.34 66.037C1034.49 69.0992 1034.68 70.9256 1034.92 71.5163L1026.48 71.267C1027.45 69.3814 1027.93 64.4819 1027.93 56.5684C1027.95 53.581 1027.66 51.6115 1027.06 50.66ZM1042.85 37.5761C1045.44 37.6293 1047.52 38.7412 1049.09 40.9119C1050.68 43.0833 1051.27 45.3649 1050.85 47.7569C1050.45 50.1262 1049.1 51.5686 1046.8 52.0841C1045.23 52.3644 1043.83 52.358 1042.6 52.0649C1041.39 51.7725 1040.1 51.2791 1038.72 50.5846C1037.34 49.8669 1036.1 49.1416 1035 48.4088C1033.93 47.6767 1032.72 47.0224 1031.38 46.446C1030.07 45.8469 1028.86 45.5309 1027.74 45.4978C1026.27 45.431 1025.02 45.6976 1024 46.2977C1022.98 46.8978 1022.34 47.6608 1022.08 48.5869C1021.82 49.4896 1021.79 50.3992 1022 51.3157C1022.2 52.2088 1022.8 52.9851 1023.78 53.6445C1024.77 54.2806 1026.01 54.609 1027.5 54.6298C1026.72 55.634 1025.68 56.3266 1024.36 56.7078C1023.06 57.0897 1021.81 57.1578 1020.61 56.912C1019.4 56.6662 1018.34 56.0981 1017.43 55.2075C1016.53 54.2937 1016.06 53.1593 1016.03 51.8045C1015.99 50.7762 1016.11 49.8227 1016.39 48.944C1016.7 48.066 1017.13 47.3201 1017.69 46.7062C1018.24 46.0924 1018.89 45.5629 1019.62 45.1178C1020.36 44.6494 1021.17 44.288 1022.04 44.0337C1022.93 43.7567 1023.83 43.5613 1024.72 43.4476C1025.61 43.3105 1026.52 43.2441 1027.45 43.2484C1029.09 43.2733 1031.02 43.5055 1033.24 43.9449C1035.5 44.3849 1037.67 44.776 1039.76 45.1179C1041.85 45.4598 1043.7 45.5613 1045.32 45.4223C1046.25 45.3566 1047.02 45.0991 1047.62 44.6499C1048.21 44.2007 1048.46 43.6362 1048.37 42.9564C1048.27 42.3698 1047.91 41.8807 1047.29 41.4889C1046.69 41.0978 1046 40.8789 1045.21 40.8321C1044.42 40.762 1043.63 40.8089 1042.86 40.9727C1042.08 41.1132 1041.45 41.4564 1040.97 42.0024C1040.49 42.5483 1040.29 43.2195 1040.39 44.016C1039.22 43.9348 1038.42 43.351 1037.99 42.2643C1037.55 41.1543 1037.72 40.1206 1038.5 39.1631C1039.39 38.0691 1040.85 37.5401 1042.85 37.5761ZM1060.21 47.3332C1060.06 48.356 1059.89 50.0901 1059.7 52.5356C1059.51 54.9811 1059.35 57.6142 1059.22 60.4349C1059.09 63.2556 1059.06 65.8809 1059.13 68.3106C1059.2 70.717 1059.4 72.2286 1059.73 72.8454C1058.6 72.5317 1057.27 72.3408 1055.76 72.2726C1054.27 72.1818 1052.85 72.315 1051.51 72.6722C1051.94 71.5878 1052.21 70.3935 1052.31 69.0895C1052.42 67.8321 1052.63 63.4265 1052.95 55.8725C1053.08 53.0285 1052.99 50.7263 1052.66 48.966C1051.16 50.0188 1049.99 51.3731 1049.15 53.0289C1048.33 54.6854 1047.97 56.5423 1048.07 58.5995C1048.17 60.0497 1048.53 61.3559 1049.15 62.518C1049.79 63.6808 1050.67 64.5707 1051.8 65.1876C1049.52 65.797 1047.58 65.8681 1045.98 65.4007C1044.38 64.91 1043.15 64.0797 1042.27 62.91C1041.42 61.7176 1041 60.3161 1041 58.7054C1041.02 54.6911 1042.73 51.707 1046.13 49.7532C1049.55 47.8001 1054.24 46.9934 1060.21 47.3332ZM1076.69 73.1716C1075.05 73.2633 1073.44 73.1457 1071.86 72.8189C1070.29 72.4922 1068.81 71.9349 1067.43 71.1472C1066.05 70.3361 1064.86 69.3554 1063.84 68.2048C1062.83 67.0309 1062.05 65.6074 1061.52 63.9342C1061.01 62.2384 1060.82 60.3886 1060.95 58.3849C1061.07 56.5678 1061.59 54.8207 1062.5 53.1436C1063.44 51.4672 1064.6 50.0543 1065.99 48.9048C1067.38 47.7553 1068.94 46.8563 1070.69 46.2076C1072.44 45.5356 1074.19 45.2255 1075.93 45.2772C1077.85 45.3338 1079.56 45.7929 1081.08 46.6548C1082.61 47.5173 1083.76 48.7066 1084.51 50.2227C1085.28 51.7396 1085.52 53.4041 1085.23 55.2164C1085.12 56.0067 1084.84 56.7921 1084.39 57.5726C1083.98 58.3306 1083.43 59.0031 1082.76 59.5902C1082.11 60.178 1081.41 60.6474 1080.65 60.9985C1079.75 61.4154 1078.81 61.6561 1077.83 61.7204C1076.85 61.7614 1075.88 61.5928 1074.94 61.2147C1074.02 60.8373 1073.24 60.2657 1072.61 59.5001C1072.11 58.8785 1071.75 58.0975 1071.52 57.157C1071.29 56.1931 1071.31 55.1782 1071.58 54.1123C1071.87 53.0237 1072.44 52.1419 1073.3 51.4671C1073.51 52.2669 1073.84 52.9537 1074.29 53.5272C1074.74 54.1008 1075.24 54.5124 1075.79 54.7622C1076.35 55.012 1076.94 55.1812 1077.56 55.2698C1078.22 55.3357 1078.84 55.2724 1079.43 55.0797C1080.34 54.8267 1081.02 54.4032 1081.46 53.8092C1081.92 53.1926 1082.15 52.5108 1082.15 51.7638C1082.17 50.4337 1081.58 49.3075 1080.39 48.3854C1079.21 47.4399 1077.69 47.0566 1075.84 47.2353C1074.25 47.3983 1072.83 48.1033 1071.58 49.3502C1070.35 50.5978 1069.43 52.1113 1068.82 53.8906C1068.2 55.6466 1067.88 57.5045 1067.85 59.4644C1067.83 61.6115 1068.13 63.5696 1068.76 65.3389C1069.38 67.0848 1070.38 68.5149 1071.75 69.6291C1073.12 70.7434 1074.77 71.3291 1076.7 71.3863C1077.78 71.4181 1078.76 71.2021 1079.66 70.7386C1080.56 70.275 1081.29 69.6663 1081.85 68.9125C1082.44 68.136 1082.88 67.2855 1083.19 66.3609C1083.5 65.4129 1083.67 64.4491 1083.69 63.4695C1084.45 63.1884 1085.07 63.5102 1085.56 64.435C1086.18 65.5971 1086.21 66.9053 1085.65 68.3595C1084.79 70.5517 1082.84 72.0229 1079.78 72.7728C1078.84 72.9785 1077.81 73.1114 1076.69 73.1716ZM1115 68.492C1115.93 70.0836 1116.74 71.3213 1117.41 72.2049C1118.09 73.0886 1118.73 73.7146 1119.35 74.0831L1109.42 73.7893C1109.63 73.5856 1109.75 73.3205 1109.76 72.9939C1109.79 72.6448 1109.72 72.2459 1109.55 71.7972C1109.4 71.3259 1109.2 70.8649 1108.96 70.4142C1108.74 69.9408 1108.45 69.3954 1108.09 68.778C1107.65 68.0412 1106.53 66.1405 1104.73 63.076C1104.52 69.3725 1104.7 73.0662 1105.27 74.157C1104.14 73.82 1102.82 73.6174 1101.3 73.5493C1099.81 73.4818 1098.39 73.615 1097.05 73.9489C1097.48 72.8877 1097.75 71.6935 1097.86 70.3662C1097.97 69.1088 1098.18 64.7264 1098.49 57.2191C1098.62 54.3518 1098.53 52.0496 1098.21 50.3127C1096.7 51.3654 1095.53 52.7197 1094.69 54.3755C1093.87 56.032 1093.51 57.8889 1093.61 59.9462C1093.71 61.373 1094.07 62.6675 1094.69 63.8297C1095.33 64.9925 1096.22 65.8823 1097.34 66.4992C1095.06 67.0854 1093.12 67.1447 1091.52 66.6773C1089.93 66.2099 1088.69 65.3914 1087.82 64.2216C1086.96 63.0293 1086.54 61.6278 1086.54 60.0171C1086.56 56.0261 1088.27 53.0537 1091.67 51.0998C1095.09 49.1467 1099.78 48.34 1105.75 48.6799C1105.36 51.3531 1105.04 55.5337 1104.78 61.2218C1106.96 60.189 1108.75 59.1216 1110.16 58.0195C1111.57 56.9173 1112.54 55.9303 1113.05 55.0585C1113.57 54.1634 1113.85 53.3197 1113.9 52.5274C1113.97 51.7358 1113.86 51.0906 1113.57 50.5919C1113.3 50.0705 1112.95 49.675 1112.52 49.4053C1113.15 48.7469 1113.93 48.3382 1114.87 48.1792C1115.81 47.9968 1116.67 48.069 1117.45 48.3956C1118.23 48.7223 1118.76 49.193 1119.02 49.8076C1119.78 51.6277 1119.33 53.4818 1117.66 55.37C1116.02 57.2589 1113.51 58.9004 1110.13 60.2945L1115 68.492ZM1120.83 51.4719C1121.05 50.3346 1121.65 49.3603 1122.63 48.5489C1123.62 47.7376 1124.73 47.1752 1125.98 46.8619C1127.25 46.526 1128.53 46.3773 1129.84 46.416C1131.17 46.432 1132.32 46.6527 1133.29 47.0781C1134.21 47.4556 1134.93 48.0254 1135.44 48.7876C1135.98 49.5272 1136.25 50.3054 1136.25 51.1224C1136.25 51.9394 1136.1 52.717 1135.79 53.455C1135.49 54.1931 1134.97 54.7963 1134.24 55.2647C1133.52 55.7105 1132.71 55.8966 1131.8 55.8231C1131.01 55.7763 1130.3 55.4751 1129.66 54.9193C1129.05 54.3409 1128.68 53.6415 1128.57 52.8211C1128.47 52.0013 1128.8 51.1124 1129.55 50.1542C1129.72 50.7894 1130.07 51.3249 1130.59 51.7605C1131.14 52.1736 1131.69 52.3767 1132.26 52.3699C1133.1 52.3481 1133.69 52.0738 1134.03 51.5471C1134.37 51.0203 1134.39 50.4255 1134.08 49.7628C1133.8 49.1008 1133.27 48.5948 1132.48 48.2449C1131.84 47.9457 1131.16 47.8207 1130.46 47.87C1129.78 47.92 1129.15 48.0879 1128.56 48.3739C1127.97 48.6365 1127.46 49.0768 1127.05 49.6948C1126.63 50.2895 1126.38 50.9823 1126.29 51.7732C1126.15 53.2165 1126.6 54.5254 1127.64 55.7C1128.7 56.8519 1130.34 57.5423 1132.55 57.771L1132.53 58.3658C1129.36 59.0423 1127.19 60.6239 1126.02 63.1104C1125.1 65.1373 1125.04 67.1897 1125.84 69.2677C1126.55 71.1563 1127.77 72.3826 1129.48 72.9468C1130.05 73.1273 1130.67 73.2155 1131.32 73.2115C1132.44 73.198 1133.42 72.8184 1134.26 72.0729C1135.13 71.3281 1135.71 70.4467 1136.02 69.4288C1136.36 68.4115 1136.35 67.3259 1136.01 66.1721C1135.67 65.0182 1134.98 64.0639 1133.93 63.3092C1134.92 62.755 1135.88 62.4914 1136.79 62.5183C1137.7 62.5219 1138.44 62.7539 1139.01 63.2143C1139.6 63.652 1140.06 64.2492 1140.39 65.0059C1140.74 65.74 1140.91 66.5501 1140.88 67.4364C1140.85 68.3227 1140.64 69.1801 1140.24 70.0087C1139.84 70.8373 1139.26 71.6138 1138.49 72.338C1137.75 73.0397 1136.73 73.6164 1135.43 74.0683C1134.13 74.5201 1132.66 74.7682 1131 74.8125C1126.54 74.8907 1123.13 73.7511 1120.77 71.3937C1118.98 69.6367 1118.19 67.6294 1118.43 65.3719C1118.66 63.021 1119.9 61.1437 1122.16 59.7399C1123.54 58.8936 1125.17 58.3348 1127.04 58.0634C1125.64 58.092 1124.42 57.7756 1123.36 57.1141C1122.31 56.4527 1121.56 55.6136 1121.12 54.5969C1120.71 53.5809 1120.61 52.5393 1120.83 51.4719ZM1148.79 54.2594C1149.65 54.2149 1150.62 54.1153 1151.7 53.9604C1152.8 53.8063 1153.86 53.6157 1154.87 53.3888C1155.88 53.1619 1156.69 52.9292 1157.31 52.6905C1156.71 53.8868 1156.32 56.2444 1156.12 59.7635C1155.94 63.2599 1155.93 66.5508 1156.07 69.6364C1156.21 72.6986 1156.41 74.5251 1156.64 75.1157L1148.21 74.8664C1149.18 72.9808 1149.66 68.0813 1149.66 60.1679C1149.68 57.1804 1149.39 55.2109 1148.79 54.2594ZM1164.58 41.1755C1167.17 41.2287 1169.25 42.3407 1170.82 44.5113C1172.41 46.6827 1173 48.9644 1172.58 51.3563C1172.18 53.7256 1170.83 55.168 1168.53 55.6835C1166.96 55.9638 1165.56 55.9574 1164.33 55.6643C1163.12 55.3719 1161.83 54.8785 1160.45 54.1841C1159.07 53.4663 1157.83 52.741 1156.73 52.0082C1155.66 51.2761 1154.45 50.6219 1153.11 50.0454C1151.8 49.4464 1150.58 49.1303 1149.47 49.0972C1148 49.0304 1146.75 49.2971 1145.73 49.8971C1144.71 50.4972 1144.07 51.2602 1143.81 52.1863C1143.55 53.089 1143.52 53.9986 1143.73 54.9151C1143.93 55.8083 1144.53 56.5845 1145.51 57.2439C1146.5 57.88 1147.74 58.2084 1149.23 58.2292C1148.45 59.2334 1147.41 59.926 1146.09 60.3072C1144.79 60.6891 1143.54 60.7572 1142.33 60.5114C1141.13 60.2656 1140.07 59.6975 1139.16 58.8069C1138.26 57.8931 1137.79 56.7587 1137.76 55.4039C1137.72 54.3756 1137.84 53.4222 1138.12 52.5435C1138.43 51.6655 1138.86 50.9195 1139.42 50.3057C1139.97 49.6918 1140.62 49.1623 1141.35 48.7172C1142.09 48.2488 1142.89 47.8875 1143.77 47.6331C1144.66 47.3561 1145.55 47.1607 1146.44 47.047C1147.34 46.9099 1148.25 46.8436 1149.18 46.8478C1150.81 46.8728 1152.75 47.1049 1154.97 47.5443C1157.22 47.9844 1159.4 48.3754 1161.49 48.7173C1163.58 49.0593 1165.43 49.1607 1167.05 49.0217C1167.98 48.956 1168.75 48.6986 1169.34 48.2493C1169.94 47.8001 1170.19 47.2356 1170.09 46.5558C1170 45.9693 1169.64 45.4801 1169.02 45.0883C1168.42 44.6972 1167.73 44.4783 1166.94 44.4315C1166.14 44.3614 1165.36 44.4083 1164.59 44.5721C1163.81 44.7126 1163.18 45.0558 1162.7 45.6018C1162.22 46.1478 1162.02 46.819 1162.11 47.6154C1160.95 47.5343 1160.15 46.9504 1159.72 45.8637C1159.28 44.7537 1159.45 43.72 1160.23 42.7625C1161.12 41.6685 1162.57 41.1395 1164.58 41.1755Z" fill="#E4011C"/>
<g style="mix-blend-mode:darken" opacity="0.5">
<path d="M70.5008 213.378C65.1668 207.604 70.7399 193.496 74.1931 187.163C81.9866 187.809 97.858 189.788 98.9958 192.544C100.418 195.987 104.271 201.67 102.982 202.231C101.951 202.68 98.0224 199.994 96.1871 198.595C95.7546 203.767 100.469 211.604 95.4554 212.943C89.9647 213.431 87.8989 204.094 87.5524 199.364C87.5118 203.087 86.8372 211.389 84.4641 214.813C81.7998 218.978 79.2661 207.391 78.3323 201.077C76.0058 207.532 74.486 213.023 70.5008 213.378Z" fill="#242A2B"/>
<path d="M222.176 159.936C219.228 151.049 213.671 133.066 215.025 132.231C216.717 131.188 224.102 131.424 228.467 142.862L228.973 130.99C232.053 133.627 235.992 139.307 238.023 143.408C237.724 139.474 237.792 131.924 239.113 132.096C241.145 132.362 250.343 152.966 244.976 160.361L222.176 159.936Z" fill="#242A2B"/>
<path d="M161.358 151.065L158.726 149.068L158.214 143.312L168.186 137.515L178.813 136.569L181.82 142.773L183.499 149.095L176.459 157.755C174.11 158.347 169.554 159.468 170.117 159.212C166.831 160.397 166.915 164.183 167.367 165.928C160.214 170.805 156.843 165.526 156.587 162.648C159.681 161.301 161.057 154.365 161.358 151.065Z" fill="#242A2B"/>
<ellipse cx="173.038" cy="146.902" rx="1.33366" ry="1.55594" transform="rotate(-5.08541 173.038 146.902)" fill="#242A2B"/>
<ellipse cx="179.095" cy="147.256" rx="1.11138" ry="1.55594" transform="rotate(-5.08541 179.095 147.256)" fill="#242A2B"/>
<path fill-rule="evenodd" clip-rule="evenodd" d="M74.552 187.492C82.8741 188.936 91.1425 190.771 99.418 192.459C100.349 192.65 100.35 192.695 101.118 192.134C103.206 190.609 105.342 189.146 107.508 187.734C114.042 183.477 120.832 179.93 128.22 177.402C133.454 175.609 138.805 174.081 144.196 172.829C143.793 174.587 142.874 176.465 141.65 177.786C140.7 178.811 139.339 179.446 138.109 180.06C134.449 181.884 130.572 183.277 126.993 185.263C123.342 187.288 121.252 191.008 120.893 195.14C120.825 195.912 120.844 196.027 121.502 196.355C122.24 196.723 123.113 196.9 123.908 197.094C130.29 198.654 136.939 199.372 143.459 200.082C146.921 200.46 150.389 200.788 153.865 200.992C156.023 201.118 158.31 201.343 160.461 201.024C169.68 199.658 174.191 188.138 176.24 180.435C185.016 184.226 194.881 186.271 204.384 186.834C215.906 187.519 230.239 186.337 238.483 177.156C242.409 172.783 244.557 167.144 246.004 161.528C239.655 161.548 233.299 161.161 226.967 160.761C225.86 160.691 224.754 160.619 223.648 160.543C223.204 160.512 222.509 160.326 222.066 160.431C221.394 160.591 220.581 161.407 220.006 161.788C215.606 164.709 211.032 167.437 206.229 169.644C203.655 170.825 200.971 171.909 198.178 172.44C195.182 173.009 192.031 172.667 189.047 172.188C181.559 170.988 173.62 168.536 167.11 164.565C165.813 166.816 163.258 168.49 160.61 167.695C157.711 166.824 155.892 164.026 154.177 161.745C153.552 160.914 152.521 160.999 151.481 160.83C148.577 160.359 145.65 160.024 142.718 159.791C133.089 159.025 123.287 159.348 113.812 161.31C104.567 163.224 95.6373 167.057 87.8038 172.32C84.3959 174.61 81.1101 177.204 78.3832 180.29C76.6619 182.239 74.6709 184.767 74.552 187.492Z" fill="#242A2B"/>
<path d="M87.0292 171.855L110.158 185.079L104.855 188.935L84.0168 177.209L87.0292 171.855Z" fill="#242A2B"/>
<path d="M239.088 176.952L216.996 164.413L221.315 160.873L241.612 172.711L239.088 176.952Z" fill="#242A2B"/>
<path d="M124.227 187.174L169.32 194.883L168.836 197.486L123.743 189.777L124.227 187.174Z" fill="#242A2B"/>
<path d="M140.96 177.109L175.267 183.971L174.783 186.574L140.476 179.712L140.96 177.109Z" fill="#242A2B"/>
<rect x="100.772" y="164.068" width="26.9454" height="3.57094" transform="rotate(29.3666 100.772 164.068)" fill="#242A2B"/>
<path d="M228.831 184.559L206.236 171.395L209.277 170.455L231.595 182.823L228.831 184.559Z" fill="#242A2B"/>
<path d="M120.753 159.197L142.806 171.607L140.848 173.868L117.206 161.467L120.753 159.197Z" fill="#242A2B"/>
<path d="M204.757 187.371L180.357 171.467L182.954 170.566L209.106 186.092L204.757 187.371Z" fill="#242A2B"/>
<path fill-rule="evenodd" clip-rule="evenodd" d="M97.3202 123.7C100.339 124.421 103.112 125.628 105.846 127.078C107.178 127.784 108.523 128.63 109.966 129.086C111.246 129.49 112.616 129.604 113.923 129.913C119.775 131.3 125.977 131.132 131.596 128.798C137.324 126.418 141.971 121.99 147.953 120.198C153.787 118.451 159.855 118.182 165.759 119.881C168.625 120.706 171.123 122.299 173.645 123.843C176.061 125.322 178.587 126.768 180.541 128.856C182.46 130.906 183.7 133.559 184.697 136.158C185.27 137.657 185.615 139.227 185.725 140.829C185.802 141.95 185.308 143.084 185.752 144.135C186.375 145.608 187.185 146.66 187.152 148.365C187.124 149.739 186.611 150.966 185.73 152.006C184.825 153.074 183.699 153.852 182.415 154.395C181.444 154.805 181.121 154.752 180.463 153.932C178.968 155.55 177.971 157.514 176.02 158.668C175.051 159.242 174.035 159.567 172.928 159.737C172.088 159.865 171.315 159.959 170.648 160.536C169.947 161.142 167.425 163.791 168.555 164.644C169.215 165.141 170.649 165.124 171.455 165.372C172.581 165.719 173.675 166.17 174.719 166.719C178.535 168.729 182.255 169.863 186.521 170.536C190.949 171.232 195.369 171.43 199.841 171.048C203.902 170.702 208.128 170.015 211.746 168.035C213.484 167.086 215.134 165.884 216.497 164.442C217.855 163.004 218.599 161.105 220.007 159.754C220.918 158.879 219.902 157.747 219.503 156.693C218.691 154.549 217.996 152.088 217.606 149.83C217.228 147.638 216.728 145.462 216.141 143.311C215.52 141.031 214.461 138.951 213.647 136.743C213.048 135.114 212.419 133.196 212.791 131.446C212.976 130.577 213.471 129.633 214.253 129.157C214.954 128.731 215.434 129.035 216.087 128.938C218 128.654 219.555 129.306 221.12 130.46C221.966 131.084 222.928 131.61 223.74 132.27C224.371 132.783 224.59 133.682 225.255 134.128C226.041 131.441 226.812 128.047 230.393 129.225C233.226 130.157 233.969 134.539 235.498 136.722C236.188 136.043 236.164 134.828 236.377 133.948C236.597 133.038 237.019 132.06 237.675 131.371C239.108 129.867 241.051 130.247 242.267 131.787C242.917 132.611 242.665 133.645 243.31 134.458C243.949 135.265 243.863 136.281 244.182 137.258C244.585 138.497 245.049 139.711 245.398 140.969C245.558 141.55 245.775 142.203 245.803 142.812C245.813 143.064 245.648 143.515 245.733 143.758C245.843 144.075 246.255 144.333 246.424 144.642C246.654 145.057 246.612 145.377 246.673 145.82C246.782 146.619 247.056 147.258 247.356 148.029C248.114 149.972 248.191 152.51 247.502 154.476C247.143 155.495 246.894 156.235 246.855 157.294C246.83 157.978 246.375 158.64 246.47 159.365C246.603 160.373 249.449 161.693 247.372 162.554C246.504 162.915 246.299 162.784 246.147 163.826C245.994 164.86 245.809 165.87 245.497 166.869C244.838 168.991 243.756 170.934 242.746 172.903C241.655 175.032 240.493 177.101 238.749 178.773C237.131 180.323 235.235 181.636 233.336 182.817C229.335 185.304 224.779 186.901 220.065 187.205C215.038 187.529 209.992 188.456 204.945 188.046C199.779 187.627 194.685 186.624 189.53 186.108C187.214 185.875 185.05 185.588 182.882 184.699C180.684 183.796 178.488 182.868 176.441 181.651C175.398 184.944 174.98 188.318 173.34 191.408C171.91 194.105 170.124 196.68 167.839 198.726C165.607 200.725 162.603 202.339 159.602 202.722C158.686 202.839 157.239 202.561 156.641 203.312C156.342 203.687 156.369 204.379 156.279 204.835C156.123 205.612 155.866 206.379 155.755 207.164C155.588 208.353 156.684 208.275 157.686 208.663C159.029 209.183 160.346 209.764 161.653 210.368C162.988 210.985 164.275 211.716 165.611 212.323C166.758 212.842 167.929 213.218 169.043 213.823C171.677 215.253 174.499 216.112 177.284 217.183C180.267 218.329 183.185 219.643 186.127 220.889C191.953 223.356 197.806 225.934 203.369 228.959C205.966 230.371 208.473 231.858 211.125 233.175C213.598 234.405 216.424 235.85 218.126 238.076C219.454 239.813 221.205 240.535 223.219 241.367C224.405 241.857 225.118 241.906 225.953 240.858C226.773 239.828 227.562 238.806 228.436 237.816C232.017 233.754 235.001 229.393 237.882 224.827C240.022 221.439 243.004 217.332 247.514 217.632C248.865 217.721 249.806 218.264 250.87 219.05C251.592 219.582 252.835 219.862 253.349 220.59C253.646 221.011 253.805 221.568 254.106 222.011C254.421 222.472 254.801 222.916 255.03 223.431C255.417 224.304 254.881 225.792 255.606 226.466C256.137 226.959 255.801 228.263 255.722 228.882C255.579 230.025 255.473 231.181 255.185 232.298C254.956 233.177 254.763 234.372 254.182 235.094C253.666 235.739 252.991 235.74 253.231 236.755C252.596 236.604 252.197 238.129 252.055 238.517C251.677 239.56 251.239 240.429 250.56 241.325C248.842 243.593 246.788 245.207 244.438 246.76C243.579 247.327 241.772 248.171 241.662 249.314C241.558 250.411 242.252 251.234 241.92 252.426C241.234 254.905 239.434 257.616 237.954 259.699C236.622 261.573 235.283 262.866 232.863 262.669C230.718 262.494 228.534 261.602 226.67 260.564C224.424 259.312 222.085 258.429 219.697 257.49C218.523 257.027 217.351 256.608 216.304 255.887C215.331 255.217 214.469 254.441 213.368 253.977C212.585 253.645 211.583 253.451 211.193 252.594C210.765 251.659 211.333 251.003 211.8 250.264C212.115 249.769 212.305 249.678 211.965 249.334C211.693 249.058 211 248.866 210.646 248.714C209.791 248.348 208.94 248.039 208.111 248.597C207.186 249.221 206.619 250.39 205.961 251.263C205.173 252.307 204.271 253.274 203.39 254.241C201.645 256.16 199.701 257.912 198.003 259.867C197.615 260.314 196.871 261.425 196.154 261.291C195.623 261.192 195.868 260.861 195.58 260.649C195.27 260.419 195.026 260.438 194.634 260.195C193.659 259.593 193.264 258.304 192.241 257.681C191.191 257.04 189.928 256.625 188.807 256.12C183.694 253.815 178.686 251.286 173.934 248.3C171.551 246.802 169.279 245.148 166.959 243.558C165.866 242.81 164.752 241.983 163.559 241.403C162.472 240.872 161.287 240.54 160.182 240.037C157.815 238.961 155.317 238.197 152.97 237.077C151.866 236.55 151.015 235.787 149.978 235.183C149.07 234.654 148.327 234.359 147.614 233.535C147.37 234.227 146.465 233.434 146.148 233.256C145.897 233.116 145.586 233.03 145.35 232.867C145.115 232.7 144.945 232.302 144.767 232.188C144.372 231.937 143.948 232.039 143.437 231.905C142.752 231.726 141.821 231.171 141.268 230.732C140.886 230.428 141.484 230.64 140.852 230.283C140.557 230.116 140.077 230.107 139.747 229.933C138.965 229.518 138.23 228.961 137.477 228.494C136.11 227.649 134.377 226.922 133.518 225.491C129.9 229.043 126.44 232.858 122.171 235.656C118.048 238.358 113.135 239.855 108.655 241.866C104.044 243.933 99.388 246.015 94.6768 247.839C92.3858 248.725 90.0049 249.428 87.6427 250.1C85.2191 250.79 82.7756 250.865 80.3259 251.351C79.1215 251.591 77.9002 251.656 76.6958 251.881C75.5863 252.09 74.5256 252.471 73.4276 252.718C72.4594 252.936 71.345 252.924 70.4261 253.274C69.7518 253.531 68.9 254.305 68.314 253.449C67.9929 254.037 67.8515 253.786 67.3651 253.793C66.8465 253.8 66.6932 253.837 66.1973 253.979C65.3908 254.208 64.492 254.348 63.7377 253.767C63.5218 254.95 60.3416 254.174 59.9059 253.444C59.5992 254.704 55.756 253.982 55.5995 252.839C55.4666 251.872 55.9875 250.418 56.1732 249.482C56.4748 247.954 56.8828 246.449 57.3172 244.955C57.776 243.374 58.2512 241.797 58.7279 240.221C58.9378 239.528 59.131 238.827 59.3809 238.146C59.5026 237.814 59.8517 237.301 59.8135 236.933C59.6975 235.855 57.7563 235.95 56.9145 235.753C56.2777 235.604 55.6305 235.445 55.0173 235.216C54.5729 235.048 54.0186 234.623 53.5415 234.6C52.4461 234.547 52.8006 235.749 52.7495 236.512C52.6856 237.493 52.1962 238.039 51.1718 238.136C49.975 238.251 46.3771 236.496 45.8728 238.122C45.6356 238.885 45.8435 240.289 45.8036 241.088C45.737 242.4 45.9233 243.682 46.2162 244.958C46.6962 247.059 47.8968 249.663 46.9962 251.799C45.1985 256.063 37.491 254.276 34.8718 251.925C31.0163 248.464 30.6152 242.799 31.896 238.079C32.5174 235.783 33.4937 233.296 34.8861 231.349C35.505 230.485 36.7491 229.594 36.878 228.47C36.9863 227.538 36.1997 226.758 36.2661 225.806C36.345 224.677 37.2262 223.918 37.9734 223.172C38.7512 222.393 39.5008 221.554 40.4096 220.925C42.5134 219.469 45.0942 220.005 47.3791 220.734C49.8773 221.53 52.3055 222.682 54.5889 223.965C55.7201 224.602 56.6814 225.179 57.9754 225.419C58.9687 225.604 59.9709 225.784 60.9654 225.952C61.9054 226.109 62.6953 226.22 63.2686 225.369C63.8998 224.432 64.1034 224.058 65.3281 223.911C66.631 223.755 67.9452 223.712 69.2561 223.646C69.5332 223.632 70.1508 223.49 70.389 223.701C70.601 223.888 70.3589 224.34 70.551 224.454C70.8547 224.633 72.2695 222.202 72.5737 224.041C72.5814 223.135 73.5641 223.486 74.1003 223.558C74.2953 223.583 74.491 223.616 74.6833 223.642C74.8829 223.555 75.0589 223.593 75.2098 223.755C75.4289 223.781 75.5689 223.685 75.6259 223.469C77.9078 223.232 80.2267 223.17 82.5158 222.955C85.1632 222.704 87.8255 222.442 90.416 221.825C91.3752 221.596 92.3309 221.313 93.2935 221.107C93.7347 221.013 94.1133 221.027 94.5514 221.018C94.7133 221.033 94.8626 221.086 95.0017 221.176C95.0565 221.04 95.1472 220.931 95.2726 220.852C96.8954 220.216 98.5799 219.732 100.236 219.155C101.395 218.752 102.369 218.433 103.542 218.244L103.764 218.209L104.25 218.308C104.304 218.132 104.405 217.99 104.553 217.882C104.924 217.69 105.245 217.6 105.657 217.52C107.293 217.205 108.914 217.078 110.452 216.699C111.263 216.498 114.223 215.765 114.849 216.531C115.186 215.5 118.364 216.58 119.206 215.913C117.649 214.142 116.863 212.167 116.266 209.911C115.615 207.453 115.112 204.851 115.524 202.308C115.904 199.965 116.967 197.5 118.563 195.734C120.106 194.024 120.334 192.125 121.285 190.101C123.266 185.884 126.898 183.092 131.058 181.231C133.323 180.218 135.638 179.336 137.929 178.387C139.79 177.615 141.316 176.613 142.12 174.688C133.97 175.413 126.396 178.636 119.206 182.367C115.629 184.223 112.074 186.138 108.553 188.098C106.761 189.095 104.993 190.147 103.348 191.375L102.892 191.714C102.363 192.112 101.837 192.517 101.35 192.963C101.233 193.07 100.588 193.528 100.56 193.664C100.339 194.723 102.201 196.23 102.726 197.075C103.438 198.226 104.157 199.582 104.353 200.935C104.586 202.551 103.623 203.457 101.996 203.264C100.008 203.03 98.3857 201.536 96.7342 200.541C96.4816 201.611 97.0339 202.765 97.3655 203.755C97.8224 205.114 98.277 206.494 98.6385 207.88C99.1489 209.84 99.1124 212.108 97.2245 213.328C92.4159 216.433 89.2203 209.651 87.8837 206.24C87.2365 206.802 87.479 208.624 87.4197 209.402C87.3065 210.896 87.1671 212.502 86.6328 213.912C86.2244 214.992 85.481 216.277 84.2377 216.5C82.8903 216.742 81.691 215.671 80.987 214.647C79.7684 212.878 79.3367 210.823 79.0672 208.743C79.0077 208.285 78.7628 204.014 78.2859 203.933C77.1378 206.504 76.618 209.295 75.2195 211.775C73.9944 213.947 72.0018 215.524 69.8873 213.326C66.6151 209.923 67.0862 204.542 67.9274 200.311C68.415 197.851 69.1672 195.475 70.2642 193.217C70.7187 192.28 71.3058 191.554 71.8999 190.712C72.3879 190.015 72.5721 189.694 72.2694 188.969C72.094 188.547 71.9625 188.542 72.0419 188.051C72.1002 187.699 72.3266 187.251 72.4482 186.918C72.7996 185.964 73.1719 185.021 73.6235 184.111C74.5906 182.166 75.9928 180.496 77.4847 178.93L77.634 178.774L77.6266 178.781C77.5316 178.886 78.2371 178.242 78.221 178.242L78.2172 178.244L78.236 178.23C78.4986 178.024 78.5514 177.414 78.9163 177.921L78.9438 177.959C78.9229 177.167 79.5467 176.659 80.0758 176.168C80.2735 175.984 80.4656 175.737 80.7145 175.616C80.8862 175.531 81.3091 175.562 81.4307 175.454C81.6664 175.246 81.7572 174.868 81.9767 174.628C82.1975 174.388 82.519 174.256 82.7777 174.065C83.4118 173.597 83.9819 173.041 84.5963 172.548C85.9013 171.498 87.2755 170.535 88.6935 169.643C91.6738 167.765 94.873 166.183 98.0898 164.753C100.924 163.492 103.871 162.296 106.81 161.3C109.824 160.277 113.081 160.175 116.2 159.588C122.56 158.39 129.342 157.914 135.811 157.969C138.981 157.996 142.148 158.198 145.301 158.522C148.359 158.836 151.545 159.219 154.355 160.554C154.953 160.838 156.077 161.821 156.74 161.722C157.299 161.639 157.694 160.559 157.922 160.127C158.462 159.102 159.171 158.14 159.613 157.071C160.157 155.754 160.367 154.309 160.743 152.941C158.483 153.46 156.098 153.878 153.824 153.197C151.765 152.58 150.283 151.113 148.668 149.78C146.966 148.376 145.197 147.479 142.946 147.537C140.393 147.602 138.184 148.717 135.924 149.774C131.149 152.007 126.391 154.418 121.433 156.223C119.011 157.106 116.506 157.855 113.945 158.202C112.641 158.378 111.311 158.437 110.036 158.794C109.509 158.942 109.356 159.04 108.91 158.84C108.97 158.868 108.284 157.926 108.2 158.324C108.118 158.707 108.331 158.982 108.029 159.292C107.675 159.656 106.828 159.57 106.38 159.571C105.709 159.574 105.159 159.395 104.504 159.302C103.492 159.157 102.394 159.409 101.374 159.372C100.899 159.355 100.548 159.267 100.114 159.175C99.6602 159.078 99.9458 159.07 99.4853 159.052C99.0771 159.037 98.8535 159.11 98.3508 158.995C97.9014 158.892 97.4891 158.83 97.0324 158.765C96.615 158.707 96.2692 158.565 95.8796 158.487C96.37 158.585 95.2388 158.249 95.2968 158.36L95.3015 158.367L95.2972 158.363C95.1671 158.24 95.0051 157.984 94.7664 157.963L94.7182 157.962C95.5964 159.08 92.0888 158.128 91.857 158.08C89.9289 157.676 87.8911 156.551 85.9195 156.606C83.9947 156.66 82.2535 158.13 80.7982 159.235C79.0409 160.57 77.2924 161.913 75.5428 163.259C71.6766 166.234 67.4461 168.963 62.987 170.959C60.8173 171.929 58.5795 172.752 56.37 173.622C55.3732 174.014 54.2677 174.238 53.3277 174.757C52.6925 175.108 51.8183 176.066 51.0817 175.351C50.8724 176.053 49.5629 176.134 49.0112 176.204C48.9265 176.215 49.0777 176.365 48.8813 176.369C48.5927 176.374 48.4909 176.103 48.2601 176.064C47.7902 175.987 47.7581 176.168 47.3197 176.384C46.7492 176.665 46.8432 176.458 46.3166 176.45C46.0138 176.446 45.7125 176.639 45.4132 176.675C45.2915 176.689 45.1141 176.501 44.9378 176.519C44.7694 176.538 44.3905 176.775 44.1691 176.829C43.615 176.963 42.9489 176.966 42.3797 176.991C41.5666 177.027 33.3851 177.026 33.8169 175.277C32.9199 176.265 30.5239 174.993 29.464 174.616C29.0701 174.476 29.0298 174.309 28.7986 174.131C28.8373 173.89 28.7271 173.794 28.4678 173.842C28.4114 173.841 28.3551 173.84 28.2988 173.838C27.8311 173.65 27.6722 173.669 27.2808 173.301C26.758 172.809 25.8415 172.404 25.5327 171.731C25.4496 171.55 25.4913 171.221 25.4119 171.081C25.3088 170.9 25.0837 170.942 25.0184 170.794C24.9951 170.742 25.0515 170.384 25.0444 170.379C24.6035 170.072 24.0392 170.286 23.5258 169.916C22.1099 168.891 21.1122 166.672 20.5891 165.08C19.2216 160.916 18.5025 156.669 20.0656 152.476C20.8249 150.437 21.8025 148.476 22.9085 146.604C23.2143 146.086 23.5222 145.411 23.9318 144.96C24.1145 144.758 24.374 144.697 24.4611 144.578C24.9291 143.942 25.1325 143.161 25.7785 142.525C26.4984 141.818 27.206 141.093 28.0166 140.489C28.7621 139.933 29.714 139.533 30.3959 139.015C30.5826 138.873 30.4975 138.683 30.6994 138.516C30.9138 138.339 31.2074 138.3 31.4582 138.201C31.7568 138.084 32.1218 137.884 32.438 137.828C33.0268 137.723 33.2424 137.876 33.7274 138.258C33.5829 136.634 36.5526 136.142 37.7618 136.031C38.3193 135.98 41.101 135.481 41.1227 136.34C41.6861 135.439 43.6843 135.894 44.5512 136.072C45.5926 136.286 46.2999 136.971 47.0198 137.707C47.1182 137.445 47.2166 137.182 47.315 136.92C47.5111 137.033 48.1541 137.192 47.9839 137.55C48.6568 136.84 48.2924 137.408 48.928 137.467C49.2073 137.493 49.4345 137.37 49.7209 137.31C49.7788 137.69 49.6239 137.828 49.4113 138.115C49.9791 138.076 52.1363 137.656 50.5879 138.511C50.8373 138.878 51.8475 138.651 52.2119 138.671C52.4042 138.682 52.8804 138.649 53.0056 138.778C53.0895 138.863 52.9806 139.128 52.9985 139.15C53.171 139.344 52.8619 139.479 53.182 139.512C53.2603 139.52 53.484 139.251 53.5398 139.247C53.9493 139.218 53.6553 139.162 54.0936 139.186C54.2496 139.194 54.5586 139.342 54.7573 139.365C57.7718 139.708 61.1881 137.106 63.1818 135.15C65.5645 132.812 67.601 130.36 70.5686 128.716C73.4393 127.126 76.6761 125.786 79.7858 124.746C85.5359 122.823 91.3674 122.279 97.3202 123.7ZM184.107 251.974C184.207 252.017 184.306 252.059 184.406 252.101C184.535 252.02 184.664 251.939 184.794 251.859C184.39 251.709 184.356 251.63 184.107 251.974ZM214.908 240.769C214.235 241.281 213.715 242.351 213.145 243.012C212.345 243.939 211.502 244.829 210.661 245.719C211.746 245.991 213.406 247.334 214.486 246.563C215.02 246.181 215.291 245.173 215.602 244.624C216.083 243.773 216.662 242.964 217.247 242.182C217.85 241.377 215.612 240.231 214.908 240.769ZM146.782 231.36C147.075 231.453 147.754 232.079 147.489 232.343C147.168 232.033 146.756 231.825 146.782 231.36ZM55.1899 228.643C54.7145 229.135 54.2156 230.116 53.9093 230.734C53.5631 231.43 53.5781 231.764 54.2346 232.149C55.5039 232.893 57.26 232.989 58.6787 233.263C59.4358 233.409 60.3967 233.862 60.9646 233.131C61.5267 232.41 61.4174 231.167 61.6239 230.315C61.79 229.624 61.9738 228.939 62.1495 228.252C60.8574 228.498 59.5465 228.624 58.238 228.446C57.2885 228.317 55.9497 227.859 55.1899 228.643ZM74.5449 190.976C73.6194 192.5 72.8156 194.099 72.127 195.744C70.987 198.467 70.168 201.324 69.747 204.246C69.4495 206.317 69.0036 209.231 70.2695 211.08C73.0272 215.108 76.7682 202.441 77.3911 201.096C77.7628 200.294 78.371 199.416 79.2123 200.329C79.9025 201.077 79.8154 202.384 79.9289 203.328C80.2643 206.135 80.1713 209.541 81.5327 212.088C81.9792 212.925 83.0693 214.092 84.1375 213.6C85.0963 213.157 85.4385 211.408 85.667 210.502C86.3877 207.639 86.7719 204.182 86.542 201.238C86.4949 200.648 85.6177 196.791 87.0606 197.532C88.0044 198.018 88.2125 200.762 88.3786 201.651C89.0304 205.126 90.2516 211.015 94.6508 211.218C95.6196 211.263 96.6827 210.939 97.1664 210.029C97.7683 208.898 96.9394 207.523 96.5964 206.42C96.0031 204.52 95.3487 202.565 95.1286 200.573C94.9946 199.352 94.9345 197.309 96.6932 197.629C98.8135 198.013 99.9294 200.642 102.262 200.527C102.215 199.981 101.874 199.564 101.579 199.132C100.621 197.733 99.0016 196.607 98.3469 195.025C98.1335 194.506 98.2346 193.687 97.8643 193.271C97.515 192.879 96.8004 192.834 96.3206 192.781C93.1244 192.427 89.9625 191.842 86.7735 191.389C83.3637 190.905 80.1925 190.336 76.9422 189.239C75.4771 188.745 75.2488 189.818 74.5449 190.976ZM151.389 206.261C151.869 206.439 152.346 206.625 152.832 206.791C153.253 206.935 153.399 206.778 153.528 206.385C153.229 206.35 151.529 205.911 151.389 206.261ZM127.386 160.549C121.429 161.256 115.597 161.852 109.811 163.509C107.043 164.303 104.339 165.177 101.648 166.192C100.51 166.622 99.5121 167.052 98.5529 167.792C98.196 168.067 97.2623 168.913 97.0313 168.061C96.571 168.588 95.7222 170.146 94.8449 169.401C94.7567 170.004 94.3156 170.025 93.9047 170.264C93.7609 170.348 93.7 170.595 93.5126 170.7C93.4668 170.726 93.4194 170.39 93.3486 170.391C93.0905 170.393 92.9368 170.951 92.8016 171.101C92.4765 171.462 92.158 171.643 91.6987 171.805C91.5003 171.891 91.2958 171.953 91.0824 171.992C90.8394 172.118 90.6827 172.057 90.6098 171.809C90.2625 171.846 90.0188 171.995 89.6684 172.192C90.4718 172.302 89.1658 172.619 88.9923 172.654C89.022 173.244 89.4921 172.827 89.8269 172.92C89.7425 173.671 88.4252 174.356 87.8945 174.768C87.7807 174.572 87.6668 174.376 87.5518 174.18C87.4098 174.345 87.3044 174.528 87.2355 174.732C87.1996 174.975 87.0383 175.072 86.7529 175.022C86.5098 175.253 86.4627 175.161 86.3281 175.467C86.189 175.783 86.7312 176.328 85.997 176.137C86.0863 177.141 85.1002 176.616 85.2404 176.341C84.5294 176.336 84.3442 177.653 84.4673 178.15C84.1016 177.845 83.8983 177.906 83.583 178.197L83.5545 178.223L83.572 178.209C83.8165 178.009 83.6125 178.754 83.6357 178.744L83.638 178.74C83.0064 179.748 82.98 178.685 83.1509 178.109C82.6837 178.347 82.6389 178.881 82.2763 179.213C81.9533 179.508 81.8441 179.393 81.5503 179.46C81.0964 179.562 81.2008 179.171 81.0453 179.695C80.9781 179.917 81.1424 180.289 81.1632 180.523C81.3381 180.233 81.2242 179.81 81.5701 179.622C81.5328 180.421 80.2405 183.267 79.4531 181.727C78.8639 182.218 79.5981 182.635 79.2385 183.256C78.9056 182.988 78.7907 182.523 78.7894 182.118C78.6197 182.391 78.6537 182.713 78.5267 182.986C78.3942 183.27 78.2314 183.306 78.1819 183.607C78.1061 184.063 78.4795 183.809 78.3146 184.301C78.2307 184.547 77.7634 184.799 77.5828 184.95C76.9539 185.477 76.3224 186.079 77.0435 186.799C78.1728 187.926 80.8737 187.826 82.335 187.902C85.4526 188.063 88.5175 188.521 91.6109 188.923C93.4737 189.164 95.3034 189.455 97.1423 189.834C98.4633 190.108 100.262 190.19 101.059 191.461C104.341 187.712 108.964 185.498 113.206 183.048C117.802 180.394 122.569 177.885 127.515 175.945C131.9 174.223 136.474 173.311 141.085 172.442C142.301 172.213 144.163 171.737 145.323 172.394C146.038 172.799 146.133 173.5 145.672 174.168C145.422 174.53 145.113 174.47 144.995 175.085C144.903 175.561 145.008 175.907 145.169 176.355C144.838 176.14 144.295 176.334 144.099 175.919L144.079 175.873L144.069 175.926C143.931 176.781 145.421 176.765 145.057 177.809L145.033 177.873C144.903 178.193 144.815 177.21 144.676 177.215C144.298 177.229 144.07 178.134 143.937 178.39C144.636 178.328 144.414 178.859 144.062 179.149C143.812 179.356 143.365 179.449 143.068 179.628C142.475 179.986 141.97 180.478 141.36 180.822C140.692 181.2 140.082 181.275 139.407 181.523C139.302 181.562 138.892 181.758 138.849 181.766C138.791 181.776 138.794 181.957 138.745 181.968C138.309 182.07 137.938 181.689 137.525 181.894C137.367 181.974 137.488 182.366 137.354 182.469C137.206 182.584 136.75 182.495 136.559 182.501C136.1 182.516 136.025 182.461 135.682 182.706C135.092 183.125 134.818 183.645 133.987 183.808C133.338 183.937 132.904 183.85 132.301 184.152C131.691 184.457 131.099 184.566 130.497 184.787C130.421 184.815 130.424 185.084 130.363 185.108C130.164 185.187 129.917 185.162 129.727 185.239C129.292 185.417 128.94 185.571 128.547 185.855C126.819 187.102 124.956 188.909 123.664 190.6C123.075 191.371 121.413 193.331 122.098 194.311C122.539 194.941 123.883 195.145 124.565 195.367C125.581 195.698 126.619 195.912 127.644 196.21C128.916 196.583 130.099 197.231 131.391 197.537C132.638 197.834 133.942 197.799 135.212 197.904C140.709 198.355 146.146 199.385 151.645 199.834C154.662 200.08 157.748 200.42 160.723 199.671C163.344 199.009 165.785 197.606 167.763 195.774C171.362 192.44 173.678 187.953 174.616 183.162C174.809 182.172 174.654 179.753 175.503 179.082C176.212 178.524 176.703 179.572 177.228 179.958C178.083 180.581 179.268 180.747 180.257 181.06C182.706 181.832 184.942 182.677 187.496 183.12C190.087 183.568 192.697 183.867 195.305 184.194C200.588 184.859 205.631 185.482 210.96 185.025C216.235 184.573 221.545 184.301 226.672 182.865C231.157 181.61 235.539 178.881 238.668 175.425C240.248 173.682 241.397 171.553 242.581 169.535C243.217 168.45 243.798 167.335 244.265 166.168C244.609 165.31 245.22 164.058 245.211 163.122C245.202 162.284 244.726 162.445 243.889 162.434C242.6 162.418 241.31 162.45 240.02 162.432C237.42 162.397 234.821 162.289 232.219 162.243C229.566 162.198 226.921 162.051 224.304 161.582C223.522 161.441 222.935 161.229 222.462 162.019C222.156 162.528 222.26 163.618 221.463 162.882C220.225 164.766 218.28 166.003 216.473 167.277C214.518 168.657 212.631 170.151 210.532 171.311C206.008 173.811 200.805 174.109 195.75 173.885C190.613 173.66 185.39 173.244 180.448 171.736C178.18 171.045 176.18 169.863 174.103 168.752C173.125 168.228 172.122 167.815 171.096 167.397C169.94 166.927 169.188 166.143 168.129 165.574C167.65 167.83 165.123 168.816 163.085 169.097C160.537 169.446 158.362 168.409 156.634 166.563C155.2 165.031 154.73 162.59 152.657 161.866C150.291 161.041 147.589 160.869 145.113 160.607C139.297 159.993 133.196 159.859 127.386 160.549ZM159.208 174.733C159.878 174.963 161.938 176.948 160.457 177.11C159.516 177.214 158.857 176.082 157.832 176.354C157.372 176.475 156.689 176.699 156.606 177.069C156.4 177.992 157.771 178.452 158.364 178.651C159.277 178.956 160.035 179.278 160.593 180.115C161.45 181.398 161.838 183.563 160.167 184.321C158.926 184.883 157.294 184.677 155.997 184.438C154.904 184.235 153.992 183.204 154.386 182.065C154.497 181.742 154.821 181.162 155.272 181.329C155.632 181.461 155.492 181.785 155.621 182.052C156.144 183.123 159.452 184.419 160.032 182.68C160.739 180.559 157.303 180.245 156.211 179.655C154.798 178.892 154.628 177.386 155.544 176.141C156.346 175.052 157.861 174.269 159.208 174.733ZM165.41 181.154C165.4 181.64 165.378 182.144 165.337 182.628C165.302 183.049 165.345 183.484 164.881 183.676C164.577 183.803 164.241 183.497 163.959 183.745C163.645 184.021 163.647 182.221 163.652 182.118C163.693 181.443 163.753 180.076 164.356 179.606C165.377 178.81 165.423 180.562 165.41 181.154ZM165.093 178.369C164.008 179.199 163.527 177.161 163.924 176.449C164.911 174.681 166.803 177.061 165.093 178.369ZM141.648 179.433C141.999 179.648 141.878 179.522 141.936 180.173C141.555 180.223 141.567 179.695 141.648 179.433ZM142.897 178.755C142.809 179.023 143.335 179.288 143.498 179.314C143.501 179.231 143.146 177.997 142.897 178.755ZM80.1886 180.534C79.9227 181.004 80.1195 181.261 80.5898 181.042L80.6284 181.024L80.1886 180.534ZM85.9525 175.728L85.6727 175.876C85.5476 176.019 85.4226 176.163 85.2961 176.305C85.6902 176.193 85.973 176.228 85.9525 175.728ZM87.5089 174.962C87.272 174.571 86.6564 175.442 86.6574 175.633C86.8096 175.524 87.7849 175.416 87.5089 174.962ZM88.0269 173.46C87.8806 173.71 87.9306 173.896 88.1795 174.017C88.3515 173.739 88.4748 173.44 88.5481 173.121C88.2697 172.955 88.1 173.228 88.0269 173.46ZM217.228 132.563C216.744 132.835 217.076 133.59 217.163 134.008C217.577 135.998 218.126 137.956 218.536 139.946C219.11 142.744 219.411 145.602 220.19 148.357C220.902 150.869 221.939 153.278 222.598 155.807C223.04 157.499 222.666 159.533 224.761 159.872C226.644 160.176 228.747 160.015 230.654 160.053C233.11 160.102 235.558 160.015 238.013 159.916C239.174 159.869 240.367 159.778 241.529 159.851C242.212 159.894 243.091 160.267 243.555 159.596C244.007 158.944 243.87 157.398 243.958 156.609C244.075 155.567 244.17 154.522 244.179 153.473C244.201 151.097 243.653 148.795 243.134 146.491C242.574 144.007 242.092 141.505 241.522 139.025C241.154 137.426 240.946 134.81 239.716 133.602C238.97 136.726 238.982 139.971 239.215 143.156C239.264 143.84 239.167 147.804 237.808 145.996C237.432 145.493 237.399 145.19 236.845 144.786C236.276 144.369 236.058 144.015 235.817 143.329C235.379 142.086 235.228 140.972 234.425 139.891C232.792 137.691 231.957 134.86 229.666 133.171C229.839 135.357 229.734 137.747 230.331 139.868C230.708 141.201 231.928 143.059 231.184 144.477C230.814 145.184 230.548 145.007 230.012 144.716C229.667 144.529 229.709 144.424 229.282 144.245C228.875 144.074 228.57 144.111 228.177 143.857C226.786 142.957 226.525 141.201 225.969 139.777C224.743 136.635 221.32 134.931 218.655 133.157C218.365 132.964 217.627 132.34 217.228 132.563ZM168.746 143.466C166.909 144.397 164.968 144.862 162.904 144.612C162.946 145.057 163.652 145.723 163.179 146.023C163.067 146.095 162.365 145.862 162.23 145.84C161.483 145.716 160.469 145.477 159.72 145.701C158.927 145.937 159.001 146.458 159.583 147.004C160.398 147.77 162.261 147.639 162.405 149.018C162.467 149.614 162.166 150.395 162.141 151.017C162.106 151.949 162.059 152.874 161.923 153.797C161.689 155.385 161.218 156.918 160.628 158.408C160.12 159.691 159.483 161.038 158.403 161.944C157.7 162.534 157.968 162.272 158.184 163.03C158.328 163.538 158.345 163.924 157.667 163.856C157.536 163.828 157.405 163.8 157.275 163.772C159.067 166.196 163.165 167.46 165.72 165.508C164.497 164.689 165.903 162.947 166.497 162.209C167.386 161.103 168.31 159.84 169.277 158.816C170.759 157.25 172.927 157.755 174.776 156.987C176.648 156.21 177.929 154.718 179.038 153.079C180.025 151.619 181.348 149.823 181.334 147.967C181.331 147.604 181.119 147.197 181.152 146.85C181.185 146.496 181.392 146.432 181.482 146.195C181.664 145.706 181.677 145.219 181.665 144.679C181.625 142.918 181.044 142.692 179.36 142.386C178.378 142.208 177.389 142.087 176.407 141.915C175.469 141.751 174.61 141.35 173.684 141.167C171.733 140.78 170.361 142.648 168.746 143.466ZM174.625 154.033C176.218 154.816 173.887 155.615 172.971 155.288C166.588 152.162 173.735 153.596 174.625 154.033ZM176.794 146.151C178.312 147.669 180.135 150.867 177.189 151.809C176.28 152.099 174.875 152.564 173.919 152.392C172.555 152.145 172.748 150.375 174.07 150.181C174.853 150.065 176.715 150.527 177.101 149.571C177.311 149.053 176.664 148.315 176.533 147.828C176.363 147.201 176.42 146.683 176.794 146.151ZM95.3015 158.367L95.303 158.369C95.3076 158.375 95.3162 158.382 95.3277 158.391L95.3334 158.395L95.3233 158.386L95.3015 158.367ZM179.564 146.495C180.517 146.408 180.225 148.475 179.783 148.863C178.99 149.559 178.362 146.605 179.564 146.495ZM173.418 148.581C172.322 148.814 172.336 146.145 173.337 145.974C174.65 145.749 174.682 148.313 173.418 148.581ZM182.594 143.336C182.485 143.618 182.819 146.235 183.141 146.257C183.169 145.608 183.065 144.967 182.999 144.323L182.983 144.16C182.992 144.17 182.899 142.542 182.594 143.336Z" fill="#242A2B"/>
<path d="M167.502 180.199C167.823 183.807 164.782 187.116 160.583 187.49C156.383 187.863 152.806 185.143 152.485 181.535C152.164 177.927 155.205 174.618 159.404 174.244C163.604 173.87 167.181 176.59 167.502 180.199Z" fill="#242A2B" stroke="#242A2B" stroke-width="0.927441"/>
<path fill-rule="evenodd" clip-rule="evenodd" d="M109.56 251.357C108.726 251.389 107.047 251.354 107.021 250.178C106.988 248.678 109.963 248.778 110.916 248.549C115.069 247.552 118.789 245.326 121.972 242.53C123.555 241.14 124.952 239.548 126.606 238.239C126.927 237.984 127.703 237.256 128.178 237.561C128.747 237.928 128.234 238.977 127.971 239.379C126.954 240.934 125.235 242.367 123.926 243.68C122.18 245.433 120.285 247.056 118.188 248.382C115.655 249.983 112.587 251.237 109.56 251.357Z" fill="#242A2B"/>
<path fill-rule="evenodd" clip-rule="evenodd" d="M197.286 216.232C197.815 216.877 198.802 218.237 197.88 218.968C196.704 219.9 194.987 217.469 194.229 216.847C190.926 214.14 186.905 212.52 182.755 211.671C180.691 211.249 178.578 211.097 176.535 210.569C176.138 210.467 175.089 210.289 175.046 209.726C174.994 209.051 176.141 208.826 176.62 208.793C178.473 208.665 180.654 209.169 182.491 209.419C184.943 209.752 187.381 210.281 189.704 211.152C192.51 212.204 195.362 213.892 197.286 216.232Z" fill="#242A2B"/>
<path fill-rule="evenodd" clip-rule="evenodd" d="M123.487 251.168C122.793 251.459 120.966 252.543 120.537 251.407C120.052 250.119 123.244 248.997 124.034 248.44C124.45 248.145 126.244 246.672 126.8 247.118C127.958 248.047 124.012 250.776 123.487 251.168Z" fill="#242A2B"/>
<path fill-rule="evenodd" clip-rule="evenodd" d="M188.723 205.246C189.375 205.623 191.342 206.425 190.695 207.453C189.961 208.617 187.139 206.751 186.218 206.458C185.733 206.304 183.474 205.764 183.494 205.051C183.535 203.567 188.093 205.064 188.723 205.246Z" fill="#242A2B"/>
</g>
<path d="M54.0017 216.071C48.6677 210.297 54.2407 196.189 57.694 189.856C65.4875 190.502 81.3589 192.481 82.4967 195.236C83.9189 198.68 87.7719 204.363 86.4829 204.924C85.4517 205.372 81.5233 202.687 79.6879 201.288C79.2555 206.459 83.9697 214.297 78.9563 215.635C73.4655 216.124 71.3998 206.787 71.0532 202.057C71.0126 205.78 70.3381 214.082 67.965 217.506C65.3007 221.671 62.767 210.084 61.8332 203.77C59.5066 210.225 57.9869 215.716 54.0017 216.071Z" fill="#ECB135"/>
<path d="M205.677 162.629C202.729 153.742 197.172 135.759 198.526 134.924C200.218 133.881 207.603 134.116 211.968 145.555L212.474 133.683C215.554 136.32 219.493 142 221.524 146.101C221.225 142.167 221.293 134.616 222.614 134.789C224.646 135.055 233.844 155.659 228.477 163.054L205.677 162.629Z" fill="#ECB135"/>
<path d="M144.859 153.758L142.227 151.761L141.714 146.004L151.687 140.208L162.314 139.262L165.321 145.466L166.999 151.788L159.96 160.448C157.611 161.04 153.054 162.161 153.618 161.905C150.331 163.09 150.415 166.876 150.868 168.621C143.715 173.498 140.344 168.219 140.088 165.341C143.181 163.994 144.558 157.058 144.859 153.758Z" fill="#ECB135"/>
<ellipse cx="156.539" cy="149.595" rx="1.33366" ry="1.55594" transform="rotate(-5.08541 156.539 149.595)" fill="white"/>
<ellipse cx="162.596" cy="149.949" rx="1.11138" ry="1.55594" transform="rotate(-5.08541 162.596 149.949)" fill="white"/>
<path fill-rule="evenodd" clip-rule="evenodd" d="M58.053 190.184C66.375 191.629 74.6435 193.464 82.919 195.152C83.8499 195.342 83.8512 195.388 84.619 194.827C86.7072 193.302 88.8425 191.839 91.0092 190.427C97.5432 186.17 104.333 182.623 111.721 180.095C116.955 178.301 122.306 176.773 127.697 175.522C127.294 177.28 126.375 179.157 125.151 180.478C124.201 181.504 122.839 182.139 121.609 182.753C117.95 184.577 114.073 185.97 110.494 187.956C106.843 189.98 104.753 193.7 104.394 197.832C104.326 198.605 104.344 198.72 105.003 199.048C105.741 199.416 106.614 199.592 107.409 199.787C113.791 201.346 120.44 202.065 126.96 202.774C130.422 203.153 133.89 203.481 137.366 203.684C139.524 203.811 141.811 204.035 143.962 203.717C153.181 202.35 157.692 190.83 159.741 183.128C168.517 186.919 178.382 188.964 187.885 189.527C199.407 190.212 213.74 189.03 221.984 179.849C225.91 175.475 228.058 169.837 229.505 164.22C223.156 164.241 216.8 163.854 210.468 163.454C209.361 163.384 208.255 163.311 207.149 163.235C206.705 163.205 206.01 163.018 205.567 163.124C204.895 163.283 204.082 164.1 203.507 164.481C199.107 167.402 194.533 170.129 189.73 172.336C187.156 173.518 184.472 174.601 181.679 175.132C178.683 175.701 175.532 175.359 172.548 174.881C165.06 173.681 157.121 171.229 150.611 167.258C149.314 169.509 146.759 171.182 144.111 170.388C141.212 169.517 139.393 166.719 137.678 164.437C137.053 163.606 136.022 163.692 134.982 163.523C132.078 163.051 129.151 162.716 126.219 162.483C116.59 161.718 106.788 162.04 97.3127 164.002C88.0679 165.917 79.1383 169.75 71.3048 175.013C67.8969 177.303 64.611 179.897 61.8842 182.983C60.1628 184.932 58.1718 187.46 58.053 190.184Z" fill="#FFF5F7"/>
<path d="M70.5302 174.548L93.6593 187.771L88.3563 191.627L67.5177 179.901L70.5302 174.548Z" fill="#6CBBD7"/>
<path d="M222.589 179.645L200.497 167.106L204.816 163.565L225.113 175.403L222.589 179.645Z" fill="#6CBBD7"/>
<path d="M107.727 189.867L152.821 197.575L152.337 200.179L107.243 192.47L107.727 189.867Z" fill="#6CBBD7"/>
<path d="M124.461 179.802L158.768 186.663L158.284 189.267L123.977 182.405L124.461 179.802Z" fill="#6CBBD7"/>
<rect x="84.2725" y="166.76" width="26.9454" height="3.57094" transform="rotate(29.3666 84.2725 166.76)" fill="#6CBBD7"/>
<path d="M212.332 187.252L189.737 174.088L192.778 173.148L215.096 185.516L212.332 187.252Z" fill="#6CBBD7"/>
<path d="M104.254 161.89L126.307 174.299L124.349 176.561L100.707 164.159L104.254 161.89Z" fill="#6CBBD7"/>
<path d="M188.258 190.064L163.858 174.159L166.455 173.259L192.607 188.784L188.258 190.064Z" fill="#6CBBD7"/>
<path fill-rule="evenodd" clip-rule="evenodd" d="M80.8211 126.394C83.8399 127.114 86.6129 128.321 89.3473 129.771C90.6787 130.477 92.0239 131.323 93.4668 131.779C94.7473 132.183 96.117 132.297 97.4238 132.606C103.276 133.993 109.478 133.825 115.097 131.491C120.825 129.111 125.472 124.683 131.454 122.891C137.288 121.144 143.356 120.875 149.259 122.574C152.126 123.399 154.624 124.992 157.146 126.536C159.562 128.015 162.088 129.461 164.042 131.549C165.961 133.599 167.201 136.252 168.198 138.851C168.771 140.35 169.116 141.92 169.226 143.522C169.303 144.643 168.809 145.777 169.253 146.828C169.876 148.301 170.686 149.353 170.653 151.058C170.625 152.432 170.112 153.659 169.231 154.7C168.326 155.767 167.2 156.546 165.916 157.088C164.945 157.498 164.622 157.445 163.964 156.625C162.468 158.243 161.472 160.207 159.521 161.362C158.552 161.935 157.536 162.26 156.429 162.43C155.589 162.559 154.816 162.652 154.149 163.229C153.448 163.835 150.926 166.484 152.056 167.337C152.716 167.834 154.15 167.817 154.956 168.065C156.082 168.412 157.176 168.863 158.22 169.412C162.036 171.422 165.756 172.557 170.022 173.229C174.45 173.925 178.87 174.123 183.342 173.742C187.403 173.395 191.629 172.708 195.247 170.728C196.985 169.779 198.635 168.578 199.997 167.136C201.356 165.697 202.1 163.798 203.508 162.447C204.419 161.572 203.403 160.44 203.004 159.386C202.192 157.242 201.497 154.781 201.107 152.523C200.729 150.331 200.229 148.155 199.642 146.004C199.021 143.724 197.962 141.645 197.148 139.436C196.548 137.807 195.92 135.889 196.292 134.139C196.477 133.27 196.972 132.326 197.754 131.85C198.455 131.424 198.935 131.728 199.588 131.631C201.501 131.347 203.056 131.999 204.621 133.153C205.467 133.777 206.429 134.303 207.241 134.963C207.872 135.476 208.091 136.375 208.756 136.821C209.542 134.135 210.313 130.74 213.894 131.918C216.727 132.85 217.47 137.232 218.998 139.415C219.689 138.736 219.665 137.521 219.878 136.642C220.098 135.731 220.52 134.753 221.176 134.064C222.609 132.56 224.552 132.94 225.768 134.481C226.418 135.304 226.166 136.338 226.811 137.151C227.45 137.958 227.364 138.974 227.683 139.951C228.086 141.19 228.55 142.404 228.899 143.662C229.059 144.243 229.276 144.896 229.304 145.505C229.314 145.757 229.149 146.208 229.234 146.451C229.344 146.768 229.756 147.026 229.925 147.335C230.155 147.75 230.113 148.07 230.174 148.514C230.283 149.312 230.557 149.951 230.857 150.722C231.615 152.665 231.692 155.203 231.003 157.169C230.644 158.188 230.395 158.928 230.356 159.987C230.331 160.672 229.876 161.333 229.971 162.058C230.104 163.066 232.95 164.386 230.873 165.247C230.005 165.608 229.8 165.478 229.648 166.519C229.495 167.553 229.31 168.563 228.998 169.562C228.339 171.684 227.256 173.627 226.247 175.596C225.156 177.725 223.994 179.795 222.25 181.466C220.632 183.016 218.736 184.329 216.837 185.51C212.836 187.998 208.28 189.594 203.566 189.898C198.539 190.223 193.493 191.149 188.446 190.739C183.28 190.32 178.186 189.317 173.031 188.801C170.715 188.568 168.551 188.281 166.383 187.392C164.185 186.489 161.989 185.561 159.942 184.344C158.899 187.638 158.481 191.011 156.841 194.101C155.411 196.798 153.625 199.373 151.34 201.419C149.108 203.419 146.104 205.032 143.103 205.416C142.187 205.532 140.74 205.254 140.142 206.006C139.843 206.38 139.87 207.072 139.78 207.528C139.624 208.305 139.367 209.072 139.256 209.857C139.089 211.046 140.185 210.968 141.187 211.356C142.53 211.876 143.847 212.458 145.154 213.061C146.489 213.678 147.776 214.41 149.112 215.016C150.259 215.535 151.43 215.911 152.544 216.516C155.177 217.946 158 218.805 160.785 219.876C163.768 221.022 166.686 222.336 169.628 223.582C175.454 226.049 181.307 228.628 186.87 231.652C189.467 233.064 191.974 234.551 194.626 235.869C197.099 237.098 199.925 238.543 201.627 240.769C202.955 242.506 204.706 243.228 206.72 244.06C207.906 244.55 208.619 244.599 209.454 243.551C210.274 242.521 211.063 241.499 211.937 240.509C215.518 236.447 218.502 232.086 221.383 227.521C223.523 224.132 226.505 220.025 231.015 220.325C232.366 220.414 233.307 220.957 234.371 221.743C235.093 222.275 236.336 222.556 236.85 223.283C237.147 223.704 237.306 224.261 237.607 224.704C237.922 225.166 238.302 225.61 238.531 226.124C238.918 226.997 238.382 228.485 239.107 229.159C239.638 229.652 239.302 230.956 239.223 231.575C239.08 232.718 238.974 233.874 238.685 234.991C238.457 235.87 238.264 237.065 237.683 237.787C237.167 238.432 236.492 238.434 236.732 239.448C236.097 239.297 235.698 240.822 235.556 241.21C235.178 242.253 234.74 243.122 234.061 244.018C232.343 246.286 230.289 247.9 227.938 249.453C227.08 250.02 225.273 250.864 225.163 252.007C225.059 253.104 225.753 253.927 225.421 255.119C224.735 257.598 222.935 260.309 221.455 262.392C220.123 264.266 218.784 265.559 216.364 265.362C214.219 265.187 212.035 264.295 210.171 263.257C207.925 262.005 205.586 261.122 203.198 260.183C202.024 259.72 200.852 259.301 199.805 258.58C198.832 257.91 197.97 257.134 196.869 256.67C196.086 256.338 195.084 256.144 194.693 255.287C194.266 254.352 194.834 253.696 195.301 252.957C195.616 252.462 195.806 252.371 195.466 252.027C195.194 251.751 194.501 251.559 194.147 251.407C193.292 251.041 192.441 250.732 191.612 251.29C190.687 251.914 190.12 253.083 189.462 253.956C188.674 255 187.772 255.967 186.891 256.934C185.146 258.853 183.202 260.605 181.504 262.56C181.116 263.007 180.372 264.118 179.655 263.984C179.124 263.885 179.369 263.554 179.081 263.342C178.771 263.113 178.527 263.132 178.135 262.888C177.16 262.286 176.765 260.997 175.742 260.374C174.692 259.733 173.429 259.318 172.308 258.813C167.195 256.509 162.187 253.979 157.435 250.993C155.052 249.495 152.78 247.841 150.46 246.252C149.367 245.503 148.253 244.676 147.06 244.096C145.973 243.565 144.788 243.233 143.683 242.73C141.316 241.654 138.818 240.89 136.471 239.77C135.367 239.243 134.516 238.48 133.479 237.876C132.571 237.347 131.828 237.052 131.115 236.228C130.871 236.92 129.966 236.127 129.649 235.949C129.398 235.81 129.087 235.723 128.851 235.56C128.616 235.393 128.446 234.995 128.268 234.881C127.873 234.63 127.449 234.732 126.938 234.598C126.253 234.419 125.321 233.864 124.769 233.425C124.387 233.122 124.985 233.333 124.353 232.976C124.058 232.81 123.578 232.8 123.248 232.626C122.466 232.211 121.731 231.654 120.978 231.187C119.611 230.342 117.878 229.615 117.019 228.184C113.401 231.736 109.941 235.551 105.672 238.349C101.549 241.051 96.6363 242.548 92.1558 244.559C87.5452 246.626 82.8889 248.708 78.1778 250.532C75.8868 251.419 73.5059 252.122 71.1436 252.793C68.72 253.483 66.2766 253.558 63.8268 254.044C62.6224 254.284 61.4012 254.35 60.1968 254.575C59.0873 254.783 58.0266 255.164 56.9286 255.411C55.9603 255.629 54.846 255.617 53.9271 255.967C53.2528 256.224 52.401 256.998 51.8149 256.142C51.4939 256.73 51.3525 256.479 50.8661 256.486C50.3475 256.493 50.1942 256.53 49.6983 256.672C48.8918 256.901 47.993 257.042 47.2386 256.46C47.0228 257.643 43.8426 256.868 43.4069 256.137C43.1002 257.397 39.257 256.675 39.1005 255.533C38.9675 254.565 39.4885 253.111 39.6742 252.175C39.9757 250.647 40.3838 249.142 40.8182 247.648C41.277 246.067 41.7522 244.49 42.2288 242.914C42.4388 242.221 42.632 241.52 42.8819 240.839C43.0036 240.507 43.3526 239.994 43.3145 239.626C43.1985 238.548 41.2573 238.643 40.4155 238.446C39.7786 238.297 39.1315 238.138 38.5183 237.909C38.0738 237.741 37.5196 237.317 37.0425 237.293C35.9471 237.24 36.3016 238.442 36.2504 239.205C36.1865 240.186 35.6972 240.732 34.6728 240.83C33.476 240.944 29.8781 239.189 29.3738 240.815C29.1366 241.578 29.3445 242.982 29.3046 243.782C29.238 245.094 29.4243 246.375 29.7171 247.651C30.1972 249.752 31.3978 252.356 30.4972 254.492C28.6995 258.756 20.992 256.969 18.3728 254.618C14.5173 251.157 14.1162 245.492 15.397 240.772C16.0183 238.477 16.9946 235.989 18.3871 234.043C19.0059 233.178 20.2501 232.287 20.3789 231.164C20.4873 230.231 19.7006 229.451 19.7671 228.499C19.846 227.371 20.7272 226.611 21.4744 225.865C22.2521 225.086 23.0018 224.247 23.9106 223.618C26.0144 222.162 28.5952 222.698 30.8801 223.427C33.3783 224.223 35.8065 225.375 38.0899 226.658C39.2211 227.295 40.1823 227.872 41.4764 228.113C42.4696 228.297 43.4718 228.477 44.4664 228.645C45.4063 228.803 46.1963 228.913 46.7695 228.062C47.4008 227.125 47.6043 226.751 48.8291 226.604C50.1319 226.448 51.4462 226.405 52.757 226.339C53.0341 226.325 53.6518 226.183 53.8899 226.394C54.102 226.581 53.8599 227.033 54.052 227.147C54.3557 227.326 55.7705 224.895 56.0747 226.734C56.0823 225.828 57.065 226.179 57.6013 226.251C57.7963 226.276 57.9919 226.31 58.1842 226.335C58.3839 226.248 58.5599 226.286 58.7108 226.448C58.9298 226.474 59.0699 226.378 59.1269 226.162C61.4088 225.925 63.7277 225.863 66.0168 225.648C68.6641 225.397 71.3264 225.135 73.917 224.518C74.8762 224.289 75.8319 224.006 76.7944 223.8C77.2357 223.706 77.6143 223.72 78.0524 223.711C78.2143 223.726 78.3636 223.779 78.5027 223.869C78.5575 223.733 78.6482 223.624 78.7736 223.545C80.3964 222.909 82.0809 222.425 83.737 221.848C84.8961 221.445 85.87 221.126 87.0428 220.937L87.2645 220.903L87.751 221.001C87.8049 220.825 87.9061 220.684 88.0543 220.575C88.4253 220.383 88.7465 220.293 89.1582 220.213C90.7935 219.898 92.4147 219.771 93.9533 219.392C94.7638 219.191 97.7241 218.458 98.3503 219.224C98.6867 218.193 101.865 219.273 102.707 218.606C101.15 216.835 100.364 214.861 99.767 212.604C99.1161 210.146 98.6129 207.544 99.0249 205.001C99.4051 202.658 100.468 200.193 102.064 198.427C103.607 196.717 103.835 194.818 104.786 192.794C106.767 188.577 110.399 185.785 114.559 183.924C116.824 182.911 119.139 182.03 121.43 181.08C123.291 180.309 124.817 179.306 125.621 177.381C117.47 178.106 109.897 181.329 102.707 185.06C99.1296 186.916 95.5747 188.832 92.0544 190.791C90.2617 191.788 88.494 192.84 86.8489 194.068L86.3933 194.407C85.864 194.805 85.3381 195.21 84.8506 195.656C84.7343 195.763 84.0885 196.221 84.0605 196.357C83.8403 197.416 85.702 198.923 86.2268 199.768C86.9395 200.919 87.6582 202.275 87.8536 203.628C88.087 205.244 87.1239 206.15 85.497 205.957C83.5091 205.724 81.8867 204.229 80.2352 203.234C79.9825 204.304 80.5349 205.458 80.8665 206.448C81.3233 207.808 81.778 209.187 82.1395 210.573C82.6498 212.534 82.6134 214.801 80.7254 216.021C75.9168 219.126 72.7213 212.344 71.3847 208.933C70.7375 209.495 70.98 211.317 70.9207 212.095C70.8074 213.589 70.668 215.195 70.1338 216.605C69.7254 217.685 68.982 218.97 67.7387 219.193C66.3912 219.435 65.192 218.364 64.488 217.34C63.2694 215.571 62.8377 213.517 62.5682 211.436C62.5087 210.978 62.2638 206.707 61.7869 206.626C60.6387 209.197 60.119 211.988 58.7205 214.468C57.4954 216.64 55.5028 218.217 53.3883 216.019C50.116 212.616 50.5872 207.235 51.4284 203.004C51.916 200.544 52.6681 198.168 53.7651 195.91C54.2197 194.973 54.8068 194.247 55.4009 193.405C55.8889 192.708 56.0731 192.387 55.7704 191.662C55.595 191.24 55.4635 191.236 55.5428 190.744C55.6012 190.392 55.8276 189.944 55.9491 189.611C56.3005 188.657 56.6729 187.714 57.1245 186.804C58.0915 184.86 59.4938 183.189 60.9857 181.623L61.135 181.467L61.1276 181.474C61.0326 181.579 61.7381 180.935 61.722 180.936L61.7181 180.937L61.737 180.923C61.9996 180.717 62.0524 180.107 62.4173 180.614L62.4448 180.652C62.4238 179.86 63.0477 179.352 63.5767 178.861C63.7745 178.677 63.9666 178.43 64.2154 178.309C64.3872 178.224 64.8101 178.255 64.9317 178.148C65.1674 177.939 65.2582 177.561 65.4777 177.321C65.6985 177.081 66.02 176.949 66.2787 176.758C66.9128 176.29 67.4829 175.735 68.0973 175.241C69.4023 174.191 70.7765 173.228 72.1945 172.336C75.1747 170.458 78.374 168.877 81.5907 167.446C84.4252 166.185 87.3723 164.989 90.3106 163.993C93.3255 162.971 96.5815 162.869 99.7006 162.281C106.061 161.083 112.843 160.607 119.312 160.662C122.481 160.689 125.649 160.891 128.801 161.215C131.86 161.529 135.046 161.912 137.856 163.247C138.454 163.531 139.578 164.514 140.241 164.415C140.8 164.332 141.195 163.252 141.423 162.821C141.963 161.795 142.672 160.834 143.114 159.764C143.658 158.447 143.868 157.003 144.244 155.634C141.984 156.153 139.599 156.572 137.325 155.89C135.266 155.273 133.784 153.806 132.169 152.473C130.467 151.069 128.698 150.173 126.447 150.23C123.894 150.295 121.685 151.41 119.425 152.467C114.65 154.701 109.892 157.111 104.934 158.917C102.512 159.799 100.007 160.548 97.4456 160.895C96.1418 161.071 94.8116 161.13 93.5373 161.487C93.0099 161.635 92.8567 161.733 92.4107 161.533C92.4707 161.561 91.7848 160.619 91.7011 161.017C91.6188 161.4 91.8319 161.675 91.5303 161.985C91.176 162.349 90.3293 162.263 89.8811 162.264C89.2096 162.267 88.6598 162.088 88.0051 161.995C86.9927 161.85 85.8951 162.103 84.8748 162.065C84.3996 162.048 84.0491 161.96 83.6154 161.868C83.1612 161.771 83.4468 161.763 82.9863 161.745C82.5781 161.73 82.3545 161.803 81.8518 161.688C81.4023 161.585 80.99 161.523 80.5333 161.458C80.116 161.4 79.7702 161.258 79.3805 161.18C79.871 161.278 78.7398 160.942 78.7978 161.053L78.8025 161.06L78.7981 161.056C78.6681 160.933 78.5061 160.677 78.2674 160.656L78.2191 160.655C79.0974 161.773 75.5898 160.822 75.358 160.773C73.4298 160.369 71.3921 159.244 69.4205 159.299C67.4957 159.353 65.7545 160.823 64.2992 161.928C62.5419 163.263 60.7934 164.606 59.0438 165.952C55.1776 168.927 50.9471 171.656 46.488 173.652C44.3182 174.622 42.0805 175.445 39.871 176.315C38.8742 176.708 37.7687 176.931 36.8286 177.45C36.1935 177.801 35.3193 178.759 34.5826 178.045C34.3734 178.746 33.0639 178.827 32.5122 178.898C32.4275 178.908 32.5787 179.059 32.3823 179.062C32.0937 179.068 31.9919 178.796 31.761 178.758C31.2912 178.68 31.2591 178.861 30.8207 179.078C30.2502 179.358 30.3441 179.151 29.8176 179.143C29.5148 179.139 29.2134 179.332 28.9142 179.368C28.7924 179.382 28.615 179.194 28.4387 179.213C28.2704 179.231 27.8915 179.468 27.6701 179.522C27.116 179.656 26.4499 179.659 25.8807 179.684C25.0676 179.72 16.8861 179.719 17.3179 177.97C16.4209 178.958 14.0249 177.687 12.9649 177.309C12.5711 177.169 12.5308 177.002 12.2995 176.824C12.3383 176.583 12.228 176.487 11.9687 176.535C11.9124 176.534 11.8561 176.533 11.7998 176.531C11.3321 176.343 11.1732 176.362 10.7818 175.994C10.259 175.503 9.34247 175.098 9.03363 174.424C8.95062 174.243 8.9923 173.915 8.91287 173.774C8.80982 173.593 8.58472 173.635 8.51936 173.487C8.49603 173.435 8.55249 173.077 8.54535 173.072C8.10451 172.765 7.54016 172.979 7.02681 172.609C5.61086 171.585 4.61317 169.365 4.0901 167.773C2.72257 163.609 2.00348 159.363 3.56661 155.169C4.3259 153.131 5.30344 151.169 6.40944 149.297C6.7153 148.779 7.02322 148.104 7.43275 147.653C7.61547 147.451 7.875 147.39 7.9621 147.271C8.4301 146.635 8.63351 145.854 9.2795 145.218C9.99934 144.511 10.707 143.786 11.5176 143.182C12.2631 142.627 13.215 142.226 13.8969 141.709C14.0836 141.566 13.9984 141.376 14.2004 141.209C14.4148 141.032 14.7084 140.993 14.9592 140.894C15.2578 140.777 15.6227 140.577 15.9389 140.521C16.5278 140.417 16.7434 140.569 17.2284 140.951C17.0839 139.327 20.0536 138.835 21.2628 138.725C21.8203 138.673 24.602 138.174 24.6236 139.033C25.1871 138.132 27.1853 138.587 28.0522 138.766C29.0935 138.979 29.8009 139.664 30.5207 140.4C30.6192 140.138 30.7176 139.876 30.816 139.613C31.012 139.726 31.6551 139.885 31.4849 140.243C32.1578 139.533 31.7934 140.101 32.4289 140.16C32.7082 140.186 32.9355 140.063 33.2219 140.003C33.2798 140.383 33.1249 140.521 32.9122 140.809C33.4801 140.769 35.6372 140.349 34.0889 141.204C34.3382 141.571 35.3485 141.344 35.7129 141.364C35.9052 141.375 36.3814 141.342 36.5066 141.471C36.5904 141.556 36.4816 141.822 36.4995 141.843C36.672 142.037 36.3629 142.172 36.6829 142.205C36.7613 142.213 36.9849 141.945 37.0408 141.941C37.4503 141.911 37.1563 141.855 37.5946 141.879C37.7506 141.887 38.0595 142.036 38.2583 142.058C41.2728 142.401 44.6891 139.799 46.6828 137.843C49.0655 135.506 51.102 133.053 54.0696 131.409C56.9403 129.819 60.1771 128.479 63.2867 127.439C69.0369 125.516 74.8684 124.972 80.8211 126.394ZM167.608 254.667C167.708 254.71 167.807 254.752 167.907 254.794C168.036 254.713 168.165 254.632 168.295 254.552C167.89 254.402 167.857 254.323 167.608 254.667ZM198.409 243.462C197.736 243.974 197.216 245.044 196.646 245.705C195.846 246.632 195.003 247.522 194.162 248.412C195.247 248.684 196.907 250.027 197.987 249.256C198.521 248.874 198.792 247.866 199.103 247.317C199.584 246.466 200.163 245.657 200.748 244.875C201.351 244.07 199.113 242.924 198.409 243.462ZM130.283 234.053C130.576 234.146 131.255 234.772 130.99 235.036C130.669 234.726 130.257 234.518 130.283 234.053ZM38.6909 231.336C38.2154 231.828 37.7166 232.81 37.4103 233.427C37.064 234.123 37.0791 234.457 37.7355 234.842C39.0048 235.587 40.761 235.682 42.1797 235.956C42.9368 236.102 43.8977 236.555 44.4656 235.825C45.0276 235.103 44.9184 233.86 45.1249 233.008C45.2909 232.317 45.4748 231.632 45.6505 230.945C44.3583 231.191 43.0475 231.317 41.739 231.139C40.7895 231.011 39.4507 230.552 38.6909 231.336ZM58.0458 193.669C57.1204 195.194 56.3165 196.792 55.628 198.438C54.488 201.16 53.669 204.017 53.2479 206.939C52.9505 209.01 52.5046 211.924 53.7705 213.773C56.5282 217.801 60.2692 205.134 60.8921 203.789C61.2637 202.988 61.872 202.109 62.7133 203.022C63.4035 203.77 63.3164 205.077 63.4298 206.021C63.7653 208.828 63.6723 212.234 65.0337 214.781C65.4802 215.618 66.5703 216.785 67.6384 216.293C68.5973 215.85 68.9395 214.102 69.168 213.195C69.8887 210.332 70.2728 206.875 70.043 203.931C69.9959 203.341 69.1186 199.484 70.5616 200.225C71.5054 200.711 71.7134 203.455 71.8796 204.344C72.5314 207.819 73.7526 213.708 78.1518 213.911C79.1206 213.956 80.1837 213.632 80.6674 212.722C81.2693 211.591 80.4404 210.216 80.0973 209.113C79.5041 207.213 78.8497 205.258 78.6296 203.266C78.4956 202.046 78.4355 200.002 80.1942 200.322C82.3145 200.706 83.4304 203.335 85.7632 203.22C85.716 202.674 85.3751 202.258 85.0797 201.825C84.1215 200.426 82.5026 199.3 81.8479 197.718C81.6345 197.199 81.7356 196.381 81.3653 195.964C81.016 195.572 80.3014 195.527 79.8216 195.474C76.6254 195.12 73.4635 194.535 70.2745 194.082C66.8647 193.598 63.6935 193.03 60.4432 191.933C58.9781 191.438 58.7498 192.511 58.0458 193.669ZM134.89 208.954C135.37 209.132 135.847 209.318 136.333 209.484C136.754 209.628 136.9 209.471 137.029 209.078C136.73 209.043 135.03 208.604 134.89 208.954ZM110.887 163.242C104.93 163.949 99.0978 164.545 93.312 166.203C90.5444 166.996 87.8402 167.87 85.1485 168.886C84.0105 169.315 83.0131 169.745 82.0539 170.485C81.697 170.76 80.7633 171.606 80.5323 170.754C80.072 171.281 79.2231 172.839 78.3458 172.094C78.2577 172.697 77.8166 172.718 77.4057 172.957C77.2619 173.041 77.201 173.289 77.0136 173.393C76.9677 173.419 76.9204 173.083 76.8496 173.084C76.5915 173.086 76.4377 173.644 76.3026 173.794C75.9775 174.156 75.659 174.336 75.1997 174.498C75.0013 174.584 74.7967 174.646 74.5834 174.685C74.3403 174.811 74.1837 174.75 74.1108 174.502C73.7635 174.539 73.5198 174.688 73.1694 174.885C73.9727 174.996 72.6667 175.312 72.4933 175.347C72.523 175.937 72.993 175.52 73.3278 175.613C73.2435 176.364 71.9261 177.049 71.3954 177.461C71.2816 177.265 71.1678 177.069 71.0527 176.873C70.9108 177.038 70.8054 177.222 70.7365 177.425C70.7006 177.668 70.5393 177.765 70.2538 177.715C70.0107 177.946 69.9637 177.854 69.8291 178.16C69.6899 178.476 70.2322 179.021 69.498 178.83C69.5873 179.834 68.6012 179.309 68.7414 179.034C68.0304 179.029 67.8451 180.346 67.9683 180.843C67.6026 180.538 67.3993 180.599 67.084 180.891L67.0555 180.916L67.073 180.902C67.3175 180.703 67.1135 181.447 67.1367 181.437L67.1389 181.433C66.5073 182.441 66.481 181.378 66.6519 180.802C66.1847 181.04 66.1399 181.574 65.7773 181.906C65.4543 182.201 65.3451 182.086 65.0513 182.153C64.5973 182.255 64.7017 181.864 64.5463 182.388C64.4791 182.61 64.6434 182.983 64.6642 183.216C64.8391 182.926 64.7251 182.503 65.0711 182.316C65.0337 183.114 63.7415 185.96 62.9541 184.42C62.3649 184.912 63.0991 185.328 62.7395 185.949C62.4066 185.681 62.2916 185.216 62.2904 184.811C62.1206 185.084 62.1547 185.407 62.0277 185.679C61.8952 185.964 61.7324 185.999 61.6829 186.3C61.607 186.756 61.9805 186.502 61.8156 186.994C61.7317 187.24 61.2644 187.492 61.0838 187.643C60.4549 188.17 59.8234 188.772 60.5445 189.492C61.6738 190.619 64.3746 190.519 65.836 190.595C68.9535 190.756 72.0185 191.214 75.1119 191.616C76.9747 191.857 78.8044 192.148 80.6433 192.527C81.9643 192.801 83.7634 192.883 84.5603 194.154C87.8424 190.405 92.4654 188.192 96.7074 185.741C101.303 183.087 106.07 180.578 111.016 178.638C115.401 176.916 119.974 176.004 124.586 175.135C125.802 174.906 127.664 174.43 128.824 175.087C129.539 175.492 129.634 176.193 129.173 176.861C128.923 177.223 128.614 177.163 128.496 177.778C128.404 178.254 128.509 178.6 128.67 179.048C128.339 178.833 127.796 179.027 127.6 178.612L127.58 178.566L127.57 178.619C127.432 179.474 128.922 179.458 128.558 180.502L128.534 180.566C128.404 180.887 128.315 179.903 128.177 179.909C127.799 179.922 127.571 180.827 127.438 181.084C128.137 181.021 127.915 181.552 127.563 181.842C127.313 182.049 126.866 182.142 126.569 182.321C125.976 182.679 125.471 183.171 124.861 183.516C124.193 183.893 123.583 183.968 122.908 184.217C122.803 184.255 122.393 184.451 122.35 184.459C122.292 184.469 122.295 184.65 122.246 184.661C121.81 184.763 121.439 184.382 121.026 184.587C120.868 184.667 120.989 185.059 120.855 185.162C120.707 185.277 120.251 185.188 120.06 185.194C119.601 185.209 119.526 185.155 119.183 185.399C118.593 185.818 118.319 186.338 117.488 186.501C116.839 186.63 116.405 186.543 115.802 186.845C115.192 187.15 114.6 187.259 113.998 187.48C113.922 187.508 113.925 187.777 113.864 187.801C113.665 187.88 113.418 187.855 113.228 187.932C112.793 188.11 112.441 188.265 112.048 188.549C110.32 189.796 108.457 191.602 107.165 193.293C106.576 194.064 104.914 196.024 105.599 197.004C106.04 197.634 107.384 197.838 108.066 198.06C109.082 198.391 110.12 198.605 111.145 198.903C112.417 199.276 113.6 199.924 114.892 200.23C116.139 200.528 117.443 200.492 118.713 200.597C124.21 201.048 129.647 202.078 135.146 202.527C138.163 202.773 141.249 203.113 144.224 202.364C146.845 201.702 149.286 200.3 151.264 198.467C154.863 195.133 157.179 190.646 158.117 185.855C158.31 184.865 158.155 182.446 159.004 181.775C159.713 181.217 160.204 182.265 160.729 182.651C161.584 183.274 162.769 183.441 163.758 183.753C166.207 184.525 168.443 185.37 170.997 185.813C173.588 186.261 176.198 186.56 178.806 186.887C184.089 187.552 189.132 188.175 194.461 187.718C199.736 187.266 205.046 186.994 210.173 185.558C214.658 184.303 219.04 181.574 222.168 178.118C223.749 176.375 224.898 174.247 226.082 172.228C226.718 171.143 227.299 170.028 227.766 168.861C228.11 168.003 228.721 166.751 228.712 165.815C228.703 164.977 228.227 165.139 227.39 165.127C226.101 165.111 224.811 165.143 223.521 165.125C220.921 165.09 218.322 164.982 215.72 164.936C213.067 164.891 210.422 164.744 207.805 164.275C207.023 164.135 206.436 163.922 205.963 164.712C205.657 165.221 205.761 166.311 204.964 165.575C203.726 167.459 201.781 168.696 199.974 169.97C198.019 171.35 196.132 172.844 194.033 174.004C189.509 176.505 184.306 176.802 179.251 176.578C174.114 176.353 168.891 175.937 163.949 174.429C161.681 173.738 159.681 172.557 157.604 171.445C156.626 170.922 155.623 170.508 154.597 170.091C153.441 169.62 152.689 168.836 151.63 168.267C151.151 170.523 148.624 171.509 146.586 171.79C144.038 172.139 141.863 171.102 140.135 169.256C138.701 167.724 138.231 165.283 136.158 164.559C133.792 163.734 131.09 163.562 128.614 163.301C122.798 162.686 116.697 162.552 110.887 163.242ZM142.709 177.426C143.379 177.657 145.439 179.641 143.958 179.804C143.017 179.907 142.358 178.775 141.333 179.047C140.873 179.168 140.19 179.392 140.107 179.762C139.901 180.685 141.272 181.145 141.865 181.344C142.778 181.649 143.536 181.971 144.094 182.808C144.951 184.091 145.339 186.256 143.668 187.014C142.427 187.577 140.795 187.37 139.498 187.131C138.405 186.928 137.493 185.897 137.887 184.758C137.998 184.435 138.322 183.855 138.773 184.022C139.133 184.154 138.993 184.478 139.122 184.745C139.645 185.816 142.953 187.112 143.533 185.373C144.24 183.252 140.804 182.938 139.712 182.348C138.299 181.585 138.129 180.079 139.045 178.834C139.847 177.745 141.362 176.962 142.709 177.426ZM148.911 183.847C148.901 184.334 148.879 184.837 148.838 185.321C148.803 185.742 148.846 186.177 148.382 186.37C148.078 186.496 147.742 186.19 147.46 186.438C147.146 186.714 147.148 184.914 147.153 184.812C147.194 184.136 147.254 182.769 147.857 182.299C148.878 181.503 148.924 183.256 148.911 183.847ZM148.594 181.062C147.509 181.892 147.028 179.854 147.425 179.142C148.412 177.375 150.304 179.754 148.594 181.062ZM125.149 182.126C125.5 182.341 125.379 182.216 125.437 182.866C125.056 182.916 125.068 182.388 125.149 182.126ZM126.398 181.448C126.31 181.717 126.836 181.982 126.999 182.007C127.002 181.924 126.647 180.69 126.398 181.448ZM63.6896 183.227C63.4237 183.697 63.6205 183.954 64.0908 183.736L64.1294 183.717L63.6896 183.227ZM69.4535 178.421L69.1736 178.569C69.0486 178.713 68.9235 178.856 68.797 178.999C69.1911 178.886 69.4739 178.921 69.4535 178.421ZM71.0099 177.655C70.773 177.264 70.1574 178.135 70.1583 178.326C70.3106 178.218 71.2858 178.109 71.0099 177.655ZM71.5279 176.153C71.3816 176.403 71.4316 176.589 71.6805 176.71C71.8524 176.432 71.9758 176.133 72.0491 175.814C71.7707 175.648 71.601 175.922 71.5279 176.153ZM200.729 135.257C200.245 135.528 200.577 136.283 200.664 136.701C201.078 138.691 201.627 140.649 202.037 142.639C202.611 145.437 202.912 148.295 203.691 151.05C204.403 153.562 205.44 155.972 206.099 158.501C206.541 160.192 206.167 162.226 208.262 162.565C210.145 162.87 212.248 162.708 214.155 162.746C216.611 162.795 219.059 162.708 221.514 162.609C222.675 162.562 223.868 162.471 225.03 162.544C225.713 162.587 226.592 162.96 227.056 162.289C227.508 161.637 227.371 160.092 227.459 159.302C227.576 158.261 227.671 157.215 227.68 156.166C227.702 153.79 227.154 151.488 226.635 149.184C226.075 146.7 225.593 144.198 225.023 141.718C224.655 140.119 224.447 137.503 223.217 136.295C222.471 139.419 222.483 142.664 222.716 145.849C222.765 146.533 222.668 150.497 221.309 148.689C220.933 148.187 220.9 147.883 220.346 147.479C219.777 147.063 219.559 146.708 219.318 146.022C218.88 144.779 218.729 143.665 217.926 142.584C216.293 140.384 215.458 137.554 213.167 135.864C213.34 138.05 213.235 140.44 213.832 142.561C214.209 143.894 215.429 145.752 214.685 147.17C214.315 147.877 214.049 147.7 213.513 147.409C213.168 147.222 213.21 147.118 212.783 146.938C212.376 146.767 212.071 146.804 211.678 146.55C210.287 145.65 210.026 143.894 209.47 142.47C208.244 139.328 204.821 137.624 202.156 135.85C201.866 135.657 201.128 135.033 200.729 135.257ZM152.247 146.159C150.409 147.09 148.469 147.555 146.405 147.305C146.447 147.75 147.153 148.416 146.68 148.716C146.568 148.788 145.866 148.556 145.731 148.533C144.984 148.409 143.97 148.171 143.221 148.394C142.428 148.63 142.502 149.151 143.084 149.697C143.899 150.463 145.762 150.332 145.906 151.711C145.968 152.307 145.667 153.088 145.642 153.711C145.607 154.642 145.56 155.567 145.424 156.491C145.19 158.078 144.719 159.611 144.129 161.101C143.621 162.384 142.984 163.731 141.904 164.637C141.201 165.227 141.469 164.965 141.685 165.723C141.829 166.231 141.846 166.617 141.168 166.549C141.037 166.521 140.906 166.493 140.775 166.465C142.568 168.889 146.666 170.153 149.221 168.201C147.997 167.382 149.404 165.64 149.998 164.902C150.887 163.796 151.811 162.533 152.778 161.509C154.26 159.943 156.428 160.448 158.277 159.68C160.149 158.903 161.43 157.411 162.539 155.772C163.526 154.312 164.849 152.516 164.835 150.66C164.832 150.297 164.62 149.89 164.653 149.543C164.686 149.189 164.893 149.125 164.983 148.888C165.165 148.399 165.178 147.912 165.166 147.372C165.126 145.611 164.545 145.385 162.861 145.079C161.879 144.901 160.89 144.78 159.908 144.608C158.97 144.444 158.111 144.043 157.185 143.86C155.234 143.473 153.862 145.341 152.247 146.159ZM158.126 156.726C159.719 157.509 157.388 158.308 156.472 157.981C150.089 154.855 157.236 156.289 158.126 156.726ZM160.295 148.844C161.813 150.362 163.636 153.56 160.69 154.502C159.781 154.793 158.376 155.257 157.42 155.085C156.056 154.838 156.249 153.068 157.571 152.874C158.354 152.758 160.216 153.221 160.602 152.264C160.812 151.746 160.165 151.009 160.034 150.521C159.864 149.894 159.921 149.376 160.295 148.844ZM78.8025 161.06L78.8039 161.062C78.8085 161.068 78.8172 161.076 78.8287 161.084L78.8344 161.088L78.8242 161.079L78.8025 161.06ZM163.065 149.189C164.018 149.101 163.726 151.168 163.284 151.556C162.491 152.252 161.862 149.298 163.065 149.189ZM156.919 151.274C155.823 151.507 155.837 148.838 156.838 148.667C158.151 148.442 158.183 151.006 156.919 151.274ZM166.095 146.029C165.986 146.311 166.32 148.928 166.642 148.95C166.67 148.301 166.566 147.66 166.5 147.016L166.484 146.854C166.493 146.863 166.4 145.235 166.095 146.029Z" fill="black"/>
<path d="M151.003 182.891C151.324 186.5 148.283 189.809 144.084 190.183C139.884 190.556 136.307 187.836 135.986 184.228C135.665 180.62 138.706 177.31 142.905 176.937C147.105 176.563 150.682 179.283 151.003 182.891Z" fill="#FDF074" stroke="#EABB76" stroke-width="0.927441"/>
<path fill-rule="evenodd" clip-rule="evenodd" d="M93.0608 254.05C92.2273 254.082 90.5476 254.047 90.5218 252.871C90.4892 251.371 93.4639 251.471 94.4171 251.242C98.57 250.245 102.29 248.019 105.473 245.223C107.056 243.833 108.453 242.241 110.107 240.931C110.428 240.677 111.204 239.948 111.679 240.254C112.248 240.62 111.735 241.67 111.472 242.072C110.455 243.626 108.736 245.06 107.427 246.373C105.681 248.126 103.786 249.749 101.689 251.075C99.1562 252.676 96.0881 253.929 93.0608 254.05Z" fill="black"/>
<path fill-rule="evenodd" clip-rule="evenodd" d="M180.787 218.927C181.316 219.571 182.303 220.931 181.381 221.662C180.205 222.594 178.488 220.163 177.73 219.541C174.427 216.834 170.406 215.214 166.256 214.365C164.192 213.943 162.079 213.791 160.036 213.263C159.639 213.161 158.59 212.983 158.547 212.42C158.495 211.745 159.642 211.52 160.121 211.487C161.974 211.359 164.155 211.863 165.991 212.113C168.444 212.446 170.882 212.975 173.205 213.846C176.011 214.898 178.863 216.586 180.787 218.927Z" fill="black"/>
<path fill-rule="evenodd" clip-rule="evenodd" d="M106.988 253.861C106.294 254.152 104.467 255.236 104.038 254.099C103.553 252.812 106.745 251.69 107.535 251.133C107.951 250.838 109.745 249.365 110.301 249.811C111.459 250.74 107.513 253.468 106.988 253.861Z" fill="black"/>
<path fill-rule="evenodd" clip-rule="evenodd" d="M172.224 207.94C172.876 208.317 174.842 209.119 174.196 210.147C173.462 211.311 170.64 209.445 169.719 209.152C169.234 208.998 166.975 208.458 166.995 207.745C167.036 206.261 171.594 207.758 172.224 207.94Z" fill="black"/>
<defs>
<filter id="filter0_d_647_6212" x="1067.56" y="114.003" width="72.4157" height="74.306" filterUnits="userSpaceOnUse" color-interpolation-filters="sRGB">
<feFlood flood-opacity="0" result="BackgroundImageFix"/>
<feColorMatrix in="SourceAlpha" type="matrix" values="0 0 0 0 0 0 0 0 0 0 0 0 0 0 0 0 0 0 127 0" result="hardAlpha"/>
<feOffset dx="4.45081" dy="4.91932"/>
<feGaussianBlur stdDeviation="0.468506"/>
<feComposite in2="hardAlpha" operator="out"/>
<feColorMatrix type="matrix" values="0 0 0 0 0 0 0 0 0 0 0 0 0 0 0 0 0 0 0.25 0"/>
<feBlend mode="normal" in2="BackgroundImageFix" result="effect1_dropShadow_647_6212"/>
<feBlend mode="normal" in="SourceGraphic" in2="effect1_dropShadow_647_6212" result="shape"/>
</filter>
</defs>
</svg>
