<svg width="481" height="94" viewBox="0 0 481 94" fill="none" xmlns="http://www.w3.org/2000/svg">
<path d="M20 24.7913C18.0505 38.5834 14.6052 43.7617 4 48.2913C15.7786 51.1838 18.1077 57.5126 20 71.2913C23.1707 58.1502 25.3624 51.208 38.5 48.2913C26.7482 44.7035 22.9443 39.2547 20 24.7913Z" fill="#F2E7E2" stroke="#F2E7E2" stroke-width="8" stroke-linejoin="round"/>
<path d="M20 24.7913C18.0505 38.5834 14.6052 43.7617 4 48.2913C15.7786 51.1838 18.1077 57.5126 20 71.2913C23.1707 58.1502 25.3624 51.208 38.5 48.2913C26.7482 44.7035 22.9443 39.2547 20 24.7913Z" fill="#BB83F2" stroke="#242A2B" stroke-width="2"/>
<g filter="url(#filter0_d_353_17288)">
<path d="M121.907 3C115.384 11.6908 108.532 20.0127 72.5 21.6458V78.9388C99.9671 80.7429 110.364 86.4732 121.907 93.0826H363.934C367.839 84.3561 380.321 79.7018 408 78.9388V21.6458C373.678 18.556 364.327 11.1401 363.934 3H121.907Z" fill="#F4EFD3"/>
</g>
<path d="M132.181 12.229C126.243 19.081 120.005 25.6421 87.2031 26.9297V72.1006C112.208 73.523 121.673 78.0409 132.181 83.2518H352.513C356.067 76.3716 367.431 72.7022 392.628 72.1006V26.9297C361.383 24.4937 352.87 18.6468 352.513 12.229H132.181Z" fill="#FEB048" stroke="black" stroke-width="1.60504"/>
<path d="M129.008 59L121.456 49.08V59H115.984V36.536H121.456V46.392L128.944 36.536H135.376L126.672 47.544L135.696 59H129.008ZM137.209 50.04C137.209 48.2053 137.55 46.5947 138.233 45.208C138.937 43.8213 139.886 42.7547 141.081 42.008C142.275 41.2613 143.609 40.888 145.081 40.888C146.339 40.888 147.438 41.144 148.377 41.656C149.337 42.168 150.073 42.84 150.585 43.672V41.144H156.057V59H150.585V56.472C150.051 57.304 149.305 57.976 148.345 58.488C147.406 59 146.307 59.256 145.049 59.256C143.598 59.256 142.275 58.8827 141.081 58.136C139.886 57.368 138.937 56.2907 138.233 54.904C137.55 53.496 137.209 51.8747 137.209 50.04ZM150.585 50.072C150.585 48.7067 150.201 47.6293 149.433 46.84C148.686 46.0507 147.769 45.656 146.681 45.656C145.593 45.656 144.665 46.0507 143.897 46.84C143.15 47.608 142.777 48.6747 142.777 50.04C142.777 51.4053 143.15 52.4933 143.897 53.304C144.665 54.0933 145.593 54.488 146.681 54.488C147.769 54.488 148.686 54.0933 149.433 53.304C150.201 52.5147 150.585 51.4373 150.585 50.072ZM165.487 43.672C165.999 42.84 166.735 42.168 167.695 41.656C168.655 41.144 169.754 40.888 170.991 40.888C172.463 40.888 173.797 41.2613 174.991 42.008C176.186 42.7547 177.125 43.8213 177.807 45.208C178.511 46.5947 178.863 48.2053 178.863 50.04C178.863 51.8747 178.511 53.496 177.807 54.904C177.125 56.2907 176.186 57.368 174.991 58.136C173.797 58.8827 172.463 59.256 170.991 59.256C169.733 59.256 168.634 59.0107 167.695 58.52C166.757 58.008 166.021 57.336 165.487 56.504V59H160.015V35.32H165.487V43.672ZM173.295 50.04C173.295 48.6747 172.911 47.608 172.143 46.84C171.397 46.0507 170.469 45.656 169.359 45.656C168.271 45.656 167.343 46.0507 166.575 46.84C165.829 47.6293 165.455 48.7067 165.455 50.072C165.455 51.4373 165.829 52.5147 166.575 53.304C167.343 54.0933 168.271 54.488 169.359 54.488C170.447 54.488 171.375 54.0933 172.143 53.304C172.911 52.4933 173.295 51.4053 173.295 50.04ZM180.646 50.04C180.646 48.2053 180.987 46.5947 181.67 45.208C182.374 43.8213 183.323 42.7547 184.518 42.008C185.713 41.2613 187.046 40.888 188.518 40.888C189.777 40.888 190.875 41.144 191.814 41.656C192.774 42.168 193.51 42.84 194.022 43.672V41.144H199.494V59H194.022V56.472C193.489 57.304 192.742 57.976 191.782 58.488C190.843 59 189.745 59.256 188.486 59.256C187.035 59.256 185.713 58.8827 184.518 58.136C183.323 57.368 182.374 56.2907 181.67 54.904C180.987 53.496 180.646 51.8747 180.646 50.04ZM194.022 50.072C194.022 48.7067 193.638 47.6293 192.87 46.84C192.123 46.0507 191.206 45.656 190.118 45.656C189.03 45.656 188.102 46.0507 187.334 46.84C186.587 47.608 186.214 48.6747 186.214 50.04C186.214 51.4053 186.587 52.4933 187.334 53.304C188.102 54.0933 189.03 54.488 190.118 54.488C191.206 54.488 192.123 54.0933 192.87 53.304C193.638 52.5147 194.022 51.4373 194.022 50.072ZM208.925 44.12C209.565 43.1387 210.365 42.3707 211.325 41.816C212.285 41.24 213.351 40.952 214.525 40.952V46.744H213.021C211.655 46.744 210.631 47.0427 209.949 47.64C209.266 48.216 208.925 49.24 208.925 50.712V59H203.453V41.144H208.925V44.12ZM240.082 36.536V40.92H234.13V59H228.658V40.92H222.706V36.536H240.082ZM248.3 44.12C248.94 43.1387 249.74 42.3707 250.7 41.816C251.66 41.24 252.726 40.952 253.9 40.952V46.744H252.396C251.03 46.744 250.006 47.0427 249.324 47.64C248.641 48.216 248.3 49.24 248.3 50.712V59H242.828V41.144H248.3V44.12ZM273.347 49.784C273.347 50.296 273.315 50.8293 273.251 51.384H260.867C260.953 52.4933 261.305 53.3467 261.923 53.944C262.563 54.52 263.342 54.808 264.259 54.808C265.625 54.808 266.574 54.232 267.107 53.08H272.931C272.633 54.2533 272.089 55.3093 271.299 56.248C270.531 57.1867 269.561 57.9227 268.387 58.456C267.214 58.9893 265.902 59.256 264.451 59.256C262.702 59.256 261.145 58.8827 259.779 58.136C258.414 57.3893 257.347 56.3227 256.579 54.936C255.811 53.5493 255.427 51.928 255.427 50.072C255.427 48.216 255.801 46.5947 256.547 45.208C257.315 43.8213 258.382 42.7547 259.747 42.008C261.113 41.2613 262.681 40.888 264.451 40.888C266.179 40.888 267.715 41.2507 269.059 41.976C270.403 42.7013 271.449 43.736 272.195 45.08C272.963 46.424 273.347 47.992 273.347 49.784ZM267.747 48.344C267.747 47.4053 267.427 46.6587 266.787 46.104C266.147 45.5493 265.347 45.272 264.387 45.272C263.47 45.272 262.691 45.5387 262.051 46.072C261.433 46.6053 261.049 47.3627 260.899 48.344H267.747ZM287.114 40.952C289.205 40.952 290.869 41.6347 292.106 43C293.365 44.344 293.994 46.2 293.994 48.568V59H288.554V49.304C288.554 48.1093 288.245 47.1813 287.626 46.52C287.007 45.8587 286.175 45.528 285.13 45.528C284.085 45.528 283.253 45.8587 282.634 46.52C282.015 47.1813 281.706 48.1093 281.706 49.304V59H276.234V41.144H281.706V43.512C282.261 42.7227 283.007 42.104 283.946 41.656C284.885 41.1867 285.941 40.952 287.114 40.952ZM296.709 50.04C296.709 48.2053 297.05 46.5947 297.733 45.208C298.437 43.8213 299.386 42.7547 300.581 42.008C301.775 41.2613 303.109 40.888 304.581 40.888C305.754 40.888 306.821 41.1333 307.781 41.624C308.762 42.1147 309.53 42.776 310.085 43.608V35.32H315.557V59H310.085V56.44C309.573 57.2933 308.837 57.976 307.877 58.488C306.938 59 305.839 59.256 304.581 59.256C303.109 59.256 301.775 58.8827 300.581 58.136C299.386 57.368 298.437 56.2907 297.733 54.904C297.05 53.496 296.709 51.8747 296.709 50.04ZM310.085 50.072C310.085 48.7067 309.701 47.6293 308.933 46.84C308.186 46.0507 307.269 45.656 306.181 45.656C305.093 45.656 304.165 46.0507 303.397 46.84C302.65 47.608 302.277 48.6747 302.277 50.04C302.277 51.4053 302.65 52.4933 303.397 53.304C304.165 54.0933 305.093 54.488 306.181 54.488C307.269 54.488 308.186 54.0933 308.933 53.304C309.701 52.5147 310.085 51.4373 310.085 50.072ZM322.267 39.288C321.307 39.288 320.518 39.0107 319.899 38.456C319.302 37.88 319.003 37.176 319.003 36.344C319.003 35.4907 319.302 34.7867 319.899 34.232C320.518 33.656 321.307 33.368 322.267 33.368C323.206 33.368 323.974 33.656 324.571 34.232C325.19 34.7867 325.499 35.4907 325.499 36.344C325.499 37.176 325.19 37.88 324.571 38.456C323.974 39.0107 323.206 39.288 322.267 39.288ZM324.987 41.144V59H319.515V41.144H324.987ZM339.833 40.952C341.923 40.952 343.587 41.6347 344.825 43C346.083 44.344 346.713 46.2 346.713 48.568V59H341.273V49.304C341.273 48.1093 340.963 47.1813 340.345 46.52C339.726 45.8587 338.894 45.528 337.849 45.528C336.803 45.528 335.971 45.8587 335.353 46.52C334.734 47.1813 334.425 48.1093 334.425 49.304V59H328.953V41.144H334.425V43.512C334.979 42.7227 335.726 42.104 336.665 41.656C337.603 41.1867 338.659 40.952 339.833 40.952ZM357.299 40.888C358.558 40.888 359.657 41.144 360.595 41.656C361.555 42.168 362.291 42.84 362.803 43.672V41.144H368.275V58.968C368.275 60.6107 367.945 62.0933 367.283 63.416C366.643 64.76 365.651 65.8267 364.307 66.616C362.985 67.4053 361.331 67.8 359.347 67.8C356.702 67.8 354.558 67.1707 352.915 65.912C351.273 64.6747 350.334 62.9893 350.099 60.856H355.507C355.678 61.5387 356.083 62.072 356.723 62.456C357.363 62.8613 358.153 63.064 359.091 63.064C360.222 63.064 361.118 62.7333 361.779 62.072C362.462 61.432 362.803 60.3973 362.803 58.968V56.44C362.27 57.272 361.534 57.9547 360.595 58.488C359.657 59 358.558 59.256 357.299 59.256C355.827 59.256 354.494 58.8827 353.299 58.136C352.105 57.368 351.155 56.2907 350.451 54.904C349.769 53.496 349.427 51.8747 349.427 50.04C349.427 48.2053 349.769 46.5947 350.451 45.208C351.155 43.8213 352.105 42.7547 353.299 42.008C354.494 41.2613 355.827 40.888 357.299 40.888ZM362.803 50.072C362.803 48.7067 362.419 47.6293 361.651 46.84C360.905 46.0507 359.987 45.656 358.899 45.656C357.811 45.656 356.883 46.0507 356.115 46.84C355.369 47.608 354.995 48.6747 354.995 50.04C354.995 51.4053 355.369 52.4933 356.115 53.304C356.883 54.0933 357.811 54.488 358.899 54.488C359.987 54.488 360.905 54.0933 361.651 53.304C362.419 52.5147 362.803 51.4373 362.803 50.072Z" fill="black"/>
<path d="M458 24.7913C456.051 38.5834 452.605 43.7617 442 48.2913C453.779 51.1838 456.108 57.5126 458 71.2913C461.171 58.1502 463.362 51.208 476.5 48.2913C464.748 44.7035 460.944 39.2547 458 24.7913Z" fill="#F2E7E2" stroke="#F2E7E2" stroke-width="8" stroke-linejoin="round"/>
<path d="M458 24.7913C456.051 38.5834 452.605 43.7617 442 48.2913C453.779 51.1838 456.108 57.5126 458 71.2913C461.171 58.1502 463.362 51.208 476.5 48.2913C464.748 44.7035 460.944 39.2547 458 24.7913Z" fill="#BB83F2" stroke="#242A2B" stroke-width="2"/>
<defs>
<filter id="filter0_d_353_17288" x="58.8572" y="0.191187" width="349.143" height="93.2927" filterUnits="userSpaceOnUse" color-interpolation-filters="sRGB">
<feFlood flood-opacity="0" result="BackgroundImageFix"/>
<feColorMatrix in="SourceAlpha" type="matrix" values="0 0 0 0 0 0 0 0 0 0 0 0 0 0 0 0 0 0 127 0" result="hardAlpha"/>
<feOffset dx="-12.0378" dy="-1.20378"/>
<feGaussianBlur stdDeviation="0.802518"/>
<feComposite in2="hardAlpha" operator="out"/>
<feColorMatrix type="matrix" values="0 0 0 0 0.0410871 0 0 0 0 0 0 0 0 0 0.513589 0 0 0 0.25 0"/>
<feBlend mode="normal" in2="BackgroundImageFix" result="effect1_dropShadow_353_17288"/>
<feBlend mode="normal" in="SourceGraphic" in2="effect1_dropShadow_353_17288" result="shape"/>
</filter>
</defs>
</svg>
