<svg width="1363" height="641" viewBox="0 0 1363 641" fill="none" xmlns="http://www.w3.org/2000/svg">
<mask id="mask0_567_5400" style="mask-type:alpha" maskUnits="userSpaceOnUse" x="-4" y="0" width="1367" height="641">
<rect width="1366" height="640.001" transform="matrix(1 0 0 -1 -3.5 640.91)" fill="#D9D9D9"/>
</mask>
<g mask="url(#mask0_567_5400)">
<path d="M-113.506 -20.2687C71.0862 5.05331 453.101 32.5982 504.423 -59.7986C568.576 -175.295 765.843 -185.931 881.381 -109.96C996.919 -33.988 1301.8 -181.814 1438.92 -10.8236C1548.62 125.969 1672.5 103.962 1720.73 75.8594" stroke="#F3E9C4" stroke-width="4"/>
<path d="M-148.63 79.7687C35.9622 105.091 417.977 132.636 469.299 40.2389C533.452 -75.2572 730.719 -85.8938 846.257 -9.92217C961.795 66.0495 1266.68 -81.7766 1403.8 89.2139C1513.49 226.006 1637.38 203.999 1685.6 175.897" stroke="#F3E9C4" stroke-width="4"/>
<path d="M-183.752 179.805C0.840278 205.128 382.855 232.672 434.177 140.276C498.33 24.7796 695.597 14.1429 811.135 90.1146C926.673 166.086 1231.56 18.2601 1368.68 189.251C1478.37 326.043 1602.25 304.036 1650.48 275.934" stroke="#F3E9C4" stroke-width="4"/>
<path d="M-124.54 -94.7593C60.0524 -69.4373 442.067 -41.8924 493.389 -134.289C557.542 -249.785 754.809 -260.422 870.347 -184.45C985.885 -108.479 1290.77 -256.305 1427.89 -85.3141C1537.58 51.4783 1661.47 29.4714 1709.7 1.36886" stroke="#F3E9C4" stroke-width="4"/>
<path d="M-64.5058 640.731C120.086 666.053 502.101 693.598 553.423 601.201C617.576 485.705 814.843 475.069 930.381 551.04C1045.92 627.012 1350.8 479.186 1487.92 650.176C1597.62 786.969 1721.5 764.962 1769.73 736.859" stroke="#F3E9C4" stroke-width="4"/>
<path d="M-75.5398 566.241C109.052 591.563 491.067 619.108 542.389 526.711C606.542 411.215 803.809 400.578 919.347 476.55C1034.88 552.521 1339.77 404.695 1476.89 575.686C1586.58 712.478 1710.47 690.471 1758.7 662.369" stroke="#F3E9C4" stroke-width="4"/>
<path d="M-86.5794 491.75C98.0128 517.073 480.028 544.617 531.35 452.221C595.502 336.725 792.769 326.088 908.307 402.06C1023.85 478.031 1328.73 330.205 1465.85 501.196C1575.54 637.988 1699.43 615.981 1747.66 587.879" stroke="#F3E9C4" stroke-width="4"/>
<path d="M-97.6173 417.26C86.9749 442.582 468.99 470.127 520.312 377.73C584.465 262.234 781.731 251.597 897.269 327.569C1012.81 403.541 1317.69 255.715 1454.81 426.705C1564.51 563.498 1688.39 541.491 1736.62 513.388" stroke="#F3E9C4" stroke-width="4"/>
<path d="M-108.651 342.769C75.9412 368.091 457.956 395.636 509.278 303.24C573.431 187.744 770.698 177.107 886.236 253.079C1001.77 329.05 1306.66 181.224 1443.78 352.215C1553.47 489.007 1677.35 467 1725.58 438.898" stroke="#F3E9C4" stroke-width="4"/>
<path d="M-119.687 268.28C64.9053 293.602 446.92 321.147 498.242 228.75C562.395 113.254 759.662 102.617 875.2 178.589C990.738 254.561 1295.62 106.734 1432.74 277.725C1542.44 414.517 1666.32 392.51 1714.55 364.408" stroke="#F3E9C4" stroke-width="4"/>
</g>
</svg>
