<svg width="296" height="81" viewBox="0 0 296 81" fill="none" xmlns="http://www.w3.org/2000/svg">
<ellipse cx="6.4115" cy="7.51323" rx="6.4115" ry="7.32743" fill="#E9DEA6"/>
<ellipse cx="200.588" cy="7.51323" rx="6.4115" ry="7.32743" fill="#E9DEA6"/>
<ellipse cx="200.588" cy="73.4601" rx="6.4115" ry="7.32743" fill="#E9DEA6"/>
<ellipse cx="6.4115" cy="73.4601" rx="6.4115" ry="7.32743" fill="#E9DEA6"/>
<rect x="3.42478" y="10.938" width="200.15" height="59.0974" fill="black" stroke="#E9DEA6" stroke-width="6.84956"/>
<path d="M10.991 18.5043H31.1414" stroke="#242A2B" stroke-width="10.2743"/>
<path d="M10.991 40.4866H31.1414" stroke="#242A2B" stroke-width="10.2743"/>
<path d="M10.991 60.637H31.1414" stroke="#242A2B" stroke-width="10.2743"/>
<path d="M9.15918 40.4866V60.637" stroke="#242A2B" stroke-width="10.2743"/>
<path d="M32.9736 18.5043V38.6547" stroke="#242A2B" stroke-width="10.2743"/>
<path d="M32.9736 40.4866V60.637" stroke="#242A2B" stroke-width="10.2743"/>
<path d="M9.15918 18.5043V38.6547" stroke="#F36A22" stroke-width="10.2743"/>
<path d="M49.4597 18.5043V38.6547" stroke="#242A2B" stroke-width="10.2743"/>
<path d="M51.2915 18.5043H71.4419" stroke="#242A2B" stroke-width="10.2743"/>
<path d="M51.2915 40.4866H71.4419" stroke="#242A2B" stroke-width="10.2743"/>
<path d="M51.2915 60.637H71.4419" stroke="#242A2B" stroke-width="10.2743"/>
<path d="M49.4597 40.4866V60.637" stroke="#242A2B" stroke-width="10.2743"/>
<path d="M73.2742 18.5043V38.6547" stroke="#F36A22" stroke-width="10.2743"/>
<path d="M73.2742 40.4866V60.637" stroke="#F36A22" stroke-width="10.2743"/>
<path d="M89.7617 18.5043V38.6547" stroke="#F36A22" stroke-width="10.2743"/>
<path d="M91.5935 18.5043H111.744" stroke="#F36A22" stroke-width="10.2743"/>
<path d="M91.5935 40.4866H111.744" stroke="#242A2B" stroke-width="10.2743"/>
<path d="M91.5935 60.637H111.744" stroke="#F36A22" stroke-width="10.2743"/>
<path d="M89.7617 40.4866V60.637" stroke="#F36A22" stroke-width="10.2743"/>
<path d="M113.576 18.5043V38.6547" stroke="#F36A22" stroke-width="10.2743"/>
<path d="M113.576 40.4866V60.637" stroke="#F36A22" stroke-width="10.2743"/>
<path d="M130.062 18.5043V38.6547" stroke="#F36A22" stroke-width="10.2743"/>
<path d="M131.894 18.5043H152.044" stroke="#F36A22" stroke-width="10.2743"/>
<path d="M131.894 40.4866H152.044" stroke="#242A2B" stroke-width="10.2743"/>
<path d="M131.894 60.637H152.044" stroke="#F36A22" stroke-width="10.2743"/>
<path d="M130.062 40.4866V60.637" stroke="#F36A22" stroke-width="10.2743"/>
<path d="M153.876 18.5043V38.6547" stroke="#F36A22" stroke-width="10.2743"/>
<path d="M153.876 40.4866V60.637" stroke="#F36A22" stroke-width="10.2743"/>
<path d="M170.363 18.5043V38.6547" stroke="#F36A22" stroke-width="10.2743"/>
<path d="M172.195 18.5043H192.345" stroke="#F36A22" stroke-width="10.2743"/>
<path d="M172.195 40.4866H192.345" stroke="#242A2B" stroke-width="10.2743"/>
<path d="M172.195 60.637H192.345" stroke="#F36A22" stroke-width="10.2743"/>
<path d="M170.363 40.4866V60.637" stroke="#F36A22" stroke-width="10.2743"/>
<path d="M194.177 18.5043V38.6547" stroke="#F36A22" stroke-width="10.2743"/>
<path d="M194.177 40.4866V60.637" stroke="#F36A22" stroke-width="10.2743"/>
<path d="M205 33L297 33" stroke="#E9DEA6" stroke-width="10"/>
</svg>
