<svg width="360" height="359" viewBox="0 0 360 359" fill="none" xmlns="http://www.w3.org/2000/svg">
<path d="M163.812 93.9443C156.097 110.709 168.401 125.487 172.496 132.535C178.733 132.144 188.187 133.116 190.575 133.749C202.462 123.61 209.185 118.491 205.479 109.331C192.075 95.3009 196.553 79.3652 211.318 77.6556C229.921 75.5014 216.778 32.6974 216.986 19.378C189.665 43.0095 170.097 31.9752 156.043 20.073C144.472 45.2204 157.561 44.2422 167.699 56.1294C173.744 65.1426 173.454 72.9881 163.812 93.9443Z" fill="#CA5355"/>
<path d="M266.061 164.465C249.327 156.685 234.501 168.93 227.436 172.997C227.803 179.236 226.794 188.686 226.152 191.071C236.244 202.998 241.336 209.742 250.51 206.072C264.593 192.723 280.511 197.264 282.163 212.035C284.244 230.647 327.099 217.673 340.418 217.933C316.894 190.519 328.005 170.994 339.963 156.988C314.861 145.318 315.788 158.41 303.861 168.502C294.824 174.511 286.979 174.19 266.061 164.465Z" fill="#CA5355"/>
<path d="M189.2 253.564C198.01 242.658 186.716 232.132 183.097 227.196C176.848 227.161 167.48 226.055 165.139 225.515C152.605 231.766 145.557 234.887 148.646 241.224C161.089 251.301 155.562 261.804 140.717 262.248C122.012 262.807 132.284 292.223 131.192 301.17C160.022 286.584 178.814 294.94 192.046 303.616C205.261 287.257 192.137 287.289 182.81 278.81C177.377 272.459 178.187 267.197 189.2 253.564Z" fill="#CA5355"/>
<path d="M90.8574 186.144C107.346 194.432 122.54 182.646 129.725 178.796C129.549 172.549 130.846 163.134 131.561 160.77C121.838 148.54 116.954 141.644 107.672 145.032C93.1877 157.945 77.416 152.919 76.2165 138.105C74.7051 119.438 31.4733 131.097 18.169 130.431C40.8443 158.55 29.1419 177.726 16.7621 191.361C41.4957 203.792 40.9693 190.678 53.199 180.955C62.4153 175.225 70.2461 175.785 90.8574 186.144Z" fill="#CA5355"/>
<path d="M225.308 109.709C207.683 115.179 204.917 134.208 202.413 141.966C206.874 146.343 212.471 154.023 213.597 156.222C229.084 158.285 237.385 159.864 241.72 150.984C243.194 131.636 258.039 124.313 269.181 134.151C283.219 146.547 313.005 102.581 320.847 90.3478C285.008 85.8266 275.597 72.9571 275.055 54.5487C248.617 62.7542 258.094 71.8343 256.031 87.321C253.368 97.8418 247.34 102.871 225.308 109.709Z" fill="#CA5355"/>
<path d="M241.814 217.749C239.647 203.301 223.718 203.515 217.422 202.416C213.027 206.859 205.636 212.733 203.588 214.004C199.598 227.638 197.054 235.01 204.051 237.535C220.439 236.163 221.722 248.309 211.685 259.258C199.039 273.054 217.057 293.979 223.124 301.444C232.14 269.929 266.136 256.086 282.006 253.104C278.756 231.432 269.608 240.842 256.617 241.179C247.973 240.32 244.522 235.809 241.814 217.749Z" fill="#CA5355"/>
<path d="M128.847 247.131C146.804 242.875 150.861 224.079 153.889 216.511C149.737 211.84 144.677 203.795 143.704 201.524C128.394 198.41 120.22 196.269 115.289 204.832C112.499 224.035 97.2805 225.978 86.836 215.403C73.6759 202.079 43.3774 246.309 34.0251 259.42C69.4722 266.376 76.1679 280.366 75.4537 298.769C102.39 292.386 93.554 282.68 96.6687 267.371C100.043 257.056 106.4 252.45 128.847 247.131Z" fill="#CA5355"/>
<path d="M108.732 125.227C113.591 143.031 132.513 146.451 140.18 149.221C144.708 144.914 152.577 139.585 154.813 138.536C157.409 123.129 159.273 114.888 150.548 110.249C131.262 108.109 124.456 93.0199 134.672 82.2242C147.544 68.6216 100.691 50.8527 92.2933 40.5125C86.539 76.1742 73.7356 73.7012 55.3194 73.609C62.6084 100.314 72.0099 91.1556 87.4163 93.7514C97.839 96.7751 102.657 102.973 108.732 125.227Z" fill="#CA5355"/>
<ellipse cx="178.048" cy="184.629" rx="51.5585" ry="53.1209" transform="rotate(-3.59222 178.048 184.629)" fill="#CA5355"/>
<path d="M164.099 190.816C172.545 206.477 191.578 212.493 206.564 204.411C221.551 196.328 226.978 177.12 218.532 161.459C210.086 145.798 191.054 139.782 176.067 147.864C161.081 155.947 155.653 175.155 164.099 190.816Z" fill="#F9A400" stroke="#242A2B" stroke-width="3"/>
<path d="M206.13 169.321C209.133 173.172 212.817 172.495 214.397 171.784L210.902 175.215C210.313 201.9 190.274 199.983 180.172 193.303L176.377 194.332C178.672 192.492 178.424 188.776 178.013 187.148L180.526 191.368C190.98 196.181 197.139 193.428 200.458 191.058C205.579 188.403 208.679 178.195 208.94 173.999C207.802 173.809 206.643 170.625 206.13 169.321Z" fill="#242A2B"/>
<ellipse cx="3.21079" cy="8.90361" rx="3.21079" ry="8.90361" transform="matrix(-0.867182 0.497992 0.4566 0.889672 193.886 156.847)" fill="#242A2B"/>
<ellipse cx="3.21079" cy="8.90361" rx="3.21079" ry="8.90361" transform="matrix(-0.867182 0.497992 0.4566 0.889672 180.661 164.442)" fill="#242A2B"/>
</svg>
