<svg width="259" height="175" viewBox="0 0 259 175" fill="none" xmlns="http://www.w3.org/2000/svg">
<g style="mix-blend-mode:darken" opacity="0.5">
<path d="M70.5008 104.378C65.1668 98.6044 70.7399 84.4959 74.1931 78.1634C81.9866 78.8088 97.858 80.7884 98.9958 83.5435C100.418 86.9874 104.271 92.6697 102.982 93.2307C101.951 93.6796 98.0224 90.9943 96.1871 89.5955C95.7546 94.7665 100.469 102.604 95.4554 103.943C89.9647 104.431 87.8989 95.0937 87.5524 90.3639C87.5118 94.0868 86.8372 102.389 84.4641 105.813C81.7998 109.978 79.2661 98.391 78.3323 92.077C76.0058 98.5324 74.486 104.023 70.5008 104.378Z" fill="#242A2B"/>
<path d="M222.176 50.9357C219.228 42.0487 213.671 24.066 215.025 23.2314C216.717 22.1882 224.102 22.4236 228.467 33.8624L228.973 21.9902C232.053 24.6274 235.992 30.3074 238.023 34.4078C237.724 30.4743 237.792 22.9235 239.113 23.0962C241.145 23.3616 250.343 43.966 244.976 51.3615L222.176 50.9357Z" fill="#242A2B"/>
<path d="M161.358 42.0654L158.726 40.0681L158.214 34.3116L168.186 28.5148L178.813 27.569L181.82 33.7729L183.499 40.0951L176.459 48.7551C174.11 49.3475 169.554 50.4681 170.117 50.2121C166.831 51.3972 166.915 55.1834 167.367 56.9283C160.214 61.8049 156.843 56.526 156.587 53.6477C159.681 52.3013 161.057 45.3651 161.358 42.0654Z" fill="#242A2B"/>
<ellipse cx="173.038" cy="37.9023" rx="1.33366" ry="1.55594" transform="rotate(-5.08541 173.038 37.9023)" fill="#242A2B"/>
<ellipse cx="179.095" cy="38.256" rx="1.11138" ry="1.55594" transform="rotate(-5.08541 179.095 38.256)" fill="#242A2B"/>
<path fill-rule="evenodd" clip-rule="evenodd" d="M74.552 78.4918C82.8741 79.9364 91.1425 81.7712 99.418 83.4595C100.349 83.6496 100.35 83.695 101.118 83.1342C103.206 81.6089 105.342 80.1463 107.508 78.7344C114.042 74.477 120.832 70.9302 128.22 68.402C133.454 66.6088 138.805 65.0808 144.196 63.829C143.793 65.587 142.874 67.4646 141.65 68.7859C140.7 69.8111 139.339 70.4462 138.109 71.0601C134.449 72.8845 130.572 74.2773 126.993 76.2632C123.342 78.2875 121.252 82.0075 120.893 86.1396C120.825 86.9124 120.844 87.0272 121.502 87.3553C122.24 87.7232 123.113 87.8997 123.908 88.094C130.29 89.6536 136.939 90.372 143.459 91.0817C146.921 91.4601 150.389 91.7884 153.865 91.9916C156.023 92.1181 158.31 92.3428 160.461 92.0242C169.68 90.6579 174.191 79.1378 176.24 71.4349C185.016 75.2264 194.881 77.2711 204.384 77.8345C215.906 78.5193 230.239 77.3374 238.483 68.156C242.409 63.7828 244.557 58.1441 246.004 52.5275C239.655 52.5479 233.299 52.1613 226.967 51.7614C225.86 51.6915 224.754 51.6187 223.648 51.5427C223.204 51.512 222.509 51.3256 222.066 51.431C221.394 51.5905 220.581 52.4073 220.006 52.7884C215.606 55.7091 211.032 58.4365 206.229 60.6437C203.655 61.8255 200.971 62.9087 198.178 63.4396C195.182 64.0086 192.031 63.6668 189.047 63.1883C181.559 61.988 173.62 59.5365 167.11 55.565C165.813 57.816 163.258 59.4897 160.61 58.695C157.711 57.8244 155.892 55.0263 154.177 52.7446C153.552 51.9138 152.521 51.9994 151.481 51.8305C148.577 51.3586 145.65 51.0238 142.718 50.7906C133.089 50.0254 123.287 50.3476 113.812 52.3096C104.567 54.2243 95.6373 58.057 87.8038 63.3201C84.3959 65.6099 81.1101 68.2039 78.3832 71.2901C76.6619 73.2391 74.6709 75.7674 74.552 78.4918Z" fill="#242A2B"/>
<path d="M87.0292 62.8552L110.158 76.0789L104.855 79.9347L84.0168 68.2087L87.0292 62.8552Z" fill="#242A2B"/>
<path d="M239.088 67.9523L216.996 55.4133L221.315 51.8725L241.612 63.7109L239.088 67.9523Z" fill="#242A2B"/>
<path d="M124.227 78.1742L169.32 85.883L168.836 88.4863L123.743 80.7775L124.227 78.1742Z" fill="#242A2B"/>
<path d="M140.96 68.1091L175.267 74.971L174.783 77.5743L140.476 70.7124L140.96 68.1091Z" fill="#242A2B"/>
<rect x="100.772" y="55.0681" width="26.9454" height="3.57094" transform="rotate(29.3666 100.772 55.0681)" fill="#242A2B"/>
<path d="M228.831 75.5594L206.236 62.3953L209.277 61.4553L231.595 73.8232L228.831 75.5594Z" fill="#242A2B"/>
<path d="M120.753 50.1972L142.806 62.6066L140.848 64.8682L117.206 52.4671L120.753 50.1972Z" fill="#242A2B"/>
<path d="M204.757 78.3711L180.357 62.467L182.954 61.5664L209.106 77.0915L204.757 78.3711Z" fill="#242A2B"/>
<path fill-rule="evenodd" clip-rule="evenodd" d="M97.3202 14.7004C100.339 15.4212 103.112 16.6283 105.846 18.0777C107.178 18.7842 108.523 19.6299 109.966 20.0855C111.246 20.4897 112.616 20.6036 113.923 20.9131C119.775 22.3 125.977 22.1319 131.596 19.7978C137.324 17.4184 141.971 12.9897 147.953 11.1979C153.787 9.45052 159.855 9.18222 165.759 10.881C168.625 11.7063 171.123 13.2993 173.645 14.8427C176.061 16.3219 178.587 17.768 180.541 19.8556C182.46 21.9057 183.7 24.5592 184.697 27.158C185.27 28.657 185.615 30.2267 185.725 31.8291C185.802 32.9502 185.308 34.0837 185.752 35.1345C186.375 36.6082 187.185 37.66 187.152 39.3652C187.124 40.7386 186.611 41.9657 185.73 43.0064C184.825 44.0742 183.699 44.8524 182.415 45.395C181.444 45.8053 181.121 45.7522 180.463 44.9323C178.968 46.5497 177.971 48.5143 176.02 49.6684C175.051 50.2417 174.035 50.5666 172.928 50.7366C172.088 50.8654 171.315 50.9588 170.648 51.5359C169.947 52.1419 167.425 54.7906 168.555 55.6436C169.215 56.1412 170.649 56.1238 171.455 56.3719C172.581 56.7188 173.675 57.1699 174.719 57.7192C178.535 59.7293 182.255 60.8635 186.521 61.5356C190.949 62.2322 195.369 62.4303 199.841 62.0484C203.902 61.7017 208.128 61.0151 211.746 59.0352C213.484 58.0857 215.134 56.8844 216.497 55.4424C217.855 54.0037 218.599 52.1052 220.007 50.7538C220.918 49.8789 219.902 48.7473 219.503 47.6931C218.691 45.5489 217.996 43.0875 217.606 40.8304C217.228 38.6376 216.728 36.4621 216.141 34.3113C215.52 32.031 214.461 29.9514 213.647 27.7428C213.048 26.1143 212.419 24.1963 212.791 22.4457C212.976 21.5772 213.471 20.6327 214.253 20.1566C214.954 19.7305 215.434 20.0353 216.087 19.9381C218 19.6538 219.555 20.306 221.12 21.4603C221.966 22.0839 222.928 22.6102 223.74 23.2699C224.371 23.783 224.59 24.682 225.255 25.1276C226.041 22.4415 226.812 19.0471 230.393 20.2246C233.226 21.1565 233.969 25.5388 235.498 27.7218C236.188 27.0428 236.164 25.8281 236.377 24.9485C236.597 24.0379 237.019 23.0596 237.675 22.3711C239.108 20.8671 241.051 21.2468 242.267 22.7875C242.917 23.6111 242.665 24.6453 243.31 25.4583C243.949 26.2647 243.863 27.2811 244.182 28.2581C244.585 29.4965 245.049 30.711 245.398 31.9687C245.558 32.5502 245.775 33.2026 245.803 33.8117C245.813 34.0642 245.648 34.5148 245.733 34.7575C245.843 35.0752 246.255 35.333 246.424 35.6419C246.654 36.0567 246.612 36.3769 246.673 36.8205C246.782 37.6189 247.056 38.2576 247.356 39.0291C248.114 40.9723 248.191 43.5103 247.502 45.4757C247.143 46.4947 246.894 47.2346 246.855 48.2943C246.83 48.9784 246.375 49.6402 246.47 50.3646C246.603 51.373 249.449 52.6933 247.372 53.5538C246.504 53.9148 246.299 53.7845 246.147 54.8257C245.994 55.8603 245.809 56.8698 245.497 57.869C244.838 59.9911 243.756 61.934 242.746 63.9026C241.655 66.0324 240.493 68.1015 238.749 69.7729C237.131 71.3232 235.235 72.6361 233.336 73.8168C229.335 76.3044 224.779 77.9008 220.065 78.2053C215.038 78.5295 209.992 79.4563 204.945 79.0463C199.779 78.6269 194.685 77.6243 189.53 77.1076C187.214 76.8747 185.05 76.5882 182.882 75.6986C180.684 74.7956 178.488 73.8683 176.441 72.6508C175.398 75.9444 174.98 79.3177 173.34 82.4075C171.91 85.1054 170.124 87.6797 167.839 89.7257C165.607 91.7255 162.603 93.339 159.602 93.7224C158.686 93.8387 157.239 93.5607 156.641 94.3124C156.342 94.6869 156.369 95.379 156.279 95.8354C156.123 96.612 155.866 97.3789 155.755 98.1635C155.588 99.3533 156.684 99.2745 157.686 99.663C159.029 100.183 160.346 100.764 161.653 101.368C162.988 101.985 164.275 102.716 165.611 103.323C166.758 103.842 167.929 104.218 169.043 104.823C171.677 106.253 174.499 107.112 177.284 108.183C180.267 109.329 183.185 110.643 186.127 111.889C191.953 114.356 197.806 116.934 203.369 119.959C205.966 121.371 208.473 122.858 211.125 124.175C213.598 125.405 216.424 126.85 218.126 129.076C219.454 130.813 221.205 131.535 223.219 132.367C224.405 132.857 225.118 132.906 225.953 131.858C226.773 130.828 227.562 129.806 228.436 128.816C232.017 124.754 235.001 120.393 237.882 115.827C240.022 112.439 243.004 108.332 247.514 108.632C248.865 108.721 249.806 109.264 250.87 110.05C251.592 110.582 252.835 110.862 253.349 111.59C253.646 112.011 253.805 112.568 254.106 113.011C254.421 113.472 254.801 113.916 255.03 114.431C255.417 115.304 254.881 116.792 255.606 117.466C256.137 117.959 255.801 119.263 255.722 119.882C255.579 121.025 255.473 122.181 255.185 123.298C254.956 124.177 254.763 125.372 254.182 126.094C253.666 126.739 252.991 126.74 253.231 127.755C252.596 127.604 252.197 129.129 252.055 129.517C251.677 130.56 251.239 131.429 250.56 132.325C248.842 134.593 246.788 136.207 244.438 137.76C243.579 138.327 241.772 139.171 241.662 140.314C241.558 141.411 242.252 142.234 241.92 143.426C241.234 145.905 239.434 148.616 237.954 150.699C236.622 152.573 235.283 153.866 232.863 153.669C230.718 153.494 228.534 152.602 226.67 151.564C224.424 150.312 222.085 149.429 219.697 148.49C218.523 148.027 217.351 147.608 216.304 146.887C215.331 146.217 214.469 145.441 213.368 144.977C212.585 144.645 211.583 144.45 211.193 143.594C210.765 142.659 211.333 142.003 211.8 141.264C212.115 140.769 212.305 140.678 211.965 140.334C211.693 140.058 211 139.866 210.646 139.714C209.791 139.348 208.94 139.039 208.111 139.597C207.186 140.221 206.619 141.39 205.961 142.263C205.173 143.307 204.271 144.274 203.39 145.241C201.645 147.16 199.701 148.912 198.003 150.867C197.615 151.314 196.871 152.425 196.154 152.291C195.623 152.192 195.868 151.861 195.58 151.649C195.27 151.419 195.026 151.438 194.634 151.195C193.659 150.593 193.264 149.304 192.241 148.681C191.191 148.04 189.928 147.625 188.807 147.12C183.694 144.815 178.686 142.286 173.934 139.3C171.551 137.802 169.279 136.148 166.959 134.558C165.866 133.81 164.752 132.983 163.559 132.403C162.472 131.872 161.287 131.54 160.182 131.037C157.815 129.961 155.317 129.197 152.97 128.077C151.866 127.55 151.015 126.787 149.978 126.183C149.07 125.654 148.327 125.359 147.614 124.535C147.37 125.227 146.465 124.434 146.148 124.256C145.897 124.116 145.586 124.03 145.35 123.867C145.115 123.7 144.945 123.302 144.767 123.188C144.372 122.937 143.948 123.039 143.437 122.905C142.752 122.726 141.821 122.171 141.268 121.732C140.886 121.428 141.484 121.64 140.852 121.283C140.557 121.116 140.077 121.107 139.747 120.933C138.965 120.518 138.23 119.961 137.477 119.494C136.11 118.649 134.377 117.922 133.518 116.491C129.9 120.043 126.44 123.858 122.171 126.656C118.048 129.358 113.135 130.855 108.655 132.866C104.044 134.933 99.388 137.015 94.6768 138.839C92.3858 139.725 90.0049 140.428 87.6426 141.1C85.2191 141.79 82.7756 141.865 80.3259 142.351C79.1215 142.591 77.9002 142.656 76.6958 142.881C75.5863 143.09 74.5256 143.471 73.4276 143.718C72.4594 143.936 71.345 143.924 70.4261 144.274C69.7518 144.531 68.9 145.305 68.314 144.449C67.9929 145.037 67.8515 144.786 67.3651 144.793C66.8465 144.8 66.6932 144.837 66.1973 144.979C65.3908 145.208 64.492 145.348 63.7377 144.767C63.5218 145.95 60.3416 145.174 59.9059 144.444C59.5992 145.704 55.756 144.982 55.5995 143.839C55.4666 142.872 55.9875 141.418 56.1732 140.482C56.4748 138.954 56.8828 137.449 57.3172 135.955C57.776 134.374 58.2512 132.797 58.7279 131.221C58.9378 130.528 59.131 129.827 59.3809 129.146C59.5026 128.814 59.8517 128.301 59.8135 127.933C59.6975 126.855 57.7563 126.95 56.9145 126.753C56.2777 126.604 55.6305 126.445 55.0173 126.216C54.5729 126.048 54.0186 125.623 53.5415 125.6C52.4461 125.547 52.8006 126.749 52.7495 127.512C52.6856 128.493 52.1962 129.039 51.1718 129.136C49.975 129.251 46.3771 127.496 45.8728 129.122C45.6356 129.885 45.8435 131.289 45.8036 132.088C45.737 133.4 45.9233 134.682 46.2162 135.958C46.6962 138.059 47.8968 140.663 46.9962 142.799C45.1985 147.063 37.491 145.276 34.8718 142.925C31.0163 139.464 30.6152 133.799 31.896 129.079C32.5174 126.783 33.4937 124.296 34.8861 122.349C35.505 121.485 36.7491 120.594 36.878 119.47C36.9863 118.538 36.1997 117.758 36.2661 116.806C36.345 115.677 37.2262 114.918 37.9734 114.172C38.7512 113.393 39.5008 112.554 40.4096 111.925C42.5134 110.469 45.0942 111.005 47.3791 111.734C49.8773 112.53 52.3055 113.682 54.5889 114.965C55.7201 115.602 56.6814 116.179 57.9754 116.419C58.9687 116.604 59.9709 116.784 60.9654 116.952C61.9054 117.109 62.6953 117.22 63.2686 116.369C63.8998 115.432 64.1034 115.058 65.3281 114.911C66.631 114.755 67.9452 114.712 69.2561 114.646C69.5332 114.632 70.1508 114.49 70.389 114.701C70.601 114.888 70.3589 115.34 70.551 115.454C70.8547 115.633 72.2695 113.202 72.5737 115.041C72.5814 114.135 73.5641 114.486 74.1003 114.558C74.2953 114.583 74.491 114.616 74.6833 114.642C74.8829 114.555 75.0589 114.593 75.2098 114.755C75.4289 114.781 75.5689 114.685 75.6259 114.469C77.9078 114.232 80.2267 114.17 82.5158 113.955C85.1632 113.704 87.8255 113.442 90.416 112.825C91.3752 112.596 92.3309 112.313 93.2935 112.107C93.7347 112.013 94.1133 112.027 94.5514 112.018C94.7133 112.033 94.8626 112.086 95.0017 112.176C95.0565 112.04 95.1472 111.931 95.2726 111.852C96.8954 111.216 98.5799 110.732 100.236 110.155C101.395 109.752 102.369 109.433 103.542 109.244L103.764 109.209L104.25 109.308C104.304 109.132 104.405 108.99 104.553 108.882C104.924 108.69 105.245 108.6 105.657 108.52C107.292 108.205 108.914 108.078 110.452 107.699C111.263 107.498 114.223 106.765 114.849 107.531C115.186 106.5 118.364 107.58 119.206 106.913C117.649 105.142 116.863 103.167 116.266 100.911C115.615 98.4531 115.112 95.851 115.524 93.308C115.904 90.9645 116.967 88.5001 118.563 86.7336C120.106 85.0239 120.334 83.1248 121.285 81.1013C123.266 76.8837 126.898 74.0916 131.058 72.2308C133.323 71.2183 135.638 70.3365 137.929 69.3873C139.79 68.6155 141.316 67.6126 142.12 65.6877C133.97 66.413 126.396 69.6361 119.206 73.3671C115.629 75.223 112.074 77.1384 108.553 79.0976C106.761 80.0948 104.993 81.1474 103.348 82.375L102.892 82.7139C102.363 83.1116 101.837 83.5171 101.35 83.9632C101.233 84.0699 100.588 84.5275 100.56 84.6638C100.339 85.7232 102.201 87.2302 102.726 88.0747C103.438 89.2263 104.157 90.5821 104.353 91.935C104.586 93.5508 103.623 94.4568 101.996 94.2643C100.008 94.0304 98.3857 92.5356 96.7342 91.5411C96.4816 92.6114 97.0339 93.7652 97.3655 94.7554C97.8224 96.1144 98.277 97.4937 98.6385 98.88C99.1489 100.84 99.1124 103.108 97.2245 104.328C92.4159 107.433 89.2203 100.651 87.8837 97.2397C87.2365 97.8018 87.479 99.6242 87.4197 100.402C87.3065 101.896 87.1671 103.502 86.6328 104.912C86.2244 105.992 85.481 107.277 84.2377 107.5C82.8903 107.742 81.691 106.671 80.987 105.647C79.7684 103.878 79.3367 101.823 79.0672 99.7425C79.0077 99.2848 78.7628 95.0138 78.2859 94.9331C77.1378 97.5042 76.618 100.295 75.2195 102.775C73.9944 104.947 72.0018 106.524 69.8873 104.326C66.6151 100.923 67.0862 95.5417 67.9274 91.3106C68.415 88.8505 69.1672 86.4753 70.2642 84.2165C70.7187 83.2795 71.3058 82.5542 71.8999 81.7118C72.3879 81.0153 72.5721 80.6939 72.2694 79.9688C72.094 79.5468 71.9625 79.5424 72.0419 79.051C72.1002 78.6992 72.3266 78.2508 72.4482 77.9175C72.7996 76.9643 73.1719 76.0212 73.6235 75.1112C74.5906 73.1664 75.9928 71.4961 77.4847 69.9302L77.634 69.7737L77.6266 69.7811C77.5316 69.8859 78.2371 69.2423 78.221 69.2424L78.2172 69.2441L78.236 69.2304C78.4986 69.0237 78.5514 68.4141 78.9163 68.9209L78.9438 68.9586C78.9229 68.167 79.5467 67.6592 80.0757 67.1678C80.2735 66.9843 80.4656 66.737 80.7145 66.6159C80.8862 66.531 81.3091 66.5616 81.4307 66.4544C81.6664 66.2461 81.7572 65.8678 81.9767 65.6278C82.1975 65.3878 82.519 65.2561 82.7777 65.0651C83.4118 64.5966 83.9819 64.0414 84.5963 63.5475C85.9013 62.4982 87.2755 61.535 88.6935 60.6427C91.6738 58.7653 94.873 57.1834 98.0898 55.753C100.924 54.4923 103.871 53.2959 106.81 52.2999C109.824 51.2774 113.081 51.1754 116.2 50.5879C122.56 49.3896 129.342 48.9136 135.811 48.9689C138.981 48.9961 142.148 49.1976 145.301 49.5217C148.359 49.8356 151.545 50.2192 154.355 51.5536C154.953 51.838 156.077 52.8208 156.74 52.7221C157.299 52.6389 157.694 51.5593 157.922 51.1274C158.462 50.1018 159.171 49.1404 159.613 48.071C160.157 46.754 160.367 45.3094 160.743 43.9412C158.483 44.4602 156.098 44.8785 153.824 44.1972C151.765 43.5803 150.283 42.113 148.668 40.7799C146.966 39.3759 145.197 38.4794 142.946 38.5368C140.393 38.6016 138.184 39.7168 135.924 40.7739C131.149 43.0074 126.391 45.418 121.433 47.2235C119.011 48.1057 116.506 48.8551 113.945 49.2016C112.641 49.3775 111.311 49.4366 110.036 49.7938C109.509 49.9415 109.356 50.0396 108.91 49.8403C108.97 49.8676 108.284 48.9263 108.2 49.3238C108.118 49.7071 108.331 49.9819 108.029 50.2921C107.675 50.6563 106.828 50.5698 106.38 50.5714C105.709 50.5739 105.159 50.3949 104.504 50.3016C103.492 50.1573 102.394 50.4094 101.374 50.3722C100.899 50.355 100.548 50.2669 100.114 50.1746C99.6602 50.0779 99.9458 50.0698 99.4853 50.0523C99.0771 50.0369 98.8535 50.1103 98.3508 49.9949C97.9014 49.8917 97.4891 49.8297 97.0324 49.7653C96.615 49.7067 96.2692 49.5648 95.8796 49.4872C96.37 49.5848 95.2388 49.2489 95.2968 49.3599L95.3015 49.367L95.2971 49.3634C95.1671 49.2403 95.0051 48.984 94.7664 48.9631L94.7182 48.9622C95.5964 50.0797 92.0888 49.1285 91.857 49.0801C89.9289 48.676 87.8911 47.5507 85.9195 47.6059C83.9947 47.6597 82.2535 49.13 80.7982 50.2351C79.0409 51.5697 77.2924 52.9132 75.5428 54.259C71.6766 57.2336 67.4461 59.963 62.987 61.9586C60.8173 62.9293 58.5795 63.7521 56.37 64.6223C55.3732 65.0145 54.2677 65.2375 53.3277 65.7566C52.6925 66.1076 51.8183 67.066 51.0817 66.3514C50.8724 67.0526 49.5629 67.1342 49.0112 67.2045C48.9265 67.2152 49.0777 67.3654 48.8813 67.3692C48.5927 67.3744 48.4909 67.1026 48.2601 67.0644C47.7902 66.9873 47.7581 67.1684 47.3197 67.3844C46.7492 67.665 46.8432 67.4578 46.3166 67.4503C46.0138 67.446 45.7125 67.6385 45.4132 67.6745C45.2915 67.6894 45.1141 67.5008 44.9378 67.5195C44.7694 67.5376 44.3905 67.7753 44.1691 67.8289C43.615 67.9633 42.9489 67.9661 42.3797 67.9913C41.5666 68.0271 33.3851 68.0257 33.8169 66.2767C32.9199 67.2648 30.5239 65.9934 29.464 65.616C29.0701 65.4756 29.0298 65.3086 28.7986 65.1313C28.8373 64.89 28.7271 64.7937 28.4678 64.8422C28.4114 64.8408 28.3551 64.8395 28.2988 64.8381C27.8311 64.6499 27.6722 64.6692 27.2808 64.301C26.758 63.8094 25.8415 63.4045 25.5327 62.7309C25.4496 62.55 25.4913 62.2214 25.4119 62.0806C25.3088 61.9 25.0837 61.9418 25.0184 61.7939C24.9951 61.7422 25.0515 61.3843 25.0444 61.3792C24.6035 61.0718 24.0392 61.2864 23.5258 60.916C22.1099 59.8915 21.1122 57.6724 20.5891 56.0801C19.2216 51.9156 18.5025 47.6695 20.0656 43.4762C20.8249 41.4374 21.8025 39.4755 22.9085 37.6036C23.2143 37.0859 23.5222 36.4108 23.9318 35.9603C24.1145 35.7581 24.374 35.6968 24.4611 35.5779C24.9291 34.9424 25.1325 34.1606 25.7785 33.5253C26.4984 32.8176 27.206 32.093 28.0166 31.4886C28.7621 30.9334 29.714 30.5333 30.3959 30.0155C30.5826 29.8733 30.4975 29.683 30.6994 29.5158C30.9138 29.3387 31.2074 29.3003 31.4582 29.201C31.7568 29.0836 32.1218 28.8836 32.438 28.8279C33.0268 28.7234 33.2424 28.8758 33.7274 29.2579C33.5829 27.634 36.5526 27.142 37.7618 27.0315C38.3193 26.9802 41.101 26.4806 41.1227 27.3402C41.6861 26.439 43.6843 26.8942 44.5512 27.0724C45.5926 27.2856 46.2999 27.9714 47.0198 28.7071C47.1182 28.4449 47.2166 28.1824 47.315 27.9202C47.5111 28.0327 48.1541 28.1916 47.9839 28.5496C48.6568 27.8402 48.2924 28.4076 48.928 28.4667C49.2073 28.4925 49.4345 28.3699 49.7209 28.3099C49.7788 28.6896 49.6239 28.8283 49.4113 29.1155C49.9791 29.0756 52.1363 28.6557 50.5879 29.5112C50.8373 29.8775 51.8475 29.6511 52.2119 29.671C52.4042 29.6816 52.8804 29.6491 53.0056 29.7783C53.0895 29.8634 52.9806 30.1285 52.9985 30.1495C53.171 30.3441 52.8619 30.4793 53.182 30.5116C53.2603 30.5196 53.484 30.2515 53.5398 30.2475C53.9493 30.2176 53.6553 30.1619 54.0936 30.1857C54.2496 30.1941 54.5586 30.3424 54.7573 30.3653C57.7719 30.7077 61.1881 28.1061 63.1818 26.1499C65.5645 23.8125 67.601 21.3596 70.5686 19.7159C73.4393 18.126 76.6761 16.7858 79.7858 15.7459C85.5359 13.823 91.3674 13.2792 97.3202 14.7004ZM184.107 142.974C184.207 143.017 184.306 143.059 184.406 143.101C184.535 143.02 184.664 142.939 184.794 142.859C184.39 142.709 184.356 142.63 184.107 142.974ZM214.908 131.769C214.235 132.281 213.715 133.351 213.145 134.012C212.345 134.939 211.502 135.829 210.661 136.719C211.746 136.991 213.406 138.334 214.486 137.563C215.02 137.181 215.291 136.173 215.602 135.624C216.083 134.773 216.662 133.964 217.247 133.182C217.85 132.377 215.612 131.231 214.908 131.769ZM146.782 122.36C147.075 122.453 147.754 123.079 147.489 123.343C147.168 123.033 146.756 122.825 146.782 122.36ZM55.1899 119.643C54.7145 120.135 54.2156 121.116 53.9093 121.734C53.5631 122.43 53.5781 122.764 54.2346 123.149C55.5039 123.893 57.26 123.989 58.6787 124.263C59.4358 124.409 60.3967 124.862 60.9646 124.131C61.5267 123.41 61.4174 122.167 61.6239 121.315C61.79 120.624 61.9738 119.939 62.1495 119.251C60.8574 119.498 59.5465 119.624 58.238 119.446C57.2885 119.317 55.9497 118.858 55.1899 119.643ZM74.5449 81.9756C73.6194 83.5004 72.8156 85.0988 72.127 86.7444C70.987 89.4673 70.168 92.3236 69.747 95.2461C69.4495 97.3172 69.0036 100.231 70.2695 102.08C73.0272 106.108 76.7682 93.441 77.3911 92.0956C77.7628 91.2944 78.371 90.416 79.2123 91.3287C79.9025 92.0768 79.8154 93.3839 79.9289 94.3279C80.2643 97.135 80.1713 100.541 81.5327 103.088C81.9792 103.925 83.0693 105.092 84.1375 104.6C85.0963 104.157 85.4385 102.408 85.667 101.502C86.3877 98.6387 86.7719 95.1816 86.542 92.238C86.4949 91.6481 85.6177 87.7906 87.0606 88.532C88.0044 89.0181 88.2125 91.7615 88.3786 92.6513C89.0304 96.126 90.2516 102.015 94.6508 102.218C95.6196 102.263 96.6827 101.939 97.1664 101.029C97.7683 99.8982 96.9394 98.5227 96.5964 97.4198C96.0031 95.5202 95.3487 93.5646 95.1286 91.5729C94.9946 90.3524 94.9345 88.309 96.6932 88.6289C98.8135 89.013 99.9294 91.6421 102.262 91.5269C102.215 90.9811 101.874 90.5645 101.579 90.1318C100.621 88.7331 99.0016 87.6072 98.3469 86.0249C98.1335 85.506 98.2346 84.6874 97.8643 84.2707C97.515 83.879 96.8004 83.8342 96.3206 83.7805C93.1244 83.4266 89.9625 82.8422 86.7735 82.3887C83.3637 81.9053 80.1925 81.3365 76.9422 80.2394C75.4771 79.7449 75.2488 80.8183 74.5449 81.9756ZM151.389 97.2608C151.869 97.4388 152.346 97.6252 152.832 97.7907C153.253 97.9353 153.399 97.7777 153.528 97.3849C153.229 97.3499 151.529 96.9111 151.389 97.2608ZM127.386 51.5489C121.429 52.2556 115.597 52.8515 109.811 54.5095C107.043 55.3025 104.339 56.1767 101.648 57.1925C100.51 57.6217 99.5121 58.0524 98.5529 58.7918C98.196 59.0666 97.2623 59.9128 97.0313 59.0612C96.571 59.5879 95.7222 61.1464 94.8449 60.4005C94.7567 61.004 94.3156 61.0248 93.9047 61.2638C93.7609 61.3478 93.7 61.5954 93.5126 61.7C93.4668 61.726 93.4194 61.3898 93.3486 61.3905C93.0905 61.393 92.9367 61.9505 92.8016 62.1012C92.4765 62.4625 92.158 62.643 91.6987 62.8046C91.5003 62.891 91.2958 62.9532 91.0824 62.9918C90.8394 63.1176 90.6827 63.0566 90.6098 62.8089C90.2625 62.8455 90.0189 62.9947 89.6684 63.1922C90.4718 63.3025 89.1658 63.6186 88.9923 63.6543C89.022 64.2441 89.4921 63.8268 89.8269 63.9199C89.7425 64.6711 88.4252 65.356 87.8945 65.7682C87.7807 65.5719 87.6668 65.3759 87.5517 65.1803C87.4098 65.3445 87.3044 65.5284 87.2355 65.7318C87.1996 65.9745 87.0383 66.0718 86.7529 66.0223C86.5097 66.2527 86.4627 66.1605 86.3281 66.4669C86.189 66.783 86.7312 67.3276 85.997 67.1373C86.0863 68.141 85.1002 67.6159 85.2404 67.3412C84.5294 67.3362 84.3442 68.6533 84.4673 69.1495C84.1016 68.8449 83.8983 68.9058 83.583 69.1975L83.5545 69.2227L83.572 69.2091C83.8165 69.0094 83.6125 69.7542 83.6357 69.7441L83.638 69.7399C83.0064 70.7475 82.98 69.6847 83.1509 69.1088C82.6837 69.3471 82.6389 69.881 82.2763 70.213C81.9533 70.508 81.8441 70.3933 81.5503 70.4596C81.0964 70.5615 81.2008 70.1709 81.0453 70.6945C80.9781 70.9173 81.1424 71.2894 81.1632 71.5231C81.3381 71.2332 81.2242 70.8098 81.5701 70.6224C81.5328 71.4206 80.2405 74.2668 79.4531 72.727C78.8639 73.2184 79.5981 73.6348 79.2385 74.2556C78.9056 73.9881 78.7907 73.5233 78.7894 73.118C78.6197 73.3913 78.6537 73.7135 78.5267 73.9857C78.3942 74.2705 78.2314 74.3064 78.1819 74.6065C78.1061 75.0629 78.4795 74.8089 78.3146 75.3013C78.2307 75.5469 77.7634 75.7986 77.5828 75.9498C76.9539 76.4768 76.3224 77.079 77.0435 77.799C78.1728 78.9255 80.8737 78.8257 82.335 78.9017C85.4525 79.0632 88.5175 79.5211 91.6109 79.9229C93.4737 80.1639 95.3034 80.4547 97.1423 80.8344C98.4633 81.1076 100.262 81.1897 101.059 82.4609C104.341 78.7124 108.964 76.4985 113.206 74.0482C117.802 71.3938 122.569 68.8848 127.515 66.9446C131.9 65.2228 136.474 64.3114 141.085 63.442C142.301 63.2133 144.163 62.7372 145.323 63.3941C146.038 63.7987 146.133 64.4995 145.672 65.1682C145.422 65.5303 145.113 65.4695 144.995 66.0848C144.903 66.5613 145.008 66.9066 145.169 67.3553C144.838 67.1398 144.295 67.334 144.099 66.9193L144.079 66.8729L144.069 66.926C143.931 67.7813 145.421 67.7651 145.057 68.8092L145.033 68.8728C144.903 69.1935 144.815 68.2098 144.676 68.2154C144.298 68.229 144.07 69.1338 143.937 69.3905C144.636 69.3283 144.414 69.8593 144.062 70.1488C143.812 70.3558 143.365 70.449 143.068 70.628C142.475 70.9859 141.97 71.4778 141.36 71.8225C140.692 72.2004 140.082 72.2747 139.407 72.5235C139.302 72.5623 138.892 72.7579 138.849 72.7658C138.791 72.7763 138.794 72.9568 138.745 72.9678C138.309 73.0695 137.938 72.689 137.525 72.8944C137.367 72.974 137.488 73.366 137.354 73.4689C137.206 73.5838 136.75 73.4946 136.559 73.5009C136.1 73.5163 136.025 73.4615 135.682 73.706C135.092 74.1252 134.818 74.6447 133.987 74.8083C133.338 74.937 132.904 74.8498 132.301 75.1524C131.691 75.4569 131.099 75.5658 130.497 75.7866C130.421 75.8148 130.424 76.0835 130.363 76.1077C130.164 76.1869 129.917 76.1621 129.727 76.2392C129.292 76.4171 128.94 76.5715 128.547 76.8554C126.819 78.1024 124.956 79.9087 123.664 81.6001C123.075 82.3711 121.413 84.3309 122.098 85.3109C122.539 85.9409 123.883 86.1451 124.565 86.3667C125.581 86.6978 126.619 86.9118 127.644 87.21C128.916 87.5826 130.099 88.2307 131.391 88.5372C132.638 88.8344 133.942 88.7986 135.212 88.9037C140.709 89.3553 146.146 90.3849 151.645 90.8336C154.662 91.0803 157.748 91.4198 160.723 90.6707C163.344 90.0093 165.785 88.6064 167.763 86.7737C171.362 83.44 173.678 78.9532 174.616 74.162C174.809 73.172 174.654 70.7531 175.503 70.082C176.212 69.5238 176.703 70.5721 177.228 70.9575C178.083 71.5814 179.268 71.7475 180.257 72.0596C182.706 72.8319 184.942 73.6767 187.496 74.1198C190.087 74.5677 192.697 74.8666 195.305 75.1939C200.588 75.8585 205.631 76.4816 210.96 76.0247C216.235 75.5727 221.545 75.3009 226.672 73.8651C231.157 72.6096 235.539 69.8806 238.668 66.4254C240.248 64.6816 241.397 62.5534 242.581 60.5345C243.217 59.4502 243.798 58.3347 244.265 57.1677C244.609 56.3101 245.22 55.0581 245.211 54.1222C245.202 53.284 244.726 53.4454 243.889 53.4343C242.6 53.4178 241.31 53.4496 240.02 53.432C237.42 53.3971 234.821 53.2885 232.219 53.243C229.566 53.1981 226.921 53.0511 224.304 52.5818C223.522 52.4414 222.935 52.229 222.462 53.0191C222.156 53.5278 222.26 54.6177 221.463 53.8818C220.225 55.7663 218.28 57.0032 216.473 58.2774C214.518 59.6571 212.631 61.151 210.532 62.3107C206.008 64.8115 200.805 65.1086 195.75 64.8854C190.613 64.6601 185.39 64.2443 180.448 62.7358C178.18 62.0451 176.18 60.8635 174.103 59.7516C173.125 59.2285 172.122 58.8146 171.096 58.3974C169.94 57.9266 169.188 57.143 168.129 56.5742C167.65 58.8298 165.123 59.8161 163.085 60.0966C160.537 60.4464 158.362 59.4089 156.634 57.5633C155.2 56.0312 154.73 53.5904 152.657 52.8663C150.291 52.0405 147.589 51.8691 145.113 51.6075C139.297 50.9933 133.196 50.8593 127.386 51.5489ZM159.208 65.7326C159.878 65.9634 161.938 67.9478 160.457 68.1104C159.516 68.2142 158.857 67.0819 157.832 67.3538C157.372 67.475 156.689 67.699 156.606 68.0691C156.4 68.992 157.771 69.4521 158.364 69.6508C159.277 69.9563 160.035 70.2783 160.593 71.1145C161.45 72.3978 161.838 74.5632 160.167 75.3207C158.926 75.8835 157.294 75.6768 155.997 75.4376C154.904 75.2351 153.992 74.2042 154.386 73.0652C154.497 72.7423 154.821 72.1621 155.272 72.3293C155.632 72.4606 155.492 72.7848 155.621 73.0516C156.144 74.1225 159.452 75.4192 160.032 73.6802C160.739 71.5591 157.303 71.2453 156.211 70.6547C154.798 69.8919 154.628 68.3856 155.544 67.1413C156.346 66.0515 157.861 65.2691 159.208 65.7326ZM165.41 72.1538C165.4 72.6404 165.378 73.1442 165.337 73.6282C165.302 74.0488 165.345 74.484 164.881 74.6764C164.577 74.8025 164.241 74.4966 163.959 74.7451C163.645 75.0206 163.647 73.2206 163.652 73.1184C163.693 72.4431 163.753 71.0755 164.356 70.6057C165.377 69.8096 165.423 71.5625 165.41 72.1538ZM165.093 69.3692C164.008 70.1991 163.527 68.1611 163.924 67.4486C164.911 65.6814 166.803 68.0609 165.093 69.3692ZM141.648 70.4332C141.999 70.6482 141.878 70.5225 141.936 71.173C141.555 71.223 141.567 70.6947 141.648 70.4332ZM142.897 69.7548C142.809 70.0235 143.335 70.2885 143.498 70.3141C143.501 70.2309 143.146 68.9966 142.897 69.7548ZM80.1886 71.5335C79.9227 72.0041 80.1195 72.2609 80.5898 72.0425L80.6284 72.0243L80.1886 71.5335ZM85.9525 66.7278L85.6727 66.8758C85.5476 67.0194 85.4226 67.163 85.2961 67.3054C85.6902 67.1927 85.973 67.2278 85.9525 66.7278ZM87.5089 65.9617C87.272 65.5706 86.6564 66.4417 86.6574 66.633C86.8096 66.5244 87.7849 66.4162 87.5089 65.9617ZM88.0269 64.46C87.8806 64.7102 87.9306 64.8961 88.1795 65.0171C88.3515 64.7386 88.4748 64.44 88.5481 64.1211C88.2697 63.9549 88.1 64.2284 88.0269 64.46ZM217.228 23.5634C216.744 23.8346 217.076 24.5902 217.163 25.008C217.577 26.998 218.126 28.9557 218.536 30.9456C219.11 33.7443 219.411 36.6018 220.19 39.357C220.902 41.8693 221.939 44.2784 222.598 46.8075C223.04 48.4993 222.666 50.533 224.761 50.8717C226.644 51.1765 228.747 51.0149 230.654 51.0528C233.11 51.1017 235.558 51.0154 238.013 50.9161C239.174 50.8691 240.367 50.7775 241.529 50.8509C242.212 50.8942 243.091 51.2669 243.555 50.5962C244.007 49.9441 243.87 48.3985 243.958 47.6093C244.075 46.5674 244.17 45.522 244.179 44.4727C244.201 42.0969 243.653 39.7949 243.134 37.4906C242.574 35.0068 242.092 32.5053 241.522 30.0248C241.154 28.426 240.946 25.8098 239.716 24.6022C238.97 27.726 238.982 30.9709 239.215 34.156C239.264 34.8397 239.167 38.8035 237.808 36.9963C237.432 36.4935 237.399 36.1902 236.845 35.786C236.276 35.3694 236.058 35.015 235.817 34.3289C235.379 33.086 235.228 31.9723 234.425 30.8912C232.792 28.6906 231.957 25.8605 229.666 24.1705C229.839 26.3565 229.734 28.7465 230.331 30.8679C230.708 32.2007 231.928 34.059 231.184 35.4768C230.814 36.1841 230.548 36.0067 230.012 35.7157C229.667 35.5293 229.709 35.4244 229.282 35.245C228.875 35.0741 228.57 35.1109 228.177 34.8566C226.786 33.9566 226.525 32.2007 225.969 30.7773C224.743 27.6345 221.32 25.9309 218.655 24.1566C218.365 23.9637 217.627 23.3399 217.228 23.5634ZM168.746 34.4658C166.909 35.3967 164.968 35.8617 162.904 35.6119C162.946 36.0568 163.652 36.7231 163.179 37.023C163.067 37.0946 162.365 36.8625 162.23 36.8401C161.483 36.7156 160.469 36.4775 159.72 36.7007C158.927 36.9371 159.001 37.4581 159.583 38.004C160.398 38.7702 162.261 38.6385 162.405 40.0175C162.467 40.6139 162.166 41.3946 162.141 42.0174C162.106 42.9488 162.059 43.8738 161.923 44.7975C161.689 46.3853 161.218 47.918 160.628 49.4078C160.12 50.6913 159.483 52.0383 158.403 52.9435C157.7 53.5335 157.968 53.2716 158.184 54.0297C158.328 54.5375 158.345 54.9237 157.667 54.8555C157.536 54.8276 157.405 54.7999 157.275 54.7719C159.067 57.1959 163.165 58.4595 165.72 56.5082C164.497 55.6894 165.903 53.9468 166.497 53.2087C167.386 52.103 168.31 50.8397 169.277 49.8164C170.759 48.2498 172.927 48.755 174.776 47.987C176.648 47.2096 177.929 45.7175 179.038 44.0786C180.025 42.619 181.348 40.8227 181.334 38.9672C181.331 38.6039 181.119 38.1965 181.152 37.8498C181.185 37.4963 181.392 37.4323 181.482 37.1947C181.664 36.7061 181.677 36.2187 181.665 35.679C181.625 33.9178 181.044 33.6924 179.36 33.3863C178.378 33.2077 177.389 33.0871 176.407 32.9149C175.469 32.7506 174.61 32.3502 173.684 32.1667C171.733 31.7803 170.361 33.6483 168.746 34.4658ZM174.625 45.0329C176.218 45.8158 173.887 46.6154 172.971 46.2881C166.588 43.1623 173.735 44.5957 174.625 45.0329ZM176.794 37.151C178.312 38.669 180.135 41.8665 177.189 42.8086C176.28 43.0995 174.875 43.5636 173.919 43.3915C172.555 43.1452 172.748 41.3752 174.07 41.1805C174.853 41.0652 176.715 41.5275 177.101 40.5711C177.311 40.0526 176.664 39.3155 176.533 38.8282C176.363 38.2013 176.42 37.683 176.794 37.151ZM95.3015 49.367L95.303 49.3686C95.3076 49.375 95.3162 49.3824 95.3277 49.391L95.3334 49.3948L95.3233 49.3861L95.3015 49.367ZM179.564 37.4954C180.517 37.4083 180.225 39.4753 179.783 39.8632C178.99 40.5593 178.362 37.605 179.564 37.4954ZM173.418 39.5813C172.322 39.8139 172.336 37.1445 173.337 36.9736C174.65 36.7489 174.682 39.3126 173.418 39.5813ZM182.594 34.3362C182.485 34.6178 182.819 37.2353 183.141 37.2567C183.169 36.6076 183.065 35.9667 182.999 35.3231L182.983 35.1604C182.992 35.1698 182.899 33.5419 182.594 34.3362Z" fill="#242A2B"/>
<path d="M167.502 71.1986C167.823 74.8067 164.782 78.116 160.583 78.4897C156.383 78.8635 152.806 76.1431 152.485 72.535C152.164 68.9268 155.205 65.6175 159.404 65.2438C163.604 64.8701 167.181 67.5905 167.502 71.1986Z" fill="#242A2B" stroke="#242A2B" stroke-width="0.927441"/>
<path fill-rule="evenodd" clip-rule="evenodd" d="M109.56 142.357C108.726 142.389 107.047 142.354 107.021 141.178C106.988 139.678 109.963 139.778 110.916 139.549C115.069 138.552 118.789 136.326 121.972 133.53C123.555 132.14 124.952 130.548 126.606 129.239C126.927 128.984 127.703 128.256 128.178 128.561C128.747 128.928 128.234 129.977 127.971 130.379C126.954 131.934 125.235 133.367 123.926 134.68C122.18 136.433 120.285 138.056 118.188 139.382C115.655 140.983 112.587 142.237 109.56 142.357Z" fill="#242A2B"/>
<path fill-rule="evenodd" clip-rule="evenodd" d="M197.286 107.232C197.815 107.877 198.802 109.237 197.88 109.968C196.704 110.9 194.987 108.469 194.229 107.847C190.926 105.14 186.905 103.52 182.755 102.671C180.691 102.249 178.578 102.097 176.535 101.569C176.138 101.467 175.089 101.289 175.046 100.726C174.994 100.051 176.141 99.8261 176.62 99.7926C178.473 99.6648 180.654 100.169 182.491 100.419C184.943 100.752 187.381 101.281 189.704 102.152C192.51 103.204 195.362 104.892 197.286 107.232Z" fill="#242A2B"/>
<path fill-rule="evenodd" clip-rule="evenodd" d="M123.487 142.168C122.793 142.459 120.966 143.543 120.537 142.407C120.052 141.119 123.244 139.997 124.034 139.44C124.45 139.145 126.244 137.672 126.8 138.118C127.958 139.047 124.012 141.776 123.487 142.168Z" fill="#242A2B"/>
<path fill-rule="evenodd" clip-rule="evenodd" d="M188.723 96.2455C189.375 96.6231 191.342 97.4251 190.695 98.4526C189.961 99.6173 187.139 97.7507 186.218 97.458C185.733 97.3041 183.474 96.7642 183.494 96.0514C183.535 94.5672 188.093 96.0642 188.723 96.2455Z" fill="#242A2B"/>
</g>
<path d="M54.0017 107.071C48.6677 101.297 54.2407 87.1888 57.694 80.8563C65.4875 81.5017 81.3589 83.4812 82.4967 86.2364C83.9189 89.6803 87.7719 95.3626 86.4829 95.9236C85.4517 96.3724 81.5233 93.6871 79.6879 92.2884C79.2555 97.4594 83.9697 105.297 78.9563 106.635C73.4655 107.124 71.3998 97.7866 71.0532 93.0568C71.0126 96.7796 70.3381 105.082 67.965 108.506C65.3007 112.671 62.767 101.084 61.8332 94.7699C59.5066 101.225 57.9869 106.716 54.0017 107.071Z" fill="#ECB135"/>
<path d="M205.677 53.6286C202.729 44.7416 197.172 26.7589 198.526 25.9243C200.218 24.8811 207.603 25.1165 211.968 36.5552L212.474 24.683C215.554 27.3202 219.493 33.0002 221.524 37.1007C221.225 33.1672 221.293 25.6164 222.614 25.789C224.646 26.0545 233.844 46.6589 228.477 54.0543L205.677 53.6286Z" fill="#ECB135"/>
<path d="M144.859 44.7582L142.227 42.7609L141.714 37.0045L151.687 31.2076L162.314 30.2619L165.321 36.4658L166.999 42.788L159.96 51.448C157.611 52.0404 153.054 53.161 153.618 52.905C150.331 54.0901 150.415 57.8763 150.868 59.6212C143.715 64.4977 140.344 59.2188 140.088 56.3406C143.181 54.9941 144.558 48.058 144.859 44.7582Z" fill="#ECB135"/>
<ellipse cx="156.539" cy="40.5952" rx="1.33366" ry="1.55594" transform="rotate(-5.08541 156.539 40.5952)" fill="white"/>
<ellipse cx="162.596" cy="40.9489" rx="1.11138" ry="1.55594" transform="rotate(-5.08541 162.596 40.9489)" fill="white"/>
<path fill-rule="evenodd" clip-rule="evenodd" d="M58.053 81.1844C66.375 82.629 74.6435 84.4638 82.919 86.1521C83.8499 86.3422 83.8512 86.3876 84.619 85.8268C86.7072 84.3015 88.8425 82.8389 91.0092 81.427C97.5432 77.1697 104.333 73.6228 111.721 71.0947C116.955 69.3014 122.306 67.7735 127.697 66.5216C127.294 68.2797 126.375 70.1573 125.151 71.4785C124.201 72.5037 122.839 73.1388 121.609 73.7527C117.95 75.5771 114.073 76.9699 110.494 78.9558C106.843 80.9801 104.753 84.7002 104.394 88.8322C104.326 89.605 104.344 89.7198 105.003 90.0479C105.741 90.4158 106.614 90.5924 107.409 90.7866C113.791 92.3462 120.44 93.0646 126.96 93.7744C130.422 94.1528 133.89 94.4811 137.366 94.6843C139.524 94.8107 141.811 95.0354 143.962 94.7168C153.181 93.3505 157.692 81.8304 159.741 74.1276C168.517 77.9191 178.382 79.9637 187.885 80.5271C199.407 81.2119 213.74 80.03 221.984 70.8487C225.91 66.4754 228.058 60.8367 229.505 55.2202C223.156 55.2405 216.8 54.8539 210.468 54.454C209.361 54.3841 208.255 54.3113 207.149 54.2353C206.705 54.2046 206.01 54.0182 205.567 54.1236C204.895 54.2831 204.082 55.0999 203.507 55.4811C199.107 58.4017 194.533 61.1291 189.73 63.3363C187.156 64.5181 184.472 65.6014 181.679 66.1322C178.683 66.7013 175.532 66.3594 172.548 65.881C165.06 64.6806 157.121 62.2291 150.611 58.2577C149.314 60.5087 146.759 62.1824 144.111 61.3876C141.212 60.5171 139.393 57.7189 137.678 55.4372C137.053 54.6064 136.022 54.692 134.982 54.5231C132.078 54.0512 129.151 53.7165 126.219 53.4833C116.59 52.7181 106.788 53.0402 97.3127 55.0022C88.0679 56.917 79.1383 60.7496 71.3048 66.0128C67.8969 68.3025 64.611 70.8965 61.8842 73.9828C60.1628 75.9318 58.1718 78.4601 58.053 81.1844Z" fill="#FFF5F7"/>
<path d="M70.5302 65.5476L93.6593 78.7713L88.3563 82.6271L67.5177 70.9011L70.5302 65.5476Z" fill="#6CBBD7"/>
<path d="M222.589 70.6447L200.497 58.1057L204.816 54.5649L225.113 66.4033L222.589 70.6447Z" fill="#6CBBD7"/>
<path d="M107.727 80.8666L152.821 88.5754L152.337 91.1787L107.243 83.4698L107.727 80.8666Z" fill="#6CBBD7"/>
<path d="M124.461 70.8015L158.768 77.6634L158.284 80.2666L123.977 73.4048L124.461 70.8015Z" fill="#6CBBD7"/>
<rect x="84.2725" y="57.7605" width="26.9454" height="3.57094" transform="rotate(29.3666 84.2725 57.7605)" fill="#6CBBD7"/>
<path d="M212.332 78.2517L189.737 65.0877L192.778 64.1477L215.096 76.5155L212.332 78.2517Z" fill="#6CBBD7"/>
<path d="M104.254 52.8896L126.307 65.299L124.349 67.5606L100.707 55.1594L104.254 52.8896Z" fill="#6CBBD7"/>
<path d="M188.258 81.0635L163.858 65.1594L166.455 64.2587L192.607 79.7839L188.258 81.0635Z" fill="#6CBBD7"/>
<path fill-rule="evenodd" clip-rule="evenodd" d="M80.8211 17.3935C83.8399 18.1143 86.6129 19.3214 89.3473 20.7708C90.6787 21.4773 92.0239 22.323 93.4668 22.7787C94.7473 23.1828 96.117 23.2967 97.4238 23.6062C103.276 24.9931 109.478 24.825 115.097 22.4909C120.825 20.1115 125.472 15.6828 131.454 13.891C137.288 12.1436 143.356 11.8753 149.259 13.5741C152.126 14.3994 154.624 15.9925 157.146 17.5359C159.562 19.015 162.088 20.4611 164.042 22.5487C165.961 24.5988 167.201 27.2523 168.198 29.8512C168.771 31.3501 169.116 32.9199 169.226 34.5222C169.303 35.6433 168.809 36.7769 169.253 37.8277C169.876 39.3013 170.686 40.3531 170.653 42.0583C170.625 43.4317 170.112 44.6588 169.231 45.6995C168.326 46.7673 167.2 47.5456 165.916 48.0881C164.945 48.4985 164.622 48.4453 163.964 47.6254C162.468 49.2428 161.472 51.2074 159.521 52.3615C158.552 52.9348 157.536 53.2597 156.429 53.4297C155.589 53.5585 154.816 53.6519 154.149 54.229C153.448 54.835 150.926 57.4837 152.056 58.3367C152.716 58.8343 154.15 58.8169 154.956 59.065C156.082 59.4119 157.176 59.863 158.22 60.4123C162.036 62.4224 165.756 63.5566 170.022 64.2288C174.45 64.9253 178.87 65.1234 183.342 64.7415C187.403 64.3948 191.629 63.7082 195.247 61.7284C196.985 60.7788 198.635 59.5775 199.997 58.1355C201.356 56.6968 202.1 54.7983 203.508 53.4469C204.419 52.572 203.403 51.4404 203.004 50.3863C202.192 48.242 201.497 45.7807 201.107 43.5235C200.729 41.3307 200.229 39.1552 199.642 37.0044C199.021 34.7241 197.962 32.6445 197.148 30.4359C196.549 28.8074 195.92 26.8894 196.292 25.1388C196.477 24.2703 196.972 23.3258 197.754 22.8497C198.455 22.4236 198.935 22.7284 199.588 22.6312C201.501 22.3469 203.056 22.9991 204.621 24.1534C205.467 24.777 206.429 25.3033 207.241 25.963C207.872 26.4761 208.091 27.3751 208.756 27.8207C209.542 25.1346 210.313 21.7403 213.894 22.9177C216.727 23.8496 217.47 28.2319 218.998 30.4149C219.689 29.7359 219.665 28.5213 219.878 27.6416C220.098 26.731 220.52 25.7527 221.176 25.0642C222.609 23.5602 224.552 23.9399 225.768 25.4806C226.418 26.3042 226.166 27.3384 226.811 28.1515C227.45 28.9578 227.364 29.9742 227.683 30.9512C228.086 32.1896 228.55 33.4041 228.899 34.6618C229.059 35.2433 229.276 35.8957 229.304 36.5048C229.314 36.7573 229.149 37.2079 229.234 37.4507C229.344 37.7683 229.756 38.0262 229.925 38.3351C230.155 38.7498 230.113 39.07 230.174 39.5136C230.283 40.312 230.557 40.9507 230.857 41.7222C231.615 43.6654 231.692 46.2034 231.003 48.1688C230.644 49.1878 230.395 49.9277 230.356 50.9874C230.331 51.6715 229.876 52.3333 229.971 53.0577C230.104 54.0662 232.95 55.3864 230.873 56.247C230.005 56.6079 229.8 56.4776 229.648 57.5188C229.495 58.5534 229.31 59.5629 228.998 60.5621C228.339 62.6842 227.257 64.6272 226.247 66.5957C225.156 68.7255 223.994 70.7946 222.25 72.466C220.632 74.0164 218.736 75.3292 216.837 76.5099C212.836 78.9975 208.28 80.594 203.566 80.8984C198.539 81.2226 193.493 82.1494 188.446 81.7394C183.28 81.32 178.186 80.3174 173.031 79.8007C170.715 79.5678 168.551 79.2813 166.383 78.3917C164.185 77.4888 161.989 76.5614 159.942 75.3439C158.899 78.6375 158.481 82.0108 156.841 85.1006C155.411 87.7985 153.625 90.3728 151.34 92.4188C149.108 94.4186 146.104 96.0321 143.103 96.4155C142.187 96.5318 140.74 96.2538 140.142 97.0056C139.843 97.38 139.87 98.0722 139.78 98.5285C139.624 99.3051 139.367 100.072 139.256 100.857C139.089 102.046 140.185 101.968 141.187 102.356C142.53 102.876 143.847 103.458 145.154 104.061C146.489 104.678 147.776 105.41 149.112 106.016C150.259 106.535 151.43 106.911 152.544 107.516C155.178 108.946 158 109.805 160.785 110.876C163.768 112.022 166.686 113.336 169.628 114.582C175.454 117.049 181.307 119.628 186.87 122.652C189.467 124.064 191.974 125.551 194.626 126.869C197.099 128.098 199.925 129.543 201.627 131.769C202.955 133.506 204.706 134.228 206.72 135.06C207.906 135.55 208.619 135.599 209.454 134.551C210.274 133.521 211.063 132.499 211.937 131.509C215.518 127.447 218.502 123.086 221.383 118.521C223.523 115.132 226.505 111.025 231.015 111.325C232.366 111.414 233.307 111.957 234.371 112.743C235.093 113.275 236.336 113.556 236.85 114.283C237.147 114.704 237.306 115.261 237.607 115.704C237.922 116.166 238.302 116.61 238.531 117.124C238.918 117.997 238.382 119.485 239.107 120.159C239.638 120.652 239.302 121.956 239.223 122.575C239.08 123.718 238.974 124.874 238.685 125.991C238.457 126.87 238.264 128.065 237.683 128.787C237.167 129.432 236.492 129.434 236.732 130.448C236.097 130.297 235.698 131.822 235.556 132.21C235.178 133.253 234.74 134.122 234.061 135.018C232.343 137.286 230.289 138.9 227.938 140.453C227.08 141.02 225.273 141.864 225.163 143.007C225.059 144.104 225.753 144.927 225.421 146.119C224.735 148.598 222.935 151.309 221.455 153.392C220.123 155.266 218.784 156.559 216.364 156.362C214.219 156.187 212.035 155.295 210.171 154.257C207.925 153.005 205.586 152.122 203.198 151.183C202.024 150.72 200.852 150.301 199.805 149.58C198.832 148.91 197.97 148.134 196.869 147.67C196.086 147.338 195.084 147.144 194.693 146.287C194.266 145.352 194.834 144.696 195.301 143.957C195.616 143.462 195.806 143.371 195.466 143.027C195.194 142.751 194.501 142.559 194.147 142.407C193.292 142.041 192.441 141.732 191.612 142.29C190.687 142.914 190.12 144.083 189.462 144.956C188.674 146 187.772 146.967 186.891 147.934C185.146 149.853 183.202 151.605 181.504 153.56C181.116 154.007 180.372 155.118 179.655 154.984C179.124 154.885 179.369 154.554 179.081 154.342C178.771 154.113 178.527 154.132 178.135 153.888C177.16 153.286 176.765 151.997 175.742 151.374C174.692 150.733 173.429 150.318 172.308 149.813C167.195 147.509 162.187 144.979 157.435 141.993C155.052 140.495 152.78 138.841 150.46 137.252C149.367 136.503 148.253 135.676 147.06 135.096C145.973 134.565 144.788 134.233 143.683 133.73C141.316 132.654 138.818 131.89 136.471 130.77C135.367 130.243 134.516 129.48 133.479 128.876C132.571 128.347 131.828 128.052 131.115 127.228C130.871 127.92 129.966 127.127 129.649 126.949C129.398 126.81 129.087 126.723 128.851 126.56C128.616 126.393 128.446 125.995 128.268 125.881C127.873 125.63 127.449 125.732 126.938 125.598C126.253 125.419 125.321 124.864 124.769 124.425C124.387 124.121 124.985 124.333 124.353 123.976C124.058 123.81 123.578 123.8 123.248 123.626C122.466 123.211 121.731 122.654 120.978 122.187C119.611 121.342 117.878 120.615 117.019 119.184C113.401 122.736 109.941 126.551 105.672 129.349C101.549 132.051 96.6363 133.548 92.1558 135.559C87.5452 137.626 82.8889 139.708 78.1778 141.532C75.8868 142.419 73.5059 143.122 71.1436 143.793C68.72 144.483 66.2766 144.558 63.8268 145.044C62.6224 145.284 61.4012 145.35 60.1968 145.575C59.0873 145.783 58.0266 146.164 56.9286 146.411C55.9603 146.629 54.846 146.617 53.9271 146.967C53.2528 147.224 52.401 147.998 51.8149 147.142C51.4939 147.73 51.3525 147.479 50.8661 147.486C50.3475 147.493 50.1942 147.53 49.6983 147.672C48.8918 147.901 47.993 148.042 47.2386 147.46C47.0228 148.643 43.8426 147.868 43.4069 147.137C43.1002 148.397 39.257 147.675 39.1005 146.533C38.9675 145.565 39.4885 144.111 39.6742 143.175C39.9757 141.647 40.3838 140.142 40.8182 138.648C41.277 137.067 41.7522 135.49 42.2288 133.914C42.4388 133.221 42.632 132.52 42.8819 131.839C43.0036 131.507 43.3526 130.994 43.3145 130.626C43.1985 129.548 41.2573 129.643 40.4155 129.446C39.7786 129.297 39.1315 129.138 38.5183 128.909C38.0738 128.741 37.5196 128.317 37.0425 128.293C35.9471 128.24 36.3016 129.442 36.2504 130.205C36.1865 131.186 35.6972 131.732 34.6728 131.83C33.476 131.944 29.8781 130.189 29.3738 131.815C29.1366 132.578 29.3445 133.982 29.3046 134.782C29.238 136.094 29.4243 137.375 29.7171 138.651C30.1972 140.752 31.3978 143.356 30.4972 145.492C28.6995 149.756 20.992 147.969 18.3728 145.618C14.5173 142.157 14.1162 136.492 15.397 131.772C16.0183 129.477 16.9946 126.989 18.3871 125.043C19.0059 124.178 20.2501 123.287 20.3789 122.164C20.4873 121.231 19.7006 120.451 19.7671 119.499C19.846 118.371 20.7272 117.611 21.4744 116.865C22.2521 116.086 23.0018 115.247 23.9106 114.618C26.0144 113.162 28.5952 113.698 30.8801 114.427C33.3783 115.223 35.8065 116.375 38.0899 117.658C39.2211 118.295 40.1823 118.872 41.4764 119.113C42.4696 119.297 43.4718 119.477 44.4664 119.645C45.4063 119.803 46.1963 119.913 46.7695 119.062C47.4008 118.125 47.6043 117.751 48.8291 117.604C50.1319 117.448 51.4462 117.405 52.757 117.339C53.0341 117.325 53.6518 117.183 53.8899 117.394C54.102 117.581 53.8599 118.033 54.052 118.147C54.3557 118.326 55.7705 115.895 56.0747 117.734C56.0823 116.828 57.065 117.179 57.6013 117.251C57.7963 117.276 57.9919 117.31 58.1842 117.335C58.3839 117.248 58.5599 117.286 58.7108 117.448C58.9298 117.474 59.0699 117.378 59.1269 117.162C61.4088 116.925 63.7277 116.863 66.0168 116.648C68.6641 116.397 71.3264 116.135 73.917 115.518C74.8762 115.289 75.8319 115.006 76.7944 114.8C77.2357 114.706 77.6143 114.72 78.0524 114.711C78.2143 114.726 78.3636 114.779 78.5027 114.869C78.5575 114.733 78.6482 114.624 78.7736 114.545C80.3964 113.909 82.0809 113.425 83.737 112.848C84.8961 112.445 85.87 112.126 87.0428 111.937L87.2645 111.903L87.751 112.001C87.8049 111.825 87.9061 111.684 88.0543 111.575C88.4253 111.383 88.7465 111.293 89.1582 111.213C90.7935 110.898 92.4147 110.771 93.9533 110.392C94.7638 110.191 97.7241 109.458 98.3503 110.224C98.6867 109.193 101.865 110.273 102.707 109.606C101.15 107.835 100.364 105.861 99.767 103.604C99.1161 101.146 98.6129 98.5442 99.0249 96.0011C99.4051 93.6577 100.468 91.1932 102.064 89.4267C103.607 87.717 103.835 85.818 104.786 83.7944C106.767 79.5769 110.399 76.7847 114.559 74.9239C116.824 73.9114 119.139 73.0296 121.43 72.0804C123.291 71.3086 124.817 70.3057 125.621 68.3808C117.47 69.1061 109.897 72.3292 102.707 76.0602C99.1296 77.9161 95.5747 79.8315 92.0544 81.7907C90.2617 82.788 88.494 83.8405 86.8489 85.0681L86.3933 85.4071C85.864 85.8048 85.3381 86.2102 84.8506 86.6564C84.7343 86.7631 84.0885 87.2206 84.0605 87.3569C83.8403 88.4163 85.702 89.9233 86.2268 90.7678C86.9394 91.9194 87.6582 93.2752 87.8536 94.6281C88.087 96.2439 87.1239 97.1499 85.497 96.9575C83.5091 96.7235 81.8867 95.2287 80.2352 94.2342C79.9825 95.3045 80.5349 96.4583 80.8665 97.4485C81.3233 98.8075 81.778 100.187 82.1395 101.573C82.6498 103.534 82.6134 105.801 80.7254 107.021C75.9168 110.126 72.7213 103.344 71.3847 99.9328C70.7375 100.495 70.98 102.317 70.9207 103.095C70.8074 104.589 70.668 106.195 70.1338 107.605C69.7254 108.685 68.982 109.97 67.7387 110.193C66.3912 110.435 65.192 109.364 64.488 108.34C63.2694 106.571 62.8377 104.517 62.5682 102.436C62.5087 101.978 62.2638 97.7069 61.7869 97.6262C60.6387 100.197 60.119 102.988 58.7205 105.468C57.4954 107.64 55.5028 109.217 53.3883 107.019C50.116 103.616 50.5872 98.2349 51.4284 94.0037C51.916 91.5436 52.6681 89.1684 53.7651 86.9096C54.2197 85.9726 54.8068 85.2473 55.4009 84.4049C55.8889 83.7085 56.0731 83.387 55.7704 82.6619C55.595 82.2399 55.4635 82.2356 55.5428 81.7441C55.6012 81.3923 55.8276 80.944 55.9491 80.6106C56.3005 79.6574 56.6729 78.7143 57.1245 77.8043C58.0915 75.8596 59.4938 74.1892 60.9857 72.6233L61.135 72.4668L61.1276 72.4742C61.0326 72.579 61.7381 71.9354 61.722 71.9355L61.7181 71.9372L61.737 71.9235C61.9996 71.7168 62.0524 71.1072 62.4173 71.614L62.4448 71.6518C62.4238 70.8601 63.0477 70.3523 63.5767 69.8609C63.7745 69.6774 63.9666 69.4301 64.2154 69.309C64.3872 69.2241 64.8101 69.2547 64.9317 69.1475C65.1674 68.9392 65.2582 68.5609 65.4777 68.321C65.6985 68.0809 66.02 67.9493 66.2787 67.7582C66.9128 67.2897 67.4829 66.7345 68.0973 66.2407C69.4023 65.1913 70.7765 64.2281 72.1945 63.3358C75.1748 61.4584 78.374 59.8765 81.5907 58.4461C84.4252 57.1855 87.3723 55.989 90.3106 54.993C93.3255 53.9706 96.5815 53.8685 99.7006 53.281C106.061 52.0827 112.843 51.6067 119.312 51.662C122.481 51.6892 125.649 51.8907 128.801 52.2148C131.86 52.5287 135.046 52.9123 137.856 54.2468C138.454 54.5312 139.578 55.5139 140.241 55.4152C140.8 55.332 141.195 54.2524 141.423 53.8205C141.963 52.7949 142.672 51.8335 143.114 50.7641C143.658 49.4472 143.868 48.0025 144.244 46.6343C141.984 47.1533 139.599 47.5716 137.325 46.8904C135.266 46.2734 133.784 44.8061 132.169 43.473C130.467 42.069 128.698 41.1725 126.447 41.2299C123.894 41.2948 121.685 42.4099 119.425 43.467C114.65 45.7006 109.892 48.1111 104.934 49.9166C102.512 50.7988 100.007 51.5482 97.4456 51.8947C96.1418 52.0707 94.8116 52.1298 93.5373 52.487C93.0099 52.6347 92.8567 52.7327 92.4107 52.5334C92.4707 52.5607 91.7848 51.6194 91.7011 52.0169C91.6188 52.4002 91.8319 52.675 91.5303 52.9852C91.176 53.3494 90.3293 53.2629 89.8811 53.2645C89.2096 53.267 88.6598 53.088 88.0051 52.9947C86.9927 52.8505 85.8951 53.1025 84.8748 53.0653C84.3996 53.0482 84.0491 52.96 83.6154 52.8677C83.1612 52.771 83.4468 52.763 82.9863 52.7455C82.5781 52.73 82.3545 52.8034 81.8518 52.688C81.4023 52.5848 80.99 52.5229 80.5333 52.4585C80.116 52.3998 79.7702 52.2579 79.3805 52.1804C79.871 52.2779 78.7398 51.942 78.7978 52.053L78.8025 52.0601L78.7981 52.0565C78.6681 51.9334 78.5061 51.6771 78.2674 51.6562L78.2191 51.6553C79.0974 52.7728 75.5897 51.8216 75.358 51.7732C73.4298 51.3691 71.3921 50.2438 69.4205 50.299C67.4957 50.3528 65.7545 51.8232 64.2992 52.9282C62.5419 54.2628 60.7934 55.6063 59.0438 56.9521C55.1776 59.9267 50.9471 62.6561 46.488 64.6517C44.3182 65.6224 42.0805 66.4453 39.871 67.3154C38.8742 67.7076 37.7687 67.9307 36.8286 68.4498C36.1935 68.8007 35.3193 69.7591 34.5826 69.0445C34.3734 69.7457 33.0639 69.8273 32.5122 69.8976C32.4275 69.9083 32.5787 70.0585 32.3823 70.0624C32.0937 70.0676 31.9919 69.7957 31.761 69.7575C31.2912 69.6804 31.2591 69.8615 30.8207 70.0775C30.2502 70.3581 30.3441 70.1509 29.8176 70.1434C29.5148 70.1392 29.2134 70.3316 28.9142 70.3676C28.7924 70.3825 28.615 70.1939 28.4387 70.2126C28.2704 70.2308 27.8915 70.4684 27.6701 70.522C27.116 70.6564 26.4499 70.6592 25.8807 70.6844C25.0676 70.7203 16.8861 70.7188 17.3179 68.9698C16.4209 69.9579 14.0249 68.6865 12.9649 68.3091C12.5711 68.1687 12.5308 68.0017 12.2995 67.8244C12.3383 67.5831 12.228 67.4868 11.9687 67.5353C11.9124 67.5339 11.8561 67.5327 11.7998 67.5312C11.3321 67.343 11.1732 67.3623 10.7818 66.9941C10.259 66.5026 9.34247 66.0976 9.03363 65.424C8.95062 65.2431 8.9923 64.9145 8.91287 64.7737C8.80982 64.5931 8.58472 64.635 8.51936 64.487C8.49603 64.4353 8.55249 64.0774 8.54535 64.0723C8.10451 63.7649 7.54016 63.9795 7.02681 63.6091C5.61086 62.5846 4.61317 60.3655 4.0901 58.7732C2.72257 54.6087 2.00348 50.3626 3.56661 46.1693C4.3259 44.1305 5.30344 42.1686 6.40944 40.2968C6.7153 39.779 7.02322 39.1039 7.43275 38.6534C7.61547 38.4512 7.875 38.39 7.9621 38.271C8.4301 37.6355 8.63351 36.8537 9.2795 36.2184C9.99934 35.5107 10.707 34.7861 11.5176 34.1817C12.2631 33.6265 13.215 33.2264 13.8969 32.7086C14.0836 32.5665 13.9984 32.3761 14.2004 32.209C14.4148 32.0318 14.7084 31.9934 14.9592 31.8941C15.2578 31.7767 15.6227 31.5767 15.9389 31.521C16.5278 31.4165 16.7434 31.5689 17.2284 31.951C17.0839 30.3272 20.0536 29.8351 21.2628 29.7246C21.8203 29.6734 24.602 29.1737 24.6236 30.0333C25.1871 29.1321 27.1853 29.5873 28.0522 29.7655C29.0935 29.9787 29.8009 30.6645 30.5207 31.4002C30.6192 31.138 30.7176 30.8756 30.816 30.6134C31.012 30.7258 31.6551 30.8847 31.4849 31.2427C32.1578 30.5333 31.7934 31.1007 32.4289 31.1598C32.7082 31.1856 32.9355 31.063 33.2219 31.003C33.2798 31.3827 33.1249 31.5214 32.9122 31.8086C33.4801 31.7688 35.6372 31.3488 34.0889 32.2043C34.3382 32.5706 35.3485 32.3442 35.7129 32.3641C35.9052 32.3747 36.3814 32.3422 36.5066 32.4715C36.5904 32.5565 36.4816 32.8216 36.4995 32.8426C36.672 33.0372 36.3629 33.1725 36.6829 33.2047C36.7613 33.2127 36.9849 32.9446 37.0408 32.9406C37.4503 32.9107 37.1563 32.855 37.5946 32.8789C37.7506 32.8872 38.0595 33.0355 38.2583 33.0584C41.2728 33.4008 44.6891 30.7992 46.6828 28.843C49.0655 26.5056 51.102 24.0527 54.0696 22.409C56.9403 20.8191 60.1771 19.4789 63.2867 18.439C69.0369 16.5161 74.8684 15.9724 80.8211 17.3935ZM167.608 145.667C167.708 145.71 167.807 145.752 167.907 145.794C168.036 145.713 168.165 145.632 168.295 145.552C167.891 145.402 167.857 145.323 167.608 145.667ZM198.409 134.462C197.736 134.974 197.216 136.044 196.646 136.705C195.846 137.632 195.003 138.522 194.162 139.412C195.247 139.684 196.907 141.027 197.987 140.256C198.521 139.874 198.792 138.866 199.103 138.317C199.584 137.466 200.163 136.657 200.748 135.875C201.351 135.07 199.113 133.924 198.409 134.462ZM130.283 125.053C130.576 125.146 131.255 125.772 130.99 126.036C130.669 125.726 130.257 125.518 130.283 125.053ZM38.6909 122.336C38.2154 122.828 37.7166 123.81 37.4103 124.427C37.064 125.123 37.0791 125.457 37.7356 125.842C39.0048 126.587 40.761 126.682 42.1797 126.956C42.9368 127.102 43.8977 127.555 44.4656 126.825C45.0276 126.103 44.9184 124.86 45.1249 124.008C45.2909 123.317 45.4748 122.632 45.6505 121.945C44.3583 122.191 43.0475 122.317 41.739 122.139C40.7895 122.011 39.4507 121.552 38.6909 122.336ZM58.0458 84.6687C57.1204 86.1935 56.3166 87.7919 55.628 89.4376C54.488 92.1604 53.669 95.0167 53.2479 97.9392C52.9505 100.01 52.5046 102.924 53.7705 104.773C56.5282 108.801 60.2692 96.1341 60.8921 94.7887C61.2637 93.9875 61.872 93.1091 62.7133 94.0218C63.4035 94.77 63.3164 96.0771 63.4298 97.0211C63.7653 99.8281 63.6723 103.234 65.0337 105.781C65.4802 106.618 66.5703 107.785 67.6385 107.293C68.5973 106.85 68.9395 105.102 69.168 104.195C69.8887 101.332 70.2728 97.8747 70.043 94.9311C69.9959 94.3412 69.1186 90.4838 70.5616 91.2251C71.5054 91.7112 71.7134 94.4546 71.8796 95.3444C72.5314 98.8192 73.7526 104.708 78.1518 104.911C79.1206 104.956 80.1837 104.632 80.6674 103.722C81.2693 102.591 80.4404 101.216 80.0973 100.113C79.5041 98.2134 78.8497 96.2577 78.6296 94.266C78.4956 93.0455 78.4355 91.0022 80.1942 91.322C82.3145 91.7061 83.4304 94.3353 85.7632 94.22C85.716 93.6742 85.3751 93.2576 85.0797 92.8249C84.1215 91.4262 82.5026 90.3003 81.8479 88.718C81.6344 88.1991 81.7356 87.3805 81.3653 86.9638C81.016 86.5721 80.3014 86.5273 79.8216 86.4736C76.6254 86.1198 73.4635 85.5354 70.2745 85.0818C66.8647 84.5984 63.6935 84.0296 60.4432 82.9325C58.9781 82.438 58.7498 83.5114 58.0458 84.6687ZM134.89 99.9539C135.37 100.132 135.847 100.318 136.333 100.484C136.754 100.628 136.9 100.471 137.029 100.078C136.73 100.043 135.03 99.6042 134.89 99.9539ZM110.887 54.242C104.93 54.9487 99.0978 55.5446 93.312 57.2026C90.5444 57.9956 87.8402 58.8698 85.1485 59.8856C84.0105 60.3148 83.0131 60.7455 82.0539 61.4849C81.697 61.7597 80.7633 62.6059 80.5323 61.7543C80.072 62.281 79.2231 63.8395 78.3458 63.0937C78.2577 63.6971 77.8166 63.7179 77.4057 63.9569C77.2619 64.0409 77.201 64.2885 77.0136 64.3931C76.9677 64.4191 76.9204 64.0829 76.8496 64.0836C76.5915 64.0861 76.4377 64.6436 76.3026 64.7943C75.9775 65.1556 75.659 65.3361 75.1997 65.4977C75.0013 65.5841 74.7967 65.6463 74.5834 65.6849C74.3403 65.8107 74.1837 65.7497 74.1108 65.502C73.7635 65.5386 73.5198 65.6878 73.1694 65.8854C73.9727 65.9956 72.6667 66.3117 72.4933 66.3474C72.523 66.9373 72.993 66.5199 73.3278 66.613C73.2435 67.3642 71.9261 68.0491 71.3954 68.4613C71.2816 68.2651 71.1678 68.069 71.0527 67.8734C70.9108 68.0377 70.8054 68.2215 70.7365 68.4249C70.7006 68.6676 70.5393 68.7649 70.2538 68.7154C70.0107 68.9458 69.9637 68.8536 69.8291 69.16C69.6899 69.4761 70.2322 70.0207 69.498 69.8304C69.5873 70.8341 68.6012 70.309 68.7414 70.0343C68.0304 70.0293 67.8451 71.3465 67.9683 71.8427C67.6026 71.538 67.3993 71.5989 67.084 71.8906L67.0555 71.9159L67.073 71.9023C67.3175 71.7025 67.1135 72.4473 67.1367 72.4372L67.1389 72.433C66.5073 73.4406 66.481 72.3778 66.6519 71.8019C66.1847 72.0402 66.1399 72.5741 65.7773 72.9061C65.4543 73.2011 65.3451 73.0864 65.0513 73.1527C64.5973 73.2546 64.7017 72.864 64.5463 73.3877C64.4791 73.6104 64.6434 73.9825 64.6641 74.2162C64.8391 73.9263 64.7251 73.5029 65.0711 73.3155C65.0337 74.1137 63.7415 76.9599 62.9541 75.4202C62.3649 75.9115 63.0991 76.3279 62.7395 76.9487C62.4066 76.6812 62.2916 76.2164 62.2904 75.8111C62.1207 76.0845 62.1547 76.4066 62.0277 76.6788C61.8952 76.9636 61.7324 76.9995 61.6829 77.2996C61.607 77.756 61.9805 77.502 61.8156 77.9944C61.7317 78.24 61.2644 78.4917 61.0838 78.6429C60.4549 79.1699 59.8234 79.7721 60.5445 80.4921C61.6738 81.6187 64.3746 81.5188 65.836 81.5948C68.9535 81.7563 72.0185 82.2142 75.1119 82.616C76.9747 82.857 78.8044 83.1479 80.6433 83.5275C81.9643 83.8007 83.7634 83.8828 84.5603 85.154C87.8424 81.4055 92.4654 79.1916 96.7074 76.7413C101.303 74.0869 106.07 71.5779 111.016 69.6377C115.401 67.9159 119.974 67.0045 124.586 66.1351C125.802 65.9065 127.664 65.4303 128.824 66.0872C129.539 66.4918 129.634 67.1926 129.173 67.8613C128.923 68.2234 128.614 68.1626 128.496 68.7779C128.404 69.2544 128.509 69.5998 128.67 70.0484C128.339 69.8329 127.796 70.0272 127.6 69.6124L127.58 69.566L127.57 69.6191C127.432 70.4744 128.922 70.4582 128.558 71.5023L128.534 71.5659C128.404 71.8866 128.316 70.9029 128.177 70.9086C127.799 70.9221 127.571 71.8269 127.438 72.0836C128.137 72.0215 127.915 72.5524 127.563 72.8419C127.313 73.0489 126.866 73.1422 126.569 73.3212C125.976 73.679 125.471 74.1709 124.861 74.5156C124.193 74.8935 123.583 74.9679 122.908 75.2166C122.803 75.2554 122.393 75.4511 122.35 75.4589C122.292 75.4695 122.295 75.6499 122.246 75.6609C121.81 75.7626 121.439 75.3822 121.026 75.5875C120.868 75.6671 120.989 76.0591 120.855 76.162C120.707 76.2769 120.251 76.1877 120.06 76.194C119.601 76.2094 119.526 76.1546 119.183 76.3991C118.593 76.8183 118.319 77.3378 117.488 77.5014C116.839 77.6301 116.405 77.5429 115.802 77.8455C115.192 78.15 114.6 78.2589 113.998 78.4797C113.922 78.5079 113.925 78.7767 113.864 78.8008C113.665 78.8801 113.418 78.8552 113.228 78.9323C112.793 79.1102 112.441 79.2646 112.048 79.5485C110.32 80.7955 108.457 82.6019 107.165 84.2932C106.576 85.0642 104.914 87.024 105.599 88.0041C106.04 88.634 107.384 88.8382 108.066 89.0598C109.082 89.3909 110.12 89.605 111.145 89.9032C112.417 90.2757 113.6 90.9238 114.892 91.2303C116.139 91.5275 117.443 91.4917 118.713 91.5968C124.21 92.0484 129.647 93.078 135.146 93.5267C138.163 93.7734 141.249 94.1129 144.224 93.3638C146.845 92.7024 149.286 91.2995 151.264 89.4669C154.863 86.1331 157.179 81.6463 158.117 76.8551C158.31 75.8651 158.155 73.4462 159.004 72.7752C159.713 72.2169 160.204 73.2652 160.729 73.6507C161.584 74.2745 162.769 74.4406 163.758 74.7527C166.207 75.525 168.443 76.3698 170.997 76.8129C173.588 77.2608 176.198 77.5598 178.806 77.887C184.089 78.5516 189.132 79.1747 194.461 78.7179C199.736 78.2658 205.046 77.994 210.173 76.5582C214.658 75.3027 219.04 72.5737 222.168 69.1185C223.749 67.3747 224.898 65.2466 226.082 63.2276C226.718 62.1433 227.299 61.0278 227.766 59.8608C228.11 59.0032 228.721 57.7512 228.712 56.8153C228.703 55.9771 228.227 56.1385 227.39 56.1274C226.101 56.1109 224.811 56.1428 223.521 56.1251C220.921 56.0902 218.322 55.9816 215.72 55.9361C213.067 55.8913 210.422 55.7442 207.805 55.2749C207.023 55.1345 206.436 54.9221 205.963 55.7123C205.657 56.2209 205.761 57.3108 204.964 56.5749C203.726 58.4594 201.781 59.6963 199.974 60.9705C198.019 62.3502 196.132 63.8441 194.033 65.0038C189.509 67.5046 184.306 67.8017 179.251 67.5785C174.114 67.3532 168.891 66.9374 163.949 65.4289C161.681 64.7382 159.681 63.5566 157.604 62.4447C156.626 61.9216 155.623 61.5077 154.597 61.0905C153.441 60.6198 152.689 59.8362 151.63 59.2673C151.151 61.5229 148.624 62.5092 146.586 62.7897C144.038 63.1395 141.863 62.102 140.135 60.2564C138.701 58.7243 138.231 56.2835 136.158 55.5594C133.792 54.7336 131.09 54.5622 128.614 54.3006C122.798 53.6864 116.697 53.5525 110.887 54.242ZM142.709 68.4257C143.379 68.6565 145.439 70.6409 143.958 70.8036C143.017 70.9074 142.358 69.775 141.333 70.0469C140.873 70.1681 140.19 70.3921 140.107 70.7622C139.901 71.6851 141.272 72.1452 141.865 72.344C142.778 72.6494 143.536 72.9714 144.094 73.8076C144.951 75.0909 145.339 77.2563 143.668 78.0139C142.427 78.5766 140.795 78.3699 139.498 78.1307C138.405 77.9282 137.493 76.8974 137.887 75.7583C137.998 75.4354 138.322 74.8552 138.773 75.0225C139.133 75.1537 138.993 75.4779 139.122 75.7448C139.645 76.8156 142.953 78.1123 143.533 76.3733C144.24 74.2522 140.804 73.9385 139.712 73.3478C138.299 72.585 138.129 71.0787 139.045 69.8344C139.847 68.7446 141.362 67.9622 142.709 68.4257ZM148.911 74.8469C148.901 75.3335 148.879 75.8373 148.838 76.3214C148.803 76.742 148.846 77.1771 148.382 77.3695C148.078 77.4956 147.742 77.1897 147.46 77.4382C147.146 77.7137 147.148 75.9138 147.153 75.8116C147.194 75.1362 147.254 73.7686 147.857 73.2988C148.878 72.5027 148.924 74.2556 148.911 74.8469ZM148.594 72.0623C147.509 72.8922 147.028 70.8542 147.425 70.1417C148.412 68.3745 150.304 70.754 148.594 72.0623ZM125.149 73.1263C125.5 73.3413 125.379 73.2156 125.437 73.8661C125.056 73.9161 125.068 73.3878 125.149 73.1263ZM126.398 72.4479C126.31 72.7166 126.836 72.9816 126.999 73.0072C127.002 72.924 126.647 71.6897 126.398 72.4479ZM63.6896 74.2266C63.4237 74.6972 63.6205 74.9541 64.0908 74.7356L64.1294 74.7174L63.6896 74.2266ZM69.4535 69.4209L69.1736 69.5689C69.0486 69.7125 68.9235 69.8561 68.797 69.9985C69.1911 69.8859 69.4739 69.9209 69.4535 69.4209ZM71.0099 68.6548C70.773 68.2638 70.1574 69.1348 70.1583 69.3261C70.3106 69.2175 71.2858 69.1093 71.0099 68.6548ZM71.5279 67.1531C71.3816 67.4034 71.4316 67.5892 71.6805 67.7102C71.8524 67.4317 71.9758 67.1332 72.0491 66.8142C71.7707 66.648 71.601 66.9215 71.5279 67.1531ZM200.729 26.2565C200.245 26.5277 200.577 27.2833 200.664 27.7011C201.078 29.6911 201.627 31.6488 202.037 33.6387C202.611 36.4374 202.912 39.2949 203.691 42.0501C204.403 44.5624 205.44 46.9715 206.099 49.5006C206.541 51.1924 206.167 53.2261 208.262 53.5648C210.145 53.8696 212.248 53.708 214.155 53.746C216.611 53.7948 219.059 53.7085 221.514 53.6093C222.675 53.5622 223.868 53.4706 225.03 53.544C225.713 53.5873 226.592 53.9601 227.056 53.2893C227.508 52.6372 227.371 51.0916 227.459 50.3024C227.576 49.2605 227.671 48.2151 227.68 47.1658C227.702 44.79 227.154 42.488 226.635 40.1837C226.075 37.6999 225.593 35.1984 225.023 32.7179C224.655 31.1191 224.447 28.5029 223.217 27.2953C222.471 30.4191 222.483 33.664 222.716 36.8491C222.765 37.5329 222.668 41.4967 221.309 39.6894C220.933 39.1866 220.9 38.8833 220.346 38.4791C219.777 38.0625 219.559 37.7081 219.318 37.022C218.88 35.7791 218.729 34.6654 217.926 33.5843C216.293 31.3837 215.458 28.5536 213.167 26.8636C213.34 29.0496 213.235 31.4396 213.832 33.561C214.209 34.8938 215.429 36.7521 214.685 38.1699C214.315 38.8772 214.049 38.6998 213.513 38.4088C213.168 38.2224 213.21 38.1175 212.783 37.9382C212.376 37.7673 212.071 37.804 211.678 37.5497C210.287 36.6497 210.026 34.8938 209.47 33.4704C208.244 30.3277 204.821 28.624 202.156 26.8497C201.866 26.6568 201.128 26.033 200.729 26.2565ZM152.247 37.1589C150.409 38.0898 148.469 38.5548 146.405 38.305C146.447 38.75 147.153 39.4162 146.68 39.7161C146.568 39.7877 145.866 39.5556 145.731 39.5332C144.984 39.4087 143.97 39.1706 143.221 39.3938C142.428 39.6302 142.502 40.1512 143.084 40.6971C143.898 41.4633 145.762 41.3316 145.906 42.7106C145.968 43.307 145.667 44.0877 145.642 44.7105C145.607 45.6419 145.56 46.5669 145.424 47.4906C145.19 49.0784 144.719 50.6111 144.129 52.1009C143.621 53.3844 142.984 54.7314 141.904 55.6367C141.201 56.2266 141.469 55.9647 141.685 56.7228C141.829 57.2306 141.846 57.6168 141.168 57.5486C141.037 57.5207 140.906 57.493 140.775 57.465C142.568 59.889 146.666 61.1526 149.221 59.2013C147.998 58.3825 149.404 56.6399 149.998 55.9018C150.887 54.7962 151.811 53.5328 152.778 52.5095C154.26 50.9429 156.428 51.4482 158.277 50.6801C160.149 49.9027 161.43 48.4106 162.539 46.7717C163.526 45.3121 164.849 43.5158 164.835 41.6603C164.832 41.297 164.62 40.8896 164.653 40.5429C164.686 40.1894 164.893 40.1255 164.983 39.8878C165.165 39.3992 165.178 38.9118 165.166 38.3721C165.126 36.6109 164.545 36.3855 162.861 36.0794C161.879 35.9008 160.89 35.7802 159.908 35.608C158.97 35.4437 158.111 35.0433 157.185 34.8598C155.234 34.4734 153.862 36.3414 152.247 37.1589ZM158.126 47.726C159.719 48.5089 157.388 49.3085 156.472 48.9812C150.089 45.8554 157.236 47.2888 158.126 47.726ZM160.295 39.8441C161.813 41.3621 163.636 44.5597 160.69 45.5017C159.781 45.7926 158.376 46.2567 157.42 46.0846C156.056 45.8383 156.249 44.0683 157.571 43.8737C158.354 43.7583 160.216 44.2206 160.602 43.2643C160.812 42.7457 160.165 42.0086 160.034 41.5213C159.864 40.8944 159.921 40.3761 160.295 39.8441ZM78.8025 52.0601L78.804 52.0617C78.8085 52.0681 78.8172 52.0755 78.8287 52.0841L78.8344 52.0879L78.8242 52.0792L78.8025 52.0601ZM163.065 40.1885C164.018 40.1015 163.726 42.1684 163.284 42.5563C162.491 43.2524 161.862 40.2981 163.065 40.1885ZM156.919 42.2744C155.823 42.507 155.837 39.8376 156.838 39.6667C158.151 39.442 158.183 42.0057 156.919 42.2744ZM166.095 37.0293C165.986 37.3109 166.32 39.9284 166.642 39.9498C166.67 39.3008 166.566 38.6598 166.5 38.0162L166.484 37.8535C166.493 37.8629 166.4 36.235 166.095 37.0293Z" fill="black"/>
<path d="M151.003 73.8914C151.324 77.4996 148.283 80.8089 144.084 81.1826C139.884 81.5563 136.307 78.836 135.986 75.2278C135.665 71.6197 138.706 68.3104 142.905 67.9367C147.105 67.563 150.682 70.2833 151.003 73.8914Z" fill="#FDF074" stroke="#EABB76" stroke-width="0.927441"/>
<path fill-rule="evenodd" clip-rule="evenodd" d="M93.0608 145.05C92.2273 145.082 90.5476 145.047 90.5218 143.871C90.4892 142.371 93.4639 142.471 94.4171 142.242C98.57 141.245 102.29 139.019 105.473 136.223C107.056 134.833 108.453 133.241 110.107 131.931C110.428 131.677 111.204 130.948 111.679 131.254C112.248 131.62 111.735 132.67 111.472 133.072C110.455 134.626 108.736 136.06 107.427 137.373C105.681 139.126 103.786 140.749 101.689 142.075C99.1562 143.676 96.0881 144.929 93.0608 145.05Z" fill="black"/>
<path fill-rule="evenodd" clip-rule="evenodd" d="M180.787 109.927C181.316 110.571 182.303 111.931 181.381 112.662C180.205 113.594 178.488 111.163 177.73 110.541C174.427 107.834 170.406 106.214 166.256 105.365C164.192 104.943 162.079 104.791 160.036 104.263C159.639 104.161 158.59 103.983 158.547 103.42C158.495 102.745 159.642 102.52 160.121 102.487C161.974 102.359 164.155 102.863 165.991 103.113C168.444 103.446 170.882 103.975 173.205 104.846C176.011 105.898 178.863 107.586 180.787 109.927Z" fill="black"/>
<path fill-rule="evenodd" clip-rule="evenodd" d="M106.988 144.861C106.294 145.152 104.467 146.236 104.038 145.099C103.553 143.812 106.745 142.69 107.535 142.133C107.951 141.838 109.745 140.365 110.301 140.811C111.459 141.74 107.513 144.468 106.988 144.861Z" fill="black"/>
<path fill-rule="evenodd" clip-rule="evenodd" d="M172.224 98.9396C172.876 99.3172 174.842 100.119 174.196 101.147C173.462 102.311 170.64 100.445 169.719 100.152C169.234 99.9982 166.975 99.4583 166.995 98.7454C167.036 97.2613 171.594 98.7583 172.224 98.9396Z" fill="black"/>
</svg>
