<svg width="587" height="302" viewBox="0 0 587 302" fill="none" xmlns="http://www.w3.org/2000/svg">
<rect x="6" y="6" width="575" height="290" rx="18" fill="#C04994" stroke="#6DB8C2" stroke-width="12"/>
<rect x="63.1643" y="116.804" width="142.695" height="135.734" rx="13.3617" transform="rotate(-20 63.1643 116.804)" fill="white"/>
<rect x="81.4235" y="126.677" width="25.0961" height="21.162" transform="rotate(-20 81.4235 126.677)" stroke="black" stroke-width="6.68083"/>
<rect x="92.0657" y="130.843" width="7.94424" height="6.05279" transform="rotate(-20 92.0657 130.843)" fill="black"/>
<rect x="166.029" y="95.8826" width="25.0961" height="21.162" transform="rotate(-20 166.029 95.8826)" stroke="black" stroke-width="6.68083"/>
<rect x="176.669" y="100.049" width="7.94424" height="6.05279" transform="rotate(-20 176.669 100.049)" fill="black"/>
<rect x="109.992" y="205.167" width="25.0961" height="21.162" transform="rotate(-20 109.992 205.167)" stroke="black" stroke-width="6.68083"/>
<rect x="120.635" y="209.333" width="7.94424" height="6.05279" transform="rotate(-20 120.635 209.333)" fill="black"/>
<path d="M135.618 105.329L149.926 100.121M158.013 97.1776L149.926 100.121M149.926 100.121L154.895 113.772L147.429 116.489" stroke="black" stroke-width="6.68083"/>
<path d="M126.496 107.361L138.503 140.35L121.084 146.69M107.398 151.671L121.084 146.69M121.084 146.69L125.846 159.771" stroke="black" stroke-width="6.68083"/>
<path d="M143.067 135.468L140.583 128.643L126.897 133.624" stroke="black" stroke-width="6.68083"/>
<path d="M153.018 135.711L161.416 132.654M169.814 129.598L161.416 132.654M161.416 132.654L158.725 125.26" stroke="black" stroke-width="6.68083"/>
<path d="M100.955 180.425L98.4707 173.6L118.378 166.354" stroke="black" stroke-width="6.68083"/>
<path d="M110.486 189.195L107.795 181.801L130.812 173.423L135.367 185.936" stroke="black" stroke-width="6.68083"/>
<path d="M136.215 151.489L138.906 158.883M141.597 166.277L138.906 158.883M138.906 158.883L146.993 155.939" stroke="black" stroke-width="6.68083"/>
<path d="M143.667 171.965L150.291 190.166L157.756 187.449L144.07 192.43L152.558 215.75" stroke="black" stroke-width="6.68083"/>
<path d="M161.063 210.077L171.016 206.455" stroke="black" stroke-width="6.68083"/>
<path d="M174.129 201.457L165.848 178.706L173.313 175.989" stroke="black" stroke-width="6.68083"/>
<path d="M178.483 203.737L182.838 202.152" stroke="black" stroke-width="6.68083"/>
<path d="M188.85 199.32L217.467 188.904" stroke="black" stroke-width="6.68083"/>
<path d="M180.354 191.462L202.749 183.311" stroke="black" stroke-width="6.68083"/>
<path d="M227.626 187.783L222.45 173.564" stroke="black" stroke-width="6.68083"/>
<path d="M173.125 144.496L175.609 151.321L186.806 147.245L184.322 140.42" stroke="black" stroke-width="6.68083"/>
<path d="M158.609 143.338L165.648 162.676" stroke="black" stroke-width="6.68083"/>
<path d="M220.38 167.876L213.756 149.675L202.558 153.751L196.762 137.825M193.035 127.587L203.611 123.738M193.035 127.587L181.215 131.889M193.035 127.587L196.762 137.825M203.611 123.738L201.127 116.913M203.611 123.738L181.215 131.889M181.215 131.889L178.731 125.064M196.762 137.825L207.959 133.749L210.443 140.575" stroke="black" stroke-width="6.68083"/>
<rect x="117.777" y="127.925" width="6.6202" height="6.05279" transform="rotate(-20 117.777 127.925)" fill="black"/>
<rect x="88.3213" y="155.394" width="13.2404" height="12.1056" transform="rotate(-20 88.3213 155.394)" fill="black"/>
<rect x="101.984" y="192.933" width="6.6202" height="6.05279" transform="rotate(-20 101.984 192.933)" fill="black"/>
<rect x="113.182" y="188.857" width="6.6202" height="6.05279" transform="rotate(-20 113.182 188.857)" fill="black"/>
<rect x="144.294" y="165.939" width="6.6202" height="4.84223" transform="rotate(-20 144.294 165.939)" fill="black"/>
<rect x="143.471" y="148.203" width="7.94424" height="6.05279" transform="rotate(-20 143.471 148.203)" fill="black"/>
<rect x="148.05" y="122.06" width="6.6202" height="6.05279" transform="rotate(-20 148.05 122.06)" fill="black"/>
<rect x="157.592" y="113.434" width="6.6202" height="6.05279" transform="rotate(-20 157.592 113.434)" fill="black"/>
<rect x="206.898" y="179.224" width="6.6202" height="4.84223" transform="rotate(-20 206.898 179.224)" fill="black"/>
<rect x="211.05" y="171.272" width="6.6202" height="4.84223" transform="rotate(-20 211.05 171.272)" fill="black"/>
<rect x="204.416" y="168.534" width="5.29616" height="3.63167" transform="rotate(-20 204.416 168.534)" fill="black"/>
<rect x="170.003" y="163.023" width="11.9164" height="4.84223" transform="rotate(-20 170.003 163.023)" fill="black"/>
<rect x="176.637" y="165.762" width="13.2404" height="12.1056" transform="rotate(-20 176.637 165.762)" fill="black"/>
<rect x="175.799" y="178.949" width="10.5923" height="4.84223" transform="rotate(-20 175.799 178.949)" fill="black"/>
<rect x="402" y="135.251" width="104.708" height="99.7605" rx="8.4446" transform="rotate(-17.9391 402 135.251)" fill="white"/>
<rect x="414.706" y="142.767" width="19.0953" height="16.2414" transform="rotate(-17.9391 414.706 142.767)" stroke="black" stroke-width="4.2223"/>
<rect x="422.833" y="146.334" width="5.8294" height="4.44863" transform="rotate(-17.9391 422.833 146.334)" fill="black"/>
<rect x="477.561" y="122.418" width="19.0953" height="16.2414" transform="rotate(-17.9391 477.561 122.418)" stroke="black" stroke-width="4.2223"/>
<rect x="485.686" y="125.985" width="5.8294" height="4.44863" transform="rotate(-17.9391 485.686 125.985)" fill="black"/>
<rect x="433.615" y="201.173" width="19.0953" height="16.2414" transform="rotate(-17.9391 433.615 201.173)" stroke="black" stroke-width="4.2223"/>
<rect x="441.741" y="204.74" width="5.8294" height="4.44863" transform="rotate(-17.9391 441.741 204.74)" fill="black"/>
<path d="M455.439 128.763L466.069 125.322M472.077 123.377L466.069 125.322M466.069 125.322L469.357 135.48L463.811 137.275" stroke="black" stroke-width="4.2223"/>
<path d="M448.696 130.011L456.644 154.559L443.703 158.748M433.535 162.04L443.703 158.748M443.703 158.748L446.854 168.483" stroke="black" stroke-width="4.2223"/>
<path d="M460.118 151.096L458.474 146.017L448.306 149.309" stroke="black" stroke-width="4.2223"/>
<path d="M467.41 151.541L473.649 149.521M479.888 147.501L473.649 149.521M473.649 149.521L471.868 144.019" stroke="black" stroke-width="4.2223"/>
<path d="M428.06 182.984L426.416 177.905L441.205 173.117" stroke="black" stroke-width="4.2223"/>
<path d="M434.822 189.679L433.041 184.177L450.141 178.641L453.156 187.952" stroke="black" stroke-width="4.2223"/>
<path d="M454.675 162.678L456.457 168.18M458.238 173.682L456.457 168.18M456.457 168.18L462.465 166.235" stroke="black" stroke-width="4.2223"/>
<path d="M459.607 177.914L463.992 191.458L469.538 189.662L459.37 192.954L464.988 210.307" stroke="black" stroke-width="4.2223"/>
<path d="M471.373 206.369L478.768 203.975" stroke="black" stroke-width="4.2223"/>
<path d="M481.181 200.388L475.7 183.459L481.246 181.663" stroke="black" stroke-width="4.2223"/>
<path d="M484.315 202.179L487.551 201.132" stroke="black" stroke-width="4.2223"/>
<path d="M492.034 199.213L513.294 192.33" stroke="black" stroke-width="4.2223"/>
<path d="M486.007 193.215L502.645 187.828" stroke="black" stroke-width="4.2223"/>
<path d="M520.774 191.779L517.349 181.198" stroke="black" stroke-width="4.2223"/>
<path d="M481.928 158.53L483.572 163.609L491.891 160.916L490.247 155.837" stroke="black" stroke-width="4.2223"/>
<path d="M471.312 157.291L475.971 171.681" stroke="black" stroke-width="4.2223"/>
<path d="M515.978 176.965L511.594 163.422L503.275 166.115L499.438 154.264M496.972 146.646L504.829 144.103M496.972 146.646L488.191 149.489M496.972 146.646L499.438 154.264M504.829 144.103L503.184 139.024M504.829 144.103L488.191 149.489M488.191 149.489L486.546 144.41M499.438 154.264L507.757 151.571L509.401 156.65" stroke="black" stroke-width="4.2223"/>
<rect x="441.766" y="144.88" width="4.85784" height="4.44863" transform="rotate(-17.9391 441.766 144.88)" fill="black"/>
<rect x="419.447" y="164.263" width="9.71567" height="8.89726" transform="rotate(-17.9391 419.447 164.263)" fill="black"/>
<rect x="428.489" y="192.197" width="4.85784" height="4.44863" transform="rotate(-17.9391 428.489 192.197)" fill="black"/>
<rect x="436.808" y="189.504" width="4.85784" height="4.44863" transform="rotate(-17.9391 436.808 189.504)" fill="black"/>
<rect x="460.224" y="173.506" width="4.85784" height="3.5589" transform="rotate(-17.9391 460.224 173.506)" fill="black"/>
<rect x="460.083" y="160.459" width="5.8294" height="4.44863" transform="rotate(-17.9391 460.083 160.459)" fill="black"/>
<rect x="464.122" y="141.383" width="4.85784" height="4.44863" transform="rotate(-17.9391 464.122 141.383)" fill="black"/>
<rect x="471.344" y="135.304" width="4.85784" height="4.44863" transform="rotate(-17.9391 471.344 135.304)" fill="black"/>
<rect x="505.795" y="184.938" width="4.85784" height="3.5589" transform="rotate(-17.9391 505.795 184.938)" fill="black"/>
<rect x="509.047" y="179.209" width="4.85784" height="3.5589" transform="rotate(-17.9391 509.047 179.209)" fill="black"/>
<rect x="504.253" y="177.021" width="3.88627" height="2.66918" transform="rotate(-17.9391 504.253 177.021)" fill="black"/>
<rect x="479.156" y="172.053" width="8.7441" height="3.5589" transform="rotate(-17.9391 479.156 172.053)" fill="black"/>
<rect x="483.95" y="174.242" width="9.71567" height="8.89726" transform="rotate(-17.9391 483.95 174.242)" fill="black"/>
<rect x="482.993" y="183.904" width="7.77254" height="3.5589" transform="rotate(-17.9391 482.993 183.904)" fill="black"/>
<rect x="243.928" y="25" width="201.016" height="191.21" rx="22.0281" transform="rotate(19.8501 243.928 25)" fill="white"/>
<rect x="255.246" y="53.1848" width="33.7507" height="28.2086" transform="rotate(19.8501 255.246 53.1848)" stroke="black" stroke-width="11.014"/>
<rect x="262.514" y="66.2711" width="11.1912" height="8.52666" transform="rotate(19.8501 262.514 66.2711)" fill="black"/>
<rect x="374.544" y="96.2524" width="33.7507" height="28.2086" transform="rotate(19.8501 374.544 96.2524)" stroke="black" stroke-width="11.014"/>
<rect x="381.81" y="109.338" width="11.1912" height="8.52666" transform="rotate(19.8501 381.81 109.338)" fill="black"/>
<rect x="215.292" y="163.861" width="33.7507" height="28.2086" transform="rotate(19.8501 215.292 163.861)" stroke="black" stroke-width="11.014"/>
<rect x="222.559" y="176.948" width="11.1912" height="8.52666" transform="rotate(19.8501 222.559 176.948)" fill="black"/>
<path d="M332.646 77.991L352.821 85.2745M364.224 89.3912L352.821 85.2745M352.821 85.2745L345.872 104.523L335.346 100.723" stroke="black" stroke-width="11.014"/>
<path d="M320.946 71.9544L304.153 118.471L279.592 109.604M260.294 102.637L279.592 109.604M279.592 109.604L272.933 128.05" stroke="black" stroke-width="11.014"/>
<path d="M313.496 117.311L316.971 107.687L297.673 100.72" stroke="black" stroke-width="11.014"/>
<path d="M324.039 126.556L335.881 130.831M347.723 135.106L335.881 130.831M335.881 130.831L339.645 120.405" stroke="black" stroke-width="11.014"/>
<path d="M227.37 127.919L230.844 118.294L258.914 128.428" stroke="black" stroke-width="11.014"/>
<path d="M229.761 146.006L233.525 135.58L265.981 147.297L259.612 164.941" stroke="black" stroke-width="11.014"/>
<path d="M291.624 128.452L287.86 138.878M284.096 149.304L287.86 138.878M287.86 138.878L299.264 142.995" stroke="black" stroke-width="11.014"/>
<path d="M281.2 157.324L271.935 182.988L282.461 186.788L263.163 179.821L251.292 212.703" stroke="black" stroke-width="11.014"/>
<path d="M265.61 214.246L279.645 219.312" stroke="black" stroke-width="11.014"/>
<path d="M287.523 216.717L299.104 184.637L309.63 188.437" stroke="black" stroke-width="11.014"/>
<path d="M290.174 223.114L296.314 225.33" stroke="black" stroke-width="11.014"/>
<path d="M305.374 227.695L345.725 242.262" stroke="black" stroke-width="11.014"/>
<path d="M303.277 211.527L334.856 222.927" stroke="black" stroke-width="11.014"/>
<path d="M357.723 250.22L364.961 230.169" stroke="black" stroke-width="11.014"/>
<path d="M337.854 154.207L334.38 163.831L350.169 169.531L353.644 159.907" stroke="black" stroke-width="11.014"/>
<path d="M323.202 139.852L313.358 167.12" stroke="black" stroke-width="11.014"/>
<path d="M367.857 222.149L377.122 196.485L361.333 190.785L369.44 168.329M374.651 153.893L389.563 159.276M374.651 153.893L357.985 147.876M374.651 153.893L369.44 168.329M389.563 159.276L393.038 149.652M389.563 159.276L357.985 147.876M357.985 147.876L361.459 138.252M369.44 168.329L385.229 174.029L381.755 183.653" stroke="black" stroke-width="11.014"/>
<rect x="292.954" y="86.325" width="9.32599" height="8.52666" transform="rotate(19.8501 292.954 86.325)" fill="black"/>
<rect x="236.302" y="89.443" width="18.652" height="17.0533" transform="rotate(19.8501 236.302 89.443)" fill="black"/>
<rect x="217.193" y="142.375" width="9.32599" height="8.52666" transform="rotate(19.8501 217.193 142.375)" fill="black"/>
<rect x="232.982" y="148.075" width="9.32599" height="8.52666" transform="rotate(19.8501 232.982 148.075)" fill="black"/>
<rect x="287.317" y="151.373" width="9.32599" height="6.82133" transform="rotate(19.8501 287.317 151.373)" fill="black"/>
<rect x="302.438" y="131.449" width="11.1912" height="8.52666" transform="rotate(19.8501 302.438 131.449)" fill="black"/>
<rect x="330.988" y="107.308" width="9.32599" height="8.52666" transform="rotate(19.8501 330.988 107.308)" fill="black"/>
<rect x="349.094" y="106.592" width="9.32599" height="8.52666" transform="rotate(19.8501 349.094 106.592)" fill="black"/>
<rect x="343.032" y="222.253" width="9.32599" height="6.82133" transform="rotate(19.8501 343.032 222.253)" fill="black"/>
<rect x="354.7" y="217.4" width="9.32599" height="6.82133" transform="rotate(19.8501 354.7 217.4)" fill="black"/>
<rect x="349.998" y="208.45" width="7.46079" height="5.116" transform="rotate(19.8501 349.998 208.45)" fill="black"/>
<rect x="317.754" y="171.427" width="16.7868" height="6.82133" transform="rotate(19.8501 317.754 171.427)" fill="black"/>
<rect x="322.457" y="180.377" width="18.652" height="17.0533" transform="rotate(19.8501 322.457 180.377)" fill="black"/>
<rect x="309.647" y="193.883" width="14.9216" height="6.82133" transform="rotate(19.8501 309.647 193.883)" fill="black"/>
<path d="M395.231 174.773C395.231 196.629 376.185 214.408 352.614 214.408C329.043 214.408 309.997 196.629 309.997 174.773C309.997 152.916 329.043 135.138 352.614 135.138C376.185 135.138 395.231 152.916 395.231 174.773Z" fill="url(#paint0_linear_353_18282)" stroke="#8C3FD9"/>
<path d="M396.941 173.937C396.941 197.556 377.416 216.942 353.033 216.942C328.651 216.942 309.125 197.556 309.125 173.937C309.125 150.317 328.651 130.932 353.033 130.932C377.416 130.932 396.941 150.317 396.941 173.937Z" stroke="#8C3FD9" stroke-width="16"/>
<path d="M389.034 210.727L427.546 246.681" stroke="#8C3FD9" stroke-width="27" stroke-linecap="round" stroke-linejoin="round"/>
<defs>
<linearGradient id="paint0_linear_353_18282" x1="352.614" y1="134.638" x2="352.614" y2="214.908" gradientUnits="userSpaceOnUse">
<stop stop-color="white" stop-opacity="0.7"/>
<stop offset="1" stop-color="white" stop-opacity="0.3"/>
</linearGradient>
</defs>
</svg>
