<svg width="311" height="160" viewBox="0 0 311 160" fill="none" xmlns="http://www.w3.org/2000/svg">
<rect x="3.83481" y="3.83481" width="303.33" height="152.984" rx="9.49556" fill="#C04994" stroke="#6DB8C2" stroke-width="6.33037"/>
<rect x="33.9907" y="62.2876" width="75.2758" height="71.6038" rx="7.04869" transform="rotate(-20 33.9907 62.2876)" fill="white"/>
<rect x="43.8591" y="67.1686" width="13.239" height="11.1636" transform="rotate(-20 43.8591 67.1686)" stroke="black" stroke-width="3.52435"/>
<rect x="49.4731" y="69.3665" width="4.19084" height="3.19303" transform="rotate(-20 49.4731 69.3665)" fill="black"/>
<rect x="88.491" y="50.9239" width="13.239" height="11.1636" transform="rotate(-20 88.491 50.9239)" stroke="black" stroke-width="3.52435"/>
<rect x="94.104" y="53.1219" width="4.19084" height="3.19303" transform="rotate(-20 94.104 53.1219)" fill="black"/>
<rect x="58.93" y="108.575" width="13.239" height="11.1636" transform="rotate(-20 58.93 108.575)" stroke="black" stroke-width="3.52435"/>
<rect x="64.5441" y="110.773" width="4.19084" height="3.19303" transform="rotate(-20 64.5441 110.773)" fill="black"/>
<path d="M72.4482 55.907L79.9963 53.1598M84.2625 51.607L79.9963 53.1598M79.9963 53.1598L82.6173 60.3609L78.6792 61.7943" stroke="black" stroke-width="3.52435"/>
<path d="M67.6363 56.9789L73.9704 74.3817L64.7815 77.7262M57.5616 80.354L64.7815 77.7262M64.7815 77.7262L67.2932 84.6272" stroke="black" stroke-width="3.52435"/>
<path d="M76.378 71.8064L75.0675 68.2058L67.8477 70.8336" stroke="black" stroke-width="3.52435"/>
<path d="M81.6272 71.9345L86.0576 70.322M90.4879 68.7095L86.0576 70.322M86.0576 70.322L84.6379 66.4214" stroke="black" stroke-width="3.52435"/>
<path d="M54.1624 95.5227L52.8519 91.9222L63.3535 88.0999" stroke="black" stroke-width="3.52435"/>
<path d="M59.1905 100.149L57.7708 96.2483L69.9132 91.8288L72.3158 98.4298" stroke="black" stroke-width="3.52435"/>
<path d="M72.7631 80.2578L74.1828 84.1584M75.6025 88.059L74.1828 84.1584M74.1828 84.1584L78.449 82.6056" stroke="black" stroke-width="3.52435"/>
<path d="M76.6942 91.0596L80.1889 100.661L84.127 99.2278L76.9071 101.856L81.3847 114.158" stroke="black" stroke-width="3.52435"/>
<path d="M85.8712 111.165L91.122 109.254" stroke="black" stroke-width="3.52435"/>
<path d="M92.764 106.618L88.3956 94.6158L92.3337 93.1825" stroke="black" stroke-width="3.52435"/>
<path d="M95.061 107.82L97.3583 106.984" stroke="black" stroke-width="3.52435"/>
<path d="M100.53 105.49L115.626 99.9956" stroke="black" stroke-width="3.52435"/>
<path d="M96.0477 101.345L107.862 97.045" stroke="black" stroke-width="3.52435"/>
<path d="M120.985 99.4043L118.255 91.9031" stroke="black" stroke-width="3.52435"/>
<path d="M92.2343 76.5688L93.5448 80.1694L99.4519 78.0194L98.1414 74.4188" stroke="black" stroke-width="3.52435"/>
<path d="M84.577 75.9579L88.2901 86.1595" stroke="black" stroke-width="3.52435"/>
<path d="M117.163 88.9026L113.669 79.3011L107.761 81.4511L104.704 73.0498M102.738 67.649L108.317 65.6184M102.738 67.649L96.5025 69.9184M102.738 67.649L104.704 73.0498M108.317 65.6184L107.006 62.0178M108.317 65.6184L96.5025 69.9184M96.5025 69.9184L95.192 66.3179M104.704 73.0498L110.611 70.8998L111.921 74.5004" stroke="black" stroke-width="3.52435"/>
<rect x="63.0367" y="67.8274" width="3.49236" height="3.19303" transform="rotate(-20 63.0367 67.8274)" fill="black"/>
<rect x="47.4978" y="82.3178" width="6.98473" height="6.38607" transform="rotate(-20 47.4978 82.3178)" fill="black"/>
<rect x="54.7056" y="102.121" width="3.49236" height="3.19303" transform="rotate(-20 54.7056 102.121)" fill="black"/>
<rect x="60.6125" y="99.9709" width="3.49236" height="3.19303" transform="rotate(-20 60.6125 99.9709)" fill="black"/>
<rect width="3.49236" height="2.55443" transform="matrix(0.939693 -0.342019 0.342021 0.939692 77.025 87.881)" fill="black"/>
<rect x="76.5913" y="78.5246" width="4.19084" height="3.19303" transform="rotate(-20 76.5913 78.5246)" fill="black"/>
<rect width="3.49236" height="3.19303" transform="matrix(0.939692 -0.342021 0.342019 0.939693 79.0065 64.7333)" fill="black"/>
<rect x="84.0402" y="60.1829" width="3.49236" height="3.19303" transform="rotate(-20 84.0402 60.1829)" fill="black"/>
<rect x="110.051" y="94.889" width="3.49236" height="2.55443" transform="rotate(-20 110.051 94.889)" fill="black"/>
<rect x="112.241" y="90.694" width="3.49236" height="2.55443" transform="rotate(-20 112.241 90.694)" fill="black"/>
<rect x="108.741" y="89.2495" width="2.79389" height="1.91582" transform="rotate(-20 108.741 89.2495)" fill="black"/>
<rect x="90.5874" y="86.3427" width="6.28625" height="2.55443" transform="rotate(-20 90.5874 86.3427)" fill="black"/>
<rect x="94.087" y="87.7872" width="6.98473" height="6.38607" transform="rotate(-20 94.087 87.7872)" fill="black"/>
<rect x="93.6453" y="94.744" width="5.58778" height="2.55443" transform="rotate(-20 93.6453 94.744)" fill="black"/>
<rect x="212.737" y="72.0186" width="55.2366" height="52.6268" rx="4.45479" transform="rotate(-17.9391 212.737 72.0186)" fill="white"/>
<rect x="219.676" y="75.6568" width="10.0734" height="8.56784" transform="rotate(-17.9391 219.676 75.6568)" stroke="black" stroke-width="2.22739"/>
<rect width="3.07519" height="2.34679" transform="matrix(0.951385 -0.308005 0.308007 0.951384 223.963 77.5385)" fill="black"/>
<rect x="252.834" y="64.922" width="10.0734" height="8.56784" transform="rotate(-17.9391 252.834 64.922)" stroke="black" stroke-width="2.22739"/>
<rect x="257.12" y="66.8038" width="3.07519" height="2.34679" transform="rotate(-17.9391 257.12 66.8038)" fill="black"/>
<rect x="229.651" y="106.468" width="10.0734" height="8.56784" transform="rotate(-17.9391 229.651 106.468)" stroke="black" stroke-width="2.22739"/>
<rect x="233.938" y="108.35" width="3.07519" height="2.34679" transform="rotate(-17.9391 233.938 108.35)" fill="black"/>
<path d="M241.164 68.2694L246.772 66.454M249.941 65.4279L246.772 66.454M246.772 66.454L248.506 71.8125L245.581 72.7596" stroke="black" stroke-width="2.22739"/>
<path d="M237.607 68.9278L241.8 81.8774L234.973 84.0875M229.609 85.824L234.973 84.0875M234.973 84.0875L236.635 89.2227" stroke="black" stroke-width="2.22739"/>
<path d="M243.632 80.0506L242.765 77.3714L237.401 79.1078" stroke="black" stroke-width="2.22739"/>
<path d="M247.479 80.2854L250.77 79.2198M254.062 78.1542L250.77 79.2198M250.77 79.2198L249.831 76.3173" stroke="black" stroke-width="2.22739"/>
<path d="M226.721 96.8725L225.853 94.1932L233.655 91.6674" stroke="black" stroke-width="2.22739"/>
<path d="M230.288 100.404L229.348 97.5019L238.369 94.5814L239.959 99.4934" stroke="black" stroke-width="2.22739"/>
<path d="M240.761 86.1603L241.701 89.0628M242.64 91.9654L241.701 89.0628M241.701 89.0628L244.87 88.0367" stroke="black" stroke-width="2.22739"/>
<path d="M243.363 94.1981L245.676 101.343L248.601 100.396L243.238 102.132L246.201 111.286" stroke="black" stroke-width="2.22739"/>
<path d="M249.57 109.209L253.471 107.946" stroke="black" stroke-width="2.22739"/>
<path d="M254.744 106.054L251.852 97.123L254.778 96.1758" stroke="black" stroke-width="2.22739"/>
<path d="M256.397 106.999L258.104 106.446" stroke="black" stroke-width="2.22739"/>
<path d="M260.469 105.434L271.684 101.803" stroke="black" stroke-width="2.22739"/>
<path d="M257.289 102.27L266.066 99.4281" stroke="black" stroke-width="2.22739"/>
<path d="M275.63 101.512L273.823 95.9302" stroke="black" stroke-width="2.22739"/>
<path d="M255.138 83.9725L256.005 86.6517L260.394 85.2309L259.526 82.5517" stroke="black" stroke-width="2.22739"/>
<path d="M249.538 83.3188L251.995 90.91" stroke="black" stroke-width="2.22739"/>
<path d="M273.1 93.6975L270.787 86.5529L266.399 87.9736L264.375 81.7221M263.074 77.7032L267.219 76.3614M263.074 77.7032L258.441 79.2029M263.074 77.7032L264.375 81.7221M267.219 76.3614L266.351 73.6821M267.219 76.3614L258.441 79.2029M258.441 79.2029L257.574 76.5237M264.375 81.7221L268.763 80.3013L269.631 82.9806" stroke="black" stroke-width="2.22739"/>
<rect x="233.951" y="76.7714" width="2.56266" height="2.34679" transform="rotate(-17.9391 233.951 76.7714)" fill="black"/>
<rect x="222.177" y="86.9966" width="5.12532" height="4.69358" transform="rotate(-17.9391 222.177 86.9966)" fill="black"/>
<rect x="226.947" y="101.733" width="2.56266" height="2.34679" transform="rotate(-17.9391 226.947 101.733)" fill="black"/>
<rect x="231.336" y="100.312" width="2.56266" height="2.34679" transform="rotate(-17.9391 231.336 100.312)" fill="black"/>
<rect x="243.688" y="91.8727" width="2.56266" height="1.87743" transform="rotate(-17.9391 243.688 91.8727)" fill="black"/>
<rect x="243.614" y="84.99" width="3.07519" height="2.34679" transform="rotate(-17.9391 243.614 84.99)" fill="black"/>
<rect x="245.745" y="74.9268" width="2.56266" height="2.34679" transform="rotate(-17.9391 245.745 74.9268)" fill="black"/>
<rect x="249.555" y="71.7198" width="2.56266" height="2.34679" transform="rotate(-17.9391 249.555 71.7198)" fill="black"/>
<rect width="2.56266" height="1.87743" transform="matrix(0.951384 -0.308007 0.308005 0.951385 267.728 97.9034)" fill="black"/>
<rect x="269.444" y="94.8813" width="2.56266" height="1.87743" transform="rotate(-17.9391 269.444 94.8813)" fill="black"/>
<rect width="2.05013" height="1.40807" transform="matrix(0.951385 -0.308005 0.308007 0.951384 266.915 93.7268)" fill="black"/>
<rect x="253.676" y="91.1061" width="4.61279" height="1.87743" transform="rotate(-17.9391 253.676 91.1061)" fill="black"/>
<rect x="256.205" y="92.2607" width="5.12532" height="4.69358" transform="rotate(-17.9391 256.205 92.2607)" fill="black"/>
<rect x="255.699" y="97.3577" width="4.10025" height="1.87743" transform="rotate(-17.9391 255.699 97.3577)" fill="black"/>
<rect x="129.349" y="13.8579" width="106.042" height="100.869" rx="11.6205" transform="rotate(19.8501 129.349 13.8579)" fill="white"/>
<rect x="135.556" y="28.3995" width="17.8045" height="14.8809" transform="rotate(19.8501 135.556 28.3995)" stroke="black" stroke-width="5.81025"/>
<rect x="139.39" y="35.3029" width="5.9037" height="4.49808" transform="rotate(19.8501 139.39 35.3029)" fill="black"/>
<rect x="198.489" y="51.1189" width="17.8045" height="14.8809" transform="rotate(19.8501 198.489 51.1189)" stroke="black" stroke-width="5.81025"/>
<rect x="202.322" y="58.0218" width="5.9037" height="4.49808" transform="rotate(19.8501 202.322 58.0218)" fill="black"/>
<rect x="114.479" y="86.7848" width="17.8045" height="14.8809" transform="rotate(19.8501 114.479 86.7848)" stroke="black" stroke-width="5.81025"/>
<rect x="118.312" y="93.6882" width="5.9037" height="4.49808" transform="rotate(19.8501 118.312 93.6882)" fill="black"/>
<path d="M176.387 41.4855L187.03 45.3278M193.045 47.4995L187.03 45.3278M187.03 45.3278L183.364 55.4818L177.811 53.4771" stroke="black" stroke-width="5.81025"/>
<path d="M170.215 38.3011L161.356 62.8398L148.399 58.1623M138.219 54.4871L148.399 58.1623M148.399 58.1623L144.886 67.8932" stroke="black" stroke-width="5.81025"/>
<path d="M166.285 62.2279L168.118 57.1509L157.937 53.4757" stroke="black" stroke-width="5.81025"/>
<path d="M171.846 67.1052L178.093 69.3604M184.34 71.6157L178.093 69.3604M178.093 69.3604L180.079 63.8603" stroke="black" stroke-width="5.81025"/>
<path d="M120.85 67.8239L122.683 62.7469L137.491 68.0926" stroke="black" stroke-width="5.81025"/>
<path d="M122.112 77.3657L124.098 71.8656L141.219 78.0466L137.859 87.3544" stroke="black" stroke-width="5.81025"/>
<path d="M154.746 68.1052L152.761 73.6053M150.775 79.1054L152.761 73.6053M152.761 73.6053L158.777 75.777" stroke="black" stroke-width="5.81025"/>
<path d="M149.247 83.336L144.36 96.8747L149.913 98.8793L139.732 95.2041L133.47 112.55" stroke="black" stroke-width="5.81025"/>
<path d="M141.023 113.364L148.427 116.037" stroke="black" stroke-width="5.81025"/>
<path d="M152.583 114.668L158.693 97.7447L164.245 99.7493" stroke="black" stroke-width="5.81025"/>
<path d="M153.981 118.042L157.221 119.212" stroke="black" stroke-width="5.81025"/>
<path d="M162 120.459L183.286 128.143" stroke="black" stroke-width="5.81025"/>
<path d="M160.894 111.93L177.553 117.944" stroke="black" stroke-width="5.81025"/>
<path d="M189.616 132.341L193.434 121.764" stroke="black" stroke-width="5.81025"/>
<path d="M179.135 81.6917L177.302 86.7686L185.631 89.7756L187.464 84.6986" stroke="black" stroke-width="5.81025"/>
<path d="M171.405 74.119L166.212 88.5038" stroke="black" stroke-width="5.81025"/>
<path d="M194.962 117.534L199.849 103.995L191.52 100.988L195.797 89.1416M198.546 81.5261L206.412 84.3661M198.546 81.5261L189.754 78.3521M198.546 81.5261L195.797 89.1416M206.412 84.3661L208.245 79.2891M206.412 84.3661L189.754 78.3521M189.754 78.3521L191.587 73.2751M195.797 89.1416L204.126 92.1486L202.293 97.2256" stroke="black" stroke-width="5.81025"/>
<rect x="155.448" y="45.882" width="4.91975" height="4.49808" transform="rotate(19.8501 155.448 45.882)" fill="black"/>
<rect x="125.563" y="47.5269" width="9.8395" height="8.99616" transform="rotate(19.8501 125.563 47.5269)" fill="black"/>
<rect x="115.482" y="75.4503" width="4.91975" height="4.49808" transform="rotate(19.8501 115.482 75.4503)" fill="black"/>
<rect x="123.811" y="78.4572" width="4.91975" height="4.49808" transform="rotate(19.8501 123.811 78.4572)" fill="black"/>
<rect width="4.91975" height="3.59846" transform="matrix(0.940584 0.33956 -0.339559 0.940585 152.474 80.197)" fill="black"/>
<rect x="160.451" y="69.6865" width="5.9037" height="4.49808" transform="rotate(19.8501 160.451 69.6865)" fill="black"/>
<rect x="175.512" y="56.9512" width="4.91975" height="4.49808" transform="rotate(19.8501 175.512 56.9512)" fill="black"/>
<rect x="185.063" y="56.5735" width="4.91975" height="4.49808" transform="rotate(19.8501 185.063 56.5735)" fill="black"/>
<rect x="181.866" y="117.588" width="4.91975" height="3.59846" transform="rotate(19.8501 181.866 117.588)" fill="black"/>
<rect x="188.021" y="115.028" width="4.91975" height="3.59846" transform="rotate(19.85 188.021 115.028)" fill="black"/>
<rect width="3.9358" height="2.69885" transform="matrix(0.940584 0.339561 -0.339559 0.940585 185.541 110.307)" fill="black"/>
<rect x="168.531" y="90.7757" width="8.85555" height="3.59846" transform="rotate(19.8501 168.531 90.7757)" fill="black"/>
<rect x="171.012" y="95.4971" width="9.8395" height="8.99616" transform="rotate(19.8501 171.012 95.4971)" fill="black"/>
<rect x="164.254" y="102.622" width="7.8716" height="3.59846" transform="rotate(19.8501 164.254 102.622)" fill="black"/>
<path d="M209.166 92.8677C209.166 104.398 199.119 113.776 186.685 113.776C174.25 113.776 164.203 104.398 164.203 92.8677C164.203 81.3376 174.25 71.959 186.685 71.959C199.119 71.959 209.166 81.3376 209.166 92.8677Z" fill="url(#paint0_linear_386_4985)" stroke="#8C3FD9" stroke-width="0.527531"/>
<path d="M210.068 92.4266C210.068 104.886 199.768 115.113 186.905 115.113C174.043 115.113 163.743 104.886 163.743 92.4266C163.743 79.9667 174.043 69.7401 186.905 69.7401C199.768 69.7401 210.068 79.9667 210.068 92.4266Z" stroke="#8C3FD9" stroke-width="8.4405"/>
<path d="M205.897 111.835L226.213 130.802" stroke="#8C3FD9" stroke-width="14.2433" stroke-linecap="round" stroke-linejoin="round"/>
<defs>
<linearGradient id="paint0_linear_386_4985" x1="186.685" y1="71.6952" x2="186.685" y2="114.04" gradientUnits="userSpaceOnUse">
<stop stop-color="white" stop-opacity="0.7"/>
<stop offset="1" stop-color="white" stop-opacity="0.3"/>
</linearGradient>
</defs>
</svg>
