<svg width="143" height="56" viewBox="0 0 143 56" fill="none" xmlns="http://www.w3.org/2000/svg">
<path d="M20.9658 0.480469C18.1977 5.82554 15.2903 10.9438 0 11.9482V47.185C11.6556 48.2945 16.0674 51.8188 20.9658 55.8838H123.67C125.327 50.5167 130.624 47.6542 142.369 47.185V11.9482C127.805 10.0479 123.837 5.48683 123.67 0.480469H20.9658Z" fill="#EABB76"/>
<path d="M25.3258 6.15662C22.8059 10.3708 20.159 14.4061 6.23938 15.198V42.9793C16.8502 43.8541 20.8665 46.6328 25.3258 49.8377H118.823C120.332 45.6061 125.154 43.3493 135.846 42.9793V15.198C122.588 13.6997 118.975 10.1037 118.823 6.15662H25.3258Z" fill="#FEB048" stroke="#F4EFD3" stroke-width="0.801782"/>
</svg>
