<svg width="193" height="266" viewBox="0 0 193 266" fill="none" xmlns="http://www.w3.org/2000/svg">
<path d="M52.4575 264.515L33.1561 117.805L157.056 113.418L142.823 265.88L52.4575 264.515Z" fill="#D10B1C"/>
<path d="M157.836 248.626L142.823 265.88L157.056 113.419L173.238 112.834L157.836 248.626Z" fill="#F1523D"/>
<path d="M62.7906 264.613L68.8345 264.71L63.3755 116.44L48.6558 117.512L62.7906 264.613Z" fill="#F4EFD3"/>
<path d="M85.2115 265.003L89.5007 265.1L89.4033 149.487H78.7777L85.2115 265.003Z" fill="#F4EFD3"/>
<path d="M99.054 265.198L103.148 265.295L111.629 175.709H103.148L99.054 265.198Z" fill="#F4EFD3"/>
<path d="M121.085 265.49L129.273 265.685L145.26 114.003H134.732L121.085 265.49Z" fill="#F4EFD3"/>
<path d="M149.55 258.374L145.943 262.273L158.81 119.56H162.515L149.55 258.374Z" fill="#F4EFD3"/>
<path d="M154.814 252.038L151.792 255.645L166.122 112.931H168.461L154.814 252.038Z" fill="#F4EFD3"/>
<path d="M157.543 249.016L156.373 250.186L170.508 112.834H172.75L157.543 249.016Z" fill="#F4EFD3"/>
<g filter="url(#filter0_d_353_17922)">
<path d="M69.712 182.436H127.519C131.523 182.661 132.072 180.685 132.588 176.587C132.35 151.311 130.773 137.537 124.204 114.003L70.7843 116.343C67.029 139.774 65.9581 152.956 65.6178 176.587C65.3916 180.635 65.6523 182.528 69.712 182.436Z" fill="#F9B64E"/>
<path d="M70.687 177.269H127.129C127.648 154.832 126.576 141.525 119.038 114.783L76.8284 116.343C72.1837 139.133 70.9779 152.535 70.687 177.269Z" fill="#1B1523"/>
<path d="M118.745 177.172H127.226C127.516 151.441 125.909 137.789 119.525 114.978H111.239C116.529 139.232 118.285 152.848 118.745 177.172Z" fill="#3D1F21"/>
</g>
<path d="M166.148 95.0918L181.258 94.7019L186.912 111.859L168.488 112.639L166.148 95.0918Z" fill="#E4011C"/>
<path d="M180.576 122.192C177.651 123.005 168.358 116.115 168.488 112.639L186.912 111.859C187.511 114.355 184.196 122.03 180.576 122.192Z" fill="#B8101D"/>
<path d="M154.645 95.0923H166.148L168.488 112.639L155.23 113.029L154.645 95.0923Z" fill="#FFF0E9"/>
<path d="M142.363 95.3847L154.646 95.0923L155.23 113.029L143.728 113.321L142.363 95.3847Z" fill="#E4011C"/>
<path d="M131.347 95.5797L142.363 95.3848L143.728 113.321L132.712 113.809L131.347 95.5797Z" fill="#FFF0E9"/>
<path d="M118.382 96.0672L131.347 95.5798L132.712 113.809L118.87 114.394L118.382 96.0672Z" fill="#E4011C"/>
<path d="M105.222 96.5545L118.382 96.0671L118.87 114.394L107.074 114.784L105.222 96.5545Z" fill="#FFF0E9"/>
<path d="M90.0149 96.7494L105.222 96.5544L107.074 114.784L89.7224 115.466L90.0149 96.7494Z" fill="#E4011C"/>
<path d="M74.3203 97.2367L90.0149 97.0417L89.7224 115.466L75.9775 115.953L74.3203 97.2367Z" fill="#FFF0E9"/>
<path d="M57.456 97.8215L74.3203 97.2366L75.9775 115.953L56.3837 116.635L57.456 97.8215Z" fill="#E4011C"/>
<path d="M46.4406 97.8218H57.4561L56.3838 116.636L48.0978 116.928L46.4406 97.8218Z" fill="#FFF0E9"/>
<path d="M32.6955 98.2117L46.4405 97.8218L48.0977 116.928L34.2552 117.513L32.6955 98.2117Z" fill="#E4011C"/>
<path d="M19.7306 98.5041L32.6957 98.2117L34.2554 117.513L18.1708 118.098L19.7306 98.5041Z" fill="#FFF0E9"/>
<path d="M12.4193 98.5042H19.7305L18.1708 118.098L3.25602 118.585L12.4193 98.5042Z" fill="#E4011C"/>
<path d="M163.224 122.679C160.424 122.679 155.23 118.526 155.23 113.028L168.488 112.639C168.488 118.136 166.023 122.679 163.224 122.679Z" fill="#EFCFC2"/>
<path d="M149.382 120.145C146.205 120.145 143.728 117.09 143.728 113.321L155.23 113.029C155.23 116.797 152.558 120.145 149.382 120.145Z" fill="#B8101D"/>
<path d="M125.674 121.12C121.851 121.12 118.87 118.214 118.87 114.394L132.712 113.809C132.712 117.629 129.496 121.12 125.674 121.12Z" fill="#B8101D"/>
<path d="M112.822 121.12C109.538 121.12 107.074 118.044 107.074 114.784L118.87 114.394C118.87 117.654 116.107 121.12 112.822 121.12Z" fill="#EFCFC2"/>
<path d="M98.0809 121.705C93.2497 121.705 89.7224 118.773 89.7224 115.466L107.074 114.784C107.074 118.091 102.912 121.705 98.0809 121.705Z" fill="#B7111D"/>
<path d="M82.5515 122.679C78.7517 122.679 75.9775 119.493 75.9775 115.953L89.7224 115.466C89.7224 119.006 86.3513 122.679 82.5515 122.679Z" fill="#EFCFC1"/>
<path d="M65.7043 123.264C60.2607 123.264 56.3837 120.176 56.3837 116.636L75.9775 115.953C75.9775 119.493 71.148 123.264 65.7043 123.264Z" fill="#B9101D"/>
<path d="M51.993 121.705C49.7181 121.705 48.0978 119.194 48.0978 116.928L56.3838 116.636C56.3838 118.901 54.268 121.705 51.993 121.705Z" fill="#FACBC4"/>
<path d="M40.4642 122.095C36.6102 122.095 34.2552 119.779 34.2552 117.513L48.0977 116.928C48.0977 119.194 44.3183 122.095 40.4642 122.095Z" fill="#B8101D"/>
<path d="M25.3318 122.874C20.8263 122.874 18.1708 120.406 18.1708 118.098L34.2554 117.513C34.2554 119.821 29.8372 122.874 25.3318 122.874Z" fill="#EFCFC2"/>
<path d="M9.85266 125.604C5.70218 125.604 3.25592 121.775 3.25592 118.585L18.1707 118.098C18.1707 121.288 14.0031 125.604 9.85266 125.604Z" fill="#B8101D"/>
<path d="M138.171 120.73C135.156 120.73 132.712 117.9 132.712 113.809L143.728 113.321C143.728 117.413 141.186 120.73 138.171 120.73Z" fill="#EFCFC2"/>
<path d="M11.1676 99.9013L180.981 96.002L189.657 48.7232C191.533 28.4234 183.141 29.4391 154.856 48.7232C150.565 33.3071 147.691 25.0461 136.919 14.897C118.09 3.01324 105.187 1.58801 80.0873 3.68656C58.4074 8.28367 49.5772 17.1354 37.2927 39.4624C6.37183 26.1545 0.119598 24.4921 4.05136 45.7988L11.1676 99.9013Z" fill="#F4EFD3" stroke="#E4011C" stroke-width="4.91932"/>
<path d="M183.864 78.7214L8.98089 83.4006" stroke="#E4011C" stroke-width="4.91932"/>
<path d="M163.838 87.2198C163.869 89.0802 165.36 90.5475 167.149 90.5174C168.938 90.4873 170.379 88.9705 170.348 87.1101C170.316 85.2497 168.825 83.7823 167.036 83.8125C165.247 83.8426 163.806 85.3594 163.838 87.2198Z" fill="#FC8800" stroke="black" stroke-width="0.70276"/>
<path d="M151.946 87.4202C151.978 89.2806 153.469 90.748 155.258 90.7178C157.047 90.6877 158.488 89.1709 158.456 87.3105C158.425 85.4501 156.934 83.9828 155.145 84.0129C153.356 84.0431 151.915 85.5598 151.946 87.4202Z" fill="#FC8800" stroke="black" stroke-width="0.70276"/>
<path d="M140.062 88.0103C140.093 89.8707 141.584 91.3381 143.373 91.3079C145.162 91.2778 146.603 89.761 146.572 87.9006C146.541 86.0402 145.049 84.5729 143.26 84.603C141.472 84.6331 140.031 86.1499 140.062 88.0103Z" fill="#FC8800" stroke="black" stroke-width="0.70276"/>
<path d="M127.979 88.409C128.011 90.2694 129.502 91.7367 131.291 91.7066C133.08 91.6765 134.52 90.1597 134.489 88.2993C134.458 86.4389 132.967 84.9715 131.178 85.0017C129.389 85.0318 127.948 86.5486 127.979 88.409Z" fill="#FC8800" stroke="black" stroke-width="0.70276"/>
<path d="M116.091 88.8042C116.123 90.6647 117.614 92.132 119.403 92.1019C121.192 92.0717 122.633 90.555 122.601 88.6946C122.57 86.8342 121.079 85.3668 119.29 85.397C117.501 85.4271 116.06 86.9438 116.091 88.8042Z" fill="#FC8800" stroke="black" stroke-width="0.70276"/>
<path d="M104.005 89.0079C104.037 90.8683 105.528 92.3356 107.317 92.3055C109.106 92.2753 110.547 90.7586 110.515 88.8982C110.484 87.0378 108.993 85.5704 107.204 85.6006C105.415 85.6307 103.974 87.1475 104.005 89.0079Z" fill="#FC8800" stroke="black" stroke-width="0.70276"/>
<path d="M92.1208 89.598C92.1521 91.4584 93.6433 92.9257 95.4322 92.8956C97.2211 92.8654 98.6621 91.3487 98.6307 89.4883C98.5994 87.6279 97.1082 86.1605 95.3193 86.1907C93.5304 86.2208 92.0894 87.7375 92.1208 89.598Z" fill="#FC8800" stroke="black" stroke-width="0.70276"/>
<path d="M80.038 89.9966C80.0693 91.857 81.5606 93.3244 83.3495 93.2943C85.1384 93.2641 86.5793 91.7474 86.548 89.887C86.5166 88.0266 85.0254 86.5592 83.2365 86.5893C81.4476 86.6195 80.0067 88.1362 80.038 89.9966Z" fill="#FC8800" stroke="black" stroke-width="0.70276"/>
<path d="M68.1501 90.3917C68.1814 92.2521 69.6726 93.7194 71.4615 93.6893C73.2504 93.6591 74.6914 92.1424 74.66 90.282C74.6287 88.4216 73.1375 86.9542 71.3486 86.9844C69.5597 87.0145 68.1187 88.5312 68.1501 90.3917Z" fill="#FC8800" stroke="black" stroke-width="0.70276"/>
<path d="M56.0707 90.9854C56.1021 92.8458 57.5933 94.3132 59.3822 94.283C61.1711 94.2529 62.612 92.7361 62.5807 90.8757C62.5494 89.0153 61.0581 87.548 59.2692 87.5781C57.4803 87.6082 56.0394 89.125 56.0707 90.9854Z" fill="#FC8800" stroke="black" stroke-width="0.70276"/>
<path d="M44.1796 91.1858C44.2109 93.0462 45.7022 94.5136 47.4911 94.4835C49.28 94.4533 50.7209 92.9366 50.6896 91.0762C50.6582 89.2158 49.167 87.7484 47.3781 87.7785C45.5892 87.8087 44.1483 89.3254 44.1796 91.1858Z" fill="#FC8800" stroke="black" stroke-width="0.70276"/>
<path d="M32.1 91.7791C32.1314 93.6395 33.6226 95.1069 35.4115 95.0767C37.2004 95.0466 38.6413 93.5298 38.61 91.6694C38.5787 89.809 37.0874 88.3417 35.2985 88.3718C33.5096 88.4019 32.0687 89.9187 32.1 91.7791Z" fill="#FC8800" stroke="black" stroke-width="0.70276"/>
<path d="M20.2089 91.9795C20.2402 93.8399 21.7315 95.3073 23.5204 95.2772C25.3093 95.247 26.7502 93.7303 26.7189 91.8699C26.6875 90.0095 25.1963 88.5421 23.4074 88.5722C21.6185 88.6024 20.1776 90.1191 20.2089 91.9795Z" fill="#FC8800" stroke="black" stroke-width="0.70276"/>
<path d="M158.908 48.4046L186.301 56.0082L187.275 50.2568L168.559 42.1658L158.908 48.4046Z" fill="#FC8800"/>
<path d="M9.27311 73.7901L36.2756 81.0037L103.441 79.1516L7.22599 54.6836L9.27311 73.7901Z" fill="#FC8800"/>
<path d="M38.3227 41.9708L155.691 77.4542L182.499 76.6743L63.4731 11.5564C52.2869 18.4344 46.9959 25.8865 38.3227 41.9708Z" fill="#FC8800"/>
<path d="M25.0584 50.66C25.9234 50.6155 26.8951 50.5159 27.9735 50.361C29.0752 50.2068 30.1313 50.0163 31.1418 49.7894C32.1523 49.5625 32.9645 49.3297 33.5785 49.0911C32.9829 50.2874 32.5864 52.645 32.3889 56.164C32.2155 59.6604 32.1999 62.9514 32.3421 66.037C32.485 69.0992 32.6761 70.9256 32.9154 71.5163L24.4841 71.267C25.4503 69.3814 25.9336 64.4819 25.9342 56.5684C25.9525 53.581 25.6606 51.6115 25.0584 50.66ZM40.852 37.5761C43.4416 37.6293 45.5213 38.7412 47.0912 40.9119C48.6843 43.0833 49.2705 45.3649 48.8496 47.7569C48.4527 50.1262 47.1029 51.5686 44.7999 52.0841C43.2276 52.3644 41.8272 52.358 40.5987 52.0649C39.3935 51.7725 38.1008 51.2791 36.7207 50.5846C35.3413 49.8669 34.1022 49.1416 33.0034 48.4088C31.9279 47.6767 30.7217 47.0224 29.3849 46.446C28.072 45.8469 26.8558 45.5309 25.7363 45.4978C24.2676 45.431 23.0225 45.6976 22.001 46.2977C20.9795 46.8978 20.3383 47.6608 20.0775 48.5869C19.8174 49.4896 19.7905 50.3992 19.9968 51.3157C20.2038 52.2088 20.7995 52.9851 21.7838 53.6445C22.7687 54.2806 24.0079 54.609 25.5013 54.6298C24.7246 55.634 23.677 56.3266 22.3585 56.7078C21.0633 57.0897 19.8124 57.1578 18.6058 56.912C17.3992 56.6662 16.3422 56.0981 15.4348 55.2075C14.5281 54.2937 14.0597 53.1593 14.0298 51.8045C13.9901 50.7762 14.1117 49.8227 14.3945 48.944C14.7006 48.066 15.1311 47.3201 15.6862 46.7062C16.2412 46.0924 16.8872 45.5629 17.624 45.1178C18.3615 44.6494 19.1658 44.288 20.0371 44.0337C20.9323 43.7567 21.8251 43.5613 22.7156 43.4476C23.6067 43.3105 24.519 43.2441 25.4526 43.2484C27.086 43.2733 29.0166 43.5055 31.2446 43.9449C33.4959 44.3849 35.667 44.776 37.7578 45.1179C39.8486 45.4598 41.7014 45.5613 43.3162 45.4223C44.2519 45.3566 45.0182 45.0991 45.615 44.6499C46.2119 44.2007 46.462 43.6362 46.3654 42.9564C46.266 42.3698 45.907 41.8807 45.2883 41.4889C44.6929 41.0978 43.9991 40.8789 43.2068 40.8321C42.4152 40.762 41.6318 40.8089 40.8566 40.9727C40.0821 41.1132 39.4534 41.4564 38.9704 42.0024C38.4874 42.5483 38.2924 43.2195 38.3856 44.016C37.2208 43.9348 36.4211 43.351 35.9863 42.2643C35.5523 41.1543 35.7229 40.1206 36.4982 39.1631C37.3943 38.0691 38.8455 37.5401 40.852 37.5761ZM58.2058 47.3332C58.0588 48.356 57.8908 50.0901 57.7018 52.5356C57.5127 54.9811 57.3532 57.6142 57.2231 60.4349C57.093 63.2556 57.0621 65.8809 57.1303 68.3106C57.1992 70.717 57.3996 72.2286 57.7315 72.8454C56.5969 72.5317 55.272 72.3408 53.7567 72.2726C52.2654 72.1818 50.8492 72.315 49.508 72.6722C49.9369 71.5878 50.2057 70.3935 50.3143 69.0895C50.4215 67.8321 50.6335 63.4265 50.9502 55.8725C51.081 53.0285 50.9856 50.7263 50.6642 48.966C49.1624 50.0188 47.9902 51.3731 47.1476 53.0289C46.3283 54.6854 45.9699 56.5423 46.0725 58.5995C46.1696 60.0497 46.5279 61.3559 47.1471 62.518C47.7897 63.6808 48.6738 64.5707 49.7994 65.1876C47.517 65.797 45.5774 65.8681 43.9805 65.4007C42.3843 64.91 41.1483 64.0797 40.2725 62.91C39.4207 61.7176 38.9953 60.3161 38.9962 58.7054C39.0216 54.6911 40.7322 51.707 44.1281 49.7532C47.5473 47.8001 52.2399 46.9934 58.2058 47.3332ZM74.6851 73.1716C73.0484 73.2633 71.4411 73.1457 69.8634 72.8189C68.2857 72.4922 66.8082 71.9349 65.4309 71.1472C64.0543 70.3361 62.8578 69.3554 61.8413 68.2048C60.8256 67.0309 60.0506 65.6074 59.5165 63.9342C59.0064 62.2384 58.816 60.3886 58.9453 58.3849C59.0691 56.5678 59.5876 54.8207 60.5009 53.1436C61.4375 51.4672 62.5998 50.0543 63.9877 48.9048C65.3756 47.7553 66.9429 46.8563 68.6895 46.2076C70.4368 45.5356 72.185 45.2255 73.9343 45.2772C75.8467 45.3338 77.5606 45.7929 79.0758 46.6548C80.6143 47.5173 81.758 48.7066 82.5068 50.2227C83.279 51.7396 83.5216 53.4041 83.2345 55.2164C83.1178 56.0067 82.8378 56.7921 82.3945 57.5726C81.9753 58.3306 81.4302 59.0031 80.7592 59.5902C80.1115 60.178 79.409 60.6474 78.6517 60.9985C77.7523 61.4154 76.8114 61.6561 75.8291 61.7204C74.8474 61.7614 73.8837 61.5928 72.9378 61.2147C72.0152 60.8373 71.2384 60.2657 70.6074 59.5001C70.1122 58.8785 69.7502 58.0975 69.5212 57.157C69.2929 56.1931 69.3113 55.1782 69.5762 54.1123C69.8652 53.0237 70.4398 52.1419 71.3002 51.4671C71.5099 52.2669 71.8398 52.9537 72.2897 53.5272C72.7396 54.1008 73.241 54.5124 73.7939 54.7622C74.3467 55.012 74.937 55.1812 75.5646 55.2698C76.2163 55.3357 76.8368 55.2724 77.4261 55.0797C78.3439 54.8267 79.0217 54.4032 79.4595 53.8092C79.9213 53.1926 80.1515 52.5108 80.1503 51.7638C80.1662 50.4337 79.5809 49.3075 78.3943 48.3854C77.2084 47.4399 75.6908 47.0566 73.8413 47.2353C72.2492 47.3983 70.8277 48.1033 69.577 49.3502C68.3496 50.5978 67.4294 52.1113 66.8166 53.8906C66.2044 55.6466 65.881 57.5045 65.8464 59.4644C65.8296 61.6115 66.1335 63.5696 66.7582 65.3389C67.3835 67.0848 68.38 68.5149 69.7477 69.6291C71.1153 70.7434 72.7671 71.3291 74.7029 71.3863C75.7758 71.4181 76.7626 71.2021 77.6633 70.7386C78.5641 70.275 79.2941 69.6663 79.8533 68.9125C80.4365 68.136 80.8818 67.2855 81.1893 66.3609C81.4974 65.4129 81.666 64.4491 81.6949 63.4695C82.4503 63.1884 83.071 63.5102 83.5572 64.435C84.1765 65.5971 84.2078 66.9053 83.6513 68.3595C82.7928 70.5517 80.8351 72.0229 77.7783 72.7728C76.8384 72.9785 75.8074 73.1114 74.6851 73.1716ZM113.001 68.492C113.934 70.0836 114.738 71.3213 115.412 72.2049C116.086 73.0886 116.733 73.7146 117.352 74.0831L107.417 73.7893C107.633 73.5856 107.746 73.3205 107.755 72.9939C107.789 72.6448 107.719 72.2459 107.546 71.7972C107.396 71.3259 107.2 70.8649 106.956 70.4142C106.737 69.9408 106.45 69.3954 106.094 68.778C105.649 68.0412 104.527 66.1405 102.726 63.076C102.517 69.3725 102.699 73.0662 103.274 74.157C102.14 73.82 100.816 73.6174 99.3004 73.5493C97.8084 73.4818 96.3922 73.615 95.0517 73.9489C95.4799 72.8877 95.7487 71.6935 95.858 70.3662C95.9652 69.1088 96.1765 64.7264 96.4918 57.2191C96.6233 54.3518 96.528 52.0496 96.2058 50.3127C94.704 51.3654 93.5318 52.7197 92.6892 54.3755C91.8699 56.032 91.5115 57.8889 91.6141 59.9462C91.712 61.373 92.0705 62.6675 92.6898 63.8297C93.3323 64.9925 94.2164 65.8823 95.342 66.4992C93.0604 67.0854 91.1211 67.1447 89.5242 66.6773C87.9273 66.2099 86.691 65.3914 85.8152 64.2216C84.9634 63.0293 84.538 61.6278 84.5389 60.0171C84.5635 56.0261 86.2738 53.0537 89.6697 51.0998C93.0889 49.1467 97.7815 48.34 103.747 48.6799C103.365 51.3531 103.043 55.5337 102.781 61.2218C104.959 60.189 106.753 59.1216 108.163 58.0195C109.573 56.9173 110.536 55.9303 111.052 55.0585C111.569 54.1634 111.85 53.3197 111.897 52.5274C111.967 51.7358 111.858 51.0906 111.569 50.5919C111.305 50.0705 110.954 49.675 110.519 49.4053C111.145 48.7469 111.928 48.3382 112.866 48.1792C113.805 47.9968 114.667 48.069 115.451 48.3956C116.235 48.7223 116.758 49.193 117.02 49.8076C117.783 51.6277 117.331 53.4818 115.665 55.37C114.022 57.2589 111.51 58.9004 108.131 60.2945L113.001 68.492ZM118.832 51.4719C119.052 50.3346 119.653 49.3603 120.634 48.5489C121.615 47.7376 122.729 47.1752 123.975 46.8619C125.246 46.526 126.534 46.3773 127.84 46.416C129.17 46.432 130.319 46.6527 131.287 47.0781C132.21 47.4556 132.928 48.0254 133.443 48.7876C133.981 49.5272 134.25 50.3054 134.249 51.1224C134.248 51.9394 134.097 52.717 133.795 53.455C133.493 54.1931 132.973 54.7963 132.236 55.2647C131.522 55.7105 130.711 55.8966 129.803 55.8231C129.011 55.7763 128.296 55.4751 127.659 54.9193C127.046 54.3409 126.681 53.6415 126.565 52.8211C126.473 52.0013 126.803 51.1124 127.555 50.1542C127.723 50.7894 128.069 51.3249 128.593 51.7605C129.141 52.1736 129.695 52.3767 130.255 52.3699C131.096 52.3481 131.688 52.0738 132.03 51.5471C132.373 51.0203 132.39 50.4255 132.083 49.7628C131.799 49.1008 131.266 48.5948 130.482 48.2449C129.838 47.9457 129.164 47.8207 128.463 47.87C127.784 47.92 127.149 48.0879 126.557 48.3739C125.965 48.6365 125.462 49.0768 125.047 49.6948C124.633 50.2895 124.379 50.9823 124.285 51.7732C124.149 53.2165 124.601 54.5254 125.64 55.7C126.703 56.8519 128.34 57.5423 130.551 57.771L130.533 58.3658C127.362 59.0423 125.191 60.6239 124.02 63.1104C123.097 65.1373 123.036 67.1897 123.838 69.2677C124.553 71.1563 125.765 72.3826 127.476 72.9468C128.054 73.1273 128.67 73.2155 129.324 73.2115C130.445 73.198 131.425 72.8184 132.264 72.0729C133.126 71.3281 133.713 70.4467 134.023 69.4288C134.356 68.4115 134.353 67.3259 134.014 66.1721C133.675 65.0182 132.979 64.0639 131.928 63.3092C132.925 62.755 133.878 62.4914 134.787 62.5183C135.698 62.5219 136.438 62.7539 137.008 63.2143C137.602 63.652 138.063 64.2492 138.39 65.0059C138.742 65.74 138.905 66.5501 138.879 67.4364C138.853 68.3227 138.641 69.1801 138.243 70.0087C137.845 70.8373 137.261 71.6138 136.493 72.338C135.749 73.0397 134.728 73.6164 133.43 74.0683C132.133 74.5201 130.655 74.7682 128.996 74.8125C124.536 74.8907 121.126 73.7511 118.768 71.3937C116.976 69.6367 116.195 67.6294 116.425 65.3719C116.658 63.021 117.904 61.1437 120.163 59.7399C121.542 58.8936 123.169 58.3348 125.045 58.0634C123.643 58.092 122.415 57.7756 121.361 57.1141C120.307 56.4527 119.561 55.6136 119.125 54.5969C118.711 53.5809 118.614 52.5393 118.832 51.4719ZM146.787 54.2594C147.652 54.2149 148.624 54.1153 149.703 53.9604C150.804 53.8063 151.86 53.6157 152.871 53.3888C153.881 53.1619 154.694 52.9292 155.308 52.6905C154.712 53.8868 154.315 56.2444 154.118 59.7635C153.945 63.2599 153.929 66.5508 154.071 69.6364C154.214 72.6986 154.405 74.5251 154.644 75.1157L146.213 74.8664C147.179 72.9808 147.663 68.0813 147.663 60.1679C147.681 57.1804 147.39 55.2109 146.787 54.2594ZM162.581 41.1755C165.171 41.2287 167.25 42.3407 168.82 44.5113C170.413 46.6827 171 48.9644 170.579 51.3563C170.182 53.7256 168.832 55.168 166.529 55.6835C164.957 55.9638 163.556 55.9574 162.328 55.6643C161.122 55.3719 159.83 54.8785 158.45 54.1841C157.07 53.4663 155.831 52.741 154.732 52.0082C153.657 51.2761 152.451 50.6219 151.114 50.0454C149.801 49.4464 148.585 49.1303 147.465 49.0972C145.997 49.0304 144.752 49.2971 143.73 49.8971C142.709 50.4972 142.067 51.2602 141.807 52.1863C141.546 53.089 141.52 53.9986 141.726 54.9151C141.933 55.8083 142.529 56.5845 143.513 57.2439C144.498 57.88 145.737 58.2084 147.23 58.2292C146.454 59.2334 145.406 59.926 144.088 60.3072C142.792 60.6891 141.541 60.7572 140.335 60.5114C139.128 60.2656 138.071 59.6975 137.164 58.8069C136.257 57.8931 135.789 56.7587 135.759 55.4039C135.719 54.3756 135.841 53.4222 136.123 52.5435C136.43 51.6655 136.86 50.9195 137.415 50.3057C137.97 49.6918 138.616 49.1623 139.353 48.7172C140.09 48.2488 140.895 47.8875 141.766 47.6331C142.661 47.3561 143.554 47.1607 144.445 47.047C145.336 46.9099 146.248 46.8436 147.182 46.8478C148.815 46.8728 150.746 47.1049 152.974 47.5443C155.225 47.9844 157.396 48.3754 159.487 48.7173C161.578 49.0593 163.43 49.1607 165.045 49.0217C165.981 48.956 166.747 48.6986 167.344 48.2493C167.941 47.8001 168.191 47.2356 168.094 46.5558C167.995 45.9693 167.636 45.4801 167.017 45.0883C166.422 44.6972 165.728 44.4783 164.936 44.4315C164.144 44.3614 163.361 44.4083 162.586 44.5721C161.811 44.7126 161.182 45.0558 160.699 45.6018C160.216 46.1478 160.021 46.819 160.115 47.6154C158.95 47.5343 158.15 46.9504 157.715 45.8637C157.281 44.7537 157.452 43.72 158.227 42.7625C159.123 41.6685 160.575 41.1395 162.581 41.1755Z" fill="#E4011C"/>
<defs>
<filter id="filter0_d_353_17922" x="65.5601" y="114.003" width="72.4157" height="74.306" filterUnits="userSpaceOnUse" color-interpolation-filters="sRGB">
<feFlood flood-opacity="0" result="BackgroundImageFix"/>
<feColorMatrix in="SourceAlpha" type="matrix" values="0 0 0 0 0 0 0 0 0 0 0 0 0 0 0 0 0 0 127 0" result="hardAlpha"/>
<feOffset dx="4.45081" dy="4.91932"/>
<feGaussianBlur stdDeviation="0.468506"/>
<feComposite in2="hardAlpha" operator="out"/>
<feColorMatrix type="matrix" values="0 0 0 0 0 0 0 0 0 0 0 0 0 0 0 0 0 0 0.25 0"/>
<feBlend mode="normal" in2="BackgroundImageFix" result="effect1_dropShadow_353_17922"/>
<feBlend mode="normal" in="SourceGraphic" in2="effect1_dropShadow_353_17922" result="shape"/>
</filter>
</defs>
</svg>
