<svg width="244" height="101" viewBox="0 0 244 101" fill="none" xmlns="http://www.w3.org/2000/svg">
<path d="M35.9323 0.64502C31.1883 10.2926 26.2053 19.5307 0 21.3436V84.9441C19.9761 86.9468 27.5371 93.308 35.9323 100.645H211.952C214.792 90.9577 223.87 85.7911 244 84.9441V21.3436C219.039 17.9136 212.238 9.68123 211.952 0.64502H35.9323Z" fill="#EABB76"/>
<path d="M43.4044 10.8901C39.0856 18.4965 34.5493 25.78 10.6931 27.2093V77.3531C28.8785 78.9321 35.7618 83.9473 43.4044 89.732H203.646C206.231 82.0944 214.495 78.0209 232.821 77.3531V27.2093C210.097 24.505 203.906 18.0145 203.646 10.8901H43.4044Z" fill="#FEB048" stroke="#F4EFD3" stroke-width="2"/>
</svg>
