<svg width="311" height="160" viewBox="0 0 311 160" fill="none" xmlns="http://www.w3.org/2000/svg">
<rect x="3.83481" y="3.48844" width="303.33" height="152.984" rx="9.49556" fill="#C04994" stroke="#6DB8C2" stroke-width="6.33037"/>
<ellipse cx="176.438" cy="46.7099" rx="2.73796" ry="3.12909" fill="#C7CC70"/>
<ellipse cx="259.359" cy="46.7099" rx="2.73796" ry="3.12909" fill="#C7CC70"/>
<ellipse cx="259.359" cy="74.8717" rx="2.73796" ry="3.12909" fill="#C7CC70"/>
<ellipse cx="176.438" cy="74.8717" rx="2.73796" ry="3.12909" fill="#C7CC70"/>
<rect x="174.482" y="47.4922" width="86.8324" height="26.5973" fill="black" stroke="#C7CC70" stroke-width="1.56455"/>
<path d="M178.394 51.4036H186.999" stroke="#242A2B" stroke-width="2.34682"/>
<path d="M178.394 60.7908H186.999" stroke="#242A2B" stroke-width="2.34682"/>
<path d="M178.394 69.3958H186.999" stroke="#242A2B" stroke-width="2.34682"/>
<path d="M177.611 60.7908V69.3958" stroke="#242A2B" stroke-width="2.34682"/>
<path d="M187.781 51.4036V60.0086" stroke="#242A2B" stroke-width="2.34682"/>
<path d="M187.781 60.7908V69.3958" stroke="#242A2B" stroke-width="2.34682"/>
<path d="M177.611 51.4036V60.0086" stroke="#EFABD6" stroke-width="2.34682"/>
<path d="M194.821 51.4036V60.0086" stroke="#242A2B" stroke-width="2.34682"/>
<path d="M195.603 51.4036H204.208" stroke="#242A2B" stroke-width="2.34682"/>
<path d="M195.603 60.7908H204.208" stroke="#242A2B" stroke-width="2.34682"/>
<path d="M195.603 69.3958H204.208" stroke="#242A2B" stroke-width="2.34682"/>
<path d="M194.821 60.7908V69.3958" stroke="#242A2B" stroke-width="2.34682"/>
<path d="M204.991 51.4036V60.0086" stroke="#EFABD6" stroke-width="2.34682"/>
<path d="M204.991 60.7908V69.3958" stroke="#EFABD6" stroke-width="2.34682"/>
<path d="M212.032 51.4036V60.0086" stroke="#EFABD6" stroke-width="2.34682"/>
<path d="M212.814 51.4036H221.419" stroke="#EFABD6" stroke-width="2.34682"/>
<path d="M212.814 60.7908H221.419" stroke="#242A2B" stroke-width="2.34682"/>
<path d="M212.814 69.3958H221.419" stroke="#EFABD6" stroke-width="2.34682"/>
<path d="M212.031 60.7908V69.3958" stroke="#EFABD6" stroke-width="2.34682"/>
<path d="M222.201 51.4036V60.0086" stroke="#EFABD6" stroke-width="2.34682"/>
<path d="M222.201 60.7908V69.3958" stroke="#EFABD6" stroke-width="2.34682"/>
<path d="M229.241 51.4036V60.0086" stroke="#EFABD6" stroke-width="2.34682"/>
<path d="M230.023 51.4036H238.628" stroke="#EFABD6" stroke-width="2.34682"/>
<path d="M230.023 60.7908H238.628" stroke="#242A2B" stroke-width="2.34682"/>
<path d="M230.023 69.3958H238.628" stroke="#EFABD6" stroke-width="2.34682"/>
<path d="M229.241 60.7908V69.3958" stroke="#EFABD6" stroke-width="2.34682"/>
<path d="M239.411 51.4036V60.0086" stroke="#EFABD6" stroke-width="2.34682"/>
<path d="M239.411 60.7908V69.3958" stroke="#EFABD6" stroke-width="2.34682"/>
<path d="M246.451 51.4036V60.0086" stroke="#EFABD6" stroke-width="2.34682"/>
<path d="M247.234 51.4036H255.839" stroke="#EFABD6" stroke-width="2.34682"/>
<path d="M247.234 60.7908H255.839" stroke="#242A2B" stroke-width="2.34682"/>
<path d="M247.234 69.3958H255.839" stroke="#EFABD6" stroke-width="2.34682"/>
<path d="M246.451 60.7908V69.3958" stroke="#EFABD6" stroke-width="2.34682"/>
<path d="M256.621 51.4036V60.0086" stroke="#EFABD6" stroke-width="2.34682"/>
<path d="M256.621 60.7908V69.3958" stroke="#EFABD6" stroke-width="2.34682"/>
<mask id="mask0_386_4986" style="mask-type:alpha" maskUnits="userSpaceOnUse" x="172" y="60" width="72" height="88">
<rect x="-0.263766" y="0.263766" width="70.1616" height="86.9742" transform="matrix(-1 0 0 1 242.806 60.0027)" fill="#D9D9D9" stroke="#F4EFD3" stroke-width="0.527531"/>
</mask>
<g mask="url(#mask0_386_4986)">
<g filter="url(#filter0_d_386_4986)">
<path d="M208.631 73.8563L200.206 83.864" stroke="#F4EFD3" stroke-width="5.02515" stroke-linecap="round"/>
<path d="M212.064 84.6949L203.435 96.9801" stroke="#F4EFD3" stroke-width="5.02515" stroke-linecap="round"/>
<path d="M216.654 98.4966L206.695 111.366" stroke="#F4EFD3" stroke-width="5.02515" stroke-linecap="round"/>
<path d="M222.108 114.912L210.186 127.726" stroke="#F4EFD3" stroke-width="5.02515" stroke-linecap="round"/>
<path d="M198.883 81.4649L225.756 198.898" stroke="#F4EFD3" stroke-width="3.42624" stroke-linecap="round"/>
<path d="M207.899 68.9369L243.716 178.214" stroke="#F4EFD3" stroke-width="3.42624" stroke-linecap="round"/>
<path d="M227.587 131.415L214.69 147.465" stroke="#F4EFD3" stroke-width="5.02515" stroke-linecap="round"/>
</g>
</g>
<path d="M47.0924 63.6348C52.4755 65.2798 55.5048 63.3971 60.9146 57.7962C68.6484 51.5404 72.4234 51.7876 78.3115 57.7962C83.5171 61.8907 86.9426 61.8488 94.3977 55.5322C99.0935 50.7652 102.028 50.3945 108.101 55.5322C114.626 61.6075 118.087 60.7406 123.472 51.4808C126.825 46.8677 124.279 43.9435 136.103 46.0831C138.35 46.8759 139.692 47.2536 140.366 47.4155C141.031 47.4978 141.16 47.606 140.366 47.4155C139.532 47.3122 137.855 47.2497 136.103 47.8705C127.027 49.9594 128.667 53.5389 127.404 55.7348C122.032 67.2317 118.583 70.2575 111.318 68.7586C107.536 66.534 106.183 64.8283 104.645 61.2517C101.934 57.2762 99.12 58.1289 92.7295 65.1839C86.285 71.0749 82.8725 70.9193 77.12 65.1839C71.0865 59.0897 67.788 59.9462 61.987 65.1839C57.2837 70.8681 54.3259 72.7343 47.4499 69.4735L47.0924 63.6348Z" fill="#2F7A84"/>
<path d="M47.0924 63.6348C52.4755 65.2798 55.5048 63.3971 60.9146 57.7962C68.6484 51.5404 72.4234 51.7876 78.3115 57.7962C83.5171 61.8907 86.9426 61.8488 94.3977 55.5322C99.0935 50.7652 102.028 50.3945 108.101 55.5322C114.626 61.6075 118.087 60.7406 123.472 51.4808C126.825 46.8677 124.279 43.9435 136.103 46.0831C144.314 48.9797 140.437 46.335 136.103 47.8705C127.027 49.9594 128.667 53.5389 127.404 55.7348C122.032 67.2317 118.583 70.2575 111.318 68.7586C107.536 66.534 106.183 64.8283 104.645 61.2517C101.934 57.2762 99.12 58.1289 92.7295 65.1839C86.285 71.0749 82.8725 70.9193 77.12 65.1839C71.0865 59.0897 67.788 59.9462 61.987 65.1839C57.2837 70.8681 54.3259 72.7343 47.4499 69.4735L47.0924 63.6348Z" stroke="black" stroke-width="1.58259"/>
<path d="M60.9146 55.1747C55.5048 60.7757 52.4755 62.6583 47.0924 61.0134L47.4499 66.8521C54.3259 70.1129 57.2837 68.2467 61.987 62.5624C67.788 57.3247 71.0865 56.4682 77.12 62.5624C82.8725 68.2979 86.285 68.4534 92.7295 62.5624C99.12 55.5074 101.934 54.6547 104.645 58.6302C106.183 62.2069 107.536 63.9125 111.318 66.1371C118.583 67.636 122.39 66.6716 127.762 55.1747C129.024 52.9788 132.27 51.7824 141.346 49.6935C145.679 48.158 149.556 47.3472 141.346 44.4506C129.522 42.3109 126.825 44.2462 123.472 48.8594C118.087 58.1192 114.626 58.986 108.101 52.9107C102.028 47.7731 99.0935 48.1438 94.3977 52.9107C86.9426 59.2273 83.5171 59.2693 78.3115 55.1747C72.4234 49.1662 68.6484 48.919 60.9146 55.1747Z" fill="#FEB048" stroke="black" stroke-width="1.58259"/>
<path d="M117.276 66.6973L117.514 68.4846" stroke="black" stroke-width="1.58259"/>
<path d="M114.535 66.8164V68.9612" stroke="black" stroke-width="1.58259"/>
<path d="M112.152 66.3398V68.7229" stroke="black" stroke-width="1.58259"/>
<path d="M110.365 65.6248L109.769 67.4122" stroke="black" stroke-width="1.58259"/>
<path d="M108.577 64.0758L107.386 65.5057" stroke="black" stroke-width="1.58259"/>
<path d="M106.313 61.8118L105.479 62.5268" stroke="black" stroke-width="1.58259"/>
<path d="M104.049 57.7605L103.453 59.667" stroke="black" stroke-width="1.58259"/>
<path d="M99.1638 56.9264L99.8788 58.9521" stroke="black" stroke-width="1.58259"/>
<path d="M96.5426 58.952L97.615 60.3819" stroke="black" stroke-width="1.58259"/>
<path d="M94.5168 60.7394L95.4701 62.1693" stroke="black" stroke-width="1.58259"/>
<path d="M92.7294 62.7651L93.8018 64.0758" stroke="black" stroke-width="1.58259"/>
<path d="M91.0613 64.3141L92.0145 65.744" stroke="black" stroke-width="1.58259"/>
<path d="M88.9165 65.744L89.8698 67.4122" stroke="black" stroke-width="1.58259"/>
<path d="M86.7716 66.6973L87.4865 68.7229" stroke="black" stroke-width="1.58259"/>
<path d="M83.5545 67.0547L82.9587 69.0804" stroke="black" stroke-width="1.58259"/>
<path d="M81.052 65.8632L79.9796 67.5314" stroke="black" stroke-width="1.58259"/>
<path d="M78.7881 64.195L77.5966 65.2674" stroke="black" stroke-width="1.58259"/>
<path d="M76.6433 62.2884L75.5709 63.3608" stroke="black" stroke-width="1.58259"/>
<path d="M74.4985 60.2628L73.1877 61.8118" stroke="black" stroke-width="1.58259"/>
<path d="M71.4002 58.5946L70.6853 60.7394" stroke="black" stroke-width="1.58259"/>
<path d="M67.5873 58.8329L67.349 61.216" stroke="black" stroke-width="1.58259"/>
<path d="M64.7275 60.5011L65.2042 62.5267" stroke="black" stroke-width="1.58259"/>
<path d="M62.2252 62.4076L62.7018 64.4333" stroke="black" stroke-width="1.58259"/>
<path d="M59.9613 64.9099L60.6762 66.5781" stroke="black" stroke-width="1.58259"/>
<path d="M58.174 66.6973L58.8889 68.3655" stroke="black" stroke-width="1.58259"/>
<path d="M55.6716 68.1272L56.1483 70.1528" stroke="black" stroke-width="1.58259"/>
<path d="M52.6926 68.4846L52.9309 70.9869" stroke="black" stroke-width="1.58259"/>
<path d="M49.9521 67.8888V70.272" stroke="black" stroke-width="1.58259"/>
<ellipse cx="137.175" cy="45.9639" rx="1.19157" ry="0.953256" fill="black"/>
<path d="M146.112 47.0363L152.546 51.326" stroke="black" stroke-width="1.58259" stroke-linecap="round"/>
<path d="M145.754 47.9896H155.764" stroke="black" stroke-width="1.58259" stroke-linecap="round"/>
<path d="M158.409 101.229L160.603 90.9049L151.018 85.1467L148.824 95.4713L158.409 101.229Z" fill="white" stroke="#272B52" stroke-width="0.527531" stroke-linecap="round"/>
<path d="M141.56 79.7877L150.829 85.0379L148.621 95.4282L139.404 89.9342L141.56 79.7877Z" fill="#F36A22" stroke="#272B52" stroke-width="0.527531" stroke-linecap="round"/>
<path d="M133.243 75.0432L141.357 79.7445L139.216 89.8218L131.049 85.3677L133.243 75.0432Z" fill="#71770B" stroke="#272B52" stroke-width="0.527531"/>
<path d="M155.785 112.579L158.206 101.186L148.621 95.4281L146.162 106.999L155.785 112.579Z" fill="#BB83F2" stroke="#272B52" stroke-width="0.527531"/>
<path d="M145.997 106.778L148.418 95.385L139.366 90.1122L137.058 100.971L145.997 106.778Z" fill="#00E5AC" stroke="#272B52" stroke-width="0.527531"/>
<path d="M136.855 100.928L139.201 89.8911L131.049 85.3678L128.944 96.2694L136.855 100.928Z" fill="white" stroke="#272B52" stroke-width="0.527531"/>
<path d="M153.312 123.216L155.582 112.536L146.162 106.999L143.93 117.501L153.312 123.216Z" fill="white" stroke="#272B52" stroke-width="0.527531"/>
<path d="M143.727 117.458L145.959 106.956L137.223 101.192L135.066 111.338L143.727 117.458Z" fill="#BB83F2" stroke="#272B52" stroke-width="0.527531"/>
<path d="M134.864 111.295L137.02 101.149L128.906 96.4474L126.863 106.06L134.864 111.295Z" fill="#C7CC70" stroke="#272B52" stroke-width="0.527531"/>
<path d="M161.343 83.4341L170.928 89.1922L160.641 90.7268L151.423 85.2329L161.343 83.4341Z" fill="#BB83F2" stroke="#272B52" stroke-width="0.527531"/>
<path d="M151.885 78.075L160.938 83.3479L151.221 85.1898L141.763 79.8308L151.885 78.075Z" fill="#C7CC70" stroke="#272B52" stroke-width="0.527531"/>
<path d="M142.389 72.894L151.277 77.9457L141.56 79.7876L133.078 74.8221L142.389 72.894Z" fill="#F36A22" stroke="#272B52" stroke-width="0.527531"/>
<path d="M170.376 81.8188L180.163 87.6201L170.928 89.1922L161.343 83.434L170.376 81.8188Z" fill="white" stroke="#272B52" stroke-width="0.527531"/>
<path d="M161.691 76.8103L170.211 81.5978L161.178 83.213L151.923 77.897L161.691 76.8103Z" fill="#71770B" stroke="#272B52" stroke-width="0.527531"/>
<path d="M152.969 71.9797L161.526 76.5892L151.518 77.8109L142.427 72.716L152.969 71.9797Z" fill="#BB83F2" stroke="#272B52" stroke-width="0.527531"/>
<path d="M180.201 87.4421L188.55 86.0536L178.724 80.4304L170.578 81.8619L180.201 87.4421Z" fill="#C7CC70" stroke="#272B52" stroke-width="0.527531"/>
<path d="M170.616 81.684L178.56 80.2094L169.191 75.4274L161.729 76.6323L170.616 81.684Z" fill="white" stroke="#272B52" stroke-width="0.527531"/>
<path d="M161.564 76.4111L169.026 75.2063L161.482 70.8122L153.209 71.8447L161.564 76.4111Z" fill="#00E5AC" stroke="#272B52" stroke-width="0.527531"/>
<path d="M168.215 99.9646L170.485 89.2841L160.641 90.7269L158.333 101.585L168.215 99.9646Z" fill="#C7CC70" stroke="#272B52" stroke-width="0.527531"/>
<path d="M165.907 110.823L168.177 100.143L158.093 101.72L155.785 112.579L165.907 110.823Z" fill="#00E5AC" stroke="#272B52" stroke-width="0.527531"/>
<path d="M163.623 120.57L165.666 110.958L155.747 112.757L153.515 123.259L163.623 120.57Z" fill="#F36A22" stroke="#272B52" stroke-width="0.527531"/>
<path d="M177.893 98.3007L180.126 87.7982L170.687 89.3272L168.417 100.008L177.893 98.3007Z" fill="#00E5AC" stroke="#272B52" stroke-width="0.527531"/>
<path d="M175.053 108.674L177.856 98.4787L168.38 100.186L166.185 110.51L175.053 108.674Z" fill="#BB83F2" stroke="#272B52" stroke-width="0.527531"/>
<path d="M172.769 118.421L175.218 108.895L166.11 110.866L163.991 120.835L172.769 118.421Z" fill="#71770B" stroke="#272B52" stroke-width="0.527531"/>
<path d="M186.837 96.1083L188.918 86.3178L180.366 87.6631L178.096 98.3437L186.837 96.1083Z" fill="#71770B" stroke="#272B52" stroke-width="0.527531"/>
<path d="M183.959 106.66L186.799 96.2863L178.058 98.5218L175.256 108.717L183.959 106.66Z" fill="#F36A22" stroke="#272B52" stroke-width="0.527531"/>
<path d="M180.915 116.99L183.883 107.016L175.218 108.895L173.175 118.507L180.915 116.99Z" fill="#00E5AC" stroke="#272B52" stroke-width="0.527531"/>
<path d="M110.632 107.2L104.391 96.4587L91.4807 99.0058L97.7213 109.747L110.632 107.2Z" fill="#F2E7E2" stroke="#272B52" stroke-width="0.527531" stroke-linecap="round"/>
<path d="M78.996 101.801L91.2299 99.06L97.5102 109.869L85.129 112.357L78.996 101.801Z" fill="#FEB048" stroke="#272B52" stroke-width="0.527531" stroke-linecap="round"/>
<path d="M67.9921 104.231L78.7848 101.923L84.8759 112.407L74.2327 114.972L67.9921 104.231Z" fill="#EABB76" stroke="#272B52" stroke-width="0.527531"/>
<path d="M117.307 119.174L110.421 107.322L97.5099 109.869L104.504 121.907L117.307 119.174Z" fill="#A33233" stroke="#272B52" stroke-width="0.527531"/>
<path d="M104.185 121.844L97.299 109.992L85.2364 112.542L91.7998 123.838L104.185 121.844Z" fill="#A3AA10" stroke="#272B52" stroke-width="0.527531"/>
<path d="M91.589 123.961L84.918 112.479L74.233 114.972L81.0073 126.146L91.589 123.961Z" fill="#F2E7E2" stroke="#272B52" stroke-width="0.527531"/>
<path d="M123.552 130.408L117.096 119.297L104.504 121.907L110.852 132.833L123.552 130.408Z" fill="#F2E7E2" stroke="#272B52" stroke-width="0.527531"/>
<path d="M110.641 132.955L104.293 122.029L92.1184 123.901L98.2514 134.457L110.641 132.955Z" fill="#A33233" stroke="#272B52" stroke-width="0.527531"/>
<path d="M98.0405 134.579L91.9075 124.023L81.1148 126.331L86.925 136.331L98.0405 134.579Z" fill="#2F7A84" stroke="#272B52" stroke-width="0.527531"/>
<path d="M99.136 89.3562L112.047 86.809L104.284 96.2735L91.9025 98.7607L99.136 89.3562Z" fill="#A33233" stroke="#272B52" stroke-width="0.527531"/>
<path d="M86.6514 92.1512L98.7141 89.6013L91.6915 98.8833L79.207 101.678L86.6514 92.1512Z" fill="#2F7A84" stroke="#272B52" stroke-width="0.527531"/>
<path d="M74.2743 95.1313L86.0184 92.5189L78.9958 101.801L67.6736 104.168L74.2743 95.1313Z" fill="#FEB048" stroke="#272B52" stroke-width="0.527531"/>
<path d="M105.74 80.8123L118.862 78.1426L112.046 86.809L99.1356 89.3562L105.74 80.8123Z" fill="#F2E7E2" stroke="#272B52" stroke-width="0.527531"/>
<path d="M94.2074 83.3022L105.422 80.7497L98.8171 89.2936L86.5435 91.966L94.2074 83.3022Z" fill="#EABB76" stroke="#272B52" stroke-width="0.527531"/>
<path d="M82.782 85.9773L93.889 83.2396L86.1217 92.2111L74.1667 94.9461L82.782 85.9773Z" fill="#A33233" stroke="#272B52" stroke-width="0.527531"/>
<path d="M118.755 77.9574L124.942 70.1517L111.928 73.0066L105.952 80.6898L118.755 77.9574Z" fill="#2F7A84" stroke="#272B52" stroke-width="0.527531"/>
<path d="M105.844 80.5046L111.609 72.9439L99.6585 76.1719L94.0999 83.117L105.844 80.5046Z" fill="#F2E7E2" stroke="#272B52" stroke-width="0.527531"/>
<path d="M93.7815 83.0544L99.34 76.1093L89.2878 78.2341L82.8854 85.6695L93.7815 83.0544Z" fill="#A3AA10" stroke="#272B52" stroke-width="0.527531"/>
<path d="M118.188 98.3507L111.732 87.2393L104.284 96.2734L110.847 107.57L118.188 98.3507Z" fill="#2F7A84" stroke="#272B52" stroke-width="0.527531"/>
<path d="M124.751 109.647L118.296 98.5359L110.743 107.878L117.307 119.174L124.751 109.647Z" fill="#A3AA10" stroke="#272B52" stroke-width="0.527531"/>
<path d="M130.458 119.955L124.648 109.955L117.414 119.36L123.763 130.286L130.458 119.955Z" fill="#FEB048" stroke="#272B52" stroke-width="0.527531"/>
<path d="M125.319 89.254L118.97 78.3278L111.944 87.1168L118.399 98.2282L125.319 89.254Z" fill="#A3AA10" stroke="#272B52" stroke-width="0.527531"/>
<path d="M131.034 100.548L125.426 89.4391L118.507 98.4133L124.747 109.154L131.034 100.548Z" fill="#A33233" stroke="#272B52" stroke-width="0.527531"/>
<path d="M136.74 110.856L131.352 100.61L124.962 109.525L130.988 119.895L136.74 110.856Z" fill="#EABB76" stroke="#272B52" stroke-width="0.527531"/>
<path d="M131.389 80.2771L125.472 70.0917L119.073 78.0201L125.529 89.1314L131.389 80.2771Z" fill="#EABB76" stroke="#272B52" stroke-width="0.527531"/>
<path d="M137.212 91.7561L131.497 80.4623L125.637 89.3166L131.244 100.425L137.212 91.7561Z" fill="#FEB048" stroke="#272B52" stroke-width="0.527531"/>
<path d="M142.717 103.173L137.427 92.1265L131.352 100.61L137.162 110.611L142.717 103.173Z" fill="#A3AA10" stroke="#272B52" stroke-width="0.527531"/>
<path d="M268.477 113.111C264.54 114.314 262.325 112.937 258.368 108.841C252.712 104.265 249.951 104.446 245.645 108.841C241.837 111.835 239.332 111.805 233.88 107.185C230.445 103.698 228.299 103.427 223.858 107.185C219.085 111.628 216.554 110.994 212.616 104.222C210.163 100.848 212.025 98.7092 203.378 100.274C201.734 100.854 200.753 101.13 200.26 101.249C199.774 101.309 199.679 101.388 200.26 101.249C200.87 101.173 202.096 101.127 203.378 101.581C210.016 103.109 208.816 105.727 209.74 107.333C213.669 115.742 216.192 117.955 221.505 116.858C224.27 115.231 225.261 113.984 226.385 111.368C228.368 108.46 230.426 109.084 235.1 114.244C239.813 118.552 242.309 118.439 246.516 114.244C250.929 109.787 253.341 110.413 257.584 114.244C261.024 118.401 263.187 119.766 268.216 117.381L268.477 113.111Z" fill="#2F7A84"/>
<path d="M268.477 113.111C264.54 114.314 262.325 112.937 258.368 108.841C252.712 104.265 249.951 104.446 245.645 108.841C241.837 111.835 239.332 111.805 233.88 107.185C230.445 103.698 228.299 103.427 223.858 107.185C219.085 111.628 216.554 110.994 212.616 104.222C210.163 100.848 212.025 98.7092 203.378 100.274C197.373 102.393 200.208 100.458 203.378 101.581C210.016 103.109 208.816 105.727 209.74 107.333C213.669 115.742 216.192 117.955 221.505 116.858C224.27 115.231 225.261 113.984 226.385 111.368C228.368 108.46 230.426 109.084 235.1 114.244C239.813 118.552 242.309 118.439 246.516 114.244C250.929 109.787 253.341 110.413 257.584 114.244C261.024 118.401 263.187 119.766 268.216 117.381L268.477 113.111Z" stroke="black" stroke-width="0.967995"/>
<path d="M258.368 106.923C262.325 111.02 264.54 112.397 268.477 111.194L268.216 115.464C263.187 117.849 261.024 116.484 257.584 112.327C253.341 108.496 250.929 107.87 246.516 112.327C242.309 116.521 239.813 116.635 235.1 112.327C230.426 107.167 228.368 106.543 226.385 109.451C225.261 112.067 224.27 113.314 221.505 114.941C216.192 116.037 213.407 115.332 209.478 106.923C208.555 105.317 206.181 104.442 199.543 102.915C196.374 101.792 193.538 101.199 199.543 99.0801C208.191 97.5153 210.163 98.9307 212.616 102.305C216.554 109.077 219.085 109.711 223.858 105.268C228.299 101.51 230.445 101.781 233.88 105.268C239.332 109.887 241.837 109.918 245.645 106.923C249.951 102.529 252.712 102.348 258.368 106.923Z" fill="#FEB048" stroke="black" stroke-width="0.967995"/>
<path d="M217.148 115.351L216.973 116.658" stroke="black" stroke-width="0.967995"/>
<path d="M219.152 115.438V117.006" stroke="black" stroke-width="0.967995"/>
<path d="M220.895 115.089V116.832" stroke="black" stroke-width="0.967995"/>
<path d="M222.202 114.566L222.638 115.874" stroke="black" stroke-width="0.967995"/>
<path d="M223.509 113.433L224.38 114.479" stroke="black" stroke-width="0.967995"/>
<path d="M225.165 111.778L225.775 112.301" stroke="black" stroke-width="0.967995"/>
<path d="M226.821 108.815L227.256 110.209" stroke="black" stroke-width="0.967995"/>
<path d="M230.394 108.205L229.871 109.686" stroke="black" stroke-width="0.967995"/>
<path d="M206.486 105.829L205.701 106.875" stroke="black" stroke-width="0.967995"/>
<path d="M233.792 110.993L233.095 112.039" stroke="black" stroke-width="0.967995"/>
<path d="M235.1 112.475L234.315 113.433" stroke="black" stroke-width="0.967995"/>
<path d="M236.32 113.608L235.623 114.654" stroke="black" stroke-width="0.967995"/>
<path d="M237.889 114.654L237.191 115.874" stroke="black" stroke-width="0.967995"/>
<path d="M239.457 115.351L238.934 116.832" stroke="black" stroke-width="0.967995"/>
<path d="M241.81 115.612L242.246 117.094" stroke="black" stroke-width="0.967995"/>
<path d="M243.64 114.741L244.425 115.961" stroke="black" stroke-width="0.967995"/>
<path d="M245.296 113.521L246.168 114.305" stroke="black" stroke-width="0.967995"/>
<path d="M246.865 112.126L247.649 112.911" stroke="black" stroke-width="0.967995"/>
<path d="M248.434 110.645L249.392 111.778" stroke="black" stroke-width="0.967995"/>
<path d="M250.699 109.425L251.222 110.993" stroke="black" stroke-width="0.967995"/>
<path d="M253.488 109.599L253.662 111.342" stroke="black" stroke-width="0.967995"/>
<path d="M255.58 110.819L255.231 112.3" stroke="black" stroke-width="0.967995"/>
<path d="M257.41 112.213L257.061 113.695" stroke="black" stroke-width="0.967995"/>
<path d="M259.066 114.044L258.543 115.264" stroke="black" stroke-width="0.967995"/>
<path d="M260.373 115.351L259.85 116.571" stroke="black" stroke-width="0.967995"/>
<path d="M262.203 116.396L261.854 117.878" stroke="black" stroke-width="0.967995"/>
<path d="M264.381 116.658L264.207 118.488" stroke="black" stroke-width="0.967995"/>
<path d="M266.386 116.222V117.965" stroke="black" stroke-width="0.967995"/>
<ellipse cx="0.87148" cy="0.697183" rx="0.87148" ry="0.697183" transform="matrix(-1 0 0 1 203.465 99.4898)" fill="black"/>
<path d="M196.057 100.971L191.351 104.109" stroke="black" stroke-width="0.967995" stroke-linecap="round"/>
<path d="M196.319 101.668H188.998" stroke="black" stroke-width="0.967995" stroke-linecap="round"/>
<defs>
<filter id="filter0_d_386_4986" x="196.8" y="66.8147" width="48.9983" height="137.403" filterUnits="userSpaceOnUse" color-interpolation-filters="sRGB">
<feFlood flood-opacity="0" result="BackgroundImageFix"/>
<feColorMatrix in="SourceAlpha" type="matrix" values="0 0 0 0 0 0 0 0 0 0 0 0 0 0 0 0 0 0 127 0" result="hardAlpha"/>
<feOffset dy="2.28416"/>
<feGaussianBlur stdDeviation="0.456832"/>
<feComposite in2="hardAlpha" operator="out"/>
<feColorMatrix type="matrix" values="0 0 0 0 0 0 0 0 0 0 0 0 0 0 0 0 0 0 0.5 0"/>
<feBlend mode="normal" in2="BackgroundImageFix" result="effect1_dropShadow_386_4986"/>
<feBlend mode="normal" in="SourceGraphic" in2="effect1_dropShadow_386_4986" result="shape"/>
</filter>
</defs>
</svg>
