<svg width="815" height="96" viewBox="0 0 815 96" fill="none" xmlns="http://www.w3.org/2000/svg">
<path d="M118 40L788 48" stroke="#F4EFD3" stroke-width="2"/>
<rect x="0.5" y="0.5" width="113" height="95" rx="11.5" fill="#F36A22"/>
<path d="M41.5442 22.384C41.5442 23.0347 41.3949 23.632 41.0962 24.176C40.7975 24.7093 40.3389 25.1413 39.7202 25.472C39.1015 25.8027 38.3335 25.968 37.4162 25.968H35.7202V30H32.9842V18.768H37.4162C38.3122 18.768 39.0695 18.9227 39.6882 19.232C40.3069 19.5413 40.7709 19.968 41.0802 20.512C41.3895 21.056 41.5442 21.68 41.5442 22.384ZM37.2082 23.792C37.7309 23.792 38.1202 23.6693 38.3762 23.424C38.6322 23.1787 38.7602 22.832 38.7602 22.384C38.7602 21.936 38.6322 21.5893 38.3762 21.344C38.1202 21.0987 37.7309 20.976 37.2082 20.976H35.7202V23.792H37.2082ZM51.4846 25.392C51.4846 25.648 51.4686 25.9147 51.4366 26.192H45.2446C45.2872 26.7467 45.4632 27.1733 45.7726 27.472C46.0926 27.76 46.4819 27.904 46.9406 27.904C47.6232 27.904 48.0979 27.616 48.3646 27.04H51.2766C51.1272 27.6267 50.8552 28.1547 50.4606 28.624C50.0766 29.0933 49.5912 29.4613 49.0046 29.728C48.4179 29.9947 47.7619 30.128 47.0366 30.128C46.1619 30.128 45.3832 29.9413 44.7006 29.568C44.0179 29.1947 43.4846 28.6613 43.1006 27.968C42.7166 27.2747 42.5246 26.464 42.5246 25.536C42.5246 24.608 42.7112 23.7973 43.0846 23.104C43.4686 22.4107 44.0019 21.8773 44.6846 21.504C45.3672 21.1307 46.1512 20.944 47.0366 20.944C47.9006 20.944 48.6686 21.1253 49.3406 21.488C50.0126 21.8507 50.5352 22.368 50.9086 23.04C51.2926 23.712 51.4846 24.496 51.4846 25.392ZM48.6846 24.672C48.6846 24.2027 48.5246 23.8293 48.2046 23.552C47.8846 23.2747 47.4846 23.136 47.0046 23.136C46.5459 23.136 46.1566 23.2693 45.8366 23.536C45.5272 23.8027 45.3352 24.1813 45.2606 24.672H48.6846ZM56.6599 30.128C55.8813 30.128 55.1879 29.9947 54.5799 29.728C53.9719 29.4613 53.4919 29.0987 53.1399 28.64C52.7879 28.1707 52.5906 27.648 52.5479 27.072H55.2519C55.2839 27.3813 55.4279 27.632 55.6839 27.824C55.9399 28.016 56.2546 28.112 56.6279 28.112C56.9693 28.112 57.2306 28.048 57.4119 27.92C57.6039 27.7813 57.6999 27.6053 57.6999 27.392C57.6999 27.136 57.5666 26.9493 57.2999 26.832C57.0333 26.704 56.6013 26.5653 56.0039 26.416C55.3639 26.2667 54.8306 26.112 54.4039 25.952C53.9773 25.7813 53.6093 25.52 53.2999 25.168C52.9906 24.8053 52.8359 24.32 52.8359 23.712C52.8359 23.2 52.9746 22.736 53.2519 22.32C53.5399 21.8933 53.9559 21.5573 54.4999 21.312C55.0546 21.0667 55.7106 20.944 56.4679 20.944C57.5879 20.944 58.4679 21.2213 59.1079 21.776C59.7586 22.3307 60.1319 23.0667 60.2279 23.984H57.6999C57.6573 23.6747 57.5186 23.4293 57.2839 23.248C57.0599 23.0667 56.7613 22.976 56.3879 22.976C56.0679 22.976 55.8226 23.04 55.6519 23.168C55.4813 23.2853 55.3959 23.4507 55.3959 23.664C55.3959 23.92 55.5293 24.112 55.7959 24.24C56.0733 24.368 56.4999 24.496 57.0759 24.624C57.7373 24.7947 58.2759 24.9653 58.6919 25.136C59.1079 25.296 59.4706 25.5627 59.7799 25.936C60.0999 26.2987 60.2653 26.7893 60.2759 27.408C60.2759 27.9307 60.1266 28.4 59.8279 28.816C59.5399 29.2213 59.1186 29.5413 58.5639 29.776C58.0199 30.0107 57.3853 30.128 56.6599 30.128ZM67.0258 27.68V30H65.6338C64.6418 30 63.8685 29.76 63.3138 29.28C62.7591 28.7893 62.4818 27.9947 62.4818 26.896V23.344H61.3938V21.072H62.4818V18.896H65.2178V21.072H67.0098V23.344H65.2178V26.928C65.2178 27.1947 65.2818 27.3867 65.4098 27.504C65.5378 27.6213 65.7511 27.68 66.0498 27.68H67.0258ZM68.1058 25.52C68.1058 24.6027 68.2765 23.7973 68.6178 23.104C68.9698 22.4107 69.4445 21.8773 70.0418 21.504C70.6391 21.1307 71.3058 20.944 72.0418 20.944C72.6711 20.944 73.2205 21.072 73.6898 21.328C74.1698 21.584 74.5378 21.92 74.7938 22.336V21.072H77.5298V30H74.7938V28.736C74.5271 29.152 74.1538 29.488 73.6738 29.744C73.2045 30 72.6551 30.128 72.0258 30.128C71.3005 30.128 70.6391 29.9413 70.0418 29.568C69.4445 29.184 68.9698 28.6453 68.6178 27.952C68.2765 27.248 68.1058 26.4373 68.1058 25.52ZM74.7938 25.536C74.7938 24.8533 74.6018 24.3147 74.2178 23.92C73.8445 23.5253 73.3858 23.328 72.8418 23.328C72.2978 23.328 71.8338 23.5253 71.4498 23.92C71.0765 24.304 70.8898 24.8373 70.8898 25.52C70.8898 26.2027 71.0765 26.7467 71.4498 27.152C71.8338 27.5467 72.2978 27.744 72.8418 27.744C73.3858 27.744 73.8445 27.5467 74.2178 27.152C74.6018 26.7573 74.7938 26.2187 74.7938 25.536ZM21.9833 46.384C21.9833 47.0347 21.8339 47.632 21.5353 48.176C21.2366 48.7093 20.7779 49.1413 20.1593 49.472C19.5406 49.8027 18.7726 49.968 17.8553 49.968H16.1593V54H13.4233V42.768H17.8553C18.7513 42.768 19.5086 42.9227 20.1273 43.232C20.7459 43.5413 21.2099 43.968 21.5193 44.512C21.8286 45.056 21.9833 45.68 21.9833 46.384ZM17.6473 47.792C18.1699 47.792 18.5593 47.6693 18.8153 47.424C19.0713 47.1787 19.1993 46.832 19.1993 46.384C19.1993 45.936 19.0713 45.5893 18.8153 45.344C18.5593 45.0987 18.1699 44.976 17.6473 44.976H16.1593V47.792H17.6473ZM31.9236 49.392C31.9236 49.648 31.9076 49.9147 31.8756 50.192H25.6836C25.7263 50.7467 25.9023 51.1733 26.2116 51.472C26.5316 51.76 26.921 51.904 27.3796 51.904C28.0623 51.904 28.537 51.616 28.8036 51.04H31.7156C31.5663 51.6267 31.2943 52.1547 30.8996 52.624C30.5156 53.0933 30.0303 53.4613 29.4436 53.728C28.857 53.9947 28.201 54.128 27.4756 54.128C26.601 54.128 25.8223 53.9413 25.1396 53.568C24.457 53.1947 23.9236 52.6613 23.5396 51.968C23.1556 51.2747 22.9636 50.464 22.9636 49.536C22.9636 48.608 23.1503 47.7973 23.5236 47.104C23.9076 46.4107 24.441 45.8773 25.1236 45.504C25.8063 45.1307 26.5903 44.944 27.4756 44.944C28.3396 44.944 29.1076 45.1253 29.7796 45.488C30.4516 45.8507 30.9743 46.368 31.3476 47.04C31.7316 47.712 31.9236 48.496 31.9236 49.392ZM29.1236 48.672C29.1236 48.2027 28.9636 47.8293 28.6436 47.552C28.3236 47.2747 27.9236 47.136 27.4436 47.136C26.985 47.136 26.5956 47.2693 26.2756 47.536C25.9663 47.8027 25.7743 48.1813 25.6996 48.672H29.1236ZM44.859 44.976C45.9683 44.976 46.8483 45.312 47.499 45.984C48.1603 46.656 48.491 47.5893 48.491 48.784V54H45.771V49.152C45.771 48.576 45.6163 48.1333 45.307 47.824C45.0083 47.504 44.5923 47.344 44.059 47.344C43.5257 47.344 43.1043 47.504 42.795 47.824C42.4963 48.1333 42.347 48.576 42.347 49.152V54H39.627V49.152C39.627 48.576 39.4723 48.1333 39.163 47.824C38.8643 47.504 38.4483 47.344 37.915 47.344C37.3817 47.344 36.9603 47.504 36.651 47.824C36.3523 48.1333 36.203 48.576 36.203 49.152V54H33.467V45.072H36.203V46.192C36.4803 45.8187 36.843 45.5253 37.291 45.312C37.739 45.088 38.2457 44.976 38.811 44.976C39.483 44.976 40.0803 45.12 40.603 45.408C41.1363 45.696 41.5523 46.1067 41.851 46.64C42.1603 46.1493 42.5817 45.7493 43.115 45.44C43.6483 45.1307 44.2297 44.976 44.859 44.976ZM53.2405 46.336C53.4965 45.92 53.8645 45.584 54.3445 45.328C54.8245 45.072 55.3738 44.944 55.9925 44.944C56.7285 44.944 57.3952 45.1307 57.9925 45.504C58.5898 45.8773 59.0592 46.4107 59.4005 47.104C59.7525 47.7973 59.9285 48.6027 59.9285 49.52C59.9285 50.4373 59.7525 51.248 59.4005 51.952C59.0592 52.6453 58.5898 53.184 57.9925 53.568C57.3952 53.9413 56.7285 54.128 55.9925 54.128C55.3632 54.128 54.8138 54.0053 54.3445 53.76C53.8752 53.504 53.5072 53.168 53.2405 52.752V54H50.5045V42.16H53.2405V46.336ZM57.1445 49.52C57.1445 48.8373 56.9525 48.304 56.5685 47.92C56.1952 47.5253 55.7312 47.328 55.1765 47.328C54.6325 47.328 54.1685 47.5253 53.7845 47.92C53.4112 48.3147 53.2245 48.8533 53.2245 49.536C53.2245 50.2187 53.4112 50.7573 53.7845 51.152C54.1685 51.5467 54.6325 51.744 55.1765 51.744C55.7205 51.744 56.1845 51.5467 56.5685 51.152C56.9525 50.7467 57.1445 50.2027 57.1445 49.52ZM65.5279 54.128C64.6532 54.128 63.8639 53.9413 63.1599 53.568C62.4665 53.1947 61.9172 52.6613 61.5119 51.968C61.1172 51.2747 60.9199 50.464 60.9199 49.536C60.9199 48.6187 61.1225 47.8133 61.5279 47.12C61.9332 46.416 62.4879 45.8773 63.1919 45.504C63.8959 45.1307 64.6852 44.944 65.5599 44.944C66.4345 44.944 67.2239 45.1307 67.9279 45.504C68.6319 45.8773 69.1865 46.416 69.5919 47.12C69.9972 47.8133 70.1999 48.6187 70.1999 49.536C70.1999 50.4533 69.9919 51.264 69.5759 51.968C69.1705 52.6613 68.6105 53.1947 67.8959 53.568C67.1919 53.9413 66.4025 54.128 65.5279 54.128ZM65.5279 51.76C66.0505 51.76 66.4932 51.568 66.8559 51.184C67.2292 50.8 67.4159 50.2507 67.4159 49.536C67.4159 48.8213 67.2345 48.272 66.8719 47.888C66.5199 47.504 66.0825 47.312 65.5599 47.312C65.0265 47.312 64.5839 47.504 64.2319 47.888C63.8799 48.2613 63.7039 48.8107 63.7039 49.536C63.7039 50.2507 63.8745 50.8 64.2159 51.184C64.5679 51.568 65.0052 51.76 65.5279 51.76ZM80.1674 49.392C80.1674 49.648 80.1514 49.9147 80.1194 50.192H73.9274C73.97 50.7467 74.146 51.1733 74.4554 51.472C74.7754 51.76 75.1647 51.904 75.6234 51.904C76.306 51.904 76.7807 51.616 77.0474 51.04H79.9594C79.81 51.6267 79.538 52.1547 79.1434 52.624C78.7594 53.0933 78.274 53.4613 77.6874 53.728C77.1007 53.9947 76.4447 54.128 75.7194 54.128C74.8447 54.128 74.066 53.9413 73.3834 53.568C72.7007 53.1947 72.1674 52.6613 71.7834 51.968C71.3994 51.2747 71.2074 50.464 71.2074 49.536C71.2074 48.608 71.394 47.7973 71.7674 47.104C72.1514 46.4107 72.6847 45.8773 73.3674 45.504C74.05 45.1307 74.834 44.944 75.7194 44.944C76.5834 44.944 77.3514 45.1253 78.0234 45.488C78.6954 45.8507 79.218 46.368 79.5914 47.04C79.9754 47.712 80.1674 48.496 80.1674 49.392ZM77.3674 48.672C77.3674 48.2027 77.2074 47.8293 76.8874 47.552C76.5674 47.2747 76.1674 47.136 75.6874 47.136C75.2287 47.136 74.8394 47.2693 74.5194 47.536C74.21 47.8027 74.018 48.1813 73.9434 48.672H77.3674ZM87.1668 54L84.4468 50.256V54H81.7108V42.16H84.4468V48.704L87.1508 45.072H90.5268L86.8148 49.552L90.5588 54H87.1668ZM91.1574 49.52C91.1574 48.6027 91.328 47.7973 91.6694 47.104C92.0214 46.4107 92.496 45.8773 93.0934 45.504C93.6907 45.1307 94.3574 44.944 95.0934 44.944C95.7227 44.944 96.272 45.072 96.7414 45.328C97.2214 45.584 97.5894 45.92 97.8454 46.336V45.072H100.581V54H97.8454V52.736C97.5787 53.152 97.2054 53.488 96.7254 53.744C96.256 54 95.7067 54.128 95.0774 54.128C94.352 54.128 93.6907 53.9413 93.0934 53.568C92.496 53.184 92.0214 52.6453 91.6694 51.952C91.328 51.248 91.1574 50.4373 91.1574 49.52ZM97.8454 49.536C97.8454 48.8533 97.6534 48.3147 97.2694 47.92C96.896 47.5253 96.4374 47.328 95.8934 47.328C95.3494 47.328 94.8854 47.5253 94.5014 47.92C94.128 48.304 93.9414 48.8373 93.9414 49.52C93.9414 50.2027 94.128 50.7467 94.5014 51.152C94.8854 51.5467 95.3494 51.744 95.8934 51.744C96.4374 51.744 96.896 51.5467 97.2694 51.152C97.6534 50.7573 97.8454 50.2187 97.8454 49.536ZM32.9379 76.832C34.2925 75.744 35.3539 74.8533 36.1219 74.16C36.8899 73.456 37.5352 72.7253 38.0579 71.968C38.5912 71.2 38.8579 70.448 38.8579 69.712C38.8579 69.0187 38.6872 68.4747 38.3459 68.08C38.0152 67.6747 37.4765 67.472 36.7299 67.472C36.0045 67.472 35.4392 67.7013 35.0339 68.16C34.6392 68.608 34.4259 69.2107 34.3939 69.968H32.9859C33.0285 68.7733 33.3912 67.8507 34.0739 67.2C34.7565 66.5493 35.6365 66.224 36.7139 66.224C37.8125 66.224 38.6819 66.528 39.3219 67.136C39.9725 67.744 40.2979 68.5813 40.2979 69.648C40.2979 70.5333 40.0312 71.3973 39.4979 72.24C38.9752 73.072 38.3779 73.808 37.7059 74.448C37.0339 75.0773 36.1752 75.8133 35.1299 76.656H40.6339V77.872H32.9379V76.832ZM42.033 67.76V66.432H45.041V78H43.569V67.76H42.033ZM63.5596 66.928V78H62.1036V69.744L58.4236 78H57.3996L53.7036 69.728V78H52.2476V66.928H53.8156L57.9116 76.08L62.0076 66.928H63.5596ZM65.5849 73.584C65.5849 72.688 65.7662 71.904 66.1289 71.232C66.4915 70.5493 66.9875 70.0213 67.6169 69.648C68.2569 69.2747 68.9662 69.088 69.7449 69.088C70.5129 69.088 71.1795 69.2533 71.7449 69.584C72.3102 69.9147 72.7315 70.3307 73.0089 70.832V69.232H74.4809V78H73.0089V76.368C72.7209 76.88 72.2889 77.3067 71.7129 77.648C71.1475 77.9787 70.4862 78.144 69.7289 78.144C68.9502 78.144 68.2462 77.952 67.6169 77.568C66.9875 77.184 66.4915 76.6453 66.1289 75.952C65.7662 75.2587 65.5849 74.4693 65.5849 73.584ZM73.0089 73.6C73.0089 72.9387 72.8755 72.3627 72.6089 71.872C72.3422 71.3813 71.9795 71.008 71.5209 70.752C71.0729 70.4853 70.5769 70.352 70.0329 70.352C69.4889 70.352 68.9929 70.48 68.5449 70.736C68.0969 70.992 67.7395 71.3653 67.4729 71.856C67.2062 72.3467 67.0729 72.9227 67.0729 73.584C67.0729 74.256 67.2062 74.8427 67.4729 75.344C67.7395 75.8347 68.0969 76.2133 68.5449 76.48C68.9929 76.736 69.4889 76.864 70.0329 76.864C70.5769 76.864 71.0729 76.736 71.5209 76.48C71.9795 76.2133 72.3422 75.8347 72.6089 75.344C72.8755 74.8427 73.0089 74.2613 73.0089 73.6ZM78.4974 70.656C78.7534 70.1547 79.116 69.7653 79.5854 69.488C80.0654 69.2107 80.6467 69.072 81.3294 69.072V70.576H80.9454C79.3134 70.576 78.4974 71.4613 78.4974 73.232V78H77.0414V69.232H78.4974V70.656Z" fill="white"/>
<rect x="0.5" y="0.5" width="113" height="95" rx="11.5" stroke="#F36A22"/>
<rect x="162.5" y="0.5" width="88" height="95" rx="11.5" fill="#95544C"/>
<path d="M196.659 18.768L193.731 30H190.419L188.627 22.608L186.771 30H183.459L180.611 18.768H183.539L185.155 26.944L187.155 18.768H190.163L192.083 26.944L193.715 18.768H196.659ZM203.619 20.976C204.643 20.976 205.464 21.3173 206.083 22C206.702 22.672 207.011 23.6 207.011 24.784V30H204.291V25.152C204.291 24.5547 204.136 24.0907 203.827 23.76C203.518 23.4293 203.102 23.264 202.579 23.264C202.056 23.264 201.64 23.4293 201.331 23.76C201.022 24.0907 200.867 24.5547 200.867 25.152V30H198.131V18.16H200.867V22.272C201.144 21.8773 201.523 21.5627 202.003 21.328C202.483 21.0933 203.022 20.976 203.619 20.976ZM210.388 20.144C209.908 20.144 209.514 20.0053 209.204 19.728C208.906 19.44 208.756 19.088 208.756 18.672C208.756 18.2453 208.906 17.8933 209.204 17.616C209.514 17.328 209.908 17.184 210.388 17.184C210.858 17.184 211.242 17.328 211.54 17.616C211.85 17.8933 212.004 18.2453 212.004 18.672C212.004 19.088 211.85 19.44 211.54 19.728C211.242 20.0053 210.858 20.144 210.388 20.144ZM211.748 21.072V30H209.012V21.072H211.748ZM218.807 27.68V30H217.415C216.423 30 215.65 29.76 215.095 29.28C214.54 28.7893 214.263 27.9947 214.263 26.896V23.344H213.175V21.072H214.263V18.896H216.999V21.072H218.791V23.344H216.999V26.928C216.999 27.1947 217.063 27.3867 217.191 27.504C217.319 27.6213 217.532 27.68 217.831 27.68H218.807ZM228.847 25.392C228.847 25.648 228.831 25.9147 228.799 26.192H222.607C222.65 26.7467 222.826 27.1733 223.135 27.472C223.455 27.76 223.844 27.904 224.303 27.904C224.986 27.904 225.46 27.616 225.727 27.04H228.639C228.49 27.6267 228.218 28.1547 227.823 28.624C227.439 29.0933 226.954 29.4613 226.367 29.728C225.78 29.9947 225.124 30.128 224.399 30.128C223.524 30.128 222.746 29.9413 222.063 29.568C221.38 29.1947 220.847 28.6613 220.463 27.968C220.079 27.2747 219.887 26.464 219.887 25.536C219.887 24.608 220.074 23.7973 220.447 23.104C220.831 22.4107 221.364 21.8773 222.047 21.504C222.73 21.1307 223.514 20.944 224.399 20.944C225.263 20.944 226.031 21.1253 226.703 21.488C227.375 21.8507 227.898 22.368 228.271 23.04C228.655 23.712 228.847 24.496 228.847 25.392ZM226.047 24.672C226.047 24.2027 225.887 23.8293 225.567 23.552C225.247 23.2747 224.847 23.136 224.367 23.136C223.908 23.136 223.519 23.2693 223.199 23.536C222.89 23.8027 222.698 24.1813 222.623 24.672H226.047ZM174.965 48.368C174.965 47.2587 175.206 46.272 175.686 45.408C176.166 44.5333 176.832 43.856 177.686 43.376C178.55 42.8853 179.526 42.64 180.614 42.64C181.947 42.64 183.088 42.992 184.038 43.696C184.987 44.4 185.622 45.36 185.942 46.576H182.934C182.71 46.1067 182.39 45.7493 181.974 45.504C181.568 45.2587 181.104 45.136 180.582 45.136C179.739 45.136 179.056 45.4293 178.534 46.016C178.011 46.6027 177.75 47.3867 177.75 48.368C177.75 49.3493 178.011 50.1333 178.534 50.72C179.056 51.3067 179.739 51.6 180.582 51.6C181.104 51.6 181.568 51.4773 181.974 51.232C182.39 50.9867 182.71 50.6293 182.934 50.16H185.942C185.622 51.376 184.987 52.336 184.038 53.04C183.088 53.7333 181.947 54.08 180.614 54.08C179.526 54.08 178.55 53.84 177.686 53.36C176.832 52.8693 176.166 52.192 175.686 51.328C175.206 50.464 174.965 49.4773 174.965 48.368ZM187.173 49.52C187.173 48.6027 187.344 47.7973 187.685 47.104C188.037 46.4107 188.512 45.8773 189.109 45.504C189.706 45.1307 190.373 44.944 191.109 44.944C191.738 44.944 192.288 45.072 192.757 45.328C193.237 45.584 193.605 45.92 193.861 46.336V45.072H196.597V54H193.861V52.736C193.594 53.152 193.221 53.488 192.741 53.744C192.272 54 191.722 54.128 191.093 54.128C190.368 54.128 189.706 53.9413 189.109 53.568C188.512 53.184 188.037 52.6453 187.685 51.952C187.344 51.248 187.173 50.4373 187.173 49.52ZM193.861 49.536C193.861 48.8533 193.669 48.3147 193.285 47.92C192.912 47.5253 192.453 47.328 191.909 47.328C191.365 47.328 190.901 47.5253 190.517 47.92C190.144 48.304 189.957 48.8373 189.957 49.52C189.957 50.2027 190.144 50.7467 190.517 51.152C190.901 51.5467 191.365 51.744 191.909 51.744C192.453 51.744 192.912 51.5467 193.285 51.152C193.669 50.7573 193.861 50.2187 193.861 49.536ZM204.116 44.976C205.162 44.976 205.994 45.3173 206.612 46C207.242 46.672 207.556 47.6 207.556 48.784V54H204.836V49.152C204.836 48.5547 204.682 48.0907 204.372 47.76C204.063 47.4293 203.647 47.264 203.124 47.264C202.602 47.264 202.186 47.4293 201.876 47.76C201.567 48.0907 201.412 48.5547 201.412 49.152V54H198.676V45.072H201.412V46.256C201.69 45.8613 202.063 45.552 202.532 45.328C203.002 45.0933 203.53 44.976 204.116 44.976ZM213.574 51.44L215.51 45.072H218.422L215.254 54H211.878L208.71 45.072H211.638L213.574 51.44ZM219.129 49.52C219.129 48.6027 219.3 47.7973 219.641 47.104C219.993 46.4107 220.468 45.8773 221.065 45.504C221.663 45.1307 222.329 44.944 223.065 44.944C223.695 44.944 224.244 45.072 224.713 45.328C225.193 45.584 225.561 45.92 225.817 46.336V45.072H228.553V54H225.817V52.736C225.551 53.152 225.177 53.488 224.697 53.744C224.228 54 223.679 54.128 223.049 54.128C222.324 54.128 221.663 53.9413 221.065 53.568C220.468 53.184 219.993 52.6453 219.641 51.952C219.3 51.248 219.129 50.4373 219.129 49.52ZM225.817 49.536C225.817 48.8533 225.625 48.3147 225.241 47.92C224.868 47.5253 224.409 47.328 223.865 47.328C223.321 47.328 222.857 47.5253 222.473 47.92C222.1 48.304 221.913 48.8373 221.913 49.52C221.913 50.2027 222.1 50.7467 222.473 51.152C222.857 51.5467 223.321 51.744 223.865 51.744C224.409 51.744 224.868 51.5467 225.241 51.152C225.625 50.7573 225.817 50.2187 225.817 49.536ZM234.265 54.128C233.486 54.128 232.793 53.9947 232.185 53.728C231.577 53.4613 231.097 53.0987 230.745 52.64C230.393 52.1707 230.195 51.648 230.153 51.072H232.857C232.889 51.3813 233.033 51.632 233.289 51.824C233.545 52.016 233.859 52.112 234.233 52.112C234.574 52.112 234.835 52.048 235.017 51.92C235.209 51.7813 235.305 51.6053 235.305 51.392C235.305 51.136 235.171 50.9493 234.905 50.832C234.638 50.704 234.206 50.5653 233.609 50.416C232.969 50.2667 232.435 50.112 232.009 49.952C231.582 49.7813 231.214 49.52 230.905 49.168C230.595 48.8053 230.441 48.32 230.441 47.712C230.441 47.2 230.579 46.736 230.857 46.32C231.145 45.8933 231.561 45.5573 232.105 45.312C232.659 45.0667 233.315 44.944 234.073 44.944C235.193 44.944 236.073 45.2213 236.713 45.776C237.363 46.3307 237.737 47.0667 237.833 47.984H235.305C235.262 47.6747 235.123 47.4293 234.889 47.248C234.665 47.0667 234.366 46.976 233.993 46.976C233.673 46.976 233.427 47.04 233.257 47.168C233.086 47.2853 233.001 47.4507 233.001 47.664C233.001 47.92 233.134 48.112 233.401 48.24C233.678 48.368 234.105 48.496 234.681 48.624C235.342 48.7947 235.881 48.9653 236.297 49.136C236.713 49.296 237.075 49.5627 237.385 49.936C237.705 50.2987 237.87 50.7893 237.881 51.408C237.881 51.9307 237.731 52.4 237.433 52.816C237.145 53.2213 236.723 53.5413 236.169 53.776C235.625 54.0107 234.99 54.128 234.265 54.128ZM182.488 76.832C183.843 75.744 184.904 74.8533 185.672 74.16C186.44 73.456 187.085 72.7253 187.608 71.968C188.141 71.2 188.408 70.448 188.408 69.712C188.408 69.0187 188.237 68.4747 187.896 68.08C187.565 67.6747 187.027 67.472 186.28 67.472C185.555 67.472 184.989 67.7013 184.584 68.16C184.189 68.608 183.976 69.2107 183.944 69.968H182.536C182.579 68.7733 182.941 67.8507 183.624 67.2C184.307 66.5493 185.187 66.224 186.264 66.224C187.363 66.224 188.232 66.528 188.872 67.136C189.523 67.744 189.848 68.5813 189.848 69.648C189.848 70.5333 189.581 71.3973 189.048 72.24C188.525 73.072 187.928 73.808 187.256 74.448C186.584 75.0773 185.725 75.8133 184.68 76.656H190.184V77.872H182.488V76.832ZM191.583 67.76V66.432H194.591V78H193.119V67.76H191.583ZM213.11 66.928V78H211.654V69.744L207.974 78H206.95L203.254 69.728V78H201.798V66.928H203.366L207.462 76.08L211.558 66.928H213.11ZM215.135 73.584C215.135 72.688 215.316 71.904 215.679 71.232C216.042 70.5493 216.538 70.0213 217.167 69.648C217.807 69.2747 218.516 69.088 219.295 69.088C220.063 69.088 220.73 69.2533 221.295 69.584C221.86 69.9147 222.282 70.3307 222.559 70.832V69.232H224.031V78H222.559V76.368C222.271 76.88 221.839 77.3067 221.263 77.648C220.698 77.9787 220.036 78.144 219.279 78.144C218.5 78.144 217.796 77.952 217.167 77.568C216.538 77.184 216.042 76.6453 215.679 75.952C215.316 75.2587 215.135 74.4693 215.135 73.584ZM222.559 73.6C222.559 72.9387 222.426 72.3627 222.159 71.872C221.892 71.3813 221.53 71.008 221.071 70.752C220.623 70.4853 220.127 70.352 219.583 70.352C219.039 70.352 218.543 70.48 218.095 70.736C217.647 70.992 217.29 71.3653 217.023 71.856C216.756 72.3467 216.623 72.9227 216.623 73.584C216.623 74.256 216.756 74.8427 217.023 75.344C217.29 75.8347 217.647 76.2133 218.095 76.48C218.543 76.736 219.039 76.864 219.583 76.864C220.127 76.864 220.623 76.736 221.071 76.48C221.53 76.2133 221.892 75.8347 222.159 75.344C222.426 74.8427 222.559 74.2613 222.559 73.6ZM228.047 70.656C228.303 70.1547 228.666 69.7653 229.135 69.488C229.615 69.2107 230.197 69.072 230.879 69.072V70.576H230.495C228.863 70.576 228.047 71.4613 228.047 73.232V78H226.591V69.232H228.047V70.656Z" fill="white"/>
<rect x="162.5" y="0.5" width="88" height="95" rx="11.5" stroke="#F36A22"/>
<rect x="299.5" y="0.5" width="150" height="95" rx="11.5" fill="#95544C"/>
<path d="M329.416 22.384C329.416 23.0347 329.267 23.632 328.968 24.176C328.669 24.7093 328.211 25.1413 327.592 25.472C326.973 25.8027 326.205 25.968 325.288 25.968H323.592V30H320.856V18.768H325.288C326.184 18.768 326.941 18.9227 327.56 19.232C328.179 19.5413 328.643 19.968 328.952 20.512C329.261 21.056 329.416 21.68 329.416 22.384ZM325.08 23.792C325.603 23.792 325.992 23.6693 326.248 23.424C326.504 23.1787 326.632 22.832 326.632 22.384C326.632 21.936 326.504 21.5893 326.248 21.344C325.992 21.0987 325.603 20.976 325.08 20.976H323.592V23.792H325.08ZM339.356 25.392C339.356 25.648 339.34 25.9147 339.308 26.192H333.116C333.159 26.7467 333.335 27.1733 333.644 27.472C333.964 27.76 334.354 27.904 334.812 27.904C335.495 27.904 335.97 27.616 336.236 27.04H339.148C338.999 27.6267 338.727 28.1547 338.332 28.624C337.948 29.0933 337.463 29.4613 336.876 29.728C336.29 29.9947 335.634 30.128 334.908 30.128C334.034 30.128 333.255 29.9413 332.572 29.568C331.89 29.1947 331.356 28.6613 330.972 27.968C330.588 27.2747 330.396 26.464 330.396 25.536C330.396 24.608 330.583 23.7973 330.956 23.104C331.34 22.4107 331.874 21.8773 332.556 21.504C333.239 21.1307 334.023 20.944 334.908 20.944C335.772 20.944 336.54 21.1253 337.212 21.488C337.884 21.8507 338.407 22.368 338.78 23.04C339.164 23.712 339.356 24.496 339.356 25.392ZM336.556 24.672C336.556 24.2027 336.396 23.8293 336.076 23.552C335.756 23.2747 335.356 23.136 334.876 23.136C334.418 23.136 334.028 23.2693 333.708 23.536C333.399 23.8027 333.207 24.1813 333.132 24.672H336.556ZM344.532 30.128C343.753 30.128 343.06 29.9947 342.452 29.728C341.844 29.4613 341.364 29.0987 341.012 28.64C340.66 28.1707 340.462 27.648 340.42 27.072H343.124C343.156 27.3813 343.3 27.632 343.556 27.824C343.812 28.016 344.126 28.112 344.5 28.112C344.841 28.112 345.102 28.048 345.284 27.92C345.476 27.7813 345.572 27.6053 345.572 27.392C345.572 27.136 345.438 26.9493 345.172 26.832C344.905 26.704 344.473 26.5653 343.876 26.416C343.236 26.2667 342.702 26.112 342.276 25.952C341.849 25.7813 341.481 25.52 341.172 25.168C340.862 24.8053 340.708 24.32 340.708 23.712C340.708 23.2 340.846 22.736 341.124 22.32C341.412 21.8933 341.828 21.5573 342.372 21.312C342.926 21.0667 343.582 20.944 344.34 20.944C345.46 20.944 346.34 21.2213 346.98 21.776C347.63 22.3307 348.004 23.0667 348.1 23.984H345.572C345.529 23.6747 345.39 23.4293 345.156 23.248C344.932 23.0667 344.633 22.976 344.26 22.976C343.94 22.976 343.694 23.04 343.524 23.168C343.353 23.2853 343.268 23.4507 343.268 23.664C343.268 23.92 343.401 24.112 343.668 24.24C343.945 24.368 344.372 24.496 344.948 24.624C345.609 24.7947 346.148 24.9653 346.564 25.136C346.98 25.296 347.342 25.5627 347.652 25.936C347.972 26.2987 348.137 26.7893 348.148 27.408C348.148 27.9307 347.998 28.4 347.7 28.816C347.412 29.2213 346.99 29.5413 346.436 29.776C345.892 30.0107 345.257 30.128 344.532 30.128ZM354.898 27.68V30H353.506C352.514 30 351.74 29.76 351.186 29.28C350.631 28.7893 350.354 27.9947 350.354 26.896V23.344H349.266V21.072H350.354V18.896H353.09V21.072H354.882V23.344H353.09V26.928C353.09 27.1947 353.154 27.3867 353.282 27.504C353.41 27.6213 353.623 27.68 353.922 27.68H354.898ZM355.978 25.52C355.978 24.6027 356.148 23.7973 356.49 23.104C356.842 22.4107 357.316 21.8773 357.914 21.504C358.511 21.1307 359.178 20.944 359.914 20.944C360.543 20.944 361.092 21.072 361.562 21.328C362.042 21.584 362.41 21.92 362.666 22.336V21.072H365.402V30H362.666V28.736C362.399 29.152 362.026 29.488 361.546 29.744C361.076 30 360.527 30.128 359.898 30.128C359.172 30.128 358.511 29.9413 357.914 29.568C357.316 29.184 356.842 28.6453 356.49 27.952C356.148 27.248 355.978 26.4373 355.978 25.52ZM362.666 25.536C362.666 24.8533 362.474 24.3147 362.09 23.92C361.716 23.5253 361.258 23.328 360.714 23.328C360.17 23.328 359.706 23.5253 359.322 23.92C358.948 24.304 358.762 24.8373 358.762 25.52C358.762 26.2027 358.948 26.7467 359.322 27.152C359.706 27.5467 360.17 27.744 360.714 27.744C361.258 27.744 361.716 27.5467 362.09 27.152C362.474 26.7573 362.666 26.2187 362.666 25.536ZM376.7 30L374.364 25.76H373.708V30H370.972V18.768H375.564C376.449 18.768 377.201 18.9227 377.82 19.232C378.449 19.5413 378.918 19.968 379.228 20.512C379.537 21.0453 379.692 21.6427 379.692 22.304C379.692 23.0507 379.478 23.7173 379.052 24.304C378.636 24.8907 378.017 25.3067 377.196 25.552L379.788 30H376.7ZM373.708 23.824H375.404C375.905 23.824 376.278 23.7013 376.524 23.456C376.78 23.2107 376.908 22.864 376.908 22.416C376.908 21.9893 376.78 21.6533 376.524 21.408C376.278 21.1627 375.905 21.04 375.404 21.04H373.708V23.824ZM380.965 25.52C380.965 24.6027 381.136 23.7973 381.477 23.104C381.829 22.4107 382.304 21.8773 382.901 21.504C383.499 21.1307 384.165 20.944 384.901 20.944C385.531 20.944 386.08 21.072 386.549 21.328C387.029 21.584 387.397 21.92 387.653 22.336V21.072H390.389V30H387.653V28.736C387.387 29.152 387.013 29.488 386.533 29.744C386.064 30 385.515 30.128 384.885 30.128C384.16 30.128 383.499 29.9413 382.901 29.568C382.304 29.184 381.829 28.6453 381.477 27.952C381.136 27.248 380.965 26.4373 380.965 25.52ZM387.653 25.536C387.653 24.8533 387.461 24.3147 387.077 23.92C386.704 23.5253 386.245 23.328 385.701 23.328C385.157 23.328 384.693 23.5253 384.309 23.92C383.936 24.304 383.749 24.8373 383.749 25.52C383.749 26.2027 383.936 26.7467 384.309 27.152C384.693 27.5467 385.157 27.744 385.701 27.744C386.245 27.744 386.704 27.5467 387.077 27.152C387.461 26.7573 387.653 26.2187 387.653 25.536ZM397.925 30L395.205 26.256V30H392.469V18.16H395.205V24.704L397.909 21.072H401.285L397.573 25.552L401.317 30H397.925ZM411.579 21.072L405.979 34.24H403.035L405.083 29.696L401.451 21.072H404.507L406.571 26.656L408.619 21.072H411.579ZM412.125 25.52C412.125 24.6027 412.295 23.7973 412.637 23.104C412.989 22.4107 413.463 21.8773 414.061 21.504C414.658 21.1307 415.325 20.944 416.061 20.944C416.69 20.944 417.239 21.072 417.709 21.328C418.189 21.584 418.557 21.92 418.813 22.336V21.072H421.549V30H418.813V28.736C418.546 29.152 418.173 29.488 417.693 29.744C417.223 30 416.674 30.128 416.045 30.128C415.319 30.128 414.658 29.9413 414.061 29.568C413.463 29.184 412.989 28.6453 412.637 27.952C412.295 27.248 412.125 26.4373 412.125 25.52ZM418.813 25.536C418.813 24.8533 418.621 24.3147 418.237 23.92C417.863 23.5253 417.405 23.328 416.861 23.328C416.317 23.328 415.853 23.5253 415.469 23.92C415.095 24.304 414.909 24.8373 414.909 25.52C414.909 26.2027 415.095 26.7467 415.469 27.152C415.853 27.5467 416.317 27.744 416.861 27.744C417.405 27.744 417.863 27.5467 418.237 27.152C418.621 26.7573 418.813 26.2187 418.813 25.536ZM428.604 27.68V30H427.212C426.22 30 425.447 29.76 424.892 29.28C424.337 28.7893 424.06 27.9947 424.06 26.896V23.344H422.972V21.072H424.06V18.896H426.796V21.072H428.588V23.344H426.796V26.928C426.796 27.1947 426.86 27.3867 426.988 27.504C427.116 27.6213 427.329 27.68 427.628 27.68H428.604ZM321.058 54L319.346 51.52L317.906 54H314.946L317.89 49.44L314.866 45.072H317.938L319.65 47.536L321.09 45.072H324.05L321.058 49.568L324.13 54H321.058ZM337.335 46.384C337.335 47.0347 337.185 47.632 336.887 48.176C336.588 48.7093 336.129 49.1413 335.511 49.472C334.892 49.8027 334.124 49.968 333.207 49.968H331.511V54H328.775V42.768H333.207C334.103 42.768 334.86 42.9227 335.479 43.232C336.097 43.5413 336.561 43.968 336.871 44.512C337.18 45.056 337.335 45.68 337.335 46.384ZM332.999 47.792C333.521 47.792 333.911 47.6693 334.167 47.424C334.423 47.1787 334.551 46.832 334.551 46.384C334.551 45.936 334.423 45.5893 334.167 45.344C333.911 45.0987 333.521 44.976 332.999 44.976H331.511V47.792H332.999ZM338.315 49.52C338.315 48.6027 338.486 47.7973 338.827 47.104C339.179 46.4107 339.654 45.8773 340.251 45.504C340.849 45.1307 341.515 44.944 342.251 44.944C342.881 44.944 343.43 45.072 343.899 45.328C344.379 45.584 344.747 45.92 345.003 46.336V45.072H347.739V54H345.003V52.736C344.737 53.152 344.363 53.488 343.883 53.744C343.414 54 342.865 54.128 342.235 54.128C341.51 54.128 340.849 53.9413 340.251 53.568C339.654 53.184 339.179 52.6453 338.827 51.952C338.486 51.248 338.315 50.4373 338.315 49.52ZM345.003 49.536C345.003 48.8533 344.811 48.3147 344.427 47.92C344.054 47.5253 343.595 47.328 343.051 47.328C342.507 47.328 342.043 47.5253 341.659 47.92C341.286 48.304 341.099 48.8373 341.099 49.52C341.099 50.2027 341.286 50.7467 341.659 51.152C342.043 51.5467 342.507 51.744 343.051 51.744C343.595 51.744 344.054 51.5467 344.427 51.152C344.811 50.7573 345.003 50.2187 345.003 49.536ZM353.451 54.128C352.672 54.128 351.979 53.9947 351.371 53.728C350.763 53.4613 350.283 53.0987 349.931 52.64C349.579 52.1707 349.381 51.648 349.339 51.072H352.043C352.075 51.3813 352.219 51.632 352.475 51.824C352.731 52.016 353.045 52.112 353.419 52.112C353.76 52.112 354.021 52.048 354.203 51.92C354.395 51.7813 354.491 51.6053 354.491 51.392C354.491 51.136 354.357 50.9493 354.091 50.832C353.824 50.704 353.392 50.5653 352.795 50.416C352.155 50.2667 351.621 50.112 351.195 49.952C350.768 49.7813 350.4 49.52 350.091 49.168C349.781 48.8053 349.627 48.32 349.627 47.712C349.627 47.2 349.765 46.736 350.043 46.32C350.331 45.8933 350.747 45.5573 351.291 45.312C351.845 45.0667 352.501 44.944 353.259 44.944C354.379 44.944 355.259 45.2213 355.899 45.776C356.549 46.3307 356.923 47.0667 357.019 47.984H354.491C354.448 47.6747 354.309 47.4293 354.075 47.248C353.851 47.0667 353.552 46.976 353.179 46.976C352.859 46.976 352.613 47.04 352.443 47.168C352.272 47.2853 352.187 47.4507 352.187 47.664C352.187 47.92 352.32 48.112 352.587 48.24C352.864 48.368 353.291 48.496 353.867 48.624C354.528 48.7947 355.067 48.9653 355.483 49.136C355.899 49.296 356.261 49.5627 356.571 49.936C356.891 50.2987 357.056 50.7893 357.067 51.408C357.067 51.9307 356.917 52.4 356.619 52.816C356.331 53.2213 355.909 53.5413 355.355 53.776C354.811 54.0107 354.176 54.128 353.451 54.128ZM358.296 49.52C358.296 48.6027 358.467 47.7973 358.808 47.104C359.16 46.4107 359.635 45.8773 360.232 45.504C360.83 45.1307 361.496 44.944 362.232 44.944C362.862 44.944 363.411 45.072 363.88 45.328C364.36 45.584 364.728 45.92 364.984 46.336V45.072H367.72V54H364.984V52.736C364.718 53.152 364.344 53.488 363.864 53.744C363.395 54 362.846 54.128 362.216 54.128C361.491 54.128 360.83 53.9413 360.232 53.568C359.635 53.184 359.16 52.6453 358.808 51.952C358.467 51.248 358.296 50.4373 358.296 49.52ZM364.984 49.536C364.984 48.8533 364.792 48.3147 364.408 47.92C364.035 47.5253 363.576 47.328 363.032 47.328C362.488 47.328 362.024 47.5253 361.64 47.92C361.267 48.304 361.08 48.8373 361.08 49.52C361.08 50.2027 361.267 50.7467 361.64 51.152C362.024 51.5467 362.488 51.744 363.032 51.744C363.576 51.744 364.035 51.5467 364.408 51.152C364.792 50.7573 364.984 50.2187 364.984 49.536ZM372.536 46.56C372.856 46.0693 373.256 45.6853 373.736 45.408C374.216 45.12 374.749 44.976 375.336 44.976V47.872H374.584C373.901 47.872 373.389 48.0213 373.048 48.32C372.706 48.608 372.536 49.12 372.536 49.856V54H369.8V45.072H372.536V46.56ZM392.954 42.768V54H390.218V47.264L387.706 54H385.498L382.97 47.248V54H380.234V42.768H383.466L386.618 50.544L389.738 42.768H392.954ZM394.478 49.52C394.478 48.6027 394.648 47.7973 394.99 47.104C395.342 46.4107 395.816 45.8773 396.414 45.504C397.011 45.1307 397.678 44.944 398.414 44.944C399.043 44.944 399.592 45.072 400.062 45.328C400.542 45.584 400.91 45.92 401.166 46.336V45.072H403.902V54H401.166V52.736C400.899 53.152 400.526 53.488 400.046 53.744C399.576 54 399.027 54.128 398.398 54.128C397.672 54.128 397.011 53.9413 396.414 53.568C395.816 53.184 395.342 52.6453 394.99 51.952C394.648 51.248 394.478 50.4373 394.478 49.52ZM401.166 49.536C401.166 48.8533 400.974 48.3147 400.59 47.92C400.216 47.5253 399.758 47.328 399.214 47.328C398.67 47.328 398.206 47.5253 397.822 47.92C397.448 48.304 397.262 48.8373 397.262 49.52C397.262 50.2027 397.448 50.7467 397.822 51.152C398.206 51.5467 398.67 51.744 399.214 51.744C399.758 51.744 400.216 51.5467 400.59 51.152C400.974 50.7573 401.166 50.2187 401.166 49.536ZM408.717 42.16V54H405.981V42.16H408.717ZM410.256 49.52C410.256 48.6027 410.426 47.7973 410.768 47.104C411.12 46.4107 411.594 45.8773 412.192 45.504C412.789 45.1307 413.456 44.944 414.192 44.944C414.821 44.944 415.37 45.072 415.84 45.328C416.32 45.584 416.688 45.92 416.944 46.336V45.072H419.68V54H416.944V52.736C416.677 53.152 416.304 53.488 415.824 53.744C415.354 54 414.805 54.128 414.176 54.128C413.45 54.128 412.789 53.9413 412.192 53.568C411.594 53.184 411.12 52.6453 410.768 51.952C410.426 51.248 410.256 50.4373 410.256 49.52ZM416.944 49.536C416.944 48.8533 416.752 48.3147 416.368 47.92C415.994 47.5253 415.536 47.328 414.992 47.328C414.448 47.328 413.984 47.5253 413.6 47.92C413.226 48.304 413.04 48.8373 413.04 49.52C413.04 50.2027 413.226 50.7467 413.6 51.152C413.984 51.5467 414.448 51.744 414.992 51.744C415.536 51.744 415.994 51.5467 416.368 51.152C416.752 50.7573 416.944 50.2187 416.944 49.536ZM433.151 44.976C434.261 44.976 435.141 45.312 435.791 45.984C436.453 46.656 436.783 47.5893 436.783 48.784V54H434.063V49.152C434.063 48.576 433.909 48.1333 433.599 47.824C433.301 47.504 432.885 47.344 432.351 47.344C431.818 47.344 431.397 47.504 431.087 47.824C430.789 48.1333 430.639 48.576 430.639 49.152V54H427.919V49.152C427.919 48.576 427.765 48.1333 427.455 47.824C427.157 47.504 426.741 47.344 426.207 47.344C425.674 47.344 425.253 47.504 424.943 47.824C424.645 48.1333 424.495 48.576 424.495 49.152V54H421.759V45.072H424.495V46.192C424.773 45.8187 425.135 45.5253 425.583 45.312C426.031 45.088 426.538 44.976 427.103 44.976C427.775 44.976 428.373 45.12 428.895 45.408C429.429 45.696 429.845 46.1067 430.143 46.64C430.453 46.1493 430.874 45.7493 431.407 45.44C431.941 45.1307 432.522 44.976 433.151 44.976ZM350.488 76.832C351.843 75.744 352.904 74.8533 353.672 74.16C354.44 73.456 355.085 72.7253 355.608 71.968C356.141 71.2 356.408 70.448 356.408 69.712C356.408 69.0187 356.237 68.4747 355.896 68.08C355.565 67.6747 355.027 67.472 354.28 67.472C353.555 67.472 352.989 67.7013 352.584 68.16C352.189 68.608 351.976 69.2107 351.944 69.968H350.536C350.579 68.7733 350.941 67.8507 351.624 67.2C352.307 66.5493 353.187 66.224 354.264 66.224C355.363 66.224 356.232 66.528 356.872 67.136C357.523 67.744 357.848 68.5813 357.848 69.648C357.848 70.5333 357.581 71.3973 357.048 72.24C356.525 73.072 355.928 73.808 355.256 74.448C354.584 75.0773 353.725 75.8133 352.68 76.656H358.184V77.872H350.488V76.832ZM359.583 67.76V66.432H362.591V78H361.119V67.76H359.583ZM381.11 66.928V78H379.654V69.744L375.974 78H374.95L371.254 69.728V78H369.798V66.928H371.366L375.462 76.08L379.558 66.928H381.11ZM383.135 73.584C383.135 72.688 383.316 71.904 383.679 71.232C384.042 70.5493 384.538 70.0213 385.167 69.648C385.807 69.2747 386.516 69.088 387.295 69.088C388.063 69.088 388.73 69.2533 389.295 69.584C389.86 69.9147 390.282 70.3307 390.559 70.832V69.232H392.031V78H390.559V76.368C390.271 76.88 389.839 77.3067 389.263 77.648C388.698 77.9787 388.036 78.144 387.279 78.144C386.5 78.144 385.796 77.952 385.167 77.568C384.538 77.184 384.042 76.6453 383.679 75.952C383.316 75.2587 383.135 74.4693 383.135 73.584ZM390.559 73.6C390.559 72.9387 390.426 72.3627 390.159 71.872C389.892 71.3813 389.53 71.008 389.071 70.752C388.623 70.4853 388.127 70.352 387.583 70.352C387.039 70.352 386.543 70.48 386.095 70.736C385.647 70.992 385.29 71.3653 385.023 71.856C384.756 72.3467 384.623 72.9227 384.623 73.584C384.623 74.256 384.756 74.8427 385.023 75.344C385.29 75.8347 385.647 76.2133 386.095 76.48C386.543 76.736 387.039 76.864 387.583 76.864C388.127 76.864 388.623 76.736 389.071 76.48C389.53 76.2133 389.892 75.8347 390.159 75.344C390.426 74.8427 390.559 74.2613 390.559 73.6ZM396.047 70.656C396.303 70.1547 396.666 69.7653 397.135 69.488C397.615 69.2107 398.197 69.072 398.879 69.072V70.576H398.495C396.863 70.576 396.047 71.4613 396.047 73.232V78H394.591V69.232H396.047V70.656Z" fill="white"/>
<rect x="299.5" y="0.5" width="150" height="95" rx="11.5" stroke="#F36A22"/>
<rect x="498.5" y="0.5" width="97" height="95" rx="11.5" fill="#95544C"/>
<path d="M517.631 30L513.855 25.04V30H511.119V18.768H513.855V23.696L517.599 18.768H520.815L516.463 24.272L520.975 30H517.631ZM521.831 25.52C521.831 24.6027 522.001 23.7973 522.343 23.104C522.695 22.4107 523.169 21.8773 523.767 21.504C524.364 21.1307 525.031 20.944 525.767 20.944C526.396 20.944 526.945 21.072 527.415 21.328C527.895 21.584 528.263 21.92 528.519 22.336V21.072H531.255V30H528.519V28.736C528.252 29.152 527.879 29.488 527.399 29.744C526.929 30 526.38 30.128 525.751 30.128C525.025 30.128 524.364 29.9413 523.767 29.568C523.169 29.184 522.695 28.6453 522.343 27.952C522.001 27.248 521.831 26.4373 521.831 25.52ZM528.519 25.536C528.519 24.8533 528.327 24.3147 527.943 23.92C527.569 23.5253 527.111 23.328 526.567 23.328C526.023 23.328 525.559 23.5253 525.175 23.92C524.801 24.304 524.615 24.8373 524.615 25.52C524.615 26.2027 524.801 26.7467 525.175 27.152C525.559 27.5467 526.023 27.744 526.567 27.744C527.111 27.744 527.569 27.5467 527.943 27.152C528.327 26.7573 528.519 26.2187 528.519 25.536ZM536.07 22.56C536.39 22.0693 536.79 21.6853 537.27 21.408C537.75 21.12 538.284 20.976 538.87 20.976V23.872H538.118C537.436 23.872 536.924 24.0213 536.582 24.32C536.241 24.608 536.07 25.12 536.07 25.856V30H533.334V21.072H536.07V22.56ZM539.734 25.52C539.734 24.6027 539.905 23.7973 540.246 23.104C540.598 22.4107 541.073 21.8773 541.67 21.504C542.267 21.1307 542.934 20.944 543.67 20.944C544.299 20.944 544.849 21.072 545.318 21.328C545.798 21.584 546.166 21.92 546.422 22.336V21.072H549.158V30H546.422V28.736C546.155 29.152 545.782 29.488 545.302 29.744C544.833 30 544.283 30.128 543.654 30.128C542.929 30.128 542.267 29.9413 541.67 29.568C541.073 29.184 540.598 28.6453 540.246 27.952C539.905 27.248 539.734 26.4373 539.734 25.52ZM546.422 25.536C546.422 24.8533 546.23 24.3147 545.846 23.92C545.473 23.5253 545.014 23.328 544.47 23.328C543.926 23.328 543.462 23.5253 543.078 23.92C542.705 24.304 542.518 24.8373 542.518 25.52C542.518 26.2027 542.705 26.7467 543.078 27.152C543.462 27.5467 543.926 27.744 544.47 27.744C545.014 27.744 545.473 27.5467 545.846 27.152C546.23 26.7573 546.422 26.2187 546.422 25.536ZM555.301 30.128C554.427 30.128 553.637 29.9413 552.933 29.568C552.24 29.1947 551.691 28.6613 551.285 27.968C550.891 27.2747 550.693 26.464 550.693 25.536C550.693 24.6187 550.896 23.8133 551.301 23.12C551.707 22.416 552.261 21.8773 552.965 21.504C553.669 21.1307 554.459 20.944 555.333 20.944C556.208 20.944 556.997 21.1307 557.701 21.504C558.405 21.8773 558.96 22.416 559.365 23.12C559.771 23.8133 559.973 24.6187 559.973 25.536C559.973 26.4533 559.765 27.264 559.349 27.968C558.944 28.6613 558.384 29.1947 557.669 29.568C556.965 29.9413 556.176 30.128 555.301 30.128ZM555.301 27.76C555.824 27.76 556.267 27.568 556.629 27.184C557.003 26.8 557.189 26.2507 557.189 25.536C557.189 24.8213 557.008 24.272 556.645 23.888C556.293 23.504 555.856 23.312 555.333 23.312C554.8 23.312 554.357 23.504 554.005 23.888C553.653 24.2613 553.477 24.8107 553.477 25.536C553.477 26.2507 553.648 26.8 553.989 27.184C554.341 27.568 554.779 27.76 555.301 27.76ZM566.981 30L564.261 26.256V30H561.525V18.16H564.261V24.704L566.965 21.072H570.341L566.629 25.552L570.373 30H566.981ZM579.931 25.392C579.931 25.648 579.915 25.9147 579.883 26.192H573.691C573.734 26.7467 573.91 27.1733 574.219 27.472C574.539 27.76 574.929 27.904 575.387 27.904C576.07 27.904 576.545 27.616 576.811 27.04H579.723C579.574 27.6267 579.302 28.1547 578.907 28.624C578.523 29.0933 578.038 29.4613 577.451 29.728C576.865 29.9947 576.209 30.128 575.483 30.128C574.609 30.128 573.83 29.9413 573.147 29.568C572.465 29.1947 571.931 28.6613 571.547 27.968C571.163 27.2747 570.971 26.464 570.971 25.536C570.971 24.608 571.158 23.7973 571.531 23.104C571.915 22.4107 572.449 21.8773 573.131 21.504C573.814 21.1307 574.598 20.944 575.483 20.944C576.347 20.944 577.115 21.1253 577.787 21.488C578.459 21.8507 578.982 22.368 579.355 23.04C579.739 23.712 579.931 24.496 579.931 25.392ZM577.131 24.672C577.131 24.2027 576.971 23.8293 576.651 23.552C576.331 23.2747 575.931 23.136 575.451 23.136C574.993 23.136 574.603 23.2693 574.283 23.536C573.974 23.8027 573.782 24.1813 573.707 24.672H577.131ZM535.395 54H532.659L528.083 47.072V54H525.347V42.768H528.083L532.659 49.728V42.768H535.395V54ZM538.854 44.144C538.374 44.144 537.979 44.0053 537.67 43.728C537.371 43.44 537.222 43.088 537.222 42.672C537.222 42.2453 537.371 41.8933 537.67 41.616C537.979 41.328 538.374 41.184 538.854 41.184C539.323 41.184 539.707 41.328 540.006 41.616C540.315 41.8933 540.47 42.2453 540.47 42.672C540.47 43.088 540.315 43.44 540.006 43.728C539.707 44.0053 539.323 44.144 538.854 44.144ZM540.214 45.072V54H537.478V45.072H540.214ZM545.689 44.944C546.318 44.944 546.867 45.072 547.337 45.328C547.817 45.584 548.185 45.92 548.441 46.336V45.072H551.177V53.984C551.177 54.8053 551.011 55.5467 550.681 56.208C550.361 56.88 549.865 57.4133 549.193 57.808C548.531 58.2027 547.705 58.4 546.713 58.4C545.39 58.4 544.318 58.0853 543.497 57.456C542.675 56.8373 542.206 55.9947 542.089 54.928H544.793C544.878 55.2693 545.081 55.536 545.401 55.728C545.721 55.9307 546.115 56.032 546.585 56.032C547.15 56.032 547.598 55.8667 547.929 55.536C548.27 55.216 548.441 54.6987 548.441 53.984V52.72C548.174 53.136 547.806 53.4773 547.337 53.744C546.867 54 546.318 54.128 545.689 54.128C544.953 54.128 544.286 53.9413 543.689 53.568C543.091 53.184 542.617 52.6453 542.265 51.952C541.923 51.248 541.753 50.4373 541.753 49.52C541.753 48.6027 541.923 47.7973 542.265 47.104C542.617 46.4107 543.091 45.8773 543.689 45.504C544.286 45.1307 544.953 44.944 545.689 44.944ZM548.441 49.536C548.441 48.8533 548.249 48.3147 547.865 47.92C547.491 47.5253 547.033 47.328 546.489 47.328C545.945 47.328 545.481 47.5253 545.097 47.92C544.723 48.304 544.537 48.8373 544.537 49.52C544.537 50.2027 544.723 50.7467 545.097 51.152C545.481 51.5467 545.945 51.744 546.489 51.744C547.033 51.744 547.491 51.5467 547.865 51.152C548.249 50.7573 548.441 50.2187 548.441 49.536ZM558.744 44.976C559.768 44.976 560.589 45.3173 561.208 46C561.827 46.672 562.136 47.6 562.136 48.784V54H559.416V49.152C559.416 48.5547 559.261 48.0907 558.952 47.76C558.643 47.4293 558.227 47.264 557.704 47.264C557.181 47.264 556.765 47.4293 556.456 47.76C556.147 48.0907 555.992 48.5547 555.992 49.152V54H553.256V42.16H555.992V46.272C556.269 45.8773 556.648 45.5627 557.128 45.328C557.608 45.0933 558.147 44.976 558.744 44.976ZM569.113 51.68V54H567.721C566.729 54 565.956 53.76 565.401 53.28C564.847 52.7893 564.569 51.9947 564.569 50.896V47.344H563.481V45.072H564.569V42.896H567.305V45.072H569.097V47.344H567.305V50.928C567.305 51.1947 567.369 51.3867 567.497 51.504C567.625 51.6213 567.839 51.68 568.137 51.68H569.113ZM522.938 76.832C524.293 75.744 525.354 74.8533 526.122 74.16C526.89 73.456 527.535 72.7253 528.058 71.968C528.591 71.2 528.858 70.448 528.858 69.712C528.858 69.0187 528.687 68.4747 528.346 68.08C528.015 67.6747 527.477 67.472 526.73 67.472C526.005 67.472 525.439 67.7013 525.034 68.16C524.639 68.608 524.426 69.2107 524.394 69.968H522.986C523.029 68.7733 523.391 67.8507 524.074 67.2C524.757 66.5493 525.637 66.224 526.714 66.224C527.813 66.224 528.682 66.528 529.322 67.136C529.973 67.744 530.298 68.5813 530.298 69.648C530.298 70.5333 530.031 71.3973 529.498 72.24C528.975 73.072 528.378 73.808 527.706 74.448C527.034 75.0773 526.175 75.8133 525.13 76.656H530.634V77.872H522.938V76.832ZM532.033 67.76V66.432H535.041V78H533.569V67.76H532.033ZM553.56 66.928V78H552.104V69.744L548.424 78H547.4L543.704 69.728V78H542.248V66.928H543.816L547.912 76.08L552.008 66.928H553.56ZM555.585 73.584C555.585 72.688 555.766 71.904 556.129 71.232C556.492 70.5493 556.988 70.0213 557.617 69.648C558.257 69.2747 558.966 69.088 559.745 69.088C560.513 69.088 561.18 69.2533 561.745 69.584C562.31 69.9147 562.732 70.3307 563.009 70.832V69.232H564.481V78H563.009V76.368C562.721 76.88 562.289 77.3067 561.713 77.648C561.148 77.9787 560.486 78.144 559.729 78.144C558.95 78.144 558.246 77.952 557.617 77.568C556.988 77.184 556.492 76.6453 556.129 75.952C555.766 75.2587 555.585 74.4693 555.585 73.584ZM563.009 73.6C563.009 72.9387 562.876 72.3627 562.609 71.872C562.342 71.3813 561.98 71.008 561.521 70.752C561.073 70.4853 560.577 70.352 560.033 70.352C559.489 70.352 558.993 70.48 558.545 70.736C558.097 70.992 557.74 71.3653 557.473 71.856C557.206 72.3467 557.073 72.9227 557.073 73.584C557.073 74.256 557.206 74.8427 557.473 75.344C557.74 75.8347 558.097 76.2133 558.545 76.48C558.993 76.736 559.489 76.864 560.033 76.864C560.577 76.864 561.073 76.736 561.521 76.48C561.98 76.2133 562.342 75.8347 562.609 75.344C562.876 74.8427 563.009 74.2613 563.009 73.6ZM568.497 70.656C568.753 70.1547 569.116 69.7653 569.585 69.488C570.065 69.2107 570.647 69.072 571.329 69.072V70.576H570.945C569.313 70.576 568.497 71.4613 568.497 73.232V78H567.041V69.232H568.497V70.656Z" fill="white"/>
<rect x="498.5" y="0.5" width="97" height="95" rx="11.5" stroke="#F36A22"/>
<rect x="644.5" y="0.5" width="170" height="95" rx="11.5" fill="#95544C"/>
<path d="M670.178 18.768V30H667.442V23.264L664.93 30H662.722L660.194 23.248V30H657.458V18.768H660.69L663.842 26.544L666.962 18.768H670.178ZM671.701 25.52C671.701 24.6027 671.872 23.7973 672.213 23.104C672.565 22.4107 673.04 21.8773 673.637 21.504C674.234 21.1307 674.901 20.944 675.637 20.944C676.266 20.944 676.816 21.072 677.285 21.328C677.765 21.584 678.133 21.92 678.389 22.336V21.072H681.125V30H678.389V28.736C678.122 29.152 677.749 29.488 677.269 29.744C676.8 30 676.25 30.128 675.621 30.128C674.896 30.128 674.234 29.9413 673.637 29.568C673.04 29.184 672.565 28.6453 672.213 27.952C671.872 27.248 671.701 26.4373 671.701 25.52ZM678.389 25.536C678.389 24.8533 678.197 24.3147 677.813 23.92C677.44 23.5253 676.981 23.328 676.437 23.328C675.893 23.328 675.429 23.5253 675.045 23.92C674.672 24.304 674.485 24.8373 674.485 25.52C674.485 26.2027 674.672 26.7467 675.045 27.152C675.429 27.5467 675.893 27.744 676.437 27.744C676.981 27.744 677.44 27.5467 677.813 27.152C678.197 26.7573 678.389 26.2187 678.389 25.536ZM684.58 20.144C684.1 20.144 683.706 20.0053 683.396 19.728C683.098 19.44 682.948 19.088 682.948 18.672C682.948 18.2453 683.098 17.8933 683.396 17.616C683.706 17.328 684.1 17.184 684.58 17.184C685.05 17.184 685.434 17.328 685.732 17.616C686.042 17.8933 686.196 18.2453 686.196 18.672C686.196 19.088 686.042 19.44 685.732 19.728C685.434 20.0053 685.05 20.144 684.58 20.144ZM685.94 21.072V30H683.204V21.072H685.94ZM693.463 20.976C694.509 20.976 695.341 21.3173 695.959 22C696.589 22.672 696.903 23.6 696.903 24.784V30H694.183V25.152C694.183 24.5547 694.029 24.0907 693.719 23.76C693.41 23.4293 692.994 23.264 692.471 23.264C691.949 23.264 691.533 23.4293 691.223 23.76C690.914 24.0907 690.759 24.5547 690.759 25.152V30H688.023V21.072H690.759V22.256C691.037 21.8613 691.41 21.552 691.879 21.328C692.349 21.0933 692.877 20.976 693.463 20.976ZM705.131 20.96V23.232H708.795V25.344H705.131V27.808H709.275V30H702.395V18.768H709.275V20.96H705.131ZM715.167 27.44L717.103 21.072H720.015L716.847 30H713.471L710.303 21.072H713.231L715.167 27.44ZM729.683 25.392C729.683 25.648 729.667 25.9147 729.635 26.192H723.443C723.486 26.7467 723.662 27.1733 723.971 27.472C724.291 27.76 724.68 27.904 725.139 27.904C725.822 27.904 726.296 27.616 726.563 27.04H729.475C729.326 27.6267 729.054 28.1547 728.659 28.624C728.275 29.0933 727.79 29.4613 727.203 29.728C726.616 29.9947 725.96 30.128 725.235 30.128C724.36 30.128 723.582 29.9413 722.899 29.568C722.216 29.1947 721.683 28.6613 721.299 27.968C720.915 27.2747 720.723 26.464 720.723 25.536C720.723 24.608 720.91 23.7973 721.283 23.104C721.667 22.4107 722.2 21.8773 722.883 21.504C723.566 21.1307 724.35 20.944 725.235 20.944C726.099 20.944 726.867 21.1253 727.539 21.488C728.211 21.8507 728.734 22.368 729.107 23.04C729.491 23.712 729.683 24.496 729.683 25.392ZM726.883 24.672C726.883 24.2027 726.723 23.8293 726.403 23.552C726.083 23.2747 725.683 23.136 725.203 23.136C724.744 23.136 724.355 23.2693 724.035 23.536C723.726 23.8027 723.534 24.1813 723.459 24.672H726.883ZM736.666 20.976C737.712 20.976 738.544 21.3173 739.162 22C739.792 22.672 740.106 23.6 740.106 24.784V30H737.386V25.152C737.386 24.5547 737.232 24.0907 736.922 23.76C736.613 23.4293 736.197 23.264 735.674 23.264C735.152 23.264 734.736 23.4293 734.426 23.76C734.117 24.0907 733.962 24.5547 733.962 25.152V30H731.226V21.072H733.962V22.256C734.24 21.8613 734.613 21.552 735.082 21.328C735.552 21.0933 736.08 20.976 736.666 20.976ZM747.084 27.68V30H745.692C744.7 30 743.926 29.76 743.372 29.28C742.817 28.7893 742.54 27.9947 742.54 26.896V23.344H741.452V21.072H742.54V18.896H745.276V21.072H747.068V23.344H745.276V26.928C745.276 27.1947 745.34 27.3867 745.468 27.504C745.596 27.6213 745.809 27.68 746.108 27.68H747.084ZM760.758 22.384C760.758 23.0347 760.609 23.632 760.31 24.176C760.012 24.7093 759.553 25.1413 758.934 25.472C758.316 25.8027 757.548 25.968 756.63 25.968H754.934V30H752.198V18.768H756.63C757.526 18.768 758.284 18.9227 758.902 19.232C759.521 19.5413 759.985 19.968 760.294 20.512C760.604 21.056 760.758 21.68 760.758 22.384ZM756.422 23.792C756.945 23.792 757.334 23.6693 757.59 23.424C757.846 23.1787 757.974 22.832 757.974 22.384C757.974 21.936 757.846 21.5893 757.59 21.344C757.334 21.0987 756.945 20.976 756.422 20.976H754.934V23.792H756.422ZM770.699 25.392C770.699 25.648 770.683 25.9147 770.651 26.192H764.459C764.501 26.7467 764.677 27.1733 764.987 27.472C765.307 27.76 765.696 27.904 766.155 27.904C766.837 27.904 767.312 27.616 767.579 27.04H770.491C770.341 27.6267 770.069 28.1547 769.675 28.624C769.291 29.0933 768.805 29.4613 768.219 29.728C767.632 29.9947 766.976 30.128 766.251 30.128C765.376 30.128 764.597 29.9413 763.915 29.568C763.232 29.1947 762.699 28.6613 762.315 27.968C761.931 27.2747 761.739 26.464 761.739 25.536C761.739 24.608 761.925 23.7973 762.299 23.104C762.683 22.4107 763.216 21.8773 763.899 21.504C764.581 21.1307 765.365 20.944 766.251 20.944C767.115 20.944 767.883 21.1253 768.555 21.488C769.227 21.8507 769.749 22.368 770.123 23.04C770.507 23.712 770.699 24.496 770.699 25.392ZM767.899 24.672C767.899 24.2027 767.739 23.8293 767.419 23.552C767.099 23.2747 766.699 23.136 766.219 23.136C765.76 23.136 765.371 23.2693 765.051 23.536C764.741 23.8027 764.549 24.1813 764.475 24.672H767.899ZM774.978 22.56C775.298 22.0693 775.698 21.6853 776.178 21.408C776.658 21.12 777.191 20.976 777.778 20.976V23.872H777.026C776.343 23.872 775.831 24.0213 775.49 24.32C775.149 24.608 774.978 25.12 774.978 25.856V30H772.242V21.072H774.978V22.56ZM778.642 25.52C778.642 24.6027 778.812 23.7973 779.154 23.104C779.506 22.4107 779.98 21.8773 780.578 21.504C781.175 21.1307 781.842 20.944 782.578 20.944C783.207 20.944 783.756 21.072 784.226 21.328C784.706 21.584 785.074 21.92 785.33 22.336V21.072H788.066V30H785.33V28.736C785.063 29.152 784.69 29.488 784.21 29.744C783.74 30 783.191 30.128 782.562 30.128C781.836 30.128 781.175 29.9413 780.578 29.568C779.98 29.184 779.506 28.6453 779.154 27.952C778.812 27.248 778.642 26.4373 778.642 25.52ZM785.33 25.536C785.33 24.8533 785.138 24.3147 784.754 23.92C784.38 23.5253 783.922 23.328 783.378 23.328C782.834 23.328 782.37 23.5253 781.986 23.92C781.612 24.304 781.426 24.8373 781.426 25.52C781.426 26.2027 781.612 26.7467 781.986 27.152C782.37 27.5467 782.834 27.744 783.378 27.744C783.922 27.744 784.38 27.5467 784.754 27.152C785.138 26.7573 785.33 26.2187 785.33 25.536ZM795.601 30L792.881 26.256V30H790.145V18.16H792.881V24.704L795.585 21.072H798.961L795.249 25.552L798.993 30H795.601ZM682.87 42.768V54H680.134V47.264L677.622 54H675.414L672.886 47.248V54H670.15V42.768H673.382L676.534 50.544L679.654 42.768H682.87ZM693.353 49.392C693.353 49.648 693.337 49.9147 693.305 50.192H687.113C687.156 50.7467 687.332 51.1733 687.641 51.472C687.961 51.76 688.351 51.904 688.809 51.904C689.492 51.904 689.967 51.616 690.233 51.04H693.145C692.996 51.6267 692.724 52.1547 692.329 52.624C691.945 53.0933 691.46 53.4613 690.873 53.728C690.287 53.9947 689.631 54.128 688.905 54.128C688.031 54.128 687.252 53.9413 686.569 53.568C685.887 53.1947 685.353 52.6613 684.969 51.968C684.585 51.2747 684.393 50.464 684.393 49.536C684.393 48.608 684.58 47.7973 684.953 47.104C685.337 46.4107 685.871 45.8773 686.553 45.504C687.236 45.1307 688.02 44.944 688.905 44.944C689.769 44.944 690.537 45.1253 691.209 45.488C691.881 45.8507 692.404 46.368 692.777 47.04C693.161 47.712 693.353 48.496 693.353 49.392ZM690.553 48.672C690.553 48.2027 690.393 47.8293 690.073 47.552C689.753 47.2747 689.353 47.136 688.873 47.136C688.415 47.136 688.025 47.2693 687.705 47.536C687.396 47.8027 687.204 48.1813 687.129 48.672H690.553ZM700.337 44.976C701.382 44.976 702.214 45.3173 702.833 46C703.462 46.672 703.777 47.6 703.777 48.784V54H701.057V49.152C701.057 48.5547 700.902 48.0907 700.593 47.76C700.283 47.4293 699.867 47.264 699.345 47.264C698.822 47.264 698.406 47.4293 698.097 47.76C697.787 48.0907 697.633 48.5547 697.633 49.152V54H694.897V45.072H697.633V46.256C697.91 45.8613 698.283 45.552 698.753 45.328C699.222 45.0933 699.75 44.976 700.337 44.976ZM705.234 49.536C705.234 48.608 705.421 47.7973 705.794 47.104C706.178 46.4107 706.706 45.8773 707.378 45.504C708.061 45.1307 708.839 44.944 709.714 44.944C710.834 44.944 711.767 45.2373 712.514 45.824C713.271 46.4107 713.767 47.2373 714.002 48.304H711.09C710.845 47.6213 710.37 47.28 709.666 47.28C709.165 47.28 708.765 47.4773 708.466 47.872C708.167 48.256 708.018 48.8107 708.018 49.536C708.018 50.2613 708.167 50.8213 708.466 51.216C708.765 51.6 709.165 51.792 709.666 51.792C710.37 51.792 710.845 51.4507 711.09 50.768H714.002C713.767 51.8133 713.271 52.6347 712.514 53.232C711.757 53.8293 710.823 54.128 709.714 54.128C708.839 54.128 708.061 53.9413 707.378 53.568C706.706 53.1947 706.178 52.6613 705.794 51.968C705.421 51.2747 705.234 50.464 705.234 49.536ZM715.021 49.52C715.021 48.6027 715.192 47.7973 715.533 47.104C715.885 46.4107 716.36 45.8773 716.957 45.504C717.555 45.1307 718.221 44.944 718.957 44.944C719.587 44.944 720.136 45.072 720.605 45.328C721.085 45.584 721.453 45.92 721.709 46.336V45.072H724.445V54H721.709V52.736C721.443 53.152 721.069 53.488 720.589 53.744C720.12 54 719.571 54.128 718.941 54.128C718.216 54.128 717.555 53.9413 716.957 53.568C716.36 53.184 715.885 52.6453 715.533 51.952C715.192 51.248 715.021 50.4373 715.021 49.52ZM721.709 49.536C721.709 48.8533 721.517 48.3147 721.133 47.92C720.76 47.5253 720.301 47.328 719.757 47.328C719.213 47.328 718.749 47.5253 718.365 47.92C717.992 48.304 717.805 48.8373 717.805 49.52C717.805 50.2027 717.992 50.7467 718.365 51.152C718.749 51.5467 719.213 51.744 719.757 51.744C720.301 51.744 720.76 51.5467 721.133 51.152C721.517 50.7573 721.709 50.2187 721.709 49.536ZM729.261 46.56C729.581 46.0693 729.981 45.6853 730.461 45.408C730.941 45.12 731.474 44.976 732.061 44.976V47.872H731.309C730.626 47.872 730.114 48.0213 729.773 48.32C729.431 48.608 729.261 49.12 729.261 49.856V54H726.525V45.072H729.261V46.56ZM734.845 44.144C734.365 44.144 733.97 44.0053 733.661 43.728C733.362 43.44 733.213 43.088 733.213 42.672C733.213 42.2453 733.362 41.8933 733.661 41.616C733.97 41.328 734.365 41.184 734.845 41.184C735.314 41.184 735.698 41.328 735.997 41.616C736.306 41.8933 736.461 42.2453 736.461 42.672C736.461 43.088 736.306 43.44 735.997 43.728C735.698 44.0053 735.314 44.144 734.845 44.144ZM736.205 45.072V54H733.469V45.072H736.205ZM748.578 48.24C749.229 48.3787 749.751 48.704 750.146 49.216C750.541 49.7173 750.738 50.2933 750.738 50.944C750.738 51.8827 750.407 52.6293 749.746 53.184C749.095 53.728 748.183 54 747.01 54H741.778V42.768H746.834C747.975 42.768 748.866 43.0293 749.506 43.552C750.157 44.0747 750.482 44.784 750.482 45.68C750.482 46.3413 750.306 46.8907 749.954 47.328C749.613 47.7653 749.154 48.0693 748.578 48.24ZM744.514 47.312H746.306C746.754 47.312 747.095 47.216 747.33 47.024C747.575 46.8213 747.698 46.528 747.698 46.144C747.698 45.76 747.575 45.4667 747.33 45.264C747.095 45.0613 746.754 44.96 746.306 44.96H744.514V47.312ZM746.53 51.792C746.989 51.792 747.341 51.6907 747.586 51.488C747.842 51.2747 747.97 50.9707 747.97 50.576C747.97 50.1813 747.837 49.872 747.57 49.648C747.314 49.424 746.957 49.312 746.498 49.312H744.514V51.792H746.53ZM751.881 49.52C751.881 48.6027 752.051 47.7973 752.393 47.104C752.745 46.4107 753.219 45.8773 753.817 45.504C754.414 45.1307 755.081 44.944 755.817 44.944C756.446 44.944 756.995 45.072 757.465 45.328C757.945 45.584 758.313 45.92 758.569 46.336V45.072H761.305V54H758.569V52.736C758.302 53.152 757.929 53.488 757.449 53.744C756.979 54 756.43 54.128 755.801 54.128C755.075 54.128 754.414 53.9413 753.817 53.568C753.219 53.184 752.745 52.6453 752.393 51.952C752.051 51.248 751.881 50.4373 751.881 49.52ZM758.569 49.536C758.569 48.8533 758.377 48.3147 757.993 47.92C757.619 47.5253 757.161 47.328 756.617 47.328C756.073 47.328 755.609 47.5253 755.225 47.92C754.851 48.304 754.665 48.8373 754.665 49.52C754.665 50.2027 754.851 50.7467 755.225 51.152C755.609 51.5467 756.073 51.744 756.617 51.744C757.161 51.744 757.619 51.5467 757.993 51.152C758.377 50.7573 758.569 50.2187 758.569 49.536ZM768.84 54L766.12 50.256V54H763.384V42.16H766.12V48.704L768.824 45.072H772.2L768.488 49.552L772.232 54H768.84ZM772.831 49.52C772.831 48.6027 773.001 47.7973 773.343 47.104C773.695 46.4107 774.169 45.8773 774.767 45.504C775.364 45.1307 776.031 44.944 776.767 44.944C777.396 44.944 777.945 45.072 778.415 45.328C778.895 45.584 779.263 45.92 779.519 46.336V45.072H782.255V54H779.519V52.736C779.252 53.152 778.879 53.488 778.399 53.744C777.929 54 777.38 54.128 776.751 54.128C776.025 54.128 775.364 53.9413 774.767 53.568C774.169 53.184 773.695 52.6453 773.343 51.952C773.001 51.248 772.831 50.4373 772.831 49.52ZM779.519 49.536C779.519 48.8533 779.327 48.3147 778.943 47.92C778.569 47.5253 778.111 47.328 777.567 47.328C777.023 47.328 776.559 47.5253 776.175 47.92C775.801 48.304 775.615 48.8373 775.615 49.52C775.615 50.2027 775.801 50.7467 776.175 51.152C776.559 51.5467 777.023 51.744 777.567 51.744C778.111 51.744 778.569 51.5467 778.943 51.152C779.327 50.7573 779.519 50.2187 779.519 49.536ZM789.31 51.68V54H787.918C786.926 54 786.153 53.76 785.598 53.28C785.044 52.7893 784.766 51.9947 784.766 50.896V47.344H783.678V45.072H784.766V42.896H787.502V45.072H789.294V47.344H787.502V50.928C787.502 51.1947 787.566 51.3867 787.694 51.504C787.822 51.6213 788.036 51.68 788.334 51.68H789.31ZM705.438 76.832C706.793 75.744 707.854 74.8533 708.622 74.16C709.39 73.456 710.035 72.7253 710.558 71.968C711.091 71.2 711.358 70.448 711.358 69.712C711.358 69.0187 711.187 68.4747 710.846 68.08C710.515 67.6747 709.977 67.472 709.23 67.472C708.505 67.472 707.939 67.7013 707.534 68.16C707.139 68.608 706.926 69.2107 706.894 69.968H705.486C705.529 68.7733 705.891 67.8507 706.574 67.2C707.257 66.5493 708.137 66.224 709.214 66.224C710.313 66.224 711.182 66.528 711.822 67.136C712.473 67.744 712.798 68.5813 712.798 69.648C712.798 70.5333 712.531 71.3973 711.998 72.24C711.475 73.072 710.878 73.808 710.206 74.448C709.534 75.0773 708.675 75.8133 707.63 76.656H713.134V77.872H705.438V76.832ZM714.533 67.76V66.432H717.541V78H716.069V67.76H714.533ZM736.06 66.928V78H734.604V69.744L730.924 78H729.9L726.204 69.728V78H724.748V66.928H726.316L730.412 76.08L734.508 66.928H736.06ZM738.085 73.584C738.085 72.688 738.266 71.904 738.629 71.232C738.992 70.5493 739.488 70.0213 740.117 69.648C740.757 69.2747 741.466 69.088 742.245 69.088C743.013 69.088 743.68 69.2533 744.245 69.584C744.81 69.9147 745.232 70.3307 745.509 70.832V69.232H746.981V78H745.509V76.368C745.221 76.88 744.789 77.3067 744.213 77.648C743.648 77.9787 742.986 78.144 742.229 78.144C741.45 78.144 740.746 77.952 740.117 77.568C739.488 77.184 738.992 76.6453 738.629 75.952C738.266 75.2587 738.085 74.4693 738.085 73.584ZM745.509 73.6C745.509 72.9387 745.376 72.3627 745.109 71.872C744.842 71.3813 744.48 71.008 744.021 70.752C743.573 70.4853 743.077 70.352 742.533 70.352C741.989 70.352 741.493 70.48 741.045 70.736C740.597 70.992 740.24 71.3653 739.973 71.856C739.706 72.3467 739.573 72.9227 739.573 73.584C739.573 74.256 739.706 74.8427 739.973 75.344C740.24 75.8347 740.597 76.2133 741.045 76.48C741.493 76.736 741.989 76.864 742.533 76.864C743.077 76.864 743.573 76.736 744.021 76.48C744.48 76.2133 744.842 75.8347 745.109 75.344C745.376 74.8427 745.509 74.2613 745.509 73.6ZM750.997 70.656C751.253 70.1547 751.616 69.7653 752.085 69.488C752.565 69.2107 753.147 69.072 753.829 69.072V70.576H753.445C751.813 70.576 750.997 71.4613 750.997 73.232V78H749.541V69.232H750.997V70.656Z" fill="white"/>
<rect x="644.5" y="0.5" width="170" height="95" rx="11.5" stroke="#F36A22"/>
</svg>
