<svg width="587" height="302" viewBox="0 0 587 302" fill="none" xmlns="http://www.w3.org/2000/svg">
<rect x="6" y="6" width="575" height="290" rx="18" fill="#C04994" stroke="#6DB8C2" stroke-width="12"/>
<ellipse cx="333.19" cy="87.9316" rx="5.19014" ry="5.93158" fill="#C7CC70"/>
<ellipse cx="490.377" cy="87.9316" rx="5.19014" ry="5.93158" fill="#C7CC70"/>
<ellipse cx="490.377" cy="141.316" rx="5.19014" ry="5.93158" fill="#C7CC70"/>
<ellipse cx="333.19" cy="141.316" rx="5.19014" ry="5.93158" fill="#C7CC70"/>
<rect x="329.483" y="89.4145" width="164.601" height="50.4185" fill="black" stroke="#C7CC70" stroke-width="2.96579"/>
<path d="M336.897 96.829H353.209" stroke="#242A2B" stroke-width="4.44869"/>
<path d="M336.897 114.624H353.209" stroke="#242A2B" stroke-width="4.44869"/>
<path d="M336.897 130.936H353.209" stroke="#242A2B" stroke-width="4.44869"/>
<path d="M335.415 114.624V130.936" stroke="#242A2B" stroke-width="4.44869"/>
<path d="M354.692 96.829V113.141" stroke="#242A2B" stroke-width="4.44869"/>
<path d="M354.692 114.624V130.936" stroke="#242A2B" stroke-width="4.44869"/>
<path d="M335.415 96.829V113.141" stroke="#EFABD6" stroke-width="4.44869"/>
<path d="M368.038 96.829V113.141" stroke="#242A2B" stroke-width="4.44869"/>
<path d="M369.521 96.829H385.832" stroke="#242A2B" stroke-width="4.44869"/>
<path d="M369.521 114.624H385.832" stroke="#242A2B" stroke-width="4.44869"/>
<path d="M369.521 130.936H385.832" stroke="#242A2B" stroke-width="4.44869"/>
<path d="M368.038 114.624V130.936" stroke="#242A2B" stroke-width="4.44869"/>
<path d="M387.316 96.829V113.141" stroke="#EFABD6" stroke-width="4.44869"/>
<path d="M387.316 114.624V130.936" stroke="#EFABD6" stroke-width="4.44869"/>
<path d="M400.663 96.829V113.141" stroke="#EFABD6" stroke-width="4.44869"/>
<path d="M402.145 96.829H418.457" stroke="#EFABD6" stroke-width="4.44869"/>
<path d="M402.145 114.624H418.457" stroke="#242A2B" stroke-width="4.44869"/>
<path d="M402.145 130.936H418.457" stroke="#EFABD6" stroke-width="4.44869"/>
<path d="M400.663 114.624V130.936" stroke="#EFABD6" stroke-width="4.44869"/>
<path d="M419.94 96.829V113.141" stroke="#EFABD6" stroke-width="4.44869"/>
<path d="M419.94 114.624V130.936" stroke="#EFABD6" stroke-width="4.44869"/>
<path d="M433.286 96.829V113.141" stroke="#EFABD6" stroke-width="4.44869"/>
<path d="M434.769 96.829H451.08" stroke="#EFABD6" stroke-width="4.44869"/>
<path d="M434.769 114.624H451.08" stroke="#242A2B" stroke-width="4.44869"/>
<path d="M434.769 130.936H451.08" stroke="#EFABD6" stroke-width="4.44869"/>
<path d="M433.286 114.624V130.936" stroke="#EFABD6" stroke-width="4.44869"/>
<path d="M452.563 96.829V113.141" stroke="#EFABD6" stroke-width="4.44869"/>
<path d="M452.563 114.624V130.936" stroke="#EFABD6" stroke-width="4.44869"/>
<path d="M465.91 96.829V113.141" stroke="#EFABD6" stroke-width="4.44869"/>
<path d="M467.392 96.829H483.704" stroke="#EFABD6" stroke-width="4.44869"/>
<path d="M467.392 114.624H483.704" stroke="#242A2B" stroke-width="4.44869"/>
<path d="M467.392 130.936H483.704" stroke="#EFABD6" stroke-width="4.44869"/>
<path d="M465.91 114.624V130.936" stroke="#EFABD6" stroke-width="4.44869"/>
<path d="M485.188 96.829V113.141" stroke="#EFABD6" stroke-width="4.44869"/>
<path d="M485.188 114.624V130.936" stroke="#EFABD6" stroke-width="4.44869"/>
<mask id="mask0_353_18435" style="mask-type:alpha" maskUnits="userSpaceOnUse" x="326" y="113" width="134" height="166">
<rect x="-0.5" y="0.5" width="133" height="164.87" transform="matrix(-1 0 0 1 459 113.13)" fill="#D9D9D9" stroke="#F4EFD3"/>
</mask>
<g mask="url(#mask0_353_18435)">
<g filter="url(#filter0_d_353_18435)">
<path d="M394.216 139.391L378.246 158.362" stroke="#F4EFD3" stroke-width="9.52578" stroke-linecap="round"/>
<path d="M400.724 159.937L384.367 183.225" stroke="#F4EFD3" stroke-width="9.52578" stroke-linecap="round"/>
<path d="M409.425 186.1L390.547 210.494" stroke="#F4EFD3" stroke-width="9.52578" stroke-linecap="round"/>
<path d="M419.764 217.217L397.164 241.507" stroke="#F4EFD3" stroke-width="9.52578" stroke-linecap="round"/>
<path d="M375.738 153.814L426.68 376.423" stroke="#F4EFD3" stroke-width="6.49485" stroke-linecap="round"/>
<path d="M392.828 130.066L460.724 337.213" stroke="#F4EFD3" stroke-width="6.49485" stroke-linecap="round"/>
<path d="M430.149 248.501L405.702 278.925" stroke="#F4EFD3" stroke-width="9.52578" stroke-linecap="round"/>
</g>
</g>
<path d="M88 120.015C98.2043 123.133 103.947 119.564 114.202 108.947C128.862 97.0884 136.018 97.557 147.18 108.947C157.047 116.709 163.541 116.629 177.673 104.655C186.575 95.6189 192.136 94.9162 203.649 104.655C216.018 116.172 222.579 114.529 232.787 96.9754C239.144 88.2307 234.317 82.6875 256.73 86.7434C260.99 88.2462 263.533 88.9621 264.812 89.2691C266.072 89.4251 266.317 89.6302 264.812 89.2691C263.231 89.0732 260.051 88.9548 256.73 90.1316C239.526 94.0913 242.634 100.877 240.241 105.039C230.058 126.833 223.518 132.569 209.748 129.728C202.579 125.511 200.013 122.277 197.098 115.497C191.958 107.961 186.625 109.578 174.511 122.951C162.294 134.118 155.826 133.824 144.921 122.951C133.484 111.399 127.231 113.023 116.235 122.951C107.319 133.726 101.712 137.264 88.6776 131.083L88 120.015Z" fill="#2F7A84" stroke="black" stroke-width="3"/>
<path d="M114.202 103.978C103.947 114.595 98.2043 118.164 88 115.046L88.6776 126.114C101.712 132.295 107.319 128.757 116.235 117.982C127.231 108.053 133.484 106.43 144.921 117.982C155.826 128.854 162.294 129.149 174.511 117.982C186.625 104.608 191.958 102.992 197.098 110.528C200.013 117.308 202.579 120.541 209.748 124.758C223.518 127.6 230.735 125.771 240.918 103.978C243.312 99.815 249.464 97.547 266.668 93.5873C274.884 90.6766 282.233 89.1396 266.668 83.6487C244.256 79.5928 239.144 83.2614 232.787 92.0062C222.579 109.559 216.018 111.202 203.649 99.686C192.136 89.947 186.575 90.6497 177.673 99.686C163.541 111.66 157.047 111.739 147.18 103.978C136.018 92.5878 128.862 92.1191 114.202 103.978Z" fill="#FEB048" stroke="black" stroke-width="3"/>
<path d="M221.041 125.82L221.493 129.208" stroke="black" stroke-width="3"/>
<path d="M215.846 126.046V130.112" stroke="black" stroke-width="3"/>
<path d="M211.329 125.142V129.66" stroke="black" stroke-width="3"/>
<path d="M207.94 123.787L206.811 127.175" stroke="black" stroke-width="3"/>
<path d="M204.553 120.851L202.294 123.561" stroke="black" stroke-width="3"/>
<path d="M200.261 116.559L198.68 117.914" stroke="black" stroke-width="3"/>
<path d="M195.969 108.879L194.839 112.493" stroke="black" stroke-width="3"/>
<path d="M186.708 107.298L188.063 111.138" stroke="black" stroke-width="3"/>
<path d="M181.739 111.138L183.772 113.849" stroke="black" stroke-width="3"/>
<path d="M177.899 114.526L179.706 117.237" stroke="black" stroke-width="3"/>
<path d="M174.511 118.366L176.544 120.851" stroke="black" stroke-width="3"/>
<path d="M171.349 121.302L173.156 124.013" stroke="black" stroke-width="3"/>
<path d="M167.283 124.013L169.09 127.175" stroke="black" stroke-width="3"/>
<path d="M163.217 125.82L164.572 129.66" stroke="black" stroke-width="3"/>
<path d="M157.118 126.498L155.989 130.338" stroke="black" stroke-width="3"/>
<path d="M152.375 124.239L150.342 127.401" stroke="black" stroke-width="3"/>
<path d="M148.083 121.077L145.824 123.11" stroke="black" stroke-width="3"/>
<path d="M144.017 117.463L141.984 119.496" stroke="black" stroke-width="3"/>
<path d="M139.951 113.623L137.467 116.559" stroke="black" stroke-width="3"/>
<path d="M134.079 110.46L132.724 114.526" stroke="black" stroke-width="3"/>
<path d="M126.851 110.912L126.399 115.43" stroke="black" stroke-width="3"/>
<path d="M121.43 114.074L122.333 117.914" stroke="black" stroke-width="3"/>
<path d="M116.686 117.689L117.59 121.528" stroke="black" stroke-width="3"/>
<path d="M112.395 122.432L113.75 125.594" stroke="black" stroke-width="3"/>
<path d="M109.006 125.82L110.362 128.982" stroke="black" stroke-width="3"/>
<path d="M104.263 128.531L105.167 132.371" stroke="black" stroke-width="3"/>
<path d="M98.6162 129.208L99.068 133.952" stroke="black" stroke-width="3"/>
<path d="M93.4214 128.079V132.596" stroke="black" stroke-width="3"/>
<ellipse cx="258.763" cy="86.5175" rx="2.25877" ry="1.80701" fill="black"/>
<path d="M275.704 88.5504L287.901 96.682" stroke="black" stroke-width="3" stroke-linecap="round"/>
<path d="M275.026 90.3574H294" stroke="black" stroke-width="3" stroke-linecap="round"/>
<path d="M299.014 191.28L303.174 171.709L285.004 160.793L280.844 180.365L299.014 191.28Z" fill="white" stroke="#272B52" stroke-linecap="round"/>
<path d="M267.076 150.635L284.646 160.587L280.46 180.283L262.988 169.869L267.076 150.635Z" fill="#F36A22" stroke="#272B52" stroke-linecap="round"/>
<path d="M251.31 141.641L266.691 150.553L262.631 169.655L247.15 161.212L251.31 141.641Z" fill="#71770B" stroke="#272B52"/>
<path d="M294.04 212.794L298.63 191.198L280.46 180.283L275.799 202.216L294.04 212.794Z" fill="#BB83F2" stroke="#272B52"/>
<path d="M275.486 201.797L280.076 180.201L262.916 170.206L258.541 190.79L275.486 201.797Z" fill="#00E5AC" stroke="#272B52"/>
<path d="M258.157 190.708L262.603 169.787L247.15 161.212L243.16 181.878L258.157 190.708Z" fill="white" stroke="#272B52"/>
<path d="M289.352 232.959L293.655 212.712L275.798 202.216L271.567 222.125L289.352 232.959Z" fill="white" stroke="#272B52"/>
<path d="M271.183 222.044L275.414 202.135L258.854 191.209L254.766 210.443L271.183 222.044Z" fill="#BB83F2" stroke="#272B52"/>
<path d="M254.381 210.361L258.469 191.127L243.088 182.215L239.215 200.437L254.381 210.361Z" fill="#C7CC70" stroke="#272B52"/>
<path d="M304.576 157.547L322.745 168.462L303.245 171.371L285.772 160.957L304.576 157.547Z" fill="#BB83F2" stroke="#272B52"/>
<path d="M286.648 147.388L303.808 157.383L285.389 160.875L267.46 150.716L286.648 147.388Z" fill="#C7CC70" stroke="#272B52"/>
<path d="M268.648 137.567L285.495 147.143L267.075 150.635L250.997 141.222L268.648 137.567Z" fill="#F36A22" stroke="#272B52"/>
<path d="M321.699 154.485L340.253 165.482L322.746 168.462L304.576 157.547L321.699 154.485Z" fill="white" stroke="#272B52"/>
<path d="M305.236 144.991L321.386 154.066L304.264 157.128L286.719 147.051L305.236 144.991Z" fill="#71770B" stroke="#272B52"/>
<path d="M288.702 135.833L304.924 144.571L285.951 146.887L268.719 137.229L288.702 135.833Z" fill="#BB83F2" stroke="#272B52"/>
<path d="M340.324 165.144L356.15 162.512L337.524 151.853L322.083 154.567L340.324 165.144Z" fill="#C7CC70" stroke="#272B52"/>
<path d="M322.155 154.229L337.212 151.434L319.453 142.369L305.308 144.653L322.155 154.229Z" fill="white" stroke="#272B52"/>
<path d="M304.995 144.234L319.14 141.95L304.84 133.621L289.158 135.578L304.995 144.234Z" fill="#00E5AC" stroke="#272B52"/>
<path d="M317.603 188.882L321.906 168.636L303.246 171.371L298.871 191.955L317.603 188.882Z" fill="#C7CC70" stroke="#272B52"/>
<path d="M313.228 209.466L317.531 189.22L298.415 192.211L294.04 212.794L313.228 209.466Z" fill="#00E5AC" stroke="#272B52"/>
<path d="M308.898 227.943L312.771 209.722L293.967 213.132L289.736 233.04L308.898 227.943Z" fill="#F36A22" stroke="#272B52"/>
<path d="M335.949 185.728L340.181 165.819L322.289 168.718L317.986 188.964L335.949 185.728Z" fill="#00E5AC" stroke="#272B52"/>
<path d="M330.565 205.392L335.878 186.066L317.915 189.302L313.755 208.873L330.565 205.392Z" fill="#BB83F2" stroke="#272B52"/>
<path d="M326.236 223.869L330.878 205.811L313.612 209.548L309.596 228.444L326.236 223.869Z" fill="#71770B" stroke="#272B52"/>
<path d="M352.903 181.572L356.847 163.013L340.637 165.564L336.334 185.81L352.903 181.572Z" fill="#71770B" stroke="#272B52"/>
<path d="M347.447 201.574L352.831 181.91L336.262 186.147L330.949 205.474L347.447 201.574Z" fill="#F36A22" stroke="#272B52"/>
<path d="M341.678 221.156L347.303 202.248L330.878 205.811L327.005 224.033L341.678 221.156Z" fill="#00E5AC" stroke="#272B52"/>
<path d="M208.447 202.597L196.617 182.236L172.144 187.065L183.973 207.426L208.447 202.597Z" fill="#F2E7E2" stroke="#272B52" stroke-linecap="round"/>
<path d="M148.477 192.363L171.668 187.168L183.573 207.658L160.103 212.373L148.477 192.363Z" fill="#FEB048" stroke="#272B52" stroke-linecap="round"/>
<path d="M127.618 196.969L148.077 192.596L159.623 212.469L139.448 217.33L127.618 196.969Z" fill="#EABB76" stroke="#272B52"/>
<path d="M221.1 225.297L208.047 202.83L183.573 207.658L196.83 230.476L221.1 225.297Z" fill="#A33233" stroke="#272B52"/>
<path d="M196.226 230.358L183.173 207.89L160.307 212.724L172.748 234.138L196.226 230.358Z" fill="#A3AA10" stroke="#272B52"/>
<path d="M172.349 234.37L159.703 212.605L139.448 217.33L152.29 238.512L172.349 234.37Z" fill="#F2E7E2" stroke="#272B52"/>
<path d="M232.939 246.592L220.701 225.529L196.831 230.476L208.865 251.188L232.939 246.592Z" fill="#F2E7E2" stroke="#272B52"/>
<path d="M208.464 251.421L196.431 230.709L173.352 234.257L184.978 254.267L208.464 251.421Z" fill="#A33233" stroke="#272B52"/>
<path d="M184.578 254.499L172.952 234.489L152.494 238.863L163.508 257.82L184.578 254.499Z" fill="#2F7A84" stroke="#272B52"/>
<path d="M186.655 168.773L211.129 163.944L196.413 181.885L172.943 186.6L186.655 168.773Z" fill="#A33233" stroke="#272B52"/>
<path d="M162.989 174.071L185.855 169.238L172.543 186.833L148.877 192.131L162.989 174.071Z" fill="#2F7A84" stroke="#272B52"/>
<path d="M139.527 179.72L161.789 174.768L148.477 192.363L127.014 196.851L139.527 179.72Z" fill="#FEB048" stroke="#272B52"/>
<path d="M199.175 152.577L224.048 147.516L211.128 163.944L186.654 168.773L199.175 152.577Z" fill="#F2E7E2" stroke="#272B52"/>
<path d="M177.312 157.297L198.571 152.458L186.051 168.654L162.785 173.72L177.312 157.297Z" fill="#EABB76" stroke="#272B52"/>
<path d="M155.654 162.368L176.708 157.178L161.985 174.185L139.322 179.369L155.654 162.368Z" fill="#A33233" stroke="#272B52"/>
<path d="M223.844 147.165L235.573 132.368L210.903 137.78L199.575 152.345L223.844 147.165Z" fill="#2F7A84" stroke="#272B52"/>
<path d="M199.371 151.993L210.3 137.661L187.645 143.78L177.109 156.946L199.371 151.993Z" fill="#F2E7E2" stroke="#272B52"/>
<path d="M176.505 156.827L187.042 143.662L167.987 147.69L155.85 161.784L176.505 156.827Z" fill="#A3AA10" stroke="#272B52"/>
<path d="M222.771 185.823L210.533 164.76L196.413 181.885L208.855 203.299L222.771 185.823Z" fill="#2F7A84" stroke="#272B52"/>
<path d="M235.212 207.237L222.974 186.174L208.658 203.883L221.1 225.297L235.212 207.237Z" fill="#A3AA10" stroke="#272B52"/>
<path d="M246.03 226.777L235.016 207.82L221.304 225.648L233.338 246.36L246.03 226.777Z" fill="#FEB048" stroke="#272B52"/>
<path d="M236.287 168.579L224.253 147.867L210.933 164.528L223.171 185.591L236.287 168.579Z" fill="#A3AA10" stroke="#272B52"/>
<path d="M247.121 189.988L236.491 168.93L223.375 185.942L235.204 206.303L247.121 189.988Z" fill="#A33233" stroke="#272B52"/>
<path d="M257.939 209.528L247.725 190.107L235.612 207.005L247.034 226.664L257.939 209.528Z" fill="#EABB76" stroke="#272B52"/>
<path d="M247.796 151.562L236.578 132.255L224.449 147.284L236.687 168.347L247.796 151.562Z" fill="#EABB76" stroke="#272B52"/>
<path d="M258.833 173.322L247.999 151.913L236.89 168.698L247.52 189.756L258.833 173.322Z" fill="#FEB048" stroke="#272B52"/>
<path d="M269.267 194.964L259.241 174.024L247.725 190.107L258.739 209.063L269.267 194.964Z" fill="#A3AA10" stroke="#272B52"/>
<path d="M507.663 213.803C500.199 216.083 496 213.473 488.499 205.708C477.777 197.035 472.544 197.378 464.38 205.708C457.163 211.385 452.414 211.327 442.078 202.569C435.568 195.96 431.5 195.446 423.08 202.569C414.034 210.992 409.235 209.79 401.77 196.952C397.12 190.557 400.65 186.503 384.258 189.469C381.143 190.568 379.283 191.092 378.347 191.316C377.426 191.43 377.246 191.58 378.347 191.316C379.504 191.173 381.829 191.086 384.258 191.947C396.841 194.843 394.568 199.806 396.318 202.85C403.766 218.79 408.548 222.985 418.62 220.906C423.863 217.822 425.74 215.458 427.871 210.499C431.631 204.987 435.531 206.169 444.391 215.95C453.326 224.118 458.057 223.902 466.032 215.95C474.397 207.501 478.97 208.689 487.013 215.95C493.533 223.831 497.634 226.418 507.167 221.898L507.663 213.803Z" fill="#2F7A84" stroke="black" stroke-width="1.83495"/>
<path d="M488.499 202.074C496 209.839 500.199 212.449 507.663 210.169L507.167 218.263C497.634 222.784 493.533 220.197 487.013 212.316C478.97 205.055 474.397 203.867 466.032 212.316C458.057 220.268 453.326 220.483 444.391 212.316C435.531 202.535 431.631 201.353 427.871 206.865C425.74 211.823 423.863 214.188 418.62 217.272C408.548 219.35 403.27 218.013 395.822 202.074C394.072 199.029 389.572 197.371 376.99 194.475C370.981 192.346 365.606 191.222 376.99 187.206C393.382 184.239 397.12 186.923 401.77 193.318C409.235 206.156 414.034 207.358 423.08 198.935C431.5 191.812 435.568 192.326 442.078 198.935C452.414 207.692 457.163 207.751 464.38 202.074C472.544 193.744 477.777 193.401 488.499 202.074Z" fill="#FEB048" stroke="black" stroke-width="1.83495"/>
<path d="M410.36 218.049L410.03 220.527" stroke="black" stroke-width="1.83495"/>
<path d="M414.16 218.214V221.187" stroke="black" stroke-width="1.83495"/>
<path d="M417.463 217.553V220.857" stroke="black" stroke-width="1.83495"/>
<path d="M419.942 216.562L420.768 219.04" stroke="black" stroke-width="1.83495"/>
<path d="M422.419 214.414L424.071 216.397" stroke="black" stroke-width="1.83495"/>
<path d="M425.558 211.275L426.715 212.267" stroke="black" stroke-width="1.83495"/>
<path d="M428.697 205.659L429.523 208.302" stroke="black" stroke-width="1.83495"/>
<path d="M435.47 204.502L434.479 207.311" stroke="black" stroke-width="1.83495"/>
<path d="M390.149 200L388.663 201.982" stroke="black" stroke-width="1.83495"/>
<path d="M441.913 209.789L440.591 211.771" stroke="black" stroke-width="1.83495"/>
<path d="M444.391 212.597L442.904 214.414" stroke="black" stroke-width="1.83495"/>
<path d="M446.704 214.745L445.382 216.727" stroke="black" stroke-width="1.83495"/>
<path d="M449.678 216.727L448.356 219.04" stroke="black" stroke-width="1.83495"/>
<path d="M452.651 218.049L451.66 220.857" stroke="black" stroke-width="1.83495"/>
<path d="M457.112 218.544L457.938 221.353" stroke="black" stroke-width="1.83495"/>
<path d="M460.581 216.892L462.068 219.205" stroke="black" stroke-width="1.83495"/>
<path d="M463.72 214.579L465.372 216.066" stroke="black" stroke-width="1.83495"/>
<path d="M466.693 211.936L468.18 213.423" stroke="black" stroke-width="1.83495"/>
<path d="M469.667 209.128L471.484 211.276" stroke="black" stroke-width="1.83495"/>
<path d="M473.961 206.815L474.953 209.789" stroke="black" stroke-width="1.83495"/>
<path d="M479.248 207.145L479.579 210.449" stroke="black" stroke-width="1.83495"/>
<path d="M483.213 209.458L482.552 212.267" stroke="black" stroke-width="1.83495"/>
<path d="M486.683 212.101L486.022 214.91" stroke="black" stroke-width="1.83495"/>
<path d="M489.821 215.571L488.83 217.884" stroke="black" stroke-width="1.83495"/>
<path d="M492.299 218.049L491.308 220.362" stroke="black" stroke-width="1.83495"/>
<path d="M495.769 220.031L495.108 222.839" stroke="black" stroke-width="1.83495"/>
<path d="M499.898 220.527L499.568 223.996" stroke="black" stroke-width="1.83495"/>
<path d="M503.698 219.701V223.005" stroke="black" stroke-width="1.83495"/>
<ellipse cx="1.652" cy="1.3216" rx="1.652" ry="1.3216" transform="matrix(-1 0 0 1 384.424 187.982)" fill="black"/>
<path d="M370.382 190.791L361.461 196.738" stroke="black" stroke-width="1.83495" stroke-linecap="round"/>
<path d="M370.877 192.112H357" stroke="black" stroke-width="1.83495" stroke-linecap="round"/>
<defs>
<filter id="filter0_d_353_18435" x="371.79" y="126.043" width="92.8824" height="260.465" filterUnits="userSpaceOnUse" color-interpolation-filters="sRGB">
<feFlood flood-opacity="0" result="BackgroundImageFix"/>
<feColorMatrix in="SourceAlpha" type="matrix" values="0 0 0 0 0 0 0 0 0 0 0 0 0 0 0 0 0 0 127 0" result="hardAlpha"/>
<feOffset dy="4.3299"/>
<feGaussianBlur stdDeviation="0.86598"/>
<feComposite in2="hardAlpha" operator="out"/>
<feColorMatrix type="matrix" values="0 0 0 0 0 0 0 0 0 0 0 0 0 0 0 0 0 0 0.5 0"/>
<feBlend mode="normal" in2="BackgroundImageFix" result="effect1_dropShadow_353_18435"/>
<feBlend mode="normal" in="SourceGraphic" in2="effect1_dropShadow_353_18435" result="shape"/>
</filter>
</defs>
</svg>
