<svg width="1363" height="543" viewBox="0 0 1363 543" fill="none" xmlns="http://www.w3.org/2000/svg">
<mask id="mask0_567_5400" style="mask-type:alpha" maskUnits="userSpaceOnUse" x="-4" y="0" width="1367" height="543">
<rect x="-3.5" y="0.90921" width="1366" height="542" fill="#D9D9D9"/>
</mask>
<g mask="url(#mask0_567_5400)">
<path d="M-113.506 521.731C71.0862 547.053 453.101 574.598 504.423 482.201C568.576 366.705 765.843 356.069 881.381 432.04C996.919 508.012 1301.8 360.186 1438.92 531.176C1548.62 667.969 1672.5 645.962 1720.73 617.859" stroke="#F3E9C4" stroke-width="4"/>
<path d="M-148.63 621.769C35.9622 647.091 417.977 674.636 469.299 582.239C533.452 466.743 730.719 456.106 846.257 532.078C961.795 608.049 1266.68 460.223 1403.8 631.214C1513.49 768.006 1637.38 745.999 1685.6 717.897" stroke="#F3E9C4" stroke-width="4"/>
<path d="M-183.752 721.805C0.840278 747.128 382.855 774.672 434.177 682.276C498.33 566.78 695.597 556.143 811.135 632.115C926.673 708.086 1231.56 560.26 1368.68 731.251C1478.37 868.043 1602.25 846.036 1650.48 817.934" stroke="#F3E9C4" stroke-width="4"/>
<path d="M-124.54 447.241C60.0524 472.563 442.067 500.108 493.389 407.711C557.542 292.215 754.809 281.578 870.347 357.55C985.885 433.521 1290.77 285.695 1427.89 456.686C1537.58 593.478 1661.47 571.471 1709.7 543.369" stroke="#F3E9C4" stroke-width="4"/>
<path d="M-135.58 372.751C49.0126 398.073 431.028 425.617 482.35 333.221C546.502 217.725 743.769 207.088 859.307 283.06C974.845 359.031 1279.73 211.205 1416.85 382.196C1526.54 518.988 1650.43 496.981 1698.66 468.879" stroke="#F3E9C4" stroke-width="4"/>
<path d="M-146.617 298.26C37.9749 323.582 419.99 351.127 471.312 258.73C535.465 143.234 732.731 132.598 848.269 208.569C963.807 284.541 1268.69 136.715 1405.81 307.705C1515.51 444.498 1639.39 422.491 1687.62 394.388" stroke="#F3E9C4" stroke-width="4"/>
<path d="M-157.651 223.769C26.9411 249.092 408.956 276.636 460.278 184.24C524.431 68.7436 721.697 58.107 837.236 134.079C952.774 210.05 1257.66 62.2242 1394.78 233.215C1504.47 370.007 1628.35 348 1676.58 319.898" stroke="#F3E9C4" stroke-width="4"/>
<path d="M-168.687 149.28C15.9053 174.602 397.92 202.147 449.242 109.75C513.395 -5.74602 710.662 -16.3827 826.2 59.589C941.738 135.561 1246.62 -12.2655 1383.74 158.725C1493.44 295.517 1617.32 273.511 1665.55 245.408" stroke="#F3E9C4" stroke-width="4"/>
<path d="M1168.7 37C1166.66 50.9404 1163.07 56.1745 1152 60.7527C1164.29 63.6763 1166.72 70.0732 1168.7 84C1172 70.7176 1174.29 63.7008 1188 60.7527C1175.74 57.1264 1171.77 51.619 1168.7 37Z" fill="#F2E7E2" stroke="#F2E7E2" stroke-width="8" stroke-linejoin="round"/>
<path d="M1168.7 37C1166.66 50.9404 1163.07 56.1745 1152 60.7527C1164.29 63.6763 1166.72 70.0732 1168.7 84C1172 70.7176 1174.29 63.7008 1188 60.7527C1175.74 57.1264 1171.77 51.619 1168.7 37Z" fill="#A3AA10" stroke="#242A2B" stroke-width="2"/>
<path d="M1237 44C1233.1 76.9232 1226.21 89.2844 1205 100.097C1228.56 107.002 1233.22 122.109 1237 155C1243.34 123.631 1247.72 107.059 1274 100.097C1250.5 91.5325 1242.89 78.5256 1237 44Z" fill="#F2E7E2" stroke="#F2E7E2" stroke-width="8" stroke-linejoin="round"/>
<path d="M1237 44C1233.1 76.9232 1226.21 89.2844 1205 100.097C1228.56 107.002 1233.22 122.109 1237 155C1243.34 123.631 1247.72 107.059 1274 100.097C1250.5 91.5325 1242.89 78.5256 1237 44Z" fill="#F36A22" stroke="#242A2B" stroke-width="2"/>
<path d="M192.928 34C188.916 62.4741 181.825 73.1649 160 82.5161C184.24 88.4878 189.033 101.554 192.928 130C199.453 102.87 203.963 88.5377 231 82.5161C206.815 75.1092 198.987 63.86 192.928 34Z" fill="#F2E7E2" stroke="#F2E7E2" stroke-width="8" stroke-linejoin="round"/>
<path d="M192.928 34C188.916 62.4741 181.825 73.1649 160 82.5161C184.24 88.4878 189.033 101.554 192.928 130C199.453 102.87 203.963 88.5377 231 82.5161C206.815 75.1092 198.987 63.86 192.928 34Z" fill="#CA5355" stroke="#242A2B" stroke-width="2"/>
<path d="M128.986 118C127.403 129.271 124.607 133.503 116 137.204C125.559 139.568 127.45 144.74 128.986 156C131.559 145.261 133.338 139.588 144 137.204C134.462 134.272 131.375 129.82 128.986 118Z" fill="#F2E7E2" stroke="#F2E7E2" stroke-width="8" stroke-linejoin="round"/>
<path d="M128.986 118C127.403 129.271 124.607 133.503 116 137.204C125.559 139.568 127.45 144.74 128.986 156C131.559 145.261 133.338 139.588 144 137.204C134.462 134.272 131.375 129.82 128.986 118Z" fill="#2F7A84" stroke="#242A2B" stroke-width="2"/>
<path d="M375.743 530.689L677.236 768.222L236.213 530.689L375.743 530.689Z" fill="url(#paint0_linear_567_5400)"/>
<path d="M1176.75 626.767L737.252 770.815L1167.14 691.063L1176.75 626.767Z" fill="url(#paint1_linear_567_5400)"/>
<path d="M561.214 518L690.129 773.228L519.214 532L561.214 518Z" fill="url(#paint2_linear_567_5400)"/>
<path d="M936.643 463.385L724.582 772.402H749.248L1010.33 530.556L936.643 463.385Z" fill="url(#paint3_linear_567_5400)"/>
<path d="M707.222 400.72L699.093 770.385L716.622 770.385L805.494 417.577L707.222 400.72Z" fill="url(#paint4_linear_567_5400)"/>
<path d="M561.013 440.011L685.563 772.509L620.159 414.607L561.013 440.011Z" fill="url(#paint5_linear_567_5400)"/>
<path d="M733.213 524L716.326 769.744L785.213 524L733.213 524Z" fill="url(#paint6_linear_567_5400)"/>
<path d="M979.564 507.301L744.284 773.216L1086.98 528.7L979.564 507.301Z" fill="url(#paint7_linear_567_5400)"/>
</g>
<defs>
<linearGradient id="paint0_linear_567_5400" x1="422.077" y1="490.241" x2="491.373" y2="808.669" gradientUnits="userSpaceOnUse">
<stop stop-color="#E9DEA6" stop-opacity="0"/>
<stop offset="1" stop-color="#E9DEA6"/>
</linearGradient>
<linearGradient id="paint1_linear_567_5400" x1="1105.25" y1="561.994" x2="835.462" y2="859.789" gradientUnits="userSpaceOnUse">
<stop offset="0.39178" stop-color="#EABB76" stop-opacity="0"/>
<stop offset="1" stop-color="#EABB76"/>
</linearGradient>
<linearGradient id="paint2_linear_567_5400" x1="639.592" y1="462.894" x2="562.543" y2="737.419" gradientUnits="userSpaceOnUse">
<stop stop-color="#E9DEA6"/>
<stop offset="0.469907" stop-color="#E9DEA6" stop-opacity="0"/>
<stop offset="1" stop-color="#E9DEA6" stop-opacity="0"/>
</linearGradient>
<linearGradient id="paint3_linear_567_5400" x1="867.456" y1="463.385" x2="867.456" y2="772.402" gradientUnits="userSpaceOnUse">
<stop offset="0.204277" stop-color="#E9DEA6" stop-opacity="0"/>
<stop offset="1" stop-color="#E9DEA6"/>
</linearGradient>
<linearGradient id="paint4_linear_567_5400" x1="651.453" y1="436.41" x2="822.02" y2="702.934" gradientUnits="userSpaceOnUse">
<stop offset="0.303237" stop-color="#E9DEA6" stop-opacity="0"/>
<stop offset="1" stop-color="#E9DEA6"/>
</linearGradient>
<linearGradient id="paint5_linear_567_5400" x1="518.08" y1="506.407" x2="757.517" y2="661.23" gradientUnits="userSpaceOnUse">
<stop offset="0.355321" stop-color="#EABB76" stop-opacity="0"/>
<stop offset="1" stop-color="#EABB76"/>
</linearGradient>
<linearGradient id="paint6_linear_567_5400" x1="689.159" y1="456.499" x2="831.223" y2="703.72" gradientUnits="userSpaceOnUse">
<stop offset="0.584492" stop-color="#EABB76" stop-opacity="0"/>
<stop offset="1" stop-color="#EABB76"/>
</linearGradient>
<linearGradient id="paint7_linear_567_5400" x1="928.389" y1="502.892" x2="903.91" y2="786.971" gradientUnits="userSpaceOnUse">
<stop offset="0.438656" stop-color="#EABB76" stop-opacity="0"/>
<stop offset="1" stop-color="#EABB76"/>
</linearGradient>
</defs>
</svg>
